<?xml version="1.0" standalone="no"?>
<!DOCTYPE svg PUBLIC "-//W3C//DTD SVG 20010904//EN"
 "http://www.w3.org/TR/2001/REC-SVG-20010904/DTD/svg10.dtd">
<svg version="1.0" xmlns="http://www.w3.org/2000/svg"
 width="700.000000pt" height="700.000000pt" viewBox="0 0 700.000000 700.000000"
 preserveAspectRatio="xMidYMid meet">
<metadata>
Created by potrace 1.11, written by Peter Selinger 2001-2013
</metadata>
<g transform="translate(0.000000,700.000000) scale(0.100000,-0.100000)"
fill="#000000" stroke="none">
<path d="M1995 6733 c-157 -21 -383 -144 -700 -383 -454 -343 -642 -569 -651
-785 -3 -62 0 -76 28 -125 46 -82 153 -222 331 -435 106 -125 222 -250 378
-405 141 -139 163 -160 264 -245 155 -131 287 -218 368 -245 74 -24 207 1 435
81 62 21 117 39 122 39 17 0 652 -751 980 -1160 85 -106 165 -205 177 -219 12
-14 38 -46 58 -71 20 -25 42 -52 48 -60 280 -346 571 -722 654 -845 59 -88 70
-113 78 -180 4 -36 18 -82 36 -115 38 -71 131 -176 164 -184 16 -4 53 2 95 15
67 22 70 22 90 4 11 -10 49 -73 83 -139 116 -220 299 -511 397 -630 190 -232
414 -372 610 -381 203 -9 320 75 320 232 0 51 -48 147 -124 248 -60 79 -224
248 -336 345 -41 36 -77 67 -80 70 -20 20 -176 140 -340 262 -107 80 -212 163
-232 186 l-37 41 16 38 c43 104 -2 263 -96 336 -33 26 -41 28 -101 24 -36 -3
-79 -3 -94 0 -29 6 -80 51 -151 134 -43 50 -49 57 -110 134 -22 27 -46 57 -54
65 -8 8 -49 58 -90 110 -42 52 -81 102 -88 110 -34 42 -245 307 -265 333 -13
17 -28 35 -33 41 -9 9 -279 349 -442 556 -424 538 -643 827 -697 920 l-38 65
18 32 c9 18 20 33 24 33 24 0 125 204 176 355 32 93 38 123 38 195 0 74 -6
101 -43 210 -43 126 -165 382 -258 540 -76 130 -117 195 -125 198 -5 2 -8 8
-8 12 0 5 -14 29 -30 52 -17 24 -53 77 -82 118 -70 101 -187 260 -211 285 -10
11 -33 39 -50 62 -37 48 -115 98 -172 109 -22 4 -47 9 -55 11 -23 6 -162 10
-195 6z"/>
</g>
</svg>
