<?xml version="1.0" standalone="no"?>
<!DOCTYPE svg PUBLIC "-//W3C//DTD SVG 20010904//EN"
 "http://www.w3.org/TR/2001/REC-SVG-20010904/DTD/svg10.dtd">
<svg version="1.0" xmlns="http://www.w3.org/2000/svg"
 width="700.000000pt" height="700.000000pt" viewBox="0 0 700.000000 700.000000"
 preserveAspectRatio="xMidYMid meet">
<metadata>
Created by potrace 1.11, written by Peter Selinger 2001-2013
</metadata>
<g transform="translate(0.000000,700.000000) scale(0.100000,-0.100000)"
fill="#000000" stroke="none">
<path d="M3905 5853 c-30 -6 -95 -34 -139 -61 -150 -92 -301 -167 -364 -181
-43 -9 -59 -8 -87 4 -19 7 -35 18 -35 23 0 6 -15 17 -34 26 -76 36 -154 7
-175 -65 -17 -55 -7 -89 40 -143 109 -124 282 -134 508 -30 41 19 75 33 76 32
2 -2 -28 -53 -65 -113 -95 -157 -124 -231 -124 -325 0 -91 17 -147 91 -295
l55 -110 -6 -80 c-3 -44 -7 -93 -10 -110 -16 -113 -21 -177 -21 -306 l0 -145
38 -72 c38 -73 45 -117 26 -154 -11 -20 -9 -21 37 -15 68 7 77 23 70 122 -3
44 -8 91 -11 105 -3 14 -8 57 -10 96 -3 64 2 85 45 210 26 76 60 171 75 209
51 134 48 147 -53 335 -105 195 -106 203 -15 360 12 19 50 85 86 146 154 264
191 370 158 457 -20 51 -96 90 -156 80z"/>
<path d="M4161 5153 c-45 -22 -101 -137 -94 -192 13 -96 113 -140 192 -85 28
20 81 129 81 167 0 67 -55 127 -117 127 -15 0 -43 -8 -62 -17z"/>
<path d="M745 4874 c-16 -8 -66 -41 -110 -73 -44 -32 -93 -61 -110 -65 -59
-13 -85 -29 -107 -64 -55 -89 -3 -195 102 -208 38 -4 154 26 174 47 6 5 14 9
18 9 4 0 8 -153 8 -341 0 -298 2 -345 17 -376 46 -98 189 -98 239 0 13 24 16
64 17 191 0 89 2 165 4 169 3 4 10 4 16 -1 34 -28 92 -52 161 -67 42 -9 83
-24 91 -31 22 -22 35 -81 35 -157 0 -80 23 -133 68 -159 60 -36 148 -14 188
47 12 19 16 46 15 108 0 45 -3 92 -5 103 -2 12 -7 37 -10 55 -28 164 -123 253
-316 299 -30 8 -63 21 -73 30 -16 14 -4 21 169 95 164 70 189 83 209 115 42
64 37 120 -14 171 -57 57 -93 55 -273 -22 -78 -33 -167 -72 -197 -85 -29 -14
-56 -22 -59 -19 -4 3 -8 24 -9 47 -5 84 -44 153 -104 183 -37 19 -106 19 -144
-1z"/>
<path d="M5235 4875 c-73 -39 -177 -175 -231 -301 l-27 -63 -51 44 c-88 77
-175 107 -303 104 -118 -3 -174 -39 -193 -124 -6 -27 -3 -44 14 -78 30 -59 73
-80 153 -72 74 6 137 -12 161 -47 48 -66 54 -104 57 -319 2 -169 6 -212 20
-238 34 -66 148 -81 204 -27 33 32 44 64 82 251 72 349 141 524 247 632 32 33
62 73 64 88 9 43 -8 96 -40 128 -37 37 -110 47 -157 22z"/>
<path d="M2003 4734 c-85 -22 -154 -63 -220 -129 -97 -100 -144 -216 -144
-354 0 -78 3 -98 21 -160 46 -150 161 -270 308 -322 38 -14 83 -21 138 -21
355 -3 579 404 408 743 -30 61 -115 153 -170 185 -109 64 -236 86 -341 58z
m189 -256 c121 -68 166 -224 104 -353 -43 -86 -118 -134 -204 -128 -141 9
-239 169 -196 319 26 89 74 145 146 170 39 14 119 9 150 -8z"/>
<path d="M4146 4740 c-15 -5 -37 -17 -48 -27 -46 -41 -49 -59 -47 -316 1 -326
21 -434 98 -547 57 -83 99 -102 228 -104 130 -3 170 12 200 73 50 100 -19 198
-139 199 -27 0 -55 1 -63 1 -9 1 -21 23 -31 59 -14 46 -18 105 -19 308 -3 290
-7 309 -79 344 -46 22 -56 23 -100 10z"/>
<path d="M5770 4743 c-182 -31 -334 -177 -385 -370 -20 -74 -17 -199 5 -274
59 -194 222 -335 405 -351 100 -9 232 27 304 83 23 19 23 19 52 -21 16 -22 42
-46 58 -55 35 -18 146 -20 188 -4 56 21 97 91 83 141 -5 15 -6 28 -4 28 18 0
-54 72 -82 82 -26 9 -34 18 -35 38 0 14 -2 34 -5 45 -2 11 -5 142 -7 290 -2
174 -7 277 -14 290 -6 11 -23 31 -38 45 -22 21 -36 25 -86 25 -52 0 -62 -3
-90 -31 l-31 -32 -57 28 c-31 15 -69 31 -86 35 -37 9 -141 13 -175 8z m160
-268 c78 -41 130 -145 125 -247 -12 -206 -226 -306 -363 -169 -130 130 -81
373 86 428 41 14 114 8 152 -12z"/>
<path d="M2723 4724 c-61 -31 -65 -56 -61 -338 4 -225 7 -258 27 -316 28 -84
46 -117 101 -183 127 -153 331 -178 480 -58 62 49 84 76 121 146 58 107 67
162 68 428 2 267 -3 293 -64 321 -44 21 -73 20 -112 -4 -54 -33 -57 -44 -58
-300 -1 -273 -10 -313 -82 -389 -41 -42 -44 -44 -90 -38 -40 4 -54 12 -84 46
-62 69 -72 121 -74 385 -1 145 -5 238 -12 251 -31 57 -102 79 -160 49z"/>
<path d="M3655 3655 c-48 -17 -110 -83 -119 -126 -3 -17 -6 -143 -6 -280 l0
-248 -30 -16 c-16 -8 -32 -15 -35 -15 -11 2 -362 -113 -390 -127 -41 -21 -63
-46 -87 -99 -58 -133 61 -282 206 -259 40 7 282 82 359 111 20 7 38 13 40 13
1 -1 54 15 117 36 63 20 142 45 175 55 33 10 139 44 235 75 96 31 229 74 295
95 66 21 185 59 265 85 80 26 214 69 298 96 l154 49 441 -222 c243 -122 518
-260 612 -306 214 -108 257 -113 348 -48 92 67 92 232 0 300 -14 11 -320 167
-679 348 -569 285 -659 328 -698 328 -29 0 -140 -30 -313 -86 -147 -47 -308
-99 -358 -114 -155 -49 -336 -107 -450 -144 -60 -20 -112 -36 -115 -36 -3 0
-5 91 -6 203 0 174 -3 207 -18 236 -49 93 -143 131 -241 96z"/>
<path d="M2472 3560 c-41 -17 -90 -60 -107 -95 -41 -89 57 -181 141 -132 66
38 119 110 107 145 -24 77 -77 107 -141 82z"/>
<path d="M1738 3305 c-2 -2 -34 -5 -73 -9 -38 -3 -79 -7 -90 -10 -11 -2 -40
-7 -65 -11 -25 -4 -56 -9 -70 -12 -51 -8 -162 -56 -186 -80 -52 -52 -14 -152
57 -153 l27 0 0 -235 c1 -233 4 -256 38 -289 24 -25 88 -20 121 8 l28 24 3
276 3 276 22 1 c12 0 31 2 42 5 11 2 49 6 85 10 36 3 69 7 75 8 6 1 10 -95 11
-259 1 -143 2 -270 3 -281 1 -24 42 -70 69 -76 31 -8 82 12 99 39 16 24 18 58
20 298 0 148 2 273 2 278 1 4 15 7 32 7 102 0 152 95 85 162 l-29 29 -153 -2
c-85 -1 -155 -3 -156 -4z"/>
<path d="M2398 3250 c-238 -40 -371 -326 -257 -552 42 -83 91 -133 167 -170
58 -29 76 -33 147 -33 66 1 91 6 142 29 107 49 182 146 207 270 55 261 -156
498 -406 456z m130 -204 c107 -55 128 -228 39 -314 -42 -40 -80 -54 -131 -46
-91 13 -152 99 -144 205 10 133 128 211 236 155z"/>
<path d="M723 3229 c-64 -12 -126 -44 -172 -91 -211 -211 -88 -585 200 -606
74 -5 149 14 194 50 l27 21 24 -30 c13 -17 36 -35 51 -41 37 -12 108 -8 138 8
23 13 45 56 45 90 0 24 -38 70 -66 80 -17 7 -24 18 -25 37 -3 52 -8 268 -8
346 -1 73 -3 81 -30 108 -38 37 -87 39 -124 5 -23 -21 -28 -22 -50 -11 -64 33
-139 45 -204 34z m110 -185 c102 -53 128 -193 52 -282 -40 -46 -73 -60 -128
-56 -101 9 -165 138 -123 248 34 88 123 129 199 90z"/>
<path d="M5225 2745 c-53 -24 -85 -100 -65 -160 17 -51 46 -70 210 -138 l155
-64 -1 -94 c-1 -52 -4 -139 -8 -194 -4 -55 -9 -143 -12 -195 -2 -52 -7 -120
-9 -150 -13 -152 -11 -173 24 -212 25 -28 35 -32 75 -32 34 1 53 7 71 24 40
38 47 87 70 525 9 170 14 227 19 232 2 2 23 -5 47 -15 129 -58 174 -64 226
-32 45 27 66 73 60 127 -8 78 -24 87 -417 247 -197 80 -371 146 -387 145 -15
0 -41 -7 -58 -14z"/>
<path d="M4727 2584 c-1 -1 -38 -5 -82 -8 -44 -4 -105 -9 -135 -11 -52 -5 -76
-8 -175 -20 -68 -9 -153 -36 -170 -55 -45 -50 -33 -128 26 -173 l34 -26 -1
-333 c0 -183 3 -347 8 -364 23 -85 135 -104 188 -32 l24 32 0 367 c1 202 3
370 6 372 5 5 146 20 205 21 l30 1 2 -365 c0 -201 2 -378 2 -393 1 -41 59 -97
100 -97 46 0 91 27 106 63 10 25 12 133 11 492 -1 425 -2 462 -19 486 -23 35
-63 51 -116 48 -23 -2 -43 -4 -44 -5z"/>
<path d="M3815 2449 c-122 -15 -156 -21 -255 -45 -205 -50 -296 -113 -301
-209 -5 -80 37 -130 166 -200 131 -70 209 -135 221 -181 14 -56 -65 -129 -223
-208 -50 -25 -94 -46 -97 -46 -4 0 -25 -9 -49 -19 -23 -10 -62 -26 -87 -36
-126 -47 -173 -147 -109 -229 37 -47 146 -87 279 -102 30 -3 66 -8 80 -11 49
-10 466 -12 535 -2 208 29 304 99 271 198 -23 70 -95 92 -172 52 -22 -11 -60
-25 -86 -29 -53 -10 -426 -12 -478 -3 l-35 7 47 21 c79 36 188 111 248 171
130 130 133 300 7 433 -46 49 -133 116 -185 143 -19 10 -32 19 -30 21 3 3 107
26 178 40 15 3 113 17 140 20 8 1 34 5 57 9 80 14 117 97 76 167 -29 48 -62
55 -198 38z"/>
<path d="M5093 2270 c-18 -11 -36 -32 -40 -47 -8 -33 -8 -469 0 -528 14 -99
20 -123 40 -164 32 -66 63 -84 137 -82 84 2 124 30 136 96 8 45 -36 114 -73
115 -7 0 -13 6 -14 13 0 6 -2 21 -5 32 -2 11 -6 126 -8 255 -2 129 -5 243 -5
252 -1 9 -15 30 -32 47 -37 37 -87 41 -136 11z"/>
<path d="M6068 2100 c-46 -8 -74 -32 -87 -74 -11 -32 -66 -332 -78 -421 -13
-95 -8 -230 12 -293 23 -79 59 -115 138 -141 93 -30 133 -31 164 -3 72 63 52
154 -43 193 -40 17 -53 28 -57 48 -8 43 1 171 19 266 2 11 16 81 30 155 28
148 28 212 -3 238 -35 31 -57 38 -95 32z"/>
</g>
</svg>
