<?xml version="1.0" encoding="UTF-8" standalone="no"?>
<!-- Created with Inkscape (http://www.inkscape.org/) -->

<svg
   xmlns:dc="http://purl.org/dc/elements/1.1/"
   xmlns:cc="http://creativecommons.org/ns#"
   xmlns:rdf="http://www.w3.org/1999/02/22-rdf-syntax-ns#"
   xmlns:svg="http://www.w3.org/2000/svg"
   xmlns="http://www.w3.org/2000/svg"
   xmlns:sodipodi="http://sodipodi.sourceforge.net/DTD/sodipodi-0.dtd"
   xmlns:inkscape="http://www.inkscape.org/namespaces/inkscape"
   width="52.546288mm"
   height="37.187202mm"
   viewBox="0 0 186.18763 131.76568"
   id="svg30581"
   version="1.1"
   inkscape:version="0.91 r13725"
   sodipodi:docname="footer-promo.svg">
  <defs
     id="defs30583" />
  <sodipodi:namedview
     id="base"
     pagecolor="#ffffff"
     bordercolor="#666666"
     borderopacity="1.0"
     inkscape:pageopacity="0.0"
     inkscape:pageshadow="2"
     inkscape:zoom="0.35"
     inkscape:cx="93.093814"
     inkscape:cy="65.882835"
     inkscape:document-units="px"
     inkscape:current-layer="layer1"
     showgrid="false"
     fit-margin-top="0"
     fit-margin-left="0"
     fit-margin-right="0"
     fit-margin-bottom="0"
     inkscape:window-width="1881"
     inkscape:window-height="1176"
     inkscape:window-x="39"
     inkscape:window-y="24"
     inkscape:window-maximized="1" />
  <metadata
     id="metadata30586">
    <rdf:RDF>
      <cc:Work
         rdf:about="">
        <dc:format>image/svg+xml</dc:format>
        <dc:type
           rdf:resource="http://purl.org/dc/dcmitype/StillImage" />
        <dc:title></dc:title>
      </cc:Work>
    </rdf:RDF>
  </metadata>
  <g
     inkscape:label="Layer 1"
     inkscape:groupmode="layer"
     id="layer1"
     transform="translate(513.8081,-466.47936)">
    <g
       id="g31309">
      <path
         d="m -499.9441,476.43924 2.66375,-4.38 -2.37375,-3.915 0,-0.95875 6.2325,0 0,1.095 -4.5425,0 2.28875,3.77875 -2.6125,4.305 5.2075,0 0,1.095 -6.86375,0 0,-1.02 z"
         style="fill:#ffffff;fill-opacity:1;fill-rule:nonzero;stroke:none"
         id="path346"
         inkscape:connector-curvature="0" />
      <path
         d="m -489.51935,477.66974 c -0.39875,0 -0.725,-0.0425 -0.9775,-0.1275 -0.2525,-0.085 -0.45,-0.21125 -0.59,-0.3825 -0.14,-0.17 -0.23625,-0.3775 -0.28625,-0.6225 -0.0512,-0.245 -0.0762,-0.5325 -0.0762,-0.8625 l 0,-4.47 -1.7075,0 0,-0.945 5.27625,0 0,0.945 -2.2375,0 0,4.2425 c 0,0.45125 0.0713,0.76625 0.21375,0.94625 0.1425,0.18125 0.37875,0.27125 0.70875,0.27125 0.205,0 0.44125,-0.0113 0.70875,-0.0375 0.2675,-0.025 0.50375,-0.0625 0.70875,-0.1125 l 0.1875,0.81625 c -0.205,0.0875 -0.40875,0.155 -0.61375,0.19875 -0.205,0.0437 -0.39375,0.0763 -0.56375,0.0962 -0.17125,0.0188 -0.3225,0.0312 -0.45375,0.0362 -0.13,0.005 -0.22375,0.007 -0.28,0.007 l -0.0175,0 z"
         style="fill:#ffffff;fill-opacity:1;fill-rule:nonzero;stroke:none"
         id="path350"
         inkscape:connector-curvature="0" />
      <path
         d="m -483.58798,471.00961 c -0.3875,0 -0.70375,0.0738 -0.9475,0.2175 -0.245,0.145 -0.4375,0.3425 -0.58125,0.5925 -0.14125,0.25125 -0.24125,0.5425 -0.2975,0.87875 -0.0575,0.33375 -0.085,0.68625 -0.085,1.05625 0,0.43 0.0275,0.825 0.085,1.18625 0.0562,0.36 0.15625,0.6725 0.2975,0.9375 0.14375,0.26375 0.33625,0.47 0.58125,0.61375 0.24375,0.145 0.56,0.21875 0.9475,0.21875 0.37625,0 0.68625,-0.0713 0.93125,-0.21 0.24375,-0.14125 0.43875,-0.33875 0.58,-0.59375 0.1425,-0.255 0.245,-0.5625 0.3075,-0.9225 0.0625,-0.35875 0.0937,-0.755 0.0937,-1.185 0,-0.36875 -0.0275,-0.7225 -0.085,-1.0575 -0.0575,-0.335 -0.16,-0.63 -0.3075,-0.885 -0.1475,-0.25375 -0.345,-0.45875 -0.58875,-0.61375 -0.245,-0.155 -0.555,-0.23375 -0.93125,-0.23375 m -0.0687,6.66 c -0.59125,0 -1.095,-0.0975 -1.51125,-0.2925 -0.415,-0.195 -0.7525,-0.46125 -1.015,-0.8025 -0.2625,-0.33875 -0.4525,-0.74 -0.5725,-1.2 -0.11875,-0.46 -0.17875,-0.95375 -0.17875,-1.485 0,-0.5 0.0563,-0.98125 0.17,-1.4475 0.115,-0.465 0.305,-0.875 0.5725,-1.23 0.2675,-0.355 0.615,-0.6375 1.04125,-0.8475 0.4275,-0.21 0.94875,-0.315 1.5625,-0.315 0.60375,0 1.12,0.0988 1.545,0.2925 0.4275,0.195 0.77375,0.4625 1.0425,0.8025 0.2675,0.34 0.46,0.74 0.58,1.2 0.12,0.46125 0.18,0.95 0.18,1.47 0,0.52 -0.06,1.0125 -0.18,1.4775 -0.12,0.465 -0.31625,0.875 -0.58875,1.23 -0.2725,0.355 -0.625,0.635 -1.05875,0.84 -0.4325,0.205 -0.9625,0.3075 -1.58875,0.3075"
         style="fill:#ffffff;fill-opacity:1;fill-rule:nonzero;stroke:none"
         id="path354"
         inkscape:connector-curvature="0" />
      <path
         d="m -473.32423,475.44924 c 0,0.38125 0.1225,0.675 0.36625,0.885 0.245,0.21 0.62375,0.315 1.13625,0.315 0.4325,0 0.83625,-0.0312 1.2125,-0.0962 0.37625,-0.0663 0.76125,-0.17875 1.16125,-0.33875 l 0.41,0.87125 c -0.43375,0.21875 -0.86625,0.36875 -1.2975,0.44875 -0.43375,0.08 -0.92375,0.12125 -1.46875,0.12125 -0.35375,0 -0.70375,-0.0387 -1.05125,-0.1125 -0.34625,-0.0762 -0.66,-0.1975 -0.93875,-0.3675 -0.28,-0.17125 -0.50375,-0.39375 -0.675,-0.6675 -0.17125,-0.27625 -0.25625,-0.60875 -0.25625,-0.9975 0,-0.38125 0.1175,-0.7375 0.35,-1.07375 0.23375,-0.33375 0.59,-0.57625 1.06875,-0.7275 l 0,-0.045 -0.88875,-0.405 c -0.1375,-0.06 -0.24625,-0.18625 -0.325,-0.3825 -0.08,-0.195 -0.12,-0.39125 -0.12,-0.59125 0,-0.35125 0.0813,-0.66375 0.24,-0.9375 0.16,-0.27625 0.375,-0.51 0.64875,-0.70625 0.27375,-0.195 0.58875,-0.345 0.9475,-0.45 0.35875,-0.105 0.74375,-0.1575 1.1525,-0.1575 0.365,0 0.72875,0.0325 1.09375,0.0975 0.36375,0.0663 0.81875,0.2075 1.36625,0.42875 l -0.4275,0.885 c -0.3425,-0.14 -0.6625,-0.23375 -0.965,-0.27875 -0.30125,-0.045 -0.58875,-0.0663 -0.8625,-0.0663 -0.125,0 -0.285,0.0113 -0.4775,0.0375 -0.19375,0.0238 -0.3875,0.0738 -0.58125,0.14875 -0.19375,0.075 -0.35875,0.18 -0.495,0.31625 -0.1375,0.13375 -0.205,0.3125 -0.205,0.5325 0,0.23875 0.065,0.42625 0.19625,0.5625 0.13,0.13375 0.2925,0.23125 0.4875,0.29125 0.1925,0.06 0.40625,0.0975 0.64,0.1125 0.23375,0.0163 0.44625,0.0238 0.64,0.0238 l 0.8375,0 0,0.95875 -0.9575,0 c -0.34125,0 -0.63625,0.0425 -0.8875,0.12875 -0.25,0.0838 -0.455,0.19125 -0.615,0.3225 -0.15875,0.12875 -0.27625,0.27625 -0.35,0.44125 -0.0738,0.16625 -0.11,0.32375 -0.11,0.4725"
         style="fill:#ffffff;fill-opacity:1;fill-rule:nonzero;stroke:none"
         id="path358"
         inkscape:connector-curvature="0" />
      <path
         d="m -462.66998,473.93436 c 0,-0.91875 -0.1475,-1.635 -0.44375,-2.145 -0.29625,-0.51 -0.80875,-0.765 -1.5375,-0.765 -0.17125,0 -0.36375,0.0275 -0.58,0.0825 -0.2175,0.055 -0.41625,0.17 -0.5975,0.34625 -0.1825,0.17375 -0.33625,0.4225 -0.46125,0.74125 -0.125,0.32 -0.1875,0.745 -0.1875,1.275 l 0,2.595 c 0.26125,0.15 0.5775,0.2975 0.9475,0.44375 0.37,0.145 0.7425,0.21625 1.1175,0.21625 0.37625,0 0.68,-0.1025 0.915,-0.3075 0.2325,-0.205 0.40875,-0.4525 0.52875,-0.74125 0.11875,-0.29125 0.19875,-0.59625 0.23875,-0.91625 0.04,-0.32 0.06,-0.59375 0.06,-0.825 m 1.43375,-0.075 c 0,0.45125 -0.0563,0.9 -0.17,1.35125 -0.115,0.44875 -0.3,0.85875 -0.5575,1.22875 -0.2575,0.37125 -0.59375,0.67 -1.01125,0.90125 -0.41625,0.22875 -0.9325,0.34375 -1.54875,0.34375 -0.26375,0 -0.56875,-0.0525 -0.9175,-0.1575 -0.34875,-0.105 -0.69375,-0.28625 -1.03625,-0.54625 l 0,3.48 -1.3325,0 0,-6.73625 c 0,-0.84 0.12,-1.50125 0.36,-1.9875 0.23875,-0.485 0.53125,-0.85 0.8725,-1.095 0.3425,-0.245 0.7,-0.39875 1.07,-0.465 0.37125,-0.065 0.69375,-0.0975 0.9675,-0.0975 0.605,0 1.115,0.0975 1.5325,0.2925 0.41625,0.19625 0.75625,0.46375 1.01875,0.8025 0.2625,0.34 0.45375,0.74125 0.57375,1.2 0.12,0.46 0.17875,0.95625 0.17875,1.485"
         style="fill:#ffffff;fill-opacity:1;fill-rule:nonzero;stroke:none"
         id="path362"
         inkscape:connector-curvature="0" />
      <path
         d="m -455.75473,468.98436 1.22875,-2.505 1.26375,0.48 -1.74125,2.325 -0.75125,-0.3 z m 5.96,4.86125 c 0,0.52 -0.0575,1.01125 -0.17125,1.47625 -0.11375,0.465 -0.29875,0.8725 -0.555,1.22 -0.2575,0.34875 -0.58375,0.62375 -0.9825,0.825 -0.39875,0.20125 -0.87625,0.3025 -1.43375,0.3025 -0.43375,0 -0.8225,-0.0937 -1.17,-0.28 -0.3475,-0.1875 -0.595,-0.39375 -0.7425,-0.61875 l -0.0862,0 c -0.1925,0.225 -0.44625,0.43125 -0.75875,0.61875 -0.31375,0.18625 -0.68125,0.28 -1.1025,0.28 -0.58,0 -1.0725,-0.10125 -1.4775,-0.3025 -0.40375,-0.20125 -0.7275,-0.47625 -0.9725,-0.825 -0.245,-0.3475 -0.42125,-0.755 -0.53,-1.22 -0.1075,-0.465 -0.16125,-0.95625 -0.16125,-1.47625 0,-0.45125 0.0588,-0.8825 0.17625,-1.2975 0.11875,-0.415 0.2925,-0.79 0.52375,-1.12625 0.23,-0.33375 0.52125,-0.6175 0.8725,-0.8475 0.35125,-0.23 0.76625,-0.39 1.245,-0.47875 l 0.34125,0.86875 c -0.6825,0.22125 -1.15875,0.5725 -1.42625,1.05875 -0.2675,0.48375 -0.4,1.06625 -0.4,1.74625 0,0.43 0.03,0.8275 0.0937,1.1925 0.0637,0.365 0.16625,0.68 0.30875,0.945 0.1425,0.265 0.33,0.4725 0.5575,0.6225 0.23,0.15 0.51125,0.225 0.8425,0.225 0.1375,0 0.28,-0.025 0.42875,-0.075 0.14875,-0.05 0.28625,-0.12125 0.4125,-0.2175 0.12625,-0.095 0.23,-0.21625 0.30875,-0.3675 0.0813,-0.15 0.12125,-0.33 0.12125,-0.54 l 0,-2.985 1.33125,0 0,2.985 c 0,0.21 0.0362,0.39 0.11125,0.54 0.0737,0.15125 0.17125,0.2725 0.29,0.3675 0.11875,0.0962 0.25125,0.1675 0.3925,0.2175 0.1425,0.05 0.2825,0.075 0.41875,0.075 0.33,0 0.61125,-0.075 0.845,-0.225 0.2325,-0.15 0.42125,-0.3575 0.56375,-0.6225 0.1425,-0.265 0.2475,-0.58 0.31625,-0.945 0.0675,-0.365 0.1025,-0.7625 0.1025,-1.1925 0,-0.33875 -0.0375,-0.66125 -0.11125,-0.96625 -0.075,-0.305 -0.1875,-0.58 -0.34125,-0.825 -0.155,-0.24625 -0.3425,-0.45625 -0.565,-0.63 -0.22,-0.17625 -0.48,-0.30375 -0.77625,-0.38375 l 0.325,-0.86875 c 0.5,0.0787 0.93,0.23125 1.28875,0.45625 0.35875,0.22625 0.6525,0.505 0.87875,0.84125 0.22875,0.33375 0.39625,0.71125 0.505,1.13125 0.1075,0.42 0.1625,0.86125 0.1625,1.32125"
         style="fill:#ffffff;fill-opacity:1;fill-rule:nonzero;stroke:none"
         id="path366"
         inkscape:connector-curvature="0" />
      <path
         d="m -445.49348,477.66974 c -0.39875,0 -0.725,-0.0425 -0.9775,-0.1275 -0.2525,-0.085 -0.45,-0.21125 -0.59,-0.3825 -0.14,-0.17 -0.23625,-0.3775 -0.28625,-0.6225 -0.0512,-0.245 -0.0762,-0.5325 -0.0762,-0.8625 l 0,-4.47 -1.7075,0 0,-0.945 5.27625,0 0,0.945 -2.2375,0 0,4.2425 c 0,0.45125 0.0712,0.76625 0.21375,0.94625 0.1425,0.18125 0.37875,0.27125 0.70875,0.27125 0.205,0 0.44125,-0.0113 0.70875,-0.0375 0.2675,-0.025 0.50375,-0.0625 0.70875,-0.1125 l 0.1875,0.81625 c -0.205,0.0875 -0.40875,0.155 -0.61375,0.19875 -0.205,0.0437 -0.39375,0.0763 -0.56375,0.0962 -0.17125,0.0188 -0.3225,0.0312 -0.45375,0.0362 -0.13,0.005 -0.22375,0.007 -0.28,0.007 l -0.0175,0 z"
         style="fill:#ffffff;fill-opacity:1;fill-rule:nonzero;stroke:none"
         id="path370"
         inkscape:connector-curvature="0" />
      <path
         d="m -437.59673,477.45974 0,-4.635 c 0,-0.23 -0.015,-0.4475 -0.0425,-0.6525 -0.0288,-0.205 -0.0913,-0.3825 -0.18875,-0.5325 -0.0962,-0.15 -0.235,-0.2675 -0.4175,-0.3525 -0.1825,-0.085 -0.42,-0.1275 -0.7175,-0.1275 -0.2275,0 -0.44625,0.03 -0.65625,0.09 -0.21125,0.06 -0.4075,0.13 -0.59,0.21 -0.18125,0.08 -0.3475,0.1675 -0.495,0.2625 -0.1475,0.095 -0.27375,0.1775 -0.375,0.2475 l 0,5.49 -1.33375,0 0,-7.2 0.99125,0 0.325,0.75 1.2975,-0.645 c 0.15875,-0.08 0.35,-0.15 0.57125,-0.21 0.2225,-0.06 0.4125,-0.09 0.5725,-0.09 0.56875,0 1.01375,0.09 1.3325,0.27 0.31875,0.18 0.5575,0.4075 0.7175,0.6825 0.15875,0.275 0.255,0.5725 0.28875,0.8925 0.035,0.32 0.0512,0.62 0.0512,0.9 l 0,4.65 -1.33125,0 z"
         style="fill:#ffffff;fill-opacity:1;fill-rule:nonzero;stroke:none"
         id="path374"
         inkscape:connector-curvature="0" />
      <path
         d="m -433.13385,470.26011 0,4.62375 c 0,0.23 0.0163,0.44625 0.05,0.65125 0.0337,0.205 0.1025,0.38125 0.20375,0.53125 0.1025,0.15 0.24875,0.26625 0.4425,0.35125 0.1925,0.085 0.4475,0.12625 0.765,0.12625 0.22625,0 0.43875,-0.0263 0.6375,-0.0813 0.1975,-0.055 0.38125,-0.125 0.55125,-0.21 0.17,-0.0838 0.3225,-0.1725 0.45875,-0.26125 0.13625,-0.09 0.255,-0.175 0.35625,-0.255 l 0,-5.47625 1.3325,0 0,7.2 -1.0075,0 -0.325,-0.75 -0.815,0.465 c -0.5425,0.30875 -1.025,0.46375 -1.44375,0.46375 -0.465,0 -0.8725,-0.0688 -1.22375,-0.21 l 0,3.03125 -1.3325,0 0,-10.2 1.35,0 z"
         style="fill:#ffffff;fill-opacity:1;fill-rule:nonzero;stroke:none"
         id="path378"
         inkscape:connector-curvature="0" />
      <path
         d="m -425.4226,473.78424 c 0,0.92 0.12875,1.6125 0.38375,2.0775 0.25625,0.465 0.715,0.69875 1.375,0.69875 0.17,0 0.34375,-0.0263 0.52,-0.0763 0.1775,-0.05 0.345,-0.115 0.505,-0.19375 0.15875,-0.0812 0.3075,-0.16875 0.44375,-0.26375 0.135,-0.0937 0.26125,-0.18625 0.375,-0.2775 l 0,-4.09375 c -0.26125,-0.15 -0.5775,-0.2975 -0.9475,-0.44375 -0.37,-0.145 -0.74375,-0.21625 -1.11875,-0.21625 -0.375,0 -0.66875,0.1025 -0.88,0.3075 -0.21,0.205 -0.36375,0.4525 -0.46,0.74125 -0.0975,0.29125 -0.15375,0.59625 -0.17,0.91625 -0.0175,0.32 -0.0263,0.59375 -0.0263,0.82375 m -1.46875,0.15 c 0,-0.44875 0.0362,-0.90625 0.11125,-1.3725 0.0738,-0.465 0.21875,-0.8825 0.435,-1.25125 0.21625,-0.37 0.515,-0.67375 0.89625,-0.90875 0.38125,-0.235 0.88,-0.35125 1.495,-0.35125 0.295,0 0.63375,0.0637 1.015,0.19375 0.38125,0.13 0.755,0.31625 1.11875,0.555 l 0.23875,-0.58375 1.0925,0 0,7.24375 -0.99,0 -0.32375,-0.74875 -0.76875,0.465 c -0.29625,0.17 -0.54,0.29125 -0.735,0.3675 -0.1925,0.0738 -0.38625,0.1125 -0.58,0.1125 -0.5575,0 -1.0275,-0.1025 -1.4075,-0.3075 -0.3825,-0.205 -0.6925,-0.48 -0.9325,-0.82625 -0.23875,-0.345 -0.41,-0.74125 -0.51125,-1.1925 -0.1025,-0.45 -0.15375,-0.91375 -0.15375,-1.395"
         style="fill:#ffffff;fill-opacity:1;fill-rule:nonzero;stroke:none"
         id="path382"
         inkscape:connector-curvature="0" />
      <path
         d="m -512.48935,491.09749 3.4,0 0.8025,-5.7775 -1.61375,-0.375 -2.58875,6.1525 z m 5.43375,0 3.37375,0 0.8025,-5.7775 -1.6125,-0.375 -2.56375,6.1525 z m 4.135,0.87375 -10.8875,0 3.3875,-8.04625 3.11125,0.72375 -0.9975,7.175 3.2925,-7.89875 3.1125,0.72375 -1.01875,7.3225 z"
         style="fill:#ffffff;fill-opacity:1;fill-rule:nonzero;stroke:none"
         id="path386"
         inkscape:connector-curvature="0" />
      <path
         d="m -492.14998,502.45974 -4.32625,0 0,-14.075 -4.18375,0 0,-3.05 12.83625,0 0,3.05 -4.32625,0 0,14.075 z"
         style="fill:#ffffff;fill-opacity:1;fill-rule:nonzero;stroke:none"
         id="path390"
         inkscape:connector-curvature="0" />
      <path
         d="m -486.95823,492.73436 -1.53625,-0.325 0,-2.025 5.72,0 0,12.075 -4.18375,0 0,-9.725 z"
         style="fill:#ffffff;fill-opacity:1;fill-rule:nonzero;stroke:none"
         id="path394"
         inkscape:connector-curvature="0" />
      <path
         d="m -465.38598,499.31036 0.8825,-3.225 1.7075,-5.675 4.1275,0 -4.525,12.05 -4.64,0 -4.86625,-12.05 4.18375,0 1.9925,5.64875 1.0525,3.25125 0.085,0 z"
         style="fill:#ffffff;fill-opacity:1;fill-rule:nonzero;stroke:none"
         id="path398"
         inkscape:connector-curvature="0" />
      <path
         d="m -453.68198,496.32211 c 0,1.20375 0.1425,2.1325 0.43,2.785 0.28625,0.6525 0.76375,0.9775 1.43375,0.9775 0.2675,0 0.55875,-0.0713 0.875,-0.2125 0.315,-0.1425 0.6075,-0.305 0.87625,-0.49 l 0,-6.09625 c -0.28875,-0.1675 -0.60375,-0.30875 -0.9475,-0.42625 -0.345,-0.11625 -0.66125,-0.175 -0.9475,-0.175 -0.34375,0 -0.63125,0.105 -0.86,0.31375 -0.22875,0.20875 -0.40625,0.485 -0.53,0.8275 -0.125,0.3425 -0.21,0.7325 -0.25875,1.1675 -0.0475,0.43375 -0.0713,0.8775 -0.0713,1.32875 m -4.32625,0.1125 c 0,-0.71625 0.0663,-1.45375 0.19875,-2.2125 0.13375,-0.7575 0.375,-1.44125 0.72625,-2.05 0.35125,-0.60875 0.825,-1.1075 1.4225,-1.5 0.59875,-0.39125 1.37125,-0.5875 2.31875,-0.5875 0.4,0 0.8875,0.11375 1.46625,0.3375 0.57875,0.225 1.1725,0.57875 1.77875,1.0625 0.02,0 0.03,-0.004 0.03,-0.0125 0,-0.009 0.0125,-0.0125 0.0275,-0.0125 l 0.5975,-1.075 3.52875,0 0,12.075 -3.47125,0 -0.59875,-1.27375 -0.96625,0.59875 c -0.13375,0.085 -0.3,0.18 -0.49875,0.28875 -0.19875,0.10875 -0.40875,0.2125 -0.62625,0.3125 -0.21875,0.0987 -0.44625,0.1825 -0.68375,0.24875 -0.23625,0.0675 -0.45,0.1 -0.63875,0.1 -0.8925,0 -1.6325,-0.19125 -2.22125,-0.575 -0.58875,-0.38375 -1.06125,-0.875 -1.42375,-1.475 -0.36,-0.6 -0.61125,-1.275 -0.7525,-2.025 -0.1425,-0.74875 -0.21375,-1.49125 -0.21375,-2.225"
         style="fill:#ffffff;fill-opacity:1;fill-rule:nonzero;stroke:none"
         id="path402"
         inkscape:connector-curvature="0" />
      <path
         d="m -422.0071,496.45999 c 0,-0.51625 -0.0275,-1 -0.085,-1.45 -0.0562,-0.45125 -0.15125,-0.84125 -0.285,-1.17625 -0.1325,-0.3325 -0.3125,-0.59875 -0.54125,-0.79875 -0.22625,-0.2 -0.52125,-0.3 -0.88125,-0.3 -0.11375,0 -0.275,0.075 -0.48375,0.225 -0.20875,0.14875 -0.3325,0.36625 -0.37,0.65 l 0,6.65 c 0.85375,-0.0675 1.50875,-0.38375 1.96375,-0.95 0.455,-0.56625 0.6825,-1.5175 0.6825,-2.85 m -6.83,1.12375 c 0,-0.39875 0.0125,-0.82 0.0288,-1.26125 0.0188,-0.44125 0.0475,-0.87125 0.085,-1.28875 0.0375,-0.41625 0.09,-0.81125 0.15625,-1.18625 0.0675,-0.37625 0.16625,-0.695 0.29875,-0.9625 0.17125,-0.35125 0.4325,-0.69125 0.7825,-1.02625 0.35125,-0.33125 0.755,-0.62875 1.21,-0.8875 0.455,-0.2575 0.94,-0.46125 1.45125,-0.61125 0.5125,-0.15 1.01625,-0.22625 1.50875,-0.22625 0.8725,0 1.65,0.155 2.33375,0.46375 0.6825,0.30875 1.26625,0.73625 1.75125,1.2875 0.4825,0.55 0.8525,1.20875 1.10875,1.975 0.25625,0.76625 0.385,1.60875 0.385,2.52375 0,1.98375 -0.6025,3.53125 -1.8075,4.6375 -1.205,1.11 -2.9275,1.755 -5.16625,1.93875 l 0,4.5 -4.12625,0 0,-4.525 c -1.3475,-0.0838 -2.4575,-0.31625 -3.33,-0.7 -0.8725,-0.38375 -1.56125,-0.86625 -2.0625,-1.45 -0.50375,-0.58375 -0.855,-1.24625 -1.05375,-1.9875 -0.19875,-0.7425 -0.29875,-1.5125 -0.29875,-2.3125 0,-0.7175 0.08,-1.40125 0.2425,-2.05 0.16,-0.65125 0.42625,-1.24625 0.79625,-1.7875 0.37,-0.54125 0.8575,-1.0125 1.46625,-1.41375 0.60625,-0.39875 1.365,-0.715 2.27625,-0.94875 0.17125,0.4 0.35125,0.8 0.54,1.2 0.19,0.4 0.38,0.8 0.57,1.19875 -0.665,0.3175 -1.11,0.7675 -1.3375,1.35125 -0.2275,0.5825 -0.34125,1.34125 -0.34125,2.275 0,0.53375 0.0375,1.02875 0.11375,1.48625 0.075,0.46 0.2125,0.855 0.4125,1.18875 0.19875,0.33375 0.46,0.60375 0.7825,0.8125 0.32125,0.20875 0.73125,0.33 1.22375,0.3625 l 0,-2.57625 z"
         style="fill:#ffffff;fill-opacity:1;fill-rule:nonzero;stroke:none"
         id="path406"
         inkscape:connector-curvature="0" />
      <path
         d="m -411.62135,488.35936 2.3325,-4.8 3.21625,1.25 -3.4725,4.375 -2.07625,-0.825 z m -0.085,7.9625 c 0,1.20375 0.1425,2.1325 0.42875,2.785 0.2875,0.6525 0.765,0.9775 1.435,0.9775 0.2675,0 0.55875,-0.0713 0.875,-0.2125 0.315,-0.1425 0.60625,-0.305 0.875,-0.49 l 0,-6.09625 c -0.2875,-0.16625 -0.6025,-0.30875 -0.9475,-0.425 -0.34375,-0.1175 -0.66,-0.17625 -0.94625,-0.17625 -0.345,0 -0.63125,0.105 -0.86125,0.31375 -0.2275,0.20875 -0.405,0.485 -0.53,0.8275 -0.12375,0.3425 -0.21,0.7325 -0.25875,1.1675 -0.0475,0.43375 -0.07,0.8775 -0.07,1.32875 m -4.32625,0.1125 c 0,-0.71625 0.065,-1.45375 0.19875,-2.2125 0.1325,-0.7575 0.375,-1.44125 0.72625,-2.05 0.35,-0.60875 0.825,-1.1075 1.4225,-1.49875 0.5975,-0.3925 1.37,-0.58875 2.31875,-0.58875 0.39875,0 0.8875,0.11375 1.46625,0.3375 0.57875,0.225 1.17125,0.57875 1.77875,1.0625 0.0187,0 0.0288,-0.004 0.0288,-0.0125 0,-0.009 0.0125,-0.0125 0.0287,-0.0125 l 0.59625,-1.075 3.52875,0 0,12.075 -3.47125,0 -0.5975,-1.27375 -0.9675,0.59875 c -0.1325,0.085 -0.29875,0.18 -0.4975,0.28875 -0.19875,0.10875 -0.40875,0.2125 -0.62625,0.3125 -0.21875,0.0987 -0.4475,0.1825 -0.68375,0.24875 -0.2375,0.0675 -0.45,0.1 -0.64,0.1 -0.8925,0 -1.63125,-0.19125 -2.22,-0.575 -0.58875,-0.38375 -1.0625,-0.875 -1.42375,-1.475 -0.36,-0.6 -0.61125,-1.275 -0.7525,-2.025 -0.14375,-0.74875 -0.21375,-1.49125 -0.21375,-2.225"
         style="fill:#ffffff;fill-opacity:1;fill-rule:nonzero;stroke:none"
         id="path410"
         inkscape:connector-curvature="0" />
      <path
         d="m -388.89435,502.81011 c -1.56125,0 -2.7325,-0.6425 -3.51125,-1.925 l -0.1425,0 c -0.5125,0.68375 -1.05875,1.17375 -1.63625,1.475 -0.57875,0.3 -1.23,0.45 -1.95,0.45 -1.12,0 -2.045,-0.17625 -2.775,-0.525 -0.73125,-0.35 -1.31375,-0.82125 -1.75,-1.4125 -0.4375,-0.59125 -0.74,-1.26625 -0.91125,-2.025 -0.17,-0.7575 -0.25625,-1.54625 -0.25625,-2.36375 0,-0.71625 0.0812,-1.4075 0.24375,-2.075 0.1625,-0.665 0.42875,-1.2775 0.8025,-1.83625 0.3725,-0.55875 0.865,-1.04125 1.475,-1.45125 0.61125,-0.4075 1.365,-0.71125 2.26,-0.91125 l 1.13875,2.42375 c -0.645,0.285 -1.0725,0.73 -1.28125,1.33875 -0.20875,0.60875 -0.3125,1.37 -0.3125,2.2875 0,1.3 0.1125,2.275 0.33875,2.925 0.225,0.65 0.695,0.975 1.41125,0.975 0.375,0 0.71375,-0.14625 1.015,-0.43875 0.3,-0.29 0.45,-0.81125 0.45,-1.5625 l 0,-4.125 3.73,0 0,4.125 c 0,0.75125 0.15125,1.2725 0.455,1.5625 0.3025,0.2925 0.645,0.43875 1.02375,0.43875 0.72125,0 1.19625,-0.325 1.42375,-0.975 0.2275,-0.65 0.34125,-1.625 0.34125,-2.925 0,-0.9175 -0.10875,-1.6925 -0.3275,-2.32625 -0.21875,-0.63125 -0.63125,-1.065 -1.2375,-1.3 l 1.10875,-2.42375 c 0.91625,0.15 1.67875,0.42875 2.28875,0.8375 0.6125,0.40875 1.10375,0.89625 1.47625,1.4625 0.3725,0.56625 0.635,1.19125 0.7875,1.875 0.15375,0.68375 0.23,1.3825 0.23,2.09875 0,0.8175 -0.10125,1.60625 -0.3,2.36375 -0.2,0.75875 -0.5325,1.43375 -0.99875,2.025 -0.4675,0.59125 -1.07625,1.0625 -1.82625,1.4125 -0.7525,0.34875 -1.68,0.525 -2.78375,0.525"
         style="fill:#ffffff;fill-opacity:1;fill-rule:nonzero;stroke:none"
         id="path414"
         inkscape:connector-curvature="0" />
      <path
         d="m -493.20823,517.91024 c -0.395,0 -0.72,0.0825 -0.97375,0.24875 -0.255,0.1675 -0.44875,0.40125 -0.58,0.70125 -0.13125,0.3 -0.22125,0.66625 -0.2675,1.1 -0.0475,0.4325 -0.0713,0.91625 -0.0713,1.45 0,1.2825 0.1225,2.2375 0.36625,2.8625 0.24625,0.625 0.75375,0.9375 1.52625,0.9375 0.735,0 1.22375,-0.30375 1.46875,-0.91375 0.245,-0.6075 0.3675,-1.55375 0.3675,-2.83625 0,-1.05 -0.1225,-1.85125 -0.3675,-2.4 -0.245,-0.55125 -0.73375,-0.93375 -1.46875,-1.15 m 4.82375,0 c 0.22875,0.19875 0.4275,0.4425 0.59875,0.725 0.17125,0.28375 0.3075,0.5875 0.4125,0.9125 0.10375,0.32375 0.18375,0.65875 0.24125,0.99875 0.0575,0.3425 0.0863,0.67125 0.0863,0.9875 0,0.80125 -0.1,1.575 -0.3,2.32625 -0.19875,0.74875 -0.54,1.42 -1.02375,2.0125 -0.485,0.59125 -1.12875,1.0625 -1.93625,1.4125 -0.805,0.34875 -1.81625,0.525 -3.03125,0.525 -1.15625,0 -2.125,-0.1675 -2.9025,-0.5 -0.7775,-0.33375 -1.40375,-0.7825 -1.8775,-1.35125 -0.475,-0.56625 -0.81125,-1.22375 -1.01,-1.975 -0.2,-0.74875 -0.3,-1.5325 -0.3,-2.35 0,-0.76625 0.1,-1.52 0.3,-2.26125 0.19875,-0.7425 0.53,-1.40375 0.99625,-1.9875 0.465,-0.58375 1.09,-1.05875 1.8775,-1.42625 0.78625,-0.36625 1.77875,-0.54875 2.97375,-0.54875 l 7.23,0 0,2.4 -2.24875,0 -0.0863,0.1 z"
         style="fill:#ffffff;fill-opacity:1;fill-rule:nonzero;stroke:none"
         id="path418"
         inkscape:connector-curvature="0" />
      <path
         d="m -481.0171,513.35936 2.33375,-4.8 3.21625,1.25 -3.4725,4.375 -2.0775,-0.825 z m 4.1275,14.1 0,-7.8 c 0,-0.15 -0.0125,-0.32875 -0.0288,-0.5375 -0.0188,-0.20875 -0.0713,-0.4075 -0.1575,-0.6 -0.085,-0.19 -0.2175,-0.3575 -0.3975,-0.5 -0.18125,-0.14125 -0.44125,-0.21125 -0.7825,-0.21125 -0.32375,0 -0.66375,0.0788 -1.025,0.23625 -0.36,0.15875 -0.6725,0.3125 -0.93875,0.4625 l 0,8.95 -4.15625,0 0,-12.025 3.44375,0 0.655,1.25 1.56625,-0.9 c 0.3025,-0.1825 0.62625,-0.3375 0.96625,-0.4625 0.3425,-0.12375 0.64625,-0.1875 0.9125,-0.1875 0.92875,0 1.66375,0.15 2.20375,0.45 0.54125,0.30125 0.94875,0.67125 1.225,1.1125 0.275,0.44125 0.45,0.9125 0.52625,1.4125 0.075,0.5 0.11375,0.9425 0.11375,1.325 l 0,8.025 -4.12625,0 z"
         style="fill:#ffffff;fill-opacity:1;fill-rule:nonzero;stroke:none"
         id="path422"
         inkscape:connector-curvature="0" />
      <path
         d="m -466.0696,515.43461 0,8.075 c 0,0.43375 0.09,0.8125 0.27125,1.1375 0.18,0.325 0.56375,0.4875 1.1525,0.4875 0.32125,0 0.65375,-0.0787 0.99625,-0.2375 0.34125,-0.15875 0.64375,-0.3125 0.91,-0.4625 l 0,-9 4.1275,0 0,12.025 -3.44375,0 c -0.11375,-0.2 -0.22375,-0.40375 -0.3275,-0.6125 -0.105,-0.2075 -0.205,-0.4125 -0.29875,-0.6125 l -0.93875,0.57625 c -0.30375,0.1825 -0.6125,0.3125 -0.925,0.38625 -0.31375,0.075 -0.63125,0.1125 -0.95375,0.1125 l -0.29875,0 c -0.105,0 -0.20375,-0.009 -0.29875,-0.025 l 0,5.175 -4.12625,0 c 0,-2.85 0,-5.6875 0.0125,-8.51125 0.0125,-2.82625 0.015,-5.66375 0.015,-8.51375 l 4.12625,0 z"
         style="fill:#ffffff;fill-opacity:1;fill-rule:nonzero;stroke:none"
         id="path426"
         inkscape:connector-curvature="0" />
      <path
         d="m -453.94198,521.15974 -1.6225,-0.8 c -0.20875,-0.1 -0.36,-0.29625 -0.455,-0.5875 -0.095,-0.29125 -0.1425,-0.5375 -0.1425,-0.7375 0,-0.61625 0.1325,-1.17125 0.39875,-1.6625 0.265,-0.49125 0.64,-0.90875 1.12375,-1.25 0.48375,-0.34125 1.0625,-0.60375 1.73625,-0.7875 0.6725,-0.18375 1.40875,-0.275 2.20625,-0.275 0.60625,0 1.3225,0.0587 2.1475,0.175 0.82625,0.1175 1.675,0.34125 2.54875,0.675 l -0.74,2.425 c -0.58875,-0.1825 -1.13,-0.30875 -1.6225,-0.375 -0.495,-0.0662 -0.91125,-0.1 -1.2525,-0.1 -0.22875,0 -0.465,0.0163 -0.71125,0.05 -0.2475,0.0337 -0.465,0.0875 -0.655,0.1625 -0.19,0.075 -0.34625,0.1875 -0.47,0.3375 -0.1225,0.15 -0.185,0.33375 -0.185,0.55 0,0.31625 0.17,0.575 0.5125,0.775 0.34125,0.20125 0.75875,0.3 1.2525,0.3 l 1.59375,0 0,2.3 -1.2525,0 c -0.85375,0 -1.45625,0.13375 -1.8075,0.4 -0.35125,0.2675 -0.52625,0.59125 -0.52625,0.975 0,0.41625 0.185,0.7425 0.555,0.975 0.37,0.23375 0.83875,0.35 1.40875,0.35 0.49375,0 1.0525,-0.0463 1.67875,-0.1375 0.62625,-0.0913 1.215,-0.2375 1.765,-0.4375 l 0.79625,2.375 c -0.60625,0.3175 -1.37125,0.55875 -2.29,0.725 -0.92,0.16625 -1.82625,0.25 -2.71875,0.25 -0.7775,0 -1.50875,-0.0663 -2.19125,-0.2 -0.68375,-0.13375 -1.28,-0.345 -1.7925,-0.6375 -0.5125,-0.29125 -0.92125,-0.66625 -1.22375,-1.125 -0.30375,-0.4575 -0.455,-1.0125 -0.455,-1.6625 0,-0.2 0.0275,-0.4375 0.085,-0.7125 0.0563,-0.275 0.17,-0.55 0.34125,-0.825 0.17,-0.275 0.4125,-0.5375 0.72625,-0.7875 0.3125,-0.25 0.725,-0.45875 1.2375,-0.625 l 0,-0.075 z"
         style="fill:#ffffff;fill-opacity:1;fill-rule:nonzero;stroke:none"
         id="path430"
         inkscape:connector-curvature="0" />
      <path
         d="m -436.08673,521.51011 c 0,-1.2175 -0.11875,-2.17 -0.355,-2.8625 -0.23875,-0.6925 -0.73625,-1.0375 -1.49375,-1.0375 -0.62625,0 -1.0925,0.24125 -1.395,0.725 -0.30375,0.48375 -0.45625,1.3 -0.45625,2.45 l 0,3.8 c 0.30375,0.16625 0.62125,0.30375 0.955,0.4125 0.33,0.10875 0.62,0.1625 0.8675,0.1625 0.36,0 0.6625,-0.10875 0.91125,-0.325 0.245,-0.2175 0.44,-0.5 0.5825,-0.85125 0.1425,-0.34875 0.2425,-0.74 0.29875,-1.17375 0.0575,-0.43375 0.085,-0.86625 0.085,-1.3 m 4.32625,-0.1 c 0,0.73375 -0.09,1.475 -0.27,2.225 -0.18,0.75 -0.465,1.43375 -0.85375,2.05 -0.39,0.61625 -0.89625,1.11625 -1.5225,1.5 -0.62625,0.38375 -1.39375,0.575 -2.30625,0.575 -0.4175,0 -0.88125,-0.0763 -1.39375,-0.22625 -0.5125,-0.14875 -1.0725,-0.46625 -1.68,-0.94875 l -0.0563,0.05 0,5.825 -4.1275,0 0,-11.07625 c 0,-2.065 0.53625,-3.6275 1.60875,-4.6875 1.07125,-1.0575 2.565,-1.58625 4.4825,-1.58625 1.17625,0 2.1575,0.175 2.94625,0.525 0.78625,0.35 1.4125,0.8125 1.8775,1.3875 0.465,0.575 0.7975,1.245 0.99625,2.0125 0.2,0.76625 0.29875,1.55875 0.29875,2.375"
         style="fill:#ffffff;fill-opacity:1;fill-rule:nonzero;stroke:none"
         id="path434"
         inkscape:connector-curvature="0" />
      <path
         d="m -425.75835,521.32211 c 0,1.20375 0.1425,2.1325 0.43,2.785 0.28625,0.6525 0.76375,0.9775 1.43375,0.9775 0.2675,0 0.55875,-0.0712 0.875,-0.2125 0.315,-0.1425 0.6075,-0.305 0.87625,-0.49 l 0,-6.09625 c -0.28875,-0.1675 -0.60375,-0.30875 -0.9475,-0.42625 -0.345,-0.11625 -0.66125,-0.175 -0.9475,-0.175 -0.34375,0 -0.63125,0.105 -0.86,0.31375 -0.22875,0.20875 -0.40625,0.485 -0.53,0.8275 -0.125,0.3425 -0.21,0.7325 -0.25875,1.1675 -0.0475,0.43375 -0.0713,0.8775 -0.0713,1.32875 m -4.32625,0.1125 c 0,-0.71625 0.0663,-1.45375 0.19875,-2.2125 0.13375,-0.7575 0.375,-1.44125 0.72625,-2.05 0.35125,-0.60875 0.825,-1.1075 1.4225,-1.5 0.59875,-0.39125 1.37125,-0.5875 2.31875,-0.5875 0.4,0 0.8875,0.11375 1.46625,0.3375 0.57875,0.225 1.1725,0.57875 1.77875,1.0625 0.02,0 0.03,-0.004 0.03,-0.0125 0,-0.009 0.0125,-0.0125 0.0275,-0.0125 l 0.5975,-1.075 3.52875,0 0,12.075 -3.47125,0 -0.59875,-1.27375 -0.96625,0.59875 c -0.13375,0.085 -0.3,0.18 -0.49875,0.28875 -0.19875,0.10875 -0.40875,0.2125 -0.62625,0.3125 -0.21875,0.0987 -0.44625,0.1825 -0.68375,0.24875 -0.23625,0.0675 -0.45,0.1 -0.63875,0.1 -0.8925,0 -1.6325,-0.19125 -2.22125,-0.575 -0.58875,-0.38375 -1.06125,-0.875 -1.42375,-1.475 -0.36,-0.6 -0.61125,-1.275 -0.7525,-2.025 -0.1425,-0.74875 -0.21375,-1.49125 -0.21375,-2.225"
         style="fill:#ffffff;fill-opacity:1;fill-rule:nonzero;stroke:none"
         id="path438"
         inkscape:connector-curvature="0" />
      <path
         d="m -412.39648,519.68511 c -0.70375,0 -1.29125,-0.2125 -1.765,-0.63875 -0.475,-0.425 -0.71125,-0.945 -0.71125,-1.5625 0,-0.615 0.24125,-1.13625 0.72625,-1.5625 0.4825,-0.425 1.06626,-0.6375 1.75,-0.6375 0.34,0 0.6575,0.0588 0.95375,0.17625 0.2925,0.11625 0.54876,0.275 0.7675,0.475 0.21875,0.2 0.3925,0.43375 0.52625,0.7 0.1325,0.26625 0.2,0.55 0.2,0.84875 0,0.3 -0.0675,0.585 -0.2,0.85125 -0.13375,0.26625 -0.3075,0.49875 -0.52625,0.69875 -0.21874,0.20125 -0.475,0.36 -0.7675,0.475 -0.29625,0.1175 -0.61375,0.17625 -0.95375,0.17625 m -3.27375,10.54875 0.99625,-6.59875 4.69626,0 -3.045,7.17375 -2.64751,-0.575 z"
         style="fill:#ffffff;fill-opacity:1;fill-rule:nonzero;stroke:none"
         id="path442"
         inkscape:connector-curvature="0" />
      <path
         d="m -407.34285,515.62261 1.64,0.37875 2.53875,-6.155 -3.375,0 -0.80375,5.77625 z m 5.40875,10e-4 1.64,0.3775 2.56375,-6.155 -3.375,0 -0.82875,5.7775 z m -3.245,1.395 -3.14,-0.7225 1.0175,-7.32375 10.885,0 -3.355,8.04625 -3.14375,-0.72375 1.0475,-7.295 -3.31125,8.01875 z"
         style="fill:#ffffff;fill-opacity:1;fill-rule:nonzero;stroke:none"
         id="path446"
         inkscape:connector-curvature="0" />
      <path
         d="m -496.3076,539.95486 c -0.375,0 -0.68875,0.0725 -0.93875,0.2175 -0.25,0.145 -0.4525,0.3375 -0.60625,0.5775 -0.15375,0.24 -0.26125,0.52 -0.32375,0.84 -0.0637,0.32 -0.0937,0.66 -0.0937,1.02 0,0.42 0.03,0.8025 0.0937,1.1475 0.0625,0.345 0.17,0.645 0.32375,0.9 0.15375,0.255 0.35625,0.4525 0.60625,0.5925 0.25,0.14 0.56875,0.21 0.95625,0.21 0.375,0 0.68625,-0.0675 0.93125,-0.2025 0.24375,-0.135 0.4425,-0.32875 0.59625,-0.5775 0.15375,-0.25 0.2625,-0.545 0.325,-0.885 0.0625,-0.34 0.0937,-0.72 0.0937,-1.14 0,-0.32 -0.0312,-0.625 -0.0937,-0.915 -0.0625,-0.29 -0.17125,-0.555 -0.325,-0.795 -0.15375,-0.24 -0.355,-0.445 -0.605,-0.615 -0.25125,-0.17 -0.56375,-0.295 -0.94,-0.375 m 2.34,0.0287 c 0.3875,0.30125 0.66,0.69125 0.81875,1.17125 0.16,0.48 0.24,0.985 0.24,1.515 0,0.51 -0.0663,0.9925 -0.19625,1.4475 -0.13125,0.455 -0.33875,0.8525 -0.62375,1.1925 -0.285,0.34 -0.64625,0.60875 -1.085,0.81 -0.4375,0.2 -0.97,0.3 -1.59625,0.3 -0.58,0 -1.0775,-0.095 -1.49375,-0.285 -0.415,-0.19 -0.7575,-0.45 -1.025,-0.78 -0.2675,-0.33 -0.46375,-0.7175 -0.58875,-1.1625 -0.125,-0.445 -0.1875,-0.9275 -0.1875,-1.44875 0,-0.49875 0.065,-0.97625 0.195,-1.43125 0.1325,-0.455 0.33625,-0.8525 0.61625,-1.1925 0.2775,-0.34 0.63625,-0.61 1.075,-0.81 0.43875,-0.2 0.965,-0.3 1.58,-0.3 l 3.8425,0 0,0.945 -1.5375,0 -0.0337,0.0287 z"
         style="fill:#ffffff;fill-opacity:1;fill-rule:nonzero;stroke:none"
         id="path450"
         inkscape:connector-curvature="0" />
      <path
         d="m -490.1516,542.53424 c 0,0.92 0.12875,1.6125 0.38375,2.0775 0.25625,0.465 0.715,0.69875 1.375,0.69875 0.17,0 0.34375,-0.0263 0.52,-0.0762 0.1775,-0.05 0.345,-0.115 0.505,-0.19375 0.15875,-0.0812 0.3075,-0.16875 0.44375,-0.26375 0.135,-0.0937 0.26125,-0.18625 0.375,-0.2775 l 0,-4.09375 c -0.26125,-0.15 -0.5775,-0.2975 -0.9475,-0.44375 -0.37,-0.145 -0.74375,-0.21625 -1.11875,-0.21625 -0.375,0 -0.66875,0.1025 -0.88,0.3075 -0.21,0.205 -0.36375,0.4525 -0.46,0.74125 -0.0975,0.29125 -0.15375,0.59625 -0.17,0.91625 -0.0175,0.32 -0.0262,0.59375 -0.0262,0.82375 m -1.46875,0.15 c 0,-0.44875 0.0362,-0.90625 0.11125,-1.3725 0.0737,-0.465 0.21875,-0.8825 0.435,-1.25125 0.21625,-0.37 0.515,-0.67375 0.89625,-0.90875 0.38125,-0.235 0.88,-0.35125 1.495,-0.35125 0.295,0 0.63375,0.0638 1.015,0.19375 0.38125,0.13 0.755,0.31625 1.11875,0.555 l 0.23875,-0.58375 1.0925,0 0,7.24375 -0.99,0 -0.32375,-0.74875 -0.76875,0.465 c -0.29625,0.17 -0.54,0.29125 -0.735,0.3675 -0.1925,0.0738 -0.38625,0.1125 -0.58,0.1125 -0.5575,0 -1.0275,-0.1025 -1.4075,-0.3075 -0.3825,-0.205 -0.6925,-0.48 -0.9325,-0.82625 -0.23875,-0.345 -0.41,-0.74125 -0.51125,-1.1925 -0.1025,-0.45 -0.15375,-0.91375 -0.15375,-1.395"
         style="fill:#ffffff;fill-opacity:1;fill-rule:nonzero;stroke:none"
         id="path454"
         inkscape:connector-curvature="0" />
      <path
         d="m -481.7251,546.41974 c -0.4325,0 -0.86125,-0.0375 -1.28875,-0.1125 -0.4275,-0.075 -0.77125,-0.1675 -1.0325,-0.2775 l 0.34125,-0.885 c 0.30625,0.11 0.63125,0.195 0.9725,0.255 0.3425,0.06 0.67125,0.09 0.99,0.09 0.5475,0 0.98,-0.0862 1.2975,-0.2625 0.31875,-0.175 0.47875,-0.4925 0.47875,-0.9525 0,-0.43 -0.1275,-0.7425 -0.38375,-0.9375 -0.255,-0.195 -0.6575,-0.3625 -1.20375,-0.5025 -0.3075,-0.08 -0.60125,-0.1625 -0.87875,-0.2475 -0.28,-0.085 -0.52375,-0.2 -0.735,-0.345 -0.21,-0.145 -0.38125,-0.33125 -0.51125,-0.5625 -0.1325,-0.23 -0.1975,-0.53 -0.1975,-0.9 0,-0.37 0.0863,-0.6825 0.25625,-0.9375 0.17,-0.255 0.38625,-0.46 0.64875,-0.615 0.2625,-0.155 0.555,-0.2675 0.87875,-0.3375 0.325,-0.07 0.64125,-0.105 0.94875,-0.105 0.44375,0 0.855,0.0375 1.2375,0.1125 0.38125,0.075 0.6625,0.1525 0.845,0.2325 l -0.30625,0.87 c -0.2625,-0.08 -0.5475,-0.14 -0.855,-0.18 -0.3075,-0.04 -0.58,-0.06 -0.81875,-0.06 -1.03625,0 -1.55375,0.34 -1.55375,1.02 0,0.19 0.0387,0.345 0.11875,0.465 0.08,0.12 0.18875,0.2175 0.325,0.2925 0.13625,0.075 0.29625,0.14 0.4775,0.195 0.1825,0.055 0.37625,0.1075 0.58125,0.1575 0.28375,0.08 0.57125,0.1675 0.86125,0.2625 0.29125,0.095 0.5525,0.23125 0.78625,0.405 0.23375,0.175 0.42125,0.39625 0.5625,0.66 0.14375,0.265 0.21375,0.6075 0.21375,1.0275 0,0.39 -0.0787,0.7225 -0.23875,0.9975 -0.15875,0.275 -0.37875,0.5 -0.65625,0.675 -0.28,0.175 -0.605,0.3025 -0.975,0.3825 -0.37,0.08 -0.765,0.12 -1.18625,0.12"
         style="fill:#ffffff;fill-opacity:1;fill-rule:nonzero;stroke:none"
         id="path458"
         inkscape:connector-curvature="0" />
      <path
         d="m -471.24048,537.73436 1.22875,-2.505 1.26375,0.48 -1.74125,2.325 -0.75125,-0.3 z m -0.87,6.465 c 0,0.38125 0.12125,0.675 0.36625,0.885 0.245,0.21 0.62375,0.315 1.13625,0.315 0.4325,0 0.83625,-0.0325 1.2125,-0.0963 0.375,-0.0662 0.76125,-0.17875 1.16,-0.33875 l 0.41,0.87 c -0.4325,0.22 -0.865,0.37 -1.2975,0.45 -0.4325,0.08 -0.9225,0.12125 -1.4675,0.12125 -0.355,0 -0.70375,-0.0388 -1.05125,-0.1125 -0.3475,-0.0762 -0.66125,-0.19875 -0.93875,-0.3675 -0.28,-0.17125 -0.505,-0.39375 -0.675,-0.6675 -0.17125,-0.27625 -0.25625,-0.60875 -0.25625,-0.9975 0,-0.38125 0.11625,-0.7375 0.35,-1.07375 0.2325,-0.33375 0.59,-0.5775 1.0675,-0.7275 l 0,-0.045 -0.88875,-0.405 c -0.13625,-0.06 -0.245,-0.18625 -0.32375,-0.3825 -0.08,-0.195 -0.12,-0.39125 -0.12,-0.59125 0,-0.35125 0.08,-0.66375 0.23875,-0.9375 0.16,-0.27625 0.37625,-0.51125 0.65,-0.70625 0.27375,-0.195 0.58875,-0.345 0.9475,-0.45 0.35875,-0.105 0.7425,-0.1575 1.1525,-0.1575 0.365,0 0.72875,0.0325 1.09375,0.0975 0.36375,0.0663 0.81875,0.2075 1.365,0.42875 l -0.42625,0.885 c -0.3425,-0.14125 -0.66375,-0.23375 -0.965,-0.27875 -0.30125,-0.045 -0.59,-0.0675 -0.8625,-0.0675 -0.125,0 -0.285,0.0125 -0.4775,0.0387 -0.19375,0.0238 -0.38875,0.0738 -0.58125,0.14875 -0.19375,0.075 -0.35875,0.18 -0.49625,0.31625 -0.13625,0.13375 -0.205,0.3125 -0.205,0.5325 0,0.23875 0.0662,0.42625 0.1975,0.5625 0.13,0.13375 0.2925,0.23125 0.48625,0.29125 0.19375,0.06 0.4075,0.0975 0.64125,0.1125 0.23375,0.0163 0.445,0.0238 0.64,0.0238 l 0.8375,0 0,0.95875 -0.9575,0 c -0.34125,0 -0.6375,0.0425 -0.8875,0.12875 -0.25,0.0838 -0.455,0.19125 -0.615,0.32125 -0.15875,0.13 -0.27625,0.2775 -0.35,0.4425 -0.0738,0.16625 -0.11,0.32375 -0.11,0.4725"
         style="fill:#ffffff;fill-opacity:1;fill-rule:nonzero;stroke:none"
         id="path462"
         inkscape:connector-curvature="0" />
      <path
         d="m -463.4781,543.41924 -0.59875,0.825 -1.4675,1.965 -1.52,0 2.9025,-3.675 -2.51,-3.52375 1.5375,0 1.2125,1.84375 0.44375,0.75125 0.0337,0 0.54625,-0.84125 1.24625,-1.75375 1.53625,0 -2.62875,3.40375 2.73125,3.795 -1.57,0 -1.36625,-1.99375 -0.495,-0.79625 -0.0337,0 z"
         style="fill:#ffffff;fill-opacity:1;fill-rule:nonzero;stroke:none"
         id="path466"
         inkscape:connector-curvature="0" />
      <path
         d="m -456.27348,539.75961 c -0.3875,0 -0.70375,0.0738 -0.9475,0.2175 -0.245,0.145 -0.4375,0.3425 -0.58125,0.5925 -0.14125,0.25125 -0.24125,0.5425 -0.2975,0.87875 -0.0575,0.33375 -0.085,0.68625 -0.085,1.05625 0,0.43 0.0275,0.825 0.085,1.18625 0.0563,0.36 0.15625,0.6725 0.2975,0.9375 0.14375,0.26375 0.33625,0.47 0.58125,0.61375 0.24375,0.145 0.56,0.21875 0.9475,0.21875 0.37625,0 0.68625,-0.0713 0.93125,-0.21 0.24375,-0.14125 0.43875,-0.33875 0.58,-0.59375 0.1425,-0.255 0.245,-0.5625 0.3075,-0.9225 0.0625,-0.35875 0.0937,-0.755 0.0937,-1.185 0,-0.36875 -0.0275,-0.7225 -0.085,-1.0575 -0.0575,-0.335 -0.16,-0.63 -0.3075,-0.885 -0.1475,-0.25375 -0.345,-0.45875 -0.58875,-0.61375 -0.245,-0.155 -0.555,-0.23375 -0.93125,-0.23375 m -0.0687,6.66 c -0.59125,0 -1.095,-0.0975 -1.51125,-0.2925 -0.415,-0.195 -0.7525,-0.46125 -1.015,-0.8025 -0.2625,-0.33875 -0.4525,-0.74 -0.5725,-1.2 -0.11875,-0.46 -0.17875,-0.95375 -0.17875,-1.485 0,-0.5 0.0562,-0.98125 0.17,-1.4475 0.115,-0.465 0.305,-0.875 0.5725,-1.23 0.2675,-0.355 0.615,-0.6375 1.04125,-0.8475 0.4275,-0.21 0.94875,-0.315 1.5625,-0.315 0.60375,0 1.12,0.0987 1.545,0.2925 0.4275,0.195 0.77375,0.4625 1.0425,0.8025 0.2675,0.34 0.46,0.74 0.58,1.2 0.12,0.46125 0.18,0.95 0.18,1.47 0,0.52 -0.06,1.0125 -0.18,1.4775 -0.12,0.465 -0.31625,0.875 -0.58875,1.23 -0.2725,0.355 -0.625,0.635 -1.05875,0.84 -0.4325,0.205 -0.9625,0.3075 -1.58875,0.3075"
         style="fill:#ffffff;fill-opacity:1;fill-rule:nonzero;stroke:none"
         id="path470"
         inkscape:connector-curvature="0" />
      <path
         d="m -448.34498,546.41974 c -0.58,0 -1.0675,-0.075 -1.46,-0.225 -0.39125,-0.15 -0.7075,-0.3425 -0.9475,-0.5775 -0.23875,-0.235 -0.41,-0.4975 -0.5125,-0.78625 -0.1025,-0.29125 -0.15375,-0.57125 -0.15375,-0.84125 l 0,-4.98 1.33125,0 0,4.995 c 0,0.16 0.035,0.325 0.1025,0.495 0.0688,0.17125 0.1775,0.32875 0.325,0.4725 0.1475,0.145 0.33375,0.265 0.55625,0.36 0.22125,0.095 0.48,0.1425 0.77625,0.1425 0.17,0 0.36125,-0.0237 0.5725,-0.075 0.21,-0.0487 0.41,-0.135 0.5975,-0.255 0.1875,-0.12 0.345,-0.285 0.46875,-0.495 0.12625,-0.21 0.18875,-0.48 0.18875,-0.81 l 0,-4.83 1.33125,0 0,4.785 c 0,0.6 -0.12,1.075 -0.35875,1.425 -0.23875,0.35 -0.52625,0.6125 -0.8625,0.7875 -0.335,0.17625 -0.685,0.2875 -1.04875,0.3375 -0.365,0.0488 -0.6675,0.075 -0.90625,0.075"
         style="fill:#ffffff;fill-opacity:1;fill-rule:nonzero;stroke:none"
         id="path474"
         inkscape:connector-curvature="0" />
      <path
         d="m -442.01198,539.01011 0,4.62375 c 0,0.23 0.0163,0.44625 0.05,0.65125 0.0337,0.205 0.1025,0.38125 0.20375,0.53125 0.1025,0.15 0.24875,0.26625 0.4425,0.35125 0.1925,0.085 0.4475,0.12625 0.765,0.12625 0.22625,0 0.43875,-0.0263 0.6375,-0.0812 0.1975,-0.055 0.38125,-0.125 0.55125,-0.21 0.17,-0.0838 0.3225,-0.1725 0.45875,-0.26125 0.13625,-0.09 0.255,-0.175 0.35625,-0.255 l 0,-5.47625 1.3325,0 0,7.2 -1.0075,0 -0.325,-0.75 -0.815,0.465 c -0.5425,0.30875 -1.025,0.46375 -1.44375,0.46375 -0.465,0 -0.8725,-0.0688 -1.22375,-0.21 l 0,3.03125 -1.3325,0 0,-10.2 1.35,0 z"
         style="fill:#ffffff;fill-opacity:1;fill-rule:nonzero;stroke:none"
         id="path478"
         inkscape:connector-curvature="0" />
      <path
         d="m -434.24098,544.19924 c 0,0.38125 0.1225,0.675 0.36625,0.885 0.245,0.21 0.62375,0.315 1.13625,0.315 0.4325,0 0.83625,-0.0312 1.2125,-0.0962 0.37625,-0.0662 0.76125,-0.17875 1.16125,-0.33875 l 0.41,0.87125 c -0.43375,0.21875 -0.86625,0.36875 -1.2975,0.44875 -0.43375,0.08 -0.92375,0.12125 -1.46875,0.12125 -0.35375,0 -0.70375,-0.0387 -1.05125,-0.1125 -0.34625,-0.0763 -0.66,-0.1975 -0.93875,-0.3675 -0.28,-0.17125 -0.50375,-0.39375 -0.675,-0.6675 -0.17125,-0.27625 -0.25625,-0.60875 -0.25625,-0.9975 0,-0.38125 0.1175,-0.7375 0.35,-1.07375 0.23375,-0.33375 0.59,-0.57625 1.06875,-0.7275 l 0,-0.045 -0.88875,-0.405 c -0.1375,-0.06 -0.24625,-0.18625 -0.325,-0.3825 -0.08,-0.195 -0.12,-0.39125 -0.12,-0.59125 0,-0.35125 0.0813,-0.66375 0.24,-0.9375 0.16,-0.27625 0.375,-0.51 0.64875,-0.70625 0.27375,-0.195 0.58875,-0.345 0.9475,-0.45 0.35875,-0.105 0.74375,-0.1575 1.1525,-0.1575 0.365,0 0.72875,0.0325 1.09375,0.0975 0.36375,0.0662 0.81875,0.2075 1.36625,0.42875 l -0.4275,0.885 c -0.3425,-0.14 -0.6625,-0.23375 -0.965,-0.27875 -0.30125,-0.045 -0.58875,-0.0662 -0.8625,-0.0662 -0.125,0 -0.285,0.0113 -0.4775,0.0375 -0.19375,0.0238 -0.3875,0.0738 -0.58125,0.14875 -0.19375,0.075 -0.35875,0.18 -0.495,0.31625 -0.1375,0.13375 -0.205,0.3125 -0.205,0.5325 0,0.23875 0.065,0.42625 0.19625,0.5625 0.13,0.13375 0.2925,0.23125 0.4875,0.29125 0.1925,0.06 0.40625,0.0975 0.64,0.1125 0.23375,0.0163 0.44625,0.0238 0.64,0.0238 l 0.8375,0 0,0.95875 -0.9575,0 c -0.34125,0 -0.63625,0.0425 -0.8875,0.12875 -0.25,0.0838 -0.455,0.19125 -0.615,0.3225 -0.15875,0.12875 -0.27625,0.27625 -0.35,0.44125 -0.0737,0.16625 -0.11,0.32375 -0.11,0.4725"
         style="fill:#ffffff;fill-opacity:1;fill-rule:nonzero;stroke:none"
         id="path482"
         inkscape:connector-curvature="0" />
      <path
         d="m -493.19973,554.01011 -3.5,3.33 3.5175,3.87 -1.6575,0 -3.2275,-3.67625 0,3.67625 -1.33125,0 0,-7.2 1.33125,0 0,3.195 3.29625,-3.195 1.57125,0 z"
         style="fill:#ffffff;fill-opacity:1;fill-rule:nonzero;stroke:none"
         id="path486"
         inkscape:connector-curvature="0" />
      <path
         d="m -491.40648,557.53424 c 0,0.92 0.12875,1.6125 0.38375,2.0775 0.25625,0.465 0.715,0.69875 1.375,0.69875 0.17,0 0.34375,-0.0263 0.52,-0.0762 0.1775,-0.05 0.345,-0.115 0.505,-0.19375 0.15875,-0.0812 0.3075,-0.16875 0.44375,-0.26375 0.135,-0.0937 0.26125,-0.18625 0.375,-0.2775 l 0,-4.09375 c -0.26125,-0.15 -0.5775,-0.2975 -0.9475,-0.44375 -0.37,-0.145 -0.74375,-0.21625 -1.11875,-0.21625 -0.375,0 -0.66875,0.1025 -0.88,0.3075 -0.21,0.205 -0.36375,0.4525 -0.46,0.74125 -0.0975,0.29125 -0.15375,0.59625 -0.17,0.91625 -0.0175,0.32 -0.0263,0.59375 -0.0263,0.82375 m -1.46875,0.15 c 0,-0.44875 0.0362,-0.90625 0.11125,-1.3725 0.0738,-0.465 0.21875,-0.8825 0.435,-1.25125 0.21625,-0.37 0.515,-0.67375 0.89625,-0.90875 0.38125,-0.235 0.88,-0.35125 1.495,-0.35125 0.295,0 0.63375,0.0638 1.015,0.19375 0.38125,0.13 0.755,0.31625 1.11875,0.555 l 0.23875,-0.58375 1.0925,0 0,7.24375 -0.99,0 -0.32375,-0.74875 -0.76875,0.465 c -0.29625,0.17 -0.54,0.29125 -0.735,0.3675 -0.1925,0.0738 -0.38625,0.1125 -0.58,0.1125 -0.5575,0 -1.0275,-0.1025 -1.4075,-0.3075 -0.3825,-0.205 -0.6925,-0.48 -0.9325,-0.82625 -0.23875,-0.345 -0.41,-0.74125 -0.51125,-1.1925 -0.1025,-0.45 -0.15375,-0.91375 -0.15375,-1.395"
         style="fill:#ffffff;fill-opacity:1;fill-rule:nonzero;stroke:none"
         id="path490"
         inkscape:connector-curvature="0" />
      <path
         d="m -481.4236,551.44536 c -0.41,0 -0.74,0.11 -0.99,0.33 -0.25,0.21875 -0.44625,0.5125 -0.59,0.8775 -0.14125,0.365 -0.24375,0.78 -0.3075,1.245 -0.0625,0.465 -0.11,0.9375 -0.14375,1.4175 l 4.06375,0 c -0.0337,-0.48 -0.085,-0.9525 -0.15375,-1.4175 -0.0688,-0.465 -0.17375,-0.8775 -0.31625,-1.2375 -0.1425,-0.36 -0.33875,-0.65375 -0.58875,-0.8775 -0.25125,-0.225 -0.575,-0.3375 -0.97375,-0.3375 m -2.04875,4.76875 c 0,0.74 0.0312,1.37875 0.095,1.91375 0.0612,0.53375 0.16875,0.9775 0.3225,1.32625 0.15375,0.35125 0.35875,0.61125 0.615,0.78 0.2575,0.17125 0.58875,0.255 0.99875,0.255 0.45625,0 0.8175,-0.105 1.085,-0.315 0.2675,-0.21 0.47125,-0.50375 0.615,-0.885 0.1425,-0.37875 0.23625,-0.8325 0.28125,-1.3575 0.045,-0.52375 0.0738,-1.09625 0.0863,-1.7175 l -4.09875,0 z m 1.96375,5.205 c -0.70625,0 -1.27875,-0.1325 -1.71625,-0.3975 -0.43875,-0.265 -0.7775,-0.635 -1.01625,-1.11 -0.23875,-0.47375 -0.3975,-1.0425 -0.47875,-1.7025 -0.0788,-0.65875 -0.11875,-1.37875 -0.11875,-2.15875 0,-0.76125 0.0462,-1.475 0.13625,-2.145 0.0913,-0.67 0.265,-1.2575 0.52125,-1.7625 0.25625,-0.50625 0.60875,-0.905 1.05875,-1.2 0.45,-0.29625 1.0275,-0.44375 1.7325,-0.44375 0.68375,0 1.24625,0.13875 1.69125,0.4125 0.44375,0.27625 0.795,0.65625 1.05,1.14 0.25625,0.48625 0.4325,1.06125 0.53,1.725 0.0962,0.665 0.145,1.38375 0.145,2.15375 0,0.75 -0.0488,1.4575 -0.145,2.12125 -0.0975,0.665 -0.27375,1.2475 -0.53,1.74875 -0.255,0.5 -0.61375,0.89375 -1.07625,1.185 -0.46125,0.28875 -1.055,0.43375 -1.78375,0.43375"
         style="fill:#ffffff;fill-opacity:1;fill-rule:nonzero;stroke:none"
         id="path494"
         inkscape:connector-curvature="0" />
      <path
         d="m -471.4761,561.20974 0,-4.635 c 0,-0.23 -0.015,-0.4475 -0.0425,-0.6525 -0.0288,-0.205 -0.0913,-0.3825 -0.18875,-0.5325 -0.0962,-0.15 -0.235,-0.2675 -0.4175,-0.3525 -0.1825,-0.085 -0.42,-0.1275 -0.7175,-0.1275 -0.2275,0 -0.44625,0.03 -0.65625,0.09 -0.21125,0.06 -0.4075,0.13 -0.59,0.21 -0.18125,0.08 -0.3475,0.1675 -0.495,0.2625 -0.1475,0.095 -0.27375,0.1775 -0.375,0.2475 l 0,5.49 -1.33375,0 0,-7.2 0.99125,0 0.325,0.75 1.2975,-0.645 c 0.15875,-0.08 0.35,-0.15 0.57125,-0.21 0.2225,-0.06 0.4125,-0.09 0.5725,-0.09 0.56875,0 1.01375,0.09 1.3325,0.27 0.31875,0.18 0.5575,0.4075 0.7175,0.6825 0.15875,0.275 0.255,0.5725 0.28875,0.8925 0.035,0.32 0.0512,0.62 0.0512,0.9 l 0,4.65 -1.33125,0 z"
         style="fill:#ffffff;fill-opacity:1;fill-rule:nonzero;stroke:none"
         id="path498"
         inkscape:connector-curvature="0" />
      <path
         d="m -467.01323,554.01011 0,4.62375 c 0,0.23 0.0163,0.44625 0.05,0.65125 0.0337,0.205 0.1025,0.38125 0.20375,0.53125 0.1025,0.15 0.24875,0.26625 0.4425,0.35125 0.1925,0.085 0.4475,0.12625 0.765,0.12625 0.22625,0 0.43875,-0.0263 0.6375,-0.0812 0.1975,-0.055 0.38125,-0.125 0.55125,-0.21 0.17,-0.0838 0.3225,-0.1725 0.45875,-0.26125 0.13625,-0.09 0.255,-0.175 0.35625,-0.255 l 0,-5.47625 1.3325,0 0,7.2 -1.0075,0 -0.325,-0.75 -0.815,0.465 c -0.5425,0.30875 -1.025,0.46375 -1.44375,0.46375 -0.465,0 -0.8725,-0.0688 -1.22375,-0.21 l 0,3.03125 -1.3325,0 0,-10.2 1.35,0 z"
         style="fill:#ffffff;fill-opacity:1;fill-rule:nonzero;stroke:none"
         id="path502"
         inkscape:connector-curvature="0" />
      <path
         d="m -459.24098,559.19924 c 0,0.38125 0.1225,0.675 0.36625,0.885 0.245,0.21 0.62375,0.315 1.13625,0.315 0.4325,0 0.83625,-0.0312 1.2125,-0.0962 0.37625,-0.0662 0.76125,-0.17875 1.16125,-0.33875 l 0.41,0.87125 c -0.43375,0.21875 -0.86625,0.36875 -1.2975,0.44875 -0.43375,0.08 -0.92375,0.12125 -1.46875,0.12125 -0.35375,0 -0.70375,-0.0387 -1.05125,-0.1125 -0.34625,-0.0763 -0.66,-0.1975 -0.93875,-0.3675 -0.28,-0.17125 -0.50375,-0.39375 -0.675,-0.6675 -0.17125,-0.27625 -0.25625,-0.60875 -0.25625,-0.9975 0,-0.38125 0.1175,-0.7375 0.35,-1.07375 0.23375,-0.33375 0.59,-0.57625 1.06875,-0.7275 l 0,-0.045 -0.88875,-0.405 c -0.1375,-0.06 -0.24625,-0.18625 -0.325,-0.3825 -0.08,-0.195 -0.12,-0.39125 -0.12,-0.59125 0,-0.35125 0.0813,-0.66375 0.24,-0.9375 0.16,-0.27625 0.375,-0.51 0.64875,-0.70625 0.27375,-0.195 0.58875,-0.345 0.9475,-0.45 0.35875,-0.105 0.74375,-0.1575 1.1525,-0.1575 0.365,0 0.72875,0.0325 1.09375,0.0975 0.36375,0.0662 0.81875,0.2075 1.36625,0.42875 l -0.4275,0.885 c -0.3425,-0.14 -0.6625,-0.23375 -0.965,-0.27875 -0.30125,-0.045 -0.58875,-0.0662 -0.8625,-0.0662 -0.125,0 -0.285,0.0113 -0.4775,0.0375 -0.19375,0.0238 -0.3875,0.0738 -0.58125,0.14875 -0.19375,0.075 -0.35875,0.18 -0.495,0.31625 -0.1375,0.13375 -0.205,0.3125 -0.205,0.5325 0,0.23875 0.065,0.42625 0.19625,0.5625 0.13,0.13375 0.2925,0.23125 0.4875,0.29125 0.1925,0.06 0.40625,0.0975 0.64,0.1125 0.23375,0.0163 0.44625,0.0238 0.64,0.0238 l 0.8375,0 0,0.95875 -0.9575,0 c -0.34125,0 -0.63625,0.0425 -0.8875,0.12875 -0.25,0.0838 -0.455,0.19125 -0.615,0.3225 -0.15875,0.12875 -0.27625,0.27625 -0.35,0.44125 -0.0737,0.16625 -0.11,0.32375 -0.11,0.4725"
         style="fill:#ffffff;fill-opacity:1;fill-rule:nonzero;stroke:none"
         id="path506"
         inkscape:connector-curvature="0" />
      <path
         d="m -448.58673,557.68436 c 0,-0.91875 -0.1475,-1.635 -0.44375,-2.145 -0.29625,-0.51 -0.80875,-0.765 -1.5375,-0.765 -0.17125,0 -0.36375,0.0275 -0.58,0.0825 -0.2175,0.055 -0.41625,0.17 -0.5975,0.34625 -0.1825,0.17375 -0.33625,0.4225 -0.46125,0.74125 -0.125,0.32 -0.1875,0.745 -0.1875,1.275 l 0,2.595 c 0.26125,0.15 0.5775,0.2975 0.9475,0.44375 0.37,0.145 0.7425,0.21625 1.1175,0.21625 0.37625,0 0.68,-0.1025 0.915,-0.3075 0.2325,-0.205 0.40875,-0.4525 0.52875,-0.74125 0.11875,-0.29125 0.19875,-0.59625 0.23875,-0.91625 0.04,-0.32 0.06,-0.59375 0.06,-0.825 m 1.43375,-0.075 c 0,0.45125 -0.0562,0.9 -0.17,1.35125 -0.115,0.44875 -0.3,0.85875 -0.5575,1.22875 -0.2575,0.37125 -0.59375,0.67 -1.01125,0.90125 -0.41625,0.22875 -0.9325,0.34375 -1.54875,0.34375 -0.26375,0 -0.56875,-0.0525 -0.9175,-0.1575 -0.34875,-0.105 -0.69375,-0.28625 -1.03625,-0.54625 l 0,3.48 -1.3325,0 0,-6.73625 c 0,-0.84 0.12,-1.50125 0.36,-1.9875 0.23875,-0.485 0.53125,-0.85 0.8725,-1.095 0.3425,-0.245 0.7,-0.39875 1.07,-0.465 0.37125,-0.065 0.69375,-0.0975 0.9675,-0.0975 0.605,0 1.115,0.0975 1.5325,0.2925 0.41625,0.19625 0.75625,0.46375 1.01875,0.8025 0.2625,0.34 0.45375,0.74125 0.57375,1.2 0.12,0.46 0.17875,0.95625 0.17875,1.485"
         style="fill:#ffffff;fill-opacity:1;fill-rule:nonzero;stroke:none"
         id="path510"
         inkscape:connector-curvature="0" />
      <path
         d="m -445.2456,554.94024 -0.905,-0.21 0,-0.73625 2.23625,0 0,7.21625 -1.33125,0 0,-6.27 z"
         style="fill:#ffffff;fill-opacity:1;fill-rule:nonzero;stroke:none"
         id="path514"
         inkscape:connector-curvature="0" />
      <path
         d="m -437.0156,554.01011 1.43375,0 -2.9025,7.2 -1.12625,0 -3.05625,-7.2 1.43375,0 1.87875,4.74 0.325,0.96 0.0513,0 0.28875,-0.96 1.67375,-4.74 z"
         style="fill:#ffffff;fill-opacity:1;fill-rule:nonzero;stroke:none"
         id="path518"
         inkscape:connector-curvature="0" />
      <path
         d="m -432.36235,552.73436 1.22875,-2.505 1.26375,0.48 -1.74125,2.325 -0.75125,-0.3 z m -1.22875,4.8 c 0,0.92 0.1275,1.6125 0.3825,2.0775 0.25625,0.465 0.715,0.69875 1.375,0.69875 0.17125,0 0.34375,-0.0263 0.52125,-0.0762 0.17625,-0.05 0.34375,-0.115 0.50375,-0.19375 0.15875,-0.0813 0.3075,-0.16875 0.44375,-0.26375 0.13625,-0.0937 0.2625,-0.1875 0.375,-0.2775 l 0,-4.09375 c -0.26125,-0.15 -0.57625,-0.29875 -0.94625,-0.44375 -0.37,-0.145 -0.74375,-0.2175 -1.11875,-0.2175 -0.37625,0 -0.66875,0.1025 -0.88,0.3075 -0.21,0.20625 -0.36375,0.45375 -0.46125,0.7425 -0.0962,0.29125 -0.1525,0.59625 -0.17,0.91625 -0.0175,0.32 -0.025,0.59375 -0.025,0.82375 m -1.46875,0.15 c 0,-0.44875 0.0362,-0.9075 0.11125,-1.3725 0.0725,-0.465 0.2175,-0.8825 0.43375,-1.2525 0.21625,-0.37 0.515,-0.6725 0.8975,-0.9075 0.38125,-0.235 0.87875,-0.35125 1.49375,-0.35125 0.29625,0 0.63375,0.0638 1.01625,0.19375 0.38125,0.13 0.75375,0.31625 1.1175,0.555 l 0.24,-0.585 1.0925,0 0,7.245 -0.99,0 -0.325,-0.74875 -0.7675,0.465 c -0.29625,0.16875 -0.54125,0.29125 -0.735,0.3675 -0.1925,0.0738 -0.3875,0.1125 -0.58,0.1125 -0.5575,0 -1.0275,-0.10375 -1.40875,-0.30875 -0.3825,-0.205 -0.6925,-0.47875 -0.93125,-0.825 -0.23875,-0.345 -0.41,-0.74125 -0.51125,-1.1925 -0.1025,-0.45 -0.15375,-0.91375 -0.15375,-1.395"
         style="fill:#ffffff;fill-opacity:1;fill-rule:nonzero;stroke:none"
         id="path522"
         inkscape:connector-curvature="0" />
      <path
         d="m -420.73398,552.73436 1.22875,-2.505 1.26375,0.48 -1.74125,2.325 -0.75125,-0.3 z m -0.87,6.465 c 0,0.38125 0.12125,0.675 0.36625,0.885 0.245,0.21 0.62375,0.315 1.13625,0.315 0.4325,0 0.83625,-0.0325 1.2125,-0.0963 0.375,-0.0662 0.76125,-0.17875 1.16,-0.33875 l 0.41,0.87 c -0.4325,0.22 -0.865,0.37 -1.2975,0.45 -0.4325,0.08 -0.9225,0.12125 -1.4675,0.12125 -0.355,0 -0.70375,-0.0388 -1.05125,-0.1125 -0.3475,-0.0762 -0.66125,-0.19875 -0.93875,-0.3675 -0.28,-0.17125 -0.505,-0.39375 -0.675,-0.6675 -0.17125,-0.27625 -0.25625,-0.60875 -0.25625,-0.9975 0,-0.38125 0.11625,-0.7375 0.35,-1.07375 0.2325,-0.33375 0.59,-0.5775 1.0675,-0.7275 l 0,-0.045 -0.88875,-0.405 c -0.13625,-0.06 -0.245,-0.18625 -0.32375,-0.3825 -0.08,-0.195 -0.12,-0.39125 -0.12,-0.59125 0,-0.35125 0.08,-0.66375 0.23875,-0.9375 0.16,-0.27625 0.37625,-0.51125 0.65,-0.70625 0.27375,-0.195 0.58875,-0.345 0.9475,-0.45 0.35875,-0.105 0.7425,-0.1575 1.1525,-0.1575 0.365,0 0.72875,0.0325 1.09375,0.0975 0.36375,0.0663 0.81875,0.2075 1.365,0.42875 l -0.42625,0.885 c -0.3425,-0.14125 -0.66375,-0.23375 -0.965,-0.27875 -0.30125,-0.045 -0.59,-0.0675 -0.8625,-0.0675 -0.125,0 -0.285,0.0125 -0.4775,0.0387 -0.19375,0.0238 -0.38875,0.0738 -0.58125,0.14875 -0.19375,0.075 -0.35875,0.18 -0.49625,0.31625 -0.13625,0.13375 -0.205,0.3125 -0.205,0.5325 0,0.23875 0.0662,0.42625 0.1975,0.5625 0.13,0.13375 0.2925,0.23125 0.48625,0.29125 0.19375,0.06 0.4075,0.0975 0.64125,0.1125 0.23375,0.0163 0.445,0.0238 0.64,0.0238 l 0.8375,0 0,0.95875 -0.9575,0 c -0.34125,0 -0.6375,0.0425 -0.8875,0.12875 -0.25,0.0838 -0.455,0.19125 -0.615,0.32125 -0.15875,0.13 -0.27625,0.2775 -0.35,0.4425 -0.0737,0.16625 -0.11,0.32375 -0.11,0.4725"
         style="fill:#ffffff;fill-opacity:1;fill-rule:nonzero;stroke:none"
         id="path526"
         inkscape:connector-curvature="0" />
      <path
         d="m -406.41022,557.57936 c 0,0.52 -0.0575,1.01375 -0.17125,1.47875 -0.11375,0.465 -0.29875,0.87125 -0.555,1.22125 -0.25625,0.35 -0.58375,0.6275 -0.98125,0.8325 -0.4,0.205 -0.87625,0.3075 -1.435,0.3075 -0.4325,0 -0.8225,-0.0937 -1.16875,-0.28 -0.34875,-0.1875 -0.59625,-0.39375 -0.74375,-0.61875 l -0.085,0 c -0.19375,0.225 -0.4475,0.43125 -0.76,0.61875 -0.31375,0.18625 -0.68125,0.28 -1.1025,0.28 -0.57876,0 -1.07251,-0.1025 -1.47626,-0.3075 -0.40375,-0.205 -0.7275,-0.4825 -0.97375,-0.8325 -0.245,-0.35 -0.42,-0.75625 -0.52875,-1.22125 -0.1075,-0.465 -0.16125,-0.95875 -0.16125,-1.47875 0,-0.44875 0.0587,-0.8825 0.175,-1.2975 0.11875,-0.41375 0.29375,-0.79 0.52375,-1.125 0.23125,-0.335 0.52125,-0.6175 0.87375,-0.84625 0.35125,-0.23125 0.76625,-0.39125 1.24501,-0.48125 l 0.34,0.8725 c -0.68251,0.22 -1.15876,0.57375 -1.42626,1.06 -0.26625,0.48625 -0.4,1.06875 -0.4,1.75125 0,0.43125 0.0312,0.82875 0.0937,1.195 0.0637,0.365 0.16625,0.68125 0.30875,0.9475 0.14375,0.265 0.33,0.47375 0.55875,0.62375 0.22875,0.15 0.51001,0.225 0.84251,0.225 0.13625,0 0.27875,-0.025 0.4275,-0.075 0.14875,-0.05 0.2875,-0.12125 0.4125,-0.2175 0.12625,-0.095 0.23,-0.21625 0.30875,-0.36625 0.0812,-0.15125 0.12125,-0.33125 0.12125,-0.54125 l 0,-2.985 1.3325,0 0,2.985 c 0,0.21 0.0362,0.39 0.11,0.54125 0.0738,0.15 0.17125,0.27125 0.29125,0.36625 0.11875,0.0963 0.25,0.1675 0.39125,0.2175 0.14375,0.05 0.2825,0.075 0.41875,0.075 0.33,0 0.6125,-0.075 0.845,-0.225 0.23375,-0.15 0.42125,-0.35875 0.56375,-0.62375 0.14375,-0.26625 0.24875,-0.5825 0.31625,-0.9475 0.0687,-0.36625 0.1025,-0.76375 0.1025,-1.195 0,-0.34125 -0.0375,-0.66375 -0.11125,-0.97 -0.0737,-0.305 -0.1875,-0.58125 -0.34125,-0.82625 -0.15375,-0.24625 -0.3425,-0.45625 -0.56375,-0.63125 -0.22125,-0.17625 -0.48125,-0.30375 -0.77625,-0.38375 l 0.32375,-0.8725 c 0.50125,0.08 0.93125,0.23375 1.29,0.4575 0.35875,0.225 0.65125,0.50625 0.87875,0.84 0.2275,0.33625 0.395,0.7125 0.50375,1.1325 0.1075,0.42 0.1625,0.86125 0.1625,1.32"
         style="fill:#ffffff;fill-opacity:1;fill-rule:nonzero;stroke:none"
         id="path530"
         inkscape:connector-curvature="0" />
      <path
         d="m -403.15822,561.41974 c -0.4325,0 -0.86125,-0.0375 -1.28875,-0.1125 -0.4275,-0.075 -0.77125,-0.1675 -1.0325,-0.2775 l 0.34125,-0.885 c 0.30624,0.11 0.63125,0.195 0.9725,0.255 0.3425,0.06 0.67125,0.09 0.99,0.09 0.5475,0 0.98,-0.0862 1.2975,-0.2625 0.31875,-0.175 0.47875,-0.4925 0.47875,-0.9525 0,-0.43 -0.12751,-0.7425 -0.38375,-0.9375 -0.255,-0.195 -0.6575,-0.3625 -1.20375,-0.5025 -0.3075,-0.08 -0.60125,-0.1625 -0.87875,-0.2475 -0.28,-0.085 -0.52375,-0.2 -0.735,-0.345 -0.21,-0.145 -0.38125,-0.33125 -0.51126,-0.5625 -0.13249,-0.23 -0.19749,-0.53 -0.19749,-0.9 0,-0.37 0.0862,-0.6825 0.25625,-0.9375 0.17,-0.255 0.38625,-0.46 0.64875,-0.615 0.2625,-0.155 0.55499,-0.2675 0.87875,-0.3375 0.325,-0.07 0.64124,-0.105 0.94875,-0.105 0.44375,0 0.855,0.0375 1.23749,0.1125 0.38126,0.075 0.66251,0.1525 0.84501,0.2325 l -0.30625,0.87 c -0.2625,-0.08 -0.5475,-0.14 -0.855,-0.18 -0.3075,-0.04 -0.58,-0.06 -0.81875,-0.06 -1.03625,0 -1.55375,0.34 -1.55375,1.02 0,0.19 0.0387,0.345 0.11875,0.465 0.08,0.12 0.18875,0.2175 0.325,0.2925 0.13625,0.075 0.29625,0.14 0.4775,0.195 0.1825,0.055 0.37625,0.1075 0.58125,0.1575 0.28375,0.08 0.57125,0.1675 0.86125,0.2625 0.29125,0.095 0.5525,0.23125 0.78625,0.405 0.23375,0.175 0.42125,0.39625 0.5625,0.66 0.14375,0.265 0.21375,0.6075 0.21375,1.0275 0,0.39 -0.0787,0.7225 -0.23875,0.9975 -0.15875,0.275 -0.37875,0.5 -0.65625,0.675 -0.28,0.175 -0.605,0.3025 -0.975,0.3825 -0.37,0.08 -0.765,0.12 -1.18625,0.12"
         style="fill:#ffffff;fill-opacity:1;fill-rule:nonzero;stroke:none"
         id="path534"
         inkscape:connector-curvature="0" />
      <path
         d="m -388.57572,554.01011 -3.5,3.33 3.5175,3.87 -1.6575,0 -3.2275,-3.67625 0,3.67625 -1.33125,0 0,-7.2 1.33125,0 0,3.195 3.29625,-3.195 1.57125,0 z"
         style="fill:#ffffff;fill-opacity:1;fill-rule:nonzero;stroke:none"
         id="path538"
         inkscape:connector-curvature="0" />
      <path
         d="m -386.78122,557.53424 c 0,0.92 0.12875,1.6125 0.38375,2.0775 0.25625,0.465 0.715,0.69875 1.37499,0.69875 0.17001,0 0.34376,-0.0263 0.52,-0.0762 0.1775,-0.05 0.345,-0.115 0.50501,-0.19375 0.15874,-0.0812 0.30749,-0.16875 0.44374,-0.26375 0.135,-0.0937 0.26125,-0.18625 0.375,-0.2775 l 0,-4.09375 c -0.26125,-0.15 -0.5775,-0.2975 -0.9475,-0.44375 -0.37,-0.145 -0.74375,-0.21625 -1.11875,-0.21625 -0.375,0 -0.66875,0.1025 -0.87999,0.3075 -0.21001,0.205 -0.36375,0.4525 -0.46001,0.74125 -0.0975,0.29125 -0.15374,0.59625 -0.16999,0.91625 -0.0175,0.32 -0.0262,0.59375 -0.0262,0.82375 m -1.46875,0.15 c 0,-0.44875 0.0362,-0.90625 0.11125,-1.3725 0.0737,-0.465 0.21874,-0.8825 0.435,-1.25125 0.21625,-0.37 0.515,-0.67375 0.89625,-0.90875 0.38125,-0.235 0.88,-0.35125 1.495,-0.35125 0.295,0 0.63375,0.0638 1.01499,0.19375 0.38126,0.13 0.755,0.31625 1.11875,0.555 l 0.23875,-0.58375 1.0925,0 0,7.24375 -0.98999,0 -0.32375,-0.74875 -0.76875,0.465 c -0.29626,0.17 -0.54001,0.29125 -0.735,0.3675 -0.1925,0.0738 -0.38625,0.1125 -0.58,0.1125 -0.5575,0 -1.0275,-0.1025 -1.4075,-0.3075 -0.3825,-0.205 -0.6925,-0.48 -0.93251,-0.82625 -0.23874,-0.345 -0.40999,-0.74125 -0.51125,-1.1925 -0.1025,-0.45 -0.15374,-0.91375 -0.15374,-1.395"
         style="fill:#ffffff;fill-opacity:1;fill-rule:nonzero;stroke:none"
         id="path542"
         inkscape:connector-curvature="0" />
      <path
         d="m -379.63535,554.94024 -0.905,-0.21 0,-0.73625 2.23625,0 0,7.21625 -1.33125,0 0,-6.27 z"
         style="fill:#ffffff;fill-opacity:1;fill-rule:nonzero;stroke:none"
         id="path546"
         inkscape:connector-curvature="0" />
      <path
         d="m -490.47635,574.37498 c 0,0.70001 -0.13,1.30125 -0.38875,1.80125 -0.25875,0.5025 -0.6175,0.91375 -1.075,1.235 -0.4575,0.32125 -0.99375,0.56 -1.60375,0.7175 -0.61,0.1575 -1.275,0.235 -1.9925,0.235 -0.26625,0 -0.57125,-0.0138 -0.91625,-0.0425 -0.34625,-0.0288 -0.70125,-0.0787 -1.06625,-0.14875 -0.365,-0.0712 -0.73375,-0.1675 -1.105,-0.28875 -0.37125,-0.1225 -0.70375,-0.27125 -0.995,-0.44625 0.025,-0.0587 0.0713,-0.17 0.13875,-0.3325 0.0662,-0.16375 0.13875,-0.34125 0.21875,-0.53375 0.08,-0.1925 0.15625,-0.37 0.22875,-0.53375 0.0738,-0.16375 0.1225,-0.275 0.14875,-0.33375 0.47875,0.16375 0.97,0.31125 1.475,0.43875 0.50375,0.12875 0.98875,0.19125 1.45375,0.19125 0.28,0 0.565,-0.0225 0.8575,-0.0688 0.29125,-0.0463 0.55125,-0.135 0.7775,-0.2625 0.225,-0.12875 0.41125,-0.3 0.5575,-0.51625 0.145,-0.21625 0.21875,-0.49375 0.21875,-0.83125 0,-0.24625 -0.0562,-0.4725 -0.17,-0.6825 -0.1125,-0.21 -0.30875,-0.395 -0.5875,-0.5525 -0.2775,-0.1575 -0.6575,-0.2875 -1.135,-0.3925 -0.47875,-0.105 -1.0825,-0.18125 -1.8125,-0.2275 l 0,-1.7325 c 0.13125,-0.11625 0.33125,-0.2825 0.5975,-0.49875 0.265,-0.21625 0.54,-0.4425 0.8275,-0.6825 0.28375,-0.23875 0.56,-0.4675 0.82625,-0.68375 0.265,-0.215 0.465,-0.375 0.59625,-0.48 l -4.60125,0 0,-1.9425 8.02875,0 0,1.9425 c -0.1325,0.11625 -0.33875,0.28625 -0.6175,0.5075 -0.27875,0.2225 -0.57125,0.45125 -0.8775,0.69125 -0.305,0.23875 -0.59625,0.46875 -0.87625,0.69125 -0.27875,0.22125 -0.485,0.385 -0.6175,0.49 0.5575,0.0463 1.05375,0.16625 1.48375,0.35875 0.4325,0.1925 0.7975,0.4375 1.09625,0.735 0.3,0.2975 0.525,0.6325 0.6775,1.00625 0.1525,0.3725 0.22875,0.76375 0.22875,1.1725"
         style="fill:#e1e4ca;fill-opacity:1;fill-rule:nonzero;stroke:none"
         id="path550"
         inkscape:connector-curvature="0" />
      <path
         d="m -484.16773,568.33748 c -0.425,0 -0.76,0.105 -1.00625,0.315 -0.245,0.21 -0.4375,0.4975 -0.5775,0.86625 -0.13875,0.3675 -0.22875,0.79625 -0.2675,1.28625 -0.0412,0.49 -0.06,1.015 -0.06,1.57375 0,0.60876 0.0213,1.1625 0.0688,1.6625 0.0462,0.5025 0.14,0.9325 0.27875,1.2875 0.13875,0.35625 0.3325,0.63375 0.57875,0.83125 0.245,0.19875 0.57375,0.2975 0.985,0.2975 0.38625,0 0.70125,-0.1025 0.9475,-0.30625 0.245,-0.20375 0.4375,-0.4875 0.5775,-0.84875 0.13875,-0.3625 0.23125,-0.79124 0.2775,-1.28625 0.0462,-0.49625 0.07,-1.04125 0.07,-1.6375 0,-0.535 -0.02,-1.04875 -0.06,-1.53875 -0.0387,-0.49125 -0.125,-0.91875 -0.25875,-1.28625 -0.1325,-0.3675 -0.3225,-0.66249 -0.5675,-0.88375 -0.245,-0.22125 -0.575,-0.3325 -0.98625,-0.3325 m 0,9.9925 c -0.92875,0 -1.7025,-0.155 -2.32,-0.465 -0.61875,-0.30875 -1.11,-0.73625 -1.475,-1.27875 -0.365,-0.54375 -0.62375,-1.175 -0.77625,-1.8925 -0.1525,-0.71875 -0.23,-1.4925 -0.23,-2.3225 0,-0.77125 0.08,-1.51 0.24,-2.2175 0.16,-0.70625 0.42375,-1.32875 0.79625,-1.86625 0.37125,-0.5375 0.8675,-0.96625 1.485,-1.2875 0.6175,-0.32125 1.37625,-0.4825 2.28,-0.4825 0.89,0 1.64125,0.1575 2.2525,0.47375 0.61,0.315 1.10125,0.73875 1.4725,1.27 0.3725,0.53125 0.6375,1.15375 0.7975,1.8675 0.16,0.71125 0.24,1.46 0.24,2.2425 0,0.8175 -0.0737,1.58875 -0.22,2.3125 -0.14625,0.725 -0.39875,1.35625 -0.7575,1.89375 -0.35875,0.53625 -0.845,0.96375 -1.46375,1.27875 -0.6175,0.315 -1.39125,0.47375 -2.32125,0.47375"
         style="fill:#e1e4ca;fill-opacity:1;fill-rule:nonzero;stroke:none"
         id="path554"
         inkscape:connector-curvature="0" />
      <path
         d="m -469.24585,573.78786 c 0,0.84375 0.1,1.4925 0.3,1.95 0.20125,0.45625 0.53625,0.68375 1.005,0.68375 0.18625,0 0.39,-0.05 0.61125,-0.14875 0.22125,-0.1 0.42625,-0.21375 0.6125,-0.3425 l 0,-4.26625 c -0.2,-0.1175 -0.42,-0.21625 -0.6625,-0.29875 -0.24,-0.0825 -0.46125,-0.1225 -0.6625,-0.1225 -0.24,0 -0.44125,0.0725 -0.6025,0.21875 -0.16,0.14625 -0.28375,0.33875 -0.37,0.58 -0.0888,0.24 -0.14875,0.5125 -0.18125,0.81625 -0.0337,0.305 -0.05,0.615 -0.05,0.93 m -3.02875,0.0787 c 0,-0.50125 0.0463,-1.0175 0.13875,-1.54875 0.0937,-0.53 0.2625,-1.0075 0.50875,-1.43375 0.24625,-0.42625 0.57875,-0.77625 0.99625,-1.05 0.41875,-0.275 0.95875,-0.41125 1.6225,-0.41125 0.28,0 0.6225,0.0775 1.0275,0.235 0.405,0.1575 0.82,0.40625 1.245,0.74375 0.0138,0 0.0188,-0.003 0.0188,-0.009 0,-0.005 0.0125,-0.009 0.0213,-0.009 l 0.4175,-0.75125 2.47125,0 0,8.4525 -2.43125,0 -0.41875,-0.8925 -0.6775,0.42 c -0.0925,0.0575 -0.20875,0.125 -0.3475,0.20125 -0.13875,0.075 -0.28625,0.14875 -0.43875,0.21875 -0.15375,0.0687 -0.3125,0.1275 -0.4775,0.17375 -0.16625,0.0463 -0.31625,0.0713 -0.44875,0.0713 -0.625,0 -1.1425,-0.135 -1.55375,-0.4025 -0.4125,-0.26875 -0.745,-0.61375 -0.99625,-1.03375 -0.2525,-0.42 -0.42875,-0.8925 -0.52875,-1.41625 -0.0987,-0.525 -0.14875,-1.04375 -0.14875,-1.55875"
         style="fill:#e1e4ca;fill-opacity:1;fill-rule:nonzero;stroke:none"
         id="path558"
         inkscape:connector-curvature="0" />
      <path
         d="m -456.6861,571.61011 -2.25125,0 0,6.475 -2.92875,0 0,-8.435 8.07,0 0,8.435 -2.89,0 0,-6.475 z"
         style="fill:#e1e4ca;fill-opacity:1;fill-rule:nonzero;stroke:none"
         id="path562"
         inkscape:connector-curvature="0" />
      <path
         d="m -449.09335,573.78786 c 0,0.84375 0.1,1.4925 0.3,1.95 0.20125,0.45625 0.53625,0.68375 1.005,0.68375 0.18625,0 0.39,-0.05 0.61125,-0.14875 0.22125,-0.1 0.42625,-0.21375 0.6125,-0.3425 l 0,-4.26625 c -0.2,-0.1175 -0.42,-0.21625 -0.6625,-0.29875 -0.24,-0.0825 -0.46125,-0.1225 -0.6625,-0.1225 -0.24,0 -0.44125,0.0725 -0.6025,0.21875 -0.16,0.14625 -0.28375,0.33875 -0.37,0.58 -0.0888,0.24 -0.14875,0.5125 -0.18125,0.81625 -0.0337,0.305 -0.05,0.615 -0.05,0.93 m -3.02875,0.0787 c 0,-0.50125 0.0462,-1.0175 0.13875,-1.54875 0.0937,-0.53 0.2625,-1.0075 0.50875,-1.43375 0.24625,-0.42625 0.57875,-0.77625 0.99625,-1.05 0.41875,-0.275 0.95875,-0.41125 1.6225,-0.41125 0.28,0 0.6225,0.0775 1.0275,0.235 0.405,0.1575 0.82,0.40625 1.245,0.74375 0.0138,0 0.0188,-0.003 0.0188,-0.009 0,-0.005 0.0125,-0.009 0.0213,-0.009 l 0.4175,-0.75125 2.47125,0 0,8.4525 -2.43125,0 -0.41875,-0.8925 -0.6775,0.42 c -0.0925,0.0575 -0.20875,0.125 -0.3475,0.20125 -0.13875,0.075 -0.28625,0.14875 -0.43875,0.21875 -0.15375,0.0687 -0.3125,0.1275 -0.4775,0.17375 -0.16625,0.0463 -0.31625,0.0713 -0.44875,0.0713 -0.625,0 -1.1425,-0.135 -1.55375,-0.4025 -0.4125,-0.26875 -0.745,-0.61375 -0.99625,-1.03375 -0.2525,-0.42 -0.42875,-0.8925 -0.52875,-1.41625 -0.0987,-0.5245 -0.14875,-1.04325 -0.14875,-1.55825"
         style="fill:#e1e4ca;fill-opacity:1;fill-rule:nonzero;stroke:none"
         id="path566"
         inkscape:connector-curvature="0" />
      <path
         d="m -437.51985,575.88011 0.6175,-2.25875 1.195,-3.97125 2.88875,0 -3.16625,8.435 -3.24875,0 -3.40625,-8.435 2.92875,0 1.39375,3.955 0.7375,2.275 0.06,0 z"
         style="fill:#e1e4ca;fill-opacity:1;fill-rule:nonzero;stroke:none"
         id="path570"
         inkscape:connector-curvature="0" />
      <path
         d="m -426.8826,578.33011 c -0.71625,0 -1.2875,-0.0875 -1.7125,-0.2625 -0.42625,-0.17625 -0.75125,-0.4025 -0.97625,-0.6825 -0.22625,-0.28 -0.3725,-0.5975 -0.43875,-0.955 -0.0675,-0.355 -0.1,-0.72 -0.1,-1.09375 l 0,-4.0075 -1.91125,0 0,-1.6625 7.33,0 0,1.6625 -2.51,0 0,3.81625 c 0,0.5125 0.1125,0.85125 0.33875,1.015 0.225,0.16375 0.5375,0.245 0.93625,0.245 0.14625,0 0.3625,-0.0125 0.6475,-0.035 0.28625,-0.0237 0.54125,-0.0525 0.76625,-0.0887 0.0538,0.26875 0.10375,0.54125 0.15125,0.815 0.0463,0.27375 0.1025,0.545 0.1675,0.81375 -0.2125,0.0812 -0.4475,0.1475 -0.70625,0.20125 -0.25875,0.0525 -0.51125,0.095 -0.7575,0.13125 -0.24625,0.035 -0.4775,0.0588 -0.69625,0.0687 -0.22,0.0125 -0.39625,0.0188 -0.52875,0.0188"
         style="fill:#e1e4ca;fill-opacity:1;fill-rule:nonzero;stroke:none"
         id="path574"
         inkscape:connector-curvature="0" />
      <path
         d="m -420.74985,568.21411 1.63375,-3.36 2.25125,0.87625 -2.43,3.0625 -1.455,-0.57875 z m 2.89,9.87 0,-5.46 c 0,-0.105 -0.0125,-0.22875 -0.0213,-0.375 -0.0138,-0.14625 -0.0487,-0.28625 -0.10875,-0.42 -0.06,-0.135 -0.15375,-0.2525 -0.28,-0.35125 -0.125,-0.0988 -0.30875,-0.14875 -0.5475,-0.14875 -0.22625,0 -0.465,0.0563 -0.71625,0.16625 -0.2525,0.11125 -0.4725,0.22 -0.65875,0.325 l 0,6.26375 -2.90875,0 0,-8.4175 2.41125,0 0.45875,0.875 1.095,-0.63 c 0.2125,-0.1275 0.43875,-0.235 0.6775,-0.3225 0.23875,-0.0888 0.45125,-0.1325 0.6375,-0.1325 0.65,0 1.165,0.105 1.54375,0.315 0.37875,0.21 0.66375,0.47 0.8575,0.77875 0.19125,0.31 0.315,0.64 0.36875,0.98875 0.0525,0.35 0.0788,0.66 0.0788,0.9275 l 0,5.6175 -2.8875,0 z"
         style="fill:#e1e4ca;fill-opacity:1;fill-rule:nonzero;stroke:none"
         id="path578"
         inkscape:connector-curvature="0" />
      <path
         d="m -409.09335,571.40023 c -0.2775,0 -0.50375,0.0588 -0.6825,0.175 -0.1775,0.11625 -0.3125,0.27875 -0.405,0.48875 -0.0913,0.21 -0.155,0.4675 -0.18875,0.77 -0.0325,0.30501 -0.0487,0.6425 -0.0487,1.01625 0,0.89875 0.0862,1.56625 0.2575,2.00375 0.17125,0.4375 0.52625,0.65625 1.0675,0.65625 0.51375,0 0.8575,-0.21375 1.0275,-0.64 0.17125,-0.425 0.2575,-1.0875 0.2575,-1.98625 0,-0.735 -0.0863,-1.295 -0.2575,-1.67875 -0.17,-0.385 -0.51375,-0.65375 -1.0275,-0.805 m 3.37625,0 c 0.16,0.13875 0.29875,0.30875 0.41875,0.50625 0.12,0.19875 0.21625,0.41125 0.29,0.64 0.0712,0.2275 0.12875,0.46 0.16875,0.7 0.04,0.23875 0.0587,0.47 0.0587,0.69 0,0.56125 -0.0687,1.10375 -0.20875,1.62875 -0.13875,0.525 -0.37875,0.995 -0.71625,1.40875 -0.34,0.41375 -0.79125,0.74375 -1.355,0.98875 -0.565,0.24375 -1.2725,0.3675 -2.12125,0.3675 -0.81125,0 -1.48875,-0.1175 -2.0325,-0.35 -0.545,-0.23375 -0.9825,-0.54875 -1.315,-0.945 -0.3325,-0.3975 -0.5675,-0.85875 -0.70625,-1.38375 -0.14125,-0.525 -0.21,-1.0725 -0.21,-1.64375 0,-0.5375 0.0687,-1.065 0.21,-1.585 0.13875,-0.51875 0.37,-0.9825 0.69625,-1.39 0.325,-0.40875 0.76375,-0.74125 1.315,-0.99875 0.55,-0.25625 1.245,-0.38375 2.08125,-0.38375 l 5.06125,0 0,1.67875 -1.575,0 -0.06,0.0712 z"
         style="fill:#e1e4ca;fill-opacity:1;fill-rule:nonzero;stroke:none"
         id="path582"
         inkscape:connector-curvature="0" />
      <path
         d="m -401.38822,573.67436 -1.13625,-0.55875 c -0.145,-0.0713 -0.25125,-0.2075 -0.31876,-0.41125 -0.0663,-0.20375 -0.0987,-0.3775 -0.0987,-0.51625 0,-0.4325 0.0925,-0.82125 0.27749,-1.165 0.18625,-0.34375 0.44875,-0.635 0.78751,-0.87375 0.33874,-0.24 0.74375,-0.42375 1.21499,-0.5525 0.47125,-0.1275 0.98625,-0.1925 1.54375,-0.1925 0.425,0 0.9275,0.0413 1.505,0.12375 0.5775,0.0812 1.17125,0.23875 1.7825,0.4725 l -0.5175,1.69625 c -0.4125,-0.12875 -0.79125,-0.215 -1.13625,-0.2625 -0.345,-0.0463 -0.6375,-0.07 -0.87625,-0.07 -0.15875,0 -0.325,0.0125 -0.49875,0.0362 -0.17125,0.0225 -0.32375,0.06 -0.4575,0.1125 -0.1325,0.0525 -0.2425,0.13125 -0.3275,0.23625 -0.0875,0.105 -0.13,0.23375 -0.13,0.38625 0,0.22 0.12,0.40125 0.3575,0.54125 0.24,0.14 0.53125,0.21 0.87625,0.21 l 1.11625,0 0,1.61 -0.87625,0 c -0.5975,0 -1.02,0.0937 -1.265,0.28 -0.245,0.18625 -0.36875,0.415 -0.36875,0.68375 0,0.29125 0.13,0.51875 0.38875,0.6825 0.25875,0.1625 0.5875,0.24375 0.98625,0.24375 0.345,0 0.7375,-0.0312 1.175,-0.095 0.43875,-0.065 0.85,-0.1675 1.235,-0.30625 l 0.55875,1.6625 c -0.425,0.22 -0.96,0.39 -1.605,0.50625 -0.64375,0.1175 -1.2775,0.17625 -1.90125,0.17625 -0.54625,0 -1.05625,-0.0475 -1.535,-0.14125 -0.4775,-0.0937 -0.89625,-0.24125 -1.25375,-0.44625 -0.36,-0.20375 -0.645,-0.46625 -0.8575,-0.7875 -0.2125,-0.32 -0.31875,-0.7075 -0.31875,-1.16375 0,-0.14 0.02,-0.30625 0.06,-0.49875 0.0387,-0.19125 0.12,-0.385 0.23875,-0.5775 0.12,-0.19125 0.28875,-0.37625 0.50875,-0.55 0.2175,-0.17625 0.5075,-0.32125 0.86625,-0.43875 l 0,-0.0525 z"
         style="fill:#e1e4ca;fill-opacity:1;fill-rule:nonzero;stroke:none"
         id="path586"
         inkscape:connector-curvature="0" />
      <path
         d="m -393.47922,571.27686 -1.07626,-0.2275 0,-1.41625 4.005,0 0,8.45125 -2.92875,0 0,-6.8075 z"
         style="fill:#e1e4ca;fill-opacity:1;fill-rule:nonzero;stroke:none"
         id="path590"
         inkscape:connector-curvature="0" />
      <path
         d="m -384.32522,575.66774 c 0,-0.31625 -0.11,-0.53875 -0.32875,-0.66626 -0.21875,-0.12875 -0.52125,-0.23499 -0.90625,-0.31625 -0.53125,-0.0925 -0.99625,-0.20124 -1.395,-0.32499 -0.39875,-0.1225 -0.73375,-0.28 -1.005,-0.47375 -0.27375,-0.1925 -0.47875,-0.43375 -0.6175,-0.72751 -0.14125,-0.29249 -0.21,-0.64875 -0.21,-1.07 0,-0.49124 0.11,-0.90625 0.32875,-1.24499 0.21875,-0.34 0.50875,-0.615 0.86625,-0.82625 0.35875,-0.21 0.76375,-0.3625 1.215,-0.455 0.4525,-0.0937 0.91,-0.14 1.375,-0.14 0.53125,0 1.07875,0.0487 1.6425,0.14875 0.56625,0.0988 1.07375,0.2475 1.525,0.445 l -0.5175,1.61125 c -0.385,-0.105 -0.80625,-0.185 -1.26625,-0.2375 -0.4575,-0.0525 -0.83375,-0.0775 -1.125,-0.0775 -0.78375,0 -1.175,0.23875 -1.175,0.7175 0,0.2325 0.1,0.39 0.29875,0.4725 0.19875,0.0812 0.465,0.1575 0.7975,0.22625 0.4775,0.095 0.92625,0.2 1.345,0.315 0.4175,0.1175 0.7825,0.2775 1.095,0.48125 0.3125,0.205 0.5575,0.46999 0.73749,0.79749 0.17876,0.32625 0.2675,0.74625 0.2675,1.26 0,0.51375 -0.11874,0.9425 -0.3575,1.28625 -0.23875,0.34375 -0.5575,0.6275 -0.95625,0.84875 -0.39875,0.22125 -0.85375,0.3775 -1.365,0.4725 -0.51125,0.0925 -1.03875,0.14 -1.58375,0.14 -0.23875,0 -0.4975,-0.0125 -0.7775,-0.035 -0.2775,-0.0238 -0.56375,-0.06 -0.855,-0.1125 -0.29375,-0.0525 -0.575,-0.11625 -0.8475,-0.19125 -0.2725,-0.075 -0.52875,-0.16375 -0.76625,-0.2675 l 0.53625,-1.6525 c 0.19875,0.0588 0.4225,0.115 0.6675,0.1675 0.24625,0.0525 0.495,0.0987 0.7475,0.13875 0.2525,0.0425 0.49125,0.0738 0.7175,0.0975 0.225,0.0225 0.4175,0.035 0.5775,0.035 0.41125,0 0.73375,-0.0612 0.96625,-0.185 0.2325,-0.1225 0.34875,-0.34125 0.34875,-0.6575"
         style="fill:#e1e4ca;fill-opacity:1;fill-rule:nonzero;stroke:none"
         id="path594"
         inkscape:connector-curvature="0" />
      <path
         d="m -370.41897,570.78736 c -0.43876,0 -0.805,0.0837 -1.09625,0.25375 -0.2925,0.16875 -0.52875,0.39375 -0.70625,0.67375 -0.18,0.28 -0.3075,0.6075 -0.38,0.98 -0.0725,0.3725 -0.10876,0.77 -0.10876,1.19 0,0.49 0.0363,0.93625 0.10876,1.33875 0.0725,0.4025 0.2,0.7525 0.38,1.05 0.1775,0.2975 0.41375,0.52875 0.70625,0.69 0.29125,0.16375 0.66375,0.24625 1.11625,0.24625 0.4375,0 0.79875,-0.0787 1.085,-0.23625 0.285,-0.1575 0.51875,-0.38125 0.6975,-0.67375 0.17875,-0.29125 0.30625,-0.63625 0.37875,-1.0325 0.0725,-0.39625 0.10875,-0.84 0.10875,-1.33 0,-0.3725 -0.0362,-0.72875 -0.10875,-1.0675 -0.0725,-0.3375 -0.2,-0.64875 -0.37875,-0.9275 -0.17875,-0.28 -0.41626,-0.51875 -0.70751,-0.7175 -0.29124,-0.19875 -0.65625,-0.345 -1.09499,-0.4375 m 2.72875,0.035 c 0.45125,0.35 0.77,0.805 0.95625,1.365 0.18625,0.56 0.27875,1.14875 0.27875,1.7675 0,0.595 -0.0762,1.1575 -0.22875,1.68875 -0.15375,0.53125 -0.395,0.995 -0.7275,1.39125 -0.33126,0.39625 -0.75376,0.71125 -1.26375,0.945 -0.51251,0.2325 -1.13375,0.35 -1.86375,0.35 -0.6775,0 -1.25875,-0.11125 -1.74251,-0.3325 -0.48624,-0.22125 -0.88375,-0.525 -1.19625,-0.91 -0.31125,-0.38625 -0.54124,-0.8375 -0.6875,-1.35625 -0.14499,-0.51875 -0.21875,-1.0825 -0.21875,-1.68875 0,-0.5825 0.0763,-1.14125 0.23001,-1.67125 0.15125,-0.53 0.38999,-0.99375 0.71625,-1.39125 0.32625,-0.39625 0.74375,-0.71125 1.255,-0.94625 0.51125,-0.2325 1.125,-0.34875 1.84249,-0.34875 l 4.4825,0 0,1.1025 -1.7925,0 -0.04,0.035 z"
         style="fill:#ffffff;fill-opacity:1;fill-rule:nonzero;stroke:none"
         id="path598"
         inkscape:connector-curvature="0" />
      <path
         d="m -360.68872,578.33011 c -0.465,0 -0.845,-0.05 -1.14,-0.14875 -0.29375,-0.0987 -0.525,-0.2475 -0.68875,-0.4475 -0.16375,-0.1975 -0.275,-0.43875 -0.33375,-0.72625 -0.0588,-0.285 -0.0888,-0.62125 -0.0888,-1.005 l 0,-5.215 -1.9925,0 0,-1.1025 6.15625,0 0,1.1025 -2.61,0 0,4.94875 c 0,0.52625 0.0838,0.895 0.25,1.105 0.165,0.21125 0.44,0.31625 0.82625,0.31625 0.23875,0 0.515,-0.015 0.82625,-0.045 0.3125,-0.0275 0.58875,-0.0713 0.8275,-0.13 l 0.21875,0.95125 c -0.24,0.10375 -0.4775,0.18 -0.71625,0.2325 -0.24,0.0512 -0.46,0.0888 -0.65875,0.11125 -0.19876,0.0238 -0.375,0.0375 -0.5275,0.0438 -0.15375,0.005 -0.2625,0.009 -0.32875,0.009 l -0.02,0 z"
         style="fill:#ffffff;fill-opacity:1;fill-rule:nonzero;stroke:none"
         id="path602"
         inkscape:connector-curvature="0" />
      <path
         d="m -353.7796,570.56036 c -0.45125,0 -0.82,0.0837 -1.10625,0.2525 -0.285,0.17 -0.51125,0.4 -0.6775,0.6925 -0.16625,0.29125 -0.28125,0.6325 -0.34875,1.0225 -0.0662,0.3925 -0.0987,0.80375 -0.0987,1.235 0,0.50125 0.0325,0.96125 0.0987,1.3825 0.0675,0.42 0.1825,0.78375 0.34875,1.09375 0.16625,0.30875 0.3925,0.5475 0.6775,0.71625 0.28625,0.17 0.655,0.25375 1.10625,0.25375 0.43875,0 0.8,-0.0812 1.085,-0.245 0.28625,-0.1625 0.51125,-0.3925 0.6775,-0.69125 0.16625,-0.29625 0.28625,-0.655 0.35875,-1.075 0.0725,-0.42125 0.10875,-0.88125 0.10875,-1.3825 0,-0.43125 -0.0325,-0.8425 -0.0987,-1.235 -0.0675,-0.39 -0.18625,-0.735 -0.35875,-1.03125 -0.1725,-0.2975 -0.40125,-0.5375 -0.6875,-0.7175 -0.285,-0.18125 -0.64625,-0.27125 -1.085,-0.27125 m -0.08,7.77 c -0.69125,0 -1.27875,-0.11375 -1.76375,-0.3425 -0.48375,-0.22625 -0.88,-0.53875 -1.185,-0.93625 -0.305,-0.39625 -0.52875,-0.8625 -0.6675,-1.4 -0.13875,-0.535 -0.20875,-1.1125 -0.20875,-1.73125 0,-0.58375 0.0662,-1.14625 0.19875,-1.68875 0.13375,-0.54375 0.355,-1.02125 0.6675,-1.43625 0.31125,-0.41375 0.7175,-0.7425 1.215,-0.98875 0.4975,-0.245 1.10625,-0.36625 1.82375,-0.36625 0.70375,0 1.305,0.1125 1.8025,0.34125 0.49875,0.2275 0.9025,0.54 1.215,0.93625 0.3125,0.39625 0.53875,0.8625 0.6775,1.39875 0.13875,0.5375 0.20875,1.11 0.20875,1.715 0,0.6075 -0.07,1.1825 -0.20875,1.72375 -0.13875,0.54375 -0.36875,1.02125 -0.6875,1.43625 -0.31875,0.41375 -0.73125,0.74 -1.235,0.98 -0.505,0.23875 -1.12125,0.35875 -1.8525,0.35875"
         style="fill:#ffffff;fill-opacity:1;fill-rule:nonzero;stroke:none"
         id="path606"
         inkscape:connector-curvature="0" />
      <path
         d="m -494.56573,590.83498 -0.63125,2.1 -0.6325,2.025 -2.35625,0 c -0.0563,-0.2 -0.14,-0.49 -0.2475,-0.87 -0.10875,-0.38 -0.2275,-0.805 -0.35875,-1.275 -0.13,-0.47 -0.27125,-0.96125 -0.41875,-1.47 -0.1475,-0.51 -0.29,-1 -0.42625,-1.47125 -0.13625,-0.47 -0.26,-0.89375 -0.3675,-1.27375 -0.10875,-0.38 -0.19125,-0.67 -0.2475,-0.87 l 2.37375,0 0.495,2.07 0.58125,2.47375 0.0688,0 0.71625,-2.505 0.5975,-2.03875 1.81125,0 0.69875,2.19 0.68375,2.28 0.085,0 0.495,-2.295 0.495,-2.175 2.4075,0 c -0.0563,0.2 -0.14125,0.49 -0.25625,0.87 -0.11375,0.38 -0.235,0.80375 -0.36625,1.27375 -0.13125,0.47125 -0.27375,0.96125 -0.4275,1.47125 -0.15375,0.50875 -0.29625,1 -0.42625,1.47 -0.13125,0.47 -0.25375,0.895 -0.36625,1.275 -0.115,0.38 -0.20125,0.67 -0.25625,0.87 l -2.3575,0 -0.5975,-1.89 -0.68375,-2.235 -0.085,0 z"
         style="fill:#231f20;fill-opacity:1;fill-rule:nonzero;stroke:none"
         id="path610"
         inkscape:connector-curvature="0" />
      <path
         d="m -482.40623,590.83498 -0.63125,2.1 -0.6325,2.025 -2.35625,0 c -0.0562,-0.2 -0.14,-0.49 -0.2475,-0.87 -0.10875,-0.38 -0.2275,-0.805 -0.35875,-1.275 -0.13,-0.47 -0.27125,-0.96125 -0.41875,-1.47 -0.1475,-0.51 -0.29,-1 -0.42625,-1.47125 -0.13625,-0.47 -0.26,-0.89375 -0.3675,-1.27375 -0.10875,-0.38 -0.19125,-0.67 -0.2475,-0.87 l 2.37375,0 0.495,2.07 0.58125,2.47375 0.0687,0 0.71625,-2.505 0.5975,-2.03875 1.81125,0 0.69875,2.19 0.68375,2.28 0.085,0 0.495,-2.295 0.495,-2.175 2.4075,0 c -0.0562,0.2 -0.14125,0.49 -0.25625,0.87 -0.11375,0.38 -0.235,0.80375 -0.36625,1.27375 -0.13125,0.47125 -0.27375,0.96125 -0.4275,1.47125 -0.15375,0.50875 -0.29625,1 -0.42625,1.47 -0.13125,0.47 -0.25375,0.895 -0.36625,1.275 -0.115,0.38 -0.20125,0.67 -0.25625,0.87 l -2.3575,0 -0.5975,-1.89 -0.68375,-2.235 -0.085,0 z"
         style="fill:#231f20;fill-opacity:1;fill-rule:nonzero;stroke:none"
         id="path614"
         inkscape:connector-curvature="0" />
      <path
         d="m -470.24685,590.83498 -0.63125,2.1 -0.6325,2.025 -2.35625,0 c -0.0562,-0.2 -0.14,-0.49 -0.2475,-0.87 -0.10875,-0.38 -0.2275,-0.805 -0.35875,-1.275 -0.13,-0.47 -0.27125,-0.96125 -0.41875,-1.47 -0.1475,-0.51 -0.29,-1 -0.42625,-1.47125 -0.13625,-0.47 -0.26,-0.89375 -0.3675,-1.27375 -0.10875,-0.38 -0.19125,-0.67 -0.2475,-0.87 l 2.37375,0 0.495,2.07 0.58125,2.47375 0.0687,0 0.71625,-2.505 0.5975,-2.03875 1.81125,0 0.69875,2.19 0.68375,2.28 0.085,0 0.495,-2.295 0.495,-2.175 2.4075,0 c -0.0562,0.2 -0.14125,0.49 -0.25625,0.87 -0.11375,0.38 -0.235,0.80375 -0.36625,1.27375 -0.13125,0.47125 -0.27375,0.96125 -0.4275,1.47125 -0.15375,0.50875 -0.29625,1 -0.42625,1.47 -0.13125,0.47 -0.25375,0.895 -0.36625,1.275 -0.115,0.38 -0.20125,0.67 -0.25625,0.87 l -2.3575,0 -0.5975,-1.89 -0.68375,-2.235 -0.085,0 z"
         style="fill:#231f20;fill-opacity:1;fill-rule:nonzero;stroke:none"
         id="path618"
         inkscape:connector-curvature="0" />
      <path
         d="m -462.34285,595.07936 c -0.42125,0 -0.77625,-0.125 -1.0675,-0.375 -0.29,-0.25 -0.435,-0.56 -0.435,-0.93 0,-0.36 0.145,-0.6675 0.435,-0.92125 0.29125,-0.255 0.64625,-0.38375 1.0675,-0.38375 0.205,0 0.395,0.035 0.5725,0.105 0.17625,0.0713 0.33,0.1625 0.46125,0.27875 0.13125,0.115 0.23375,0.2525 0.30625,0.41125 0.075,0.16125 0.11125,0.33 0.11125,0.51 0,0.18125 -0.0362,0.3475 -0.11125,0.5025 -0.0725,0.155 -0.175,0.29375 -0.30625,0.4125 -0.13125,0.12 -0.285,0.215 -0.46125,0.285 -0.1775,0.0712 -0.3675,0.105 -0.5725,0.105"
         style="fill:#231f20;fill-opacity:1;fill-rule:nonzero;stroke:none"
         id="path622"
         inkscape:connector-curvature="0" />
      <path
         d="m -451.43335,587.74423 c -0.49,0.56 -0.97,1.11625 -1.4425,1.665 -0.4725,0.55 -0.95375,1.10625 -1.44375,1.665 0.49,0.66 0.98375,1.31125 1.4775,1.95125 0.49625,0.63875 0.9875,1.285 1.4775,1.93375 l -2.835,0 -2.39,-3.55375 -0.0337,0 0,3.55375 -2.4775,0 0,-10.63375 2.4775,0 0,6.495 0.0337,0 2.39,-3.07625 2.76625,0 z"
         style="fill:#231f20;fill-opacity:1;fill-rule:nonzero;stroke:none"
         id="path626"
         inkscape:connector-curvature="0" />
      <path
         d="m -447.40385,589.06498 c -0.23625,0 -0.43,0.0525 -0.57625,0.1575 -0.14625,0.105 -0.26,0.2525 -0.33875,0.44125 -0.0788,0.19125 -0.1325,0.42 -0.16,0.69125 -0.03,0.27 -0.0437,0.56375 -0.0437,0.885 0,0.76875 0.0713,1.3575 0.21125,1.76125 0.1425,0.40625 0.445,0.60876 0.9075,0.60876 0.44125,0 0.73125,-0.19626 0.8725,-0.58501 0.1425,-0.39125 0.21125,-0.97499 0.21125,-1.755 0,-0.33 -0.0137,-0.63 -0.0412,-0.9 -0.0275,-0.27 -0.0825,-0.5025 -0.16125,-0.69875 -0.0788,-0.19375 -0.18875,-0.34375 -0.33125,-0.44875 -0.14125,-0.105 -0.32375,-0.1575 -0.55,-0.1575 m -0.0688,6.105 c -0.695,0 -1.2775,-0.105 -1.745,-0.315 -0.46875,-0.21 -0.8425,-0.4875 -1.1225,-0.8325 -0.27875,-0.34625 -0.4775,-0.745 -0.5975,-1.2 -0.12,-0.45499 -0.18,-0.9325 -0.18,-1.43374 0,-0.45876 0.0562,-0.91876 0.17125,-1.37876 0.11375,-0.45999 0.31375,-0.87249 0.59875,-1.2375 0.285,-0.36499 0.6675,-0.66 1.14625,-0.885 0.47875,-0.225 1.07875,-0.3375 1.7975,-0.3375 0.7075,0 1.2975,0.105 1.77125,0.31501 0.47375,0.20999 0.85125,0.48999 1.13,0.84 0.28,0.34999 0.47875,0.75125 0.59875,1.2075 0.12,0.455 0.18,0.9275 0.18,1.4175 0,0.48 -0.0575,0.95 -0.17125,1.40875 -0.11375,0.46125 -0.31375,0.87125 -0.59875,1.23125 -0.285,0.36 -0.67,0.65 -1.15625,0.87 -0.48375,0.22 -1.0925,0.33 -1.8225,0.33"
         style="fill:#231f20;fill-opacity:1;fill-rule:nonzero;stroke:none"
         id="path630"
         inkscape:connector-curvature="0" />
      <path
         d="m -439.91123,592.58911 c 0,0.27125 0.0475,0.4975 0.145,0.68375 0.0962,0.18375 0.32125,0.2775 0.67375,0.2775 0.195,0 0.4,-0.0487 0.615,-0.14375 0.21625,-0.095 0.405,-0.18625 0.565,-0.27625 l 0,-5.40125 2.4925,0 0,7.23 -2.08375,0 -0.375,-0.73375 -0.9575,0.525 c -0.18125,0.10875 -0.375,0.205 -0.58,0.28375 -0.205,0.0812 -0.3875,0.12125 -0.54625,0.12125 -0.5575,0 -0.99875,-0.0912 -1.32375,-0.27 -0.32375,-0.18125 -0.57,-0.4025 -0.735,-0.6675 -0.16375,-0.265 -0.26875,-0.54875 -0.315,-0.84875 -0.0462,-0.29875 -0.0675,-0.56375 -0.0675,-0.795 l 0,-4.845 2.4925,0 0,4.86 z"
         style="fill:#231f20;fill-opacity:1;fill-rule:nonzero;stroke:none"
         id="path634"
         inkscape:connector-curvature="0" />
      <path
         d="m -431.04648,593.26423 3.6025,0 0,1.695 -6.8125,0 0,-1.23 3.67,-4.23 -0.0175,-0.0738 -3.32875,0 0,-1.69625 6.48875,0 0,1.27625 -3.63625,4.18375 0.0337,0.075 z"
         style="fill:#231f20;fill-opacity:1;fill-rule:nonzero;stroke:none"
         id="path638"
         inkscape:connector-curvature="0" />
      <path
         d="m -424.36185,586.61986 c -0.3875,0 -0.71125,-0.115 -0.9725,-0.345 -0.2625,-0.23 -0.39375,-0.52 -0.39375,-0.87 0,-0.34 0.13125,-0.6325 0.39375,-0.8775 0.26125,-0.245 0.585,-0.3675 0.9725,-0.3675 0.3875,0 0.71125,0.125 0.97375,0.375 0.26125,0.25 0.3925,0.54 0.3925,0.87 0,0.33 -0.13125,0.615 -0.3925,0.855 -0.2625,0.24 -0.58625,0.36 -0.97375,0.36 m -1.16125,2.505 -0.92125,-0.195 0,-1.215 3.41375,0 0,7.245 -2.4925,0 0,-5.835 z"
         style="fill:#231f20;fill-opacity:1;fill-rule:nonzero;stroke:none"
         id="path642"
         inkscape:connector-curvature="0" />
      <path
         d="m -416.78248,594.95973 0,-4.68 c 0,-0.09 -0.0125,-0.1975 -0.0175,-0.3225 -0.0125,-0.125 -0.0425,-0.245 -0.0937,-0.36 -0.0512,-0.115 -0.13125,-0.215 -0.23875,-0.3 -0.10875,-0.085 -0.265,-0.1275 -0.47,-0.1275 -0.195,0 -0.39875,0.0475 -0.615,0.1425 -0.21625,0.0962 -0.405,0.1875 -0.56375,0.2775 l 0,5.37 -2.4925,0 0,-7.215 2.06625,0 0.3925,0.75 0.93875,-0.54 c 0.1825,-0.11 0.37625,-0.2025 0.58125,-0.2775 0.205,-0.075 0.38625,-0.1125 0.54625,-0.1125 0.5575,0 0.99875,0.09 1.32375,0.27 0.32375,0.18 0.56875,0.4025 0.73375,0.6675 0.165,0.265 0.27125,0.5475 0.31625,0.8475 0.045,0.3 0.0675,0.565 0.0675,0.795 l 0,4.815 -2.475,0 z"
         style="fill:#231f20;fill-opacity:1;fill-rule:nonzero;stroke:none"
         id="path646"
         inkscape:connector-curvature="0" />
      <path
         d="m -408.76985,591.68948 c -0.17125,0.01 -0.3675,0.03 -0.59,0.06 -0.22125,0.03 -0.43125,0.085 -0.63125,0.16625 -0.2,0.0787 -0.365,0.18875 -0.495,0.32875 -0.13125,0.14125 -0.19625,0.325 -0.19625,0.55625 0,0.24875 0.0513,0.44875 0.15375,0.59875 0.1025,0.15 0.29,0.225 0.56375,0.225 0.17,0 0.3725,-0.0463 0.605,-0.14125 0.23375,-0.0963 0.43,-0.19375 0.59,-0.29375 l 0,-1.5 z m 3.245,3.18 c -0.35375,0.08 -0.70375,0.1475 -1.05125,0.2025 -0.34625,0.055 -0.64625,0.0825 -0.89625,0.0825 -0.33125,0 -0.5775,-0.0475 -0.74375,-0.1425 -0.16375,-0.095 -0.275,-0.2575 -0.33125,-0.48625 l -0.0863,-0.30125 -0.88875,0.495 c -0.22625,0.12125 -0.4425,0.225 -0.6475,0.315 -0.205,0.09 -0.39375,0.13 -0.56375,0.12 -0.5475,0 -0.9775,-0.075 -1.29,-0.225 -0.31375,-0.14875 -0.55125,-0.3375 -0.7175,-0.56125 -0.165,-0.22625 -0.27,-0.46375 -0.315,-0.71375 -0.0463,-0.25 -0.0675,-0.475 -0.0675,-0.675 0,-0.48875 0.1275,-0.8925 0.3825,-1.2075 0.25625,-0.315 0.5925,-0.5675 1.00875,-0.7575 0.415,-0.18875 0.88125,-0.325 1.4,-0.405 0.5175,-0.08 1.0325,-0.13 1.545,-0.14875 l 0,-0.30125 c 0,-0.31875 -0.0937,-0.5575 -0.28125,-0.7125 -0.18875,-0.155 -0.49875,-0.23125 -0.93,-0.23125 -0.33125,0 -0.6775,0.0238 -1.0425,0.0738 -0.36375,0.05 -0.7125,0.115 -1.04125,0.195 l -0.39375,-1.36375 c 0.53625,-0.20125 1.0625,-0.34625 1.58,-0.43625 0.5175,-0.0887 0.95875,-0.135 1.3225,-0.135 1.0475,0 1.86,0.19 2.435,0.57125 0.575,0.37875 0.86125,1.03 0.86125,1.94875 l 0,3.405 0.7525,0 0,1.395 z"
         style="fill:#231f20;fill-opacity:1;fill-rule:nonzero;stroke:none"
         id="path650"
         inkscape:connector-curvature="0" />
      <path
         d="m -400.25785,591.68948 c -0.17125,0.01 -0.3675,0.03 -0.59,0.06 -0.22125,0.03 -0.43125,0.085 -0.63125,0.16625 -0.2,0.0787 -0.365,0.18875 -0.495,0.32875 -0.13125,0.14125 -0.19625,0.325 -0.19625,0.55625 0,0.24875 0.0512,0.44875 0.15375,0.59875 0.1025,0.15 0.29,0.225 0.56375,0.225 0.17,0 0.3725,-0.0463 0.605,-0.14125 0.23375,-0.0963 0.43,-0.19375 0.59,-0.29375 l 0,-1.5 z m 3.245,3.18 c -0.35375,0.08 -0.70375,0.1475 -1.05125,0.2025 -0.34625,0.055 -0.64625,0.0825 -0.89625,0.0825 -0.33125,0 -0.5775,-0.0475 -0.74375,-0.1425 -0.16375,-0.095 -0.275,-0.2575 -0.33125,-0.48625 l -0.0863,-0.30125 -0.88875,0.495 c -0.22625,0.12125 -0.4425,0.225 -0.6475,0.315 -0.205,0.09 -0.39375,0.13 -0.56375,0.12 -0.5475,0 -0.9775,-0.075 -1.29,-0.225 -0.31375,-0.14875 -0.55125,-0.3375 -0.7175,-0.56125 -0.165,-0.22625 -0.27,-0.46375 -0.315,-0.71375 -0.0463,-0.25 -0.0675,-0.475 -0.0675,-0.675 0,-0.48875 0.1275,-0.8925 0.3825,-1.2075 0.25625,-0.315 0.5925,-0.5675 1.00875,-0.7575 0.415,-0.18875 0.88125,-0.325 1.4,-0.405 0.5175,-0.08 1.0325,-0.13 1.545,-0.14875 l 0,-0.30125 c 0,-0.31875 -0.0937,-0.5575 -0.28125,-0.7125 -0.18875,-0.155 -0.49875,-0.23125 -0.93,-0.23125 -0.33125,0 -0.6775,0.0238 -1.0425,0.0738 -0.36375,0.05 -0.7125,0.115 -1.04125,0.195 l -0.39375,-1.36375 c 0.53625,-0.20125 1.0625,-0.34625 1.58,-0.43625 0.5175,-0.0887 0.95875,-0.135 1.3225,-0.135 1.0475,0 1.86,0.19 2.435,0.57125 0.575,0.37875 0.86125,1.03 0.86125,1.94875 l 0,3.405 0.7525,0 0,1.395 z"
         style="fill:#231f20;fill-opacity:1;fill-rule:nonzero;stroke:none"
         id="path654"
         inkscape:connector-curvature="0" />
      <path
         d="m -393.33285,593.23373 c 0.17125,0.10001 0.3525,0.18501 0.54625,0.25626 0.19375,0.07 0.375,0.10499 0.54625,0.10499 0.205,0 0.37625,-0.0625 0.5125,-0.18749 0.1375,-0.12626 0.2425,-0.29001 0.31625,-0.49 0.0737,-0.20001 0.125,-0.43375 0.1525,-0.7 0.03,-0.265 0.0425,-0.53376 0.0425,-0.805 0,-0.7125 -0.0787,-1.265 -0.2375,-1.65501 -0.16,-0.3925 -0.43375,-0.5875 -0.82,-0.5875 -0.16,0 -0.33625,0.0425 -0.53,0.12875 -0.1925,0.085 -0.37,0.1825 -0.52875,0.2925 l 0,3.6425 z m -0.0337,1.21626 0,3.51 -2.4925,0 0,-10.23001 2.09875,0 0.37625,0.78 0.785,-0.48 c 0.21625,-0.12 0.4275,-0.2275 0.6325,-0.3225 0.205,-0.095 0.4275,-0.14249 0.665,-0.14249 0.53625,0 0.97625,0.1175 1.325,0.3525 0.34625,0.235 0.62,0.5375 0.81875,0.9075 0.19875,0.36999 0.3375,0.78249 0.41875,1.23749 0.0787,0.455 0.12,0.90251 0.12,1.34251 0,0.42 -0.05,0.8525 -0.14625,1.2975 -0.0975,0.445 -0.25625,0.85 -0.47875,1.215 -0.22125,0.365 -0.5125,0.66249 -0.87,0.8925 -0.35875,0.22875 -0.805,0.345 -1.34,0.345 -0.205,0 -0.47625,-0.0425 -0.81125,-0.1275 -0.33625,-0.085 -0.69125,-0.2825 -1.0675,-0.5925 l -0.0337,0.015 z"
         style="fill:#231f20;fill-opacity:1;fill-rule:nonzero;stroke:none"
         id="path658"
         inkscape:connector-curvature="0" />
      <path
         d="m -383.83085,589.06498 c -0.23625,0 -0.43,0.0525 -0.57625,0.1575 -0.14625,0.105 -0.26,0.2525 -0.33875,0.44125 -0.0788,0.19125 -0.1325,0.42 -0.16,0.69125 -0.03,0.27 -0.0438,0.56375 -0.0438,0.885 0,0.76875 0.0713,1.3575 0.21125,1.76125 0.1425,0.40625 0.445,0.60876 0.9075,0.60876 0.44125,0 0.73125,-0.19626 0.8725,-0.58501 0.1425,-0.39125 0.21125,-0.97499 0.21125,-1.755 0,-0.33 -0.0138,-0.63 -0.0413,-0.9 -0.0275,-0.27 -0.0825,-0.5025 -0.16125,-0.69875 -0.0787,-0.19375 -0.18875,-0.34375 -0.33125,-0.44875 -0.14125,-0.105 -0.32375,-0.1575 -0.55,-0.1575 m -0.0687,6.105 c -0.695,0 -1.2775,-0.105 -1.745,-0.315 -0.46875,-0.21 -0.8425,-0.4875 -1.1225,-0.8325 -0.27875,-0.34625 -0.4775,-0.745 -0.5975,-1.2 -0.12,-0.45499 -0.18,-0.9325 -0.18,-1.43374 0,-0.45876 0.0563,-0.91876 0.17125,-1.37876 0.11375,-0.45999 0.31375,-0.87249 0.59875,-1.2375 0.285,-0.36499 0.6675,-0.66 1.14625,-0.885 0.47875,-0.225 1.07875,-0.3375 1.7975,-0.3375 0.7075,0 1.2975,0.105 1.77125,0.31501 0.47375,0.20999 0.85125,0.48999 1.13,0.84 0.28,0.34999 0.47875,0.75125 0.59875,1.2075 0.12,0.455 0.18,0.9275 0.18,1.4175 0,0.48 -0.0575,0.95 -0.17125,1.40875 -0.11375,0.46125 -0.31375,0.87125 -0.59875,1.23125 -0.285,0.36 -0.67,0.65 -1.15625,0.87 -0.48375,0.22 -1.0925,0.33 -1.8225,0.33"
         style="fill:#231f20;fill-opacity:1;fill-rule:nonzero;stroke:none"
         id="path662"
         inkscape:connector-curvature="0" />
      <path
         d="m -375.33235,592.88823 c 0,-0.27125 -0.0937,-0.46125 -0.2825,-0.57124 -0.1875,-0.11001 -0.44625,-0.20001 -0.77625,-0.27126 -0.455,-0.08 -0.85375,-0.17375 -1.195,-0.27749 -0.34125,-0.105 -0.63,-0.24125 -0.8625,-0.40625 -0.23375,-0.16625 -0.40875,-0.37375 -0.52875,-0.625 -0.12,-0.25 -0.18,-0.555 -0.18,-0.91625 0,-0.42125 0.095,-0.77751 0.2825,-1.06875 0.18625,-0.29001 0.435,-0.52501 0.7425,-0.70626 0.3075,-0.18 0.65375,-0.30999 1.04125,-0.39124 0.38625,-0.08 0.78625,-0.12 1.19625,-0.12 0.45375,0 0.92375,0.0425 1.40875,0.12749 0.4825,0.0863 0.9125,0.21251 1.28875,0.3825 l -0.4275,1.38 c -0.16,-0.04 -0.3325,-0.0775 -0.52125,-0.11125 -0.18625,-0.0363 -0.375,-0.0663 -0.5625,-0.0913 -0.1875,-0.025 -0.3675,-0.0425 -0.53875,-0.0525 -0.17,-0.009 -0.3125,-0.0138 -0.42625,-0.0138 -0.6825,0 -1.025,0.20499 -1.025,0.61374 0,0.2 0.0863,0.335 0.25625,0.405 0.17125,0.0712 0.405,0.135 0.7,0.19501 0.41,0.0812 0.795,0.17 1.15375,0.26999 0.3575,0.1 0.67125,0.23875 0.93875,0.4125 0.2675,0.175 0.47875,0.40375 0.6325,0.6825 0.15375,0.28126 0.22875,0.64 0.22875,1.08 0,0.44 -0.10125,0.8075 -0.30625,1.1025 -0.205,0.29625 -0.47875,0.5375 -0.82,0.7275 -0.3425,0.19125 -0.73125,0.325 -1.17,0.405 -0.4375,0.08 -0.89125,0.12 -1.3575,0.12 -0.41,0 -0.87625,-0.0425 -1.4,-0.125 -0.52375,-0.085 -0.99,-0.21625 -1.4,-0.395 l 0.46,-1.415 c 0.17125,0.05 0.365,0.0975 0.58125,0.14375 0.21625,0.0438 0.43,0.0837 0.64125,0.11876 0.21,0.0363 0.4125,0.0625 0.605,0.0838 0.19375,0.0187 0.35875,0.0287 0.49625,0.0287 0.36375,0 0.6425,-0.0525 0.83625,-0.1575 0.19375,-0.105 0.29,-0.2925 0.29,-0.56375"
         style="fill:#231f20;fill-opacity:1;fill-rule:nonzero;stroke:none"
         id="path666"
         inkscape:connector-curvature="0" />
      <path
         d="m -369.11285,593.23373 c 0.17125,0.10001 0.3525,0.18501 0.54625,0.25626 0.19375,0.07 0.375,0.10499 0.54625,0.10499 0.205,0 0.37625,-0.0625 0.5125,-0.18749 0.1375,-0.12626 0.2425,-0.29001 0.31625,-0.49 0.0737,-0.20001 0.125,-0.43375 0.1525,-0.7 0.03,-0.265 0.0425,-0.53376 0.0425,-0.805 0,-0.7125 -0.0787,-1.265 -0.2375,-1.65501 -0.16,-0.3925 -0.43375,-0.5875 -0.82,-0.5875 -0.16,0 -0.33625,0.0425 -0.53,0.12875 -0.1925,0.085 -0.37,0.1825 -0.52875,0.2925 l 0,3.6425 z m -0.0337,1.21626 0,3.51 -2.4925,0 0,-10.23001 2.09875,0 0.37625,0.78 0.785,-0.48 c 0.21625,-0.12 0.4275,-0.2275 0.6325,-0.3225 0.205,-0.095 0.4275,-0.14249 0.665,-0.14249 0.53625,0 0.97625,0.1175 1.325,0.3525 0.34625,0.235 0.62,0.5375 0.81875,0.9075 0.19875,0.36999 0.3375,0.78249 0.41875,1.23749 0.0788,0.455 0.12,0.90251 0.12,1.34251 0,0.42 -0.05,0.8525 -0.14625,1.2975 -0.0975,0.445 -0.25625,0.85 -0.47875,1.215 -0.22125,0.365 -0.5125,0.66249 -0.87,0.8925 -0.35875,0.22875 -0.805,0.345 -1.34,0.345 -0.205,0 -0.47625,-0.0425 -0.81125,-0.1275 -0.33625,-0.085 -0.69125,-0.2825 -1.0675,-0.5925 l -0.0337,0.015 z"
         style="fill:#231f20;fill-opacity:1;fill-rule:nonzero;stroke:none"
         id="path670"
         inkscape:connector-curvature="0" />
      <path
         d="m -361.46872,586.61986 c -0.3875,0 -0.71125,-0.115 -0.9725,-0.345 -0.2625,-0.23 -0.39376,-0.52 -0.39376,-0.87 0,-0.34 0.13126,-0.6325 0.39376,-0.8775 0.26125,-0.245 0.585,-0.3675 0.9725,-0.3675 0.3875,0 0.71125,0.125 0.97375,0.375 0.26125,0.25 0.3925,0.54 0.3925,0.87 0,0.33 -0.13125,0.615 -0.3925,0.855 -0.2625,0.24 -0.58625,0.36 -0.97375,0.36 m -1.16126,2.505 -0.92124,-0.195 0,-1.215 3.41374,0 0,7.245 -2.4925,0 0,-5.835 z"
         style="fill:#231f20;fill-opacity:1;fill-rule:nonzero;stroke:none"
         id="path674"
         inkscape:connector-curvature="0" />
      <path
         d="m -355.02222,595.16973 c -0.61375,0 -1.10751,-0.075 -1.4775,-0.225 -0.37001,-0.15 -0.6475,-0.345 -0.83626,-0.585 -0.1875,-0.24 -0.31,-0.51 -0.3675,-0.81 -0.0563,-0.3 -0.085,-0.605 -0.085,-0.915 l 0,-3.465 -1.2125,0 0,-1.11 1.315,-0.315 0.83625,-1.965 1.55375,0 0,1.965 2.0325,0 0,1.425 -2.0325,0 0,3.33 c 0,0.42 0.0913,0.695 0.27375,0.825 0.1825,0.13 0.46125,0.195 0.8375,0.195 0.1475,0 0.3275,-0.01 0.5375,-0.03 0.21125,-0.02 0.42876,-0.045 0.6575,-0.075 0.045,0.23 0.0875,0.4625 0.12876,0.6975 0.0387,0.235 0.0875,0.4675 0.145,0.6975 -0.18376,0.06 -0.38251,0.1125 -0.59875,0.1575 -0.21625,0.045 -0.43126,0.0825 -0.64751,0.1125 -0.2175,0.03 -0.41875,0.0525 -0.6075,0.0675 -0.1875,0.015 -0.33875,0.0225 -0.4525,0.0225"
         style="fill:#231f20;fill-opacity:1;fill-rule:nonzero;stroke:none"
         id="path678"
         inkscape:connector-curvature="0" />
      <path
         d="m -350.1041,586.61986 c -0.3875,0 -0.71125,-0.115 -0.9725,-0.345 -0.2625,-0.23 -0.39375,-0.52 -0.39375,-0.87 0,-0.34 0.13125,-0.6325 0.39375,-0.8775 0.26125,-0.245 0.585,-0.3675 0.9725,-0.3675 0.3875,0 0.71125,0.125 0.97375,0.375 0.26125,0.25 0.3925,0.54 0.3925,0.87 0,0.33 -0.13125,0.615 -0.3925,0.855 -0.2625,0.24 -0.58625,0.36 -0.97375,0.36 m -1.16125,2.505 -0.92125,-0.195 0,-1.215 3.41375,0 0,7.245 -2.4925,0 0,-5.835 z"
         style="fill:#231f20;fill-opacity:1;fill-rule:nonzero;stroke:none"
         id="path682"
         inkscape:connector-curvature="0" />
      <path
         d="m -345.40185,595.07936 c -0.42125,0 -0.77625,-0.125 -1.0675,-0.375 -0.29,-0.25 -0.435,-0.56 -0.435,-0.93 0,-0.36 0.145,-0.6675 0.435,-0.92125 0.29125,-0.255 0.64625,-0.38375 1.0675,-0.38375 0.205,0 0.395,0.035 0.5725,0.105 0.17625,0.0713 0.33,0.1625 0.46125,0.27875 0.13125,0.115 0.23375,0.2525 0.30625,0.41125 0.075,0.16125 0.11125,0.33 0.11125,0.51 0,0.18125 -0.0362,0.3475 -0.11125,0.5025 -0.0725,0.155 -0.175,0.29375 -0.30625,0.4125 -0.13125,0.12 -0.285,0.215 -0.46125,0.285 -0.1775,0.0712 -0.3675,0.105 -0.5725,0.105"
         style="fill:#231f20;fill-opacity:1;fill-rule:nonzero;stroke:none"
         id="path686"
         inkscape:connector-curvature="0" />
      <path
         d="m -337.53322,590.05499 c 0,-0.14001 -0.0175,-0.28001 -0.0512,-0.42001 -0.0338,-0.14 -0.0925,-0.2675 -0.17875,-0.38375 -0.085,-0.11375 -0.2,-0.2075 -0.34125,-0.27625 -0.1425,-0.07 -0.3225,-0.105 -0.53875,-0.105 -0.22625,0 -0.4125,0.04 -0.55375,0.11875 -0.1425,0.0812 -0.25375,0.18125 -0.33375,0.30125 -0.08,0.11875 -0.13125,0.2475 -0.15375,0.38125 -0.0225,0.13625 -0.0337,0.26375 -0.0337,0.38376 0,0.14999 0.0175,0.29749 0.0513,0.44249 0.0337,0.145 0.09,0.27501 0.17124,0.39 0.0788,0.115 0.19001,0.2075 0.3325,0.2775 0.14251,0.07 0.32126,0.105 0.53751,0.105 0.41,0 0.695,-0.1225 0.855,-0.3675 0.15874,-0.24625 0.2375,-0.5275 0.2375,-0.84749 m 0.88875,5.48999 c 0,-0.20125 -0.1025,-0.33499 -0.3075,-0.40625 -0.205,-0.0687 -0.43876,-0.105 -0.7,-0.105 l -2.27125,0 c -0.16,0.15125 -0.2925,0.29375 -0.40125,0.42876 -0.1075,0.135 -0.1625,0.2625 -0.1625,0.3825 0,0.26 0.1675,0.44375 0.50375,0.555 0.33625,0.11 0.73125,0.165 1.18625,0.165 0.2975,0 0.575,-0.025 0.8375,-0.0763 0.26125,-0.05 0.49,-0.11876 0.6825,-0.21 0.19375,-0.0888 0.3475,-0.19751 0.46125,-0.32125 0.11375,-0.12501 0.17125,-0.2625 0.17125,-0.4125 m -2.6125,2.7 c -0.6725,0 -1.22375,-0.0475 -1.65625,-0.1425 -0.43375,-0.0962 -0.77125,-0.22 -1.0175,-0.375 -0.24375,-0.155 -0.415,-0.33 -0.51126,-0.525 -0.0975,-0.195 -0.14499,-0.39875 -0.14499,-0.60875 0,-0.17875 0.0512,-0.37375 0.15374,-0.58375 0.10251,-0.21 0.23375,-0.40125 0.39251,-0.57 l 0.66625,-0.735 -0.85375,-0.285 c -0.0575,-0.08 -0.0975,-0.1775 -0.12001,-0.2925 -0.0225,-0.115 -0.0337,-0.2175 -0.0337,-0.3075 0,-0.15 0.0363,-0.31 0.11125,-0.48 0.0737,-0.17 0.17375,-0.33875 0.2975,-0.5025 0.12626,-0.165 0.265,-0.3175 0.41876,-0.45875 0.15375,-0.13875 0.31,-0.25875 0.47,-0.35875 -0.31876,-0.18 -0.59001,-0.4225 -0.81125,-0.7275 -0.2225,-0.305 -0.3325,-0.6975 -0.3325,-1.1775 0,-0.43 0.10125,-0.8075 0.30624,-1.1325 0.205,-0.325 0.4725,-0.595 0.80376,-0.81 0.32999,-0.21501 0.71124,-0.37625 1.14374,-0.48125 0.4325,-0.105 0.8825,-0.1575 1.34875,-0.1575 0.33126,0 0.62875,0.0213 0.8975,0.0613 0.2675,0.0388 0.49625,0.085 0.69,0.135 l 2.86876,0 0,0.855 -1.21126,0.285 c 0.1025,0.16875 0.1875,0.365 0.25625,0.585 0.0675,0.22 0.1025,0.41875 0.1025,0.6 0,0.41 -0.0975,0.77 -0.29125,1.08 -0.19375,0.31 -0.455,0.5675 -0.78624,0.77125 -0.32875,0.20625 -0.71625,0.36125 -1.16001,0.46625 -0.44375,0.105 -0.91749,0.15625 -1.4175,0.15625 -0.1925,0 -0.37875,-0.006 -0.55375,-0.0212 -0.1775,-0.015 -0.34625,-0.0325 -0.505,-0.0525 -0.23875,0.19 -0.35875,0.365 -0.35875,0.525 0,0.22 0.16,0.33 0.47876,0.33 l 2.28749,0 c 0.93375,0 1.67375,0.1775 2.22001,0.5325 0.54624,0.35375 0.81999,0.87625 0.81999,1.5675 0,0.42 -0.125,0.805 -0.375,1.155 -0.25125,0.34875 -0.59875,0.6475 -1.0425,0.8925 -0.44375,0.245 -0.97,0.43625 -1.58,0.5775 -0.60875,0.14 -1.26499,0.21 -1.97125,0.21"
         style="fill:#231f20;fill-opacity:1;fill-rule:nonzero;stroke:none"
         id="path690"
         inkscape:connector-curvature="0" />
      <path
         d="m -331.03547,587.72948 0.35875,1.23 c 0.3875,-0.42 0.81375,-0.75 1.28125,-0.99 0.46625,-0.24 0.93875,-0.395 1.41625,-0.465 l 0.35875,2.13 c -0.6375,0.03 -1.1925,0.0725 -1.665,0.1275 -0.4725,0.055 -0.9075,0.12875 -1.30625,0.2175 l 0,4.98 -2.47625,0 0,-7.23 2.0325,0 z"
         style="fill:#231f20;fill-opacity:1;fill-rule:nonzero;stroke:none"
         id="path694"
         inkscape:connector-curvature="0" />
    </g>
  </g>
</svg>
