<?xml version="1.0" encoding="UTF-8" standalone="no"?>
<!-- Created with Inkscape (http://www.inkscape.org/) -->

<svg
   xmlns:dc="http://purl.org/dc/elements/1.1/"
   xmlns:cc="http://creativecommons.org/ns#"
   xmlns:rdf="http://www.w3.org/1999/02/22-rdf-syntax-ns#"
   xmlns:svg="http://www.w3.org/2000/svg"
   xmlns="http://www.w3.org/2000/svg"
   xmlns:sodipodi="http://sodipodi.sourceforge.net/DTD/sodipodi-0.dtd"
   xmlns:inkscape="http://www.inkscape.org/namespaces/inkscape"
   width="6.7733335mm"
   height="6.7729917mm"
   viewBox="0 0 24.000001 23.998789"
   id="svg23822"
   version="1.1"
   inkscape:version="0.91 r13725"
   sodipodi:docname="icon4.svg">
  <defs
     id="defs23824" />
  <sodipodi:namedview
     id="base"
     pagecolor="#ffffff"
     bordercolor="#666666"
     borderopacity="1.0"
     inkscape:pageopacity="0.0"
     inkscape:pageshadow="2"
     inkscape:zoom="5.6"
     inkscape:cx="-37.713828"
     inkscape:cy="-28.808338"
     inkscape:document-units="px"
     inkscape:current-layer="layer1"
     showgrid="false"
     inkscape:window-width="1881"
     inkscape:window-height="1176"
     inkscape:window-x="39"
     inkscape:window-y="24"
     inkscape:window-maximized="1"
     fit-margin-top="0"
     fit-margin-left="0"
     fit-margin-right="0"
     fit-margin-bottom="0" />
  <metadata
     id="metadata23827">
    <rdf:RDF>
      <cc:Work
         rdf:about="">
        <dc:format>image/svg+xml</dc:format>
        <dc:type
           rdf:resource="http://purl.org/dc/dcmitype/StillImage" />
        <dc:title></dc:title>
      </cc:Work>
    </rdf:RDF>
  </metadata>
  <g
     inkscape:label="Layer 1"
     inkscape:groupmode="layer"
     id="layer1"
     transform="translate(-639.0267,-569.33609)">
    <g
       id="g24520"
       transform="translate(-29.607144,-93.963686)">
      <path
         d="m 693.03572,684.01292 c 0,2.02875 -1.66,3.6875 -3.68875,3.6875 l -17.4275,0 c -2.0275,0 -3.6875,-1.65875 -3.6875,-3.6875 l 0,-17.42625 c 0,-2.02875 1.66,-3.68875 3.6875,-3.68875 l 17.4275,0 c 2.02875,0 3.68875,1.66 3.68875,3.68875 l 0,17.42625 z"
         style="fill:#7c8c36;fill-opacity:1;fill-rule:nonzero;stroke:none"
         id="path7708"
         inkscape:connector-curvature="0" />
      <path
         d="m 689.39372,682.1673 -3.95375,-3.95126 2.82,-1.63125 c 0.22,-0.12625 0.35,-0.3675 0.33,-0.62375 -0.0175,-0.25125 -0.17875,-0.4725 -0.41625,-0.565 l -12.5775,-5.01875 c -0.2475,-0.0987 -0.52875,-0.0412 -0.71625,0.14875 -0.1875,0.18375 -0.24625,0.46875 -0.1475,0.71375 l 5.01625,12.58126 c 0.0937,0.23375 0.31625,0.39875 0.57,0.4125 0.25375,0.0212 0.49625,-0.10625 0.62375,-0.32625 l 1.62875,-2.82125 3.95375,3.955 c 0.125,0.12125 0.29375,0.19375 0.47,0.19375 0.17625,0 0.345,-0.0725 0.46875,-0.19375 l 1.93125,-1.9325 c 0.25875,-0.25875 0.25875,-0.68 -10e-4,-0.94125"
         style="fill:#ffffff;fill-opacity:1;fill-rule:nonzero;stroke:none"
         id="path7712"
         inkscape:connector-curvature="0" />
      <path
         d="m 672.63772,667.34179 c -0.25875,-0.2575 -0.67875,-0.2575 -0.93875,0 -0.26,0.25875 -0.26,0.6825 0,0.9375 l 1.47625,1.48125 c 0.12875,0.1275 0.29875,0.19125 0.46875,0.19125 0.17,0 0.34125,-0.0638 0.47,-0.19125 0.26,-0.2625 0.26,-0.6825 0,-0.9425 l -1.47625,-1.47625 z"
         style="fill:#ffffff;fill-opacity:1;fill-rule:nonzero;stroke:none"
         id="path7716"
         inkscape:connector-curvature="0" />
      <path
         d="m 673.13885,671.93654 c 0,-0.36875 -0.2975,-0.66625 -0.665,-0.66625 l -2.0875,0 c -0.3675,0 -0.665,0.2975 -0.665,0.66625 0,0.36625 0.2975,0.665 0.665,0.665 l 2.0875,0 c 0.3675,0 0.665,-0.29875 0.665,-0.665"
         style="fill:#ffffff;fill-opacity:1;fill-rule:nonzero;stroke:none"
         id="path7720"
         inkscape:connector-curvature="0" />
      <path
         d="m 672.86972,673.98604 -1.47625,1.475 c -0.26,0.26125 -0.26,0.68125 0,0.94125 0.12875,0.13 0.29875,0.19625 0.47,0.19625 0.1675,0 0.33875,-0.0662 0.47,-0.19625 l 1.475,-1.47625 c 0.26,-0.26 0.26,-0.67875 0,-0.94 -0.25875,-0.26 -0.68,-0.26 -0.93875,0"
         style="fill:#ffffff;fill-opacity:1;fill-rule:nonzero;stroke:none"
         id="path7724"
         inkscape:connector-curvature="0" />
      <path
         d="m 676.29197,668.78104 c 0.36625,0 0.665,-0.29625 0.665,-0.66375 l 0,-2.0875 c 0,-0.36625 -0.29875,-0.665 -0.665,-0.665 -0.36625,0 -0.66375,0.29875 -0.66375,0.665 l 0,2.0875 c 0,0.3675 0.2975,0.66375 0.66375,0.66375"
         style="fill:#ffffff;fill-opacity:1;fill-rule:nonzero;stroke:none"
         id="path7728"
         inkscape:connector-curvature="0" />
      <path
         d="m 678.81335,669.64529 c 0.16875,0 0.33875,-0.0637 0.46875,-0.19375 l 1.47625,-1.475 c 0.26,-0.26 0.26,-0.68125 0,-0.94125 -0.26,-0.25875 -0.68,-0.25875 -0.94,0 l -1.475,1.4775 c -0.26125,0.26 -0.26125,0.67875 0,0.93875 0.12875,0.13 0.3,0.19375 0.47,0.19375"
         style="fill:#ffffff;fill-opacity:1;fill-rule:nonzero;stroke:none"
         id="path7732"
         inkscape:connector-curvature="0" />
    </g>
  </g>
</svg>
