<?xml version="1.0" encoding="UTF-8" standalone="no"?>
<!-- Created with Inkscape (http://www.inkscape.org/) -->

<svg
   xmlns:dc="http://purl.org/dc/elements/1.1/"
   xmlns:cc="http://creativecommons.org/ns#"
   xmlns:rdf="http://www.w3.org/1999/02/22-rdf-syntax-ns#"
   xmlns:svg="http://www.w3.org/2000/svg"
   xmlns="http://www.w3.org/2000/svg"
   xmlns:sodipodi="http://sodipodi.sourceforge.net/DTD/sodipodi-0.dtd"
   xmlns:inkscape="http://www.inkscape.org/namespaces/inkscape"
   width="6.7733335mm"
   height="6.7729917mm"
   viewBox="0 0 24.000001 23.998789"
   id="svg23822"
   version="1.1"
   inkscape:version="0.91 r13725"
   sodipodi:docname="icon2.svg">
  <defs
     id="defs23824" />
  <sodipodi:namedview
     id="base"
     pagecolor="#ffffff"
     bordercolor="#666666"
     borderopacity="1.0"
     inkscape:pageopacity="0.0"
     inkscape:pageshadow="2"
     inkscape:zoom="5.6"
     inkscape:cx="-37.713828"
     inkscape:cy="-28.808338"
     inkscape:document-units="px"
     inkscape:current-layer="layer1"
     showgrid="false"
     inkscape:window-width="1881"
     inkscape:window-height="1176"
     inkscape:window-x="39"
     inkscape:window-y="24"
     inkscape:window-maximized="1"
     fit-margin-top="0"
     fit-margin-left="0"
     fit-margin-right="0"
     fit-margin-bottom="0" />
  <metadata
     id="metadata23827">
    <rdf:RDF>
      <cc:Work
         rdf:about="">
        <dc:format>image/svg+xml</dc:format>
        <dc:type
           rdf:resource="http://purl.org/dc/dcmitype/StillImage" />
        <dc:title></dc:title>
      </cc:Work>
    </rdf:RDF>
  </metadata>
  <g
     inkscape:label="Layer 1"
     inkscape:groupmode="layer"
     id="layer1"
     transform="translate(-639.0267,-569.33609)">
    <g
       id="g24418"
       transform="translate(1.0982274e-6,-62.044111)">
      <path
         d="m 663.0267,651.81098 c 0,1.9618 -1.60742,3.56801 -3.57043,3.56801 l -16.86156,0 c -1.96301,0 -3.56801,-1.60621 -3.56801,-3.56801 l 0,-16.86156 c 0,-1.9618 1.605,-3.56922 3.56801,-3.56922 l 16.86156,0 c 1.96301,0 3.57043,1.60742 3.57043,3.56922 l 0,16.86156 z"
         style="fill:#7c8c36;fill-opacity:1;fill-rule:nonzero;stroke:none"
         id="path7684"
         inkscape:connector-curvature="0" />
      <path
         d="m 644.73551,640.56062 2.11178,0 c 0.44752,0 0.80915,-0.36285 0.80915,-0.80915 0,-0.32415 0.26367,-0.58419 0.5854,-0.58419 l 5.56972,0 c 0.32294,0 0.58661,0.26004 0.58661,0.58419 0,0.4463 0.36285,0.80915 0.80915,0.80915 l 2.11057,0 c 0.4463,0 0.80915,-0.36285 0.80915,-0.80915 l 0,-1.57355 c 0,-1.26635 -1.02444,-2.28837 -2.28837,-2.28837 l -9.62273,0 c -1.26393,0 -2.28958,1.02202 -2.28958,2.28837 l 0,1.57355 c 0,0.4463 0.36285,0.80915 0.80915,0.80915"
         style="fill:#ffffff;fill-opacity:1;fill-rule:nonzero;stroke:none"
         id="path7688"
         inkscape:connector-curvature="0" />
      <path
         d="m 653.4699,645.94069 c 0,0.15603 -0.127,0.28424 -0.28423,0.28424 l -1.45865,0 c -0.15724,0 -0.28545,-0.12821 -0.28545,-0.28424 l 0,-1.45744 c 0,-0.15723 0.12821,-0.28423 0.28545,-0.28423 l 1.45865,0 c 0.15723,0 0.28423,0.127 0.28423,0.28423 l 0,1.45744 z m 0,2.85563 c 0,0.15723 -0.127,0.28665 -0.28423,0.28665 l -1.45865,0 c -0.15724,0 -0.28545,-0.12942 -0.28545,-0.28665 l 0,-1.45865 c 0,-0.15723 0.12821,-0.28302 0.28545,-0.28302 l 1.45865,0 c 0.15723,0 0.28423,0.12579 0.28423,0.28302 l 0,1.45865 z m -2.85562,-2.85563 c 0,0.15603 -0.127,0.28424 -0.28423,0.28424 l -1.45865,0 c -0.15724,0 -0.28544,-0.12821 -0.28544,-0.28424 l 0,-1.45744 c 0,-0.15723 0.1282,-0.28423 0.28544,-0.28423 l 1.45865,0 c 0.15723,0 0.28423,0.127 0.28423,0.28423 l 0,1.45744 z m 0,2.85563 c 0,0.15723 -0.127,0.28665 -0.28423,0.28665 l -1.45865,0 c -0.15845,0 -0.28544,-0.12942 -0.28544,-0.28665 l 0,-1.45865 c 0,-0.15723 0.12699,-0.28423 0.28544,-0.28423 l 1.45865,0 c 0.15723,0 0.28423,0.127 0.28423,0.28423 l 0,1.45865 z m 8.13869,-0.0206 -1.02686,-3.61277 c -0.46929,-1.64854 -1.89891,-2.81328 -3.57527,-2.98503 l 0,-0.95913 c 0,-0.60959 -0.49226,-1.10185 -1.10064,-1.10185 -0.60958,0 -1.10185,0.49226 -1.10185,1.10185 l 0,0.92405 -1.84206,0 0,-0.92405 c 0,-0.60959 -0.49226,-1.10064 -1.10185,-1.10064 -0.60837,0 -1.10064,0.49105 -1.10064,1.10064 l 0,0.95913 c -1.67757,0.17175 -3.10598,1.33649 -3.57647,2.98503 l -1.02686,3.61277 c -0.14151,0.49589 -0.0399,1.03049 0.26971,1.44172 0.31205,0.41123 0.79827,0.65313 1.31472,0.65313 l 12.28605,0 c 0.51525,0 1.00146,-0.2419 1.31351,-0.65313 0.31084,-0.41123 0.40881,-0.94583 0.26851,-1.44172"
         style="fill:#ffffff;fill-opacity:1;fill-rule:nonzero;stroke:none"
         id="path7692"
         inkscape:connector-curvature="0" />
    </g>
  </g>
</svg>
