<?xml version="1.0" encoding="UTF-8" standalone="no"?>
<!-- Created with Inkscape (http://www.inkscape.org/) -->

<svg
   xmlns:dc="http://purl.org/dc/elements/1.1/"
   xmlns:cc="http://creativecommons.org/ns#"
   xmlns:rdf="http://www.w3.org/1999/02/22-rdf-syntax-ns#"
   xmlns:svg="http://www.w3.org/2000/svg"
   xmlns="http://www.w3.org/2000/svg"
   xmlns:sodipodi="http://sodipodi.sourceforge.net/DTD/sodipodi-0.dtd"
   xmlns:inkscape="http://www.inkscape.org/namespaces/inkscape"
   width="6.7733335mm"
   height="6.7729917mm"
   viewBox="0 0 24.000001 23.998789"
   id="svg23822"
   version="1.1"
   inkscape:version="0.91 r13725"
   sodipodi:docname="icon3.svg">
  <defs
     id="defs23824" />
  <sodipodi:namedview
     id="base"
     pagecolor="#ffffff"
     bordercolor="#666666"
     borderopacity="1.0"
     inkscape:pageopacity="0.0"
     inkscape:pageshadow="2"
     inkscape:zoom="5.6"
     inkscape:cx="-37.713828"
     inkscape:cy="-28.808338"
     inkscape:document-units="px"
     inkscape:current-layer="layer1"
     showgrid="false"
     inkscape:window-width="1881"
     inkscape:window-height="1176"
     inkscape:window-x="39"
     inkscape:window-y="24"
     inkscape:window-maximized="1"
     fit-margin-top="0"
     fit-margin-left="0"
     fit-margin-right="0"
     fit-margin-bottom="0" />
  <metadata
     id="metadata23827">
    <rdf:RDF>
      <cc:Work
         rdf:about="">
        <dc:format>image/svg+xml</dc:format>
        <dc:type
           rdf:resource="http://purl.org/dc/dcmitype/StillImage" />
        <dc:title></dc:title>
      </cc:Work>
    </rdf:RDF>
  </metadata>
  <g
     inkscape:label="Layer 1"
     inkscape:groupmode="layer"
     id="layer1"
     transform="translate(-639.0267,-569.33609)">
    <g
       id="g24463"
       transform="matrix(0.96759568,0,0,0.96759568,-10.316223,-34.241175)">
      <path
         d="m 695.89286,644.90578 c 0,2.02875 -1.66,3.6875 -3.68875,3.6875 l -17.4275,0 c -2.0275,0 -3.6875,-1.65875 -3.6875,-3.6875 l 0,-17.42625 c 0,-2.02875 1.66,-3.68875 3.6875,-3.68875 l 17.4275,0 c 2.02875,0 3.68875,1.66 3.68875,3.68875 l 0,17.42625 z"
         style="fill:#7c8c36;fill-opacity:1;fill-rule:nonzero;stroke:none"
         id="path7696"
         inkscape:connector-curvature="0" />
      <path
         d="m 683.81036,642.02003 c -3.38875,0 -6.14625,-2.75625 -6.14625,-6.145 0,-3.38875 2.7575,-6.14625 6.14625,-6.14625 3.38875,0 6.14625,2.7575 6.14625,6.14625 0,3.38875 -2.7575,6.145 -6.14625,6.145 m 0,-14.74875 c -4.74375,0 -8.60375,3.86 -8.60375,8.60375 0,4.74375 3.86,8.60375 8.60375,8.60375 4.74375,0 8.6025,-3.86 8.6025,-8.60375 0,-4.74375 -3.85875,-8.60375 -8.6025,-8.60375"
         style="fill:#ffffff;fill-opacity:1;fill-rule:nonzero;stroke:none"
         id="path7700"
         inkscape:connector-curvature="0" />
      <path
         d="m 688.23424,635.25853 -3.03125,0 c -0.0862,-0.11 -0.18625,-0.20875 -0.29625,-0.295 l 0,-3.68125 c 0,-0.60625 -0.49125,-1.1 -1.09625,-1.1 -0.60625,0 -1.09875,0.49375 -1.09875,1.1 l 0,3.68125 c -0.42875,0.335 -0.6775,0.8425 -0.6775,1.39375 0,0.97875 0.79625,1.77625 1.77625,1.77625 0.54875,0 1.05625,-0.25 1.3925,-0.6775 l 3.03125,0 c 0.605,0 1.0975,-0.49375 1.0975,-1.09875 0,-0.605 -0.4925,-1.09875 -1.0975,-1.09875"
         style="fill:#ffffff;fill-opacity:1;fill-rule:nonzero;stroke:none"
         id="path7704"
         inkscape:connector-curvature="0" />
    </g>
  </g>
</svg>
