<?xml version="1.0" encoding="UTF-8" standalone="no"?>
<!-- Created with Inkscape (http://www.inkscape.org/) -->

<svg
   xmlns:dc="http://purl.org/dc/elements/1.1/"
   xmlns:cc="http://creativecommons.org/ns#"
   xmlns:rdf="http://www.w3.org/1999/02/22-rdf-syntax-ns#"
   xmlns:svg="http://www.w3.org/2000/svg"
   xmlns="http://www.w3.org/2000/svg"
   xmlns:sodipodi="http://sodipodi.sourceforge.net/DTD/sodipodi-0.dtd"
   xmlns:inkscape="http://www.inkscape.org/namespaces/inkscape"
   width="6.7733335mm"
   height="6.7729917mm"
   viewBox="0 0 24.000001 23.998789"
   id="svg23822"
   version="1.1"
   inkscape:version="0.91 r13725"
   sodipodi:docname="icon-fb.svg">
  <defs
     id="defs23824" />
  <sodipodi:namedview
     id="base"
     pagecolor="#ffffff"
     bordercolor="#666666"
     borderopacity="1.0"
     inkscape:pageopacity="0.0"
     inkscape:pageshadow="2"
     inkscape:zoom="5.6"
     inkscape:cx="-37.713828"
     inkscape:cy="-28.808338"
     inkscape:document-units="px"
     inkscape:current-layer="layer1"
     showgrid="false"
     inkscape:window-width="1881"
     inkscape:window-height="1176"
     inkscape:window-x="39"
     inkscape:window-y="24"
     inkscape:window-maximized="1"
     fit-margin-top="0"
     fit-margin-left="0"
     fit-margin-right="0"
     fit-margin-bottom="0" />
  <metadata
     id="metadata23827">
    <rdf:RDF>
      <cc:Work
         rdf:about="">
        <dc:format>image/svg+xml</dc:format>
        <dc:type
           rdf:resource="http://purl.org/dc/dcmitype/StillImage" />
        <dc:title></dc:title>
      </cc:Work>
    </rdf:RDF>
  </metadata>
  <g
     inkscape:label="Layer 1"
     inkscape:groupmode="layer"
     id="layer1"
     transform="translate(-639.0267,-569.33609)">
    <g
       id="g24566"
       transform="matrix(0.96759568,0,0,0.96759568,-18.437118,-95.752616)">
      <path
         d="m 704.28572,708.47721 c 0,2.02875 -1.66,3.6875 -3.68875,3.6875 l -17.4275,0 c -2.0275,0 -3.6875,-1.65875 -3.6875,-3.6875 l 0,-17.42625 c 0,-2.02875 1.66,-3.68875 3.6875,-3.68875 l 17.4275,0 c 2.02875,0 3.68875,1.66 3.68875,3.68875 l 0,17.42625 z"
         style="fill:#7c8c36;fill-opacity:1;fill-rule:nonzero;stroke:none"
         id="path7984"
         inkscape:connector-curvature="0" />
      <path
         d="m 693.55447,696.13471 0,-1.45875 c 0,-0.7 0.47125,-0.8625 0.805,-0.8625 l 2.03625,0 0,-3.12125 -2.81,0 c -3.11375,0 -3.815,2.3125 -3.815,3.8 l 0,1.6425 -1.8075,0 0,2.19 0,1.44375 1.825,0 0,9.06625 3.63,0 0,-9.06625 2.68875,0 0.1225,-1.43125 0.21375,-2.2025 -2.88875,0 z"
         style="fill:#ffffff;fill-opacity:1;fill-rule:evenodd;stroke:none"
         id="path7988"
         inkscape:connector-curvature="0" />
    </g>
  </g>
</svg>
