<?xml version="1.0" encoding="UTF-8" standalone="no"?>
<!-- Created with Inkscape (http://www.inkscape.org/) -->

<svg
   xmlns:dc="http://purl.org/dc/elements/1.1/"
   xmlns:cc="http://creativecommons.org/ns#"
   xmlns:rdf="http://www.w3.org/1999/02/22-rdf-syntax-ns#"
   xmlns:svg="http://www.w3.org/2000/svg"
   xmlns="http://www.w3.org/2000/svg"
   xmlns:sodipodi="http://sodipodi.sourceforge.net/DTD/sodipodi-0.dtd"
   xmlns:inkscape="http://www.inkscape.org/namespaces/inkscape"
   width="200"
   height="200"
   viewBox="0 0 200 200.00001"
   id="svg23169"
   version="1.1"
   inkscape:version="0.91 r13725"
   sodipodi:docname="logo-sq.svg">
  <defs
     id="defs23171" />
  <sodipodi:namedview
     id="base"
     pagecolor="#ffffff"
     bordercolor="#666666"
     borderopacity="1.0"
     inkscape:pageopacity="0.0"
     inkscape:pageshadow="2"
     inkscape:zoom="2.8"
     inkscape:cx="300.1632"
     inkscape:cy="0.58579692"
     inkscape:document-units="px"
     inkscape:current-layer="layer1"
     showgrid="false"
     fit-margin-top="0"
     fit-margin-left="0"
     fit-margin-right="0"
     fit-margin-bottom="0"
     units="px"
     inkscape:window-width="3840"
     inkscape:window-height="2101"
     inkscape:window-x="0"
     inkscape:window-y="27"
     inkscape:window-maximized="1" />
  <metadata
     id="metadata23174">
    <rdf:RDF>
      <cc:Work
         rdf:about="">
        <dc:format>image/svg+xml</dc:format>
        <dc:type
           rdf:resource="http://purl.org/dc/dcmitype/StillImage" />
        <dc:title></dc:title>
      </cc:Work>
    </rdf:RDF>
  </metadata>
  <g
     inkscape:label="Layer 1"
     inkscape:groupmode="layer"
     id="layer1"
     transform="translate(507.00188,-420.17181)">
    <g
       id="g4169"
       transform="matrix(0.88762058,0,0,0.88762058,-45.738639,70.057901)">
      <path
         d="m -310.43678,528.13016 -40.69244,-20.45053 c -1.46024,-0.73011 -3.14501,-0.86629 -4.70231,-0.3665 l -37.79081,12.10488 0,-11.54426 c 0,-3.44488 -2.79298,-6.23786 -6.23497,-6.23786 -3.44632,0 -6.23931,2.79298 -6.23931,6.23786 l 0,15.54252 -13.57091,4.34738 c -3.28408,1.04882 -5.09199,4.56179 -4.04027,7.84297 0.85035,2.64957 3.30001,4.33579 5.93799,4.33579 0.63306,0 1.27191,-0.0971 1.90787,-0.29842 l 61.41097,-19.67115 38.40938,19.30465 c 3.07838,1.54135 6.82747,0.30566 8.37462,-2.77416 1.54571,-3.07982 0.30567,-6.82891 -2.76981,-8.37317"
         style="fill:#7c8c36;fill-opacity:1;fill-rule:nonzero;stroke:none"
         id="path58"
         inkscape:connector-curvature="0" />
      <path
         d="m -440.59408,512.96603 c 0.74026,0 1.48631,-0.24627 2.10778,-0.7475 l 1.73113,-1.40084 c 1.4443,-1.16471 1.67173,-3.27828 0.50847,-4.72114 -1.17195,-1.44285 -3.28408,-1.67173 -4.72403,-0.50557 l -1.73403,1.40084 c -1.44285,1.16471 -1.67029,3.27828 -0.50558,4.72258 0.66493,0.82138 1.63553,1.25163 2.61626,1.25163"
         style="fill:#231f20;fill-opacity:1;fill-rule:nonzero;stroke:none"
         id="path62"
         inkscape:connector-curvature="0" />
      <path
         d="m -454.76516,513.18665 c -8.84977,-0.16369 -14.78487,0.69246 -18.54121,1.59496 -0.071,-0.006 -0.14052,-0.0217 -0.2144,-0.0217 -0.64465,0 -1.24149,0.20281 -1.73693,0.54179 -2.07735,0.63016 -3.11893,1.185 -3.37099,1.33131 -1.4501,0.83732 -1.94119,2.66985 -1.1256,4.13588 0.55628,1.00391 1.6051,1.56599 2.68579,1.56599 0.16225,0 0.3187,-0.0334 0.4824,-0.058 l 0,14.41982 c 0,1.69346 1.37186,3.06678 3.06533,3.06678 1.69491,0 3.06823,-1.37332 3.06823,-3.06678 l 0,-16.26394 c 1.9209,-0.3839 4.42996,-0.74461 7.62422,-0.95176 l 0,16.90713 c 0,1.69347 1.36897,3.06679 3.06389,3.06679 1.69346,0 3.06823,-1.37332 3.06823,-3.06679 l 0,-17.08532 c 0.59394,0.003 1.17919,0.003 1.80935,0.0145 1.70361,-0.0681 3.09431,-1.31537 3.12908,-3.00594 0.029,-1.69202 -1.31103,-3.09286 -3.00739,-3.12473"
         style="fill:#231f20;fill-opacity:1;fill-rule:nonzero;stroke:none"
         id="path66"
         inkscape:connector-curvature="0" />
      <path
         d="m -440.59973,533.47769 c -2.99724,0 -5.43676,-2.78719 -5.43676,-6.21324 0,-3.42605 2.43952,-6.21759 5.43676,-6.21759 3.00305,0 5.44401,2.79154 5.44401,6.21759 0,3.42605 -2.44096,6.21324 -5.44401,6.21324 m 0,-18.56149 c -6.37838,0 -11.56598,5.54107 -11.56598,12.34825 0,6.80574 5.1876,12.34391 11.56598,12.34391 6.38274,0 11.57613,-5.53817 11.57613,-12.34391 0,-6.80718 -5.19339,-12.34825 -11.57613,-12.34825"
         style="fill:#231f20;fill-opacity:1;fill-rule:nonzero;stroke:none"
         id="path70"
         inkscape:connector-curvature="0" />
      <path
         d="m -494.7514,532.75482 c -2.76981,0 -5.0239,-2.57135 -5.0239,-5.73519 0,-3.16529 2.25409,-5.74098 5.0239,-5.74098 2.76836,0 5.02246,2.57569 5.02246,5.74098 0,3.16384 -2.2541,5.73519 -5.02246,5.73519 m 11.94698,-0.41142 c -0.19702,-1.08938 -0.38969,-2.86107 -0.38969,-5.21367 l 0,-8.28626 c 0,-1.71229 -1.38635,-3.09865 -3.09865,-3.09865 -1.19803,0 -2.22512,0.68521 -2.73939,1.67898 -1.65869,-1.12994 -3.61292,-1.80646 -5.71925,-1.80646 -5.89019,0 -10.68376,5.11662 -10.68376,11.40229 0,6.28567 4.79357,11.39359 10.68376,11.39359 2.47863,0 4.73707,-0.94306 6.55367,-2.46269 0.91989,2.15558 2.23526,2.567 3.45502,2.567 l 1.5486,0 c 1.71375,0 3.10011,-1.38636 3.10011,-3.1001 0,-1.57903 -1.1792,-2.88426 -2.71042,-3.07403"
         style="fill:#231f20;fill-opacity:1;fill-rule:nonzero;stroke:none"
         id="path74"
         inkscape:connector-curvature="0" />
      <path
         d="m -388.70752,574.56605 c -2.37288,1.35158 -12.19179,1.39939 -19.32637,0.7475 8.5586,-3.90265 12.72925,-8.082 13.01028,-12.93351 0.26076,-4.62697 -3.08561,-8.78603 -10.22019,-12.67709 3.02622,-0.83008 7.69955,-1.6616 12.23961,-2.10054 1.94841,-0.18977 3.37388,-1.9209 3.18266,-3.86788 -0.18688,-1.94843 -1.90206,-3.39708 -3.86642,-3.18557 -19.98696,1.93539 -20.8011,6.36969 -21.10242,8.03853 -0.32595,1.77894 0.18253,4.34738 4.46328,6.45806 7.98348,3.94176 8.25438,6.4653 8.2283,6.93177 -0.0232,0.41431 -0.63595,4.18224 -14.79936,9.27567 -1.11401,0.39693 -4.4966,1.6109 -4.53716,4.84138 -0.0145,1.41098 0.63161,3.3594 3.78386,4.56178 2.83935,1.08793 10.86919,2.18745 18.51659,2.18745 6.82457,-0.005 13.34491,-0.88077 15.57727,-3.4188 1.29364,-1.46603 1.14878,-3.70563 -0.3216,-4.99927 -1.40663,-1.2357 -3.51876,-1.15168 -4.82833,0.14052"
         style="fill:#231f20;fill-opacity:1;fill-rule:nonzero;stroke:none"
         id="path78"
         inkscape:connector-curvature="0" />
      <path
         d="m -361.73215,539.64428 c 0,-0.0724 -0.0275,-0.13762 -0.0377,-0.20715 -0.0188,-0.12024 -0.0334,-0.23468 -0.0666,-0.35202 -0.029,-0.12169 -0.0651,-0.23758 -0.10859,-0.35203 -0.0348,-0.0956 -0.068,-0.18977 -0.11149,-0.27669 -0.0622,-0.13617 -0.13038,-0.26075 -0.20426,-0.38244 -0.0391,-0.0608 -0.0782,-0.12458 -0.11589,-0.18108 -0.10001,-0.13907 -0.2086,-0.2651 -0.32305,-0.38824 -0.0305,-0.0362 -0.0695,-0.0738 -0.10581,-0.10859 -0.13037,-0.12748 -0.268,-0.24192 -0.41866,-0.34767 -0.0362,-0.0247 -0.0666,-0.0477 -0.1043,-0.0724 -0.14921,-0.0971 -0.3129,-0.18253 -0.48095,-0.25931 -0.0419,-0.0189 -0.084,-0.042 -0.12893,-0.0608 -0.16369,-0.0593 -0.32594,-0.11161 -0.49399,-0.15066 -0.0695,-0.0159 -0.13472,-0.0319 -0.2057,-0.042 -0.14487,-0.029 -0.28973,-0.0406 -0.44474,-0.0477 -0.0608,-10e-4 -0.11879,-0.0174 -0.17818,-0.0174 -0.0493,0 -0.0941,0.0145 -0.14052,0.0159 -0.0522,10e-4 -0.0999,-0.006 -0.15211,-10e-4 -18.8686,1.57033 -20.94016,1.8702 -20.98507,5.73084 -0.0145,1.10677 0.60553,2.95814 2.82196,3.58105 l 0,21.74417 c 0,1.95857 1.58771,3.54194 3.54483,3.54194 1.95567,0 3.54049,-1.58337 3.54049,-3.54194 l 0,-22.88425 c 1.83978,-0.2144 4.37926,-0.47371 7.82848,-0.78372 l 0,24.21845 c 0,1.95712 1.58772,3.54049 3.54194,3.54049 1.95567,0 3.54339,-1.58337 3.54339,-3.54049 l 0,-28.07909 c 0,-0.0508 -0.0145,-0.0985 -0.016,-0.14921 -10e-4,-0.0508 0,-0.0956 0.001,-0.14631"
         style="fill:#231f20;fill-opacity:1;fill-rule:nonzero;stroke:none"
         id="path82"
         inkscape:connector-curvature="0" />
      <path
         d="m -320.53341,576.02309 -2.11936,-0.6939 c -0.29118,-1.28495 -0.43894,-4.28075 0.29407,-8.23265 l 2.01217,-10.9054 c 0.35782,-1.92525 -0.91265,-3.77083 -2.83645,-4.12574 -1.93104,-0.34623 -3.77082,0.91264 -4.13009,2.83789 l -2.00927,10.9054 c -0.60843,3.27539 -2.14399,14.10402 3.484,15.9351 l 3.11313,1.01261 c 0.36506,0.11879 0.73447,0.17528 1.09808,0.17528 1.48776,0 2.87846,-0.95031 3.36375,-2.44531 0.60698,-1.86151 -0.40852,-3.85774 -2.27003,-4.46328"
         style="fill:#231f20;fill-opacity:1;fill-rule:nonzero;stroke:none"
         id="path86"
         inkscape:connector-curvature="0" />
      <path
         d="m -349.71853,566.1655 c -0.22454,-1.35883 -0.44908,-3.59554 -0.44908,-6.60437 l 0,-10.07388 c 0,-1.95567 -1.58337,-3.54194 -3.54194,-3.54194 -1.95567,0 -3.54049,1.58627 -3.54049,3.54194 l 0,10.07388 c 0,11.97015 2.49457,13.62016 5.19484,13.62016 l 1.64856,0 c 1.95857,0 3.53904,-1.58337 3.53904,-3.54194 0,-1.72099 -1.2241,-3.1537 -2.85093,-3.47385"
         style="fill:#231f20;fill-opacity:1;fill-rule:nonzero;stroke:none"
         id="path90"
         inkscape:connector-curvature="0" />
      <path
         d="m -327.85863,548.38715 c 1.70071,0 3.30871,-1.01261 3.99102,-2.68289 0.90251,-2.20195 -0.1579,-4.71824 -2.36129,-5.61785 l -21.66449,-8.84833 c -2.20049,-0.90975 -4.72258,0.15646 -5.6193,2.35985 -0.90105,2.20339 0.15791,4.71823 2.35985,5.61639 l 9.58424,3.91569 c -0.44908,8.61075 -0.98653,17.88932 -1.2893,21.96002 -0.21585,0.45632 -0.33319,0.96045 -0.33319,1.49935 0,3.10444 1.17775,4.71244 3.50283,4.77038 0.055,0.003 0.11148,0.003 0.16514,0.003 3.33334,0 3.52456,-2.75532 3.83602,-7.2693 0.16369,-2.39606 0.35781,-5.59032 0.54324,-8.78314 0.19701,-3.45791 0.38823,-6.90424 0.51716,-9.34376 l 5.14125,2.09764 c 0.53165,0.22164 1.08358,0.32305 1.62682,0.32305"
         style="fill:#231f20;fill-opacity:1;fill-rule:nonzero;stroke:none"
         id="path94"
         inkscape:connector-curvature="0" />
      <path
         d="m -386.50906,463.27634 c 0.52151,0.22888 1.0662,0.33898 1.6022,0.33898 1.51529,0 2.95669,-0.87353 3.61582,-2.3497 l 1.0662,-2.39896 c 0.88657,-1.99478 -0.0145,-4.33 -2.00927,-5.21802 -1.99623,-0.88367 -4.32565,0.0145 -5.21657,2.00927 l -1.0662,2.39751 c -0.88802,1.99478 0.0145,4.33435 2.00782,5.22092"
         style="fill:#231f20;fill-opacity:1;fill-rule:nonzero;stroke:none"
         id="path98"
         inkscape:connector-curvature="0" />
      <path
         d="m -469.34491,467.47799 c -0.95465,-2.22802 -3.53759,-3.25656 -5.7685,-2.30045 l -12.57569,5.40345 0,-2.05129 c 0,-0.11009 -0.0261,-0.2144 -0.0334,-0.32015 0,-0.1014 0,-0.19846 -0.0145,-0.30131 -0.0145,-0.0623 -0.0276,-0.11439 -0.0377,-0.17819 -0.0145,-0.0579 -0.0218,-0.11299 -0.0334,-0.16659 -0.54758,-3.09431 -2.19469,-4.39085 -3.51586,-4.9167 -3.09865,-1.2328 -5.57583,0.75039 -7.57207,2.33811 -1.2241,0.97349 -2.89729,2.30769 -3.98812,2.37867 -2.42358,0.15356 -4.26626,2.24251 -4.10836,4.66319 0.14342,2.32798 2.07881,4.11561 4.37781,4.11561 0.0927,0 0.18688,-10e-4 0.28104,-0.006 2.24105,-0.14631 4.20107,-1.02564 5.85252,-2.05418 l 0,3.18123 0,0.0218 0,18.11966 c 0,2.42648 1.96582,4.39519 4.39375,4.39519 2.42648,0 4.39374,-1.96871 4.39374,-4.39519 l 0,-9.99276 c 2.2396,1.88324 4.79936,2.36854 6.51745,2.68869 2.5163,0.46791 3.45357,0.64175 3.39852,7.26496 -0.0232,2.42793 1.92815,4.41257 4.35463,4.4343 l 0.0391,0 c 2.4062,0 4.37201,-1.94263 4.39374,-4.35463 0.0971,-11.61089 -4.15472,-14.78777 -10.57221,-15.98435 -1.83544,-0.33898 -2.55107,-0.48964 -3.03926,-1.50949 l 10.95031,-4.70375 c 2.22946,-0.95466 3.26235,-3.54049 2.30189,-5.76995"
         style="fill:#231f20;fill-opacity:1;fill-rule:nonzero;stroke:none"
         id="path102"
         inkscape:connector-curvature="0" />
      <path
         d="m -451.89612,491.22084 c -3.92583,0 -7.1172,-3.64768 -7.1172,-8.13124 0,-4.48501 3.19137,-8.13415 7.1172,-8.13415 3.92727,0 7.12009,3.64914 7.12009,8.13415 0,4.48356 -3.19282,8.13124 -7.12009,8.13124 m 0,-24.28798 c -8.34999,0 -15.13835,7.24902 -15.13835,16.15674 0,8.90772 6.78836,16.1495 15.13835,16.1495 8.34999,0 15.14124,-7.24178 15.14124,-16.1495 0,-8.90772 -6.79125,-16.15674 -15.14124,-16.15674"
         style="fill:#231f20;fill-opacity:1;fill-rule:nonzero;stroke:none"
         id="path106"
         inkscape:connector-curvature="0" />
      <path
         d="m -331.7646,491.22084 c -3.92873,0 -7.12154,-3.64768 -7.12154,-8.13124 0,-4.48501 3.19281,-8.13415 7.12154,-8.13415 3.92293,0 7.12009,3.64914 7.12009,8.13415 0,4.48356 -3.19716,8.13124 -7.12009,8.13124 m 16.93176,-0.5867 c -0.27524,-1.5457 -0.55048,-4.05186 -0.55048,-7.38519 l 0,-11.74272 c 0,-2.42648 -1.97016,-4.39519 -4.39519,-4.39519 -1.68912,0 -3.14066,0.9619 -3.87078,2.36419 -2.35115,-1.59931 -5.12965,-2.54237 -8.11531,-2.54237 -8.35144,0 -15.14414,7.24902 -15.14414,16.15674 0,8.90772 6.7927,16.1495 15.14414,16.1495 3.50862,0 6.73475,-1.28785 9.30754,-3.43764 1.30523,3.00739 3.16095,3.58395 4.87759,3.58395 l 2.19905,0 c 2.42358,0 4.39519,-1.96871 4.39519,-4.39374 0,-2.23961 -1.67898,-4.08808 -3.84761,-4.35753"
         style="fill:#231f20;fill-opacity:1;fill-rule:nonzero;stroke:none"
         id="path110"
         inkscape:connector-curvature="0" />
      <path
         d="m -345.391,464.30067 c -1.31392,-2.04404 -4.03448,-2.63219 -6.06982,-1.32117 -3.50283,2.2541 -6.09301,6.56816 -8.06751,11.7094 -0.63016,-0.79096 -1.33275,-1.49934 -2.11937,-2.12516 -5.29335,-4.20686 -11.63697,-2.59597 -12.3439,-2.4004 -2.33377,0.64899 -3.6984,3.07547 -3.04506,5.41213 0.649,2.33957 3.07693,3.6955 5.41359,3.05085 0.0217,-0.0104 2.68434,-0.63016 4.50674,0.81559 1.89627,1.51238 2.81616,5.19774 2.57858,10.37665 -0.3187,7.10125 -0.43749,9.75662 3.73461,10.22888 0.22889,0.029 0.44329,0.0392 0.65189,0.0392 3.56802,-10e-4 4.24164,-3.68245 4.61249,-5.7149 3.12762,-17.15486 6.53049,-22.52209 8.82949,-24.00406 2.04259,-1.30957 2.63219,-4.02723 1.31827,-6.06692"
         style="fill:#231f20;fill-opacity:1;fill-rule:nonzero;stroke:none"
         id="path114"
         inkscape:connector-curvature="0" />
      <path
         d="m -392.15645,445.40034 c 3.3087,-6.15384 5.10502,-10.08691 2.18889,-12.85238 -2.85382,-2.69882 -6.1857,-0.66348 -10.40995,1.90932 -5.49036,3.34926 -11.52397,6.69419 -13.53035,3.97073 -1.31537,-1.78473 -3.82297,-2.16282 -5.6077,-0.8489 -1.78328,1.31537 -2.16428,3.82442 -0.85036,5.60915 5.2383,7.10126 13.63176,4.03158 19.93336,0.60119 -0.96335,1.68477 -1.83978,3.0972 -2.64522,4.3865 -5.08909,8.19788 -5.63089,11.25452 0.75909,22.47573 1.27915,2.24105 -3.64045,19.04679 0.38678,23.84905 0.4882,0.79386 0.88223,1.48051 1.09373,2.29175 0.20426,0.81125 -0.0145,1.86876 -0.60263,2.96828 1.22555,-0.0855 3.12617,0.1101 3.65203,-1.35593 0.89816,-2.51051 -1.09807,-6.26395 -0.71853,-11.22266 0,-0.0579 0.0145,-0.11734 0.0189,-0.17963 0.46067,-1.79342 1.05462,-3.79545 1.79777,-5.825 3.71867,-10.15646 4.36332,-9.19311 1.34579,-14.49225 -4.68202,-8.21961 -4.68202,-8.21961 -0.91409,-14.27785 1.12415,-1.8137 2.52644,-4.07069 4.10256,-7.0071"
         style="fill:#231f20;fill-opacity:1;fill-rule:nonzero;stroke:none"
         id="path118"
         inkscape:connector-curvature="0" />
      <path
         d="m -376.11532,490.43844 -3.13632,0 c -0.51571,-1.10532 -1.25887,-3.62162 -1.25887,-7.34898 l 0,-11.74562 c 0,-2.42648 -1.96871,-4.39229 -4.39229,-4.39229 -2.42648,0 -4.39519,1.96581 -4.39519,4.39229 l 0,11.74562 c 0,8.03129 2.71621,16.13501 8.78748,16.13501 l 4.39519,0 c 2.42503,0 4.39374,-1.96436 4.39374,-4.39229 0,-2.42648 -1.96871,-4.39374 -4.39374,-4.39374"
         style="fill:#231f20;fill-opacity:1;fill-rule:nonzero;stroke:none"
         id="path122"
         inkscape:connector-curvature="0" />
      <path
         d="m -412.06402,467.14407 c -2.09909,0 -3.80414,1.70216 -3.80414,3.80124 l 0,12.144 c 0,4.9167 -2.78285,8.33985 -5.27887,8.33985 -2.49746,0 -5.28465,-3.42315 -5.28465,-8.33985 l 0,-12.144 c 0,-2.09908 -1.69927,-3.80124 -3.79401,-3.80124 -2.09908,0 -3.80124,1.70216 -3.80124,3.80124 l 0,12.144 c 0,8.79038 5.77864,15.94234 12.8799,15.94234 7.09981,0 12.87846,-7.15196 12.87846,-15.94234 l 0,-12.144 c 0,-2.09908 -1.70071,-3.80124 -3.79545,-3.80124"
         style="fill:#231f20;fill-opacity:1;fill-rule:nonzero;stroke:none"
         id="path126"
         inkscape:connector-curvature="0" />
    </g>
  </g>
</svg>
