<?xml version="1.0" encoding="UTF-8" standalone="no"?>
<!-- Created with Inkscape (http://www.inkscape.org/) -->

<svg
   xmlns:dc="http://purl.org/dc/elements/1.1/"
   xmlns:cc="http://creativecommons.org/ns#"
   xmlns:rdf="http://www.w3.org/1999/02/22-rdf-syntax-ns#"
   xmlns:svg="http://www.w3.org/2000/svg"
   xmlns="http://www.w3.org/2000/svg"
   xmlns:sodipodi="http://sodipodi.sourceforge.net/DTD/sodipodi-0.dtd"
   xmlns:inkscape="http://www.inkscape.org/namespaces/inkscape"
   width="200.00009"
   height="177.80014"
   viewBox="0 0 200.00009 177.80015"
   id="svg23169"
   version="1.1"
   inkscape:version="0.91 r13725"
   sodipodi:docname="logo.svg">
  <defs
     id="defs23171" />
  <sodipodi:namedview
     id="base"
     pagecolor="#ffffff"
     bordercolor="#666666"
     borderopacity="1.0"
     inkscape:pageopacity="0.0"
     inkscape:pageshadow="2"
     inkscape:zoom="1.4"
     inkscape:cx="-71.034338"
     inkscape:cy="100.54084"
     inkscape:document-units="px"
     inkscape:current-layer="layer1"
     showgrid="false"
     fit-margin-top="0"
     fit-margin-left="0"
     fit-margin-right="0"
     fit-margin-bottom="0"
     units="px"
     inkscape:window-width="1881"
     inkscape:window-height="1176"
     inkscape:window-x="39"
     inkscape:window-y="24"
     inkscape:window-maximized="1" />
  <metadata
     id="metadata23174">
    <rdf:RDF>
      <cc:Work
         rdf:about="">
        <dc:format>image/svg+xml</dc:format>
        <dc:type
           rdf:resource="http://purl.org/dc/dcmitype/StillImage" />
        <dc:title></dc:title>
      </cc:Work>
    </rdf:RDF>
  </metadata>
  <g
     inkscape:label="Layer 1"
     inkscape:groupmode="layer"
     id="layer1"
     transform="translate(507.00194,-431.27174)">
    <path
       inkscape:connector-curvature="0"
       id="path58"
       style="fill:#7c8c36;fill-opacity:1;fill-rule:nonzero;stroke:none"
       d="m -310.43678,528.13016 -40.69244,-20.45053 c -1.46024,-0.73011 -3.14501,-0.86629 -4.70231,-0.3665 l -37.79081,12.10488 0,-11.54426 c 0,-3.44488 -2.79298,-6.23786 -6.23497,-6.23786 -3.44632,0 -6.23931,2.79298 -6.23931,6.23786 l 0,15.54252 -13.57091,4.34738 c -3.28408,1.04882 -5.09199,4.56179 -4.04027,7.84297 0.85035,2.64957 3.30001,4.33579 5.93799,4.33579 0.63306,0 1.27191,-0.0971 1.90787,-0.29842 l 61.41097,-19.67115 38.40938,19.30465 c 3.07838,1.54135 6.82747,0.30566 8.37462,-2.77416 1.54571,-3.07982 0.30567,-6.82891 -2.76981,-8.37317" />
    <path
       inkscape:connector-curvature="0"
       id="path62"
       style="fill:#231f20;fill-opacity:1;fill-rule:nonzero;stroke:none"
       d="m -440.59408,512.96603 c 0.74026,0 1.48631,-0.24627 2.10778,-0.7475 l 1.73113,-1.40084 c 1.4443,-1.16471 1.67173,-3.27828 0.50847,-4.72114 -1.17195,-1.44285 -3.28408,-1.67173 -4.72403,-0.50557 l -1.73403,1.40084 c -1.44285,1.16471 -1.67029,3.27828 -0.50558,4.72258 0.66493,0.82138 1.63553,1.25163 2.61626,1.25163" />
    <path
       inkscape:connector-curvature="0"
       id="path66"
       style="fill:#231f20;fill-opacity:1;fill-rule:nonzero;stroke:none"
       d="m -454.76516,513.18665 c -8.84977,-0.16369 -14.78487,0.69246 -18.54121,1.59496 -0.071,-0.006 -0.14052,-0.0217 -0.2144,-0.0217 -0.64465,0 -1.24149,0.20281 -1.73693,0.54179 -2.07735,0.63016 -3.11893,1.185 -3.37099,1.33131 -1.4501,0.83732 -1.94119,2.66985 -1.1256,4.13588 0.55628,1.00391 1.6051,1.56599 2.68579,1.56599 0.16225,0 0.3187,-0.0334 0.4824,-0.058 l 0,14.41982 c 0,1.69346 1.37186,3.06678 3.06533,3.06678 1.69491,0 3.06823,-1.37332 3.06823,-3.06678 l 0,-16.26394 c 1.9209,-0.3839 4.42996,-0.74461 7.62422,-0.95176 l 0,16.90713 c 0,1.69347 1.36897,3.06679 3.06389,3.06679 1.69346,0 3.06823,-1.37332 3.06823,-3.06679 l 0,-17.08532 c 0.59394,0.003 1.17919,0.003 1.80935,0.0145 1.70361,-0.0681 3.09431,-1.31537 3.12908,-3.00594 0.029,-1.69202 -1.31103,-3.09286 -3.00739,-3.12473" />
    <path
       inkscape:connector-curvature="0"
       id="path70"
       style="fill:#231f20;fill-opacity:1;fill-rule:nonzero;stroke:none"
       d="m -440.59973,533.47769 c -2.99724,0 -5.43676,-2.78719 -5.43676,-6.21324 0,-3.42605 2.43952,-6.21759 5.43676,-6.21759 3.00305,0 5.44401,2.79154 5.44401,6.21759 0,3.42605 -2.44096,6.21324 -5.44401,6.21324 m 0,-18.56149 c -6.37838,0 -11.56598,5.54107 -11.56598,12.34825 0,6.80574 5.1876,12.34391 11.56598,12.34391 6.38274,0 11.57613,-5.53817 11.57613,-12.34391 0,-6.80718 -5.19339,-12.34825 -11.57613,-12.34825" />
    <path
       inkscape:connector-curvature="0"
       id="path74"
       style="fill:#231f20;fill-opacity:1;fill-rule:nonzero;stroke:none"
       d="m -494.7514,532.75482 c -2.76981,0 -5.0239,-2.57135 -5.0239,-5.73519 0,-3.16529 2.25409,-5.74098 5.0239,-5.74098 2.76836,0 5.02246,2.57569 5.02246,5.74098 0,3.16384 -2.2541,5.73519 -5.02246,5.73519 m 11.94698,-0.41142 c -0.19702,-1.08938 -0.38969,-2.86107 -0.38969,-5.21367 l 0,-8.28626 c 0,-1.71229 -1.38635,-3.09865 -3.09865,-3.09865 -1.19803,0 -2.22512,0.68521 -2.73939,1.67898 -1.65869,-1.12994 -3.61292,-1.80646 -5.71925,-1.80646 -5.89019,0 -10.68376,5.11662 -10.68376,11.40229 0,6.28567 4.79357,11.39359 10.68376,11.39359 2.47863,0 4.73707,-0.94306 6.55367,-2.46269 0.91989,2.15558 2.23526,2.567 3.45502,2.567 l 1.5486,0 c 1.71375,0 3.10011,-1.38636 3.10011,-3.1001 0,-1.57903 -1.1792,-2.88426 -2.71042,-3.07403" />
    <path
       inkscape:connector-curvature="0"
       id="path78"
       style="fill:#231f20;fill-opacity:1;fill-rule:nonzero;stroke:none"
       d="m -388.70752,574.56605 c -2.37288,1.35158 -12.19179,1.39939 -19.32637,0.7475 8.5586,-3.90265 12.72925,-8.082 13.01028,-12.93351 0.26076,-4.62697 -3.08561,-8.78603 -10.22019,-12.67709 3.02622,-0.83008 7.69955,-1.6616 12.23961,-2.10054 1.94841,-0.18977 3.37388,-1.9209 3.18266,-3.86788 -0.18688,-1.94843 -1.90206,-3.39708 -3.86642,-3.18557 -19.98696,1.93539 -20.8011,6.36969 -21.10242,8.03853 -0.32595,1.77894 0.18253,4.34738 4.46328,6.45806 7.98348,3.94176 8.25438,6.4653 8.2283,6.93177 -0.0232,0.41431 -0.63595,4.18224 -14.79936,9.27567 -1.11401,0.39693 -4.4966,1.6109 -4.53716,4.84138 -0.0145,1.41098 0.63161,3.3594 3.78386,4.56178 2.83935,1.08793 10.86919,2.18745 18.51659,2.18745 6.82457,-0.005 13.34491,-0.88077 15.57727,-3.4188 1.29364,-1.46603 1.14878,-3.70563 -0.3216,-4.99927 -1.40663,-1.2357 -3.51876,-1.15168 -4.82833,0.14052" />
    <path
       inkscape:connector-curvature="0"
       id="path82"
       style="fill:#231f20;fill-opacity:1;fill-rule:nonzero;stroke:none"
       d="m -361.73215,539.64428 c 0,-0.0724 -0.0275,-0.13762 -0.0377,-0.20715 -0.0188,-0.12024 -0.0334,-0.23468 -0.0666,-0.35202 -0.029,-0.12169 -0.0651,-0.23758 -0.10859,-0.35203 -0.0348,-0.0956 -0.068,-0.18977 -0.11149,-0.27669 -0.0622,-0.13617 -0.13038,-0.26075 -0.20426,-0.38244 -0.0391,-0.0608 -0.0782,-0.12458 -0.11589,-0.18108 -0.10001,-0.13907 -0.2086,-0.2651 -0.32305,-0.38824 -0.0305,-0.0362 -0.0695,-0.0738 -0.10581,-0.10859 -0.13037,-0.12748 -0.268,-0.24192 -0.41866,-0.34767 -0.0362,-0.0247 -0.0666,-0.0477 -0.1043,-0.0724 -0.14921,-0.0971 -0.3129,-0.18253 -0.48095,-0.25931 -0.0419,-0.0189 -0.084,-0.042 -0.12893,-0.0608 -0.16369,-0.0593 -0.32594,-0.11161 -0.49399,-0.15066 -0.0695,-0.0159 -0.13472,-0.0319 -0.2057,-0.042 -0.14487,-0.029 -0.28973,-0.0406 -0.44474,-0.0477 -0.0608,-10e-4 -0.11879,-0.0174 -0.17818,-0.0174 -0.0493,0 -0.0941,0.0145 -0.14052,0.0159 -0.0522,10e-4 -0.0999,-0.006 -0.15211,-10e-4 -18.8686,1.57033 -20.94016,1.8702 -20.98507,5.73084 -0.0145,1.10677 0.60553,2.95814 2.82196,3.58105 l 0,21.74417 c 0,1.95857 1.58771,3.54194 3.54483,3.54194 1.95567,0 3.54049,-1.58337 3.54049,-3.54194 l 0,-22.88425 c 1.83978,-0.2144 4.37926,-0.47371 7.82848,-0.78372 l 0,24.21845 c 0,1.95712 1.58772,3.54049 3.54194,3.54049 1.95567,0 3.54339,-1.58337 3.54339,-3.54049 l 0,-28.07909 c 0,-0.0508 -0.0145,-0.0985 -0.016,-0.14921 -10e-4,-0.0508 0,-0.0956 0.001,-0.14631" />
    <path
       inkscape:connector-curvature="0"
       id="path86"
       style="fill:#231f20;fill-opacity:1;fill-rule:nonzero;stroke:none"
       d="m -320.53341,576.02309 -2.11936,-0.6939 c -0.29118,-1.28495 -0.43894,-4.28075 0.29407,-8.23265 l 2.01217,-10.9054 c 0.35782,-1.92525 -0.91265,-3.77083 -2.83645,-4.12574 -1.93104,-0.34623 -3.77082,0.91264 -4.13009,2.83789 l -2.00927,10.9054 c -0.60843,3.27539 -2.14399,14.10402 3.484,15.9351 l 3.11313,1.01261 c 0.36506,0.11879 0.73447,0.17528 1.09808,0.17528 1.48776,0 2.87846,-0.95031 3.36375,-2.44531 0.60698,-1.86151 -0.40852,-3.85774 -2.27003,-4.46328" />
    <path
       inkscape:connector-curvature="0"
       id="path90"
       style="fill:#231f20;fill-opacity:1;fill-rule:nonzero;stroke:none"
       d="m -349.71853,566.1655 c -0.22454,-1.35883 -0.44908,-3.59554 -0.44908,-6.60437 l 0,-10.07388 c 0,-1.95567 -1.58337,-3.54194 -3.54194,-3.54194 -1.95567,0 -3.54049,1.58627 -3.54049,3.54194 l 0,10.07388 c 0,11.97015 2.49457,13.62016 5.19484,13.62016 l 1.64856,0 c 1.95857,0 3.53904,-1.58337 3.53904,-3.54194 0,-1.72099 -1.2241,-3.1537 -2.85093,-3.47385" />
    <path
       inkscape:connector-curvature="0"
       id="path94"
       style="fill:#231f20;fill-opacity:1;fill-rule:nonzero;stroke:none"
       d="m -327.85863,548.38715 c 1.70071,0 3.30871,-1.01261 3.99102,-2.68289 0.90251,-2.20195 -0.1579,-4.71824 -2.36129,-5.61785 l -21.66449,-8.84833 c -2.20049,-0.90975 -4.72258,0.15646 -5.6193,2.35985 -0.90105,2.20339 0.15791,4.71823 2.35985,5.61639 l 9.58424,3.91569 c -0.44908,8.61075 -0.98653,17.88932 -1.2893,21.96002 -0.21585,0.45632 -0.33319,0.96045 -0.33319,1.49935 0,3.10444 1.17775,4.71244 3.50283,4.77038 0.055,0.003 0.11148,0.003 0.16514,0.003 3.33334,0 3.52456,-2.75532 3.83602,-7.2693 0.16369,-2.39606 0.35781,-5.59032 0.54324,-8.78314 0.19701,-3.45791 0.38823,-6.90424 0.51716,-9.34376 l 5.14125,2.09764 c 0.53165,0.22164 1.08358,0.32305 1.62682,0.32305" />
    <path
       inkscape:connector-curvature="0"
       id="path98"
       style="fill:#231f20;fill-opacity:1;fill-rule:nonzero;stroke:none"
       d="m -386.50906,463.27634 c 0.52151,0.22888 1.0662,0.33898 1.6022,0.33898 1.51529,0 2.95669,-0.87353 3.61582,-2.3497 l 1.0662,-2.39896 c 0.88657,-1.99478 -0.0145,-4.33 -2.00927,-5.21802 -1.99623,-0.88367 -4.32565,0.0145 -5.21657,2.00927 l -1.0662,2.39751 c -0.88802,1.99478 0.0145,4.33435 2.00782,5.22092" />
    <path
       inkscape:connector-curvature="0"
       id="path102"
       style="fill:#231f20;fill-opacity:1;fill-rule:nonzero;stroke:none"
       d="m -469.34491,467.47799 c -0.95465,-2.22802 -3.53759,-3.25656 -5.7685,-2.30045 l -12.57569,5.40345 0,-2.05129 c 0,-0.11009 -0.0261,-0.2144 -0.0334,-0.32015 0,-0.1014 0,-0.19846 -0.0145,-0.30131 -0.0145,-0.0623 -0.0276,-0.11439 -0.0377,-0.17819 -0.0145,-0.0579 -0.0218,-0.11299 -0.0334,-0.16659 -0.54758,-3.09431 -2.19469,-4.39085 -3.51586,-4.9167 -3.09865,-1.2328 -5.57583,0.75039 -7.57207,2.33811 -1.2241,0.97349 -2.89729,2.30769 -3.98812,2.37867 -2.42358,0.15356 -4.26626,2.24251 -4.10836,4.66319 0.14342,2.32798 2.07881,4.11561 4.37781,4.11561 0.0927,0 0.18688,-10e-4 0.28104,-0.006 2.24105,-0.14631 4.20107,-1.02564 5.85252,-2.05418 l 0,3.18123 0,0.0218 0,18.11966 c 0,2.42648 1.96582,4.39519 4.39375,4.39519 2.42648,0 4.39374,-1.96871 4.39374,-4.39519 l 0,-9.99276 c 2.2396,1.88324 4.79936,2.36854 6.51745,2.68869 2.5163,0.46791 3.45357,0.64175 3.39852,7.26496 -0.0232,2.42793 1.92815,4.41257 4.35463,4.4343 l 0.0391,0 c 2.4062,0 4.37201,-1.94263 4.39374,-4.35463 0.0971,-11.61089 -4.15472,-14.78777 -10.57221,-15.98435 -1.83544,-0.33898 -2.55107,-0.48964 -3.03926,-1.50949 l 10.95031,-4.70375 c 2.22946,-0.95466 3.26235,-3.54049 2.30189,-5.76995" />
    <path
       inkscape:connector-curvature="0"
       id="path106"
       style="fill:#231f20;fill-opacity:1;fill-rule:nonzero;stroke:none"
       d="m -451.89612,491.22084 c -3.92583,0 -7.1172,-3.64768 -7.1172,-8.13124 0,-4.48501 3.19137,-8.13415 7.1172,-8.13415 3.92727,0 7.12009,3.64914 7.12009,8.13415 0,4.48356 -3.19282,8.13124 -7.12009,8.13124 m 0,-24.28798 c -8.34999,0 -15.13835,7.24902 -15.13835,16.15674 0,8.90772 6.78836,16.1495 15.13835,16.1495 8.34999,0 15.14124,-7.24178 15.14124,-16.1495 0,-8.90772 -6.79125,-16.15674 -15.14124,-16.15674" />
    <path
       inkscape:connector-curvature="0"
       id="path110"
       style="fill:#231f20;fill-opacity:1;fill-rule:nonzero;stroke:none"
       d="m -331.7646,491.22084 c -3.92873,0 -7.12154,-3.64768 -7.12154,-8.13124 0,-4.48501 3.19281,-8.13415 7.12154,-8.13415 3.92293,0 7.12009,3.64914 7.12009,8.13415 0,4.48356 -3.19716,8.13124 -7.12009,8.13124 m 16.93176,-0.5867 c -0.27524,-1.5457 -0.55048,-4.05186 -0.55048,-7.38519 l 0,-11.74272 c 0,-2.42648 -1.97016,-4.39519 -4.39519,-4.39519 -1.68912,0 -3.14066,0.9619 -3.87078,2.36419 -2.35115,-1.59931 -5.12965,-2.54237 -8.11531,-2.54237 -8.35144,0 -15.14414,7.24902 -15.14414,16.15674 0,8.90772 6.7927,16.1495 15.14414,16.1495 3.50862,0 6.73475,-1.28785 9.30754,-3.43764 1.30523,3.00739 3.16095,3.58395 4.87759,3.58395 l 2.19905,0 c 2.42358,0 4.39519,-1.96871 4.39519,-4.39374 0,-2.23961 -1.67898,-4.08808 -3.84761,-4.35753" />
    <path
       inkscape:connector-curvature="0"
       id="path114"
       style="fill:#231f20;fill-opacity:1;fill-rule:nonzero;stroke:none"
       d="m -345.391,464.30067 c -1.31392,-2.04404 -4.03448,-2.63219 -6.06982,-1.32117 -3.50283,2.2541 -6.09301,6.56816 -8.06751,11.7094 -0.63016,-0.79096 -1.33275,-1.49934 -2.11937,-2.12516 -5.29335,-4.20686 -11.63697,-2.59597 -12.3439,-2.4004 -2.33377,0.64899 -3.6984,3.07547 -3.04506,5.41213 0.649,2.33957 3.07693,3.6955 5.41359,3.05085 0.0217,-0.0104 2.68434,-0.63016 4.50674,0.81559 1.89627,1.51238 2.81616,5.19774 2.57858,10.37665 -0.3187,7.10125 -0.43749,9.75662 3.73461,10.22888 0.22889,0.029 0.44329,0.0392 0.65189,0.0392 3.56802,-10e-4 4.24164,-3.68245 4.61249,-5.7149 3.12762,-17.15486 6.53049,-22.52209 8.82949,-24.00406 2.04259,-1.30957 2.63219,-4.02723 1.31827,-6.06692" />
    <path
       inkscape:connector-curvature="0"
       id="path118"
       style="fill:#231f20;fill-opacity:1;fill-rule:nonzero;stroke:none"
       d="m -392.15645,445.40034 c 3.3087,-6.15384 5.10502,-10.08691 2.18889,-12.85238 -2.85382,-2.69882 -6.1857,-0.66348 -10.40995,1.90932 -5.49036,3.34926 -11.52397,6.69419 -13.53035,3.97073 -1.31537,-1.78473 -3.82297,-2.16282 -5.6077,-0.8489 -1.78328,1.31537 -2.16428,3.82442 -0.85036,5.60915 5.2383,7.10126 13.63176,4.03158 19.93336,0.60119 -0.96335,1.68477 -1.83978,3.0972 -2.64522,4.3865 -5.08909,8.19788 -5.63089,11.25452 0.75909,22.47573 1.27915,2.24105 -3.64045,19.04679 0.38678,23.84905 0.4882,0.79386 0.88223,1.48051 1.09373,2.29175 0.20426,0.81125 -0.0145,1.86876 -0.60263,2.96828 1.22555,-0.0855 3.12617,0.1101 3.65203,-1.35593 0.89816,-2.51051 -1.09807,-6.26395 -0.71853,-11.22266 0,-0.0579 0.0145,-0.11734 0.0189,-0.17963 0.46067,-1.79342 1.05462,-3.79545 1.79777,-5.825 3.71867,-10.15646 4.36332,-9.19311 1.34579,-14.49225 -4.68202,-8.21961 -4.68202,-8.21961 -0.91409,-14.27785 1.12415,-1.8137 2.52644,-4.07069 4.10256,-7.0071" />
    <path
       inkscape:connector-curvature="0"
       id="path122"
       style="fill:#231f20;fill-opacity:1;fill-rule:nonzero;stroke:none"
       d="m -376.11532,490.43844 -3.13632,0 c -0.51571,-1.10532 -1.25887,-3.62162 -1.25887,-7.34898 l 0,-11.74562 c 0,-2.42648 -1.96871,-4.39229 -4.39229,-4.39229 -2.42648,0 -4.39519,1.96581 -4.39519,4.39229 l 0,11.74562 c 0,8.03129 2.71621,16.13501 8.78748,16.13501 l 4.39519,0 c 2.42503,0 4.39374,-1.96436 4.39374,-4.39229 0,-2.42648 -1.96871,-4.39374 -4.39374,-4.39374" />
    <path
       inkscape:connector-curvature="0"
       id="path126"
       style="fill:#231f20;fill-opacity:1;fill-rule:nonzero;stroke:none"
       d="m -412.06402,467.14407 c -2.09909,0 -3.80414,1.70216 -3.80414,3.80124 l 0,12.144 c 0,4.9167 -2.78285,8.33985 -5.27887,8.33985 -2.49746,0 -5.28465,-3.42315 -5.28465,-8.33985 l 0,-12.144 c 0,-2.09908 -1.69927,-3.80124 -3.79401,-3.80124 -2.09908,0 -3.80124,1.70216 -3.80124,3.80124 l 0,12.144 c 0,8.79038 5.77864,15.94234 12.8799,15.94234 7.09981,0 12.87846,-7.15196 12.87846,-15.94234 l 0,-12.144 c 0,-2.09908 -1.70071,-3.80124 -3.79545,-3.80124" />
    <path
       inkscape:connector-curvature="0"
       id="path130"
       style="fill:#231f20;fill-opacity:1;fill-rule:nonzero;stroke:none"
       d="m -498.01505,583.73322 c 1.48632,-0.0681 2.58729,-0.56207 3.30002,-1.47906 0.71273,-0.91844 1.0691,-2.13386 1.0691,-3.64479 0,-0.72143 -0.0855,-1.38781 -0.25496,-2.00058 -0.17094,-0.61278 -0.4346,-1.14588 -0.79096,-1.60221 -0.35637,-0.45632 -0.8098,-0.81703 -1.36028,-1.08213 -0.54904,-0.26511 -1.20527,-0.41287 -1.96292,-0.43894 l 0,10.24771 z m -1.51093,-10.26799 c -1.48631,0.13617 -2.58728,0.65913 -3.30002,1.57178 -0.71273,0.91119 -1.07055,2.10198 -1.07055,3.57236 0,1.44285 0.36506,2.61335 1.09373,3.51151 0.72722,0.89816 1.8195,1.42837 3.27684,1.59206 l 0,-10.24771 z m 1.51093,12.14689 -1.51093,0 0,-0.81704 c -0.93003,-0.055 -1.75431,-0.24482 -2.47574,-0.57077 -0.71997,-0.32739 -1.32406,-0.76343 -1.81225,-1.30667 -0.4882,-0.54469 -0.85615,-1.185 -1.10387,-1.91946 -0.24917,-0.73591 -0.37085,-1.53122 -0.37085,-2.38881 0,-0.81704 0.11879,-1.58917 0.35926,-2.31784 0.24048,-0.72722 0.59684,-1.37042 1.0691,-1.92959 0.47226,-0.55773 1.0691,-1.00536 1.78908,-1.34579 0.71997,-0.34044 1.56888,-0.53166 2.54527,-0.57222 l 0,-0.79675 1.51093,0 0,0.77647 c 0.94452,0.0131 1.77894,0.17094 2.49892,0.46936 0.71997,0.29987 1.32406,0.71853 1.81225,1.25598 0.4882,0.53744 0.85036,1.18354 1.09083,1.93973 0.24193,0.75475 0.36216,1.59496 0.36216,2.52065 0,1.83688 -0.49978,3.30001 -1.50079,4.38939 -0.99812,1.08938 -2.42069,1.69492 -4.26337,1.8166 l 0,0.79676 z" />
    <path
       inkscape:connector-curvature="0"
       id="path134"
       style="fill:#231f20;fill-opacity:1;fill-rule:nonzero;stroke:none"
       d="m -486.72445,576.56778 c -0.55918,0 -0.99667,0.14777 -1.31393,0.43894 -0.31725,0.29263 -0.55772,0.6461 -0.71997,1.06186 -0.1637,0.41431 -0.268,0.8547 -0.31436,1.31682 -0.0449,0.46357 -0.0695,0.86484 -0.0695,1.20382 0,1.26612 0.21585,2.27727 0.65044,3.03202 0.43459,0.75619 1.09228,1.13284 1.9774,1.13284 0.19991,0 0.42445,-0.0362 0.67217,-0.11149 0.24772,-0.0753 0.49254,-0.17094 0.73157,-0.28683 0.24047,-0.11439 0.4766,-0.24482 0.70983,-0.38824 0.23323,-0.14197 0.43315,-0.28104 0.60409,-0.41866 l 0,-5.83804 c -0.35637,-0.25786 -0.79821,-0.51282 -1.32551,-0.76488 -0.52586,-0.25207 -1.06041,-0.3781 -1.6022,-0.3781 m 0.0232,9.31045 c -0.71418,0 -1.31826,-0.13763 -1.81225,-0.40852 -0.49689,-0.27235 -0.89671,-0.65044 -1.19803,-1.13429 -0.30277,-0.4824 -0.52296,-1.04303 -0.66348,-1.68478 -0.13762,-0.63885 -0.20716,-1.32696 -0.20716,-2.06142 0,-0.65334 0.0609,-1.28205 0.18543,-1.88758 0.12458,-0.60554 0.33174,-1.14299 0.62726,-1.61379 0.29408,-0.46937 0.68087,-0.84312 1.16182,-1.1227 0.4795,-0.27814 1.08358,-0.41866 1.81225,-0.41866 0.3723,0 0.80255,0.0912 1.29075,0.27524 0.48819,0.18398 1.07199,0.50123 1.7543,0.95031 l 0.34913,-0.959 0.95176,0 0,9.77835 -0.95176,0 -0.32595,-0.91844 -1.34724,0.77648 c -0.21729,0.12168 -0.4766,0.22309 -0.77792,0.30566 -0.30277,0.0811 -0.5867,0.12314 -0.84891,0.12314" />
    <path
       inkscape:connector-curvature="0"
       id="path138"
       style="fill:#231f20;fill-opacity:1;fill-rule:nonzero;stroke:none"
       d="m -475.49325,589.69469 -1.34868,0 0,-4.51108 -3.48545,-8.51369 -0.7446,-0.18398 0,-0.67362 1.8137,0 2.30045,5.73664 0.83732,2.24685 0.0695,0 0.79096,-2.34826 2.04403,-5.63523 1.41823,0 -3.6955,9.59583 0,4.28654 z" />
    <path
       inkscape:connector-curvature="0"
       id="path142"
       style="fill:#231f20;fill-opacity:1;fill-rule:nonzero;stroke:none"
       d="m -463.80775,579.16086 c 0,-0.3274 -0.0275,-0.6432 -0.0811,-0.94886 -0.0551,-0.30712 -0.16225,-0.57946 -0.32449,-0.81849 -0.1637,-0.23758 -0.38824,-0.4288 -0.67507,-0.57076 -0.28684,-0.14342 -0.67073,-0.2144 -1.15023,-0.2144 -0.26365,0 -0.53455,0.042 -0.81414,0.12168 -0.27814,0.0826 -0.55338,0.18398 -0.82428,0.30711 -0.27089,0.12314 -0.52296,0.25207 -0.75474,0.38824 -0.23323,0.13617 -0.4259,0.25786 -0.58236,0.36796 l 0,7.81834 -1.34724,0 0,-9.80009 0.95321,0 0.3723,0.96045 1.57903,-0.75619 c 0.66638,-0.31291 1.24004,-0.46936 1.72099,-0.46936 0.71128,0 1.28205,0.10581 1.70795,0.31725 0.4259,0.21006 0.75475,0.48675 0.98653,0.82718 0.23323,0.33898 0.38824,0.72432 0.46646,1.15312 0.0768,0.4288 0.11589,0.86194 0.11589,1.29509 l 0,6.47255 -1.34868,0 0,-6.45082 z" />
    <path
       inkscape:connector-curvature="0"
       id="path146"
       style="fill:#231f20;fill-opacity:1;fill-rule:nonzero;stroke:none"
       d="m -455.43574,585.85665 c -0.23324,0.0275 -0.4346,0.0406 -0.60554,0.0406 l -0.34767,0 c -0.49689,0 -0.90106,-0.0508 -1.21542,-0.15211 -0.31435,-0.1014 -0.55917,-0.2622 -0.73301,-0.4795 -0.17529,-0.21874 -0.29407,-0.48674 -0.35492,-0.80689 -0.0608,-0.32016 -0.0913,-0.70405 -0.0913,-1.15457 l 0,-6.49138 -2.43952,0 0,-0.97929 6.92453,0 0,0.97929 -3.13632,0 0,6.14515 c 0,0.65334 0.11149,1.13574 0.33753,1.45009 0.22454,0.31291 0.60699,0.46792 1.14878,0.46792 0.26365,0 0.55048,-0.0131 0.86049,-0.0391 0.31001,-0.029 0.60409,-0.0681 0.88368,-0.12314 l 0.18687,0.79676 c -0.2651,0.0942 -0.51282,0.16949 -0.7446,0.22454 -0.23178,0.0537 -0.45777,0.0942 -0.67362,0.12169" />
    <path
       inkscape:connector-curvature="0"
       id="path150"
       style="fill:#231f20;fill-opacity:1;fill-rule:nonzero;stroke:none"
       d="m -448.73851,574.42452 -0.69679,-0.28538 1.48776,-3.38983 1.32406,0.5302 -2.11503,3.14501 z m -0.18542,2.12371 c -0.5896,0 -1.0691,0.11149 -1.4414,0.33609 -0.37231,0.22454 -0.66638,0.52441 -0.88223,0.89816 -0.21874,0.37375 -0.3694,0.80255 -0.45487,1.2864 -0.084,0.48239 -0.12748,0.98363 -0.12748,1.50079 0,0.59829 0.0435,1.15602 0.12748,1.67319 0.0855,0.51861 0.23613,0.97349 0.45487,1.36897 0.21585,0.39403 0.50992,0.70404 0.88223,0.92713 0.3723,0.22599 0.8518,0.33753 1.4414,0.33753 0.57366,0 1.04592,-0.1072 1.41822,-0.32594 0.36941,-0.2173 0.66493,-0.51717 0.88223,-0.89816 0.21585,-0.38244 0.3723,-0.83007 0.46356,-1.34869 0.0942,-0.51572 0.14052,-1.07489 0.14052,-1.67318 0,-0.51717 -0.0419,-1.0213 -0.12748,-1.51094 -0.0869,-0.48964 -0.24047,-0.92424 -0.46501,-1.30668 -0.22454,-0.38099 -0.52441,-0.68666 -0.89382,-0.91844 -0.3723,-0.23178 -0.84456,-0.34623 -1.41822,-0.34623 m -0.0927,9.34956 c -0.76053,0 -1.40663,-0.13038 -1.94118,-0.38824 -0.53455,-0.25786 -0.97204,-0.61422 -1.31247,-1.07199 -0.34188,-0.45488 -0.59105,-0.99522 -0.74461,-1.62249 -0.155,-0.62581 -0.23178,-1.31247 -0.23178,-2.06287 0,-0.70694 0.0768,-1.37766 0.23178,-2.01072 0.15356,-0.63161 0.40273,-1.18644 0.74461,-1.66304 0.34043,-0.47661 0.78516,-0.8547 1.3342,-1.13284 0.55049,-0.27959 1.22121,-0.41866 2.01217,-0.41866 0.77357,0 1.43126,0.13038 1.9745,0.38679 0.5418,0.2593 0.98798,0.61712 1.3371,1.07344 0.34768,0.45488 0.60409,0.99667 0.76778,1.62248 0.16225,0.62582 0.24193,1.30668 0.24193,2.04115 0,0.73591 -0.0797,1.41822 -0.24193,2.05273 -0.16369,0.63161 -0.4201,1.18644 -0.76778,1.66304 -0.34912,0.47661 -0.80255,0.85036 -1.36028,1.1227 -0.55772,0.27235 -1.24004,0.40852 -2.04404,0.40852" />
    <path
       inkscape:connector-curvature="0"
       id="path154"
       style="fill:#231f20;fill-opacity:1;fill-rule:nonzero;stroke:none"
       d="m -442.98637,587.7141 0.5809,-4.12429 2.13965,0 -1.78908,4.40967 -0.93147,-0.28538 z" />
    <path
       inkscape:connector-curvature="0"
       id="path158"
       style="fill:#7a8a35;fill-opacity:1;fill-rule:nonzero;stroke:none"
       d="m -500.39749,596.96631 c -0.32449,0 -0.5838,0.071 -0.78516,0.21295 -0.19992,0.14342 -0.35347,0.34478 -0.46067,0.60264 -0.10859,0.2593 -0.17963,0.57221 -0.21875,0.94017 -0.039,0.3665 -0.0579,0.76778 -0.0579,1.20382 0,1.04882 0.097,1.84702 0.28828,2.39896 0.19122,0.55048 0.60263,0.82717 1.23424,0.82717 0.59829,0 0.99522,-0.2651 1.18644,-0.79675 0.19267,-0.5302 0.28973,-1.32696 0.28973,-2.38882 0,-0.44908 -0.0203,-0.85759 -0.0579,-1.2241 -0.0391,-0.36796 -0.113,-0.68376 -0.2202,-0.95031 -0.1072,-0.26511 -0.25786,-0.46936 -0.44908,-0.61278 -0.19122,-0.14197 -0.44183,-0.21295 -0.74895,-0.21295 m -1.56888,-3.49124 1.90497,-3.92003 2.62639,1.02129 -2.835,3.57236 -1.69636,-0.67362 z m 1.47617,11.79922 c -0.94886,0 -1.73982,-0.14197 -2.37723,-0.4288 -0.6374,-0.28538 -1.14443,-0.66348 -1.52542,-1.13284 -0.38099,-0.46936 -0.65189,-1.01405 -0.81559,-1.63262 -0.1637,-0.61857 -0.24337,-1.26902 -0.24337,-1.94988 0,-0.62581 0.0753,-1.25308 0.23178,-1.87744 0.15501,-0.62727 0.42735,-1.18934 0.81559,-1.68478 0.38824,-0.49688 0.9083,-0.89961 1.56164,-1.20382 0.65189,-0.30712 1.46603,-0.46067 2.44531,-0.46067 0.9619,0 1.7659,0.14341 2.41055,0.4288 0.64465,0.28538 1.15747,0.66782 1.53846,1.14298 0.37955,0.4766 0.65189,1.02419 0.81414,1.64421 0.16225,0.62002 0.24482,1.26177 0.24482,1.9296 0,0.65189 -0.0782,1.29364 -0.23323,1.918 -0.15501,0.62727 -0.42735,1.18499 -0.81559,1.67464 -0.38679,0.48964 -0.9112,0.88512 -1.57178,1.18499 -0.66058,0.29842 -1.48776,0.44763 -2.48008,0.44763" />
    <path
       inkscape:connector-curvature="0"
       id="path162"
       style="fill:#7a8a35;fill-opacity:1;fill-rule:nonzero;stroke:none"
       d="m -487.35968,597.43596 -2.62639,0 0,7.55324 -3.41591,0 0,-9.84065 9.41185,0 0,9.84065 -3.36955,0 0,-7.55324 z" />
    <path
       inkscape:connector-curvature="0"
       id="path166"
       style="fill:#7a8a35;fill-opacity:1;fill-rule:nonzero;stroke:none"
       d="m -471.45993,605.27472 c -1.27336,0 -2.22946,-0.52296 -2.86687,-1.57178 l -0.11734,0 c -0.41721,0.55773 -0.86194,0.959 -1.3342,1.20382 -0.47515,0.24482 -1.00536,0.36796 -1.59351,0.36796 -0.91409,0 -1.66884,-0.14342 -2.26568,-0.4288 -0.59684,-0.28538 -1.07345,-0.67072 -1.42981,-1.15312 -0.35637,-0.48385 -0.60409,-1.03433 -0.74316,-1.65291 -0.13907,-0.62002 -0.2086,-1.26321 -0.2086,-1.92959 0,-0.5867 0.0651,-1.15023 0.19846,-1.69492 0.13183,-0.54324 0.35057,-1.04447 0.65479,-1.50079 0.30421,-0.45633 0.70549,-0.85036 1.20527,-1.18355 0.49978,-0.33319 1.11401,-0.58235 1.84558,-0.74605 l 0.93003,1.98175 c -0.52731,0.23033 -0.87643,0.59539 -1.04593,1.09228 -0.17094,0.49543 -0.25641,1.11835 -0.25641,1.8673 0,1.06186 0.0927,1.85716 0.2767,2.38882 0.18542,0.5302 0.56786,0.7953 1.15167,0.7953 0.30856,0 0.5838,-0.11879 0.83007,-0.35636 0.24482,-0.23758 0.36796,-0.66348 0.36796,-1.27626 l 0,-3.3681 3.0436,0 0,3.3681 c 0,0.61278 0.12459,1.03868 0.3723,1.27626 0.24772,0.23757 0.52731,0.35636 0.83732,0.35636 0.5896,0 0.97639,-0.2651 1.16181,-0.7953 0.18543,-0.53166 0.27959,-1.32696 0.27959,-2.38882 0,-0.74895 -0.0898,-1.38201 -0.268,-1.89917 -0.17818,-0.51717 -0.51427,-0.87064 -1.0097,-1.06041 l 0.9054,-1.98175 c 0.74605,0.12169 1.37042,0.35202 1.86875,0.68376 0.49979,0.33464 0.90106,0.73157 1.20528,1.19369 0.30421,0.46501 0.51716,0.97349 0.64319,1.53266 0.12459,0.55773 0.18688,1.1285 0.18688,1.7152 0,0.66638 -0.0825,1.30957 -0.24482,1.92959 -0.16225,0.61858 -0.43604,1.16906 -0.81559,1.65291 -0.38099,0.4824 -0.87788,0.86774 -1.4921,1.15312 -0.61278,0.28538 -1.37187,0.4288 -2.27293,0.4288" />
    <path
       inkscape:connector-curvature="0"
       id="path170"
       style="fill:#7a8a35;fill-opacity:1;fill-rule:nonzero;stroke:none"
       d="m -460.0136,602.16955 c 0,-0.36795 -0.12893,-0.62871 -0.38389,-0.77792 -0.25496,-0.15066 -0.60843,-0.27379 -1.05751,-0.36796 -0.62002,-0.10859 -1.16182,-0.23612 -1.62683,-0.37954 -0.46357,-0.14197 -0.85615,-0.32595 -1.17485,-0.55193 -0.31581,-0.22599 -0.55628,-0.50848 -0.71998,-0.85036 -0.16225,-0.34043 -0.24337,-0.75619 -0.24337,-1.24728 0,-0.57222 0.12748,-1.05751 0.38389,-1.45444 0.25496,-0.39403 0.59249,-0.71563 1.0097,-0.96045 0.41866,-0.24627 0.89092,-0.42301 1.41968,-0.53166 0.52585,-0.11009 1.0604,-0.16369 1.6022,-0.16369 0.62002,0 1.25887,0.0579 1.91656,0.17238 0.65913,0.1159 1.25307,0.28973 1.77893,0.52007 l -0.60408,1.87889 c -0.45053,-0.12313 -0.94162,-0.2144 -1.47617,-0.27524 -0.53455,-0.0608 -0.97349,-0.0927 -1.31247,-0.0927 -0.91555,0 -1.37187,0.27958 -1.37187,0.83731 0,0.27235 0.11734,0.45633 0.34912,0.55049 0.23178,0.0971 0.54179,0.18398 0.93003,0.26655 0.55628,0.10859 1.08069,0.23178 1.56888,0.36795 0.4882,0.13473 0.9141,0.3216 1.27626,0.56063 0.36506,0.23758 0.65189,0.54759 0.8605,0.92858 0.21005,0.38244 0.31435,0.87209 0.31435,1.47038 0,0.59974 -0.14052,1.09807 -0.41866,1.50079 -0.27814,0.40128 -0.65044,0.73157 -1.11545,0.98943 -0.46502,0.25931 -0.99522,0.44183 -1.59206,0.55193 -0.5954,0.1072 -1.21252,0.1637 -1.84848,0.1637 -0.27814,0 -0.57945,-0.0145 -0.9054,-0.0419 -0.3245,-0.0261 -0.65913,-0.0711 -0.99956,-0.13183 -0.34044,-0.0594 -0.67073,-0.13328 -0.98798,-0.22164 -0.31725,-0.0855 -0.61423,-0.19122 -0.89381,-0.31291 l 0.62726,-1.9267 c 0.23178,0.0695 0.49254,0.13328 0.77792,0.19557 0.28683,0.0608 0.57656,0.1145 0.87209,0.16225 0.29407,0.0477 0.57366,0.0854 0.83731,0.11148 0.26221,0.029 0.48675,0.042 0.67217,0.042 0.48095,0 0.85615,-0.071 1.1285,-0.21585 0.2709,-0.14197 0.40707,-0.39838 0.40707,-0.76633" />
    <path
       inkscape:connector-curvature="0"
       id="path174"
       style="fill:#7a8a35;fill-opacity:1;fill-rule:nonzero;stroke:none"
       d="m -441.93379,597.43596 -2.62639,0 0,7.55324 -3.41591,0 0,-9.84065 9.41185,0 0,9.84065 -3.36955,0 0,-7.55324 z" />
    <path
       inkscape:connector-curvature="0"
       id="path178"
       style="fill:#7a8a35;fill-opacity:1;fill-rule:nonzero;stroke:none"
       d="m -429.89627,600.12942 c 0,-0.99377 -0.0956,-1.77314 -0.28972,-2.33666 -0.19412,-0.56498 -0.60119,-0.84746 -1.21976,-0.84746 -0.51282,0 -0.89092,0.19701 -1.13864,0.59249 -0.24917,0.39404 -0.3723,1.06041 -0.3723,2.00058 l 0,3.10155 c 0.24772,0.13762 0.50703,0.24917 0.77792,0.33899 0.27235,0.0869 0.50848,0.13182 0.70839,0.13182 0.29552,0 0.54179,-0.0883 0.7446,-0.2651 0.20136,-0.17673 0.35927,-0.40852 0.47661,-0.6939 0.11589,-0.28683 0.19701,-0.60553 0.24337,-0.96045 0.0464,-0.35347 0.0695,-0.70694 0.0695,-1.06186 m 3.5318,-0.0811 c 0,0.59829 -0.0724,1.20382 -0.22019,1.8166 -0.14632,0.61277 -0.37955,1.17195 -0.69535,1.67463 -0.3187,0.50268 -0.73302,0.9112 -1.24439,1.22411 -0.51137,0.3129 -1.13863,0.46936 -1.88324,0.46936 -0.34043,0 -0.71997,-0.0608 -1.13863,-0.18398 -0.41866,-0.12024 -0.87498,-0.37955 -1.37042,-0.77503 l -0.0464,0.042 0,4.7559 -3.36955,0 0,-9.04389 c 0,-1.68767 0.43605,-2.96393 1.31248,-3.82877 0.87498,-0.86339 2.09474,-1.29509 3.65927,-1.29509 0.96046,0 1.76301,0.14197 2.4062,0.42735 0.6432,0.28683 1.15313,0.66348 1.53412,1.13429 0.37954,0.46936 0.65044,1.01695 0.81414,1.64276 0.16225,0.62582 0.24192,1.27191 0.24192,1.93974" />
    <path
       inkscape:connector-curvature="0"
       id="path182"
       style="fill:#7a8a35;fill-opacity:1;fill-rule:nonzero;stroke:none"
       d="m -421.88193,593.47478 1.90497,-3.92003 2.62639,1.02129 -2.835,3.57236 -1.69636,-0.67362 z m -1.0691,6.36825 -1.32406,-0.65189 c -0.17239,-0.0811 -0.29408,-0.24193 -0.3723,-0.48095 -0.0782,-0.23758 -0.1159,-0.43749 -0.1159,-0.60119 0,-0.50268 0.1072,-0.95611 0.3245,-1.35738 0.2173,-0.40272 0.52296,-0.74171 0.91844,-1.01985 0.39548,-0.28103 0.86774,-0.49398 1.41823,-0.64464 0.54903,-0.14921 1.15022,-0.22454 1.80066,-0.22454 0.49544,0 1.08069,0.0479 1.75431,0.14341 0.67507,0.0956 1.36752,0.27959 2.08026,0.55194 l -0.60554,1.98029 c -0.4795,-0.15065 -0.91989,-0.25206 -1.32406,-0.30711 -0.40272,-0.0537 -0.74315,-0.0826 -1.02274,-0.0826 -0.18543,0 -0.37955,0.0145 -0.57946,0.0406 -0.20281,0.029 -0.381,0.0724 -0.53455,0.13328 -0.15646,0.0608 -0.28394,0.15355 -0.38389,0.27669 -0.10141,0.12313 -0.15066,0.27234 -0.15066,0.44763 0,0.25931 0.13762,0.46936 0.41866,0.63451 0.27814,0.16225 0.61712,0.24482 1.02129,0.24482 l 1.30089,0 0,1.87889 -1.02275,0 c -0.69535,0 -1.18789,0.10859 -1.47617,0.32595 -0.28538,0.21874 -0.4288,0.4824 -0.4288,0.7953 0,0.34043 0.15066,0.60699 0.45343,0.79676 0.30132,0.19122 0.68521,0.28538 1.15022,0.28538 0.40273,0 0.8605,-0.0362 1.37042,-0.11149 0.51282,-0.0753 0.99232,-0.19412 1.4414,-0.35781 l 0.65189,1.93973 c -0.49688,0.25786 -1.12125,0.45633 -1.87165,0.5925 -0.75184,0.13617 -1.4921,0.20426 -2.22077,0.20426 -0.63451,0 -1.2299,-0.0566 -1.78908,-0.1637 -0.55772,-0.1101 -1.04592,-0.28248 -1.46458,-0.52006 -0.41721,-0.23903 -0.75039,-0.54469 -0.99811,-0.91989 -0.24772,-0.37375 -0.3723,-0.82573 -0.3723,-1.35593 0,-0.16515 0.0247,-0.35927 0.0695,-0.58381 0.0464,-0.22309 0.14052,-0.44763 0.27959,-0.67362 0.13907,-0.22454 0.33753,-0.43749 0.59105,-0.6432 0.25641,-0.20426 0.59394,-0.37375 1.0126,-0.50992 l 0,-0.0622 z" />
    <path
       inkscape:connector-curvature="0"
       id="path186"
       style="fill:#7a8a35;fill-opacity:1;fill-rule:nonzero;stroke:none"
       d="m -408.4905,597.43596 -2.6264,0 0,7.55324 -3.4159,0 0,-9.84065 9.41185,0 0,9.84065 -3.36955,0 0,-7.55324 z" />
    <path
       inkscape:connector-curvature="0"
       id="path190"
       style="fill:#7a8a35;fill-opacity:1;fill-rule:nonzero;stroke:none"
       d="m -401.07475,599.84375 -1.32406,-0.65189 c -0.17094,-0.0825 -0.29407,-0.24193 -0.3723,-0.48095 -0.0782,-0.23758 -0.11589,-0.43894 -0.11589,-0.60119 0,-0.50413 0.1072,-0.95611 0.32594,-1.35883 0.21585,-0.40128 0.52151,-0.74026 0.91699,-1.01985 0.39548,-0.27959 0.86774,-0.49398 1.41823,-0.6432 0.54903,-0.15065 1.15022,-0.22454 1.80066,-0.22454 0.49544,0 1.08069,0.0479 1.75431,0.14197 0.67507,0.0971 1.36753,0.28104 2.08171,0.55194 l -0.60554,1.98029 c -0.4795,-0.14921 -0.92133,-0.25206 -1.32406,-0.30711 -0.40417,-0.0537 -0.7446,-0.0811 -1.02419,-0.0811 -0.18398,0 -0.3781,0.0131 -0.57946,0.0406 -0.20281,0.0275 -0.38099,0.0724 -0.53455,0.13327 -0.155,0.0609 -0.28248,0.15211 -0.38389,0.27525 -0.1014,0.12313 -0.15066,0.27379 -0.15066,0.44908 0,0.25786 0.13907,0.46936 0.41866,0.63306 0.27814,0.16369 0.61857,0.24482 1.02129,0.24482 l 1.30089,0 0,1.87889 -1.02275,0 c -0.69535,0 -1.18788,0.10859 -1.47472,0.32739 -0.28538,0.2173 -0.43024,0.4824 -0.43024,0.79531 0,0.34043 0.15065,0.60553 0.45342,0.79531 0.30132,0.19122 0.68521,0.28683 1.15023,0.28683 0.40417,0 0.86049,-0.0377 1.37186,-0.113 0.51138,-0.0738 0.99088,-0.19267 1.44141,-0.35781 l 0.65044,1.93973 c -0.49689,0.25931 -1.11981,0.45778 -1.87165,0.5925 -0.75185,0.13617 -1.49066,0.20426 -2.21933,0.20426 -0.63595,0 -1.23135,-0.0551 -1.79052,-0.16225 -0.55628,-0.1101 -1.04448,-0.28393 -1.46313,-0.52151 -0.41721,-0.23903 -0.75185,-0.54469 -0.99957,-0.91844 -0.24772,-0.37375 -0.3723,-0.82718 -0.3723,-1.35738 0,-0.1637 0.0247,-0.35782 0.0695,-0.58236 0.0464,-0.22454 0.14052,-0.44908 0.28104,-0.67362 0.13762,-0.22454 0.33609,-0.43894 0.59105,-0.6432 0.25641,-0.20426 0.59249,-0.37375 1.01115,-0.50992 l 0,-0.0623 z" />
    <path
       inkscape:connector-curvature="0"
       id="path194"
       style="fill:#7a8a35;fill-opacity:1;fill-rule:nonzero;stroke:none"
       d="m -391.84804,597.04685 -1.25452,-0.2651 0,-1.6529 4.67043,0 0,9.85948 -3.41591,0 0,-7.94148 z" />
    <path
       inkscape:connector-curvature="0"
       id="path198"
       style="fill:#7a8a35;fill-opacity:1;fill-rule:nonzero;stroke:none"
       d="m -384.91743,600.70106 -0.48819,-9.65523 3.39418,0 -0.46502,9.65523 -2.44097,0 z m 1.18499,4.45023 c -0.50992,0 -0.94886,-0.15935 -1.31247,-0.4795 -0.36506,-0.3187 -0.54614,-0.70983 -0.54614,-1.17195 0,-0.46357 0.18108,-0.8518 0.54614,-1.16471 0.36361,-0.31291 0.80255,-0.46936 1.31247,-0.46936 0.51138,0 0.94597,0.15645 1.30234,0.46936 0.35636,0.31291 0.53455,0.70114 0.53455,1.16471 0,0.46212 -0.17819,0.85325 -0.53455,1.17195 -0.35637,0.32015 -0.79096,0.4795 -1.30234,0.4795" />
  </g>
</svg>
