<?xml version="1.0" encoding="UTF-8" standalone="no"?>
<!-- Created with Inkscape (http://www.inkscape.org/) -->

<svg
   xmlns:dc="http://purl.org/dc/elements/1.1/"
   xmlns:cc="http://creativecommons.org/ns#"
   xmlns:rdf="http://www.w3.org/1999/02/22-rdf-syntax-ns#"
   xmlns:svg="http://www.w3.org/2000/svg"
   xmlns="http://www.w3.org/2000/svg"
   xmlns:sodipodi="http://sodipodi.sourceforge.net/DTD/sodipodi-0.dtd"
   xmlns:inkscape="http://www.inkscape.org/namespaces/inkscape"
   width="56.444443mm"
   height="28.315399mm"
   viewBox="0 0 199.99999 100.33015"
   id="svg24774"
   version="1.1"
   inkscape:version="0.91 r13725"
   sodipodi:docname="logo-secondary.svg">
  <defs
     id="defs24776" />
  <sodipodi:namedview
     id="base"
     pagecolor="#ffffff"
     bordercolor="#666666"
     borderopacity="1.0"
     inkscape:pageopacity="0.0"
     inkscape:pageshadow="2"
     inkscape:zoom="0.35"
     inkscape:cx="-675.5154"
     inkscape:cy="-637.23161"
     inkscape:document-units="px"
     inkscape:current-layer="layer1"
     showgrid="false"
     fit-margin-top="0"
     fit-margin-left="0"
     fit-margin-right="0"
     fit-margin-bottom="0"
     inkscape:window-width="1881"
     inkscape:window-height="1176"
     inkscape:window-x="39"
     inkscape:window-y="24"
     inkscape:window-maximized="1" />
  <metadata
     id="metadata24779">
    <rdf:RDF>
      <cc:Work
         rdf:about="">
        <dc:format>image/svg+xml</dc:format>
        <dc:type
           rdf:resource="http://purl.org/dc/dcmitype/StillImage" />
        <dc:title></dc:title>
      </cc:Work>
    </rdf:RDF>
  </metadata>
  <g
     inkscape:label="Layer 1"
     inkscape:groupmode="layer"
     id="layer1"
     transform="translate(-254.80111,205.19956)">
    <g
       id="g25364"
       transform="matrix(0.97711838,0,0,0.97711838,5.830261,-2.3995814)">
      <path
         d="m 373.46698,-179.86654 -42.51625,-21.36875 c -1.5275,-0.76125 -3.2875,-0.90375 -4.91375,-0.3825 l -39.4875,12.64875 0,-12.0625 c 0,-3.60125 -2.9175,-6.5175 -6.515,-6.5175 -3.6,0 -6.51875,2.91625 -6.51875,6.5175 l 0,16.24125 -14.17875,4.54125 c -3.4325,1.095 -5.32125,4.76625 -4.22375,8.19375 0.88875,2.77 3.44875,4.53125 6.205,4.53125 0.6625,0 1.32875,-0.1025 1.9925,-0.3125 l 64.16625,-20.55125 40.1325,20.16875 c 3.21875,1.61 7.13375,0.32 8.7525,-2.8975 1.61375,-3.21875 0.3175,-7.135 -2.895,-8.75"
         style="fill:#ffffff;fill-opacity:1;fill-rule:nonzero;stroke:none"
         id="path1240"
         inkscape:connector-curvature="0" />
      <path
         d="m 283.02136,-143.62141 c 2.275,-0.10375 3.9575,-0.86 5.0475,-2.265 1.09,-1.405 1.635,-3.2625 1.635,-5.57375 0,-1.10125 -0.13,-2.1225 -0.39125,-3.05875 -0.26125,-0.9375 -0.66375,-1.75375 -1.20875,-2.45125 -0.545,-0.69625 -1.2375,-1.24875 -2.07875,-1.655 -0.8425,-0.40625 -1.8425,-0.63 -3.00375,-0.67125 l 0,15.675 z m -2.31125,-15.70625 c -2.27375,0.20875 -3.9575,1.01 -5.04625,2.40375 -1.09125,1.39625 -1.635,3.2175 -1.635,5.46375 0,2.2075 0.555,3.9975 1.67,5.37125 1.11375,1.37375 2.785,2.18625 5.01125,2.43625 l 0,-15.675 z m 2.31125,18.57875 -2.31125,0 0,-1.24875 c -1.42125,-0.0838 -2.68375,-0.375 -3.785,-0.87375 -1.10125,-0.50125 -2.02625,-1.16625 -2.7725,-1.99875 -0.74625,-0.8325 -1.31,-1.81125 -1.68875,-2.93625 -0.37875,-1.12375 -0.56875,-2.34125 -0.56875,-3.65375 0,-1.24875 0.18375,-2.42875 0.55125,-3.5425 0.36625,-1.11375 0.9125,-2.0975 1.635,-2.95125 0.7225,-0.8525 1.635,-1.54 2.7375,-2.06 1.10125,-0.52 2.39875,-0.8125 3.89125,-0.87375 l 0,-1.21875 2.31125,0 0,1.18625 c 1.445,0.0213 2.71875,0.26 3.82125,0.7175 1.10125,0.46 2.02625,1.09875 2.7725,1.92 0.74625,0.82375 1.3025,1.8125 1.67,2.9675 0.3675,1.155 0.55125,2.44125 0.55125,3.855 0,2.81125 -0.76375,5.05 -2.2925,6.715 -1.52875,1.665 -3.7025,2.59125 -6.5225,2.7775 l 0,1.21875 z"
         style="fill:#e1e4ca;fill-opacity:1;fill-rule:nonzero;stroke:none"
         id="path1244"
         inkscape:connector-curvature="0" />
      <path
         d="m 300.15461,-154.58204 c -0.85375,0 -1.5225,0.225 -2.00875,0.67125 -0.48625,0.44875 -0.85375,0.99 -1.10125,1.625 -0.25,0.635 -0.40875,1.30625 -0.48,2.0125 -0.0713,0.70875 -0.1075,1.3225 -0.1075,1.84375 0,1.935 0.3325,3.48125 0.99625,4.63625 0.6625,1.155 1.67,1.73375 3.02125,1.73375 0.3075,0 0.65125,-0.0575 1.03125,-0.1725 0.3775,-0.115 0.75125,-0.26 1.11875,-0.4375 0.3675,-0.17625 0.72875,-0.375 1.085,-0.5925 0.355,-0.21875 0.6625,-0.4325 0.92375,-0.64 l 0,-8.93125 c -0.54625,-0.395 -1.22125,-0.785 -2.02625,-1.17 -0.80625,-0.38625 -1.62375,-0.57875 -2.4525,-0.57875 m 0.035,14.24 c -1.09,0 -2.01375,-0.20875 -2.7725,-0.625 -0.75875,-0.41625 -1.36875,-0.99375 -1.83,-1.73375 -0.4625,-0.73875 -0.8,-1.59625 -1.01375,-2.57625 -0.2125,-0.9775 -0.32,-2.03 -0.32,-3.1525 0,-1 0.095,-1.9625 0.285,-2.89 0.18875,-0.925 0.50875,-1.7475 0.95875,-2.465 0.45125,-0.71875 1.0425,-1.29125 1.7775,-1.7175 0.735,-0.42625 1.65875,-0.64 2.77375,-0.64 0.56875,0 1.22625,0.14 1.9725,0.42125 0.74625,0.28 1.64,0.765 2.68375,1.45125 l 0.5325,-1.4675 1.4575,0 0,14.95625 -1.4575,0 -0.4975,-1.405 -2.06125,1.18625 c -0.3325,0.18875 -0.72875,0.345 -1.19125,0.46875 -0.46125,0.125 -0.89375,0.18875 -1.2975,0.18875"
         style="fill:#e1e4ca;fill-opacity:1;fill-rule:nonzero;stroke:none"
         id="path1248"
         inkscape:connector-curvature="0" />
      <path
         d="m 317.21211,-134.50391 -2.06125,0 0,-6.90125 -5.3325,-13.02125 -1.1375,-0.28 0,-1.03 2.77375,0 3.5175,8.77375 1.28,3.43375 0.1075,0 1.20875,-3.59 3.1275,-8.6175 2.1675,0 -5.65125,14.675 0,6.5575 z"
         style="fill:#e1e4ca;fill-opacity:1;fill-rule:nonzero;stroke:none"
         id="path1252"
         inkscape:connector-curvature="0" />
      <path
         d="m 334.96048,-150.61604 c 0,-0.49875 -0.0412,-0.98375 -0.125,-1.45125 -0.0825,-0.46875 -0.2475,-0.885 -0.4975,-1.25 -0.24875,-0.36375 -0.5925,-0.65625 -1.03,-0.87375 -0.43875,-0.21875 -1.02625,-0.3275 -1.76,-0.3275 -0.4025,0 -0.8175,0.0625 -1.24375,0.18625 -0.42625,0.125 -0.8475,0.28125 -1.2625,0.46875 -0.41375,0.1875 -0.8,0.38625 -1.155,0.59375 -0.355,0.2075 -0.6525,0.395 -0.88875,0.56125 l 0,11.96 -2.06125,0 0,-14.98875 1.4575,0 0.56875,1.4675 2.4175,-1.155 c 1.01875,-0.4775 1.895,-0.7175 2.63,-0.7175 1.09,0 1.96,0.16125 2.6125,0.48375 0.65125,0.32375 1.155,0.745 1.51,1.265 0.35625,0.52 0.5925,1.1075 0.71125,1.76375 0.11875,0.655 0.1775,1.31625 0.1775,1.9825 l 0,9.89875 -2.06125,0 0,-9.8675 z"
         style="fill:#e1e4ca;fill-opacity:1;fill-rule:nonzero;stroke:none"
         id="path1256"
         inkscape:connector-curvature="0" />
      <path
         d="m 347.63623,-140.37429 c -0.35625,0.0412 -0.66375,0.0625 -0.92375,0.0625 l -0.53375,0 c -0.75875,0 -1.37875,-0.0787 -1.8575,-0.235 -0.48125,-0.15625 -0.855,-0.4 -1.1225,-0.73375 -0.2675,-0.33125 -0.44875,-0.7425 -0.54125,-1.2325 -0.0937,-0.49 -0.14,-1.0775 -0.14,-1.76375 l 0,-9.93 -3.7325,0 0,-1.49875 10.59375,0 0,1.49875 -4.8,0 0,9.39875 c 0,0.99875 0.1725,1.73875 0.51625,2.2175 0.3425,0.4775 0.92875,0.7175 1.76,0.7175 0.40125,0 0.84,-0.0213 1.31375,-0.0625 0.475,-0.0412 0.925,-0.10375 1.35125,-0.18625 l 0.28375,1.21625 c -0.4025,0.14625 -0.78125,0.26 -1.13625,0.34375 -0.35625,0.0825 -0.7,0.14625 -1.03125,0.1875"
         style="fill:#e1e4ca;fill-opacity:1;fill-rule:nonzero;stroke:none"
         id="path1260"
         inkscape:connector-curvature="0" />
      <path
         d="m 357.74123,-157.85966 -1.06625,-0.4375 2.275,-5.18375 2.02625,0.81125 -3.235,4.81 z m -0.285,3.2475 c -0.9,0 -1.635,0.17125 -2.20375,0.515 -0.5675,0.3425 -1.01875,0.80125 -1.35,1.3725 -0.3325,0.57375 -0.5625,1.23 -0.6925,1.96875 -0.13125,0.7375 -0.19625,1.50375 -0.19625,2.295 0,0.91625 0.065,1.77 0.19625,2.55875 0.13,0.7925 0.36,1.49 0.6925,2.0925 0.33125,0.605 0.7825,1.07875 1.35,1.42125 0.56875,0.3425 1.30375,0.515 2.20375,0.515 0.8775,0 1.6,-0.16625 2.16875,-0.49875 0.56875,-0.33375 1.01875,-0.79125 1.35125,-1.375 0.33125,-0.5825 0.56875,-1.27 0.71125,-2.06 0.14125,-0.79125 0.2125,-1.645 0.2125,-2.56 0,-0.79125 -0.065,-1.56125 -0.195,-2.31125 -0.13125,-0.74875 -0.36875,-1.41625 -0.71125,-1.99875 -0.34375,-0.58125 -0.8,-1.05 -1.36875,-1.405 -0.56875,-0.35375 -1.29125,-0.53 -2.16875,-0.53 m -0.14125,14.3 c -1.1625,0 -2.15125,-0.1975 -2.96875,-0.59375 -0.8175,-0.395 -1.4875,-0.94 -2.0075,-1.63875 -0.5225,-0.6975 -0.90125,-1.525 -1.1375,-2.48125 -0.2375,-0.9575 -0.35625,-2.01 -0.35625,-3.155 0,-1.08125 0.11875,-2.10625 0.35625,-3.075 0.23625,-0.9675 0.615,-1.81625 1.1375,-2.545 0.52,-0.72875 1.2025,-1.30625 2.04375,-1.73375 0.84,-0.425 1.86625,-0.63875 3.07375,-0.63875 1.185,0 2.1925,0.1975 3.02125,0.5925 0.83,0.39625 1.51125,0.9425 2.045,1.64 0.5325,0.69625 0.92375,1.52375 1.1725,2.48125 0.24875,0.95875 0.37375,1.99875 0.37375,3.1225 0,1.125 -0.125,2.17 -0.37375,3.13875 -0.24875,0.9675 -0.64,1.81625 -1.1725,2.545 -0.53375,0.72875 -1.22625,1.30125 -2.08,1.7175 -0.8525,0.415 -1.895,0.62375 -3.1275,0.62375"
         style="fill:#e1e4ca;fill-opacity:1;fill-rule:nonzero;stroke:none"
         id="path1264"
         inkscape:connector-curvature="0" />
      <path
         d="m 366.37898,-137.53254 0.88875,-6.3075 3.27,0 -2.7375,6.745 -1.42125,-0.4375 z"
         style="fill:#e1e4ca;fill-opacity:1;fill-rule:nonzero;stroke:none"
         id="path1268"
         inkscape:connector-curvature="0" />
      <path
         d="m 279.37761,-123.38579 c -0.49375,0 -0.89375,0.11 -1.19875,0.32875 -0.30625,0.21875 -0.54125,0.52625 -0.70625,0.92125 -0.16375,0.395 -0.27625,0.87375 -0.335,1.435 -0.0587,0.56375 -0.0875,1.1775 -0.0875,1.8425 0,1.60375 0.14625,2.82625 0.44,3.67 0.295,0.8425 0.92375,1.26375 1.8875,1.26375 0.91625,0 1.5225,-0.40625 1.81625,-1.2175 0.29375,-0.8125 0.44125,-2.02875 0.44125,-3.6525 0,-0.6875 -0.03,-1.3125 -0.0888,-1.87375 -0.0587,-0.5625 -0.17,-1.04625 -0.335,-1.4525 -0.165,-0.405 -0.39375,-0.7175 -0.6875,-0.93625 -0.29375,-0.21875 -0.67625,-0.32875 -1.14625,-0.32875 m -2.39875,-5.33875 2.915,-5.995 4.01625,1.56125 -4.33625,5.465 -2.595,-1.03125 z m 2.2575,18.0475 c -1.45,0 -2.66125,-0.21875 -3.635,-0.655 -0.97375,-0.4375 -1.75125,-1.015 -2.33375,-1.73375 -0.5825,-0.7175 -0.9975,-1.55 -1.2475,-2.4975 -0.24875,-0.9475 -0.37375,-1.94125 -0.37375,-2.9825 0,-0.9575 0.11875,-1.915 0.35625,-2.8725 0.2375,-0.95625 0.65375,-1.81625 1.2475,-2.575 0.59375,-0.76125 1.38875,-1.375 2.38625,-1.84375 0.9975,-0.4675 2.245,-0.70125 3.74125,-0.70125 1.4725,0 2.7025,0.2175 3.6875,0.655 0.98625,0.4375 1.77,1.02 2.3525,1.74875 0.58125,0.72875 0.99625,1.56625 1.24625,2.51375 0.24875,0.9475 0.37375,1.93125 0.37375,2.95 0,0.99875 -0.11875,1.9775 -0.35625,2.935 -0.2375,0.95875 -0.6525,1.81125 -1.24625,2.56125 -0.59375,0.75 -1.39625,1.3525 -2.405,1.81 -1.01,0.4575 -2.275,0.6875 -3.79375,0.6875"
         style="fill:#ffffff;fill-opacity:1;fill-rule:nonzero;stroke:none"
         id="path1272"
         inkscape:connector-curvature="0" />
      <path
         d="m 299.19448,-122.66679 -4.01625,0 0,11.5525 -5.22625,0 0,-15.05 14.3975,0 0,15.05 -5.155,0 0,-11.5525 z"
         style="fill:#ffffff;fill-opacity:1;fill-rule:nonzero;stroke:none"
         id="path1276"
         inkscape:connector-curvature="0" />
      <path
         d="m 323.39673,-110.67704 c -1.94875,0 -3.41125,-0.80125 -4.385,-2.40375 l -0.17875,0 c -0.64,0.85375 -1.32125,1.4675 -2.04375,1.8425 -0.7225,0.375 -1.535,0.56125 -2.435,0.56125 -1.39875,0 -2.55375,-0.21875 -3.465,-0.655 -0.9125,-0.4375 -1.64125,-1.02625 -2.18625,-1.765 -0.545,-0.7375 -0.925,-1.58125 -1.1375,-2.52875 -0.21375,-0.9475 -0.32,-1.93125 -0.32,-2.95 0,-0.895 0.10125,-1.76 0.30375,-2.5925 0.2025,-0.8325 0.53625,-1.5975 1.0025,-2.295 0.465,-0.6975 1.07875,-1.30125 1.8425,-1.81125 0.7625,-0.51 1.70375,-0.89 2.8225,-1.14 l 1.4225,3.02875 c -0.80625,0.355 -1.34,0.91125 -1.6,1.67125 -0.26125,0.76 -0.39125,1.7125 -0.39125,2.85625 0,1.625 0.14125,2.8425 0.4225,3.65375 0.2825,0.81125 0.87,1.21875 1.7625,1.21875 0.47,0 0.8925,-0.1825 1.26875,-0.5475 0.375,-0.36375 0.56375,-1.01375 0.56375,-1.95125 l 0,-5.1525 4.65625,0 0,5.1525 c 0,0.9375 0.18875,1.5875 0.56875,1.95125 0.37875,0.365 0.805,0.5475 1.27875,0.5475 0.90125,0 1.49375,-0.4075 1.7775,-1.21875 0.285,-0.81125 0.4275,-2.02875 0.4275,-3.65375 0,-1.14375 -0.1375,-2.11125 -0.41,-2.9025 -0.27125,-0.79125 -0.7875,-1.33375 -1.545,-1.625 l 1.385,-3.02875 c 1.14375,0.18875 2.09625,0.53625 2.86,1.04625 0.7625,0.51 1.3775,1.12 1.8425,1.8275 0.465,0.70625 0.7925,1.4875 0.98375,2.34125 0.19125,0.85375 0.28625,1.72875 0.28625,2.62375 0,1.01875 -0.125,2.0025 -0.375,2.95 -0.24875,0.9475 -0.665,1.79125 -1.2475,2.52875 -0.58125,0.73875 -1.3425,1.3275 -2.28125,1.765 -0.93875,0.43625 -2.0975,0.655 -3.47625,0.655"
         style="fill:#ffffff;fill-opacity:1;fill-rule:nonzero;stroke:none"
         id="path1280"
         inkscape:connector-curvature="0" />
      <path
         d="m 340.77536,-115.42679 c 0,-0.5625 -0.195,-0.96 -0.58625,-1.18875 -0.39125,-0.23 -0.93,-0.4175 -1.6175,-0.56375 -0.9475,-0.16625 -1.7775,-0.36 -2.4875,-0.57875 -0.71125,-0.22 -1.31,-0.50125 -1.795,-0.845 -0.4875,-0.345 -0.85375,-0.7775 -1.1025,-1.3 -0.25,-0.52125 -0.37375,-1.15875 -0.37375,-1.90875 0,-0.8775 0.19625,-1.6175 0.5875,-2.22375 0.39,-0.60375 0.90625,-1.095 1.545,-1.47 0.64,-0.375 1.3625,-0.6475 2.16875,-0.81375 0.805,-0.1675 1.6225,-0.25125 2.4525,-0.25125 0.9475,0 1.925,0.0887 2.9325,0.26625 1.0075,0.17625 1.91375,0.44125 2.72,0.79625 l -0.925,2.87125 c -0.6875,-0.18625 -1.43875,-0.32625 -2.25625,-0.42 -0.81875,-0.095 -1.4875,-0.14125 -2.00875,-0.14125 -1.39875,0 -2.0975,0.4275 -2.0975,1.28125 0,0.41625 0.1775,0.69625 0.53375,0.84125 0.355,0.1475 0.82875,0.28125 1.42125,0.4075 0.85375,0.165 1.6525,0.35375 2.39875,0.56125 0.7475,0.20875 1.39875,0.49375 1.955,0.85875 0.5575,0.36375 0.99625,0.8375 1.31625,1.42 0.32,0.58375 0.47875,1.33375 0.47875,2.24875 0,0.91625 -0.2125,1.68125 -0.63875,2.295 -0.4275,0.61375 -0.99625,1.11875 -1.70625,1.515 -0.71125,0.395 -1.52375,0.67625 -2.435,0.8425 -0.9125,0.16625 -1.855,0.25 -2.82625,0.25 -0.42625,0 -0.88875,-0.0213 -1.38625,-0.0625 -0.4975,-0.0413 -1.0075,-0.1075 -1.5275,-0.2 -0.5225,-0.0925 -1.02625,-0.20625 -1.51125,-0.34125 -0.48625,-0.1325 -0.9425,-0.2925 -1.36875,-0.47875 l 0.96,-2.94625 c 0.355,0.105 0.75125,0.20375 1.19,0.29625 0.43875,0.095 0.88375,0.1775 1.33375,0.25125 0.45,0.0725 0.87625,0.13 1.27875,0.17125 0.40375,0.0425 0.7475,0.0625 1.03125,0.0625 0.73375,0 1.30875,-0.11 1.72375,-0.32875 0.415,-0.21875 0.6225,-0.61 0.6225,-1.17375"
         style="fill:#ffffff;fill-opacity:1;fill-rule:nonzero;stroke:none"
         id="path1284"
         inkscape:connector-curvature="0" />
      <path
         d="m 368.4291,-122.66679 -4.01625,0 0,11.5525 -5.22625,0 0,-15.05 14.39625,0 0,15.05 -5.15375,0 0,-11.5525 z"
         style="fill:#ffffff;fill-opacity:1;fill-rule:nonzero;stroke:none"
         id="path1288"
         inkscape:connector-curvature="0" />
      <path
         d="m 386.72498,-118.54566 c 0,-1.51875 -0.14875,-2.71125 -0.44375,-3.575 -0.2975,-0.86375 -0.92,-1.295 -1.8675,-1.295 -0.7825,0 -1.3625,0.30125 -1.74125,0.905 -0.38,0.60375 -0.56875,1.62375 -0.56875,3.05875 l 0,4.74625 c 0.3775,0.20875 0.77625,0.38125 1.19125,0.515 0.41375,0.1375 0.775,0.20375 1.08375,0.20375 0.44875,0 0.82875,-0.135 1.1375,-0.40625 0.3075,-0.27 0.55125,-0.62375 0.72875,-1.06 0.1775,-0.43875 0.30125,-0.9275 0.3725,-1.46875 0.0725,-0.54125 0.1075,-1.08125 0.1075,-1.62375 m 5.4025,-0.125 c 0,0.91625 -0.11375,1.8425 -0.3375,2.77875 -0.22625,0.9375 -0.58125,1.79125 -1.06625,2.56125 -0.48625,0.77 -1.12,1.395 -1.90125,1.87375 -0.7825,0.47875 -1.7425,0.7175 -2.88,0.7175 -0.52125,0 -1.1025,-0.0937 -1.7425,-0.28 -0.63875,-0.18875 -1.33875,-0.5825 -2.09625,-1.1875 l -0.0713,0.0625 0,7.275 -5.15375,0 0,-13.8325 c 0,-2.58 0.66875,-4.5325 2.0075,-5.855 1.33875,-1.32125 3.205,-1.9825 5.59875,-1.9825 1.47,0 2.695,0.21875 3.67875,0.65625 0.98375,0.43625 1.765,1.01375 2.34625,1.73375 0.58,0.7175 0.995,1.55625 1.24375,2.5125 0.25,0.9575 0.37375,1.9475 0.37375,2.96625"
         style="fill:#ffffff;fill-opacity:1;fill-rule:nonzero;stroke:none"
         id="path1292"
         inkscape:connector-curvature="0" />
      <path
         d="m 398.85148,-128.72516 2.915,-5.995 4.0175,1.56125 -4.3375,5.465 -2.595,-1.03125 z m -1.635,9.7425 -2.02625,-0.99875 c -0.26125,-0.125 -0.45,-0.37 -0.56875,-0.735 -0.11875,-0.36375 -0.1775,-0.67125 -0.1775,-0.92 0,-0.77 0.165,-1.4625 0.4975,-2.07625 0.3325,-0.61375 0.8,-1.13375 1.40375,-1.56125 0.605,-0.42625 1.3275,-0.755 2.16875,-0.98375 0.84,-0.22875 1.76,-0.34375 2.755,-0.34375 0.7575,0 1.6525,0.0738 2.68375,0.21875 1.03,0.145 2.09125,0.4275 3.18125,0.8425 l -0.92375,3.03 c -0.735,-0.23 -1.41,-0.38625 -2.02625,-0.46875 -0.6175,-0.0837 -1.13875,-0.125 -1.56375,-0.125 -0.285,0 -0.58125,0.0212 -0.88875,0.0625 -0.30875,0.0413 -0.58125,0.10875 -0.81875,0.2025 -0.23625,0.0937 -0.43125,0.23375 -0.585,0.42125 -0.155,0.1875 -0.2325,0.4175 -0.2325,0.6875 0,0.395 0.21375,0.7175 0.64125,0.9675 0.42625,0.25 0.9475,0.375 1.56375,0.375 l 1.99125,0 0,2.8725 -1.565,0 c -1.06625,0 -1.81875,0.1675 -2.2575,0.5 -0.43875,0.33375 -0.6575,0.73875 -0.6575,1.2175 0,0.52125 0.23125,0.92625 0.6925,1.2175 0.4625,0.2925 1.04875,0.4375 1.76,0.4375 0.61625,0 1.315,-0.0575 2.0975,-0.1725 0.78125,-0.1125 1.51625,-0.29625 2.20375,-0.545 l 0.995,2.96625 c -0.75875,0.395 -1.71125,0.69625 -2.86125,0.90375 -1.14875,0.20875 -2.28,0.3125 -3.395,0.3125 -0.97125,0 -1.88375,-0.0825 -2.7375,-0.25 -0.8525,-0.16625 -1.59875,-0.43 -2.23875,-0.795 -0.63875,-0.36375 -1.14875,-0.8325 -1.5275,-1.405 -0.38,-0.5725 -0.56875,-1.265 -0.56875,-2.0775 0,-0.24875 0.035,-0.545 0.10625,-0.89 0.07,-0.3425 0.21375,-0.68625 0.42625,-1.03 0.2125,-0.3425 0.51625,-0.67125 0.90625,-0.98375 0.39125,-0.3125 0.9075,-0.5725 1.54625,-0.78 l 0,-0.0937 z"
         style="fill:#ffffff;fill-opacity:1;fill-rule:nonzero;stroke:none"
         id="path1296"
         inkscape:connector-curvature="0" />
      <path
         d="m 419.2091,-122.66679 -4.0175,0 0,11.5525 -5.225,0 0,-15.05 14.39625,0 0,15.05 -5.15375,0 0,-11.5525 z"
         style="fill:#ffffff;fill-opacity:1;fill-rule:nonzero;stroke:none"
         id="path1300"
         inkscape:connector-curvature="0" />
      <path
         d="m 430.4311,-118.98266 -2.02625,-0.99875 c -0.26125,-0.125 -0.45,-0.37 -0.56875,-0.735 -0.11875,-0.36375 -0.17875,-0.67125 -0.17875,-0.92 0,-0.77 0.16625,-1.4625 0.49875,-2.07625 0.33125,-0.61375 0.79875,-1.13375 1.40375,-1.56125 0.60375,-0.42625 1.32625,-0.755 2.16875,-0.98375 0.84,-0.22875 1.75875,-0.34375 2.75375,-0.34375 0.75875,0 1.6525,0.0738 2.685,0.21875 1.03,0.145 2.09125,0.4275 3.18125,0.8425 l -0.925,3.03 c -0.735,-0.23 -1.41,-0.38625 -2.02625,-0.46875 -0.61625,-0.0837 -1.1375,-0.125 -1.56375,-0.125 -0.28375,0 -0.58125,0.0212 -0.88875,0.0625 -0.30875,0.0413 -0.58125,0.10875 -0.8175,0.2025 -0.23625,0.0937 -0.4325,0.235 -0.58625,0.42125 -0.155,0.1875 -0.23125,0.4175 -0.23125,0.6875 0,0.395 0.21375,0.7175 0.64,0.9675 0.42625,0.25 0.9475,0.375 1.56375,0.375 l 1.99125,0 0,2.8725 -1.565,0 c -1.065,0 -1.81875,0.1675 -2.25625,0.5 -0.43875,0.33375 -0.65875,0.73875 -0.65875,1.2175 0,0.52125 0.2325,0.92625 0.69375,1.2175 0.4625,0.2925 1.04875,0.4375 1.76,0.4375 0.615,0 1.315,-0.0575 2.0975,-0.1725 0.78125,-0.1125 1.51625,-0.29625 2.20375,-0.545 l 0.99375,2.96625 c -0.7575,0.395 -1.71125,0.6975 -2.86125,0.905 -1.14875,0.20875 -2.28,0.3125 -3.39375,0.3125 -0.9725,0 -1.88375,-0.0837 -2.7375,-0.25125 -0.85375,-0.165 -1.59875,-0.43 -2.23875,-0.795 -0.64,-0.36375 -1.15,-0.8325 -1.52875,-1.405 -0.37875,-0.5725 -0.56875,-1.265 -0.56875,-2.0775 0,-0.24875 0.0362,-0.545 0.10625,-0.88875 0.0712,-0.34375 0.21375,-0.6875 0.4275,-1.03125 0.2125,-0.3425 0.515,-0.67125 0.90625,-0.98375 0.39,-0.3125 0.90625,-0.5725 1.54625,-0.78 l 0,-0.0937 z"
         style="fill:#ffffff;fill-opacity:1;fill-rule:nonzero;stroke:none"
         id="path1304"
         inkscape:connector-curvature="0" />
      <path
         d="m 444.4106,-123.26004 -1.91875,-0.40625 0,-2.53 7.145,0 0,15.0825 -5.22625,0 0,-12.14625 z"
         style="fill:#ffffff;fill-opacity:1;fill-rule:nonzero;stroke:none"
         id="path1308"
         inkscape:connector-curvature="0" />
      <path
         d="m 454.8646,-117.67166 -0.7475,-14.76875 5.19125,0 -0.7125,14.76875 -3.73125,0 z m 1.8125,6.8075 c -0.7825,0 -1.45125,-0.245 -2.0075,-0.73375 -0.55875,-0.48875 -0.83625,-1.0875 -0.83625,-1.795 0,-0.70875 0.2775,-1.30125 0.83625,-1.78 0.55625,-0.47875 1.225,-0.71875 2.0075,-0.71875 0.78125,0 1.445,0.24 1.99125,0.71875 0.545,0.47875 0.81625,1.07125 0.81625,1.78 0,0.7075 -0.27125,1.30625 -0.81625,1.795 -0.54625,0.48875 -1.21,0.73375 -1.99125,0.73375"
         style="fill:#ffffff;fill-opacity:1;fill-rule:nonzero;stroke:none"
         id="path1312"
         inkscape:connector-curvature="0" />
    </g>
  </g>
</svg>
