<?xml version="1.0" encoding="UTF-8" standalone="no"?>
<!-- Created with Inkscape (http://www.inkscape.org/) -->

<svg
   xmlns:dc="http://purl.org/dc/elements/1.1/"
   xmlns:cc="http://creativecommons.org/ns#"
   xmlns:rdf="http://www.w3.org/1999/02/22-rdf-syntax-ns#"
   xmlns:svg="http://www.w3.org/2000/svg"
   xmlns="http://www.w3.org/2000/svg"
   xmlns:sodipodi="http://sodipodi.sourceforge.net/DTD/sodipodi-0.dtd"
   xmlns:inkscape="http://www.inkscape.org/namespaces/inkscape"
   id="svg2"
   version="1.1"
   inkscape:version="0.91 r13725"
   xml:space="preserve"
   width="168.30875"
   height="201.13126"
   viewBox="0 0 168.30874 201.13126"
   sodipodi:docname="menu-bread.svg"><metadata
     id="metadata8"><rdf:RDF><cc:Work
         rdf:about=""><dc:format>image/svg+xml</dc:format><dc:type
           rdf:resource="http://purl.org/dc/dcmitype/StillImage" /><dc:title></dc:title></cc:Work></rdf:RDF></metadata><defs
     id="defs6"><clipPath
       clipPathUnits="userSpaceOnUse"
       id="clipPath16"><path
         d="m 42.534,42.903 1217.492,0 0,868.852 -1217.492,0 0,-868.852 z"
         id="path18"
         inkscape:connector-curvature="0" /></clipPath><clipPath
       clipPathUnits="userSpaceOnUse"
       id="clipPath58"><path
         d="m 0,955.275 1303.937,0 L 1303.937,0 0,0 0,955.275 Z"
         id="path60"
         inkscape:connector-curvature="0" /></clipPath></defs><sodipodi:namedview
     pagecolor="#ffffff"
     bordercolor="#666666"
     borderopacity="1"
     objecttolerance="10"
     gridtolerance="10"
     guidetolerance="10"
     inkscape:pageopacity="0"
     inkscape:pageshadow="2"
     inkscape:window-width="1881"
     inkscape:window-height="1176"
     id="namedview4"
     showgrid="false"
     inkscape:zoom="1.1180174"
     inkscape:cx="37.070904"
     inkscape:cy="229.04477"
     inkscape:window-x="39"
     inkscape:window-y="24"
     inkscape:window-maximized="1"
     inkscape:current-layer="g10"
     fit-margin-top="0"
     fit-margin-left="0"
     fit-margin-right="0"
     fit-margin-bottom="0" /><g
     id="g10"
     inkscape:groupmode="layer"
     inkscape:label="Kouzina_trifold(menu)_Oct2017"
     transform="matrix(1.25,0,0,-1.25,-686.65491,219.29984)"><g
       id="g38865"
       transform="translate(-519.49102,-281.92763)"><path
         d="m 1203.4619,305.0195 c 0,-4.706 -3.851,-8.557 -8.557,-8.557 l -117.534,0 c -4.706,0 -8.556,3.851 -8.556,8.557 l 0,143.791 c 0,4.706 3.85,8.557 8.556,8.557 l 117.534,0 c 4.706,0 8.557,-3.851 8.557,-8.557 l 0,-143.791 z"
         style="fill:#b7c087;fill-opacity:1;fill-rule:nonzero;stroke:none"
         id="path7562"
         inkscape:connector-curvature="0" /><path
         d="m 1077.3711,300.7412 c -2.359,0 -4.278,1.92 -4.278,4.278 l 0,143.791 c 0,2.36 1.919,4.279 4.278,4.279 l 117.534,0 c 2.361,0 4.279,-1.919 4.279,-4.279 l 0,-143.791 c 0,-2.358 -1.918,-4.278 -4.279,-4.278 l -117.534,0 z"
         style="fill:#7c8c36;fill-opacity:1;fill-rule:nonzero;stroke:none"
         id="path7566"
         inkscape:connector-curvature="0" /><path
         d="m 1077.3711,302.4521 c -1.416,0 -2.567,1.151 -2.567,2.567 l 0,143.791 c 0,1.416 1.151,2.568 2.567,2.568 l 117.534,0 c 1.416,0 2.568,-1.152 2.568,-2.568 l 0,-143.791 c 0,-1.416 -1.152,-2.567 -2.568,-2.567 l -117.534,0 z"
         style="fill:#ffffff;fill-opacity:1;fill-rule:nonzero;stroke:none"
         id="path7570"
         inkscape:connector-curvature="0" /><path
         d="m 1148.793,429.3721 c -4.312,-2.485 -8.576,-7.804 -8.576,-7.804 0.244,3.435 3.461,6.485 5.896,8.322 -1.835,0.316 -3.605,0.548 -5.204,0.705 -5.388,-2.785 -10.259,-9.027 -10.259,-9.027 0.666,4.442 3.917,7.526 6.432,9.291 -0.428,0.013 -0.829,0.022 -1.181,0.022 0,0 -1.501,0.025 -3.804,-0.128 -6.537,-2.874 -11.585,-8.897 -11.585,-8.897 1.142,3.591 3.785,6.769 5.005,8.103 -6.995,-1.251 -15.264,-4.191 -17.087,-11.088 0,0 -1.991,-7.335 26.751,-7.694 0,0 29.822,-1.103 29.391,7.527 -0.29,5.798 -8.11,9.017 -15.779,10.668"
         style="fill:#7c8c36;fill-opacity:1;fill-rule:nonzero;stroke:none"
         id="path7574"
         inkscape:connector-curvature="0" /><path
         d="m 1135.8379,432.8057 c 0,0 1.349,3.456 -1.014,6.94 -2.444,3.612 0.312,5.736 0.312,5.736 0,0 -1.054,-3.318 1.573,-6.338 1.967,-2.263 -0.871,-6.338 -0.871,-6.338"
         style="fill:#7c8c36;fill-opacity:1;fill-rule:nonzero;stroke:none"
         id="path7578"
         inkscape:connector-curvature="0" /><path
         d="m 1131.6611,434.1162 c 0,0 0.928,2.375 -0.693,4.767 -1.679,2.479 0.212,3.937 0.212,3.937 0,0 -0.724,-2.277 1.081,-4.351 1.35,-1.553 -0.6,-4.353 -0.6,-4.353"
         style="fill:#7c8c36;fill-opacity:1;fill-rule:nonzero;stroke:none"
         id="path7582"
         inkscape:connector-curvature="0" /><path
         d="m 1140.2627,434.1162 c 0,0 0.926,2.375 -0.695,4.767 -1.68,2.479 0.212,3.937 0.212,3.937 0,0 -0.723,-2.277 1.081,-4.351 1.351,-1.553 -0.598,-4.353 -0.598,-4.353"
         style="fill:#7c8c36;fill-opacity:1;fill-rule:nonzero;stroke:none"
         id="path7586"
         inkscape:connector-curvature="0" /><path
         d="m 1147.7412,313.1406 c -1.781,0.543 -3.5,0.089 -3.836,-1.021 -0.342,-1.108 0.83,-2.444 2.615,-2.99 1.782,-0.545 4.883,0.7 4.883,0.7 0,0 -1.879,2.766 -3.662,3.311"
         style="fill:#7c8c36;fill-opacity:1;fill-rule:nonzero;stroke:none"
         id="path7590"
         inkscape:connector-curvature="0" /><path
         d="m 1144.0986,317.9072 c -0.977,-1.195 -1.162,-2.659 -0.416,-3.268 0.744,-0.606 2.139,-0.123 3.115,1.073 0.975,1.201 0.989,3.97 0.989,3.97 0,0 -2.713,-0.574 -3.688,-1.775"
         style="fill:#7c8c36;fill-opacity:1;fill-rule:nonzero;stroke:none"
         id="path7594"
         inkscape:connector-curvature="0" /><path
         d="m 1149.0029,319.7559 c -0.635,-1.409 -0.441,-2.87 0.432,-3.267 0.881,-0.395 2.101,0.427 2.738,1.834 0.639,1.409 -0.063,4.095 -0.063,4.095 0,0 -2.468,-1.256 -3.107,-2.662"
         style="fill:#7c8c36;fill-opacity:1;fill-rule:nonzero;stroke:none"
         id="path7598"
         inkscape:connector-curvature="0" /><path
         d="m 1154.1885,322.752 c -0.557,-1.442 -0.285,-2.889 0.611,-3.232 0.903,-0.351 2.077,0.542 2.637,1.981 0.551,1.443 -0.295,4.086 -0.295,4.086 0,0 -2.398,-1.389 -2.953,-2.835"
         style="fill:#7c8c36;fill-opacity:1;fill-rule:nonzero;stroke:none"
         id="path7602"
         inkscape:connector-curvature="0" /><path
         d="m 1158.8486,326.2539 c -0.25,-1.339 0.217,-2.552 1.047,-2.707 0.832,-0.157 1.705,0.798 1.965,2.135 0.254,1.34 -0.901,3.493 -0.901,3.493 0,0 -1.857,-1.584 -2.111,-2.921"
         style="fill:#7c8c36;fill-opacity:1;fill-rule:nonzero;stroke:none"
         id="path7606"
         inkscape:connector-curvature="0" /><path
         d="m 1162.2197,330.1094 c -0.115,-1.243 0.418,-2.308 1.189,-2.377 0.774,-0.08 1.495,0.875 1.606,2.117 0.115,1.242 -1.121,3.11 -1.121,3.11 0,0 -1.555,-1.609 -1.674,-2.85"
         style="fill:#7c8c36;fill-opacity:1;fill-rule:nonzero;stroke:none"
         id="path7610"
         inkscape:connector-curvature="0" /><path
         d="m 1164.6611,334.1533 c 0.104,-1.058 0.721,-1.857 1.373,-1.795 0.66,0.065 1.104,0.973 1,2.029 -0.103,1.055 -1.441,2.411 -1.441,2.411 0,0 -1.039,-1.592 -0.932,-2.645"
         style="fill:#7c8c36;fill-opacity:1;fill-rule:nonzero;stroke:none"
         id="path7614"
         inkscape:connector-curvature="0" /><path
         d="m 1166.1318,338.333 c 0.098,-1.054 0.711,-1.858 1.365,-1.797 0.656,0.06 1.106,0.968 1.008,2.026 -0.096,1.053 -1.43,2.417 -1.43,2.417 0,0 -1.047,-1.586 -0.943,-2.646"
         style="fill:#7c8c36;fill-opacity:1;fill-rule:nonzero;stroke:none"
         id="path7618"
         inkscape:connector-curvature="0" /><path
         d="m 1153.7393,314.7666 c -1.848,0.22 -3.457,-0.529 -3.598,-1.681 -0.134,-1.148 1.252,-2.258 3.104,-2.481 1.851,-0.225 4.685,1.556 4.685,1.556 0,0 -2.334,2.383 -4.191,2.606"
         style="fill:#7c8c36;fill-opacity:1;fill-rule:nonzero;stroke:none"
         id="path7622"
         inkscape:connector-curvature="0" /><path
         d="m 1158.5459,317.8809 c -1.857,-0.167 -3.271,-1.246 -3.168,-2.396 0.107,-1.155 1.697,-1.949 3.553,-1.777 1.855,0.166 4.256,2.495 4.256,2.495 0,0 -2.786,1.849 -4.641,1.678"
         style="fill:#7c8c36;fill-opacity:1;fill-rule:nonzero;stroke:none"
         id="path7626"
         inkscape:connector-curvature="0" /><path
         d="m 1162.8643,321.6289 c -1.467,-0.565 -2.375,-1.766 -2.021,-2.675 0.351,-0.915 1.826,-1.197 3.294,-0.635 1.471,0.567 2.895,3.008 2.895,3.008 0,0 -2.689,0.865 -4.168,0.302"
         style="fill:#7c8c36;fill-opacity:1;fill-rule:nonzero;stroke:none"
         id="path7630"
         inkscape:connector-curvature="0" /><path
         d="m 1166.0381,326.5908 c -1.377,-0.862 -2.055,-2.259 -1.516,-3.11 0.537,-0.857 2.088,-0.844 3.459,0.02 1.375,0.863 2.317,3.618 2.317,3.618 0,0 -2.889,0.337 -4.26,-0.528"
         style="fill:#7c8c36;fill-opacity:1;fill-rule:nonzero;stroke:none"
         id="path7634"
         inkscape:connector-curvature="0" /><path
         d="m 1168.6924,331.4053 c -1.139,-0.891 -1.613,-2.189 -1.057,-2.895 0.555,-0.709 1.928,-0.557 3.067,0.335 1.14,0.889 1.726,3.418 1.726,3.418 0,0 -2.593,0.035 -3.736,-0.858"
         style="fill:#7c8c36;fill-opacity:1;fill-rule:nonzero;stroke:none"
         id="path7638"
         inkscape:connector-curvature="0" /><path
         d="m 1170.0713,335.8682 c -0.885,-0.807 -1.188,-1.899 -0.691,-2.443 0.503,-0.551 1.617,-0.344 2.5,0.46 0.88,0.803 1.209,2.918 1.209,2.918 0,0 -2.137,-0.131 -3.018,-0.935"
         style="fill:#7c8c36;fill-opacity:1;fill-rule:nonzero;stroke:none"
         id="path7642"
         inkscape:connector-curvature="0" /><path
         d="m 1169.9561,339.6152 c -0.662,-0.973 -0.715,-2.087 -0.113,-2.499 0.603,-0.419 1.627,0.032 2.299,1.004 0.666,0.964 0.503,3.068 0.503,3.068 0,0 -2.015,-0.603 -2.689,-1.573"
         style="fill:#7c8c36;fill-opacity:1;fill-rule:nonzero;stroke:none"
         id="path7646"
         inkscape:connector-curvature="0" /><path
         d="m 1168.7959,338.4482 c 0.074,-3.672 -1.586,-7.098 -3.59,-10.057 -2.033,-2.987 -4.586,-5.612 -7.42,-7.834 -2.849,-2.211 -6.023,-3.971 -9.347,-5.27 -3.327,-1.318 -6.914,-1.992 -10.553,-1.751 l -0.016,-0.106 c 3.594,-0.869 7.436,-0.344 10.936,0.843 3.525,1.218 6.689,3.26 9.523,5.612 2.83,2.356 5.344,5.105 7.324,8.208 0.983,1.558 1.821,3.206 2.424,4.944 0.594,1.736 0.953,3.582 0.824,5.411 l -0.105,0 z"
         style="fill:#7c8c36;fill-opacity:1;fill-rule:nonzero;stroke:none"
         id="path7650"
         inkscape:connector-curvature="0" /><path
         d="m 1125.2334,313.1406 c 1.781,0.543 3.506,0.089 3.84,-1.021 0.342,-1.108 -0.83,-2.444 -2.615,-2.99 -1.78,-0.545 -4.881,0.7 -4.881,0.7 0,0 1.877,2.766 3.656,3.311"
         style="fill:#7c8c36;fill-opacity:1;fill-rule:nonzero;stroke:none"
         id="path7654"
         inkscape:connector-curvature="0" /><path
         d="m 1128.876,317.9072 c 0.979,-1.195 1.166,-2.659 0.42,-3.268 -0.746,-0.606 -2.139,-0.123 -3.117,1.073 -0.975,1.201 -0.989,3.97 -0.989,3.97 0,0 2.711,-0.574 3.686,-1.775"
         style="fill:#7c8c36;fill-opacity:1;fill-rule:nonzero;stroke:none"
         id="path7658"
         inkscape:connector-curvature="0" /><path
         d="m 1123.9736,319.7559 c 0.637,-1.409 0.445,-2.87 -0.43,-3.267 -0.879,-0.395 -2.103,0.427 -2.738,1.834 -0.637,1.409 0.061,4.095 0.061,4.095 0,0 2.47,-1.256 3.107,-2.662"
         style="fill:#7c8c36;fill-opacity:1;fill-rule:nonzero;stroke:none"
         id="path7662"
         inkscape:connector-curvature="0" /><path
         d="m 1118.7881,322.752 c 0.559,-1.442 0.289,-2.889 -0.611,-3.232 -0.899,-0.351 -2.073,0.542 -2.633,1.981 -0.553,1.443 0.293,4.086 0.293,4.086 0,0 2.398,-1.389 2.951,-2.835"
         style="fill:#7c8c36;fill-opacity:1;fill-rule:nonzero;stroke:none"
         id="path7666"
         inkscape:connector-curvature="0" /><path
         d="m 1114.1279,326.2539 c 0.254,-1.339 -0.213,-2.552 -1.045,-2.707 -0.83,-0.157 -1.707,0.798 -1.967,2.135 -0.254,1.34 0.901,3.493 0.901,3.493 0,0 1.861,-1.584 2.111,-2.921"
         style="fill:#7c8c36;fill-opacity:1;fill-rule:nonzero;stroke:none"
         id="path7670"
         inkscape:connector-curvature="0" /><path
         d="m 1110.7568,330.1094 c 0.117,-1.243 -0.414,-2.308 -1.186,-2.377 -0.775,-0.08 -1.494,0.875 -1.607,2.117 -0.115,1.242 1.121,3.11 1.121,3.11 0,0 1.557,-1.609 1.672,-2.85"
         style="fill:#7c8c36;fill-opacity:1;fill-rule:nonzero;stroke:none"
         id="path7674"
         inkscape:connector-curvature="0" /><path
         d="m 1108.3193,334.1533 c -0.104,-1.058 -0.721,-1.857 -1.377,-1.795 -0.656,0.065 -1.102,0.973 -0.996,2.029 0.103,1.055 1.437,2.411 1.437,2.411 0,0 1.045,-1.592 0.936,-2.645"
         style="fill:#7c8c36;fill-opacity:1;fill-rule:nonzero;stroke:none"
         id="path7678"
         inkscape:connector-curvature="0" /><path
         d="m 1106.8486,338.333 c -0.102,-1.054 -0.711,-1.858 -1.367,-1.797 -0.658,0.06 -1.104,0.968 -1.004,2.026 0.094,1.053 1.422,2.417 1.422,2.417 0,0 1.053,-1.586 0.949,-2.646"
         style="fill:#7c8c36;fill-opacity:1;fill-rule:nonzero;stroke:none"
         id="path7682"
         inkscape:connector-curvature="0" /><path
         d="m 1119.2412,314.7666 c 1.848,0.22 3.455,-0.529 3.596,-1.681 0.134,-1.148 -1.25,-2.258 -3.104,-2.481 -1.851,-0.225 -4.685,1.556 -4.685,1.556 0,0 2.334,2.383 4.193,2.606"
         style="fill:#7c8c36;fill-opacity:1;fill-rule:nonzero;stroke:none"
         id="path7686"
         inkscape:connector-curvature="0" /><path
         d="m 1114.4346,317.8809 c 1.857,-0.167 3.27,-1.246 3.168,-2.396 -0.105,-1.155 -1.699,-1.949 -3.553,-1.777 -1.853,0.166 -4.258,2.495 -4.258,2.495 0,0 2.788,1.849 4.643,1.678"
         style="fill:#7c8c36;fill-opacity:1;fill-rule:nonzero;stroke:none"
         id="path7690"
         inkscape:connector-curvature="0" /><path
         d="m 1110.1104,321.6289 c 1.469,-0.565 2.381,-1.766 2.027,-2.675 -0.355,-0.915 -1.828,-1.197 -3.295,-0.635 -1.472,0.567 -2.894,3.008 -2.894,3.008 0,0 2.689,0.865 4.162,0.302"
         style="fill:#7c8c36;fill-opacity:1;fill-rule:nonzero;stroke:none"
         id="path7694"
         inkscape:connector-curvature="0" /><path
         d="m 1106.9424,326.5908 c 1.377,-0.862 2.053,-2.259 1.514,-3.11 -0.535,-0.857 -2.088,-0.844 -3.459,0.02 -1.373,0.863 -2.317,3.618 -2.317,3.618 0,0 2.887,0.337 4.262,-0.528"
         style="fill:#7c8c36;fill-opacity:1;fill-rule:nonzero;stroke:none"
         id="path7698"
         inkscape:connector-curvature="0" /><path
         d="m 1104.2842,331.4053 c 1.139,-0.891 1.613,-2.189 1.061,-2.895 -0.559,-0.709 -1.928,-0.557 -3.069,0.335 -1.14,0.889 -1.726,3.418 -1.726,3.418 0,0 2.593,0.035 3.734,-0.858"
         style="fill:#7c8c36;fill-opacity:1;fill-rule:nonzero;stroke:none"
         id="path7702"
         inkscape:connector-curvature="0" /><path
         d="m 1102.9092,335.8682 c 0.883,-0.807 1.191,-1.899 0.689,-2.443 -0.501,-0.551 -1.617,-0.344 -2.498,0.46 -0.884,0.803 -1.212,2.918 -1.212,2.918 0,0 2.14,-0.131 3.021,-0.935"
         style="fill:#7c8c36;fill-opacity:1;fill-rule:nonzero;stroke:none"
         id="path7706"
         inkscape:connector-curvature="0" /><path
         d="m 1103.0244,339.6152 c 0.662,-0.973 0.715,-2.087 0.111,-2.499 -0.601,-0.419 -1.627,0.032 -2.3,1.004 -0.665,0.964 -0.502,3.068 -0.502,3.068 0,0 2.017,-0.603 2.691,-1.573"
         style="fill:#7c8c36;fill-opacity:1;fill-rule:nonzero;stroke:none"
         id="path7710"
         inkscape:connector-curvature="0" /><path
         d="m 1104.1807,338.4482 c -0.072,-3.672 1.588,-7.098 3.59,-10.057 2.037,-2.987 4.588,-5.612 7.422,-7.834 2.849,-2.211 6.021,-3.971 9.349,-5.27 3.325,-1.318 6.912,-1.992 10.551,-1.751 l 0.018,-0.106 c -3.596,-0.869 -7.44,-0.344 -10.938,0.843 -3.525,1.218 -6.689,3.26 -9.521,5.612 -2.836,2.356 -5.346,5.105 -7.33,8.208 -0.979,1.558 -1.815,3.206 -2.42,4.944 -0.596,1.736 -0.955,3.582 -0.825,5.411 l 0.104,0 z"
         style="fill:#7c8c36;fill-opacity:1;fill-rule:nonzero;stroke:none"
         id="path7714"
         inkscape:connector-curvature="0" /><path
         d="m 1113.1602,401.8809 c -0.326,0 -0.588,-0.07 -0.785,-0.21 -0.197,-0.14 -0.352,-0.337 -0.461,-0.59 -0.111,-0.254 -0.186,-0.555 -0.223,-0.905 -0.039,-0.35 -0.056,-0.735 -0.056,-1.155 0,-0.44 0.019,-0.836 0.062,-1.19 0.041,-0.353 0.117,-0.655 0.227,-0.905 0.111,-0.25 0.263,-0.441 0.461,-0.575 0.197,-0.133 0.457,-0.2 0.775,-0.2 0.318,0 0.576,0.067 0.773,0.2 0.198,0.134 0.352,0.325 0.461,0.575 0.112,0.25 0.186,0.552 0.229,0.905 0.041,0.354 0.062,0.75 0.062,1.19 0,0.42 -0.019,0.805 -0.056,1.155 -0.039,0.35 -0.114,0.651 -0.223,0.905 -0.109,0.253 -0.264,0.45 -0.461,0.59 -0.197,0.14 -0.459,0.21 -0.785,0.21 m 0,-6.43 c -0.486,0 -0.893,0.085 -1.219,0.255 -0.326,0.17 -0.59,0.41 -0.791,0.72 -0.201,0.309 -0.345,0.684 -0.431,1.125 -0.088,0.44 -0.131,0.93 -0.131,1.47 0,0.547 0.045,1.04 0.136,1.48 0.09,0.44 0.239,0.814 0.444,1.12 0.205,0.307 0.471,0.543 0.797,0.71 0.326,0.166 0.724,0.25 1.195,0.25 0.479,0 0.881,-0.084 1.207,-0.25 0.326,-0.167 0.59,-0.403 0.791,-0.71 0.201,-0.306 0.348,-0.68 0.438,-1.12 0.091,-0.44 0.136,-0.933 0.136,-1.48 0,-0.547 -0.041,-1.04 -0.125,-1.48 -0.084,-0.44 -0.224,-0.815 -0.422,-1.125 -0.197,-0.31 -0.461,-0.549 -0.791,-0.715 -0.33,-0.167 -0.742,-0.25 -1.234,-0.25 m -4.451,5.55 0.82,1.67 0.842,-0.32 -1.162,-1.55 -0.5,0.2 z"
         style="fill:#7c8c36;fill-opacity:1;fill-rule:nonzero;stroke:none"
         id="path7718"
         inkscape:connector-curvature="0" /><path
         d="m 1120.1719,395.541 c -0.176,0 -0.313,0.019 -0.416,0.055 -0.102,0.037 -0.186,0.085 -0.25,0.145 -0.064,0.06 -0.113,0.13 -0.148,0.21 -0.034,0.08 -0.067,0.163 -0.096,0.25 l -0.672,2.08 -0.252,0.94 -0.033,0 -0.342,-0.93 -1.115,-2.7 -0.889,0 1.537,3.639 0.604,0.551 -0.535,1.75 c -0.045,0.154 -0.112,0.284 -0.2,0.395 -0.088,0.11 -0.244,0.165 -0.472,0.165 -0.09,0 -0.194,-0.01 -0.307,-0.03 l -0.148,0.54 c 0.113,0.04 0.228,0.072 0.341,0.095 0.114,0.023 0.25,0.034 0.411,0.034 0.212,0 0.386,-0.023 0.523,-0.069 0.137,-0.047 0.25,-0.113 0.342,-0.2 0.09,-0.087 0.166,-0.191 0.226,-0.316 0.061,-0.123 0.116,-0.261 0.161,-0.415 l 1.638,-5.269 c 0.039,-0.107 0.09,-0.2 0.155,-0.28 0.064,-0.08 0.171,-0.127 0.324,-0.14 l 0,-0.45 c -0.045,-0.014 -0.104,-0.026 -0.176,-0.035 -0.072,-0.01 -0.143,-0.015 -0.211,-0.015"
         style="fill:#7c8c36;fill-opacity:1;fill-rule:nonzero;stroke:none"
         id="path7722"
         inkscape:connector-curvature="0" /><path
         d="m 1121.8887,398.041 c 0,-0.613 0.086,-1.075 0.256,-1.385 0.17,-0.31 0.476,-0.466 0.916,-0.466 0.115,0 0.23,0.017 0.348,0.051 0.117,0.033 0.228,0.076 0.335,0.13 0.106,0.053 0.206,0.111 0.295,0.175 0.092,0.063 0.176,0.125 0.252,0.184 l 0,2.731 c -0.175,0.1 -0.386,0.198 -0.632,0.295 -0.247,0.097 -0.495,0.144 -0.747,0.144 -0.25,0 -0.445,-0.068 -0.585,-0.204 -0.141,-0.136 -0.243,-0.301 -0.307,-0.495 -0.065,-0.193 -0.104,-0.397 -0.113,-0.61 -0.012,-0.214 -0.018,-0.397 -0.018,-0.55 m -0.979,-0.101 c 0,0.301 0.024,0.606 0.073,0.915 0.051,0.311 0.146,0.589 0.291,0.835 0.144,0.247 0.344,0.449 0.597,0.606 0.254,0.156 0.586,0.235 0.997,0.235 0.197,0 0.423,-0.044 0.677,-0.131 0.254,-0.086 0.502,-0.21 0.746,-0.369 l 0.159,0.39 0.728,0 0,-4.83 -0.66,0 -0.215,0.5 -0.514,-0.31 c -0.197,-0.114 -0.359,-0.195 -0.488,-0.245 -0.131,-0.051 -0.26,-0.075 -0.389,-0.075 -0.371,0 -0.683,0.068 -0.937,0.205 -0.256,0.137 -0.461,0.319 -0.621,0.55 -0.16,0.23 -0.274,0.495 -0.342,0.795 -0.068,0.3 -0.102,0.61 -0.102,0.929"
         style="fill:#7c8c36;fill-opacity:1;fill-rule:nonzero;stroke:none"
         id="path7726"
         inkscape:connector-curvature="0" /><path
         d="m 1130.9277,395.4512 c -0.266,0 -0.482,0.028 -0.652,0.085 -0.168,0.057 -0.299,0.142 -0.393,0.255 -0.094,0.113 -0.158,0.251 -0.191,0.415 -0.034,0.163 -0.051,0.354 -0.051,0.575 l 0,2.98 -1.139,0 0,0.629 3.518,0 0,-0.629 -1.49,0 0,-2.829 c 0,-0.3 0.046,-0.51 0.142,-0.63 0.094,-0.122 0.252,-0.181 0.471,-0.181 0.137,0 0.295,0.008 0.473,0.024 0.179,0.017 0.335,0.042 0.472,0.076 l 0.125,-0.543 c -0.137,-0.06 -0.273,-0.104 -0.408,-0.134 -0.137,-0.03 -0.264,-0.051 -0.377,-0.064 -0.113,-0.013 -0.215,-0.021 -0.301,-0.024 -0.088,-0.004 -0.15,-0.005 -0.187,-0.005 l -0.012,0 z"
         style="fill:#7c8c36;fill-opacity:1;fill-rule:nonzero;stroke:none"
         id="path7730"
         inkscape:connector-curvature="0" /><path
         d="m 1133.6367,398.041 c 0,-0.613 0.086,-1.075 0.256,-1.385 0.17,-0.31 0.476,-0.466 0.916,-0.466 0.115,0 0.23,0.017 0.348,0.051 0.117,0.033 0.228,0.076 0.335,0.13 0.106,0.053 0.206,0.111 0.295,0.175 0.092,0.063 0.176,0.125 0.252,0.184 l 0,2.731 c -0.175,0.1 -0.386,0.198 -0.632,0.295 -0.247,0.097 -0.495,0.144 -0.747,0.144 -0.25,0 -0.445,-0.068 -0.585,-0.204 -0.141,-0.136 -0.243,-0.301 -0.307,-0.495 -0.065,-0.193 -0.104,-0.397 -0.113,-0.61 -0.012,-0.214 -0.018,-0.397 -0.018,-0.55 m -0.979,-0.101 c 0,0.301 0.024,0.606 0.073,0.915 0.051,0.311 0.146,0.589 0.291,0.835 0.144,0.247 0.344,0.449 0.597,0.606 0.254,0.156 0.586,0.235 0.997,0.235 0.197,0 0.423,-0.044 0.677,-0.131 0.254,-0.086 0.502,-0.21 0.746,-0.369 l 0.159,0.39 0.728,0 0,-4.83 -0.66,0 -0.215,0.5 -0.514,-0.31 c -0.197,-0.114 -0.359,-0.195 -0.488,-0.245 -0.131,-0.051 -0.26,-0.075 -0.389,-0.075 -0.371,0 -0.683,0.068 -0.937,0.205 -0.256,0.137 -0.461,0.319 -0.621,0.55 -0.16,0.23 -0.274,0.495 -0.342,0.795 -0.068,0.3 -0.102,0.61 -0.102,0.929"
         style="fill:#7c8c36;fill-opacity:1;fill-rule:nonzero;stroke:none"
         id="path7734"
         inkscape:connector-curvature="0" /><path
         d="m 1144.2227,399.7412 -2.197,0 0,-4.15 -0.887,0 0,4.799 3.973,0 0,-4.799 -0.889,0 0,4.15 z"
         style="fill:#7c8c36;fill-opacity:1;fill-rule:nonzero;stroke:none"
         id="path7738"
         inkscape:connector-curvature="0" /><path
         d="m 1146.8145,399.7705 -0.604,0.141 0,0.489 1.491,0 0,-4.81 -0.887,0 0,4.18 z"
         style="fill:#7c8c36;fill-opacity:1;fill-rule:nonzero;stroke:none"
         id="path7742"
         inkscape:connector-curvature="0" /><path
         d="m 1150.6758,401.2412 0.82,1.67 0.842,-0.32 -1.16,-1.55 -0.502,0.2 z m -0.818,-3.2 c 0,-0.613 0.084,-1.075 0.255,-1.385 0.17,-0.311 0.475,-0.466 0.917,-0.466 0.113,0 0.228,0.017 0.347,0.051 0.117,0.033 0.229,0.076 0.336,0.13 0.106,0.053 0.203,0.111 0.295,0.175 0.092,0.063 0.174,0.125 0.25,0.184 l 0,2.731 c -0.174,0.099 -0.385,0.198 -0.631,0.295 -0.246,0.096 -0.496,0.144 -0.746,0.144 -0.25,0 -0.445,-0.068 -0.586,-0.204 -0.14,-0.137 -0.242,-0.302 -0.307,-0.495 -0.066,-0.193 -0.103,-0.398 -0.115,-0.61 -0.011,-0.214 -0.015,-0.397 -0.015,-0.55 m -0.981,-0.101 c 0,0.301 0.026,0.606 0.074,0.915 0.049,0.311 0.147,0.589 0.291,0.835 0.145,0.247 0.344,0.448 0.598,0.606 0.254,0.156 0.586,0.235 0.996,0.235 0.197,0 0.422,-0.044 0.678,-0.131 0.254,-0.086 0.502,-0.21 0.744,-0.369 l 0.16,0.39 0.729,0 0,-4.83 -0.66,0 -0.217,0.5 -0.512,-0.31 c -0.197,-0.114 -0.361,-0.195 -0.49,-0.245 -0.129,-0.051 -0.258,-0.075 -0.387,-0.075 -0.371,0 -0.685,0.068 -0.939,0.205 -0.254,0.137 -0.461,0.319 -0.62,0.55 -0.16,0.23 -0.273,0.495 -0.341,0.795 -0.069,0.299 -0.104,0.61 -0.104,0.929"
         style="fill:#7c8c36;fill-opacity:1;fill-rule:nonzero;stroke:none"
         id="path7746"
         inkscape:connector-curvature="0" /><path
         d="m 1156.3145,395.4512 c -0.266,0 -0.482,0.028 -0.65,0.085 -0.17,0.057 -0.301,0.142 -0.395,0.255 -0.094,0.113 -0.156,0.251 -0.191,0.415 -0.034,0.163 -0.049,0.354 -0.049,0.575 l 0,2.98 -1.139,0 0,0.629 3.518,0 0,-0.629 -1.492,0 0,-2.829 c 0,-0.3 0.046,-0.51 0.142,-0.63 0.096,-0.122 0.252,-0.181 0.473,-0.181 0.137,0 0.295,0.008 0.472,0.024 0.178,0.017 0.336,0.042 0.473,0.076 l 0.125,-0.543 c -0.137,-0.06 -0.273,-0.104 -0.41,-0.134 -0.137,-0.03 -0.262,-0.051 -0.375,-0.064 -0.115,-0.013 -0.215,-0.021 -0.303,-0.024 -0.088,-0.004 -0.15,-0.005 -0.187,-0.005 l -0.012,0 z"
         style="fill:#7c8c36;fill-opacity:1;fill-rule:nonzero;stroke:none"
         id="path7750"
         inkscape:connector-curvature="0" /><path
         d="m 1159.0234,398.041 c 0,-0.613 0.086,-1.075 0.258,-1.385 0.17,-0.31 0.474,-0.466 0.916,-0.466 0.113,0 0.228,0.017 0.346,0.051 0.119,0.033 0.23,0.076 0.335,0.13 0.108,0.053 0.206,0.111 0.297,0.175 0.092,0.063 0.174,0.125 0.25,0.184 l 0,2.731 c -0.173,0.1 -0.384,0.198 -0.631,0.295 -0.248,0.097 -0.496,0.144 -0.746,0.144 -0.25,0 -0.445,-0.068 -0.586,-0.204 -0.14,-0.136 -0.244,-0.301 -0.308,-0.495 -0.065,-0.193 -0.102,-0.397 -0.113,-0.61 -0.012,-0.214 -0.018,-0.397 -0.018,-0.55 m -0.979,-0.101 c 0,0.301 0.026,0.606 0.075,0.915 0.049,0.311 0.146,0.589 0.291,0.835 0.142,0.247 0.342,0.449 0.597,0.606 0.254,0.156 0.586,0.235 0.996,0.235 0.198,0 0.422,-0.044 0.676,-0.131 0.256,-0.086 0.504,-0.21 0.746,-0.369 l 0.161,0.39 0.728,0 0,-4.83 -0.66,0 -0.217,0.5 -0.512,-0.31 c -0.197,-0.114 -0.361,-0.195 -0.49,-0.245 -0.129,-0.051 -0.258,-0.075 -0.387,-0.075 -0.371,0 -0.685,0.068 -0.939,0.205 -0.254,0.137 -0.461,0.319 -0.621,0.55 -0.158,0.23 -0.272,0.495 -0.34,0.795 -0.068,0.3 -0.104,0.61 -0.104,0.929"
         style="fill:#7c8c36;fill-opacity:1;fill-rule:nonzero;stroke:none"
         id="path7754"
         inkscape:connector-curvature="0" /><path
         d="m 1103.7363,389.7607 c -0.25,0 -0.459,-0.049 -0.627,-0.145 -0.166,-0.096 -0.301,-0.225 -0.404,-0.385 -0.102,-0.159 -0.174,-0.347 -0.215,-0.56 -0.043,-0.214 -0.063,-0.44 -0.063,-0.68 0,-0.28 0.02,-0.535 0.063,-0.765 0.041,-0.23 0.113,-0.43 0.215,-0.6 0.103,-0.17 0.238,-0.302 0.404,-0.395 0.168,-0.093 0.379,-0.14 0.639,-0.14 0.25,0 0.457,0.045 0.619,0.135 0.164,0.09 0.297,0.219 0.398,0.385 0.104,0.167 0.176,0.363 0.217,0.59 0.041,0.227 0.063,0.48 0.063,0.76 0,0.213 -0.022,0.416 -0.063,0.611 -0.041,0.192 -0.113,0.369 -0.217,0.529 -0.101,0.16 -0.236,0.297 -0.404,0.41 -0.166,0.113 -0.375,0.196 -0.625,0.25 m 1.559,-0.02 c 0.257,-0.2 0.441,-0.459 0.546,-0.78 0.106,-0.32 0.161,-0.657 0.161,-1.01 0,-0.34 -0.045,-0.662 -0.131,-0.965 -0.088,-0.303 -0.227,-0.569 -0.416,-0.795 -0.19,-0.227 -0.432,-0.407 -0.723,-0.54 -0.293,-0.133 -0.648,-0.2 -1.064,-0.2 -0.387,0 -0.719,0.064 -0.996,0.19 -0.278,0.127 -0.506,0.3 -0.684,0.52 -0.178,0.22 -0.309,0.478 -0.393,0.775 -0.084,0.297 -0.125,0.618 -0.125,0.965 0,0.334 0.043,0.652 0.131,0.955 0.088,0.303 0.225,0.568 0.41,0.795 0.186,0.226 0.424,0.407 0.717,0.54 0.293,0.133 0.643,0.2 1.053,0.2 l 2.562,0 0,-0.63 -1.025,0 -0.023,-0.02 z"
         style="fill:#7c8c36;fill-opacity:1;fill-rule:nonzero;stroke:none"
         id="path7758"
         inkscape:connector-curvature="0" /><path
         d="m 1109.2363,385.4512 c -0.387,0 -0.711,0.05 -0.973,0.149 -0.261,0.101 -0.472,0.229 -0.631,0.385 -0.16,0.157 -0.273,0.332 -0.341,0.526 -0.069,0.193 -0.104,0.379 -0.104,0.56 l 0,3.319 0.889,0 0,-3.33 c 0,-0.106 0.023,-0.216 0.068,-0.33 0.045,-0.113 0.117,-0.217 0.217,-0.314 0.098,-0.097 0.221,-0.177 0.369,-0.24 0.149,-0.064 0.32,-0.095 0.518,-0.095 0.115,0 0.242,0.016 0.383,0.05 0.138,0.033 0.271,0.09 0.398,0.17 0.125,0.08 0.228,0.19 0.312,0.33 0.084,0.139 0.125,0.32 0.125,0.54 l 0,3.219 0.889,0 0,-3.189 c 0,-0.4 -0.08,-0.717 -0.24,-0.95 -0.158,-0.234 -0.352,-0.408 -0.574,-0.526 -0.225,-0.116 -0.457,-0.191 -0.701,-0.224 -0.243,-0.033 -0.444,-0.05 -0.604,-0.05"
         style="fill:#7c8c36;fill-opacity:1;fill-rule:nonzero;stroke:none"
         id="path7762"
         inkscape:connector-curvature="0" /><path
         d="m 1115.8887,390.3906 0.957,0 -1.936,-4.8 -0.751,0 -2.038,4.8 0.957,0 1.252,-3.16 0.215,-0.64 0.035,0 0.194,0.64 1.115,3.16 z"
         style="fill:#7c8c36;fill-opacity:1;fill-rule:nonzero;stroke:none"
         id="path7766"
         inkscape:connector-curvature="0" /><path
         d="m 1119.4414,389.8906 c -0.258,0 -0.469,-0.048 -0.633,-0.145 -0.162,-0.096 -0.291,-0.228 -0.387,-0.395 -0.093,-0.166 -0.16,-0.361 -0.199,-0.585 -0.037,-0.224 -0.056,-0.458 -0.056,-0.705 0,-0.286 0.019,-0.55 0.056,-0.79 0.039,-0.239 0.106,-0.448 0.199,-0.625 0.096,-0.177 0.225,-0.314 0.387,-0.41 0.164,-0.097 0.375,-0.145 0.633,-0.145 0.25,0 0.457,0.047 0.619,0.14 0.164,0.094 0.293,0.225 0.389,0.395 0.094,0.17 0.162,0.375 0.205,0.616 0.041,0.239 0.062,0.503 0.062,0.79 0,0.246 -0.019,0.481 -0.058,0.704 -0.037,0.223 -0.106,0.421 -0.203,0.591 -0.1,0.169 -0.231,0.306 -0.395,0.409 -0.162,0.103 -0.369,0.155 -0.619,0.155 m -0.045,-4.439 c -0.396,0 -0.732,0.064 -1.008,0.194 -0.277,0.13 -0.504,0.308 -0.677,0.535 -0.176,0.227 -0.303,0.493 -0.381,0.8 -0.08,0.306 -0.121,0.637 -0.121,0.99 0,0.333 0.039,0.655 0.115,0.965 0.074,0.31 0.203,0.584 0.381,0.82 0.177,0.237 0.41,0.425 0.693,0.566 0.285,0.139 0.633,0.21 1.043,0.21 0.402,0 0.746,-0.066 1.029,-0.196 0.285,-0.13 0.518,-0.308 0.696,-0.535 0.177,-0.226 0.306,-0.493 0.386,-0.8 0.08,-0.306 0.119,-0.633 0.119,-0.98 0,-0.347 -0.039,-0.675 -0.119,-0.984 -0.08,-0.311 -0.211,-0.584 -0.392,-0.821 -0.182,-0.236 -0.418,-0.424 -0.705,-0.559 -0.289,-0.137 -0.643,-0.205 -1.059,-0.205"
         style="fill:#7c8c36;fill-opacity:1;fill-rule:nonzero;stroke:none"
         id="path7770"
         inkscape:connector-curvature="0" /><path
         d="m 1123.498,388.0205 c 0,-0.279 0.018,-0.538 0.051,-0.774 0.035,-0.238 0.099,-0.441 0.193,-0.611 0.096,-0.17 0.225,-0.303 0.389,-0.4 0.162,-0.097 0.373,-0.145 0.631,-0.145 0.494,0 0.834,0.168 1.019,0.505 0.186,0.337 0.28,0.802 0.28,1.396 0,0.186 -0.01,0.375 -0.03,0.564 -0.019,0.191 -0.074,0.37 -0.164,0.54 -0.092,0.17 -0.23,0.328 -0.416,0.476 -0.185,0.146 -0.443,0.269 -0.769,0.369 -0.243,-0.113 -0.442,-0.243 -0.598,-0.39 -0.154,-0.146 -0.277,-0.301 -0.363,-0.465 -0.088,-0.163 -0.147,-0.335 -0.178,-0.514 -0.029,-0.181 -0.045,-0.364 -0.045,-0.551 m 0.479,2.24 c -0.25,0.12 -0.444,0.265 -0.581,0.436 -0.136,0.17 -0.205,0.408 -0.205,0.715 0,0.246 0.053,0.455 0.161,0.625 0.109,0.17 0.25,0.306 0.427,0.41 0.176,0.102 0.375,0.178 0.596,0.224 0.221,0.047 0.443,0.071 0.672,0.071 0.289,0 0.558,-0.024 0.814,-0.071 0.254,-0.046 0.442,-0.096 0.563,-0.15 l -0.205,-0.59 c -0.166,0.054 -0.352,0.094 -0.557,0.12 -0.205,0.027 -0.389,0.04 -0.547,0.04 -0.691,0 -1.037,-0.226 -1.037,-0.679 0,-0.174 0.066,-0.321 0.199,-0.441 0.133,-0.12 0.285,-0.207 0.459,-0.26 0.432,-0.139 0.795,-0.294 1.09,-0.464 0.293,-0.17 0.527,-0.366 0.703,-0.585 0.174,-0.221 0.297,-0.469 0.373,-0.745 0.076,-0.278 0.114,-0.589 0.114,-0.936 0,-0.354 -0.041,-0.685 -0.125,-0.995 -0.084,-0.31 -0.217,-0.578 -0.399,-0.805 -0.181,-0.226 -0.42,-0.405 -0.711,-0.535 -0.293,-0.13 -0.648,-0.194 -1.064,-0.194 -0.395,0 -0.731,0.063 -1.008,0.189 -0.277,0.127 -0.5,0.302 -0.672,0.526 -0.17,0.222 -0.295,0.484 -0.375,0.785 -0.08,0.299 -0.119,0.626 -0.119,0.979 0,0.26 0.031,0.51 0.096,0.75 0.064,0.24 0.158,0.464 0.279,0.67 0.121,0.207 0.271,0.385 0.449,0.535 0.178,0.151 0.381,0.265 0.61,0.345 l 0,0.03 z"
         style="fill:#7c8c36;fill-opacity:1;fill-rule:nonzero;stroke:none"
         id="path7774"
         inkscape:connector-curvature="0" /><path
         d="m 1128.7891,386.9307 c 0,-0.253 0.082,-0.45 0.246,-0.59 0.162,-0.139 0.416,-0.21 0.756,-0.21 0.289,0 0.559,0.022 0.809,0.066 0.25,0.043 0.509,0.118 0.775,0.224 l 0.271,-0.58 c -0.287,-0.146 -0.576,-0.247 -0.865,-0.3 -0.287,-0.053 -0.613,-0.08 -0.978,-0.08 -0.235,0 -0.469,0.025 -0.7,0.075 -0.232,0.05 -0.441,0.131 -0.627,0.246 -0.185,0.113 -0.335,0.26 -0.449,0.444 -0.113,0.184 -0.17,0.405 -0.17,0.665 0,0.254 0.077,0.492 0.233,0.715 0.156,0.223 0.392,0.386 0.711,0.485 l 0,0.03 -0.592,0.27 c -0.09,0.04 -0.162,0.125 -0.217,0.255 -0.053,0.13 -0.078,0.262 -0.078,0.395 0,0.234 0.053,0.442 0.158,0.625 0.108,0.183 0.252,0.34 0.434,0.47 0.181,0.13 0.392,0.231 0.631,0.3 0.24,0.07 0.496,0.105 0.769,0.105 0.242,0 0.485,-0.021 0.729,-0.065 0.242,-0.043 0.545,-0.139 0.91,-0.285 l -0.285,-0.59 c -0.227,0.094 -0.442,0.155 -0.643,0.185 -0.201,0.03 -0.392,0.045 -0.574,0.045 -0.084,0 -0.191,-0.008 -0.32,-0.025 -0.129,-0.017 -0.258,-0.05 -0.387,-0.1 -0.129,-0.049 -0.238,-0.12 -0.33,-0.21 -0.09,-0.089 -0.137,-0.209 -0.137,-0.355 0,-0.16 0.045,-0.285 0.131,-0.375 0.088,-0.09 0.195,-0.155 0.324,-0.194 0.129,-0.04 0.272,-0.066 0.428,-0.076 0.156,-0.01 0.297,-0.015 0.428,-0.015 l 0.556,0 0,-0.64 -0.636,0 c -0.229,0 -0.426,-0.028 -0.592,-0.085 -0.168,-0.056 -0.305,-0.129 -0.41,-0.215 -0.108,-0.087 -0.184,-0.185 -0.235,-0.295 -0.049,-0.11 -0.074,-0.214 -0.074,-0.315"
         style="fill:#7c8c36;fill-opacity:1;fill-rule:nonzero;stroke:none"
         id="path7778"
         inkscape:connector-curvature="0" /><path
         d="m 1134.0645,391.2412 0.82,1.67 0.842,-0.32 -1.16,-1.55 -0.502,0.2 z m 0.479,-5.79 c -0.387,0 -0.711,0.05 -0.973,0.149 -0.262,0.101 -0.473,0.229 -0.633,0.385 -0.158,0.157 -0.273,0.332 -0.342,0.526 -0.068,0.193 -0.101,0.379 -0.101,0.56 l 0,3.319 0.886,0 0,-3.33 c 0,-0.106 0.024,-0.216 0.069,-0.33 0.047,-0.113 0.119,-0.218 0.217,-0.314 0.099,-0.097 0.222,-0.177 0.371,-0.24 0.146,-0.064 0.32,-0.095 0.517,-0.095 0.114,0 0.24,0.016 0.381,0.05 0.141,0.033 0.274,0.089 0.399,0.17 0.125,0.08 0.23,0.19 0.312,0.33 0.084,0.139 0.125,0.32 0.125,0.54 l 0,3.219 0.889,0 0,-3.189 c 0,-0.4 -0.08,-0.717 -0.239,-0.95 -0.16,-0.234 -0.351,-0.408 -0.576,-0.526 -0.222,-0.116 -0.457,-0.191 -0.699,-0.224 -0.244,-0.033 -0.443,-0.05 -0.603,-0.05"
         style="fill:#7c8c36;fill-opacity:1;fill-rule:nonzero;stroke:none"
         id="path7782"
         inkscape:connector-curvature="0" /><path
         d="m 1139.918,389.8906 c -0.258,0 -0.469,-0.048 -0.631,-0.145 -0.164,-0.096 -0.293,-0.228 -0.387,-0.395 -0.095,-0.166 -0.162,-0.361 -0.199,-0.585 -0.039,-0.224 -0.056,-0.458 -0.056,-0.705 0,-0.286 0.017,-0.55 0.056,-0.79 0.037,-0.239 0.104,-0.448 0.199,-0.625 0.094,-0.177 0.223,-0.314 0.387,-0.41 0.162,-0.097 0.373,-0.145 0.631,-0.145 0.252,0 0.457,0.047 0.621,0.14 0.162,0.094 0.293,0.225 0.387,0.395 0.096,0.17 0.164,0.375 0.205,0.616 0.041,0.239 0.062,0.503 0.062,0.79 0,0.246 -0.019,0.481 -0.056,0.704 -0.039,0.223 -0.106,0.421 -0.205,0.591 -0.098,0.169 -0.231,0.306 -0.393,0.409 -0.164,0.103 -0.369,0.155 -0.621,0.155 m -0.045,-4.439 c -0.394,0 -0.73,0.064 -1.008,0.194 -0.277,0.13 -0.502,0.308 -0.677,0.535 -0.174,0.227 -0.301,0.493 -0.381,0.8 -0.08,0.306 -0.119,0.637 -0.119,0.99 0,0.333 0.037,0.655 0.113,0.965 0.076,0.31 0.203,0.584 0.381,0.82 0.179,0.237 0.41,0.425 0.695,0.566 0.285,0.139 0.631,0.21 1.041,0.21 0.402,0 0.746,-0.066 1.031,-0.196 0.285,-0.13 0.516,-0.308 0.694,-0.535 0.179,-0.226 0.308,-0.493 0.388,-0.8 0.078,-0.306 0.119,-0.633 0.119,-0.98 0,-0.347 -0.041,-0.675 -0.119,-0.984 -0.08,-0.311 -0.211,-0.584 -0.394,-0.821 -0.182,-0.236 -0.416,-0.424 -0.705,-0.559 -0.289,-0.137 -0.641,-0.205 -1.059,-0.205"
         style="fill:#7c8c36;fill-opacity:1;fill-rule:nonzero;stroke:none"
         id="path7786"
         inkscape:connector-curvature="0" /><path
         d="m 1146.2988,390.3906 0.957,0 -1.936,-4.8 -0.751,0 -2.038,4.8 0.957,0 1.252,-3.16 0.215,-0.64 0.035,0 0.194,0.64 1.115,3.16 z"
         style="fill:#7c8c36;fill-opacity:1;fill-rule:nonzero;stroke:none"
         id="path7790"
         inkscape:connector-curvature="0" /><path
         d="m 1150.1582,385.4512 c -0.266,0 -0.482,0.028 -0.65,0.085 -0.17,0.057 -0.301,0.142 -0.395,0.255 -0.094,0.113 -0.156,0.251 -0.191,0.415 -0.034,0.163 -0.049,0.354 -0.049,0.575 l 0,2.98 -1.139,0 0,0.629 3.518,0 0,-0.629 -1.492,0 0,-2.829 c 0,-0.3 0.046,-0.51 0.142,-0.63 0.096,-0.122 0.252,-0.181 0.473,-0.181 0.137,0 0.295,0.008 0.472,0.024 0.178,0.017 0.336,0.042 0.473,0.076 l 0.125,-0.543 c -0.137,-0.06 -0.273,-0.104 -0.41,-0.134 -0.137,-0.03 -0.262,-0.051 -0.375,-0.064 -0.115,-0.013 -0.215,-0.021 -0.303,-0.024 -0.088,-0.004 -0.15,-0.005 -0.187,-0.005 l -0.012,0 z"
         style="fill:#7c8c36;fill-opacity:1;fill-rule:nonzero;stroke:none"
         id="path7794"
         inkscape:connector-curvature="0" /><path
         d="m 1152.8672,388.041 c 0,-0.613 0.086,-1.075 0.258,-1.385 0.17,-0.31 0.474,-0.466 0.916,-0.466 0.113,0 0.228,0.017 0.346,0.051 0.119,0.033 0.23,0.076 0.335,0.13 0.108,0.053 0.206,0.111 0.297,0.175 0.092,0.063 0.174,0.125 0.25,0.184 l 0,2.731 c -0.173,0.1 -0.384,0.198 -0.631,0.295 -0.248,0.097 -0.496,0.144 -0.746,0.144 -0.25,0 -0.445,-0.068 -0.586,-0.204 -0.14,-0.136 -0.244,-0.301 -0.308,-0.495 -0.065,-0.193 -0.102,-0.397 -0.113,-0.61 -0.012,-0.214 -0.018,-0.397 -0.018,-0.55 m -0.979,-0.101 c 0,0.301 0.026,0.606 0.075,0.915 0.049,0.311 0.146,0.589 0.291,0.835 0.142,0.247 0.342,0.449 0.597,0.606 0.254,0.156 0.586,0.235 0.996,0.235 0.198,0 0.422,-0.044 0.676,-0.131 0.256,-0.086 0.504,-0.21 0.746,-0.369 l 0.161,0.39 0.728,0 0,-4.83 -0.66,0 -0.217,0.5 -0.512,-0.31 c -0.197,-0.114 -0.361,-0.195 -0.49,-0.245 -0.129,-0.051 -0.258,-0.075 -0.387,-0.075 -0.371,0 -0.685,0.068 -0.939,0.205 -0.254,0.137 -0.461,0.319 -0.621,0.55 -0.158,0.23 -0.272,0.495 -0.34,0.795 -0.068,0.3 -0.104,0.61 -0.104,0.929"
         style="fill:#7c8c36;fill-opacity:1;fill-rule:nonzero;stroke:none"
         id="path7798"
         inkscape:connector-curvature="0" /><path
         d="m 1157.6641,389.7705 -0.604,0.141 0,0.489 1.493,0 0,-4.81 -0.889,0 0,4.18 z"
         style="fill:#7c8c36;fill-opacity:1;fill-rule:nonzero;stroke:none"
         id="path7802"
         inkscape:connector-curvature="0" /><path
         d="m 1163.584,390.3906 0,-3.082 c 0,-0.153 0.012,-0.298 0.035,-0.435 0.022,-0.135 0.069,-0.254 0.135,-0.353 0.068,-0.101 0.168,-0.179 0.295,-0.235 0.129,-0.057 0.299,-0.084 0.51,-0.084 0.152,0 0.293,0.017 0.425,0.054 0.131,0.036 0.254,0.083 0.368,0.14 0.113,0.057 0.214,0.114 0.306,0.175 0.09,0.059 0.17,0.116 0.239,0.169 l 0,3.651 0.886,0 0,-4.8 -0.672,0 -0.214,0.5 -0.545,-0.309 c -0.362,-0.207 -0.684,-0.311 -0.963,-0.311 -0.309,0 -0.582,0.047 -0.815,0.14 l 0,-2.02 -0.888,0 0,6.8 0.898,0 z"
         style="fill:#7c8c36;fill-opacity:1;fill-rule:nonzero;stroke:none"
         id="path7806"
         inkscape:connector-curvature="0" /><path
         d="m 1168.7988,386.9307 c 0,-0.253 0.082,-0.45 0.244,-0.59 0.164,-0.139 0.416,-0.21 0.758,-0.21 0.289,0 0.559,0.022 0.809,0.066 0.25,0.043 0.507,0.118 0.773,0.224 l 0.273,-0.58 c -0.289,-0.146 -0.576,-0.247 -0.865,-0.3 -0.289,-0.053 -0.615,-0.08 -0.978,-0.08 -0.237,0 -0.469,0.025 -0.701,0.075 -0.231,0.05 -0.44,0.131 -0.626,0.246 -0.187,0.113 -0.335,0.26 -0.451,0.444 -0.113,0.184 -0.17,0.405 -0.17,0.665 0,0.254 0.079,0.492 0.235,0.715 0.154,0.223 0.392,0.386 0.711,0.485 l 0,0.03 -0.592,0.27 c -0.092,0.04 -0.164,0.125 -0.217,0.255 -0.053,0.13 -0.08,0.262 -0.08,0.395 0,0.234 0.053,0.442 0.16,0.625 0.106,0.183 0.25,0.34 0.432,0.47 0.183,0.13 0.392,0.231 0.633,0.3 0.238,0.07 0.494,0.105 0.767,0.105 0.244,0 0.487,-0.021 0.729,-0.065 0.244,-0.043 0.547,-0.139 0.912,-0.285 l -0.285,-0.59 c -0.229,0.094 -0.444,0.155 -0.645,0.185 -0.201,0.03 -0.392,0.045 -0.574,0.045 -0.084,0 -0.189,-0.008 -0.318,-0.025 -0.129,-0.017 -0.258,-0.05 -0.387,-0.1 -0.129,-0.049 -0.24,-0.12 -0.33,-0.21 -0.092,-0.089 -0.137,-0.209 -0.137,-0.355 0,-0.16 0.043,-0.285 0.131,-0.375 0.086,-0.09 0.195,-0.155 0.324,-0.194 0.129,-0.04 0.272,-0.066 0.428,-0.076 0.154,-0.01 0.297,-0.015 0.426,-0.015 l 0.558,0 0,-0.64 -0.638,0 c -0.227,0 -0.424,-0.028 -0.592,-0.085 -0.166,-0.056 -0.303,-0.129 -0.41,-0.215 -0.106,-0.087 -0.184,-0.185 -0.233,-0.295 -0.049,-0.11 -0.074,-0.214 -0.074,-0.315"
         style="fill:#7c8c36;fill-opacity:1;fill-rule:nonzero;stroke:none"
         id="path7810"
         inkscape:connector-curvature="0" /><path
         d="m 1089.4102,376.499 c -0.102,-0.168 -0.193,-0.314 -0.281,-0.438 -0.086,-0.125 -0.18,-0.27 -0.28,-0.438 -0.099,-0.152 -0.209,-0.324 -0.328,-0.517 -0.117,-0.191 -0.226,-0.363 -0.328,-0.515 l -2.131,0 2.254,2.952 -1.953,2.82 2.104,0 1.011,-1.74 0.041,0 c 0.164,0.296 0.329,0.588 0.493,0.876 0.164,0.288 0.332,0.576 0.503,0.864 l 2.147,0 -2.051,-2.748 c 0.348,-0.505 0.694,-1.009 1.039,-1.512 l 1.037,-1.512 -2.117,0 c -0.082,0.152 -0.17,0.309 -0.265,0.473 -0.096,0.164 -0.19,0.323 -0.28,0.475 -0.092,0.168 -0.185,0.328 -0.281,0.48 -0.096,0.152 -0.189,0.312 -0.279,0.48 l -0.055,0 z"
         style="fill:#7c8c36;fill-opacity:1;fill-rule:nonzero;stroke:none"
         id="path7814"
         inkscape:connector-curvature="0" /><path
         d="m 1094.2656,377.6152 -0.779,0.384 c -0.1,0.048 -0.174,0.141 -0.219,0.282 -0.045,0.14 -0.068,0.258 -0.068,0.354 0,0.295 0.064,0.561 0.191,0.797 0.127,0.237 0.307,0.437 0.539,0.601 0.232,0.163 0.51,0.289 0.834,0.378 0.322,0.088 0.676,0.132 1.059,0.132 0.291,0 0.634,-0.029 1.031,-0.084 0.396,-0.057 0.803,-0.164 1.223,-0.324 l -0.356,-1.165 c -0.281,0.088 -0.541,0.149 -0.779,0.18 -0.237,0.032 -0.436,0.049 -0.6,0.049 -0.109,0 -0.224,-0.009 -0.342,-0.024 -0.119,-0.016 -0.222,-0.042 -0.314,-0.079 -0.092,-0.036 -0.166,-0.089 -0.225,-0.162 -0.06,-0.071 -0.09,-0.16 -0.09,-0.263 0,-0.153 0.083,-0.277 0.247,-0.372 0.164,-0.096 0.363,-0.144 0.601,-0.144 l 0.764,0 0,-1.104 -0.6,0 c -0.41,0 -0.699,-0.065 -0.867,-0.193 -0.17,-0.128 -0.254,-0.283 -0.254,-0.468 0,-0.2 0.09,-0.355 0.268,-0.467 0.175,-0.113 0.402,-0.168 0.675,-0.168 0.237,0 0.506,0.021 0.805,0.066 0.301,0.043 0.584,0.113 0.848,0.21 l 0.383,-1.141 c -0.291,-0.152 -0.659,-0.267 -1.1,-0.347 -0.441,-0.08 -0.877,-0.12 -1.305,-0.12 -0.373,0 -0.724,0.032 -1.052,0.095 -0.329,0.065 -0.614,0.166 -0.86,0.307 -0.246,0.14 -0.443,0.319 -0.588,0.54 -0.146,0.22 -0.218,0.485 -0.218,0.798 0,0.096 0.013,0.21 0.041,0.342 0.027,0.131 0.082,0.263 0.164,0.395 0.082,0.133 0.197,0.259 0.347,0.379 0.151,0.119 0.35,0.22 0.596,0.3 l 0,0.036 z"
         style="fill:#7c8c36;fill-opacity:1;fill-rule:nonzero;stroke:none"
         id="path7818"
         inkscape:connector-curvature="0" /><path
         d="m 1099.6953,379.2588 -0.738,0.156 0,0.972 2.746,0 0,-5.796 -2.008,0 0,4.668 z"
         style="fill:#7c8c36;fill-opacity:1;fill-rule:nonzero;stroke:none"
         id="path7822"
         inkscape:connector-curvature="0" /><path
         d="m 1106.8496,377.4473 c 0,0.583 -0.057,1.041 -0.17,1.374 -0.113,0.331 -0.353,0.497 -0.717,0.497 -0.301,0 -0.523,-0.115 -0.67,-0.348 -0.146,-0.232 -0.218,-0.624 -0.218,-1.175 l 0,-1.825 c 0.146,-0.08 0.298,-0.145 0.459,-0.198 0.158,-0.052 0.296,-0.078 0.416,-0.078 0.171,0 0.318,0.053 0.437,0.156 0.117,0.105 0.211,0.241 0.279,0.409 0.069,0.167 0.116,0.355 0.143,0.564 0.027,0.207 0.041,0.415 0.041,0.624 m 2.078,0.048 c 0,-0.353 -0.045,-0.708 -0.131,-1.069 -0.086,-0.36 -0.222,-0.688 -0.41,-0.984 -0.185,-0.296 -0.43,-0.535 -0.73,-0.72 -0.301,-0.183 -0.67,-0.275 -1.106,-0.275 -0.201,0 -0.424,0.035 -0.67,0.107 -0.246,0.073 -0.515,0.224 -0.806,0.456 l -0.028,-0.023 0,-2.797 -1.98,0 0,5.317 c 0,0.992 0.258,1.742 0.771,2.25 0.516,0.507 1.233,0.761 2.153,0.761 0.564,0 1.035,-0.084 1.414,-0.252 0.377,-0.168 0.677,-0.389 0.9,-0.666 0.225,-0.275 0.383,-0.597 0.479,-0.965 0.095,-0.369 0.144,-0.749 0.144,-1.14"
         style="fill:#7c8c36;fill-opacity:1;fill-rule:nonzero;stroke:none"
         id="path7826"
         inkscape:connector-curvature="0" /><path
         d="m 1112.7695,379.3066 c -0.189,0 -0.344,-0.042 -0.461,-0.126 -0.117,-0.084 -0.209,-0.202 -0.271,-0.353 -0.063,-0.153 -0.106,-0.336 -0.129,-0.553 -0.024,-0.216 -0.034,-0.451 -0.034,-0.708 0,-0.615 0.057,-1.086 0.168,-1.409 0.114,-0.325 0.356,-0.487 0.727,-0.487 0.352,0 0.584,0.157 0.697,0.468 0.114,0.313 0.17,0.78 0.17,1.404 0,0.264 -0.012,0.504 -0.033,0.72 -0.023,0.216 -0.066,0.402 -0.129,0.559 -0.064,0.155 -0.152,0.275 -0.266,0.359 -0.113,0.084 -0.259,0.126 -0.439,0.126 m -0.055,-4.884 c -0.556,0 -1.023,0.084 -1.396,0.252 -0.375,0.168 -0.674,0.39 -0.899,0.666 -0.222,0.277 -0.382,0.596 -0.478,0.96 -0.096,0.364 -0.143,0.746 -0.143,1.147 0,0.367 0.045,0.735 0.137,1.103 0.09,0.368 0.25,0.698 0.479,0.99 0.228,0.292 0.533,0.528 0.917,0.708 0.383,0.18 0.862,0.27 1.438,0.27 0.566,0 1.037,-0.084 1.416,-0.252 0.379,-0.168 0.682,-0.392 0.904,-0.672 0.225,-0.28 0.383,-0.601 0.479,-0.966 0.097,-0.364 0.144,-0.742 0.144,-1.134 0,-0.384 -0.045,-0.76 -0.136,-1.127 -0.092,-0.369 -0.252,-0.697 -0.479,-0.985 -0.228,-0.288 -0.537,-0.52 -0.926,-0.696 -0.386,-0.176 -0.873,-0.264 -1.457,-0.264"
         style="fill:#7c8c36;fill-opacity:1;fill-rule:nonzero;stroke:none"
         id="path7830"
         inkscape:connector-curvature="0" /><path
         d="m 1120.4414,379.0313 -1.543,0 0,-4.44 -2.008,0 0,5.784 5.533,0 0,-5.784 -1.982,0 0,4.44 z"
         style="fill:#7c8c36;fill-opacity:1;fill-rule:nonzero;stroke:none"
         id="path7834"
         inkscape:connector-curvature="0" /><path
         d="m 1126.5625,379.3066 c -0.189,0 -0.344,-0.042 -0.461,-0.126 -0.117,-0.084 -0.207,-0.202 -0.271,-0.353 -0.063,-0.153 -0.106,-0.336 -0.127,-0.553 -0.024,-0.216 -0.036,-0.451 -0.036,-0.708 0,-0.615 0.057,-1.086 0.17,-1.409 0.114,-0.325 0.356,-0.487 0.725,-0.487 0.354,0 0.586,0.157 0.699,0.468 0.114,0.313 0.168,0.78 0.168,1.404 0,0.264 -0.01,0.504 -0.033,0.72 -0.021,0.216 -0.066,0.402 -0.129,0.559 -0.062,0.155 -0.15,0.275 -0.264,0.359 -0.113,0.084 -0.259,0.126 -0.441,0.126 m -0.055,-4.884 c -0.556,0 -1.021,0.084 -1.396,0.252 -0.375,0.168 -0.674,0.39 -0.897,0.666 -0.224,0.277 -0.382,0.596 -0.478,0.96 -0.096,0.364 -0.145,0.746 -0.145,1.147 0,0.367 0.045,0.735 0.137,1.103 0.092,0.368 0.252,0.698 0.479,0.99 0.228,0.292 0.535,0.528 0.917,0.708 0.383,0.18 0.864,0.27 1.438,0.27 0.566,0 1.039,-0.084 1.418,-0.252 0.379,-0.168 0.68,-0.392 0.904,-0.672 0.223,-0.28 0.383,-0.601 0.479,-0.966 0.095,-0.364 0.144,-0.742 0.144,-1.134 0,-0.384 -0.047,-0.76 -0.138,-1.127 -0.09,-0.369 -0.25,-0.697 -0.479,-0.985 -0.228,-0.288 -0.535,-0.52 -0.924,-0.696 -0.388,-0.176 -0.875,-0.264 -1.459,-0.264"
         style="fill:#7c8c36;fill-opacity:1;fill-rule:nonzero;stroke:none"
         id="path7838"
         inkscape:connector-curvature="0" /><path
         d="m 1130.9902,381.3584 1.121,2.305 1.543,-0.601 -1.666,-2.1 -0.998,0.396 z m -0.055,-2.1 -0.736,0.157 0,0.971 2.744,0 0,-5.796 -2.008,0 0,4.668 z"
         style="fill:#7c8c36;fill-opacity:1;fill-rule:nonzero;stroke:none"
         id="path7842"
         inkscape:connector-curvature="0" /><path
         d="m 1137.9688,374.5908 0,3.744 c 0,0.072 -0.01,0.158 -0.014,0.258 -0.01,0.1 -0.035,0.196 -0.076,0.288 -0.041,0.092 -0.105,0.172 -0.191,0.24 -0.086,0.068 -0.211,0.102 -0.375,0.102 -0.157,0 -0.319,-0.038 -0.492,-0.114 -0.174,-0.077 -0.325,-0.15 -0.452,-0.222 l 0,-4.296 -1.994,0 0,5.772 1.653,0 0.314,-0.6 0.752,0.432 c 0.145,0.088 0.301,0.162 0.465,0.222 0.164,0.06 0.308,0.09 0.437,0.09 0.446,0 0.799,-0.072 1.059,-0.216 0.258,-0.144 0.455,-0.322 0.586,-0.534 0.133,-0.212 0.217,-0.438 0.254,-0.678 0.035,-0.24 0.054,-0.452 0.054,-0.636 l 0,-3.852 -1.98,0 z"
         style="fill:#7c8c36;fill-opacity:1;fill-rule:nonzero;stroke:none"
         id="path7846"
         inkscape:connector-curvature="0" /><path
         d="m 1144.2383,374.4229 c -0.492,0 -0.885,0.06 -1.176,0.18 -0.291,0.12 -0.513,0.276 -0.67,0.468 -0.154,0.192 -0.254,0.41 -0.299,0.654 -0.046,0.244 -0.068,0.494 -0.068,0.75 l 0,2.748 -1.312,0 0,1.14 5.027,0 0,-1.14 -1.721,0 0,-2.616 c 0,-0.352 0.076,-0.584 0.233,-0.696 0.154,-0.112 0.369,-0.168 0.64,-0.168 0.102,0 0.248,0.008 0.446,0.024 0.195,0.016 0.371,0.036 0.525,0.06 0.037,-0.184 0.07,-0.37 0.104,-0.558 0.031,-0.188 0.07,-0.374 0.115,-0.558 -0.147,-0.057 -0.307,-0.102 -0.485,-0.138 -0.177,-0.036 -0.351,-0.066 -0.519,-0.09 -0.168,-0.024 -0.328,-0.039 -0.479,-0.048 -0.15,-0.008 -0.271,-0.012 -0.361,-0.012"
         style="fill:#7c8c36;fill-opacity:1;fill-rule:nonzero;stroke:none"
         id="path7850"
         inkscape:connector-curvature="0" /><path
         d="m 1149.5313,379.3066 c -0.189,0 -0.344,-0.042 -0.461,-0.126 -0.117,-0.084 -0.207,-0.202 -0.271,-0.353 -0.063,-0.153 -0.106,-0.336 -0.127,-0.553 -0.024,-0.216 -0.036,-0.451 -0.036,-0.708 0,-0.615 0.057,-1.086 0.17,-1.409 0.114,-0.325 0.356,-0.487 0.725,-0.487 0.354,0 0.586,0.157 0.699,0.468 0.114,0.313 0.168,0.78 0.168,1.404 0,0.264 -0.01,0.504 -0.033,0.72 -0.021,0.216 -0.066,0.402 -0.129,0.559 -0.062,0.155 -0.15,0.275 -0.264,0.359 -0.113,0.084 -0.259,0.126 -0.441,0.126 m -0.055,-4.884 c -0.556,0 -1.021,0.084 -1.396,0.252 -0.375,0.168 -0.674,0.39 -0.897,0.666 -0.224,0.277 -0.382,0.596 -0.478,0.96 -0.096,0.364 -0.145,0.746 -0.145,1.147 0,0.367 0.045,0.735 0.137,1.103 0.092,0.368 0.252,0.698 0.479,0.99 0.228,0.292 0.535,0.528 0.917,0.708 0.383,0.18 0.864,0.27 1.438,0.27 0.566,0 1.039,-0.084 1.418,-0.252 0.379,-0.168 0.68,-0.392 0.904,-0.672 0.223,-0.28 0.383,-0.601 0.479,-0.966 0.095,-0.364 0.144,-0.742 0.144,-1.134 0,-0.384 -0.047,-0.76 -0.138,-1.127 -0.09,-0.369 -0.25,-0.697 -0.479,-0.985 -0.228,-0.288 -0.535,-0.52 -0.924,-0.696 -0.388,-0.176 -0.875,-0.264 -1.459,-0.264"
         style="fill:#7c8c36;fill-opacity:1;fill-rule:nonzero;stroke:none"
         id="path7854"
         inkscape:connector-curvature="0" /><path
         d="m 1162.5293,372.2031 -1.953,0 0,2.111 c -0.992,0.089 -1.758,0.368 -2.295,0.841 -0.537,0.472 -0.805,1.06 -0.805,1.764 l 0,3.456 1.981,0 0,-3.624 c 0,-0.128 0.021,-0.254 0.068,-0.378 0.045,-0.124 0.115,-0.236 0.211,-0.336 0.096,-0.101 0.211,-0.183 0.348,-0.246 0.136,-0.065 0.3,-0.101 0.492,-0.109 l 0,4.873 1.953,0 0,-4.873 c 0.365,0.041 0.654,0.159 0.869,0.355 0.213,0.195 0.32,0.445 0.32,0.75 l 0,3.588 1.995,0 0,-3.397 c 0,-0.399 -0.082,-0.755 -0.246,-1.067 -0.165,-0.312 -0.389,-0.582 -0.676,-0.811 -0.287,-0.227 -0.623,-0.408 -1.012,-0.54 -0.387,-0.131 -0.803,-0.21 -1.25,-0.233 l 0,-2.124 z"
         style="fill:#7c8c36;fill-opacity:1;fill-rule:nonzero;stroke:none"
         id="path7858"
         inkscape:connector-curvature="0" /><path
         d="m 1172.9043,374.4229 c -0.75,0 -1.313,0.308 -1.686,0.924 l -0.068,0 c -0.246,-0.328 -0.508,-0.564 -0.785,-0.708 -0.279,-0.144 -0.59,-0.216 -0.938,-0.216 -0.537,0 -0.98,0.084 -1.332,0.252 -0.349,0.168 -0.629,0.394 -0.839,0.678 -0.209,0.284 -0.356,0.608 -0.436,0.972 -0.082,0.364 -0.123,0.742 -0.123,1.134 0,0.344 0.037,0.676 0.115,0.996 0.078,0.32 0.207,0.614 0.387,0.882 0.178,0.268 0.414,0.5 0.707,0.696 0.293,0.196 0.656,0.342 1.086,0.438 l 0.545,-1.164 c -0.309,-0.136 -0.514,-0.35 -0.613,-0.642 -0.102,-0.292 -0.151,-0.658 -0.151,-1.098 0,-0.624 0.053,-1.092 0.162,-1.404 0.108,-0.312 0.334,-0.469 0.678,-0.469 0.18,0 0.342,0.071 0.486,0.211 0.145,0.14 0.217,0.39 0.217,0.75 l 0,1.98 1.789,0 0,-1.98 c 0,-0.36 0.074,-0.61 0.219,-0.75 0.146,-0.14 0.31,-0.211 0.492,-0.211 0.346,0 0.574,0.157 0.684,0.469 0.109,0.312 0.164,0.78 0.164,1.404 0,0.44 -0.053,0.812 -0.158,1.116 -0.104,0.303 -0.303,0.511 -0.594,0.624 l 0.533,1.164 c 0.439,-0.072 0.805,-0.206 1.098,-0.402 0.293,-0.196 0.529,-0.43 0.709,-0.702 0.177,-0.272 0.304,-0.572 0.377,-0.9 0.074,-0.328 0.111,-0.664 0.111,-1.008 0,-0.392 -0.049,-0.77 -0.145,-1.134 -0.095,-0.364 -0.255,-0.688 -0.478,-0.972 -0.225,-0.284 -0.518,-0.51 -0.877,-0.678 -0.361,-0.168 -0.807,-0.252 -1.336,-0.252"
         style="fill:#7c8c36;fill-opacity:1;fill-rule:nonzero;stroke:none"
         id="path7862"
         inkscape:connector-curvature="0" /><path
         d="m 1178.7969,380.3633 0,-3.876 c 0,-0.209 0.043,-0.391 0.129,-0.547 0.086,-0.155 0.271,-0.233 0.553,-0.233 0.156,0 0.314,0.038 0.478,0.114 0.164,0.075 0.311,0.149 0.438,0.222 l 0,4.32 1.98,0 0,-5.772 -1.652,0 c -0.055,0.095 -0.108,0.194 -0.158,0.293 -0.049,0.1 -0.098,0.199 -0.143,0.294 l -0.451,-0.276 c -0.145,-0.088 -0.293,-0.149 -0.444,-0.185 -0.15,-0.037 -0.302,-0.054 -0.457,-0.054 l -0.144,0 c -0.051,0 -0.098,0.004 -0.143,0.012 l 0,-2.485 -1.98,0 c 0,1.368 0,2.731 0.01,4.086 0,1.357 0.01,2.719 0.01,4.087 l 1.98,0 z"
         style="fill:#7c8c36;fill-opacity:1;fill-rule:nonzero;stroke:none"
         id="path7866"
         inkscape:connector-curvature="0" /><path
         d="m 1184.1543,381.3584 1.121,2.305 1.543,-0.601 -1.666,-2.1 -0.998,0.396 z m -0.055,-2.1 -0.736,0.157 0,0.971 2.744,0 0,-5.796 -2.008,0 0,4.668 z"
         style="fill:#7c8c36;fill-opacity:1;fill-rule:nonzero;stroke:none"
         id="path7870"
         inkscape:connector-curvature="0" /><path
         d="m 1102.332,367.9141 -1.928,0 0,-4.323 -1.402,0 0,5.291 4.732,0 0,-5.291 -1.402,0 0,4.323 z"
         style="fill:#7c8c36;fill-opacity:1;fill-rule:nonzero;stroke:none"
         id="path7874"
         inkscape:connector-curvature="0" /><path
         d="m 1107.5,368.123 c -0.234,0 -0.424,-0.046 -0.57,-0.138 -0.147,-0.091 -0.258,-0.218 -0.338,-0.383 -0.08,-0.165 -0.133,-0.357 -0.162,-0.576 -0.03,-0.219 -0.045,-0.457 -0.045,-0.713 0,-0.299 0.015,-0.569 0.045,-0.806 0.029,-0.238 0.086,-0.441 0.168,-0.609 0.084,-0.168 0.199,-0.297 0.345,-0.389 0.145,-0.092 0.332,-0.137 0.557,-0.137 0.434,0 0.727,0.17 0.877,0.51 0.15,0.34 0.225,0.809 0.225,1.409 0,0.256 -0.016,0.495 -0.051,0.719 -0.033,0.222 -0.09,0.416 -0.168,0.581 -0.08,0.164 -0.19,0.294 -0.332,0.389 -0.143,0.095 -0.326,0.143 -0.551,0.143 m -0.051,-4.687 c -0.474,0 -0.875,0.074 -1.195,0.221 -0.322,0.147 -0.58,0.346 -0.777,0.599 -0.196,0.254 -0.338,0.549 -0.426,0.886 -0.086,0.337 -0.131,0.693 -0.131,1.067 0,0.351 0.041,0.696 0.125,1.034 0.084,0.337 0.226,0.638 0.426,0.901 0.201,0.265 0.465,0.477 0.795,0.639 0.33,0.161 0.742,0.241 1.234,0.241 0.477,0 0.879,-0.073 1.209,-0.219 0.328,-0.147 0.594,-0.347 0.795,-0.6 0.199,-0.253 0.344,-0.546 0.432,-0.88 0.087,-0.334 0.13,-0.687 0.13,-1.061 0,-0.367 -0.043,-0.721 -0.13,-1.062 -0.088,-0.341 -0.233,-0.642 -0.432,-0.901 -0.201,-0.261 -0.469,-0.47 -0.803,-0.628 -0.334,-0.157 -0.75,-0.237 -1.252,-0.237"
         style="fill:#7c8c36;fill-opacity:1;fill-rule:nonzero;stroke:none"
         id="path7878"
         inkscape:connector-curvature="0" /><path
         d="m 1113.5117,363.4365 c -0.459,0 -0.844,0.059 -1.152,0.177 -0.309,0.117 -0.555,0.267 -0.739,0.45 -0.183,0.184 -0.314,0.387 -0.394,0.611 -0.08,0.223 -0.119,0.442 -0.119,0.655 l 0,3.552 1.402,0 0,-3.663 c 0,-0.095 0.022,-0.194 0.063,-0.297 0.041,-0.102 0.103,-0.196 0.187,-0.28 0.082,-0.085 0.188,-0.154 0.316,-0.209 0.129,-0.056 0.282,-0.083 0.456,-0.083 0.107,0 0.224,0.015 0.347,0.044 0.125,0.029 0.24,0.079 0.35,0.148 0.107,0.071 0.197,0.167 0.267,0.292 0.071,0.124 0.106,0.283 0.106,0.473 l 0,3.575 1.402,0 0,-3.421 c 0,-0.461 -0.092,-0.827 -0.275,-1.094 -0.184,-0.268 -0.404,-0.471 -0.664,-0.611 -0.258,-0.139 -0.53,-0.227 -0.813,-0.263 -0.285,-0.037 -0.531,-0.056 -0.74,-0.056"
         style="fill:#7c8c36;fill-opacity:1;fill-rule:nonzero;stroke:none"
         id="path7882"
         inkscape:connector-curvature="0" /><path
         d="m 1120.5117,365.9443 c 0,0.359 0.105,0.743 0.314,1.15 0.207,0.407 0.475,0.807 0.801,1.199 0.326,0.392 0.684,0.762 1.076,1.111 0.393,0.349 0.774,0.644 1.141,0.886 l -2.869,0 0,0.99 4.797,0 0,-0.858 c -0.158,-0.096 -0.364,-0.232 -0.614,-0.408 -0.25,-0.175 -0.515,-0.381 -0.794,-0.616 -0.28,-0.234 -0.561,-0.491 -0.84,-0.769 -0.28,-0.28 -0.533,-0.571 -0.764,-0.875 -0.228,-0.304 -0.416,-0.615 -0.557,-0.929 -0.142,-0.316 -0.212,-0.624 -0.212,-0.925 0,-0.197 0.044,-0.364 0.136,-0.5 0.092,-0.136 0.223,-0.259 0.389,-0.368 0.168,-0.11 0.373,-0.211 0.619,-0.303 0.246,-0.092 0.529,-0.192 0.846,-0.303 0.285,-0.095 0.511,-0.185 0.683,-0.269 0.17,-0.084 0.301,-0.169 0.387,-0.253 0.088,-0.084 0.145,-0.169 0.17,-0.253 0.025,-0.084 0.037,-0.174 0.037,-0.27 0,-0.125 -0.07,-0.338 -0.213,-0.643 -0.142,-0.304 -0.412,-0.706 -0.814,-1.204 l -0.914,0.362 c 0.168,0.33 0.283,0.578 0.345,0.743 0.063,0.165 0.094,0.284 0.094,0.358 0,0.109 -0.084,0.209 -0.25,0.297 -0.168,0.087 -0.389,0.171 -0.664,0.253 -0.385,0.117 -0.723,0.251 -1.016,0.401 -0.291,0.15 -0.533,0.32 -0.724,0.512 -0.194,0.19 -0.34,0.407 -0.44,0.648 -0.099,0.242 -0.15,0.522 -0.15,0.836"
         style="fill:#7c8c36;fill-opacity:1;fill-rule:nonzero;stroke:none"
         id="path7886"
         inkscape:connector-curvature="0" /><path
         d="m 1128.1426,363.4365 c -0.459,0 -0.844,0.059 -1.152,0.177 -0.309,0.117 -0.555,0.267 -0.739,0.45 -0.183,0.184 -0.316,0.387 -0.394,0.611 -0.08,0.223 -0.119,0.442 -0.119,0.655 l 0,3.552 1.402,0 0,-3.663 c 0,-0.095 0.02,-0.194 0.063,-0.297 0.041,-0.102 0.103,-0.196 0.185,-0.28 0.084,-0.085 0.19,-0.154 0.318,-0.209 0.129,-0.056 0.28,-0.083 0.454,-0.083 0.109,0 0.224,0.015 0.349,0.044 0.125,0.029 0.24,0.079 0.348,0.148 0.107,0.071 0.197,0.167 0.267,0.292 0.071,0.124 0.108,0.283 0.108,0.473 l 0,3.575 1.402,0 0,-3.421 c 0,-0.461 -0.092,-0.827 -0.275,-1.094 -0.186,-0.268 -0.406,-0.471 -0.664,-0.611 -0.26,-0.139 -0.532,-0.227 -0.815,-0.263 -0.283,-0.037 -0.529,-0.056 -0.738,-0.056"
         style="fill:#7c8c36;fill-opacity:1;fill-rule:nonzero;stroke:none"
         id="path7890"
         inkscape:connector-curvature="0" /><path
         d="m 1133.2832,368.8711 0,-3.477 c 0,-0.124 0.012,-0.245 0.031,-0.362 0.022,-0.118 0.063,-0.221 0.125,-0.308 0.063,-0.088 0.149,-0.16 0.262,-0.214 0.111,-0.056 0.254,-0.083 0.43,-0.083 0.24,0 0.459,0.052 0.658,0.159 0.199,0.106 0.365,0.204 0.498,0.292 l 0,3.993 1.402,0 0,-5.28 -1.136,0 -0.252,0.539 -0.575,-0.33 c -0.189,-0.103 -0.359,-0.169 -0.509,-0.199 -0.149,-0.029 -0.307,-0.043 -0.473,-0.043 -0.092,0 -0.176,0.007 -0.256,0.022 -0.078,0.015 -0.15,0.029 -0.217,0.044 l 0,-2.233 -1.402,0 c 0,1.253 0,2.501 0.01,3.74 0,1.239 0.01,2.486 0.01,3.74 l 1.402,0 z"
         style="fill:#7c8c36;fill-opacity:1;fill-rule:nonzero;stroke:none"
         id="path7894"
         inkscape:connector-curvature="0" /><path
         d="m 1140.8613,369.8057 0.965,1.969 1.164,-0.45 -1.402,-1.816 -0.727,0.297 z m 2.254,-6.369 c -0.334,0 -0.627,0.07 -0.877,0.209 -0.25,0.139 -0.447,0.323 -0.588,0.551 l -0.062,0 c -0.184,-0.236 -0.397,-0.42 -0.639,-0.556 -0.242,-0.136 -0.522,-0.204 -0.84,-0.204 -0.459,0 -0.84,0.077 -1.144,0.231 -0.305,0.155 -0.551,0.36 -0.733,0.617 -0.185,0.255 -0.316,0.553 -0.394,0.89 -0.081,0.337 -0.12,0.693 -0.12,1.068 0,0.322 0.039,0.631 0.12,0.928 0.078,0.298 0.201,0.569 0.369,0.815 0.166,0.245 0.381,0.456 0.644,0.632 0.264,0.176 0.578,0.3 0.946,0.375 l 0.375,-0.848 c -0.393,-0.147 -0.655,-0.376 -0.79,-0.688 -0.132,-0.311 -0.199,-0.694 -0.199,-1.149 0,-0.301 0.014,-0.568 0.043,-0.803 0.03,-0.234 0.082,-0.434 0.156,-0.599 0.077,-0.165 0.18,-0.291 0.315,-0.38 0.133,-0.088 0.301,-0.132 0.5,-0.132 0.184,0 0.361,0.068 0.533,0.204 0.17,0.136 0.256,0.36 0.256,0.676 l 0,1.969 1.303,0 0,-1.969 c 0,-0.316 0.084,-0.54 0.25,-0.676 0.168,-0.136 0.342,-0.204 0.525,-0.204 0.402,0 0.672,0.169 0.815,0.506 0.142,0.338 0.212,0.806 0.212,1.408 0,0.455 -0.074,0.849 -0.224,1.183 -0.151,0.334 -0.401,0.551 -0.752,0.654 l 0.363,0.848 c 0.383,-0.067 0.707,-0.184 0.971,-0.353 0.262,-0.169 0.476,-0.378 0.644,-0.627 0.166,-0.249 0.288,-0.524 0.364,-0.825 0.074,-0.301 0.113,-0.615 0.113,-0.945 0,-0.375 -0.045,-0.731 -0.133,-1.068 -0.088,-0.337 -0.228,-0.635 -0.426,-0.89 -0.195,-0.257 -0.447,-0.462 -0.757,-0.617 -0.309,-0.154 -0.688,-0.231 -1.139,-0.231"
         style="fill:#7c8c36;fill-opacity:1;fill-rule:nonzero;stroke:none"
         id="path7898"
         inkscape:connector-curvature="0" /><path
         d="m 1148.8477,364.8447 0.289,1.078 0.988,2.959 1.465,0 -2.066,-5.291 -1.451,0 -2.192,5.291 1.465,0 1.127,-2.948 0.338,-1.089 0.037,0 z"
         style="fill:#7c8c36;fill-opacity:1;fill-rule:nonzero;stroke:none"
         id="path7902"
         inkscape:connector-curvature="0" /><path
         d="m 1154.5059,368.123 c -0.234,0 -0.424,-0.046 -0.57,-0.138 -0.147,-0.091 -0.258,-0.218 -0.338,-0.383 -0.08,-0.165 -0.133,-0.357 -0.162,-0.576 -0.03,-0.219 -0.045,-0.457 -0.045,-0.713 0,-0.299 0.015,-0.569 0.045,-0.806 0.029,-0.238 0.086,-0.441 0.168,-0.609 0.084,-0.168 0.199,-0.297 0.345,-0.389 0.145,-0.092 0.332,-0.137 0.557,-0.137 0.434,0 0.727,0.17 0.877,0.51 0.15,0.34 0.225,0.809 0.225,1.409 0,0.256 -0.016,0.495 -0.051,0.719 -0.033,0.222 -0.09,0.416 -0.168,0.581 -0.08,0.164 -0.19,0.294 -0.332,0.389 -0.143,0.095 -0.326,0.143 -0.551,0.143 m -0.051,-4.687 c -0.474,0 -0.875,0.074 -1.195,0.221 -0.322,0.147 -0.58,0.346 -0.777,0.599 -0.196,0.254 -0.338,0.549 -0.426,0.886 -0.086,0.337 -0.131,0.693 -0.131,1.067 0,0.351 0.041,0.696 0.125,1.034 0.084,0.337 0.226,0.638 0.426,0.901 0.201,0.265 0.465,0.477 0.795,0.639 0.33,0.161 0.742,0.241 1.234,0.241 0.477,0 0.879,-0.073 1.209,-0.219 0.328,-0.147 0.594,-0.347 0.795,-0.6 0.199,-0.253 0.344,-0.546 0.432,-0.88 0.087,-0.334 0.13,-0.687 0.13,-1.061 0,-0.367 -0.043,-0.721 -0.13,-1.062 -0.088,-0.341 -0.233,-0.642 -0.432,-0.901 -0.201,-0.261 -0.469,-0.47 -0.803,-0.628 -0.334,-0.157 -0.75,-0.237 -1.252,-0.237"
         style="fill:#7c8c36;fill-opacity:1;fill-rule:nonzero;stroke:none"
         id="path7906"
         inkscape:connector-curvature="0" /><path
         d="m 1160.5176,363.4365 c -0.459,0 -0.844,0.059 -1.152,0.177 -0.309,0.117 -0.555,0.267 -0.739,0.45 -0.183,0.184 -0.314,0.387 -0.394,0.611 -0.08,0.223 -0.119,0.442 -0.119,0.655 l 0,3.552 1.402,0 0,-3.663 c 0,-0.095 0.022,-0.194 0.063,-0.297 0.041,-0.102 0.103,-0.196 0.187,-0.28 0.082,-0.085 0.188,-0.154 0.316,-0.209 0.129,-0.056 0.282,-0.083 0.456,-0.083 0.107,0 0.224,0.015 0.347,0.044 0.125,0.029 0.24,0.079 0.35,0.148 0.107,0.071 0.197,0.167 0.267,0.292 0.071,0.124 0.106,0.283 0.106,0.473 l 0,3.575 1.402,0 0,-3.421 c 0,-0.461 -0.092,-0.827 -0.275,-1.094 -0.184,-0.268 -0.404,-0.471 -0.664,-0.611 -0.258,-0.139 -0.53,-0.227 -0.813,-0.263 -0.285,-0.037 -0.531,-0.056 -0.74,-0.056"
         style="fill:#7c8c36;fill-opacity:1;fill-rule:nonzero;stroke:none"
         id="path7910"
         inkscape:connector-curvature="0" /><path
         d="m 1165.6602,368.8711 0,-3.477 c 0,-0.124 0.01,-0.245 0.031,-0.362 0.02,-0.118 0.063,-0.221 0.123,-0.308 0.063,-0.088 0.151,-0.16 0.262,-0.214 0.111,-0.056 0.256,-0.083 0.43,-0.083 0.24,0 0.461,0.052 0.66,0.159 0.199,0.106 0.365,0.204 0.498,0.292 l 0,3.993 1.402,0 0,-5.28 -1.138,0 -0.252,0.539 -0.573,-0.33 c -0.191,-0.103 -0.361,-0.169 -0.509,-0.199 -0.151,-0.029 -0.309,-0.043 -0.475,-0.043 -0.09,0 -0.176,0.007 -0.254,0.022 -0.08,0.015 -0.152,0.029 -0.219,0.044 l 0,-2.233 -1.402,0 c 0,1.253 0,2.501 0.01,3.74 0.01,1.239 0.01,2.486 0.01,3.74 l 1.402,0 z"
         style="fill:#7c8c36;fill-opacity:1;fill-rule:nonzero;stroke:none"
         id="path7914"
         inkscape:connector-curvature="0" /><path
         d="m 1171.1992,366.374 -0.676,0.318 c -0.099,0.045 -0.176,0.134 -0.226,0.27 -0.049,0.136 -0.075,0.263 -0.075,0.38 0,0.263 0.059,0.501 0.176,0.71 0.117,0.209 0.28,0.386 0.488,0.533 0.209,0.146 0.452,0.259 0.727,0.335 0.275,0.077 0.576,0.116 0.9,0.116 0.268,0 0.559,-0.022 0.872,-0.066 0.312,-0.044 0.669,-0.147 1.07,-0.308 l -0.326,-0.858 c -0.25,0.088 -0.487,0.148 -0.707,0.181 -0.221,0.034 -0.42,0.05 -0.594,0.05 -0.092,0 -0.201,-0.008 -0.326,-0.022 -0.125,-0.015 -0.244,-0.044 -0.358,-0.088 -0.113,-0.044 -0.209,-0.107 -0.287,-0.187 -0.08,-0.081 -0.119,-0.187 -0.119,-0.319 0,-0.125 0.033,-0.226 0.1,-0.303 0.066,-0.077 0.154,-0.138 0.263,-0.181 0.108,-0.044 0.229,-0.076 0.364,-0.093 0.132,-0.019 0.261,-0.029 0.386,-0.029 l 0.653,0 0,-0.857 -0.627,0 c -0.442,0 -0.762,-0.085 -0.957,-0.253 -0.198,-0.169 -0.295,-0.352 -0.295,-0.551 0,-0.205 0.09,-0.379 0.269,-0.522 0.18,-0.143 0.424,-0.214 0.733,-0.214 0.267,0 0.539,0.021 0.814,0.065 0.276,0.044 0.547,0.118 0.813,0.221 l 0.326,-0.836 c -0.291,-0.147 -0.617,-0.253 -0.977,-0.319 -0.359,-0.067 -0.738,-0.099 -1.138,-0.099 -0.301,0 -0.59,0.031 -0.866,0.093 -0.275,0.062 -0.519,0.158 -0.732,0.286 -0.213,0.128 -0.383,0.292 -0.514,0.489 -0.129,0.199 -0.193,0.433 -0.193,0.704 0,0.118 0.016,0.241 0.051,0.37 0.033,0.128 0.088,0.253 0.168,0.374 0.08,0.121 0.185,0.23 0.32,0.33 0.133,0.098 0.301,0.18 0.5,0.247 l 0,0.033 z"
         style="fill:#7c8c36;fill-opacity:1;fill-rule:nonzero;stroke:none"
         id="path7918"
         inkscape:connector-curvature="0" /><path
         d="m 1114.2363,357.8711 -2.342,-2.442 c 0.393,-0.477 0.781,-0.95 1.164,-1.419 0.385,-0.47 0.778,-0.943 1.178,-1.419 l -1.652,0 -2.018,2.651 -0.012,0 0,-2.651 -1.402,0 0,5.28 1.402,0 0,-2.299 0.012,0 c 0.352,0.388 0.699,0.774 1.047,1.154 0.346,0.382 0.695,0.763 1.045,1.145 l 1.578,0 z"
         style="fill:#7c8c36;fill-opacity:1;fill-rule:nonzero;stroke:none"
         id="path7922"
         inkscape:connector-curvature="0" /><path
         d="m 1115.9551,355.2803 c 0,-0.6 0.08,-1.057 0.238,-1.371 0.158,-0.315 0.43,-0.472 0.815,-0.472 0.191,0 0.381,0.05 0.568,0.149 0.19,0.098 0.354,0.199 0.496,0.301 l 0,2.83 c -0.16,0.094 -0.346,0.18 -0.558,0.257 -0.213,0.077 -0.418,0.116 -0.62,0.116 -0.216,0 -0.388,-0.061 -0.513,-0.181 -0.125,-0.121 -0.219,-0.273 -0.281,-0.455 -0.063,-0.184 -0.104,-0.379 -0.12,-0.587 -0.017,-0.209 -0.025,-0.404 -0.025,-0.587 m -1.49,-0.071 c 0,0.322 0.029,0.65 0.088,0.984 0.058,0.334 0.164,0.636 0.32,0.907 0.154,0.272 0.367,0.493 0.639,0.666 0.269,0.172 0.623,0.258 1.056,0.258 0.217,0 0.457,-0.051 0.721,-0.153 0.264,-0.104 0.52,-0.246 0.77,-0.43 0.01,0 0.013,0.004 0.013,0.012 l 0.225,0.451 1.178,0 0,-5.313 -1.127,0 c -0.043,0.095 -0.084,0.186 -0.125,0.275 -0.043,0.088 -0.084,0.18 -0.125,0.274 l -0.565,-0.34 c -0.15,-0.088 -0.271,-0.147 -0.363,-0.176 -0.117,-0.044 -0.225,-0.079 -0.326,-0.105 -0.1,-0.025 -0.213,-0.039 -0.338,-0.039 -0.383,0 -0.707,0.079 -0.971,0.237 -0.262,0.158 -0.473,0.367 -0.631,0.627 -0.16,0.26 -0.271,0.553 -0.34,0.88 -0.066,0.327 -0.099,0.655 -0.099,0.985"
         style="fill:#7c8c36;fill-opacity:1;fill-rule:nonzero;stroke:none"
         id="path7926"
         inkscape:connector-curvature="0" /><path
         d="m 1123.2109,359.5645 c -0.234,0 -0.428,-0.067 -0.58,-0.203 -0.15,-0.136 -0.27,-0.319 -0.358,-0.55 -0.087,-0.231 -0.152,-0.501 -0.189,-0.809 -0.037,-0.308 -0.064,-0.637 -0.082,-0.99 l 2.418,0 c -0.018,0.353 -0.047,0.682 -0.09,0.99 -0.041,0.308 -0.105,0.578 -0.195,0.809 -0.088,0.231 -0.207,0.414 -0.358,0.55 -0.15,0.136 -0.339,0.203 -0.566,0.203 m 0,-6.226 c 0.26,0 0.469,0.063 0.629,0.187 0.16,0.125 0.281,0.309 0.365,0.551 0.084,0.241 0.141,0.54 0.17,0.896 0.029,0.356 0.049,0.765 0.057,1.227 l -2.442,0 c 0.01,-0.499 0.032,-0.93 0.069,-1.293 0.037,-0.363 0.103,-0.66 0.195,-0.891 0.092,-0.231 0.217,-0.401 0.371,-0.512 0.156,-0.11 0.352,-0.165 0.586,-0.165 m -0.045,-0.902 c -0.543,0 -0.982,0.104 -1.32,0.309 -0.338,0.205 -0.602,0.485 -0.789,0.84 -0.188,0.357 -0.313,0.777 -0.375,1.26 -0.063,0.485 -0.094,1.001 -0.094,1.551 0,0.528 0.035,1.036 0.105,1.523 0.071,0.489 0.204,0.919 0.395,1.293 0.191,0.374 0.461,0.675 0.809,0.903 0.345,0.226 0.794,0.341 1.345,0.341 0.543,0 0.985,-0.105 1.326,-0.314 0.344,-0.209 0.61,-0.495 0.803,-0.858 0.192,-0.364 0.322,-0.786 0.395,-1.271 0.07,-0.483 0.105,-0.997 0.105,-1.54 0,-0.527 -0.035,-1.036 -0.105,-1.523 -0.073,-0.488 -0.205,-0.918 -0.401,-1.292 -0.197,-0.374 -0.47,-0.671 -0.82,-0.892 -0.352,-0.22 -0.811,-0.33 -1.379,-0.33"
         style="fill:#7c8c36;fill-opacity:1;fill-rule:nonzero;stroke:none"
         id="path7930"
         inkscape:connector-curvature="0" /><path
         d="m 1130.4336,352.5908 0,3.267 c 0,0.154 0,0.3 -0.014,0.44 -0.01,0.14 -0.037,0.264 -0.086,0.374 -0.05,0.11 -0.13,0.196 -0.238,0.259 -0.109,0.061 -0.264,0.093 -0.465,0.093 -0.115,0 -0.232,-0.017 -0.349,-0.049 -0.118,-0.033 -0.229,-0.072 -0.332,-0.116 -0.104,-0.044 -0.204,-0.092 -0.295,-0.143 -0.092,-0.052 -0.166,-0.099 -0.225,-0.143 l 0,-3.982 -1.402,0 0,5.28 1.115,0 0.262,-0.55 0.826,0.44 c 0.125,0.066 0.264,0.125 0.414,0.176 0.15,0.051 0.283,0.077 0.4,0.077 0.409,0 0.735,-0.066 0.977,-0.198 0.242,-0.132 0.422,-0.297 0.539,-0.495 0.117,-0.198 0.191,-0.411 0.225,-0.638 0.033,-0.228 0.05,-0.437 0.05,-0.627 l 0,-3.465 -1.402,0 z"
         style="fill:#7c8c36;fill-opacity:1;fill-rule:nonzero;stroke:none"
         id="path7934"
         inkscape:connector-curvature="0" /><path
         d="m 1134.4551,357.8711 0,-3.477 c 0,-0.124 0.01,-0.245 0.031,-0.362 0.02,-0.118 0.063,-0.221 0.123,-0.308 0.063,-0.088 0.151,-0.16 0.262,-0.214 0.111,-0.056 0.256,-0.083 0.43,-0.083 0.24,0 0.461,0.052 0.66,0.159 0.199,0.106 0.365,0.204 0.498,0.292 l 0,3.993 1.402,0 0,-5.28 -1.138,0 -0.252,0.539 -0.573,-0.33 c -0.191,-0.103 -0.361,-0.169 -0.509,-0.199 -0.151,-0.029 -0.309,-0.043 -0.475,-0.043 -0.09,0 -0.176,0.007 -0.254,0.022 -0.08,0.015 -0.152,0.029 -0.219,0.044 l 0,-2.233 -1.402,0 c 0,1.253 0,2.501 0.01,3.74 0.01,1.239 0.01,2.486 0.01,3.74 l 1.402,0 z"
         style="fill:#7c8c36;fill-opacity:1;fill-rule:nonzero;stroke:none"
         id="path7938"
         inkscape:connector-curvature="0" /><path
         d="m 1139.9941,355.374 -0.676,0.318 c -0.099,0.045 -0.176,0.134 -0.226,0.27 -0.049,0.136 -0.075,0.263 -0.075,0.38 0,0.263 0.059,0.501 0.176,0.71 0.117,0.209 0.28,0.386 0.488,0.533 0.209,0.146 0.452,0.259 0.727,0.335 0.275,0.077 0.576,0.116 0.9,0.116 0.268,0 0.559,-0.022 0.872,-0.066 0.312,-0.044 0.669,-0.147 1.07,-0.308 l -0.326,-0.858 c -0.25,0.088 -0.487,0.148 -0.707,0.181 -0.221,0.034 -0.42,0.05 -0.594,0.05 -0.092,0 -0.201,-0.008 -0.326,-0.022 -0.125,-0.015 -0.244,-0.044 -0.358,-0.088 -0.113,-0.044 -0.209,-0.107 -0.287,-0.187 -0.08,-0.081 -0.119,-0.187 -0.119,-0.319 0,-0.125 0.033,-0.226 0.1,-0.303 0.066,-0.077 0.154,-0.138 0.263,-0.181 0.108,-0.044 0.229,-0.076 0.364,-0.093 0.132,-0.019 0.261,-0.029 0.386,-0.029 l 0.653,0 0,-0.857 -0.627,0 c -0.442,0 -0.762,-0.085 -0.957,-0.253 -0.198,-0.169 -0.295,-0.352 -0.295,-0.551 0,-0.205 0.09,-0.379 0.269,-0.522 0.18,-0.143 0.424,-0.214 0.733,-0.214 0.267,0 0.539,0.021 0.814,0.065 0.276,0.044 0.547,0.118 0.813,0.221 l 0.326,-0.836 c -0.291,-0.147 -0.617,-0.253 -0.977,-0.319 -0.359,-0.067 -0.738,-0.099 -1.138,-0.099 -0.301,0 -0.59,0.031 -0.866,0.093 -0.275,0.062 -0.519,0.158 -0.732,0.286 -0.213,0.128 -0.383,0.292 -0.514,0.489 -0.129,0.199 -0.193,0.433 -0.193,0.704 0,0.118 0.016,0.241 0.051,0.37 0.033,0.128 0.088,0.253 0.168,0.374 0.08,0.121 0.185,0.23 0.32,0.33 0.133,0.098 0.301,0.18 0.5,0.247 l 0,0.033 z"
         style="fill:#7c8c36;fill-opacity:1;fill-rule:nonzero;stroke:none"
         id="path7942"
         inkscape:connector-curvature="0" /><path
         d="m 1147.8359,355.1865 c 0,0.609 -0.08,1.082 -0.242,1.419 -0.162,0.338 -0.459,0.507 -0.891,0.507 -0.099,0 -0.195,-0.016 -0.285,-0.045 -0.225,-0.044 -0.412,-0.183 -0.561,-0.418 -0.15,-0.234 -0.224,-0.612 -0.224,-1.133 l 0,-1.782 c 0.158,-0.095 0.342,-0.181 0.555,-0.258 0.21,-0.077 0.416,-0.116 0.615,-0.116 0.217,0 0.39,0.06 0.523,0.181 0.133,0.122 0.237,0.274 0.311,0.457 0.076,0.183 0.127,0.381 0.156,0.594 0.029,0.213 0.043,0.411 0.043,0.594 m 1.465,0.056 c 0,-0.338 -0.041,-0.671 -0.123,-1.001 -0.084,-0.33 -0.217,-0.627 -0.401,-0.892 -0.183,-0.264 -0.418,-0.478 -0.705,-0.643 -0.287,-0.166 -0.634,-0.248 -1.041,-0.248 -0.224,0 -0.447,0.036 -0.668,0.105 -0.22,0.069 -0.465,0.199 -0.73,0.391 l -0.012,-0.012 0,-2.552 -1.404,0 0,4.906 c 0,0.521 0.072,0.955 0.213,1.304 0.142,0.348 0.332,0.627 0.57,0.836 0.238,0.209 0.51,0.357 0.815,0.445 0.304,0.088 0.615,0.132 0.933,0.132 0.475,0 0.875,-0.073 1.201,-0.22 0.326,-0.146 0.588,-0.346 0.789,-0.599 0.202,-0.253 0.344,-0.548 0.432,-0.886 0.088,-0.337 0.131,-0.692 0.131,-1.066"
         style="fill:#7c8c36;fill-opacity:1;fill-rule:nonzero;stroke:none"
         id="path7946"
         inkscape:connector-curvature="0" /><path
         d="m 1150.6406,357.0352 -0.678,0.143 0,0.714 2.08,0 0,-5.301 -1.402,0 0,4.444 z"
         style="fill:#7c8c36;fill-opacity:1;fill-rule:nonzero;stroke:none"
         id="path7950"
         inkscape:connector-curvature="0" /><path
         d="m 1155.8594,353.8447 0.287,1.078 0.99,2.959 1.465,0 -2.066,-5.291 -1.453,0 -2.192,5.291 1.465,0 1.127,-2.948 0.338,-1.089 0.039,0 z"
         style="fill:#7c8c36;fill-opacity:1;fill-rule:nonzero;stroke:none"
         id="path7954"
         inkscape:connector-curvature="0" /><path
         d="m 1160.8965,358.8057 0.965,1.969 1.164,-0.45 -1.402,-1.816 -0.727,0.297 z m -0.475,-3.525 c 0,-0.6 0.079,-1.057 0.237,-1.371 0.16,-0.315 0.431,-0.472 0.814,-0.472 0.192,0 0.383,0.05 0.57,0.148 0.188,0.099 0.352,0.199 0.495,0.302 l 0,2.829 c -0.159,0.095 -0.344,0.181 -0.557,0.258 -0.213,0.077 -0.42,0.115 -0.619,0.115 -0.219,0 -0.389,-0.06 -0.514,-0.18 -0.125,-0.122 -0.221,-0.273 -0.283,-0.456 -0.063,-0.183 -0.102,-0.378 -0.119,-0.586 -0.016,-0.209 -0.024,-0.405 -0.024,-0.587 m -1.49,-0.072 c 0,0.323 0.029,0.651 0.088,0.985 0.057,0.334 0.164,0.635 0.318,0.907 0.155,0.271 0.368,0.493 0.639,0.666 0.272,0.172 0.625,0.258 1.059,0.258 0.216,0 0.457,-0.051 0.718,-0.154 0.264,-0.103 0.522,-0.246 0.772,-0.429 0.01,0 0.012,0.004 0.012,0.011 l 0.226,0.452 1.176,0 0,-5.314 -1.127,0 c -0.041,0.096 -0.084,0.187 -0.125,0.276 -0.041,0.087 -0.084,0.179 -0.125,0.274 l -0.564,-0.341 c -0.149,-0.088 -0.27,-0.146 -0.362,-0.176 -0.117,-0.044 -0.226,-0.079 -0.326,-0.104 -0.1,-0.026 -0.213,-0.039 -0.338,-0.039 -0.385,0 -0.707,0.079 -0.971,0.237 -0.263,0.157 -0.474,0.366 -0.632,0.627 -0.159,0.26 -0.272,0.553 -0.338,0.88 -0.067,0.326 -0.1,0.654 -0.1,0.984"
         style="fill:#7c8c36;fill-opacity:1;fill-rule:nonzero;stroke:none"
         id="path7958"
         inkscape:connector-curvature="0" /><path
         d="m 1117.3086,342.9111 0.389,1.298 0.914,2.673 1.439,0 -2.115,-5.335 0,-2.157 -1.402,0 0,2.299 -1.805,4.368 -0.475,0.11 0,0.715 1.578,0 1.051,-2.871 0.401,-1.1 0.025,0 z"
         style="fill:#7c8c36;fill-opacity:1;fill-rule:nonzero;stroke:none"
         id="path7962"
         inkscape:connector-curvature="0" /><path
         d="m 1121.3711,346.0352 -0.678,0.143 0,0.714 2.08,0 0,-5.301 -1.402,0 0,4.444 z"
         style="fill:#7c8c36;fill-opacity:1;fill-rule:nonzero;stroke:none"
         id="path7966"
         inkscape:connector-curvature="0" /><path
         d="m 1125.4238,344.2803 c 0,-0.6 0.078,-1.057 0.236,-1.371 0.16,-0.315 0.432,-0.472 0.815,-0.472 0.191,0 0.383,0.05 0.57,0.149 0.188,0.098 0.352,0.199 0.494,0.301 l 0,2.83 c -0.158,0.094 -0.344,0.18 -0.556,0.257 -0.213,0.077 -0.42,0.116 -0.62,0.116 -0.218,0 -0.388,-0.061 -0.513,-0.181 -0.125,-0.121 -0.221,-0.273 -0.283,-0.455 -0.063,-0.184 -0.102,-0.379 -0.12,-0.587 -0.015,-0.209 -0.023,-0.404 -0.023,-0.587 m -1.49,-0.071 c 0,0.322 0.029,0.65 0.088,0.984 0.056,0.334 0.164,0.636 0.318,0.907 0.154,0.272 0.367,0.493 0.639,0.666 0.271,0.172 0.625,0.258 1.058,0.258 0.217,0 0.457,-0.051 0.719,-0.153 0.264,-0.104 0.522,-0.246 0.772,-0.43 0.01,0 0.011,0.004 0.011,0.012 l 0.227,0.451 1.176,0 0,-5.313 -1.127,0 c -0.041,0.095 -0.084,0.186 -0.125,0.275 -0.041,0.088 -0.084,0.18 -0.125,0.274 l -0.565,-0.34 c -0.148,-0.088 -0.269,-0.147 -0.361,-0.176 -0.117,-0.044 -0.227,-0.079 -0.326,-0.105 -0.1,-0.025 -0.213,-0.039 -0.338,-0.039 -0.385,0 -0.707,0.079 -0.971,0.237 -0.264,0.158 -0.475,0.367 -0.633,0.627 -0.158,0.26 -0.271,0.553 -0.338,0.88 -0.066,0.327 -0.099,0.655 -0.099,0.985"
         style="fill:#7c8c36;fill-opacity:1;fill-rule:nonzero;stroke:none"
         id="path7970"
         inkscape:connector-curvature="0" /><path
         d="m 1134.3652,344.374 -0.678,0.318 c -0.099,0.045 -0.174,0.134 -0.224,0.27 -0.051,0.136 -0.075,0.263 -0.075,0.38 0,0.263 0.057,0.501 0.174,0.71 0.117,0.209 0.28,0.386 0.489,0.533 0.209,0.146 0.451,0.259 0.726,0.335 0.276,0.077 0.576,0.116 0.902,0.116 0.268,0 0.557,-0.022 0.87,-0.066 0.314,-0.044 0.67,-0.147 1.072,-0.308 l -0.326,-0.858 c -0.25,0.088 -0.487,0.148 -0.707,0.181 -0.223,0.034 -0.42,0.05 -0.596,0.05 -0.092,0 -0.199,-0.008 -0.326,-0.022 -0.125,-0.015 -0.244,-0.044 -0.356,-0.088 -0.113,-0.044 -0.209,-0.107 -0.289,-0.187 -0.078,-0.081 -0.119,-0.187 -0.119,-0.319 0,-0.125 0.033,-0.226 0.102,-0.303 0.066,-0.077 0.154,-0.138 0.261,-0.181 0.11,-0.044 0.231,-0.076 0.364,-0.093 0.132,-0.019 0.263,-0.029 0.388,-0.029 l 0.651,0 0,-0.857 -0.625,0 c -0.444,0 -0.762,-0.085 -0.959,-0.253 -0.196,-0.169 -0.293,-0.352 -0.293,-0.551 0,-0.205 0.088,-0.379 0.267,-0.522 0.18,-0.143 0.424,-0.214 0.735,-0.214 0.265,0 0.537,0.021 0.812,0.065 0.276,0.044 0.547,0.118 0.815,0.221 l 0.326,-0.836 c -0.293,-0.147 -0.619,-0.253 -0.977,-0.319 -0.359,-0.067 -0.74,-0.099 -1.14,-0.099 -0.301,0 -0.588,0.031 -0.864,0.093 -0.275,0.062 -0.519,0.158 -0.732,0.286 -0.213,0.128 -0.385,0.292 -0.514,0.489 -0.129,0.199 -0.195,0.433 -0.195,0.704 0,0.118 0.018,0.241 0.051,0.37 0.033,0.128 0.09,0.253 0.17,0.374 0.078,0.121 0.185,0.23 0.318,0.33 0.133,0.098 0.301,0.18 0.502,0.247 l 0,0.033 z"
         style="fill:#7c8c36;fill-opacity:1;fill-rule:nonzero;stroke:none"
         id="path7974"
         inkscape:connector-curvature="0" /><path
         d="m 1140.8867,345.9912 c -0.227,0 -0.414,-0.044 -0.564,-0.132 -0.151,-0.088 -0.268,-0.21 -0.35,-0.367 -0.084,-0.157 -0.143,-0.342 -0.176,-0.555 -0.033,-0.212 -0.051,-0.441 -0.051,-0.69 0,-0.592 0.078,-1.053 0.233,-1.382 0.154,-0.329 0.457,-0.493 0.908,-0.493 0.434,0 0.73,0.16 0.889,0.482 0.158,0.322 0.238,0.775 0.238,1.36 0,0.467 -0.08,0.855 -0.238,1.163 -0.159,0.306 -0.455,0.511 -0.889,0.614 m 1.916,-0.012 c 0.242,-0.205 0.416,-0.47 0.525,-0.797 0.108,-0.327 0.163,-0.658 0.163,-0.996 0,-0.366 -0.045,-0.715 -0.137,-1.045 -0.092,-0.33 -0.242,-0.621 -0.451,-0.874 -0.209,-0.253 -0.485,-0.455 -0.827,-0.605 -0.341,-0.15 -0.759,-0.226 -1.252,-0.226 -0.468,0 -0.863,0.073 -1.183,0.215 -0.322,0.143 -0.582,0.337 -0.783,0.583 -0.201,0.245 -0.346,0.531 -0.438,0.859 -0.092,0.326 -0.138,0.675 -0.138,1.049 0,0.353 0.044,0.694 0.13,1.024 0.088,0.33 0.237,0.621 0.446,0.874 0.209,0.253 0.478,0.457 0.808,0.61 0.328,0.154 0.741,0.232 1.233,0.232 l 2.992,0 0,-0.87 -1.051,0 -0.037,-0.033 z"
         style="fill:#7c8c36;fill-opacity:1;fill-rule:nonzero;stroke:none"
         id="path7978"
         inkscape:connector-curvature="0" /><path
         d="m 1146.4004,347.8057 0.963,1.969 1.166,-0.45 -1.402,-1.816 -0.727,0.297 z m -0.477,-3.525 c 0,-0.6 0.081,-1.057 0.239,-1.371 0.158,-0.315 0.429,-0.472 0.814,-0.472 0.192,0 0.381,0.05 0.569,0.148 0.189,0.099 0.353,0.199 0.496,0.302 l 0,2.829 c -0.161,0.095 -0.346,0.181 -0.559,0.258 -0.213,0.077 -0.418,0.115 -0.619,0.115 -0.217,0 -0.389,-0.06 -0.514,-0.18 -0.125,-0.122 -0.219,-0.273 -0.281,-0.456 -0.063,-0.183 -0.104,-0.378 -0.119,-0.586 -0.018,-0.209 -0.026,-0.405 -0.026,-0.587 m -1.49,-0.072 c 0,0.323 0.029,0.651 0.088,0.985 0.059,0.334 0.164,0.635 0.32,0.907 0.155,0.271 0.368,0.493 0.639,0.666 0.27,0.172 0.623,0.258 1.057,0.258 0.217,0 0.457,-0.051 0.72,-0.154 0.264,-0.103 0.52,-0.246 0.77,-0.429 0.01,0 0.014,0.004 0.014,0.011 l 0.224,0.452 1.178,0 0,-5.314 -1.127,0 c -0.043,0.096 -0.084,0.187 -0.125,0.276 -0.043,0.087 -0.084,0.179 -0.125,0.274 l -0.564,-0.341 c -0.151,-0.088 -0.272,-0.146 -0.364,-0.176 -0.117,-0.044 -0.224,-0.079 -0.326,-0.104 -0.099,-0.026 -0.213,-0.039 -0.338,-0.039 -0.383,0 -0.707,0.079 -0.97,0.237 -0.262,0.157 -0.473,0.366 -0.631,0.627 -0.161,0.26 -0.272,0.553 -0.34,0.88 -0.067,0.326 -0.1,0.654 -0.1,0.984"
         style="fill:#7c8c36;fill-opacity:1;fill-rule:nonzero;stroke:none"
         id="path7982"
         inkscape:connector-curvature="0" /><path
         d="m 1153.2383,343.0645 c 0,0.133 -0.02,0.242 -0.063,0.33 -0.041,0.088 -0.103,0.163 -0.187,0.226 -0.084,0.062 -0.186,0.115 -0.307,0.16 -0.121,0.044 -0.259,0.084 -0.42,0.12 -0.275,0.059 -0.527,0.123 -0.755,0.193 -0.231,0.07 -0.426,0.161 -0.59,0.275 -0.162,0.113 -0.289,0.259 -0.381,0.434 -0.092,0.176 -0.139,0.4 -0.139,0.671 0,0.286 0.065,0.53 0.194,0.732 0.13,0.202 0.298,0.363 0.507,0.484 0.209,0.121 0.446,0.209 0.707,0.264 0.264,0.055 0.526,0.083 0.784,0.083 0.326,0 0.646,-0.03 0.964,-0.087 0.317,-0.059 0.581,-0.131 0.79,-0.218 l -0.276,-0.817 c -0.219,0.058 -0.453,0.104 -0.709,0.137 -0.254,0.033 -0.473,0.049 -0.656,0.049 -0.627,0 -0.94,-0.202 -0.94,-0.606 0,-0.103 0.024,-0.19 0.069,-0.259 0.047,-0.07 0.109,-0.127 0.189,-0.171 0.08,-0.044 0.176,-0.081 0.289,-0.11 0.114,-0.03 0.233,-0.059 0.36,-0.088 0.25,-0.06 0.496,-0.125 0.734,-0.199 0.24,-0.074 0.451,-0.172 0.635,-0.297 0.185,-0.125 0.332,-0.289 0.441,-0.492 0.11,-0.202 0.164,-0.46 0.164,-0.777 0,-0.301 -0.068,-0.558 -0.203,-0.771 -0.135,-0.213 -0.316,-0.386 -0.543,-0.519 -0.228,-0.132 -0.49,-0.227 -0.787,-0.286 -0.297,-0.06 -0.609,-0.089 -0.934,-0.089 -0.318,0 -0.65,0.029 -0.996,0.088 -0.347,0.06 -0.64,0.14 -0.882,0.242 l 0.3,0.848 c 0.243,-0.081 0.508,-0.146 0.801,-0.194 0.293,-0.046 0.547,-0.071 0.764,-0.071 0.334,0 0.597,0.052 0.789,0.154 0.191,0.103 0.287,0.29 0.287,0.561"
         style="fill:#7c8c36;fill-opacity:1;fill-rule:nonzero;stroke:none"
         id="path7986"
         inkscape:connector-curvature="0" /><path
         d="m 1156.1582,343.8564 -0.262,5.247 1.528,0 -0.25,-5.247 -1.016,0 z m 0.502,-2.364 c -0.242,0 -0.451,0.076 -0.627,0.23 -0.176,0.155 -0.262,0.341 -0.262,0.562 0,0.226 0.086,0.416 0.262,0.566 0.176,0.151 0.385,0.226 0.627,0.226 0.242,0 0.451,-0.075 0.625,-0.226 0.176,-0.15 0.264,-0.34 0.264,-0.566 0,-0.221 -0.088,-0.407 -0.264,-0.562 -0.174,-0.154 -0.383,-0.23 -0.625,-0.23"
         style="fill:#7c8c36;fill-opacity:1;fill-rule:nonzero;stroke:none"
         id="path7990"
         inkscape:connector-curvature="0" /></g></g></svg>