<?xml version="1.0" encoding="UTF-8" standalone="no"?>
<!-- Created with Inkscape (http://www.inkscape.org/) -->

<svg
   xmlns:dc="http://purl.org/dc/elements/1.1/"
   xmlns:cc="http://creativecommons.org/ns#"
   xmlns:rdf="http://www.w3.org/1999/02/22-rdf-syntax-ns#"
   xmlns:svg="http://www.w3.org/2000/svg"
   xmlns="http://www.w3.org/2000/svg"
   xmlns:sodipodi="http://sodipodi.sourceforge.net/DTD/sodipodi-0.dtd"
   xmlns:inkscape="http://www.inkscape.org/namespaces/inkscape"
   id="svg2"
   version="1.1"
   inkscape:version="0.91 r13725"
   xml:space="preserve"
   width="141.13925"
   height="21.735874"
   viewBox="0 0 141.13924 21.735875"
   sodipodi:docname="menu-prices.svg"><metadata
     id="metadata8"><rdf:RDF><cc:Work
         rdf:about=""><dc:format>image/svg+xml</dc:format><dc:type
           rdf:resource="http://purl.org/dc/dcmitype/StillImage" /><dc:title></dc:title></cc:Work></rdf:RDF></metadata><defs
     id="defs6"><clipPath
       clipPathUnits="userSpaceOnUse"
       id="clipPath16"><path
         d="m 42.534,42.903 1217.492,0 0,868.852 -1217.492,0 0,-868.852 z"
         id="path18"
         inkscape:connector-curvature="0" /></clipPath><clipPath
       clipPathUnits="userSpaceOnUse"
       id="clipPath58"><path
         d="m 0,955.275 1303.937,0 L 1303.937,0 0,0 0,955.275 Z"
         id="path60"
         inkscape:connector-curvature="0" /></clipPath></defs><sodipodi:namedview
     pagecolor="#ffffff"
     bordercolor="#666666"
     borderopacity="1"
     objecttolerance="10"
     gridtolerance="10"
     guidetolerance="10"
     inkscape:pageopacity="0"
     inkscape:pageshadow="2"
     inkscape:window-width="1881"
     inkscape:window-height="1176"
     id="namedview4"
     showgrid="false"
     inkscape:zoom="0.38562848"
     inkscape:cx="-589.82458"
     inkscape:cy="609.98946"
     inkscape:window-x="39"
     inkscape:window-y="24"
     inkscape:window-maximized="1"
     inkscape:current-layer="g10"
     fit-margin-top="0"
     fit-margin-left="0"
     fit-margin-right="0"
     fit-margin-bottom="0" /><g
     id="g10"
     inkscape:groupmode="layer"
     inkscape:label="Kouzina_trifold(menu)_Oct2017"
     transform="matrix(1.25,0,0,-1.25,-1149.7186,129.28475)"><g
       id="g39174"><path
         d="m 922.5098,102.5 c -0.293,0 -0.529,-0.063 -0.707,-0.189 -0.178,-0.125 -0.316,-0.303 -0.414,-0.53 -0.1,-0.228 -0.166,-0.5 -0.2,-0.814 -0.034,-0.317 -0.052,-0.662 -0.052,-1.041 0,-0.395 0.019,-0.752 0.057,-1.071 0.037,-0.318 0.105,-0.589 0.205,-0.814 0.098,-0.225 0.237,-0.398 0.415,-0.518 0.176,-0.121 0.409,-0.179 0.696,-0.179 0.287,0 0.52,0.058 0.697,0.179 0.178,0.12 0.316,0.293 0.414,0.518 0.1,0.225 0.168,0.496 0.205,0.814 0.038,0.319 0.057,0.676 0.057,1.071 0,0.379 -0.018,0.724 -0.051,1.041 -0.035,0.314 -0.101,0.586 -0.2,0.814 -0.099,0.227 -0.237,0.405 -0.415,0.53 -0.178,0.126 -0.413,0.189 -0.707,0.189 m 0,-5.787 c -0.438,0 -0.803,0.076 -1.096,0.23 -0.294,0.153 -0.531,0.369 -0.713,0.649 -0.18,0.277 -0.31,0.615 -0.388,1.012 -0.078,0.396 -0.118,0.835 -0.118,1.322 0,0.492 0.041,0.937 0.123,1.332 0.082,0.396 0.215,0.732 0.399,1.008 0.185,0.277 0.424,0.49 0.717,0.64 0.295,0.149 0.652,0.225 1.076,0.225 0.431,0 0.793,-0.076 1.086,-0.225 0.294,-0.15 0.531,-0.363 0.713,-0.64 0.18,-0.276 0.312,-0.612 0.394,-1.008 0.082,-0.395 0.123,-0.84 0.123,-1.332 0,-0.492 -0.038,-0.936 -0.113,-1.332 -0.075,-0.395 -0.201,-0.733 -0.379,-1.012 -0.178,-0.279 -0.415,-0.494 -0.713,-0.645 -0.297,-0.148 -0.667,-0.224 -1.111,-0.224"
         style="fill:#7c8c36;fill-opacity:1;fill-rule:nonzero;stroke:none"
         id="path8154"
         inkscape:connector-curvature="0" /><path
         d="m 925.9531,100.6016 -0.544,0.125 0,0.441 1.343,0 0,-4.328 -0.799,0 0,3.762 z"
         style="fill:#7c8c36;fill-opacity:1;fill-rule:nonzero;stroke:none"
         id="path8158"
         inkscape:connector-curvature="0" /><path
         d="m 931.7822,96.7129 c -0.239,0 -0.435,0.025 -0.586,0.076 -0.151,0.051 -0.27,0.129 -0.354,0.231 -0.084,0.101 -0.141,0.226 -0.172,0.373 -0.031,0.146 -0.045,0.32 -0.045,0.517 l 0,2.682 -1.026,0 0,0.568 3.166,0 0,-0.568 -1.341,0 0,-2.545 c 0,-0.27 0.043,-0.459 0.128,-0.568 0.084,-0.108 0.227,-0.162 0.424,-0.162 0.123,0 0.266,0.007 0.426,0.021 0.16,0.016 0.303,0.039 0.426,0.068 l 0.111,-0.488 c -0.122,-0.055 -0.245,-0.094 -0.368,-0.121 -0.123,-0.025 -0.235,-0.045 -0.338,-0.057 -0.102,-0.011 -0.193,-0.019 -0.272,-0.023 -0.078,-0.002 -0.135,-0.004 -0.168,-0.004 l -0.011,0 z"
         style="fill:#7c8c36;fill-opacity:1;fill-rule:nonzero;stroke:none"
         id="path8162"
         inkscape:connector-curvature="0" /><path
         d="m 933.8604,100.6016 -0.544,0.125 0,0.441 1.343,0 0,-4.328 -0.799,0 0,3.762 z"
         style="fill:#7c8c36;fill-opacity:1;fill-rule:nonzero;stroke:none"
         id="path8166"
         inkscape:connector-curvature="0" /><path
         d="m 936.5234,101.1602 0,-2.775 c 0,-0.137 0.01,-0.268 0.031,-0.391 0.02,-0.123 0.061,-0.229 0.122,-0.318 0.062,-0.09 0.15,-0.161 0.265,-0.211 0.116,-0.051 0.27,-0.076 0.459,-0.076 0.137,0 0.264,0.015 0.383,0.048 0.119,0.034 0.228,0.075 0.331,0.125 0.102,0.053 0.193,0.104 0.275,0.159 0.081,0.052 0.154,0.105 0.214,0.152 l 0,3.287 0.799,0 0,-4.32 -0.604,0 -0.195,0.449 -0.489,-0.279 c -0.326,-0.186 -0.615,-0.28 -0.866,-0.28 -0.28,0 -0.524,0.043 -0.735,0.127 l 0,-1.818 -0.799,0 0,6.121 0.809,0 z"
         style="fill:#7c8c36;fill-opacity:1;fill-rule:nonzero;stroke:none"
         id="path8170"
         inkscape:connector-curvature="0" /><path
         d="m 941.5811,101.9238 0.737,1.504 0.758,-0.289 -1.045,-1.395 -0.45,0.18 z m -0.522,-3.879 c 0,-0.228 0.073,-0.404 0.22,-0.531 0.147,-0.125 0.373,-0.188 0.681,-0.188 0.26,0 0.503,0.02 0.727,0.059 0.226,0.037 0.457,0.105 0.698,0.201 l 0.246,-0.521 c -0.26,-0.133 -0.52,-0.223 -0.779,-0.27 -0.26,-0.049 -0.553,-0.072 -0.881,-0.072 -0.212,0 -0.422,0.021 -0.631,0.066 -0.208,0.045 -0.397,0.119 -0.563,0.221 -0.168,0.103 -0.302,0.236 -0.405,0.4 -0.103,0.166 -0.153,0.366 -0.153,0.6 0,0.228 0.07,0.441 0.209,0.643 0.14,0.201 0.353,0.347 0.64,0.437 l 0,0.027 -0.532,0.243 c -0.082,0.035 -0.147,0.113 -0.194,0.228 -0.049,0.117 -0.073,0.236 -0.073,0.357 0,0.209 0.048,0.397 0.144,0.563 0.096,0.164 0.226,0.305 0.39,0.422 0.164,0.117 0.353,0.207 0.568,0.269 0.215,0.065 0.445,0.096 0.691,0.096 0.219,0 0.438,-0.019 0.657,-0.059 0.218,-0.039 0.491,-0.125 0.819,-0.257 l -0.257,-0.53 c -0.205,0.084 -0.397,0.139 -0.578,0.166 -0.182,0.028 -0.353,0.041 -0.518,0.041 -0.075,0 -0.17,-0.007 -0.287,-0.023 -0.116,-0.016 -0.232,-0.045 -0.347,-0.09 -0.117,-0.045 -0.216,-0.107 -0.297,-0.189 -0.082,-0.08 -0.123,-0.188 -0.123,-0.319 0,-0.144 0.039,-0.257 0.117,-0.338 0.078,-0.082 0.176,-0.14 0.292,-0.175 0.116,-0.036 0.244,-0.059 0.384,-0.069 0.14,-0.008 0.268,-0.013 0.385,-0.013 l 0.501,0 0,-0.575 -0.574,0 c -0.205,0 -0.383,-0.027 -0.532,-0.078 -0.15,-0.051 -0.273,-0.115 -0.369,-0.193 -0.096,-0.078 -0.165,-0.166 -0.21,-0.266 -0.045,-0.097 -0.066,-0.193 -0.066,-0.283"
         style="fill:#7c8c36;fill-opacity:1;fill-rule:nonzero;stroke:none"
         id="path8174"
         inkscape:connector-curvature="0" /><path
         d="m 945.4805,96.7129 c -0.26,0 -0.518,0.023 -0.773,0.068 -0.256,0.045 -0.463,0.1 -0.62,0.166 l 0.205,0.532 c 0.184,-0.067 0.379,-0.118 0.584,-0.153 0.205,-0.037 0.403,-0.054 0.594,-0.054 0.328,0 0.587,0.052 0.779,0.158 0.191,0.103 0.287,0.295 0.287,0.57 0,0.258 -0.077,0.445 -0.231,0.563 -0.153,0.117 -0.394,0.216 -0.722,0.302 -0.185,0.047 -0.361,0.096 -0.528,0.149 -0.167,0.051 -0.314,0.119 -0.44,0.207 -0.127,0.086 -0.23,0.199 -0.308,0.336 -0.079,0.138 -0.118,0.318 -0.118,0.541 0,0.22 0.051,0.41 0.154,0.562 0.102,0.153 0.233,0.276 0.389,0.369 0.157,0.092 0.334,0.161 0.527,0.202 0.196,0.043 0.385,0.064 0.57,0.064 0.266,0 0.513,-0.023 0.743,-0.068 0.228,-0.045 0.397,-0.092 0.507,-0.139 l -0.185,-0.523 c -0.157,0.048 -0.328,0.084 -0.512,0.109 -0.185,0.023 -0.349,0.035 -0.492,0.035 -0.621,0 -0.932,-0.203 -0.932,-0.611 0,-0.115 0.024,-0.207 0.071,-0.28 0.049,-0.072 0.113,-0.13 0.195,-0.175 0.082,-0.045 0.178,-0.084 0.287,-0.117 0.11,-0.034 0.225,-0.065 0.348,-0.094 0.171,-0.049 0.344,-0.102 0.517,-0.158 0.174,-0.057 0.333,-0.137 0.472,-0.243 0.14,-0.105 0.253,-0.238 0.338,-0.396 0.085,-0.158 0.128,-0.365 0.128,-0.617 0,-0.233 -0.048,-0.434 -0.143,-0.598 -0.095,-0.166 -0.228,-0.301 -0.394,-0.404 -0.168,-0.106 -0.363,-0.182 -0.584,-0.231 -0.223,-0.047 -0.46,-0.072 -0.713,-0.072"
         style="fill:#7c8c36;fill-opacity:1;fill-rule:nonzero;stroke:none"
         id="path8178"
         inkscape:connector-curvature="0" /><path
         d="m 950.8389,98.0449 c 0,-0.229 0.073,-0.404 0.22,-0.531 0.147,-0.125 0.375,-0.188 0.681,-0.188 0.26,0 0.502,0.02 0.728,0.059 0.225,0.037 0.458,0.105 0.696,0.201 l 0.246,-0.521 c -0.259,-0.133 -0.519,-0.223 -0.778,-0.27 -0.26,-0.049 -0.554,-0.072 -0.882,-0.072 -0.211,0 -0.422,0.021 -0.629,0.066 -0.209,0.045 -0.396,0.119 -0.564,0.221 -0.167,0.103 -0.302,0.236 -0.405,0.4 -0.102,0.166 -0.154,0.365 -0.154,0.6 0,0.228 0.07,0.441 0.211,0.642 0.14,0.202 0.354,0.348 0.641,0.438 l 0,0.027 -0.533,0.242 c -0.082,0.036 -0.147,0.114 -0.196,0.229 -0.047,0.117 -0.071,0.236 -0.071,0.357 0,0.209 0.048,0.397 0.143,0.563 0.096,0.164 0.226,0.305 0.389,0.422 0.164,0.117 0.354,0.207 0.57,0.269 0.214,0.065 0.446,0.096 0.691,0.096 0.219,0 0.436,-0.02 0.655,-0.059 0.219,-0.039 0.492,-0.125 0.82,-0.257 l -0.255,-0.53 c -0.205,0.084 -0.399,0.139 -0.579,0.166 -0.181,0.028 -0.354,0.041 -0.518,0.041 -0.075,0 -0.171,-0.007 -0.287,-0.023 -0.116,-0.016 -0.232,-0.045 -0.349,-0.09 -0.115,-0.045 -0.215,-0.107 -0.297,-0.189 -0.082,-0.08 -0.123,-0.188 -0.123,-0.319 0,-0.144 0.039,-0.258 0.118,-0.338 0.08,-0.082 0.176,-0.14 0.292,-0.175 0.117,-0.036 0.245,-0.059 0.385,-0.069 0.139,-0.008 0.268,-0.013 0.384,-0.013 l 0.502,0 0,-0.575 -0.573,0 c -0.205,0 -0.383,-0.027 -0.533,-0.078 -0.151,-0.051 -0.274,-0.115 -0.37,-0.193 -0.095,-0.078 -0.166,-0.166 -0.21,-0.266 -0.044,-0.097 -0.066,-0.193 -0.066,-0.283"
         style="fill:#7c8c36;fill-opacity:1;fill-rule:nonzero;stroke:none"
         id="path8182"
         inkscape:connector-curvature="0" /><path
         d="m 957.1289,101.1602 0.861,0 -1.742,-4.32 -0.676,0 -1.834,4.32 0.862,0 1.127,-2.846 0.193,-0.574 0.031,0 0.174,0.574 1.004,2.846 z"
         style="fill:#7c8c36;fill-opacity:1;fill-rule:nonzero;stroke:none"
         id="path8186"
         inkscape:connector-curvature="0" /><path
         d="m 958.9785,99.0254 c 0,-0.252 0.015,-0.484 0.045,-0.697 0.031,-0.213 0.09,-0.395 0.175,-0.549 0.085,-0.152 0.202,-0.274 0.348,-0.359 0.147,-0.088 0.336,-0.131 0.569,-0.131 0.443,0 0.75,0.152 0.917,0.455 0.167,0.302 0.251,0.72 0.251,1.256 0,0.168 -0.009,0.336 -0.026,0.507 -0.017,0.172 -0.066,0.334 -0.148,0.487 -0.082,0.152 -0.207,0.295 -0.374,0.427 -0.167,0.131 -0.399,0.243 -0.693,0.333 -0.218,-0.102 -0.397,-0.219 -0.537,-0.35 -0.14,-0.133 -0.25,-0.274 -0.328,-0.42 -0.078,-0.146 -0.131,-0.301 -0.158,-0.463 -0.027,-0.162 -0.041,-0.328 -0.041,-0.496 m 0.43,2.018 c -0.225,0.107 -0.4,0.238 -0.523,0.39 -0.123,0.153 -0.184,0.367 -0.184,0.645 0,0.22 0.048,0.408 0.145,0.562 0.097,0.153 0.225,0.276 0.384,0.369 0.159,0.092 0.338,0.161 0.536,0.202 0.198,0.043 0.4,0.062 0.605,0.062 0.259,0 0.503,-0.019 0.732,-0.062 0.229,-0.041 0.398,-0.086 0.508,-0.135 l -0.185,-0.531 c -0.15,0.048 -0.317,0.084 -0.502,0.109 -0.184,0.023 -0.348,0.035 -0.491,0.035 -0.623,0 -0.934,-0.205 -0.934,-0.611 0,-0.157 0.061,-0.289 0.18,-0.397 0.119,-0.107 0.256,-0.185 0.413,-0.234 0.388,-0.125 0.714,-0.266 0.98,-0.418 0.265,-0.154 0.476,-0.328 0.633,-0.527 0.156,-0.198 0.268,-0.422 0.336,-0.67 0.068,-0.25 0.103,-0.53 0.103,-0.842 0,-0.319 -0.038,-0.617 -0.113,-0.895 -0.075,-0.279 -0.196,-0.521 -0.36,-0.724 -0.163,-0.205 -0.377,-0.366 -0.639,-0.483 -0.263,-0.117 -0.583,-0.176 -0.958,-0.176 -0.356,0 -0.658,0.057 -0.907,0.172 -0.25,0.114 -0.451,0.272 -0.605,0.473 -0.153,0.201 -0.266,0.436 -0.338,0.705 -0.071,0.272 -0.107,0.565 -0.107,0.883 0,0.234 0.029,0.459 0.088,0.676 0.056,0.215 0.14,0.416 0.25,0.601 0.109,0.188 0.244,0.348 0.405,0.483 0.16,0.134 0.343,0.238 0.548,0.31 l 0,0.028 z"
         style="fill:#7c8c36;fill-opacity:1;fill-rule:nonzero;stroke:none"
         id="path8190"
         inkscape:connector-curvature="0" /><path
         d="m 964.1074,101.9238 0.738,1.504 0.758,-0.289 -1.045,-1.395 -0.451,0.18 z m -0.521,-3.879 c 0,-0.228 0.072,-0.404 0.219,-0.531 0.148,-0.125 0.374,-0.188 0.681,-0.188 0.26,0 0.503,0.02 0.728,0.059 0.225,0.037 0.457,0.105 0.697,0.201 l 0.246,-0.521 c -0.26,-0.133 -0.52,-0.223 -0.779,-0.27 -0.259,-0.049 -0.553,-0.072 -0.881,-0.072 -0.212,0 -0.422,0.021 -0.63,0.066 -0.209,0.045 -0.397,0.119 -0.564,0.221 -0.167,0.103 -0.301,0.236 -0.405,0.4 -0.102,0.166 -0.153,0.366 -0.153,0.6 0,0.228 0.07,0.441 0.21,0.643 0.14,0.201 0.353,0.347 0.64,0.437 l 0,0.027 -0.533,0.243 c -0.082,0.035 -0.146,0.113 -0.194,0.228 -0.048,0.117 -0.072,0.236 -0.072,0.357 0,0.209 0.047,0.397 0.143,0.563 0.096,0.164 0.227,0.305 0.39,0.422 0.164,0.117 0.353,0.207 0.569,0.269 0.215,0.065 0.445,0.096 0.691,0.096 0.219,0 0.437,-0.019 0.656,-0.059 0.218,-0.039 0.491,-0.125 0.819,-0.257 l -0.256,-0.53 c -0.205,0.084 -0.398,0.139 -0.578,0.166 -0.182,0.028 -0.353,0.041 -0.518,0.041 -0.076,0 -0.171,-0.007 -0.287,-0.023 -0.117,-0.016 -0.232,-0.045 -0.348,-0.09 -0.116,-0.045 -0.216,-0.107 -0.297,-0.189 -0.082,-0.08 -0.123,-0.188 -0.123,-0.319 0,-0.144 0.039,-0.257 0.118,-0.338 0.078,-0.082 0.176,-0.14 0.291,-0.175 0.117,-0.036 0.244,-0.059 0.385,-0.069 0.139,-0.008 0.267,-0.013 0.385,-0.013 l 0.501,0 0,-0.575 -0.574,0 c -0.205,0 -0.383,-0.027 -0.533,-0.078 -0.15,-0.051 -0.273,-0.115 -0.369,-0.193 -0.096,-0.078 -0.165,-0.166 -0.209,-0.266 -0.045,-0.097 -0.066,-0.193 -0.066,-0.283"
         style="fill:#7c8c36;fill-opacity:1;fill-rule:nonzero;stroke:none"
         id="path8194"
         inkscape:connector-curvature="0" /><path
         d="m 968.6299,98.5137 -0.358,-0.496 -0.881,-1.178 -0.912,0 1.742,2.205 -1.506,2.115 0.922,0 0.726,-1.107 0.267,-0.451 0.021,0 0.328,0.504 0.748,1.054 0.922,0 -1.579,-2.042 1.64,-2.278 -0.942,0 -0.821,1.197 -0.296,0.477 -0.021,0 z"
         style="fill:#7c8c36;fill-opacity:1;fill-rule:nonzero;stroke:none"
         id="path8198"
         inkscape:connector-curvature="0" /><path
         d="m 971.7988,98.0449 c 0,-0.229 0.072,-0.404 0.22,-0.531 0.147,-0.125 0.374,-0.188 0.68,-0.188 0.26,0 0.503,0.02 0.729,0.059 0.225,0.037 0.457,0.105 0.696,0.201 l 0.246,-0.521 c -0.259,-0.133 -0.519,-0.223 -0.778,-0.27 -0.26,-0.049 -0.554,-0.072 -0.882,-0.072 -0.212,0 -0.422,0.021 -0.63,0.066 -0.209,0.045 -0.396,0.119 -0.563,0.221 -0.167,0.103 -0.302,0.236 -0.406,0.4 -0.101,0.166 -0.153,0.365 -0.153,0.6 0,0.228 0.07,0.441 0.21,0.642 0.141,0.202 0.354,0.348 0.641,0.438 l 0,0.027 -0.533,0.242 c -0.082,0.036 -0.147,0.114 -0.195,0.229 -0.048,0.117 -0.071,0.236 -0.071,0.357 0,0.209 0.047,0.397 0.143,0.563 0.095,0.164 0.226,0.305 0.389,0.422 0.164,0.117 0.354,0.207 0.57,0.269 0.214,0.065 0.445,0.096 0.691,0.096 0.219,0 0.436,-0.02 0.655,-0.059 0.219,-0.039 0.491,-0.125 0.82,-0.257 l -0.256,-0.53 c -0.205,0.084 -0.399,0.139 -0.578,0.166 -0.182,0.028 -0.354,0.041 -0.518,0.041 -0.076,0 -0.172,-0.007 -0.287,-0.023 -0.117,-0.016 -0.233,-0.045 -0.349,-0.09 -0.116,-0.045 -0.216,-0.107 -0.297,-0.189 -0.082,-0.08 -0.123,-0.188 -0.123,-0.319 0,-0.144 0.039,-0.258 0.118,-0.338 0.079,-0.082 0.176,-0.14 0.291,-0.175 0.118,-0.036 0.245,-0.059 0.385,-0.069 0.14,-0.008 0.268,-0.013 0.385,-0.013 l 0.502,0 0,-0.575 -0.574,0 c -0.205,0 -0.383,-0.027 -0.533,-0.078 -0.151,-0.051 -0.274,-0.115 -0.37,-0.193 -0.095,-0.078 -0.165,-0.166 -0.209,-0.266 -0.045,-0.097 -0.066,-0.193 -0.066,-0.283"
         style="fill:#7c8c36;fill-opacity:1;fill-rule:nonzero;stroke:none"
         id="path8202"
         inkscape:connector-curvature="0" /><path
         d="m 976.9004,96.7129 c -0.239,0 -0.435,0.025 -0.586,0.076 -0.152,0.051 -0.269,0.129 -0.354,0.231 -0.084,0.101 -0.142,0.226 -0.172,0.373 -0.031,0.146 -0.046,0.32 -0.046,0.517 l 0,2.682 -1.024,0 0,0.568 3.166,0 0,-0.568 -1.342,0 0,-2.545 c 0,-0.27 0.042,-0.459 0.128,-0.568 0.085,-0.108 0.226,-0.162 0.425,-0.162 0.123,0 0.264,0.007 0.425,0.021 0.16,0.016 0.302,0.039 0.425,0.068 l 0.113,-0.488 c -0.123,-0.055 -0.246,-0.094 -0.369,-0.121 -0.123,-0.025 -0.236,-0.045 -0.338,-0.057 -0.102,-0.011 -0.193,-0.019 -0.271,-0.023 -0.079,-0.002 -0.135,-0.004 -0.17,-0.004 l -0.01,0 z"
         style="fill:#7c8c36;fill-opacity:1;fill-rule:nonzero;stroke:none"
         id="path8206"
         inkscape:connector-curvature="0" /><path
         d="m 979.1807,99.0449 c 0,-0.553 0.077,-0.969 0.23,-1.246 0.154,-0.279 0.429,-0.42 0.826,-0.42 0.101,0 0.206,0.016 0.312,0.045 0.106,0.031 0.206,0.07 0.302,0.117 0.096,0.049 0.184,0.102 0.267,0.158 0.082,0.057 0.156,0.112 0.224,0.166 l 0,2.457 c -0.156,0.09 -0.346,0.178 -0.568,0.266 -0.222,0.086 -0.446,0.131 -0.671,0.131 -0.226,0 -0.401,-0.063 -0.527,-0.186 -0.126,-0.123 -0.219,-0.271 -0.277,-0.445 -0.058,-0.174 -0.093,-0.357 -0.102,-0.549 -0.011,-0.191 -0.016,-0.357 -0.016,-0.494 m -0.882,-0.09 c 0,0.27 0.024,0.543 0.068,0.822 0.043,0.28 0.131,0.53 0.26,0.752 0.131,0.223 0.31,0.405 0.539,0.545 0.229,0.141 0.528,0.211 0.897,0.211 0.177,0 0.38,-0.039 0.609,-0.117 0.229,-0.078 0.452,-0.189 0.67,-0.332 l 0.145,0.35 0.655,0 0,-4.346 -0.595,0 -0.194,0.449 -0.461,-0.279 c -0.178,-0.102 -0.324,-0.176 -0.44,-0.221 -0.117,-0.045 -0.233,-0.066 -0.349,-0.066 -0.335,0 -0.616,0.06 -0.845,0.183 -0.228,0.123 -0.415,0.289 -0.558,0.496 -0.144,0.207 -0.247,0.446 -0.308,0.715 -0.062,0.27 -0.093,0.549 -0.093,0.838"
         style="fill:#7c8c36;fill-opacity:1;fill-rule:nonzero;stroke:none"
         id="path8210"
         inkscape:connector-curvature="0" /><path
         d="m 983.3418,100.6016 -0.543,0.125 0,0.441 1.342,0 0,-4.328 -0.799,0 0,3.762 z"
         style="fill:#7c8c36;fill-opacity:1;fill-rule:nonzero;stroke:none"
         id="path8214"
         inkscape:connector-curvature="0" /><path
         d="m 990.3389,101.1602 0.86,0 -1.741,-4.32 -0.677,0 -1.834,4.32 0.862,0 1.127,-2.846 0.194,-0.574 0.03,0 0.175,0.574 1.004,2.846 z"
         style="fill:#7c8c36;fill-opacity:1;fill-rule:nonzero;stroke:none"
         id="path8218"
         inkscape:connector-curvature="0" /><path
         d="m 992.2402,99.0449 c 0,-0.553 0.077,-0.969 0.23,-1.246 0.155,-0.279 0.43,-0.42 0.826,-0.42 0.102,0 0.206,0.016 0.312,0.045 0.107,0.031 0.206,0.07 0.302,0.117 0.096,0.049 0.185,0.102 0.268,0.158 0.082,0.057 0.156,0.112 0.224,0.166 l 0,2.457 c -0.157,0.09 -0.347,0.178 -0.568,0.266 -0.223,0.086 -0.446,0.131 -0.672,0.131 -0.225,0 -0.401,-0.063 -0.527,-0.186 -0.126,-0.123 -0.219,-0.271 -0.277,-0.445 -0.057,-0.174 -0.093,-0.357 -0.102,-0.549 -0.01,-0.191 -0.016,-0.357 -0.016,-0.494 m -0.881,-0.09 c 0,0.27 0.023,0.543 0.067,0.822 0.044,0.28 0.131,0.53 0.261,0.752 0.13,0.223 0.309,0.405 0.538,0.545 0.229,0.141 0.528,0.211 0.897,0.211 0.177,0 0.38,-0.039 0.609,-0.117 0.23,-0.078 0.452,-0.189 0.671,-0.332 l 0.144,0.35 0.655,0 0,-4.346 -0.594,0 -0.195,0.449 -0.461,-0.279 c -0.178,-0.102 -0.324,-0.176 -0.44,-0.221 -0.117,-0.045 -0.232,-0.066 -0.349,-0.066 -0.334,0 -0.615,0.06 -0.845,0.183 -0.228,0.123 -0.415,0.289 -0.557,0.496 -0.145,0.207 -0.247,0.446 -0.309,0.715 -0.061,0.27 -0.092,0.549 -0.092,0.838"
         style="fill:#7c8c36;fill-opacity:1;fill-rule:nonzero;stroke:none"
         id="path8222"
         inkscape:connector-curvature="0" /><path
         d="m 998.9102,99.0449 c 0,-0.553 0.077,-0.969 0.23,-1.246 0.155,-0.279 0.43,-0.42 0.826,-0.42 0.102,0 0.206,0.016 0.312,0.045 0.107,0.031 0.206,0.07 0.302,0.117 0.096,0.049 0.185,0.102 0.268,0.158 0.082,0.057 0.156,0.112 0.224,0.166 l 0,2.457 c -0.157,0.09 -0.347,0.178 -0.568,0.266 -0.223,0.086 -0.446,0.131 -0.672,0.131 -0.225,0 -0.401,-0.063 -0.527,-0.186 -0.126,-0.123 -0.219,-0.271 -0.277,-0.445 -0.057,-0.174 -0.093,-0.357 -0.102,-0.549 -0.01,-0.191 -0.016,-0.357 -0.016,-0.494 m -0.881,-0.09 c 0,0.27 0.023,0.543 0.067,0.822 0.044,0.28 0.131,0.53 0.261,0.752 0.13,0.223 0.309,0.405 0.538,0.545 0.229,0.141 0.528,0.211 0.897,0.211 0.177,0 0.38,-0.039 0.609,-0.117 0.23,-0.078 0.452,-0.189 0.671,-0.332 l 0.144,0.35 0.655,0 0,-4.346 -0.594,0 -0.195,0.449 -0.461,-0.279 c -0.178,-0.102 -0.324,-0.176 -0.44,-0.221 -0.117,-0.045 -0.232,-0.066 -0.349,-0.066 -0.334,0 -0.615,0.06 -0.845,0.183 -0.228,0.123 -0.415,0.289 -0.557,0.496 -0.145,0.207 -0.247,0.446 -0.309,0.715 -0.061,0.27 -0.092,0.549 -0.092,0.838"
         style="fill:#7c8c36;fill-opacity:1;fill-rule:nonzero;stroke:none"
         id="path8226"
         inkscape:connector-curvature="0" /><path
         d="m 1006.1094,96.7949 c -0.157,0 -0.281,0.016 -0.374,0.049 -0.093,0.033 -0.167,0.076 -0.226,0.131 -0.058,0.054 -0.102,0.117 -0.132,0.189 -0.032,0.072 -0.061,0.147 -0.088,0.225 l -0.604,1.871 -0.225,0.846 -0.031,0 -0.308,-0.836 -1.004,-2.43 -0.799,0 1.383,3.275 0.543,0.496 -0.481,1.575 c -0.041,0.138 -0.101,0.255 -0.179,0.355 -0.079,0.1 -0.221,0.149 -0.426,0.149 -0.082,0 -0.174,-0.01 -0.277,-0.028 l -0.133,0.487 c 0.103,0.035 0.205,0.064 0.308,0.085 0.102,0.02 0.225,0.032 0.368,0.032 0.192,0 0.349,-0.022 0.472,-0.063 0.123,-0.043 0.225,-0.103 0.307,-0.181 0.082,-0.079 0.15,-0.172 0.205,-0.284 0.055,-0.111 0.102,-0.234 0.143,-0.373 l 1.476,-4.742 c 0.034,-0.098 0.08,-0.182 0.139,-0.252 0.057,-0.072 0.154,-0.115 0.291,-0.127 l 0,-0.404 c -0.041,-0.012 -0.094,-0.024 -0.159,-0.031 -0.064,-0.01 -0.127,-0.014 -0.189,-0.014"
         style="fill:#7c8c36;fill-opacity:1;fill-rule:nonzero;stroke:none"
         id="path8230"
         inkscape:connector-curvature="0" /><path
         d="m 1010.415,96.7949 c -0.157,0 -0.282,0.016 -0.374,0.049 -0.092,0.033 -0.168,0.076 -0.226,0.131 -0.057,0.054 -0.102,0.117 -0.132,0.189 -0.031,0.072 -0.06,0.147 -0.087,0.225 l -0.606,1.871 -0.224,0.846 -0.032,0 -0.306,-0.836 -1.004,-2.43 -0.8,0 1.384,3.275 0.543,0.496 -0.483,1.575 c -0.041,0.138 -0.1,0.255 -0.178,0.355 -0.079,0.1 -0.221,0.149 -0.425,0.149 -0.082,0 -0.175,-0.01 -0.278,-0.028 l -0.132,0.487 c 0.101,0.035 0.205,0.064 0.306,0.085 0.104,0.02 0.227,0.032 0.369,0.032 0.192,0 0.349,-0.022 0.471,-0.063 0.123,-0.043 0.227,-0.103 0.309,-0.181 0.082,-0.079 0.15,-0.172 0.205,-0.284 0.054,-0.111 0.101,-0.234 0.142,-0.373 l 1.476,-4.742 c 0.034,-0.098 0.08,-0.182 0.138,-0.252 0.058,-0.072 0.156,-0.115 0.293,-0.127 l 0,-0.404 c -0.041,-0.012 -0.094,-0.024 -0.16,-0.031 -0.065,-0.01 -0.127,-0.014 -0.189,-0.014"
         style="fill:#7c8c36;fill-opacity:1;fill-rule:nonzero;stroke:none"
         id="path8234"
         inkscape:connector-curvature="0" /><path
         d="m 1012.5664,101.9238 0.738,1.504 0.758,-0.289 -1.045,-1.395 -0.451,0.18 z m -0.737,-2.879 c 0,-0.553 0.077,-0.969 0.23,-1.246 0.153,-0.279 0.429,-0.42 0.825,-0.42 0.102,0 0.206,0.016 0.313,0.045 0.105,0.031 0.206,0.07 0.302,0.117 0.095,0.049 0.184,0.102 0.266,0.158 0.082,0.057 0.156,0.112 0.225,0.166 l 0,2.457 c -0.156,0.09 -0.346,0.178 -0.569,0.266 -0.221,0.086 -0.445,0.131 -0.67,0.131 -0.226,0 -0.402,-0.063 -0.528,-0.186 -0.126,-0.123 -0.219,-0.271 -0.276,-0.445 -0.059,-0.174 -0.093,-0.357 -0.104,-0.549 -0.01,-0.191 -0.014,-0.357 -0.014,-0.494 m -0.882,-0.09 c 0,0.27 0.023,0.543 0.067,0.823 0.044,0.279 0.132,0.529 0.261,0.751 0.13,0.223 0.31,0.405 0.538,0.545 0.23,0.141 0.528,0.211 0.897,0.211 0.177,0 0.38,-0.039 0.61,-0.117 0.228,-0.078 0.451,-0.189 0.67,-0.332 l 0.144,0.35 0.656,0 0,-4.346 -0.595,0 -0.194,0.449 -0.461,-0.279 c -0.178,-0.102 -0.325,-0.176 -0.441,-0.221 -0.116,-0.045 -0.232,-0.066 -0.348,-0.066 -0.335,0 -0.617,0.06 -0.845,0.183 -0.23,0.123 -0.415,0.289 -0.559,0.497 -0.143,0.207 -0.246,0.445 -0.307,0.714 -0.062,0.27 -0.093,0.549 -0.093,0.838"
         style="fill:#7c8c36;fill-opacity:1;fill-rule:nonzero;stroke:none"
         id="path8238"
         inkscape:connector-curvature="0" /><path
         d="m 1015.4102,103.1387 3.749,0 0,-0.494 c -0.226,-0.049 -0.486,-0.121 -0.784,-0.221 -0.297,-0.099 -0.578,-0.217 -0.845,-0.351 -0.266,-0.135 -0.491,-0.282 -0.677,-0.44 -0.183,-0.16 -0.275,-0.32 -0.275,-0.482 0,-0.127 0.033,-0.235 0.102,-0.325 0.068,-0.089 0.162,-0.164 0.281,-0.224 0.12,-0.061 0.257,-0.104 0.41,-0.131 0.154,-0.027 0.316,-0.041 0.486,-0.041 l 0.944,0 0,-0.566 -0.758,0 c -0.321,0 -0.596,-0.041 -0.825,-0.121 -0.23,-0.083 -0.417,-0.186 -0.567,-0.311 -0.149,-0.127 -0.257,-0.266 -0.323,-0.418 -0.066,-0.154 -0.1,-0.299 -0.1,-0.438 0,-0.156 0.028,-0.287 0.082,-0.39 0.055,-0.106 0.139,-0.197 0.252,-0.276 0.113,-0.078 0.252,-0.144 0.42,-0.197 0.167,-0.054 0.364,-0.105 0.589,-0.154 0.458,-0.102 0.804,-0.213 1.04,-0.332 0.236,-0.121 0.354,-0.307 0.354,-0.559 0,-0.101 -0.02,-0.209 -0.057,-0.318 -0.037,-0.111 -0.087,-0.227 -0.148,-0.348 -0.062,-0.119 -0.132,-0.24 -0.21,-0.359 -0.079,-0.121 -0.156,-0.234 -0.231,-0.342 l -0.595,0.242 c 0.096,0.186 0.18,0.369 0.252,0.549 0.072,0.18 0.108,0.313 0.108,0.397 0,0.06 -0.022,0.113 -0.063,0.158 -0.041,0.045 -0.107,0.088 -0.199,0.129 -0.092,0.043 -0.213,0.086 -0.363,0.131 -0.151,0.044 -0.338,0.097 -0.565,0.158 -0.463,0.119 -0.83,0.295 -1.095,0.527 -0.267,0.231 -0.4,0.559 -0.4,0.984 0,0.055 0.013,0.147 0.041,0.276 0.027,0.129 0.091,0.269 0.19,0.422 0.098,0.154 0.245,0.306 0.44,0.459 0.195,0.154 0.459,0.283 0.794,0.392 l 0,0.026 -0.696,0.306 c -0.104,0.049 -0.194,0.121 -0.272,0.221 -0.079,0.1 -0.118,0.244 -0.118,0.438 0,0.076 0.026,0.175 0.077,0.296 0.051,0.12 0.135,0.245 0.25,0.373 0.118,0.129 0.268,0.258 0.451,0.387 0.185,0.129 0.411,0.238 0.677,0.328 l -0.01,0.037 -1.813,0 0,0.602 z"
         style="fill:#7c8c36;fill-opacity:1;fill-rule:nonzero;stroke:none"
         id="path8242"
         inkscape:connector-curvature="0" /><path
         d="m 1021.3682,100.709 c -0.232,0 -0.422,-0.043 -0.569,-0.131 -0.147,-0.086 -0.262,-0.205 -0.348,-0.355 -0.086,-0.149 -0.145,-0.325 -0.18,-0.526 -0.033,-0.201 -0.05,-0.412 -0.05,-0.634 0,-0.258 0.017,-0.497 0.05,-0.711 0.035,-0.217 0.094,-0.405 0.18,-0.563 0.086,-0.16 0.201,-0.283 0.348,-0.369 0.147,-0.088 0.337,-0.131 0.569,-0.131 0.226,0 0.411,0.043 0.559,0.127 0.146,0.084 0.262,0.201 0.348,0.355 0.085,0.153 0.147,0.336 0.184,0.553 0.037,0.217 0.056,0.453 0.056,0.711 0,0.223 -0.017,0.434 -0.05,0.635 -0.035,0.201 -0.096,0.379 -0.185,0.531 -0.089,0.153 -0.207,0.276 -0.353,0.369 -0.148,0.092 -0.333,0.139 -0.559,0.139 m -0.041,-3.996 c -0.355,0 -0.657,0.058 -0.907,0.176 -0.249,0.117 -0.452,0.277 -0.61,0.482 -0.156,0.203 -0.271,0.443 -0.342,0.719 -0.072,0.277 -0.109,0.574 -0.109,0.89 0,0.301 0.035,0.59 0.104,0.87 0.068,0.279 0.181,0.525 0.342,0.738 0.162,0.213 0.37,0.383 0.625,0.508 0.257,0.127 0.57,0.189 0.938,0.189 0.362,0 0.671,-0.058 0.927,-0.176 0.257,-0.117 0.465,-0.277 0.625,-0.48 0.16,-0.205 0.277,-0.445 0.348,-0.721 0.072,-0.275 0.109,-0.57 0.109,-0.883 0,-0.31 -0.037,-0.607 -0.109,-0.884 -0.071,-0.28 -0.189,-0.526 -0.353,-0.739 -0.163,-0.213 -0.376,-0.381 -0.635,-0.504 -0.26,-0.123 -0.577,-0.185 -0.953,-0.185"
         style="fill:#7c8c36;fill-opacity:1;fill-rule:nonzero;stroke:none"
         id="path8246"
         inkscape:connector-curvature="0" /><path
         d="m 1025.998,96.7129 c -0.348,0 -0.641,0.045 -0.876,0.135 -0.235,0.09 -0.425,0.207 -0.569,0.347 -0.143,0.141 -0.245,0.299 -0.307,0.473 -0.061,0.174 -0.092,0.342 -0.092,0.504 l 0,2.988 0.799,0 0,-2.998 c 0,-0.095 0.021,-0.195 0.062,-0.297 0.041,-0.101 0.105,-0.197 0.194,-0.283 0.089,-0.088 0.199,-0.16 0.333,-0.217 0.134,-0.056 0.288,-0.084 0.466,-0.084 0.103,0 0.217,0.014 0.344,0.045 0.126,0.03 0.246,0.08 0.358,0.153 0.112,0.072 0.206,0.17 0.282,0.297 0.074,0.125 0.112,0.287 0.112,0.486 l 0,2.898 0.8,0 0,-2.871 c 0,-0.361 -0.072,-0.646 -0.216,-0.855 -0.143,-0.211 -0.315,-0.367 -0.516,-0.473 -0.202,-0.105 -0.412,-0.172 -0.631,-0.203 -0.219,-0.029 -0.399,-0.045 -0.543,-0.045"
         style="fill:#7c8c36;fill-opacity:1;fill-rule:nonzero;stroke:none"
         id="path8250"
         inkscape:connector-curvature="0" /><path
         d="m 1031.8262,101.1602 0.86,0 -1.741,-4.32 -0.677,0 -1.834,4.32 0.861,0 1.127,-2.846 0.195,-0.574 0.03,0 0.175,0.574 1.004,2.846 z"
         style="fill:#7c8c36;fill-opacity:1;fill-rule:nonzero;stroke:none"
         id="path8254"
         inkscape:connector-curvature="0" /><path
         d="m 921.9258,89.5137 -0.358,-0.496 -0.881,-1.178 -0.912,0 1.741,2.205 -1.506,2.115 0.922,0 0.728,-1.107 0.266,-0.451 0.021,0 0.328,0.504 0.748,1.054 0.922,0 -1.578,-2.042 1.639,-2.278 -0.942,0 -0.82,1.197 -0.297,0.477 -0.021,0 z"
         style="fill:#7c8c36;fill-opacity:1;fill-rule:nonzero;stroke:none"
         id="path8258"
         inkscape:connector-curvature="0" /><path
         d="m 930.1738,90.0176 c 0,-0.313 -0.035,-0.607 -0.104,-0.887 -0.068,-0.279 -0.178,-0.523 -0.332,-0.734 -0.154,-0.209 -0.35,-0.375 -0.589,-0.498 -0.239,-0.123 -0.526,-0.186 -0.861,-0.186 -0.259,0 -0.493,0.057 -0.702,0.168 -0.208,0.114 -0.356,0.237 -0.445,0.373 l -0.051,0 c -0.117,-0.136 -0.269,-0.259 -0.456,-0.373 -0.189,-0.111 -0.408,-0.168 -0.661,-0.168 -0.348,0 -0.644,0.063 -0.887,0.186 -0.242,0.123 -0.436,0.289 -0.584,0.498 -0.146,0.211 -0.252,0.455 -0.316,0.734 -0.066,0.28 -0.098,0.574 -0.098,0.887 0,0.27 0.035,0.529 0.106,0.777 0.071,0.25 0.175,0.475 0.314,0.676 0.138,0.201 0.312,0.371 0.523,0.508 0.211,0.139 0.46,0.234 0.747,0.289 l 0.205,-0.523 c -0.41,-0.133 -0.695,-0.344 -0.856,-0.637 -0.16,-0.291 -0.24,-0.641 -0.24,-1.051 0,-0.258 0.019,-0.496 0.057,-0.717 0.037,-0.218 0.099,-0.408 0.185,-0.568 0.086,-0.158 0.197,-0.283 0.335,-0.373 0.138,-0.092 0.306,-0.137 0.505,-0.137 0.082,0 0.168,0.016 0.258,0.045 0.089,0.031 0.172,0.074 0.246,0.131 0.076,0.057 0.138,0.131 0.185,0.221 0.049,0.089 0.073,0.197 0.073,0.324 l 0,1.791 0.799,0 0,-1.791 c 0,-0.127 0.023,-0.235 0.067,-0.324 0.044,-0.09 0.102,-0.164 0.175,-0.221 0.071,-0.057 0.149,-0.1 0.234,-0.131 0.086,-0.029 0.17,-0.045 0.252,-0.045 0.197,0 0.367,0.045 0.507,0.137 0.139,0.09 0.253,0.215 0.339,0.373 0.084,0.16 0.148,0.35 0.189,0.568 0.041,0.221 0.061,0.459 0.061,0.717 0,0.205 -0.022,0.399 -0.067,0.582 -0.045,0.184 -0.113,0.35 -0.205,0.496 -0.092,0.149 -0.205,0.274 -0.338,0.379 -0.133,0.106 -0.289,0.182 -0.466,0.231 l 0.195,0.523 c 0.301,-0.049 0.558,-0.141 0.773,-0.275 0.215,-0.135 0.391,-0.303 0.528,-0.504 0.136,-0.201 0.238,-0.428 0.302,-0.68 0.065,-0.252 0.098,-0.516 0.098,-0.791"
         style="fill:#7c8c36;fill-opacity:1;fill-rule:nonzero;stroke:none"
         id="path8262"
         inkscape:connector-curvature="0" /><path
         d="m 933.9492,89.9551 c 0,0.551 -0.09,0.98 -0.267,1.287 -0.177,0.305 -0.485,0.459 -0.922,0.459 -0.102,0 -0.219,-0.017 -0.348,-0.051 -0.13,-0.033 -0.25,-0.101 -0.359,-0.207 -0.11,-0.105 -0.202,-0.254 -0.276,-0.445 -0.076,-0.191 -0.113,-0.447 -0.113,-0.766 l 0,-1.556 c 0.157,-0.09 0.347,-0.178 0.568,-0.266 0.223,-0.086 0.446,-0.129 0.672,-0.129 0.225,0 0.408,0.061 0.547,0.184 0.141,0.123 0.246,0.271 0.318,0.445 0.073,0.174 0.119,0.357 0.144,0.549 0.023,0.191 0.036,0.357 0.036,0.496 m 0.86,0.045 c 0,-0.272 -0.034,-0.541 -0.102,-0.811 -0.069,-0.269 -0.18,-0.515 -0.334,-0.738 -0.154,-0.223 -0.358,-0.402 -0.608,-0.539 -0.25,-0.139 -0.56,-0.207 -0.929,-0.207 -0.158,0 -0.342,0.031 -0.551,0.094 -0.209,0.062 -0.416,0.172 -0.621,0.328 l 0,-2.088 -0.799,0 0,4.041 c 0,0.504 0.071,0.902 0.215,1.193 0.144,0.291 0.318,0.51 0.524,0.657 0.206,0.146 0.419,0.24 0.642,0.279 0.223,0.039 0.416,0.059 0.58,0.059 0.363,0 0.67,-0.059 0.92,-0.176 0.25,-0.117 0.453,-0.278 0.611,-0.481 0.158,-0.205 0.272,-0.445 0.344,-0.72 0.072,-0.276 0.108,-0.575 0.108,-0.891"
         style="fill:#7c8c36;fill-opacity:1;fill-rule:nonzero;stroke:none"
         id="path8266"
         inkscape:connector-curvature="0" /><path
         d="m 935.7305,92.9238 0.736,1.504 0.759,-0.289 -1.045,-1.395 -0.45,0.18 z m 0.102,-1.322 -0.543,0.125 0,0.441 1.341,0 0,-4.328 -0.798,0 0,3.762 z"
         style="fill:#7c8c36;fill-opacity:1;fill-rule:nonzero;stroke:none"
         id="path8270"
         inkscape:connector-curvature="0" /><path
         d="m 938.7295,87.7129 c -0.259,0 -0.517,0.023 -0.773,0.068 -0.256,0.045 -0.463,0.1 -0.621,0.166 l 0.206,0.532 c 0.184,-0.067 0.378,-0.118 0.584,-0.153 0.205,-0.037 0.403,-0.054 0.593,-0.054 0.328,0 0.588,0.052 0.78,0.158 0.191,0.103 0.287,0.295 0.287,0.57 0,0.258 -0.077,0.445 -0.231,0.563 -0.154,0.117 -0.394,0.216 -0.722,0.302 -0.184,0.047 -0.361,0.096 -0.528,0.149 -0.168,0.051 -0.314,0.119 -0.441,0.207 -0.126,0.086 -0.229,0.199 -0.307,0.336 -0.078,0.138 -0.117,0.318 -0.117,0.541 0,0.22 0.051,0.41 0.152,0.562 0.104,0.153 0.233,0.276 0.391,0.369 0.156,0.092 0.332,0.161 0.527,0.202 0.195,0.043 0.384,0.064 0.569,0.064 0.265,0 0.513,-0.023 0.742,-0.068 0.229,-0.045 0.398,-0.092 0.508,-0.139 l -0.185,-0.523 c -0.157,0.048 -0.327,0.084 -0.513,0.109 -0.183,0.023 -0.347,0.035 -0.491,0.035 -0.622,0 -0.932,-0.203 -0.932,-0.611 0,-0.115 0.023,-0.207 0.072,-0.28 0.047,-0.072 0.112,-0.13 0.194,-0.175 0.082,-0.045 0.177,-0.084 0.286,-0.117 0.11,-0.034 0.227,-0.065 0.35,-0.094 0.17,-0.049 0.343,-0.102 0.516,-0.158 0.175,-0.057 0.332,-0.137 0.472,-0.243 0.14,-0.105 0.252,-0.238 0.338,-0.396 0.086,-0.158 0.128,-0.365 0.128,-0.617 0,-0.233 -0.048,-0.434 -0.144,-0.598 -0.095,-0.166 -0.226,-0.301 -0.394,-0.404 -0.167,-0.106 -0.361,-0.182 -0.584,-0.231 -0.222,-0.047 -0.459,-0.072 -0.712,-0.072"
         style="fill:#7c8c36;fill-opacity:1;fill-rule:nonzero;stroke:none"
         id="path8274"
         inkscape:connector-curvature="0" /><path
         d="m 946.4238,91.5742 -1.978,0 0,-3.734 -0.798,0 0,4.32 3.575,0 0,-4.32 -0.799,0 0,3.734 z"
         style="fill:#7c8c36;fill-opacity:1;fill-rule:nonzero;stroke:none"
         id="path8278"
         inkscape:connector-curvature="0" /><path
         d="m 951.377,89.9551 c 0,0.551 -0.088,0.98 -0.266,1.287 -0.177,0.305 -0.485,0.459 -0.922,0.459 -0.103,0 -0.218,-0.017 -0.348,-0.051 -0.13,-0.033 -0.249,-0.101 -0.359,-0.207 -0.109,-0.105 -0.202,-0.254 -0.277,-0.445 -0.074,-0.191 -0.112,-0.447 -0.112,-0.766 l 0,-1.556 c 0.157,-0.09 0.346,-0.178 0.568,-0.266 0.222,-0.086 0.446,-0.129 0.671,-0.129 0.226,0 0.408,0.061 0.549,0.184 0.14,0.123 0.246,0.271 0.317,0.445 0.072,0.174 0.119,0.357 0.144,0.549 0.023,0.191 0.035,0.357 0.035,0.496 m 0.861,0.045 c 0,-0.272 -0.035,-0.541 -0.103,-0.811 -0.069,-0.269 -0.18,-0.515 -0.334,-0.738 -0.154,-0.223 -0.356,-0.402 -0.606,-0.539 -0.25,-0.139 -0.56,-0.207 -0.93,-0.207 -0.158,0 -0.341,0.031 -0.55,0.094 -0.209,0.062 -0.416,0.172 -0.622,0.328 l 0,-2.088 -0.8,0 0,4.041 c 0,0.504 0.072,0.902 0.217,1.193 0.142,0.291 0.318,0.51 0.523,0.657 0.205,0.146 0.42,0.24 0.643,0.279 0.222,0.039 0.416,0.059 0.58,0.059 0.363,0 0.669,-0.059 0.919,-0.176 0.25,-0.117 0.454,-0.278 0.611,-0.481 0.157,-0.205 0.273,-0.445 0.345,-0.72 0.071,-0.276 0.107,-0.575 0.107,-0.891"
         style="fill:#7c8c36;fill-opacity:1;fill-rule:nonzero;stroke:none"
         id="path8282"
         inkscape:connector-curvature="0" /><path
         d="m 954.8984,91.709 c -0.232,0 -0.422,-0.043 -0.568,-0.131 -0.147,-0.086 -0.263,-0.205 -0.348,-0.355 -0.086,-0.149 -0.146,-0.325 -0.18,-0.526 -0.034,-0.201 -0.05,-0.412 -0.05,-0.634 0,-0.258 0.016,-0.497 0.05,-0.711 0.034,-0.217 0.094,-0.405 0.18,-0.563 0.085,-0.16 0.201,-0.283 0.348,-0.369 0.146,-0.088 0.336,-0.131 0.568,-0.131 0.227,0 0.412,0.043 0.559,0.127 0.146,0.084 0.263,0.201 0.348,0.355 0.085,0.153 0.148,0.336 0.185,0.553 0.037,0.217 0.056,0.453 0.056,0.711 0,0.223 -0.017,0.434 -0.051,0.635 -0.034,0.201 -0.096,0.379 -0.185,0.531 -0.088,0.153 -0.207,0.276 -0.353,0.369 -0.147,0.092 -0.332,0.139 -0.559,0.139 m -0.041,-3.996 c -0.355,0 -0.656,0.058 -0.906,0.176 -0.25,0.117 -0.453,0.277 -0.61,0.482 -0.157,0.203 -0.271,0.443 -0.343,0.719 -0.072,0.277 -0.108,0.574 -0.108,0.89 0,0.301 0.034,0.59 0.103,0.87 0.068,0.279 0.182,0.525 0.342,0.738 0.162,0.213 0.37,0.383 0.625,0.508 0.257,0.127 0.57,0.189 0.938,0.189 0.362,0 0.672,-0.058 0.928,-0.176 0.256,-0.117 0.465,-0.277 0.625,-0.48 0.16,-0.205 0.276,-0.445 0.347,-0.721 0.073,-0.275 0.109,-0.57 0.109,-0.883 0,-0.31 -0.036,-0.607 -0.109,-0.884 -0.071,-0.28 -0.189,-0.526 -0.353,-0.739 -0.163,-0.213 -0.375,-0.381 -0.635,-0.504 -0.26,-0.123 -0.577,-0.185 -0.953,-0.185"
         style="fill:#7c8c36;fill-opacity:1;fill-rule:nonzero;stroke:none"
         id="path8286"
         inkscape:connector-curvature="0" /><path
         d="m 958.3857,89.0449 c 0,-0.229 0.073,-0.404 0.22,-0.531 0.147,-0.125 0.375,-0.188 0.681,-0.188 0.26,0 0.502,0.02 0.728,0.059 0.225,0.037 0.458,0.105 0.696,0.201 l 0.246,-0.521 c -0.259,-0.133 -0.519,-0.223 -0.778,-0.27 -0.26,-0.049 -0.554,-0.072 -0.882,-0.072 -0.211,0 -0.422,0.021 -0.629,0.066 -0.209,0.045 -0.396,0.119 -0.564,0.221 -0.167,0.103 -0.302,0.236 -0.405,0.4 -0.102,0.166 -0.154,0.365 -0.154,0.6 0,0.228 0.07,0.441 0.211,0.642 0.14,0.202 0.354,0.348 0.641,0.438 l 0,0.027 -0.533,0.242 c -0.082,0.036 -0.147,0.114 -0.196,0.229 -0.047,0.117 -0.071,0.236 -0.071,0.357 0,0.209 0.048,0.397 0.143,0.563 0.096,0.164 0.226,0.305 0.389,0.422 0.164,0.117 0.354,0.207 0.57,0.269 0.214,0.065 0.446,0.096 0.691,0.096 0.219,0 0.436,-0.02 0.655,-0.059 0.219,-0.039 0.492,-0.125 0.82,-0.257 l -0.255,-0.53 c -0.205,0.084 -0.399,0.139 -0.579,0.166 -0.181,0.028 -0.354,0.041 -0.518,0.041 -0.075,0 -0.171,-0.007 -0.287,-0.023 -0.116,-0.016 -0.232,-0.045 -0.349,-0.09 -0.115,-0.045 -0.215,-0.107 -0.297,-0.189 -0.082,-0.08 -0.123,-0.188 -0.123,-0.319 0,-0.144 0.039,-0.258 0.118,-0.338 0.08,-0.082 0.176,-0.14 0.292,-0.175 0.117,-0.036 0.245,-0.059 0.385,-0.069 0.139,-0.008 0.268,-0.013 0.384,-0.013 l 0.502,0 0,-0.575 -0.573,0 c -0.205,0 -0.383,-0.027 -0.533,-0.078 -0.151,-0.051 -0.274,-0.115 -0.37,-0.193 -0.095,-0.078 -0.166,-0.166 -0.21,-0.266 -0.044,-0.097 -0.066,-0.193 -0.066,-0.283"
         style="fill:#7c8c36;fill-opacity:1;fill-rule:nonzero;stroke:none"
         id="path8290"
         inkscape:connector-curvature="0" /><path
         d="m 961.9961,91.6016 -0.543,0.125 0,0.441 1.342,0 0,-4.328 -0.799,0 0,3.762 z"
         style="fill:#7c8c36;fill-opacity:1;fill-rule:nonzero;stroke:none"
         id="path8294"
         inkscape:connector-curvature="0" /><path
         d="m 964.5381,90.0254 c 0,-0.252 0.015,-0.484 0.046,-0.697 0.031,-0.213 0.089,-0.395 0.174,-0.549 0.086,-0.152 0.202,-0.274 0.349,-0.359 0.147,-0.088 0.336,-0.131 0.569,-0.131 0.443,0 0.749,0.152 0.916,0.455 0.168,0.302 0.252,0.72 0.252,1.256 0,0.168 -0.01,0.336 -0.026,0.507 -0.017,0.172 -0.067,0.334 -0.149,0.487 -0.081,0.152 -0.206,0.295 -0.374,0.427 -0.167,0.131 -0.399,0.243 -0.692,0.333 -0.218,-0.102 -0.398,-0.219 -0.537,-0.35 -0.14,-0.133 -0.25,-0.274 -0.328,-0.42 -0.079,-0.146 -0.132,-0.301 -0.159,-0.463 -0.027,-0.162 -0.041,-0.328 -0.041,-0.496 m 0.431,2.018 c -0.226,0.107 -0.401,0.238 -0.524,0.39 -0.123,0.153 -0.183,0.367 -0.183,0.645 0,0.22 0.047,0.408 0.144,0.562 0.098,0.153 0.225,0.276 0.385,0.369 0.158,0.092 0.338,0.161 0.535,0.202 0.199,0.043 0.4,0.062 0.606,0.062 0.259,0 0.503,-0.019 0.732,-0.062 0.228,-0.041 0.398,-0.086 0.508,-0.135 l -0.186,-0.531 c -0.15,0.048 -0.317,0.084 -0.502,0.109 -0.183,0.023 -0.347,0.035 -0.491,0.035 -0.622,0 -0.933,-0.205 -0.933,-0.611 0,-0.157 0.06,-0.289 0.179,-0.397 0.119,-0.107 0.257,-0.185 0.413,-0.234 0.389,-0.125 0.715,-0.266 0.981,-0.418 0.264,-0.154 0.475,-0.328 0.633,-0.527 0.156,-0.198 0.267,-0.422 0.335,-0.67 0.069,-0.25 0.103,-0.53 0.103,-0.842 0,-0.319 -0.038,-0.617 -0.112,-0.895 -0.076,-0.279 -0.196,-0.521 -0.36,-0.724 -0.164,-0.205 -0.377,-0.366 -0.64,-0.483 -0.263,-0.117 -0.582,-0.176 -0.957,-0.176 -0.356,0 -0.659,0.057 -0.908,0.172 -0.249,0.114 -0.45,0.272 -0.604,0.473 -0.154,0.201 -0.266,0.436 -0.338,0.705 -0.072,0.272 -0.107,0.565 -0.107,0.883 0,0.234 0.029,0.459 0.087,0.676 0.057,0.215 0.141,0.416 0.251,0.601 0.109,0.188 0.244,0.348 0.404,0.483 0.16,0.134 0.344,0.238 0.549,0.31 l 0,0.028 z"
         style="fill:#7c8c36;fill-opacity:1;fill-rule:nonzero;stroke:none"
         id="path8298"
         inkscape:connector-curvature="0" /><path
         d="m 970.3066,91.709 c -0.232,0 -0.422,-0.043 -0.569,-0.131 -0.147,-0.086 -0.263,-0.205 -0.349,-0.355 -0.085,-0.149 -0.145,-0.325 -0.179,-0.526 -0.034,-0.201 -0.051,-0.412 -0.051,-0.634 0,-0.258 0.017,-0.497 0.051,-0.711 0.034,-0.217 0.094,-0.405 0.179,-0.563 0.086,-0.16 0.202,-0.283 0.349,-0.369 0.147,-0.088 0.337,-0.131 0.569,-0.131 0.225,0 0.411,0.043 0.559,0.127 0.146,0.084 0.261,0.201 0.347,0.355 0.086,0.153 0.147,0.336 0.185,0.553 0.037,0.217 0.055,0.453 0.055,0.711 0,0.223 -0.016,0.434 -0.05,0.635 -0.034,0.201 -0.096,0.379 -0.184,0.531 -0.09,0.153 -0.207,0.276 -0.353,0.369 -0.148,0.092 -0.334,0.139 -0.559,0.139 m -0.041,-3.996 c -0.355,0 -0.658,0.058 -0.907,0.176 -0.249,0.117 -0.452,0.277 -0.61,0.482 -0.157,0.203 -0.271,0.443 -0.342,0.719 -0.073,0.277 -0.109,0.574 -0.109,0.89 0,0.301 0.034,0.59 0.103,0.87 0.068,0.279 0.182,0.525 0.343,0.738 0.161,0.213 0.37,0.383 0.625,0.508 0.256,0.127 0.569,0.189 0.938,0.189 0.361,0 0.67,-0.058 0.927,-0.176 0.257,-0.117 0.464,-0.277 0.625,-0.48 0.16,-0.205 0.276,-0.445 0.348,-0.721 0.072,-0.275 0.108,-0.57 0.108,-0.883 0,-0.31 -0.036,-0.607 -0.108,-0.884 -0.072,-0.28 -0.189,-0.526 -0.353,-0.739 -0.164,-0.213 -0.376,-0.381 -0.635,-0.504 -0.26,-0.123 -0.578,-0.185 -0.953,-0.185"
         style="fill:#7c8c36;fill-opacity:1;fill-rule:nonzero;stroke:none"
         id="path8302"
         inkscape:connector-curvature="0" /><path
         d="m 976.0605,91.5742 -1.979,0 0,-3.734 -0.798,0 0,4.32 3.576,0 0,-4.32 -0.799,0 0,3.734 z"
         style="fill:#7c8c36;fill-opacity:1;fill-rule:nonzero;stroke:none"
         id="path8306"
         inkscape:connector-curvature="0" /><path
         d="m 979.8223,91.709 c -0.232,0 -0.422,-0.043 -0.568,-0.131 -0.147,-0.086 -0.264,-0.205 -0.349,-0.355 -0.085,-0.149 -0.146,-0.325 -0.179,-0.526 -0.035,-0.201 -0.051,-0.412 -0.051,-0.634 0,-0.258 0.016,-0.497 0.051,-0.711 0.033,-0.217 0.094,-0.405 0.179,-0.563 0.085,-0.16 0.202,-0.283 0.349,-0.369 0.146,-0.088 0.336,-0.131 0.568,-0.131 0.226,0 0.412,0.043 0.559,0.127 0.146,0.084 0.262,0.201 0.347,0.355 0.086,0.153 0.148,0.336 0.186,0.553 0.037,0.217 0.055,0.453 0.055,0.711 0,0.223 -0.016,0.434 -0.051,0.635 -0.033,0.201 -0.096,0.379 -0.184,0.531 -0.089,0.153 -0.207,0.276 -0.353,0.369 -0.147,0.092 -0.333,0.139 -0.559,0.139 m -0.041,-3.996 c -0.355,0 -0.657,0.058 -0.906,0.176 -0.25,0.117 -0.453,0.277 -0.61,0.482 -0.158,0.203 -0.271,0.443 -0.343,0.719 -0.073,0.277 -0.108,0.574 -0.108,0.89 0,0.301 0.033,0.59 0.102,0.87 0.068,0.279 0.183,0.525 0.343,0.738 0.161,0.213 0.37,0.383 0.625,0.508 0.256,0.127 0.569,0.189 0.938,0.189 0.361,0 0.671,-0.058 0.928,-0.176 0.256,-0.117 0.464,-0.277 0.625,-0.48 0.16,-0.205 0.276,-0.445 0.347,-0.721 0.073,-0.275 0.108,-0.57 0.108,-0.883 0,-0.31 -0.035,-0.607 -0.108,-0.884 -0.071,-0.28 -0.189,-0.526 -0.353,-0.739 -0.164,-0.213 -0.375,-0.381 -0.635,-0.504 -0.26,-0.123 -0.578,-0.185 -0.953,-0.185"
         style="fill:#7c8c36;fill-opacity:1;fill-rule:nonzero;stroke:none"
         id="path8310"
         inkscape:connector-curvature="0" /><path
         d="m 982.7285,92.9238 0.738,1.504 0.758,-0.289 -1.045,-1.395 -0.451,0.18 z m 0.104,-1.322 -0.544,0.125 0,0.441 1.342,0 0,-4.328 -0.798,0 0,3.762 z"
         style="fill:#7c8c36;fill-opacity:1;fill-rule:nonzero;stroke:none"
         id="path8314"
         inkscape:connector-curvature="0" /><path
         d="m 987.5898,87.8398 0,2.781 c 0,0.137 -0.008,0.268 -0.025,0.391 -0.017,0.123 -0.055,0.23 -0.113,0.32 -0.057,0.09 -0.141,0.16 -0.251,0.211 -0.109,0.051 -0.253,0.076 -0.429,0.076 -0.137,0 -0.27,-0.017 -0.395,-0.054 -0.127,-0.036 -0.244,-0.077 -0.353,-0.125 -0.11,-0.049 -0.209,-0.102 -0.298,-0.159 -0.089,-0.056 -0.163,-0.105 -0.226,-0.148 l 0,-3.293 -0.799,0 0,4.32 0.594,0 0.195,-0.451 0.779,0.387 c 0.095,0.049 0.21,0.09 0.342,0.127 0.134,0.035 0.249,0.053 0.344,0.053 0.342,0 0.608,-0.053 0.799,-0.161 0.191,-0.109 0.335,-0.246 0.431,-0.41 0.095,-0.166 0.153,-0.344 0.175,-0.535 0.019,-0.193 0.03,-0.373 0.03,-0.541 l 0,-2.789 -0.8,0 z"
         style="fill:#7c8c36;fill-opacity:1;fill-rule:nonzero;stroke:none"
         id="path8318"
         inkscape:connector-curvature="0" /><path
         d="m 991.1895,91.5918 c -0.226,0 -0.414,-0.043 -0.563,-0.131 -0.151,-0.086 -0.272,-0.201 -0.365,-0.346 -0.092,-0.144 -0.156,-0.312 -0.194,-0.503 -0.038,-0.192 -0.056,-0.397 -0.056,-0.612 0,-0.252 0.018,-0.482 0.056,-0.689 0.038,-0.207 0.102,-0.387 0.194,-0.539 0.093,-0.155 0.214,-0.272 0.365,-0.356 0.149,-0.084 0.34,-0.127 0.573,-0.127 0.226,0 0.412,0.041 0.558,0.121 0.147,0.082 0.267,0.198 0.36,0.348 0.092,0.15 0.156,0.326 0.194,0.531 0.037,0.203 0.056,0.432 0.056,0.684 0,0.191 -0.019,0.375 -0.056,0.549 -0.038,0.174 -0.102,0.332 -0.194,0.476 -0.093,0.145 -0.214,0.268 -0.365,0.369 -0.15,0.102 -0.337,0.178 -0.563,0.225 m 1.404,-0.018 c 0.232,-0.179 0.396,-0.414 0.492,-0.701 0.095,-0.289 0.143,-0.592 0.143,-0.91 0,-0.305 -0.039,-0.596 -0.118,-0.867 -0.079,-0.274 -0.203,-0.512 -0.374,-0.717 -0.17,-0.203 -0.388,-0.365 -0.651,-0.486 -0.263,-0.119 -0.582,-0.18 -0.958,-0.18 -0.348,0 -0.647,0.057 -0.896,0.172 -0.249,0.113 -0.454,0.269 -0.614,0.467 -0.161,0.199 -0.28,0.431 -0.354,0.699 -0.076,0.266 -0.113,0.555 -0.113,0.867 0,0.301 0.039,0.586 0.118,0.86 0.078,0.273 0.201,0.511 0.368,0.716 0.168,0.203 0.383,0.366 0.647,0.485 0.261,0.121 0.578,0.181 0.947,0.181 l 2.305,0 0,-0.568 -0.922,0 -0.02,-0.018 z"
         style="fill:#7c8c36;fill-opacity:1;fill-rule:nonzero;stroke:none"
         id="path8322"
         inkscape:connector-curvature="0" /><path
         d="m 997.0371,87.8398 0,2.781 c 0,0.137 -0.008,0.268 -0.025,0.391 -0.017,0.123 -0.055,0.23 -0.113,0.32 -0.057,0.09 -0.141,0.16 -0.251,0.211 -0.109,0.051 -0.253,0.076 -0.429,0.076 -0.137,0 -0.27,-0.017 -0.395,-0.054 -0.127,-0.036 -0.244,-0.077 -0.353,-0.125 -0.11,-0.049 -0.209,-0.102 -0.298,-0.159 -0.089,-0.056 -0.163,-0.105 -0.226,-0.148 l 0,-3.293 -0.799,0 0,4.32 0.594,0 0.195,-0.451 0.779,0.387 c 0.095,0.049 0.21,0.09 0.342,0.127 0.134,0.035 0.249,0.053 0.344,0.053 0.342,0 0.608,-0.053 0.799,-0.161 0.191,-0.109 0.335,-0.246 0.431,-0.41 0.095,-0.166 0.153,-0.344 0.175,-0.535 0.019,-0.193 0.03,-0.373 0.03,-0.541 l 0,-2.789 -0.8,0 z"
         style="fill:#7c8c36;fill-opacity:1;fill-rule:nonzero;stroke:none"
         id="path8326"
         inkscape:connector-curvature="0" /><path
         d="m 999.4453,87.75 c -0.178,0 -0.328,0.055 -0.451,0.166 -0.123,0.111 -0.185,0.244 -0.185,0.4 0,0.157 0.062,0.289 0.185,0.401 0.123,0.111 0.273,0.166 0.451,0.166 0.177,0 0.328,-0.055 0.455,-0.166 0.127,-0.112 0.19,-0.244 0.19,-0.401 0,-0.156 -0.063,-0.289 -0.19,-0.4 -0.127,-0.111 -0.278,-0.166 -0.455,-0.166"
         style="fill:#7c8c36;fill-opacity:1;fill-rule:nonzero;stroke:none"
         id="path8330"
         inkscape:connector-curvature="0" /></g></g></svg>