<?xml version="1.0" encoding="UTF-8" standalone="no"?>
<!-- Created with Inkscape (http://www.inkscape.org/) -->

<svg
   xmlns:dc="http://purl.org/dc/elements/1.1/"
   xmlns:cc="http://creativecommons.org/ns#"
   xmlns:rdf="http://www.w3.org/1999/02/22-rdf-syntax-ns#"
   xmlns:svg="http://www.w3.org/2000/svg"
   xmlns="http://www.w3.org/2000/svg"
   xmlns:sodipodi="http://sodipodi.sourceforge.net/DTD/sodipodi-0.dtd"
   xmlns:inkscape="http://www.inkscape.org/namespaces/inkscape"
   id="svg2"
   version="1.1"
   inkscape:version="0.91 r13725"
   xml:space="preserve"
   width="156.28149"
   height="99.663994"
   viewBox="0 0 156.28149 99.663996"
   sodipodi:docname="menu-sweets.svg"><metadata
     id="metadata8"><rdf:RDF><cc:Work
         rdf:about=""><dc:format>image/svg+xml</dc:format><dc:type
           rdf:resource="http://purl.org/dc/dcmitype/StillImage" /><dc:title></dc:title></cc:Work></rdf:RDF></metadata><defs
     id="defs6"><clipPath
       clipPathUnits="userSpaceOnUse"
       id="clipPath16"><path
         d="m 42.534,42.903 1217.492,0 0,868.852 -1217.492,0 0,-868.852 z"
         id="path18"
         inkscape:connector-curvature="0" /></clipPath><clipPath
       clipPathUnits="userSpaceOnUse"
       id="clipPath58"><path
         d="m 0,955.275 1303.937,0 L 1303.937,0 0,0 0,955.275 Z"
         id="path60"
         inkscape:connector-curvature="0" /></clipPath></defs><sodipodi:namedview
     pagecolor="#ffffff"
     bordercolor="#666666"
     borderopacity="1"
     objecttolerance="10"
     gridtolerance="10"
     guidetolerance="10"
     inkscape:pageopacity="0"
     inkscape:pageshadow="2"
     inkscape:window-width="1881"
     inkscape:window-height="1176"
     id="namedview4"
     showgrid="false"
     inkscape:zoom="0.55900871"
     inkscape:cx="26.84597"
     inkscape:cy="-99.403784"
     inkscape:window-x="39"
     inkscape:window-y="24"
     inkscape:window-maximized="1"
     inkscape:current-layer="g10"
     fit-margin-top="0"
     fit-margin-left="0"
     fit-margin-right="0"
     fit-margin-bottom="0" /><g
     id="g10"
     inkscape:groupmode="layer"
     inkscape:label="Kouzina_trifold(menu)_Oct2017"
     transform="matrix(1.25,0,0,-1.25,-857.82974,775.20687)"><g
       id="g38784"
       transform="translate(-381.30336,61.537503)"><path
         d="m 1124.3555,554.1641 c 0.23,-0.103 0.472,-0.15 0.709,-0.15 0.671,0 1.311,0.387 1.601,1.04 l 0.494,1.113 c 0.391,0.884 -0.01,1.917 -0.89,2.31 -0.882,0.392 -1.917,-0.006 -2.31,-0.89 l -0.494,-1.113 c -0.391,-0.884 0.01,-1.917 0.89,-2.31"
         style="fill:#231f20;fill-opacity:1;fill-rule:nonzero;stroke:none"
         id="path284"
         inkscape:connector-curvature="0" /><path
         d="m 1125.3135,540.4922 c -1.883,0 -3.414,1.743 -3.414,3.885 0,2.142 1.531,3.886 3.414,3.886 1.884,0 3.416,-1.744 3.416,-3.886 0,-2.142 -1.532,-3.885 -3.416,-3.885 m 7.618,0.11 c -0.147,0.711 -0.304,1.967 -0.304,3.701 l 0,5.45 c 0,0.967 -0.783,1.75 -1.75,1.75 -0.726,0 -1.348,-0.443 -1.614,-1.073 -1.121,0.837 -2.481,1.333 -3.95,1.333 -3.813,0 -6.914,-3.314 -6.914,-7.386 0,-4.073 3.101,-7.385 6.914,-7.385 1.721,0 3.293,0.679 4.504,1.793 0.642,-1.676 1.571,-1.683 2.081,-1.683 l 1.02,0 c 0.967,0 1.75,0.784 1.75,1.75 0,0.962 -0.777,1.744 -1.737,1.75"
         style="fill:#231f20;fill-opacity:1;fill-rule:nonzero;stroke:none"
         id="path288"
         inkscape:connector-curvature="0" /><path
         d="m 1086.7168,557.4072 c -0.231,0.727 -0.905,1.22 -1.668,1.22 l -1.277,0 c -0.967,0 -1.75,-0.783 -1.75,-1.75 0,-0.966 0.782,-1.748 1.747,-1.75 l 0.814,-2.563 c -0.048,-0.131 -0.085,-0.267 -0.1,-0.413 -0.48,-4.676 -2.121,-6.111 -3.571,-7.379 -1.418,-1.24 -3.025,-2.645 -2.621,-5.986 0.108,-0.889 0.863,-1.54 1.736,-1.54 0.069,0 0.14,0.004 0.211,0.013 0.96,0.116 1.644,0.987 1.528,1.947 -0.182,1.504 0.229,1.864 1.451,2.931 1.061,0.927 2.357,2.07 3.352,4.179 l 2.575,-8.104 c 0.237,-0.744 0.926,-1.22 1.668,-1.22 0.175,0 0.353,0.026 0.53,0.082 0.921,0.293 1.431,1.276 1.138,2.198 l -5.763,18.135 z"
         style="fill:#231f20;fill-opacity:1;fill-rule:nonzero;stroke:none"
         id="path292"
         inkscape:connector-curvature="0" /><path
         d="m 1079.7637,557.0293 c -0.085,0.963 -0.93,1.677 -1.896,1.591 l -8.406,-0.737 c -0.963,-0.083 -1.676,-0.932 -1.591,-1.895 0.012,-0.131 0.041,-0.256 0.08,-0.376 -0.053,-0.169 -0.088,-0.345 -0.086,-0.531 l 0.159,-15.837 c 0,-0.132 0.01,-0.297 0.017,-0.478 l -10e-4,-0.137 0.013,0 c 0.08,-0.8 0.398,-1.821 1.732,-1.821 l 0.011,0 c 0.611,0.003 1.607,0.257 1.733,1.848 l 0.01,10e-4 c 0,0.014 0,0.034 -10e-4,0.061 0.01,0.091 0.01,0.187 0.01,0.288 0,0.085 -0.01,0.169 -0.018,0.252 -0.031,2.206 -0.105,9.781 -0.155,15.28 l 6.804,0.595 c 0.963,0.084 1.676,0.933 1.591,1.896"
         style="fill:#231f20;fill-opacity:1;fill-rule:nonzero;stroke:none"
         id="path296"
         inkscape:connector-curvature="0" /><path
         d="m 1102.7793,551.7783 c -0.967,0 -1.75,-0.783 -1.75,-1.75 l 0,-5.636 c 0,-2.289 -1.299,-3.885 -2.465,-3.885 -1.165,0 -2.464,1.596 -2.464,3.885 l 0,5.636 c 0,0.967 -0.783,1.75 -1.75,1.75 -0.967,0 -1.75,-0.783 -1.75,-1.75 l 0,-5.636 c 0,-4.072 2.676,-7.385 5.964,-7.385 3.289,0 5.965,3.313 5.965,7.385 l 0,5.636 c 0,0.967 -0.783,1.75 -1.75,1.75"
         style="fill:#231f20;fill-opacity:1;fill-rule:nonzero;stroke:none"
         id="path300"
         inkscape:connector-curvature="0" /><path
         d="m 1113.1533,545.1494 c -0.961,-0.063 -1.314,-0.081 -1.519,0.229 l 4.28,3.491 c 0.749,0.61 0.86,1.713 0.249,2.462 -0.61,0.748 -1.711,0.861 -2.462,0.249 l -3.827,-3.123 0,1.671 c 0,0.967 -0.784,1.75 -1.75,1.75 -0.967,0 -1.75,-0.783 -1.75,-1.75 l 0,-11.202 c 0,-0.966 0.783,-1.75 1.75,-1.75 0.966,0 1.75,0.784 1.75,1.75 l 0,3.37 c 1.212,-0.785 2.643,-0.695 3.514,-0.639 0.363,0.025 1.121,0.076 1.235,-0.031 0.018,-0.018 0.45,-0.45 0.43,-2.685 -0.01,-0.966 0.769,-1.756 1.736,-1.765 l 0.014,0 c 0.96,0 1.743,0.774 1.75,1.736 0.022,2.584 -0.463,4.256 -1.529,5.26 -1.225,1.156 -2.756,1.054 -3.871,0.977"
         style="fill:#231f20;fill-opacity:1;fill-rule:nonzero;stroke:none"
         id="path304"
         inkscape:connector-curvature="0" /><path
         d="m 1074.1523,515.0869 -1.367,0 -3.223,3.984 -0.041,-0.012 0,-3.972 -1.148,0 0,8.208 1.148,0 0,-3.792 0.041,-0.012 3.387,3.804 1.23,0 -3.552,-3.984 3.525,-4.224 z"
         style="fill:#7c8c36;fill-opacity:1;fill-rule:nonzero;stroke:none"
         id="path308"
         inkscape:connector-curvature="0" /><path
         d="m 1075.5791,518.0273 c 0,-0.736 0.103,-1.29 0.308,-1.662 0.205,-0.372 0.571,-0.559 1.099,-0.559 0.137,0 0.276,0.021 0.416,0.061 0.142,0.04 0.276,0.092 0.405,0.155 0.126,0.065 0.245,0.135 0.354,0.211 0.109,0.075 0.21,0.149 0.301,0.222 l 0,3.275 c -0.21,0.12 -0.462,0.238 -0.759,0.355 -0.295,0.116 -0.594,0.173 -0.895,0.173 -0.3,0 -0.535,-0.082 -0.703,-0.246 -0.169,-0.164 -0.292,-0.362 -0.369,-0.593 -0.078,-0.233 -0.123,-0.477 -0.136,-0.733 -0.014,-0.256 -0.021,-0.475 -0.021,-0.659 m -1.175,-0.12 c 0,0.359 0.029,0.725 0.089,1.098 0.06,0.372 0.175,0.706 0.349,1.001 0.173,0.296 0.412,0.539 0.716,0.727 0.305,0.188 0.704,0.281 1.196,0.281 0.236,0 0.508,-0.051 0.812,-0.155 0.306,-0.104 0.604,-0.253 0.896,-0.444 l 0.19,0.467 0.875,0 0,-5.795 -0.793,0 -0.259,0.599 -0.614,-0.372 c -0.238,-0.136 -0.433,-0.233 -0.588,-0.294 -0.155,-0.059 -0.31,-0.09 -0.465,-0.09 -0.446,0 -0.822,0.082 -1.126,0.246 -0.305,0.164 -0.553,0.384 -0.745,0.661 -0.191,0.276 -0.328,0.593 -0.41,0.954 -0.082,0.36 -0.123,0.731 -0.123,1.116"
         style="fill:#7c8c36;fill-opacity:1;fill-rule:nonzero;stroke:none"
         id="path312"
         inkscape:connector-curvature="0" /><path
         d="m 1083.5645,522.8984 c -0.327,0 -0.592,-0.088 -0.791,-0.264 -0.201,-0.175 -0.357,-0.41 -0.472,-0.702 -0.114,-0.292 -0.196,-0.624 -0.246,-0.996 -0.05,-0.372 -0.089,-0.75 -0.116,-1.134 l 3.252,0 c -0.027,0.384 -0.068,0.762 -0.123,1.134 -0.055,0.372 -0.14,0.702 -0.254,0.99 -0.113,0.288 -0.271,0.523 -0.471,0.702 -0.2,0.18 -0.46,0.27 -0.779,0.27 m -1.639,-3.815 c 0,-0.592 0.026,-1.103 0.076,-1.531 0.049,-0.427 0.136,-0.782 0.259,-1.061 0.122,-0.281 0.286,-0.489 0.491,-0.624 0.206,-0.137 0.472,-0.204 0.799,-0.204 0.366,0 0.655,0.084 0.868,0.252 0.214,0.168 0.378,0.403 0.492,0.708 0.114,0.303 0.189,0.666 0.226,1.086 0.035,0.419 0.059,0.877 0.069,1.374 l -3.28,0 z m 1.572,-4.164 c -0.566,0 -1.023,0.106 -1.373,0.318 -0.351,0.212 -0.623,0.508 -0.814,0.888 -0.191,0.379 -0.318,0.834 -0.382,1.362 -0.063,0.527 -0.095,1.103 -0.095,1.727 0,0.609 0.036,1.18 0.109,1.716 0.073,0.536 0.212,1.006 0.417,1.41 0.205,0.405 0.486,0.724 0.847,0.96 0.359,0.237 0.821,0.355 1.385,0.355 0.547,0 0.998,-0.111 1.354,-0.33 0.355,-0.221 0.635,-0.525 0.84,-0.912 0.205,-0.389 0.345,-0.849 0.424,-1.38 0.076,-0.532 0.115,-1.107 0.115,-1.723 0,-0.6 -0.039,-1.166 -0.115,-1.697 -0.079,-0.532 -0.219,-0.998 -0.424,-1.399 -0.205,-0.4 -0.492,-0.715 -0.862,-0.948 -0.368,-0.231 -0.843,-0.347 -1.426,-0.347"
         style="fill:#7c8c36;fill-opacity:1;fill-rule:nonzero;stroke:none"
         id="path316"
         inkscape:connector-curvature="0" /><path
         d="m 1091.5234,515.0869 0,3.708 c 0,0.184 -0.012,0.358 -0.034,0.522 -0.023,0.164 -0.073,0.306 -0.15,0.426 -0.078,0.12 -0.189,0.214 -0.336,0.282 -0.144,0.068 -0.335,0.102 -0.573,0.102 -0.182,0 -0.357,-0.024 -0.526,-0.072 -0.168,-0.048 -0.325,-0.104 -0.471,-0.168 -0.146,-0.064 -0.277,-0.134 -0.396,-0.21 -0.118,-0.076 -0.219,-0.142 -0.301,-0.198 l 0,-4.392 -1.065,0 0,5.76 0.791,0 0.26,-0.6 1.039,0.516 c 0.127,0.064 0.28,0.12 0.457,0.168 0.178,0.048 0.33,0.072 0.458,0.072 0.455,0 0.811,-0.072 1.066,-0.216 0.255,-0.144 0.446,-0.326 0.574,-0.546 0.127,-0.22 0.205,-0.458 0.232,-0.714 0.028,-0.256 0.041,-0.496 0.041,-0.72 l 0,-3.72 -1.066,0 z"
         style="fill:#7c8c36;fill-opacity:1;fill-rule:nonzero;stroke:none"
         id="path320"
         inkscape:connector-curvature="0" /><path
         d="m 1095.0928,520.8467 0,-3.699 c 0,-0.184 0.014,-0.357 0.041,-0.521 0.026,-0.164 0.081,-0.305 0.163,-0.425 0.082,-0.12 0.199,-0.213 0.354,-0.281 0.154,-0.068 0.357,-0.101 0.611,-0.101 0.182,0 0.352,0.021 0.51,0.065 0.158,0.044 0.306,0.1 0.441,0.168 0.137,0.067 0.259,0.138 0.367,0.209 0.11,0.072 0.204,0.14 0.285,0.204 l 0,4.381 1.067,0 0,-5.76 -0.807,0 -0.26,0.6 -0.652,-0.372 c -0.434,-0.247 -0.82,-0.371 -1.154,-0.371 -0.373,0 -0.699,0.055 -0.98,0.168 l 0,-2.425 -1.065,0 0,8.16 1.079,0 z"
         style="fill:#7c8c36;fill-opacity:1;fill-rule:nonzero;stroke:none"
         id="path324"
         inkscape:connector-curvature="0" /><path
         d="m 1101.3105,516.6953 c 0,-0.305 0.098,-0.54 0.293,-0.708 0.195,-0.168 0.499,-0.252 0.908,-0.252 0.347,0 0.67,0.025 0.971,0.077 0.301,0.053 0.609,0.143 0.929,0.271 l 0.327,-0.697 c -0.346,-0.175 -0.692,-0.295 -1.037,-0.359 -0.347,-0.064 -0.739,-0.097 -1.176,-0.097 -0.281,0 -0.563,0.031 -0.84,0.09 -0.277,0.061 -0.527,0.158 -0.751,0.294 -0.224,0.137 -0.403,0.315 -0.54,0.534 -0.137,0.221 -0.205,0.487 -0.205,0.798 0,0.305 0.094,0.59 0.281,0.859 0.186,0.267 0.471,0.461 0.854,0.582 l 0,0.036 -0.711,0.324 c -0.11,0.048 -0.196,0.149 -0.26,0.306 -0.064,0.156 -0.096,0.313 -0.096,0.473 0,0.281 0.065,0.531 0.192,0.75 0.128,0.221 0.3,0.408 0.519,0.565 0.219,0.156 0.471,0.276 0.758,0.36 0.287,0.084 0.594,0.126 0.922,0.126 0.292,0 0.583,-0.026 0.875,-0.078 0.291,-0.053 0.655,-0.166 1.093,-0.343 l -0.342,-0.708 c -0.273,0.112 -0.53,0.187 -0.773,0.223 -0.24,0.036 -0.47,0.053 -0.689,0.053 -0.1,0 -0.228,-0.009 -0.383,-0.03 -0.154,-0.019 -0.308,-0.059 -0.464,-0.119 -0.155,-0.06 -0.286,-0.144 -0.395,-0.253 -0.11,-0.107 -0.164,-0.25 -0.164,-0.426 0,-0.191 0.051,-0.341 0.156,-0.45 0.105,-0.107 0.234,-0.185 0.39,-0.233 0.155,-0.048 0.325,-0.078 0.512,-0.09 0.186,-0.013 0.358,-0.019 0.512,-0.019 l 0.67,0 0,-0.767 -0.766,0 c -0.273,0 -0.509,-0.034 -0.71,-0.103 -0.2,-0.067 -0.364,-0.153 -0.491,-0.258 -0.129,-0.103 -0.222,-0.221 -0.281,-0.353 -0.059,-0.133 -0.088,-0.259 -0.088,-0.378"
         style="fill:#7c8c36;fill-opacity:1;fill-rule:nonzero;stroke:none"
         id="path328"
         inkscape:connector-curvature="0" /><path
         d="m 1109.834,517.9072 c 0,0.735 -0.118,1.308 -0.354,1.716 -0.238,0.408 -0.648,0.612 -1.23,0.612 -0.137,0 -0.291,-0.022 -0.465,-0.066 -0.173,-0.044 -0.332,-0.136 -0.478,-0.277 -0.145,-0.139 -0.268,-0.338 -0.369,-0.593 -0.1,-0.256 -0.15,-0.596 -0.15,-1.02 l 0,-2.076 c 0.21,-0.12 0.462,-0.238 0.759,-0.355 0.295,-0.116 0.594,-0.173 0.894,-0.173 0.301,0 0.544,0.082 0.731,0.246 0.186,0.164 0.328,0.362 0.424,0.593 0.095,0.233 0.159,0.477 0.191,0.733 0.031,0.256 0.047,0.475 0.047,0.66 m 1.148,0.06 c 0,-0.361 -0.045,-0.72 -0.136,-1.081 -0.092,-0.359 -0.241,-0.687 -0.447,-0.983 -0.206,-0.297 -0.475,-0.536 -0.808,-0.721 -0.333,-0.183 -0.747,-0.275 -1.24,-0.275 -0.21,0 -0.455,0.042 -0.734,0.126 -0.279,0.084 -0.554,0.229 -0.829,0.437 l 0,-2.784 -1.065,0 0,5.389 c 0,0.672 0.095,1.201 0.287,1.59 0.191,0.388 0.425,0.68 0.699,0.876 0.273,0.196 0.559,0.319 0.855,0.372 0.297,0.052 0.555,0.078 0.775,0.078 0.483,0 0.891,-0.078 1.225,-0.234 0.334,-0.157 0.606,-0.371 0.815,-0.642 0.211,-0.272 0.363,-0.593 0.459,-0.96 0.096,-0.368 0.144,-0.765 0.144,-1.188"
         style="fill:#7c8c36;fill-opacity:1;fill-rule:nonzero;stroke:none"
         id="path332"
         inkscape:connector-curvature="0" /><path
         d="m 1112.5078,520.1025 -0.725,0.168 0,0.589 1.79,0 0,-5.773 -1.065,0 0,5.016 z"
         style="fill:#7c8c36;fill-opacity:1;fill-rule:nonzero;stroke:none"
         id="path336"
         inkscape:connector-curvature="0" /><path
         d="m 1119.0918,520.8467 1.148,0 -2.322,-5.76 -0.902,0 -2.445,5.76 1.148,0 1.502,-3.792 0.26,-0.768 0.041,0 0.232,0.768 1.338,3.792 z"
         style="fill:#7c8c36;fill-opacity:1;fill-rule:nonzero;stroke:none"
         id="path340"
         inkscape:connector-curvature="0" /><path
         d="m 1122.8145,521.8672 0.984,2.004 1.01,-0.384 -1.392,-1.86 -0.602,0.24 z m -0.983,-3.84 c 0,-0.736 0.102,-1.29 0.307,-1.662 0.205,-0.372 0.572,-0.559 1.1,-0.559 0.137,0 0.275,0.021 0.416,0.061 0.141,0.04 0.275,0.092 0.404,0.155 0.127,0.065 0.245,0.135 0.355,0.211 0.109,0.075 0.21,0.15 0.299,0.222 l 0,3.275 c -0.209,0.12 -0.46,0.239 -0.757,0.355 -0.296,0.116 -0.594,0.174 -0.895,0.174 -0.301,0 -0.535,-0.082 -0.703,-0.246 -0.169,-0.165 -0.292,-0.363 -0.369,-0.594 -0.078,-0.233 -0.123,-0.477 -0.137,-0.733 -0.014,-0.256 -0.02,-0.475 -0.02,-0.659 m -1.175,-0.12 c 0,0.359 0.029,0.726 0.089,1.098 0.059,0.372 0.174,0.706 0.348,1.002 0.173,0.296 0.412,0.538 0.717,0.726 0.305,0.188 0.703,0.281 1.195,0.281 0.237,0 0.508,-0.051 0.813,-0.155 0.306,-0.104 0.603,-0.253 0.894,-0.444 l 0.192,0.468 0.875,0 0,-5.796 -0.793,0 -0.26,0.599 -0.614,-0.372 c -0.237,-0.135 -0.433,-0.233 -0.587,-0.294 -0.155,-0.059 -0.311,-0.09 -0.465,-0.09 -0.446,0 -0.822,0.083 -1.127,0.247 -0.305,0.164 -0.553,0.383 -0.744,0.66 -0.191,0.276 -0.328,0.593 -0.41,0.954 -0.082,0.36 -0.123,0.731 -0.123,1.116"
         style="fill:#7c8c36;fill-opacity:1;fill-rule:nonzero;stroke:none"
         id="path344"
         inkscape:connector-curvature="0" /><path
         d="m 1127.1406,513.8633 0.369,2.412 1.584,0 -1.174,-2.629 -0.779,0.217 z"
         style="fill:#7c8c36;fill-opacity:1;fill-rule:nonzero;stroke:none"
         id="path348"
         inkscape:connector-curvature="0" /><path
         d="m 1070.9141,504.9951 c -0.1,-0.168 -0.193,-0.314 -0.279,-0.438 -0.088,-0.125 -0.181,-0.27 -0.282,-0.438 -0.099,-0.152 -0.209,-0.324 -0.327,-0.517 -0.118,-0.191 -0.227,-0.363 -0.328,-0.515 l -2.131,0 2.254,2.952 -1.953,2.82 2.104,0 1.01,-1.74 0.041,0 c 0.164,0.296 0.329,0.588 0.493,0.876 0.164,0.288 0.332,0.576 0.505,0.864 l 2.145,0 -2.05,-2.748 c 0.347,-0.505 0.693,-1.009 1.038,-1.512 0.346,-0.504 0.693,-1.008 1.039,-1.512 l -2.117,0 c -0.082,0.152 -0.172,0.309 -0.267,0.473 -0.096,0.164 -0.189,0.323 -0.28,0.475 -0.092,0.168 -0.184,0.328 -0.28,0.48 -0.096,0.152 -0.189,0.312 -0.28,0.48 l -0.055,0 z"
         style="fill:#7c8c36;fill-opacity:1;fill-rule:nonzero;stroke:none"
         id="path352"
         inkscape:connector-curvature="0" /><path
         d="m 1075.7695,506.1113 -0.779,0.384 c -0.1,0.048 -0.173,0.141 -0.219,0.282 -0.045,0.14 -0.068,0.258 -0.068,0.354 0,0.295 0.064,0.561 0.191,0.797 0.128,0.237 0.308,0.437 0.54,0.601 0.231,0.163 0.51,0.289 0.833,0.378 0.323,0.088 0.676,0.132 1.059,0.132 0.291,0 0.635,-0.029 1.031,-0.084 0.396,-0.057 0.805,-0.164 1.223,-0.324 l -0.356,-1.165 c -0.281,0.088 -0.541,0.149 -0.777,0.18 -0.238,0.032 -0.438,0.049 -0.602,0.049 -0.109,0 -0.223,-0.009 -0.342,-0.024 -0.118,-0.016 -0.222,-0.042 -0.314,-0.079 -0.091,-0.036 -0.166,-0.089 -0.225,-0.162 -0.059,-0.071 -0.09,-0.16 -0.09,-0.263 0,-0.153 0.083,-0.277 0.247,-0.372 0.164,-0.096 0.365,-0.144 0.601,-0.144 l 0.766,0 0,-1.104 -0.602,0 c -0.41,0 -0.699,-0.065 -0.867,-0.193 -0.169,-0.128 -0.253,-0.283 -0.253,-0.468 0,-0.2 0.089,-0.355 0.267,-0.467 0.177,-0.113 0.402,-0.168 0.675,-0.168 0.237,0 0.506,0.021 0.807,0.066 0.3,0.043 0.582,0.113 0.846,0.21 l 0.383,-1.141 c -0.291,-0.152 -0.659,-0.267 -1.1,-0.347 -0.441,-0.08 -0.877,-0.12 -1.305,-0.12 -0.373,0 -0.723,0.032 -1.051,0.095 -0.328,0.065 -0.615,0.166 -0.861,0.307 -0.246,0.14 -0.441,0.319 -0.588,0.54 -0.145,0.22 -0.218,0.485 -0.218,0.798 0,0.096 0.013,0.21 0.041,0.342 0.027,0.131 0.082,0.263 0.164,0.395 0.082,0.133 0.198,0.259 0.348,0.379 0.151,0.119 0.349,0.22 0.595,0.3 l 0,0.036 z"
         style="fill:#7c8c36;fill-opacity:1;fill-rule:nonzero;stroke:none"
         id="path356"
         inkscape:connector-curvature="0" /><path
         d="m 1081.1992,507.7549 -0.738,0.156 0,0.972 2.746,0 0,-5.796 -2.008,0 0,4.668 z"
         style="fill:#7c8c36;fill-opacity:1;fill-rule:nonzero;stroke:none"
         id="path360"
         inkscape:connector-curvature="0" /><path
         d="m 1088.3555,505.9434 c 0,0.583 -0.058,1.041 -0.172,1.374 -0.113,0.331 -0.352,0.497 -0.717,0.497 -0.3,0 -0.523,-0.115 -0.67,-0.348 -0.144,-0.232 -0.217,-0.624 -0.217,-1.175 l 0,-1.825 c 0.145,-0.08 0.297,-0.145 0.458,-0.198 0.158,-0.052 0.297,-0.078 0.416,-0.078 0.173,0 0.318,0.053 0.437,0.156 0.118,0.105 0.211,0.241 0.279,0.409 0.069,0.167 0.118,0.355 0.145,0.564 0.027,0.207 0.041,0.415 0.041,0.624 m 2.076,0.048 c 0,-0.353 -0.043,-0.708 -0.13,-1.069 -0.087,-0.36 -0.223,-0.688 -0.41,-0.984 -0.186,-0.296 -0.431,-0.535 -0.731,-0.72 -0.3,-0.183 -0.668,-0.275 -1.106,-0.275 -0.201,0 -0.424,0.035 -0.67,0.107 -0.246,0.073 -0.514,0.224 -0.805,0.456 l -0.028,-0.023 0,-2.797 -1.981,0 0,5.317 c 0,0.992 0.258,1.742 0.772,2.25 0.515,0.507 1.232,0.761 2.152,0.761 0.564,0 1.036,-0.084 1.414,-0.252 0.378,-0.168 0.677,-0.389 0.901,-0.666 0.224,-0.275 0.383,-0.597 0.479,-0.965 0.094,-0.369 0.143,-0.749 0.143,-1.14"
         style="fill:#7c8c36;fill-opacity:1;fill-rule:nonzero;stroke:none"
         id="path364"
         inkscape:connector-curvature="0" /><path
         d="m 1094.2734,507.8027 c -0.189,0 -0.344,-0.042 -0.461,-0.126 -0.117,-0.084 -0.208,-0.202 -0.271,-0.353 -0.063,-0.153 -0.106,-0.336 -0.129,-0.553 -0.022,-0.216 -0.034,-0.451 -0.034,-0.708 0,-0.615 0.057,-1.086 0.17,-1.409 0.113,-0.325 0.354,-0.487 0.725,-0.487 0.353,0 0.585,0.157 0.698,0.468 0.113,0.313 0.169,0.78 0.169,1.404 0,0.264 -0.011,0.504 -0.033,0.72 -0.023,0.216 -0.066,0.402 -0.129,0.559 -0.063,0.155 -0.152,0.275 -0.265,0.359 -0.112,0.084 -0.259,0.126 -0.44,0.126 m -0.055,-4.884 c -0.556,0 -1.021,0.084 -1.396,0.252 -0.375,0.168 -0.674,0.39 -0.897,0.666 -0.224,0.277 -0.383,0.596 -0.48,0.96 -0.096,0.364 -0.143,0.746 -0.143,1.147 0,0.367 0.045,0.735 0.137,1.103 0.092,0.368 0.251,0.698 0.479,0.99 0.228,0.292 0.535,0.528 0.917,0.708 0.383,0.18 0.864,0.27 1.438,0.27 0.566,0 1.039,-0.084 1.418,-0.252 0.378,-0.168 0.68,-0.392 0.902,-0.672 0.225,-0.28 0.385,-0.601 0.481,-0.966 0.095,-0.364 0.142,-0.742 0.142,-1.134 0,-0.384 -0.045,-0.76 -0.136,-1.127 -0.091,-0.369 -0.25,-0.697 -0.479,-0.985 -0.228,-0.288 -0.537,-0.52 -0.924,-0.696 -0.388,-0.176 -0.875,-0.264 -1.459,-0.264"
         style="fill:#7c8c36;fill-opacity:1;fill-rule:nonzero;stroke:none"
         id="path368"
         inkscape:connector-curvature="0" /><path
         d="m 1101.9473,507.5273 -1.544,0 0,-4.44 -2.008,0 0,5.784 5.532,0 0,-5.784 -1.98,0 0,4.44 z"
         style="fill:#7c8c36;fill-opacity:1;fill-rule:nonzero;stroke:none"
         id="path372"
         inkscape:connector-curvature="0" /><path
         d="m 1108.0684,507.8027 c -0.189,0 -0.344,-0.042 -0.461,-0.126 -0.117,-0.084 -0.208,-0.202 -0.271,-0.353 -0.063,-0.153 -0.106,-0.336 -0.129,-0.553 -0.022,-0.216 -0.034,-0.451 -0.034,-0.708 0,-0.615 0.057,-1.086 0.17,-1.409 0.113,-0.325 0.354,-0.487 0.725,-0.487 0.353,0 0.585,0.157 0.698,0.468 0.113,0.313 0.169,0.78 0.169,1.404 0,0.264 -0.011,0.504 -0.033,0.72 -0.023,0.216 -0.066,0.402 -0.129,0.559 -0.063,0.155 -0.152,0.275 -0.265,0.359 -0.112,0.084 -0.259,0.126 -0.44,0.126 m -0.055,-4.884 c -0.556,0 -1.021,0.084 -1.396,0.252 -0.375,0.168 -0.674,0.39 -0.897,0.666 -0.224,0.277 -0.383,0.596 -0.48,0.96 -0.096,0.364 -0.143,0.746 -0.143,1.147 0,0.367 0.045,0.735 0.137,1.103 0.092,0.368 0.251,0.698 0.479,0.99 0.228,0.292 0.535,0.528 0.917,0.708 0.383,0.18 0.864,0.27 1.438,0.27 0.566,0 1.039,-0.084 1.418,-0.252 0.378,-0.168 0.68,-0.392 0.902,-0.672 0.225,-0.28 0.385,-0.601 0.481,-0.966 0.095,-0.364 0.142,-0.742 0.142,-1.134 0,-0.384 -0.045,-0.76 -0.136,-1.127 -0.091,-0.369 -0.25,-0.697 -0.479,-0.985 -0.228,-0.288 -0.537,-0.52 -0.924,-0.696 -0.388,-0.176 -0.875,-0.264 -1.459,-0.264"
         style="fill:#7c8c36;fill-opacity:1;fill-rule:nonzero;stroke:none"
         id="path376"
         inkscape:connector-curvature="0" /><path
         d="m 1112.4961,509.8545 1.12,2.305 1.544,-0.601 -1.667,-2.1 -0.997,0.396 z m -0.055,-2.1 -0.738,0.157 0,0.971 2.746,0 0,-5.796 -2.008,0 0,4.668 z"
         style="fill:#7c8c36;fill-opacity:1;fill-rule:nonzero;stroke:none"
         id="path380"
         inkscape:connector-curvature="0" /><path
         d="m 1119.4727,503.0869 0,3.744 c 0,0.072 -0.01,0.158 -0.014,0.258 -0.01,0.1 -0.035,0.196 -0.076,0.288 -0.041,0.092 -0.103,0.172 -0.19,0.24 -0.087,0.068 -0.212,0.102 -0.376,0.102 -0.155,0 -0.319,-0.038 -0.492,-0.114 -0.173,-0.077 -0.323,-0.15 -0.451,-0.222 l 0,-4.296 -1.995,0 0,5.772 1.654,0 0.314,-0.6 0.751,0.432 c 0.146,0.088 0.301,0.162 0.465,0.222 0.164,0.06 0.309,0.09 0.437,0.09 0.446,0 0.799,-0.072 1.059,-0.216 0.26,-0.144 0.455,-0.322 0.587,-0.534 0.132,-0.212 0.216,-0.438 0.253,-0.678 0.036,-0.24 0.054,-0.452 0.054,-0.636 l 0,-3.852 -1.98,0 z"
         style="fill:#7c8c36;fill-opacity:1;fill-rule:nonzero;stroke:none"
         id="path384"
         inkscape:connector-curvature="0" /><path
         d="m 1125.7422,502.9189 c -0.491,0 -0.883,0.06 -1.174,0.18 -0.292,0.12 -0.515,0.276 -0.67,0.468 -0.154,0.192 -0.255,0.41 -0.301,0.654 -0.044,0.244 -0.068,0.494 -0.068,0.75 l 0,2.748 -1.31,0 0,1.14 5.026,0 0,-1.14 -1.722,0 0,-2.616 c 0,-0.352 0.078,-0.584 0.233,-0.696 0.155,-0.112 0.369,-0.168 0.642,-0.168 0.1,0 0.248,0.008 0.444,0.024 0.196,0.016 0.371,0.036 0.526,0.06 0.036,-0.184 0.07,-0.37 0.103,-0.558 0.031,-0.188 0.07,-0.374 0.116,-0.558 -0.146,-0.057 -0.308,-0.102 -0.486,-0.138 -0.177,-0.036 -0.35,-0.066 -0.518,-0.09 -0.169,-0.024 -0.328,-0.039 -0.479,-0.048 -0.149,-0.008 -0.27,-0.012 -0.362,-0.012"
         style="fill:#7c8c36;fill-opacity:1;fill-rule:nonzero;stroke:none"
         id="path388"
         inkscape:connector-curvature="0" /><path
         d="m 1130.1289,506.0332 c 0,-0.578 0.069,-1.023 0.207,-1.337 0.138,-0.313 0.367,-0.47 0.689,-0.47 0.127,0 0.268,0.035 0.419,0.103 0.152,0.068 0.292,0.146 0.42,0.235 l 0,2.926 c -0.137,0.08 -0.289,0.148 -0.454,0.204 -0.166,0.057 -0.316,0.085 -0.455,0.085 -0.165,0 -0.303,-0.051 -0.412,-0.151 -0.111,-0.1 -0.195,-0.233 -0.256,-0.397 -0.058,-0.165 -0.099,-0.351 -0.123,-0.56 -0.023,-0.209 -0.035,-0.421 -0.035,-0.638 m -2.076,-0.055 c 0,0.345 0.031,0.699 0.096,1.063 0.063,0.364 0.179,0.691 0.348,0.984 0.169,0.291 0.396,0.531 0.683,0.72 0.287,0.187 0.658,0.282 1.113,0.282 0.191,0 0.426,-0.055 0.703,-0.162 0.279,-0.108 0.563,-0.278 0.855,-0.511 0.01,0 0.013,0.002 0.013,0.007 0,0 0,0.006 0.014,0.006 l 0.287,0.516 1.694,0 0,-5.796 -1.667,0 -0.287,0.612 -0.463,-0.288 c -0.065,-0.04 -0.145,-0.086 -0.241,-0.139 -0.095,-0.052 -0.195,-0.101 -0.3,-0.149 -0.104,-0.048 -0.213,-0.088 -0.328,-0.12 -0.114,-0.033 -0.215,-0.048 -0.307,-0.048 -0.428,0 -0.783,0.092 -1.066,0.275 -0.282,0.185 -0.509,0.421 -0.682,0.708 -0.174,0.288 -0.294,0.613 -0.363,0.973 -0.068,0.359 -0.102,0.716 -0.102,1.067"
         style="fill:#7c8c36;fill-opacity:1;fill-rule:nonzero;stroke:none"
         id="path392"
         inkscape:connector-curvature="0" /><path
         d="m 1140.0605,506.1113 -0.779,0.384 c -0.1,0.048 -0.172,0.141 -0.218,0.282 -0.046,0.14 -0.068,0.258 -0.068,0.354 0,0.295 0.063,0.561 0.191,0.797 0.128,0.237 0.308,0.437 0.54,0.601 0.231,0.163 0.51,0.289 0.832,0.378 0.324,0.088 0.677,0.132 1.06,0.132 0.291,0 0.635,-0.029 1.031,-0.084 0.395,-0.057 0.804,-0.164 1.223,-0.324 l -0.356,-1.165 c -0.282,0.088 -0.542,0.149 -0.778,0.18 -0.237,0.032 -0.438,0.049 -0.602,0.049 -0.109,0 -0.222,-0.009 -0.342,-0.024 -0.117,-0.016 -0.222,-0.042 -0.313,-0.079 -0.091,-0.036 -0.167,-0.089 -0.226,-0.162 -0.058,-0.071 -0.089,-0.16 -0.089,-0.263 0,-0.153 0.082,-0.277 0.247,-0.372 0.164,-0.096 0.364,-0.144 0.6,-0.144 l 0.766,0 0,-1.104 -0.602,0 c -0.41,0 -0.699,-0.065 -0.867,-0.193 -0.168,-0.128 -0.252,-0.283 -0.252,-0.468 0,-0.2 0.088,-0.355 0.266,-0.467 0.177,-0.113 0.402,-0.168 0.675,-0.168 0.238,0 0.506,0.021 0.807,0.066 0.301,0.043 0.582,0.113 0.847,0.21 l 0.383,-1.141 c -0.292,-0.152 -0.659,-0.267 -1.101,-0.347 -0.441,-0.08 -0.876,-0.12 -1.304,-0.12 -0.374,0 -0.723,0.032 -1.051,0.095 -0.329,0.065 -0.616,0.166 -0.862,0.307 -0.246,0.14 -0.441,0.319 -0.587,0.54 -0.145,0.22 -0.218,0.485 -0.218,0.798 0,0.096 0.013,0.21 0.041,0.342 0.027,0.131 0.082,0.263 0.164,0.395 0.082,0.133 0.198,0.259 0.348,0.379 0.151,0.119 0.348,0.22 0.594,0.3 l 0,0.036 z"
         style="fill:#7c8c36;fill-opacity:1;fill-rule:nonzero;stroke:none"
         id="path396"
         inkscape:connector-curvature="0" /><path
         d="m 1148.5713,507.5273 -1.544,0 0,-4.44 -2.008,0 0,5.784 5.533,0 0,-5.784 -1.981,0 0,4.44 z"
         style="fill:#7c8c36;fill-opacity:1;fill-rule:nonzero;stroke:none"
         id="path400"
         inkscape:connector-curvature="0" /><path
         d="m 1152.3516,507.7549 -0.737,0.156 0,0.972 2.746,0 0,-5.796 -2.009,0 0,4.668 z"
         style="fill:#7c8c36;fill-opacity:1;fill-rule:nonzero;stroke:none"
         id="path404"
         inkscape:connector-curvature="0" /><path
         d="m 1157.5957,506.0508 c 0,-0.616 0.055,-1.084 0.164,-1.404 0.108,-0.32 0.35,-0.48 0.723,-0.48 0.365,0 0.606,0.152 0.724,0.456 0.118,0.304 0.178,0.768 0.178,1.392 0,0.176 -0.01,0.35 -0.027,0.522 -0.019,0.172 -0.062,0.336 -0.13,0.493 -0.069,0.155 -0.171,0.301 -0.308,0.437 -0.136,0.136 -0.328,0.252 -0.573,0.348 -0.319,-0.168 -0.524,-0.39 -0.614,-0.666 -0.092,-0.276 -0.137,-0.642 -0.137,-1.098 m -0.438,2.424 c -0.646,0.352 -0.97,0.808 -0.97,1.368 0,0.336 0.073,0.62 0.219,0.853 0.146,0.231 0.341,0.419 0.587,0.563 0.247,0.145 0.524,0.248 0.833,0.313 0.31,0.063 0.628,0.095 0.957,0.095 0.365,0 0.74,-0.034 1.126,-0.102 0.388,-0.068 0.732,-0.17 1.032,-0.306 l -0.341,-1.116 c -0.265,0.08 -0.542,0.138 -0.833,0.175 -0.292,0.035 -0.533,0.053 -0.725,0.053 -0.547,0 -0.819,-0.18 -0.819,-0.54 0,-0.128 0.063,-0.244 0.192,-0.347 0.128,-0.105 0.287,-0.193 0.48,-0.265 0.32,-0.12 0.634,-0.26 0.94,-0.42 0.306,-0.16 0.58,-0.364 0.823,-0.612 0.242,-0.248 0.437,-0.55 0.583,-0.906 0.147,-0.356 0.219,-0.793 0.219,-1.314 0,-0.392 -0.045,-0.77 -0.136,-1.134 -0.092,-0.364 -0.254,-0.688 -0.487,-0.971 -0.232,-0.285 -0.543,-0.513 -0.93,-0.685 -0.388,-0.172 -0.874,-0.258 -1.458,-0.258 -0.557,0 -1.024,0.078 -1.397,0.235 -0.375,0.155 -0.674,0.367 -0.897,0.635 -0.224,0.268 -0.381,0.578 -0.473,0.93 -0.091,0.353 -0.137,0.728 -0.137,1.128 0,0.265 0.034,0.526 0.103,0.786 0.068,0.26 0.171,0.504 0.307,0.732 0.136,0.228 0.305,0.438 0.505,0.63 0.201,0.192 0.433,0.348 0.697,0.468 l 0,0.012 z"
         style="fill:#7c8c36;fill-opacity:1;fill-rule:nonzero;stroke:none"
         id="path408"
         inkscape:connector-curvature="0" /><path
         d="m 1165.2998,507.8027 c -0.19,0 -0.343,-0.042 -0.461,-0.126 -0.117,-0.084 -0.208,-0.202 -0.27,-0.353 -0.064,-0.153 -0.107,-0.336 -0.129,-0.553 -0.024,-0.216 -0.035,-0.451 -0.035,-0.708 0,-0.615 0.056,-1.086 0.169,-1.409 0.114,-0.325 0.356,-0.487 0.726,-0.487 0.353,0 0.585,0.157 0.698,0.468 0.114,0.313 0.17,0.78 0.17,1.404 0,0.264 -0.012,0.504 -0.035,0.72 -0.021,0.216 -0.064,0.402 -0.129,0.559 -0.062,0.155 -0.15,0.275 -0.264,0.359 -0.113,0.084 -0.259,0.126 -0.44,0.126 m -0.922,2.052 1.12,2.304 1.543,-0.6 -1.666,-2.1 -0.997,0.396 z m 0.867,-6.936 c -0.556,0 -1.022,0.084 -1.396,0.252 -0.374,0.168 -0.673,0.39 -0.898,0.666 -0.222,0.277 -0.382,0.596 -0.478,0.96 -0.096,0.364 -0.145,0.746 -0.145,1.147 0,0.367 0.046,0.735 0.137,1.103 0.092,0.368 0.252,0.698 0.481,0.99 0.227,0.292 0.533,0.528 0.916,0.708 0.384,0.18 0.863,0.27 1.438,0.27 0.565,0 1.038,-0.084 1.417,-0.252 0.379,-0.168 0.68,-0.392 0.904,-0.672 0.224,-0.28 0.383,-0.601 0.479,-0.966 0.096,-0.364 0.144,-0.742 0.144,-1.134 0,-0.384 -0.046,-0.76 -0.136,-1.127 -0.092,-0.369 -0.252,-0.697 -0.481,-0.985 -0.227,-0.288 -0.535,-0.52 -0.924,-0.696 -0.387,-0.176 -0.874,-0.264 -1.458,-0.264"
         style="fill:#7c8c36;fill-opacity:1;fill-rule:nonzero;stroke:none"
         id="path412"
         inkscape:connector-curvature="0" /><path
         d="m 1173.0088,505.9434 c 0,0.583 -0.058,1.041 -0.171,1.374 -0.113,0.331 -0.353,0.497 -0.717,0.497 -0.3,0 -0.523,-0.115 -0.67,-0.348 -0.145,-0.232 -0.218,-0.624 -0.218,-1.175 l 0,-1.825 c 0.146,-0.08 0.298,-0.145 0.458,-0.198 0.159,-0.052 0.297,-0.078 0.417,-0.078 0.172,0 0.318,0.053 0.437,0.156 0.117,0.105 0.211,0.241 0.279,0.409 0.069,0.167 0.117,0.355 0.144,0.564 0.027,0.207 0.041,0.415 0.041,0.624 m 2.076,0.048 c 0,-0.353 -0.043,-0.708 -0.13,-1.069 -0.086,-0.36 -0.222,-0.688 -0.41,-0.984 -0.185,-0.296 -0.43,-0.535 -0.73,-0.72 -0.301,-0.183 -0.669,-0.275 -1.107,-0.275 -0.2,0 -0.423,0.035 -0.669,0.107 -0.246,0.073 -0.515,0.224 -0.806,0.456 l -0.028,-0.023 0,-2.797 -1.98,0 0,5.317 c 0,0.992 0.258,1.742 0.771,2.25 0.515,0.507 1.233,0.761 2.153,0.761 0.564,0 1.035,-0.084 1.414,-0.252 0.377,-0.168 0.677,-0.389 0.9,-0.666 0.224,-0.275 0.383,-0.597 0.479,-0.965 0.095,-0.369 0.143,-0.749 0.143,-1.14"
         style="fill:#7c8c36;fill-opacity:1;fill-rule:nonzero;stroke:none"
         id="path416"
         inkscape:connector-curvature="0" /><path
         d="m 1179.8008,507.5273 -1.544,0 0,-4.44 -2.008,0 0,5.784 5.532,0 0,-5.784 -1.98,0 0,4.44 z"
         style="fill:#7c8c36;fill-opacity:1;fill-rule:nonzero;stroke:none"
         id="path420"
         inkscape:connector-curvature="0" /><path
         d="m 1183.582,507.7549 -0.738,0.156 0,0.972 2.746,0 0,-5.796 -2.008,0 0,4.668 z"
         style="fill:#7c8c36;fill-opacity:1;fill-rule:nonzero;stroke:none"
         id="path424"
         inkscape:connector-curvature="0" /><path
         d="m 1188.8633,506.0332 c 0,-0.578 0.068,-1.023 0.206,-1.337 0.138,-0.313 0.367,-0.47 0.689,-0.47 0.128,0 0.267,0.035 0.419,0.103 0.152,0.068 0.291,0.146 0.42,0.235 l 0,2.926 c -0.137,0.08 -0.289,0.148 -0.455,0.204 -0.164,0.057 -0.316,0.085 -0.453,0.085 -0.166,0 -0.304,-0.051 -0.414,-0.151 -0.109,-0.1 -0.195,-0.233 -0.254,-0.397 -0.06,-0.165 -0.101,-0.351 -0.125,-0.56 -0.022,-0.209 -0.033,-0.421 -0.033,-0.638 m -2.077,-0.055 c 0,0.345 0.032,0.699 0.096,1.063 0.063,0.364 0.179,0.691 0.348,0.984 0.168,0.291 0.397,0.531 0.683,0.72 0.287,0.187 0.658,0.282 1.114,0.282 0.19,0 0.425,-0.055 0.703,-0.162 0.278,-0.108 0.563,-0.278 0.854,-0.511 0.01,0 0.013,0.002 0.013,0.007 0,0 0,0.006 0.014,0.006 l 0.287,0.516 1.694,0 0,-5.796 -1.666,0 -0.288,0.612 -0.464,-0.288 c -0.064,-0.04 -0.143,-0.086 -0.239,-0.139 -0.095,-0.052 -0.196,-0.101 -0.301,-0.149 -0.105,-0.048 -0.214,-0.088 -0.328,-0.12 -0.113,-0.033 -0.216,-0.048 -0.306,-0.048 -0.429,0 -0.784,0.092 -1.067,0.275 -0.282,0.185 -0.509,0.421 -0.682,0.708 -0.173,0.288 -0.294,0.613 -0.363,0.973 -0.068,0.359 -0.102,0.716 -0.102,1.067"
         style="fill:#7c8c36;fill-opacity:1;fill-rule:nonzero;stroke:none"
         id="path428"
         inkscape:connector-curvature="0" /><path
         d="m 1069.457,494.5469 c 0,-0.387 0.03,-0.771 0.092,-1.155 0.06,-0.383 0.152,-0.76 0.278,-1.13 0.125,-0.37 0.288,-0.727 0.489,-1.069 0.202,-0.344 0.443,-0.669 0.723,-0.976 l -0.592,-0.32 c -0.144,0.127 -0.326,0.33 -0.547,0.61 -0.219,0.28 -0.433,0.622 -0.642,1.025 -0.209,0.404 -0.387,0.86 -0.535,1.37 -0.149,0.51 -0.222,1.058 -0.222,1.645 0,0.453 0.048,0.884 0.142,1.29 0.095,0.406 0.214,0.785 0.359,1.135 0.144,0.35 0.305,0.667 0.483,0.95 0.179,0.283 0.348,0.53 0.507,0.74 0.159,0.21 0.302,0.376 0.427,0.5 0.126,0.123 0.211,0.198 0.257,0.225 l 0.511,-0.29 c -0.311,-0.394 -0.574,-0.755 -0.791,-1.085 -0.216,-0.33 -0.394,-0.667 -0.535,-1.01 -0.14,-0.344 -0.243,-0.712 -0.307,-1.105 -0.065,-0.393 -0.097,-0.843 -0.097,-1.35"
         style="fill:#231f20;fill-opacity:1;fill-rule:nonzero;stroke:none"
         id="path432"
         inkscape:connector-curvature="0" /><path
         d="m 1074.1953,490.0869 -0.887,0 0,2.23 -1.685,3.98 -0.387,0.09 0,0.5 1.081,0 1.161,-2.91 0.308,-0.89 0.022,0 0.25,0.88 1.06,2.92 0.932,0 -1.855,-4.68 0,-2.12 z"
         style="fill:#231f20;fill-opacity:1;fill-rule:nonzero;stroke:none"
         id="path436"
         inkscape:connector-curvature="0" /><path
         d="m 1079.9238,492.0371 c -0.175,0 -0.313,0.019 -0.416,0.055 -0.102,0.037 -0.186,0.085 -0.25,0.145 -0.064,0.06 -0.114,0.13 -0.148,0.21 -0.034,0.08 -0.067,0.163 -0.097,0.25 l -0.671,2.08 -0.251,0.94 -0.034,0 -0.342,-0.93 -1.115,-2.7 -0.889,0 1.537,3.639 0.604,0.551 -0.535,1.75 c -0.045,0.154 -0.112,0.284 -0.2,0.395 -0.087,0.11 -0.244,0.165 -0.472,0.165 -0.091,0 -0.194,-0.01 -0.307,-0.03 l -0.148,0.54 c 0.113,0.04 0.228,0.072 0.341,0.095 0.114,0.023 0.25,0.034 0.411,0.034 0.211,0 0.386,-0.023 0.523,-0.069 0.137,-0.047 0.25,-0.113 0.342,-0.2 0.09,-0.087 0.166,-0.191 0.226,-0.316 0.061,-0.123 0.115,-0.261 0.161,-0.415 l 1.638,-5.269 c 0.039,-0.107 0.09,-0.2 0.155,-0.28 0.064,-0.08 0.171,-0.127 0.324,-0.14 l 0,-0.45 c -0.045,-0.014 -0.105,-0.026 -0.176,-0.035 -0.072,-0.01 -0.143,-0.015 -0.211,-0.015"
         style="fill:#231f20;fill-opacity:1;fill-rule:nonzero;stroke:none"
         id="path440"
         inkscape:connector-curvature="0" /><path
         d="m 1082.9492,491.9473 c -0.387,0 -0.711,0.05 -0.973,0.149 -0.262,0.101 -0.472,0.229 -0.632,0.385 -0.16,0.157 -0.274,0.332 -0.342,0.526 -0.069,0.193 -0.102,0.379 -0.102,0.56 l 0,3.319 0.888,0 0,-3.33 c 0,-0.106 0.022,-0.216 0.068,-0.33 0.046,-0.113 0.118,-0.217 0.216,-0.314 0.099,-0.097 0.223,-0.177 0.37,-0.24 0.148,-0.064 0.321,-0.095 0.519,-0.095 0.113,0 0.24,0.016 0.381,0.05 0.14,0.033 0.273,0.09 0.398,0.17 0.125,0.08 0.23,0.19 0.313,0.33 0.084,0.139 0.125,0.32 0.125,0.54 l 0,3.219 0.888,0 0,-3.189 c 0,-0.4 -0.08,-0.717 -0.238,-0.95 -0.16,-0.234 -0.352,-0.408 -0.576,-0.526 -0.223,-0.116 -0.457,-0.191 -0.699,-0.224 -0.244,-0.033 -0.445,-0.05 -0.604,-0.05"
         style="fill:#231f20;fill-opacity:1;fill-rule:nonzero;stroke:none"
         id="path444"
         inkscape:connector-curvature="0" /><path
         d="m 1090.4629,496.8867 -2.333,-2.22 2.345,-2.58 -1.104,0 -2.152,2.45 0,-2.45 -0.888,0 0,4.8 0.888,0 0,-2.13 2.197,2.13 1.047,0 z"
         style="fill:#231f20;fill-opacity:1;fill-rule:nonzero;stroke:none"
         id="path448"
         inkscape:connector-curvature="0" /><path
         d="m 1091.6152,497.7373 0.82,1.67 0.842,-0.32 -1.16,-1.55 -0.502,0.2 z m 0.114,-1.471 -0.602,0.141 0,0.489 1.49,0 0,-4.809 -0.888,0 0,4.179 z"
         style="fill:#231f20;fill-opacity:1;fill-rule:nonzero;stroke:none"
         id="path452"
         inkscape:connector-curvature="0" /><path
         d="m 1096.0039,496.2568 c -0.25,0 -0.459,-0.049 -0.625,-0.145 -0.168,-0.096 -0.303,-0.225 -0.404,-0.385 -0.104,-0.159 -0.175,-0.347 -0.217,-0.56 -0.041,-0.214 -0.063,-0.44 -0.063,-0.68 0,-0.28 0.022,-0.535 0.063,-0.765 0.042,-0.23 0.113,-0.43 0.217,-0.6 0.101,-0.17 0.236,-0.302 0.404,-0.395 0.166,-0.093 0.379,-0.14 0.637,-0.14 0.25,0 0.457,0.045 0.621,0.135 0.162,0.09 0.295,0.219 0.398,0.385 0.102,0.167 0.174,0.363 0.216,0.59 0.042,0.227 0.063,0.48 0.063,0.76 0,0.213 -0.021,0.416 -0.063,0.611 -0.042,0.192 -0.114,0.369 -0.216,0.529 -0.103,0.16 -0.238,0.297 -0.404,0.41 -0.168,0.113 -0.376,0.196 -0.627,0.25 m 1.561,-0.02 c 0.257,-0.2 0.439,-0.459 0.545,-0.78 0.107,-0.32 0.16,-0.657 0.16,-1.01 0,-0.34 -0.043,-0.662 -0.131,-0.965 -0.087,-0.303 -0.226,-0.569 -0.415,-0.795 -0.191,-0.227 -0.431,-0.407 -0.724,-0.54 -0.291,-0.133 -0.646,-0.2 -1.064,-0.2 -0.387,0 -0.719,0.064 -0.996,0.19 -0.277,0.127 -0.504,0.3 -0.683,0.52 -0.179,0.22 -0.31,0.478 -0.393,0.775 -0.083,0.297 -0.125,0.618 -0.125,0.965 0,0.334 0.044,0.652 0.131,0.955 0.087,0.303 0.224,0.568 0.409,0.795 0.187,0.226 0.426,0.407 0.718,0.54 0.292,0.133 0.644,0.2 1.053,0.2 l 2.561,0 0,-0.63 -1.024,0 -0.022,-0.02 z"
         style="fill:#231f20;fill-opacity:1;fill-rule:nonzero;stroke:none"
         id="path456"
         inkscape:connector-curvature="0" /><path
         d="m 1100.334,496.8867 0,-3.082 c 0,-0.153 0.012,-0.298 0.033,-0.435 0.024,-0.135 0.069,-0.254 0.137,-0.353 0.068,-0.101 0.166,-0.179 0.295,-0.235 0.128,-0.057 0.298,-0.084 0.51,-0.084 0.15,0 0.292,0.017 0.423,0.054 0.133,0.036 0.256,0.083 0.37,0.14 0.113,0.057 0.214,0.114 0.304,0.175 0.092,0.059 0.171,0.116 0.239,0.169 l 0,3.651 0.888,0 0,-4.8 -0.672,0 -0.216,0.5 -0.543,-0.309 c -0.364,-0.207 -0.684,-0.311 -0.963,-0.311 -0.311,0 -0.582,0.047 -0.817,0.14 l 0,-2.02 -0.887,0 0,6.8 0.899,0 z"
         style="fill:#231f20;fill-opacity:1;fill-rule:nonzero;stroke:none"
         id="path460"
         inkscape:connector-curvature="0" /><path
         d="m 1105.5059,494.5371 c 0,-0.613 0.086,-1.075 0.257,-1.385 0.171,-0.31 0.475,-0.466 0.917,-0.466 0.113,0 0.228,0.017 0.347,0.051 0.118,0.033 0.229,0.076 0.335,0.13 0.107,0.053 0.205,0.111 0.296,0.175 0.091,0.063 0.174,0.125 0.25,0.184 l 0,2.731 c -0.173,0.1 -0.384,0.198 -0.631,0.295 -0.247,0.097 -0.496,0.144 -0.746,0.144 -0.25,0 -0.445,-0.068 -0.586,-0.204 -0.14,-0.136 -0.244,-0.301 -0.307,-0.495 -0.066,-0.193 -0.103,-0.397 -0.114,-0.61 -0.012,-0.214 -0.018,-0.397 -0.018,-0.55 m -0.979,-0.101 c 0,0.301 0.026,0.606 0.075,0.915 0.049,0.311 0.146,0.589 0.29,0.835 0.144,0.247 0.343,0.449 0.598,0.606 0.254,0.156 0.586,0.235 0.996,0.235 0.198,0 0.422,-0.044 0.677,-0.131 0.254,-0.086 0.503,-0.21 0.745,-0.369 l 0.161,0.39 0.728,0 0,-4.83 -0.66,0 -0.217,0.5 -0.512,-0.31 c -0.197,-0.114 -0.361,-0.195 -0.49,-0.245 -0.129,-0.051 -0.258,-0.075 -0.387,-0.075 -0.372,0 -0.685,0.068 -0.939,0.205 -0.254,0.137 -0.461,0.319 -0.62,0.55 -0.159,0.23 -0.274,0.495 -0.342,0.795 -0.068,0.3 -0.103,0.61 -0.103,0.929"
         style="fill:#231f20;fill-opacity:1;fill-rule:nonzero;stroke:none"
         id="path464"
         inkscape:connector-curvature="0" /><path
         d="m 1111.9648,491.9473 c -0.266,0 -0.482,0.028 -0.651,0.085 -0.169,0.057 -0.3,0.142 -0.394,0.255 -0.094,0.113 -0.157,0.251 -0.191,0.415 -0.034,0.163 -0.051,0.354 -0.051,0.575 l 0,2.98 -1.138,0 0,0.629 3.518,0 0,-0.629 -1.491,0 0,-2.829 c 0,-0.3 0.046,-0.51 0.142,-0.63 0.094,-0.122 0.252,-0.181 0.473,-0.181 0.137,0 0.293,0.008 0.471,0.024 0.179,0.017 0.336,0.042 0.473,0.076 l 0.125,-0.543 c -0.136,-0.06 -0.272,-0.104 -0.409,-0.134 -0.137,-0.03 -0.262,-0.051 -0.376,-0.064 -0.114,-0.013 -0.215,-0.021 -0.302,-0.024 -0.088,-0.004 -0.15,-0.005 -0.187,-0.005 l -0.012,0 z"
         style="fill:#231f20;fill-opacity:1;fill-rule:nonzero;stroke:none"
         id="path468"
         inkscape:connector-curvature="0" /><path
         d="m 1114.6738,494.5371 c 0,-0.613 0.086,-1.075 0.256,-1.385 0.172,-0.31 0.476,-0.466 0.917,-0.466 0.114,0 0.229,0.017 0.347,0.051 0.118,0.033 0.23,0.076 0.335,0.13 0.107,0.053 0.206,0.111 0.297,0.175 0.09,0.063 0.174,0.125 0.25,0.184 l 0,2.731 c -0.174,0.1 -0.384,0.198 -0.631,0.295 -0.248,0.097 -0.496,0.144 -0.746,0.144 -0.251,0 -0.446,-0.068 -0.587,-0.204 -0.14,-0.136 -0.243,-0.301 -0.307,-0.495 -0.065,-0.193 -0.102,-0.397 -0.113,-0.61 -0.012,-0.214 -0.018,-0.397 -0.018,-0.55 m -0.979,-0.101 c 0,0.301 0.025,0.606 0.075,0.915 0.049,0.311 0.145,0.589 0.289,0.835 0.144,0.247 0.344,0.449 0.598,0.606 0.254,0.156 0.586,0.235 0.996,0.235 0.198,0 0.423,-0.044 0.677,-0.131 0.254,-0.086 0.503,-0.21 0.746,-0.369 l 0.16,0.39 0.728,0 0,-4.83 -0.66,0 -0.216,0.5 -0.513,-0.31 c -0.197,-0.114 -0.36,-0.195 -0.489,-0.245 -0.129,-0.051 -0.258,-0.075 -0.387,-0.075 -0.373,0 -0.685,0.068 -0.939,0.205 -0.255,0.137 -0.461,0.319 -0.621,0.55 -0.159,0.23 -0.274,0.495 -0.342,0.795 -0.068,0.3 -0.102,0.61 -0.102,0.929"
         style="fill:#231f20;fill-opacity:1;fill-rule:nonzero;stroke:none"
         id="path472"
         inkscape:connector-curvature="0" /><path
         d="m 1119.1348,491.0674 0.307,2.01 1.32,0 -0.979,-2.191 -0.648,0.181 z"
         style="fill:#231f20;fill-opacity:1;fill-rule:nonzero;stroke:none"
         id="path476"
         inkscape:connector-curvature="0" /><path
         d="m 1125.8506,496.8867 0,-3.082 c 0,-0.153 0.011,-0.298 0.034,-0.435 0.023,-0.135 0.069,-0.254 0.136,-0.353 0.067,-0.101 0.166,-0.179 0.294,-0.235 0.129,-0.057 0.299,-0.084 0.51,-0.084 0.151,0 0.293,0.017 0.425,0.054 0.132,0.036 0.254,0.083 0.368,0.14 0.113,0.057 0.215,0.114 0.306,0.175 0.09,0.059 0.17,0.116 0.239,0.169 l 0,3.651 0.886,0 0,-4.8 -0.671,0 -0.215,0.5 -0.545,-0.309 c -0.362,-0.207 -0.684,-0.311 -0.963,-0.311 -0.309,0 -0.581,0.047 -0.815,0.14 l 0,-2.02 -0.888,0 0,6.8 0.899,0 z"
         style="fill:#231f20;fill-opacity:1;fill-rule:nonzero;stroke:none"
         id="path480"
         inkscape:connector-curvature="0" /><path
         d="m 1131.0234,494.5371 c 0,-0.613 0.085,-1.075 0.256,-1.385 0.171,-0.31 0.476,-0.466 0.916,-0.466 0.114,0 0.23,0.017 0.348,0.051 0.117,0.033 0.229,0.076 0.335,0.13 0.106,0.053 0.206,0.111 0.296,0.175 0.091,0.063 0.175,0.125 0.251,0.184 l 0,2.731 c -0.175,0.1 -0.385,0.198 -0.632,0.295 -0.247,0.097 -0.495,0.144 -0.746,0.144 -0.251,0 -0.446,-0.068 -0.586,-0.204 -0.141,-0.136 -0.243,-0.301 -0.307,-0.495 -0.065,-0.193 -0.103,-0.397 -0.114,-0.61 -0.011,-0.214 -0.017,-0.397 -0.017,-0.55 m -0.979,-0.101 c 0,0.301 0.024,0.606 0.074,0.915 0.05,0.311 0.145,0.589 0.29,0.835 0.144,0.247 0.344,0.449 0.597,0.606 0.254,0.156 0.586,0.235 0.997,0.235 0.197,0 0.423,-0.044 0.677,-0.131 0.254,-0.086 0.502,-0.21 0.746,-0.369 l 0.159,0.39 0.728,0 0,-4.83 -0.66,0 -0.216,0.5 -0.513,-0.31 c -0.197,-0.114 -0.359,-0.195 -0.489,-0.245 -0.129,-0.051 -0.258,-0.075 -0.387,-0.075 -0.372,0 -0.684,0.068 -0.939,0.205 -0.255,0.137 -0.461,0.319 -0.62,0.55 -0.16,0.23 -0.274,0.495 -0.342,0.795 -0.068,0.3 -0.102,0.61 -0.102,0.929"
         style="fill:#231f20;fill-opacity:1;fill-rule:nonzero;stroke:none"
         id="path484"
         inkscape:connector-curvature="0" /><path
         d="m 1138.8945,494.4365 c 0,0.613 -0.1,1.091 -0.297,1.431 -0.197,0.34 -0.539,0.509 -1.023,0.509 -0.115,0 -0.244,-0.018 -0.388,-0.054 -0.144,-0.037 -0.276,-0.115 -0.398,-0.231 -0.123,-0.116 -0.224,-0.281 -0.308,-0.495 -0.083,-0.213 -0.125,-0.496 -0.125,-0.849 l 0,-1.731 c 0.175,-0.1 0.385,-0.198 0.632,-0.295 0.247,-0.097 0.495,-0.144 0.745,-0.144 0.251,0 0.454,0.068 0.609,0.205 0.157,0.136 0.274,0.3 0.354,0.495 0.08,0.192 0.133,0.396 0.159,0.609 0.026,0.214 0.04,0.397 0.04,0.55 m 0.956,0.051 c 0,-0.301 -0.038,-0.601 -0.114,-0.901 -0.076,-0.299 -0.199,-0.573 -0.371,-0.82 -0.172,-0.246 -0.397,-0.446 -0.674,-0.6 -0.278,-0.153 -0.623,-0.23 -1.033,-0.23 -0.176,0 -0.379,0.035 -0.612,0.105 -0.232,0.071 -0.463,0.192 -0.691,0.366 l 0,-2.321 -0.888,0 0,4.491 c 0,0.559 0.079,1.001 0.239,1.325 0.161,0.323 0.354,0.566 0.583,0.729 0.228,0.163 0.466,0.267 0.713,0.311 0.247,0.043 0.462,0.064 0.645,0.064 0.403,0 0.744,-0.064 1.022,-0.195 0.278,-0.13 0.504,-0.308 0.678,-0.534 0.176,-0.228 0.303,-0.494 0.383,-0.801 0.08,-0.307 0.12,-0.637 0.12,-0.989"
         style="fill:#231f20;fill-opacity:1;fill-rule:nonzero;stroke:none"
         id="path488"
         inkscape:connector-curvature="0" /><path
         d="m 1141.7285,496.8867 0,-3.082 c 0,-0.153 0.012,-0.298 0.034,-0.435 0.023,-0.135 0.069,-0.254 0.136,-0.353 0.068,-0.101 0.166,-0.179 0.295,-0.235 0.129,-0.057 0.299,-0.084 0.51,-0.084 0.15,0 0.293,0.017 0.424,0.054 0.132,0.036 0.255,0.083 0.369,0.14 0.113,0.057 0.214,0.114 0.305,0.175 0.091,0.059 0.171,0.116 0.239,0.169 l 0,3.651 0.887,0 0,-4.8 -0.672,0 -0.215,0.5 -0.544,-0.309 c -0.363,-0.207 -0.684,-0.311 -0.963,-0.311 -0.31,0 -0.582,0.047 -0.816,0.14 l 0,-2.02 -0.887,0 0,6.8 0.898,0 z"
         style="fill:#231f20;fill-opacity:1;fill-rule:nonzero;stroke:none"
         id="path492"
         inkscape:connector-curvature="0" /><path
         d="m 1146.9424,493.4268 c 0,-0.253 0.081,-0.45 0.245,-0.59 0.162,-0.139 0.415,-0.21 0.757,-0.21 0.288,0 0.558,0.022 0.808,0.066 0.251,0.043 0.508,0.118 0.774,0.224 l 0.273,-0.58 c -0.288,-0.146 -0.577,-0.247 -0.865,-0.3 -0.288,-0.053 -0.614,-0.08 -0.979,-0.08 -0.235,0 -0.469,0.025 -0.7,0.075 -0.232,0.05 -0.441,0.131 -0.626,0.246 -0.186,0.113 -0.336,0.26 -0.45,0.444 -0.113,0.184 -0.171,0.405 -0.171,0.665 0,0.254 0.078,0.492 0.234,0.715 0.155,0.223 0.392,0.386 0.711,0.485 l 0,0.03 -0.592,0.27 c -0.091,0.04 -0.163,0.125 -0.216,0.255 -0.054,0.13 -0.079,0.262 -0.079,0.395 0,0.234 0.053,0.442 0.158,0.625 0.108,0.183 0.251,0.34 0.434,0.47 0.181,0.13 0.392,0.231 0.631,0.3 0.24,0.07 0.496,0.105 0.769,0.105 0.242,0 0.485,-0.021 0.729,-0.065 0.242,-0.043 0.546,-0.139 0.91,-0.285 l -0.285,-0.59 c -0.227,0.094 -0.442,0.155 -0.643,0.185 -0.201,0.03 -0.392,0.045 -0.574,0.045 -0.084,0 -0.19,-0.008 -0.319,-0.025 -0.13,-0.017 -0.259,-0.05 -0.388,-0.1 -0.129,-0.049 -0.238,-0.12 -0.33,-0.21 -0.091,-0.089 -0.137,-0.209 -0.137,-0.355 0,-0.16 0.044,-0.285 0.131,-0.375 0.088,-0.09 0.195,-0.155 0.325,-0.194 0.129,-0.04 0.271,-0.066 0.427,-0.076 0.155,-0.01 0.298,-0.015 0.427,-0.015 l 0.557,0 0,-0.64 -0.636,0 c -0.229,0 -0.426,-0.028 -0.592,-0.085 -0.168,-0.056 -0.305,-0.129 -0.41,-0.215 -0.107,-0.087 -0.185,-0.185 -0.235,-0.295 -0.049,-0.11 -0.073,-0.214 -0.073,-0.315"
         style="fill:#231f20;fill-opacity:1;fill-rule:nonzero;stroke:none"
         id="path496"
         inkscape:connector-curvature="0" /><path
         d="m 1154.542,492.0371 c -0.175,0 -0.313,0.019 -0.415,0.055 -0.103,0.037 -0.187,0.085 -0.25,0.145 -0.065,0.06 -0.115,0.13 -0.148,0.21 -0.035,0.08 -0.067,0.163 -0.098,0.25 l -0.671,2.08 -0.251,0.94 -0.033,0 -0.342,-0.93 -1.115,-2.7 -0.889,0 1.537,3.639 0.604,0.551 -0.535,1.75 c -0.046,0.154 -0.113,0.284 -0.2,0.395 -0.088,0.11 -0.245,0.165 -0.472,0.165 -0.092,0 -0.194,-0.01 -0.308,-0.03 l -0.147,0.54 c 0.113,0.04 0.227,0.072 0.341,0.095 0.114,0.023 0.25,0.034 0.41,0.034 0.211,0 0.387,-0.023 0.524,-0.069 0.136,-0.047 0.25,-0.113 0.341,-0.2 0.091,-0.087 0.167,-0.191 0.227,-0.316 0.061,-0.123 0.114,-0.261 0.161,-0.415 l 1.638,-5.269 c 0.038,-0.107 0.089,-0.2 0.154,-0.28 0.065,-0.08 0.172,-0.127 0.325,-0.14 l 0,-0.45 c -0.046,-0.014 -0.106,-0.026 -0.177,-0.035 -0.072,-0.01 -0.143,-0.015 -0.211,-0.015"
         style="fill:#231f20;fill-opacity:1;fill-rule:nonzero;stroke:none"
         id="path500"
         inkscape:connector-curvature="0" /><path
         d="m 1157.1074,497.7373 0.819,1.67 0.843,-0.32 -1.161,-1.55 -0.501,0.2 z m -0.82,-3.2 c 0,-0.613 0.086,-1.075 0.257,-1.385 0.17,-0.311 0.475,-0.466 0.916,-0.466 0.114,0 0.229,0.017 0.347,0.051 0.117,0.033 0.23,0.076 0.335,0.13 0.108,0.053 0.205,0.111 0.297,0.175 0.091,0.063 0.174,0.125 0.25,0.184 l 0,2.731 c -0.174,0.099 -0.385,0.198 -0.632,0.295 -0.247,0.096 -0.495,0.144 -0.745,0.144 -0.251,0 -0.446,-0.068 -0.586,-0.204 -0.14,-0.137 -0.244,-0.302 -0.308,-0.495 -0.065,-0.193 -0.102,-0.398 -0.114,-0.61 -0.011,-0.214 -0.017,-0.397 -0.017,-0.55 m -0.979,-0.101 c 0,0.301 0.025,0.606 0.074,0.915 0.049,0.311 0.147,0.589 0.29,0.835 0.144,0.247 0.343,0.448 0.598,0.606 0.255,0.156 0.587,0.235 0.996,0.235 0.197,0 0.423,-0.044 0.677,-0.131 0.255,-0.086 0.504,-0.21 0.746,-0.369 l 0.16,0.39 0.729,0 0,-4.83 -0.66,0 -0.217,0.5 -0.512,-0.31 c -0.198,-0.114 -0.361,-0.195 -0.49,-0.245 -0.129,-0.051 -0.258,-0.075 -0.387,-0.075 -0.372,0 -0.685,0.068 -0.939,0.205 -0.254,0.137 -0.461,0.319 -0.621,0.55 -0.159,0.23 -0.273,0.495 -0.341,0.795 -0.069,0.299 -0.103,0.61 -0.103,0.929"
         style="fill:#231f20;fill-opacity:1;fill-rule:nonzero;stroke:none"
         id="path504"
         inkscape:connector-curvature="0" /><path
         d="m 1161.4492,494.5166 c 0,-0.279 0.017,-0.538 0.051,-0.774 0.034,-0.238 0.097,-0.441 0.193,-0.611 0.095,-0.17 0.224,-0.303 0.387,-0.4 0.164,-0.097 0.374,-0.145 0.633,-0.145 0.492,0 0.832,0.168 1.017,0.505 0.187,0.337 0.28,0.802 0.28,1.396 0,0.186 -0.01,0.375 -0.029,0.564 -0.018,0.191 -0.073,0.37 -0.165,0.54 -0.091,0.17 -0.229,0.328 -0.416,0.476 -0.185,0.146 -0.441,0.269 -0.767,0.369 -0.244,-0.113 -0.443,-0.243 -0.598,-0.39 -0.156,-0.146 -0.277,-0.301 -0.365,-0.465 -0.087,-0.163 -0.146,-0.335 -0.176,-0.514 -0.03,-0.181 -0.045,-0.364 -0.045,-0.551 m 0.478,2.24 c -0.251,0.12 -0.445,0.265 -0.582,0.436 -0.136,0.17 -0.205,0.408 -0.205,0.715 0,0.246 0.055,0.455 0.163,0.625 0.107,0.17 0.25,0.306 0.426,0.41 0.177,0.102 0.376,0.178 0.596,0.224 0.22,0.047 0.444,0.071 0.671,0.071 0.289,0 0.56,-0.024 0.814,-0.071 0.254,-0.046 0.443,-0.096 0.565,-0.15 l -0.205,-0.59 c -0.168,0.054 -0.354,0.094 -0.559,0.12 -0.205,0.027 -0.387,0.04 -0.547,0.04 -0.689,0 -1.035,-0.226 -1.035,-0.679 0,-0.174 0.066,-0.321 0.198,-0.441 0.132,-0.12 0.286,-0.207 0.46,-0.26 0.43,-0.139 0.793,-0.294 1.088,-0.464 0.295,-0.17 0.529,-0.366 0.703,-0.585 0.174,-0.221 0.299,-0.469 0.374,-0.745 0.076,-0.278 0.115,-0.589 0.115,-0.936 0,-0.354 -0.043,-0.685 -0.126,-0.995 -0.083,-0.31 -0.216,-0.578 -0.399,-0.805 -0.182,-0.226 -0.419,-0.405 -0.712,-0.535 -0.291,-0.13 -0.646,-0.194 -1.064,-0.194 -0.395,0 -0.731,0.063 -1.007,0.189 -0.277,0.127 -0.501,0.302 -0.672,0.526 -0.171,0.222 -0.296,0.484 -0.376,0.785 -0.079,0.299 -0.119,0.626 -0.119,0.979 0,0.26 0.032,0.51 0.097,0.75 0.064,0.24 0.157,0.464 0.279,0.67 0.121,0.207 0.27,0.385 0.45,0.535 0.178,0.151 0.381,0.265 0.609,0.345 l 0,0.03 z"
         style="fill:#231f20;fill-opacity:1;fill-rule:nonzero;stroke:none"
         id="path508"
         inkscape:connector-curvature="0" /><path
         d="m 1166.7412,493.4268 c 0,-0.253 0.081,-0.45 0.245,-0.59 0.162,-0.139 0.415,-0.21 0.757,-0.21 0.288,0 0.558,0.022 0.808,0.066 0.251,0.043 0.508,0.118 0.774,0.224 l 0.273,-0.58 c -0.288,-0.146 -0.577,-0.247 -0.865,-0.3 -0.288,-0.053 -0.614,-0.08 -0.979,-0.08 -0.235,0 -0.469,0.025 -0.7,0.075 -0.232,0.05 -0.441,0.131 -0.626,0.246 -0.186,0.113 -0.336,0.26 -0.45,0.444 -0.113,0.184 -0.171,0.405 -0.171,0.665 0,0.254 0.078,0.492 0.234,0.715 0.155,0.223 0.392,0.386 0.711,0.485 l 0,0.03 -0.592,0.27 c -0.091,0.04 -0.163,0.125 -0.216,0.255 -0.054,0.13 -0.079,0.262 -0.079,0.395 0,0.234 0.053,0.442 0.158,0.625 0.108,0.183 0.251,0.34 0.434,0.47 0.181,0.13 0.392,0.231 0.631,0.3 0.24,0.07 0.496,0.105 0.769,0.105 0.242,0 0.485,-0.021 0.729,-0.065 0.242,-0.043 0.546,-0.139 0.91,-0.285 l -0.285,-0.59 c -0.227,0.094 -0.442,0.155 -0.643,0.185 -0.201,0.03 -0.392,0.045 -0.574,0.045 -0.084,0 -0.19,-0.008 -0.319,-0.025 -0.13,-0.017 -0.259,-0.05 -0.388,-0.1 -0.129,-0.049 -0.238,-0.12 -0.33,-0.21 -0.091,-0.089 -0.137,-0.209 -0.137,-0.355 0,-0.16 0.044,-0.285 0.131,-0.375 0.088,-0.09 0.195,-0.155 0.325,-0.194 0.129,-0.04 0.271,-0.066 0.427,-0.076 0.155,-0.01 0.298,-0.015 0.427,-0.015 l 0.557,0 0,-0.64 -0.636,0 c -0.229,0 -0.426,-0.028 -0.592,-0.085 -0.168,-0.056 -0.305,-0.129 -0.41,-0.215 -0.107,-0.087 -0.185,-0.185 -0.235,-0.295 -0.049,-0.11 -0.073,-0.214 -0.073,-0.315"
         style="fill:#231f20;fill-opacity:1;fill-rule:nonzero;stroke:none"
         id="path512"
         inkscape:connector-curvature="0" /><path
         d="m 1171.832,491.9473 c -0.289,0 -0.575,0.024 -0.859,0.074 -0.286,0.051 -0.515,0.113 -0.69,0.186 l 0.229,0.59 c 0.205,-0.074 0.421,-0.13 0.648,-0.17 0.228,-0.04 0.447,-0.06 0.66,-0.06 0.365,0 0.653,0.058 0.866,0.175 0.212,0.116 0.318,0.328 0.318,0.635 0,0.286 -0.085,0.495 -0.256,0.625 -0.17,0.13 -0.437,0.241 -0.803,0.335 -0.205,0.053 -0.4,0.108 -0.586,0.165 -0.185,0.056 -0.349,0.133 -0.49,0.229 -0.14,0.097 -0.254,0.222 -0.341,0.375 -0.087,0.154 -0.131,0.354 -0.131,0.601 0,0.246 0.057,0.455 0.171,0.625 0.114,0.17 0.258,0.306 0.432,0.41 0.176,0.102 0.371,0.178 0.587,0.225 0.216,0.046 0.427,0.07 0.632,0.07 0.296,0 0.57,-0.026 0.825,-0.075 0.255,-0.05 0.442,-0.102 0.563,-0.156 l -0.205,-0.58 c -0.174,0.054 -0.363,0.094 -0.568,0.12 -0.205,0.027 -0.388,0.04 -0.547,0.04 -0.691,0 -1.036,-0.226 -1.036,-0.679 0,-0.127 0.026,-0.231 0.08,-0.311 0.053,-0.079 0.125,-0.144 0.216,-0.194 0.092,-0.05 0.197,-0.094 0.318,-0.13 0.122,-0.037 0.251,-0.072 0.388,-0.105 0.189,-0.054 0.382,-0.112 0.575,-0.175 0.193,-0.064 0.367,-0.154 0.524,-0.271 0.155,-0.116 0.281,-0.262 0.375,-0.439 0.095,-0.177 0.142,-0.406 0.142,-0.686 0,-0.26 -0.053,-0.481 -0.159,-0.665 -0.107,-0.182 -0.253,-0.333 -0.439,-0.449 -0.185,-0.117 -0.402,-0.202 -0.648,-0.255 -0.246,-0.054 -0.511,-0.08 -0.791,-0.08"
         style="fill:#231f20;fill-opacity:1;fill-rule:nonzero;stroke:none"
         id="path516"
         inkscape:connector-curvature="0" /><path
         d="m 1174.7119,491.0674 0.308,2.01 1.32,0 -0.979,-2.191 -0.649,0.181 z"
         style="fill:#231f20;fill-opacity:1;fill-rule:nonzero;stroke:none"
         id="path520"
         inkscape:connector-curvature="0" /><path
         d="m 1070.5391,479.0869 -0.889,0 0,2.23 -1.684,3.98 -0.388,0.09 0,0.5 1.082,0 1.161,-2.91 0.308,-0.89 0.022,0 0.251,0.88 1.059,2.92 0.933,0 -1.855,-4.68 0,-2.12 z"
         style="fill:#231f20;fill-opacity:1;fill-rule:nonzero;stroke:none"
         id="path524"
         inkscape:connector-curvature="0" /><path
         d="m 1076.2656,481.0371 c -0.174,0 -0.313,0.019 -0.416,0.055 -0.102,0.037 -0.186,0.085 -0.25,0.145 -0.064,0.06 -0.113,0.13 -0.148,0.21 -0.034,0.08 -0.067,0.163 -0.096,0.25 l -0.672,2.08 -0.25,0.94 -0.035,0 -0.342,-0.93 -1.115,-2.7 -0.888,0 1.537,3.639 0.603,0.551 -0.535,1.75 c -0.045,0.154 -0.112,0.284 -0.2,0.395 -0.086,0.11 -0.244,0.165 -0.471,0.165 -0.091,0 -0.194,-0.01 -0.308,-0.03 l -0.148,0.54 c 0.114,0.04 0.228,0.072 0.341,0.095 0.115,0.023 0.251,0.034 0.411,0.034 0.212,0 0.386,-0.023 0.523,-0.069 0.137,-0.047 0.25,-0.113 0.342,-0.2 0.091,-0.087 0.167,-0.191 0.227,-0.316 0.061,-0.123 0.115,-0.261 0.16,-0.415 l 1.639,-5.269 c 0.038,-0.107 0.089,-0.2 0.154,-0.28 0.064,-0.08 0.172,-0.127 0.324,-0.14 l 0,-0.45 c -0.045,-0.014 -0.104,-0.026 -0.176,-0.035 -0.072,-0.01 -0.143,-0.015 -0.211,-0.015"
         style="fill:#231f20;fill-opacity:1;fill-rule:nonzero;stroke:none"
         id="path528"
         inkscape:connector-curvature="0" /><path
         d="m 1079.292,480.9473 c -0.388,0 -0.712,0.05 -0.974,0.149 -0.261,0.101 -0.472,0.229 -0.63,0.385 -0.161,0.157 -0.274,0.332 -0.342,0.526 -0.069,0.193 -0.104,0.379 -0.104,0.56 l 0,3.319 0.889,0 0,-3.33 c 0,-0.106 0.022,-0.216 0.068,-0.33 0.045,-0.113 0.117,-0.217 0.217,-0.314 0.098,-0.097 0.221,-0.177 0.369,-0.24 0.149,-0.064 0.32,-0.095 0.518,-0.095 0.114,0 0.241,0.016 0.382,0.05 0.14,0.033 0.273,0.09 0.398,0.17 0.126,0.08 0.23,0.19 0.313,0.33 0.084,0.139 0.125,0.32 0.125,0.54 l 0,3.219 0.888,0 0,-3.189 c 0,-0.4 -0.079,-0.717 -0.239,-0.95 -0.159,-0.234 -0.351,-0.408 -0.574,-0.526 -0.225,-0.116 -0.457,-0.191 -0.7,-0.224 -0.244,-0.033 -0.445,-0.05 -0.604,-0.05"
         style="fill:#231f20;fill-opacity:1;fill-rule:nonzero;stroke:none"
         id="path532"
         inkscape:connector-curvature="0" /><path
         d="m 1086.8066,485.8867 -2.334,-2.22 2.346,-2.58 -1.106,0 -2.15,2.45 0,-2.45 -0.889,0 0,4.8 0.889,0 0,-2.13 2.197,2.13 1.047,0 z"
         style="fill:#231f20;fill-opacity:1;fill-rule:nonzero;stroke:none"
         id="path536"
         inkscape:connector-curvature="0" /><path
         d="m 1088.8848,486.7373 0.82,1.67 0.842,-0.32 -1.16,-1.55 -0.502,0.2 z m -0.819,-3.2 c 0,-0.613 0.085,-1.075 0.256,-1.385 0.17,-0.311 0.476,-0.466 0.917,-0.466 0.113,0 0.228,0.017 0.347,0.051 0.117,0.033 0.229,0.076 0.335,0.13 0.107,0.053 0.205,0.111 0.296,0.175 0.092,0.063 0.175,0.125 0.25,0.184 l 0,2.731 c -0.174,0.099 -0.385,0.198 -0.631,0.295 -0.247,0.096 -0.496,0.144 -0.746,0.144 -0.25,0 -0.445,-0.068 -0.586,-0.204 -0.14,-0.137 -0.243,-0.302 -0.307,-0.495 -0.065,-0.193 -0.103,-0.398 -0.115,-0.61 -0.01,-0.214 -0.016,-0.397 -0.016,-0.55 m -0.98,-0.101 c 0,0.301 0.026,0.606 0.074,0.915 0.049,0.311 0.147,0.589 0.291,0.835 0.144,0.247 0.343,0.448 0.598,0.606 0.254,0.156 0.586,0.235 0.996,0.235 0.197,0 0.422,-0.044 0.677,-0.131 0.255,-0.086 0.503,-0.21 0.745,-0.369 l 0.16,0.39 0.729,0 0,-4.83 -0.66,0 -0.217,0.5 -0.512,-0.31 c -0.197,-0.114 -0.361,-0.195 -0.49,-0.245 -0.129,-0.051 -0.258,-0.075 -0.387,-0.075 -0.371,0 -0.685,0.068 -0.939,0.205 -0.254,0.137 -0.461,0.319 -0.62,0.55 -0.16,0.23 -0.273,0.495 -0.341,0.795 -0.069,0.299 -0.104,0.61 -0.104,0.929"
         style="fill:#231f20;fill-opacity:1;fill-rule:nonzero;stroke:none"
         id="path540"
         inkscape:connector-curvature="0" /><path
         d="m 1097.1035,480.9473 c -0.266,0 -0.482,0.028 -0.65,0.085 -0.17,0.057 -0.301,0.142 -0.395,0.255 -0.094,0.113 -0.156,0.251 -0.19,0.415 -0.035,0.163 -0.051,0.354 -0.051,0.575 l 0,2.98 -1.138,0 0,0.629 3.518,0 0,-0.629 -1.492,0 0,-2.829 c 0,-0.3 0.047,-0.51 0.142,-0.63 0.095,-0.122 0.252,-0.181 0.473,-0.181 0.137,0 0.294,0.008 0.472,0.024 0.178,0.017 0.336,0.042 0.473,0.076 l 0.125,-0.543 c -0.137,-0.06 -0.273,-0.104 -0.41,-0.134 -0.137,-0.03 -0.262,-0.051 -0.375,-0.064 -0.114,-0.013 -0.215,-0.021 -0.303,-0.024 -0.087,-0.004 -0.149,-0.005 -0.187,-0.005 l -0.012,0 z"
         style="fill:#231f20;fill-opacity:1;fill-rule:nonzero;stroke:none"
         id="path544"
         inkscape:connector-curvature="0" /><path
         d="m 1101.0918,485.3867 c -0.258,0 -0.469,-0.048 -0.631,-0.145 -0.164,-0.096 -0.293,-0.228 -0.387,-0.395 -0.095,-0.166 -0.162,-0.361 -0.199,-0.585 -0.039,-0.224 -0.057,-0.458 -0.057,-0.705 0,-0.286 0.018,-0.55 0.057,-0.79 0.037,-0.239 0.104,-0.448 0.199,-0.625 0.094,-0.177 0.223,-0.314 0.387,-0.41 0.162,-0.097 0.373,-0.145 0.631,-0.145 0.251,0 0.457,0.047 0.621,0.14 0.163,0.094 0.292,0.225 0.387,0.395 0.096,0.17 0.164,0.375 0.205,0.616 0.041,0.239 0.062,0.503 0.062,0.79 0,0.246 -0.018,0.481 -0.056,0.704 -0.038,0.223 -0.107,0.421 -0.205,0.591 -0.099,0.169 -0.23,0.306 -0.393,0.409 -0.164,0.103 -0.37,0.155 -0.621,0.155 m -0.045,-4.439 c -0.394,0 -0.73,0.064 -1.008,0.194 -0.277,0.13 -0.502,0.308 -0.677,0.535 -0.174,0.227 -0.301,0.493 -0.381,0.8 -0.08,0.306 -0.119,0.637 -0.119,0.99 0,0.333 0.037,0.655 0.113,0.965 0.076,0.31 0.203,0.584 0.382,0.82 0.178,0.237 0.409,0.425 0.694,0.566 0.285,0.139 0.632,0.21 1.041,0.21 0.402,0 0.746,-0.066 1.031,-0.196 0.284,-0.13 0.516,-0.308 0.694,-0.535 0.178,-0.226 0.308,-0.493 0.387,-0.8 0.079,-0.306 0.12,-0.633 0.12,-0.98 0,-0.347 -0.041,-0.675 -0.12,-0.984 -0.079,-0.311 -0.21,-0.584 -0.392,-0.821 -0.183,-0.236 -0.417,-0.424 -0.706,-0.559 -0.289,-0.137 -0.641,-0.205 -1.059,-0.205"
         style="fill:#231f20;fill-opacity:1;fill-rule:nonzero;stroke:none"
         id="path548"
         inkscape:connector-curvature="0" /><path
         d="m 1106.4111,480.9473 c -0.388,0 -0.712,0.05 -0.974,0.149 -0.261,0.101 -0.472,0.229 -0.63,0.385 -0.161,0.157 -0.274,0.332 -0.342,0.526 -0.069,0.193 -0.104,0.379 -0.104,0.56 l 0,3.319 0.889,0 0,-3.33 c 0,-0.106 0.022,-0.216 0.068,-0.33 0.045,-0.113 0.117,-0.217 0.217,-0.314 0.098,-0.097 0.221,-0.177 0.369,-0.24 0.149,-0.064 0.32,-0.095 0.518,-0.095 0.114,0 0.241,0.016 0.382,0.05 0.14,0.033 0.273,0.09 0.398,0.17 0.126,0.08 0.23,0.19 0.313,0.33 0.084,0.139 0.125,0.32 0.125,0.54 l 0,3.219 0.888,0 0,-3.189 c 0,-0.4 -0.079,-0.717 -0.239,-0.95 -0.159,-0.234 -0.351,-0.408 -0.574,-0.526 -0.225,-0.116 -0.457,-0.191 -0.7,-0.224 -0.244,-0.033 -0.445,-0.05 -0.604,-0.05"
         style="fill:#231f20;fill-opacity:1;fill-rule:nonzero;stroke:none"
         id="path552"
         inkscape:connector-curvature="0" /><path
         d="m 1116.6328,485.8867 -2.333,-2.22 2.345,-2.58 -1.104,0 -2.152,2.45 0,-2.45 -0.888,0 0,4.8 0.888,0 0,-2.13 2.197,2.13 1.047,0 z"
         style="fill:#231f20;fill-opacity:1;fill-rule:nonzero;stroke:none"
         id="path556"
         inkscape:connector-curvature="0" /><path
         d="m 1119.1387,485.3867 c -0.258,0 -0.469,-0.048 -0.631,-0.145 -0.164,-0.096 -0.293,-0.228 -0.387,-0.395 -0.095,-0.166 -0.162,-0.361 -0.199,-0.585 -0.039,-0.224 -0.057,-0.458 -0.057,-0.705 0,-0.286 0.018,-0.55 0.057,-0.79 0.037,-0.239 0.104,-0.448 0.199,-0.625 0.094,-0.177 0.223,-0.314 0.387,-0.41 0.162,-0.097 0.373,-0.145 0.631,-0.145 0.251,0 0.457,0.047 0.621,0.14 0.163,0.094 0.292,0.225 0.387,0.395 0.096,0.17 0.164,0.375 0.205,0.616 0.041,0.239 0.062,0.503 0.062,0.79 0,0.246 -0.018,0.481 -0.056,0.704 -0.038,0.223 -0.107,0.421 -0.205,0.591 -0.099,0.169 -0.23,0.306 -0.393,0.409 -0.164,0.103 -0.37,0.155 -0.621,0.155 m -0.045,-4.439 c -0.394,0 -0.73,0.064 -1.008,0.194 -0.277,0.13 -0.502,0.308 -0.677,0.535 -0.174,0.227 -0.301,0.493 -0.381,0.8 -0.08,0.306 -0.119,0.637 -0.119,0.99 0,0.333 0.037,0.655 0.113,0.965 0.076,0.31 0.203,0.584 0.382,0.82 0.178,0.237 0.409,0.425 0.694,0.566 0.285,0.139 0.632,0.21 1.041,0.21 0.402,0 0.746,-0.066 1.031,-0.196 0.284,-0.13 0.516,-0.308 0.694,-0.535 0.178,-0.226 0.308,-0.493 0.387,-0.8 0.079,-0.306 0.12,-0.633 0.12,-0.98 0,-0.347 -0.041,-0.675 -0.12,-0.984 -0.079,-0.311 -0.21,-0.584 -0.392,-0.821 -0.183,-0.236 -0.417,-0.424 -0.706,-0.559 -0.289,-0.137 -0.641,-0.205 -1.059,-0.205"
         style="fill:#231f20;fill-opacity:1;fill-rule:nonzero;stroke:none"
         id="path560"
         inkscape:connector-curvature="0" /><path
         d="m 1124.458,480.9473 c -0.388,0 -0.712,0.05 -0.974,0.149 -0.261,0.101 -0.472,0.229 -0.63,0.385 -0.161,0.157 -0.274,0.332 -0.342,0.526 -0.069,0.193 -0.104,0.379 -0.104,0.56 l 0,3.319 0.889,0 0,-3.33 c 0,-0.106 0.022,-0.216 0.068,-0.33 0.045,-0.113 0.117,-0.217 0.217,-0.314 0.098,-0.097 0.221,-0.177 0.369,-0.24 0.149,-0.064 0.32,-0.095 0.518,-0.095 0.114,0 0.241,0.016 0.382,0.05 0.14,0.033 0.273,0.09 0.398,0.17 0.126,0.08 0.23,0.19 0.313,0.33 0.084,0.139 0.125,0.32 0.125,0.54 l 0,3.219 0.888,0 0,-3.189 c 0,-0.4 -0.079,-0.717 -0.239,-0.95 -0.159,-0.234 -0.351,-0.408 -0.574,-0.526 -0.225,-0.116 -0.457,-0.191 -0.7,-0.224 -0.244,-0.033 -0.445,-0.05 -0.604,-0.05"
         style="fill:#231f20;fill-opacity:1;fill-rule:nonzero;stroke:none"
         id="path564"
         inkscape:connector-curvature="0" /><path
         d="m 1129.7891,480.9473 c -0.266,0 -0.482,0.028 -0.651,0.085 -0.169,0.057 -0.3,0.142 -0.394,0.255 -0.094,0.113 -0.157,0.251 -0.191,0.415 -0.034,0.163 -0.051,0.354 -0.051,0.575 l 0,2.98 -1.138,0 0,0.629 3.518,0 0,-0.629 -1.491,0 0,-2.829 c 0,-0.3 0.046,-0.51 0.142,-0.63 0.094,-0.122 0.252,-0.181 0.473,-0.181 0.137,0 0.293,0.008 0.471,0.024 0.179,0.017 0.336,0.042 0.473,0.076 l 0.125,-0.543 c -0.136,-0.06 -0.272,-0.104 -0.409,-0.134 -0.137,-0.03 -0.262,-0.051 -0.376,-0.064 -0.114,-0.013 -0.215,-0.021 -0.302,-0.024 -0.088,-0.004 -0.15,-0.005 -0.187,-0.005 l -0.012,0 z"
         style="fill:#231f20;fill-opacity:1;fill-rule:nonzero;stroke:none"
         id="path568"
         inkscape:connector-curvature="0" /><path
         d="m 1132.498,483.5371 c 0,-0.613 0.086,-1.075 0.256,-1.385 0.172,-0.31 0.476,-0.466 0.917,-0.466 0.114,0 0.229,0.017 0.347,0.051 0.118,0.033 0.23,0.076 0.335,0.13 0.107,0.053 0.206,0.111 0.297,0.175 0.09,0.063 0.174,0.125 0.25,0.184 l 0,2.731 c -0.174,0.1 -0.384,0.198 -0.631,0.295 -0.248,0.097 -0.496,0.144 -0.746,0.144 -0.251,0 -0.446,-0.068 -0.587,-0.204 -0.14,-0.136 -0.243,-0.301 -0.307,-0.495 -0.065,-0.193 -0.102,-0.397 -0.113,-0.61 -0.012,-0.214 -0.018,-0.397 -0.018,-0.55 m -0.979,-0.101 c 0,0.301 0.025,0.606 0.075,0.915 0.049,0.311 0.145,0.589 0.289,0.835 0.144,0.247 0.344,0.449 0.598,0.606 0.254,0.156 0.586,0.235 0.996,0.235 0.198,0 0.423,-0.044 0.677,-0.131 0.254,-0.086 0.503,-0.21 0.746,-0.369 l 0.16,0.39 0.728,0 0,-4.83 -0.66,0 -0.216,0.5 -0.513,-0.31 c -0.197,-0.114 -0.36,-0.195 -0.489,-0.245 -0.129,-0.051 -0.258,-0.075 -0.387,-0.075 -0.373,0 -0.685,0.068 -0.939,0.205 -0.255,0.137 -0.461,0.319 -0.621,0.55 -0.159,0.23 -0.274,0.495 -0.342,0.795 -0.068,0.3 -0.102,0.61 -0.102,0.929"
         style="fill:#231f20;fill-opacity:1;fill-rule:nonzero;stroke:none"
         id="path572"
         inkscape:connector-curvature="0" /><path
         d="m 1140.6738,481.0371 c -0.174,0 -0.313,0.019 -0.415,0.055 -0.103,0.037 -0.187,0.085 -0.25,0.145 -0.065,0.06 -0.114,0.13 -0.148,0.21 -0.035,0.08 -0.067,0.163 -0.097,0.25 l -0.672,2.08 -0.25,0.94 -0.034,0 -0.342,-0.93 -1.115,-2.7 -0.888,0 1.537,3.639 0.603,0.551 -0.535,1.75 c -0.046,0.154 -0.113,0.284 -0.2,0.395 -0.087,0.11 -0.245,0.165 -0.471,0.165 -0.092,0 -0.194,-0.01 -0.309,-0.03 l -0.147,0.54 c 0.114,0.04 0.227,0.072 0.341,0.095 0.115,0.023 0.251,0.034 0.41,0.034 0.212,0 0.387,-0.023 0.524,-0.069 0.136,-0.047 0.25,-0.113 0.341,-0.2 0.092,-0.087 0.168,-0.191 0.228,-0.316 0.061,-0.123 0.114,-0.261 0.16,-0.415 l 1.639,-5.269 c 0.037,-0.107 0.088,-0.2 0.153,-0.28 0.065,-0.08 0.173,-0.127 0.325,-0.14 l 0,-0.45 c -0.046,-0.014 -0.105,-0.026 -0.177,-0.035 -0.072,-0.01 -0.143,-0.015 -0.211,-0.015"
         style="fill:#231f20;fill-opacity:1;fill-rule:nonzero;stroke:none"
         id="path576"
         inkscape:connector-curvature="0" /><path
         d="m 1141.9648,485.2666 -0.603,0.141 0,0.489 1.492,0 0,-4.81 -0.889,0 0,4.18 z"
         style="fill:#231f20;fill-opacity:1;fill-rule:nonzero;stroke:none"
         id="path580"
         inkscape:connector-curvature="0" /><path
         d="m 1146.2578,485.3867 c -0.258,0 -0.469,-0.048 -0.631,-0.145 -0.164,-0.096 -0.293,-0.228 -0.387,-0.395 -0.095,-0.166 -0.162,-0.361 -0.199,-0.585 -0.039,-0.224 -0.057,-0.458 -0.057,-0.705 0,-0.286 0.018,-0.55 0.057,-0.79 0.037,-0.239 0.104,-0.448 0.199,-0.625 0.094,-0.177 0.223,-0.314 0.387,-0.41 0.162,-0.097 0.373,-0.145 0.631,-0.145 0.251,0 0.457,0.047 0.621,0.14 0.163,0.094 0.292,0.225 0.387,0.395 0.096,0.17 0.164,0.375 0.205,0.616 0.041,0.239 0.062,0.503 0.062,0.79 0,0.246 -0.018,0.481 -0.056,0.704 -0.038,0.223 -0.107,0.421 -0.205,0.591 -0.099,0.169 -0.23,0.306 -0.393,0.409 -0.164,0.103 -0.37,0.155 -0.621,0.155 m -0.045,-4.439 c -0.394,0 -0.73,0.064 -1.008,0.194 -0.277,0.13 -0.502,0.308 -0.677,0.535 -0.174,0.227 -0.301,0.493 -0.381,0.8 -0.08,0.306 -0.119,0.637 -0.119,0.99 0,0.333 0.037,0.655 0.113,0.965 0.076,0.31 0.203,0.584 0.382,0.82 0.178,0.237 0.409,0.425 0.694,0.566 0.285,0.139 0.632,0.21 1.041,0.21 0.402,0 0.746,-0.066 1.031,-0.196 0.284,-0.13 0.516,-0.308 0.694,-0.535 0.178,-0.226 0.308,-0.493 0.387,-0.8 0.079,-0.306 0.12,-0.633 0.12,-0.98 0,-0.347 -0.041,-0.675 -0.12,-0.984 -0.079,-0.311 -0.21,-0.584 -0.392,-0.821 -0.183,-0.236 -0.417,-0.424 -0.706,-0.559 -0.289,-0.137 -0.641,-0.205 -1.059,-0.205"
         style="fill:#231f20;fill-opacity:1;fill-rule:nonzero;stroke:none"
         id="path584"
         inkscape:connector-curvature="0" /><path
         d="m 1151.0811,486.7373 0.819,1.67 0.843,-0.32 -1.161,-1.55 -0.501,0.2 z m 0.478,-5.79 c -0.387,0 -0.711,0.05 -0.973,0.149 -0.262,0.101 -0.473,0.229 -0.632,0.385 -0.159,0.157 -0.273,0.332 -0.342,0.526 -0.068,0.193 -0.102,0.379 -0.102,0.56 l 0,3.319 0.888,0 0,-3.33 c 0,-0.106 0.022,-0.216 0.069,-0.33 0.045,-0.113 0.117,-0.218 0.216,-0.314 0.098,-0.097 0.221,-0.177 0.37,-0.24 0.147,-0.064 0.32,-0.095 0.517,-0.095 0.114,0 0.24,0.016 0.381,0.05 0.141,0.033 0.274,0.089 0.399,0.17 0.126,0.08 0.23,0.19 0.313,0.33 0.083,0.139 0.126,0.32 0.126,0.54 l 0,3.219 0.887,0 0,-3.189 c 0,-0.4 -0.079,-0.717 -0.239,-0.95 -0.16,-0.234 -0.351,-0.408 -0.575,-0.526 -0.223,-0.116 -0.457,-0.191 -0.7,-0.224 -0.242,-0.033 -0.443,-0.05 -0.603,-0.05"
         style="fill:#231f20;fill-opacity:1;fill-rule:nonzero;stroke:none"
         id="path588"
         inkscape:connector-curvature="0" /><path
         d="m 1154.3926,479.2168 c 0.28,0.307 0.521,0.632 0.723,0.976 0.201,0.342 0.364,0.699 0.489,1.069 0.126,0.37 0.218,0.747 0.278,1.13 0.062,0.384 0.092,0.768 0.092,1.155 0,0.554 -0.044,1.047 -0.131,1.481 -0.088,0.432 -0.207,0.828 -0.359,1.184 -0.152,0.357 -0.334,0.687 -0.546,0.99 -0.212,0.303 -0.444,0.602 -0.694,0.895 l 0.511,0.29 c 0.046,-0.026 0.131,-0.102 0.257,-0.225 0.125,-0.124 0.268,-0.29 0.427,-0.5 0.16,-0.21 0.328,-0.457 0.507,-0.74 0.178,-0.283 0.339,-0.6 0.483,-0.95 0.145,-0.35 0.264,-0.729 0.359,-1.135 0.094,-0.406 0.142,-0.837 0.142,-1.29 0,-0.587 -0.073,-1.135 -0.222,-1.644 -0.148,-0.511 -0.326,-0.967 -0.535,-1.371 -0.209,-0.403 -0.424,-0.745 -0.642,-1.025 -0.221,-0.28 -0.403,-0.483 -0.547,-0.61 l -0.592,0.32 z"
         style="fill:#231f20;fill-opacity:1;fill-rule:nonzero;stroke:none"
         id="path592"
         inkscape:connector-curvature="0" /><path
         d="m 1158.9082,480.9873 c -0.197,0 -0.364,0.062 -0.501,0.185 -0.137,0.123 -0.205,0.271 -0.205,0.445 0,0.173 0.068,0.321 0.205,0.444 0.137,0.124 0.304,0.186 0.501,0.186 0.197,0 0.365,-0.062 0.506,-0.186 0.14,-0.123 0.211,-0.271 0.211,-0.444 0,-0.174 -0.071,-0.322 -0.211,-0.445 -0.141,-0.123 -0.309,-0.185 -0.506,-0.185"
         style="fill:#231f20;fill-opacity:1;fill-rule:nonzero;stroke:none"
         id="path596"
         inkscape:connector-curvature="0" /></g></g></svg>