<?xml version="1.0" encoding="UTF-8" standalone="no"?>
<!-- Created with Inkscape (http://www.inkscape.org/) -->

<svg
   xmlns:dc="http://purl.org/dc/elements/1.1/"
   xmlns:cc="http://creativecommons.org/ns#"
   xmlns:rdf="http://www.w3.org/1999/02/22-rdf-syntax-ns#"
   xmlns:svg="http://www.w3.org/2000/svg"
   xmlns="http://www.w3.org/2000/svg"
   xmlns:sodipodi="http://sodipodi.sourceforge.net/DTD/sodipodi-0.dtd"
   xmlns:inkscape="http://www.inkscape.org/namespaces/inkscape"
   id="svg2"
   version="1.1"
   inkscape:version="0.91 r13725"
   xml:space="preserve"
   width="190.41376"
   height="146.27513"
   viewBox="0 0 190.41375 146.27513"
   sodipodi:docname="menu-drinks.svg"><metadata
     id="metadata8"><rdf:RDF><cc:Work
         rdf:about=""><dc:format>image/svg+xml</dc:format><dc:type
           rdf:resource="http://purl.org/dc/dcmitype/StillImage" /><dc:title></dc:title></cc:Work></rdf:RDF></metadata><defs
     id="defs6"><clipPath
       clipPathUnits="userSpaceOnUse"
       id="clipPath16"><path
         d="m 42.534,42.903 1217.492,0 0,868.852 -1217.492,0 0,-868.852 z"
         id="path18"
         inkscape:connector-curvature="0" /></clipPath><clipPath
       clipPathUnits="userSpaceOnUse"
       id="clipPath58"><path
         d="m 0,955.275 1303.937,0 L 1303.937,0 0,0 0,955.275 Z"
         id="path60"
         inkscape:connector-curvature="0" /></clipPath></defs><sodipodi:namedview
     pagecolor="#ffffff"
     bordercolor="#666666"
     borderopacity="1"
     objecttolerance="10"
     gridtolerance="10"
     guidetolerance="10"
     inkscape:pageopacity="0"
     inkscape:pageshadow="2"
     inkscape:window-width="1881"
     inkscape:window-height="1176"
     id="namedview4"
     showgrid="false"
     inkscape:zoom="0.55900871"
     inkscape:cx="-247.12749"
     inkscape:cy="-135.93612"
     inkscape:window-x="39"
     inkscape:window-y="24"
     inkscape:window-maximized="1"
     inkscape:current-layer="g10"
     fit-margin-top="0"
     fit-margin-left="0"
     fit-margin-right="0"
     fit-margin-bottom="0" /><g
     id="g10"
     inkscape:groupmode="layer"
     inkscape:label="Kouzina_trifold(menu)_Oct2017"
     transform="matrix(1.25,0,0,-1.25,-1071.8026,775.20687)"><g
       id="g38684"
       transform="translate(-210.37243,-97.990912)"><path
         d="m 1073.0469,649.6768 0,5.31 0.887,0 0,-6.85 -1.033,0 -2.542,4.92 -0.261,0.599 -0.045,0 0,-5.519 -0.889,0 0,6.85 1.139,0 2.414,-4.74 0.272,-0.57 0.058,0 z"
         style="fill:#231f20;fill-opacity:1;fill-rule:nonzero;stroke:none"
         id="path9752"
         inkscape:connector-curvature="0" /><path
         d="m 1075.9668,649.4766 c 0,-0.253 0.081,-0.45 0.244,-0.59 0.163,-0.139 0.416,-0.21 0.758,-0.21 0.287,0 0.557,0.022 0.808,0.066 0.251,0.043 0.508,0.118 0.774,0.224 l 0.273,-0.58 c -0.289,-0.146 -0.578,-0.247 -0.865,-0.3 -0.289,-0.053 -0.615,-0.08 -0.979,-0.08 -0.236,0 -0.469,0.025 -0.7,0.075 -0.232,0.05 -0.441,0.131 -0.626,0.246 -0.187,0.113 -0.336,0.26 -0.451,0.444 -0.113,0.184 -0.17,0.405 -0.17,0.665 0,0.254 0.078,0.492 0.233,0.715 0.156,0.223 0.392,0.386 0.712,0.485 l 0,0.03 -0.592,0.27 c -0.091,0.04 -0.163,0.125 -0.216,0.255 -0.054,0.13 -0.08,0.262 -0.08,0.395 0,0.234 0.053,0.442 0.159,0.625 0.107,0.183 0.251,0.34 0.433,0.47 0.181,0.13 0.392,0.231 0.632,0.3 0.239,0.07 0.495,0.105 0.768,0.105 0.242,0 0.486,-0.021 0.729,-0.065 0.242,-0.043 0.547,-0.139 0.91,-0.285 l -0.284,-0.59 c -0.228,0.094 -0.443,0.155 -0.644,0.185 -0.201,0.03 -0.392,0.045 -0.574,0.045 -0.084,0 -0.189,-0.008 -0.318,-0.025 -0.13,-0.017 -0.259,-0.05 -0.388,-0.1 -0.129,-0.049 -0.239,-0.12 -0.33,-0.21 -0.091,-0.089 -0.137,-0.209 -0.137,-0.355 0,-0.16 0.044,-0.285 0.131,-0.375 0.087,-0.09 0.195,-0.155 0.325,-0.194 0.129,-0.04 0.271,-0.066 0.426,-0.076 0.156,-0.01 0.299,-0.015 0.428,-0.015 l 0.557,0 0,-0.64 -0.637,0 c -0.228,0 -0.426,-0.028 -0.592,-0.085 -0.167,-0.056 -0.304,-0.129 -0.41,-0.215 -0.106,-0.087 -0.184,-0.185 -0.234,-0.295 -0.05,-0.11 -0.073,-0.214 -0.073,-0.315"
         style="fill:#231f20;fill-opacity:1;fill-rule:nonzero;stroke:none"
         id="path9756"
         inkscape:connector-curvature="0" /><path
         d="m 1083.1025,650.4863 c 0,0.613 -0.099,1.091 -0.296,1.431 -0.197,0.34 -0.539,0.509 -1.024,0.509 -0.115,0 -0.243,-0.018 -0.388,-0.054 -0.144,-0.037 -0.276,-0.115 -0.398,-0.231 -0.122,-0.116 -0.223,-0.281 -0.307,-0.495 -0.084,-0.213 -0.125,-0.496 -0.125,-0.849 l 0,-1.731 c 0.174,-0.1 0.385,-0.198 0.631,-0.295 0.247,-0.097 0.496,-0.144 0.746,-0.144 0.25,0 0.453,0.068 0.609,0.205 0.156,0.136 0.274,0.3 0.353,0.495 0.08,0.192 0.133,0.396 0.159,0.609 0.027,0.214 0.04,0.397 0.04,0.55 m 0.956,0.051 c 0,-0.301 -0.037,-0.601 -0.113,-0.901 -0.076,-0.299 -0.2,-0.573 -0.371,-0.82 -0.172,-0.246 -0.397,-0.446 -0.675,-0.6 -0.278,-0.153 -0.622,-0.23 -1.033,-0.23 -0.175,0 -0.379,0.035 -0.612,0.105 -0.232,0.071 -0.462,0.192 -0.69,0.366 l 0,-2.321 -0.889,0 0,4.491 c 0,0.559 0.08,1.001 0.24,1.325 0.161,0.323 0.354,0.566 0.583,0.729 0.228,0.163 0.465,0.267 0.712,0.311 0.248,0.043 0.463,0.064 0.645,0.064 0.404,0 0.744,-0.064 1.022,-0.195 0.278,-0.13 0.504,-0.308 0.679,-0.534 0.176,-0.228 0.303,-0.494 0.383,-0.801 0.08,-0.307 0.119,-0.637 0.119,-0.989"
         style="fill:#231f20;fill-opacity:1;fill-rule:nonzero;stroke:none"
         id="path9760"
         inkscape:connector-curvature="0" /><path
         d="m 1086.7324,653.7871 0.82,1.67 0.842,-0.32 -1.16,-1.55 -0.502,0.2 z m 0.455,-1.351 c -0.258,0 -0.469,-0.047 -0.631,-0.144 -0.164,-0.097 -0.293,-0.229 -0.387,-0.396 -0.095,-0.166 -0.162,-0.361 -0.199,-0.585 -0.039,-0.223 -0.057,-0.458 -0.057,-0.705 0,-0.286 0.018,-0.549 0.057,-0.79 0.037,-0.239 0.104,-0.448 0.199,-0.625 0.094,-0.176 0.223,-0.313 0.387,-0.41 0.162,-0.097 0.373,-0.144 0.631,-0.144 0.251,0 0.457,0.046 0.621,0.139 0.163,0.094 0.292,0.226 0.387,0.396 0.096,0.17 0.164,0.375 0.205,0.615 0.041,0.239 0.062,0.503 0.062,0.79 0,0.246 -0.018,0.481 -0.056,0.704 -0.038,0.224 -0.107,0.421 -0.205,0.591 -0.099,0.17 -0.23,0.307 -0.393,0.409 -0.164,0.104 -0.37,0.155 -0.621,0.155 m -0.045,-4.439 c -0.394,0 -0.73,0.064 -1.008,0.194 -0.277,0.13 -0.502,0.309 -0.677,0.535 -0.174,0.227 -0.301,0.494 -0.381,0.8 -0.08,0.307 -0.119,0.637 -0.119,0.99 0,0.333 0.037,0.656 0.113,0.965 0.076,0.311 0.203,0.584 0.382,0.821 0.178,0.236 0.409,0.424 0.694,0.565 0.285,0.14 0.632,0.21 1.041,0.21 0.402,0 0.746,-0.065 1.031,-0.195 0.285,-0.13 0.516,-0.309 0.694,-0.535 0.178,-0.227 0.308,-0.494 0.387,-0.8 0.079,-0.307 0.121,-0.634 0.121,-0.981 0,-0.346 -0.042,-0.675 -0.121,-0.984 -0.079,-0.311 -0.21,-0.584 -0.392,-0.82 -0.183,-0.237 -0.417,-0.424 -0.706,-0.56 -0.289,-0.137 -0.641,-0.205 -1.059,-0.205"
         style="fill:#231f20;fill-opacity:1;fill-rule:nonzero;stroke:none"
         id="path9764"
         inkscape:connector-curvature="0" /><path
         d="m 1069.9385,643.9365 0,-3.082 c 0,-0.153 0.011,-0.298 0.034,-0.435 0.023,-0.135 0.069,-0.254 0.136,-0.353 0.067,-0.101 0.166,-0.179 0.294,-0.235 0.129,-0.057 0.299,-0.084 0.51,-0.084 0.151,0 0.293,0.017 0.425,0.054 0.132,0.036 0.254,0.083 0.368,0.14 0.113,0.057 0.215,0.114 0.306,0.175 0.09,0.059 0.17,0.116 0.239,0.169 l 0,3.651 0.886,0 0,-4.8 -0.671,0 -0.215,0.5 -0.545,-0.309 c -0.362,-0.207 -0.684,-0.311 -0.963,-0.311 -0.309,0 -0.581,0.047 -0.815,0.14 l 0,-2.02 -0.888,0 0,6.8 0.899,0 z"
         style="fill:#231f20;fill-opacity:1;fill-rule:nonzero;stroke:none"
         id="path9768"
         inkscape:connector-curvature="0" /><path
         d="m 1074.6504,643.3164 -0.604,0.141 0,0.489 1.492,0 0,-4.81 -0.888,0 0,4.18 z"
         style="fill:#231f20;fill-opacity:1;fill-rule:nonzero;stroke:none"
         id="path9772"
         inkscape:connector-curvature="0" /><path
         d="m 1081.041,643.9365 -2.333,-2.22 2.345,-2.58 -1.104,0 -2.152,2.45 0,-2.45 -0.888,0 0,4.8 0.888,0 0,-2.13 2.197,2.13 1.047,0 z"
         style="fill:#231f20;fill-opacity:1;fill-rule:nonzero;stroke:none"
         id="path9776"
         inkscape:connector-curvature="0" /><path
         d="m 1085.2168,641.4863 c 0,0.613 -0.098,1.091 -0.295,1.431 -0.197,0.34 -0.539,0.509 -1.025,0.509 -0.114,0 -0.243,-0.018 -0.387,-0.054 -0.145,-0.037 -0.277,-0.115 -0.398,-0.231 -0.122,-0.116 -0.224,-0.281 -0.307,-0.495 -0.084,-0.213 -0.126,-0.496 -0.126,-0.849 l 0,-1.731 c 0.175,-0.1 0.386,-0.198 0.632,-0.295 0.246,-0.097 0.495,-0.144 0.746,-0.144 0.25,0 0.453,0.068 0.609,0.205 0.155,0.136 0.273,0.3 0.352,0.495 0.08,0.192 0.133,0.396 0.16,0.609 0.026,0.214 0.039,0.397 0.039,0.55 m 0.957,0.051 c 0,-0.301 -0.038,-0.601 -0.114,-0.901 -0.076,-0.299 -0.2,-0.573 -0.371,-0.82 -0.171,-0.246 -0.397,-0.446 -0.675,-0.6 -0.277,-0.153 -0.621,-0.23 -1.033,-0.23 -0.175,0 -0.379,0.035 -0.612,0.105 -0.232,0.071 -0.462,0.192 -0.69,0.366 l 0,-2.321 -0.888,0 0,4.491 c 0,0.559 0.08,1.001 0.239,1.325 0.161,0.323 0.355,0.566 0.583,0.729 0.228,0.163 0.465,0.267 0.713,0.311 0.247,0.043 0.462,0.064 0.645,0.064 0.403,0 0.744,-0.064 1.021,-0.195 0.278,-0.13 0.504,-0.308 0.68,-0.534 0.175,-0.228 0.303,-0.494 0.382,-0.801 0.08,-0.307 0.12,-0.637 0.12,-0.989"
         style="fill:#231f20;fill-opacity:1;fill-rule:nonzero;stroke:none"
         id="path9780"
         inkscape:connector-curvature="0" /><path
         d="m 1088.8477,644.7871 0.82,1.67 0.842,-0.32 -1.16,-1.55 -0.502,0.2 z m 0.455,-1.351 c -0.258,0 -0.469,-0.047 -0.631,-0.144 -0.164,-0.097 -0.293,-0.229 -0.387,-0.396 -0.095,-0.166 -0.162,-0.361 -0.199,-0.585 -0.039,-0.223 -0.057,-0.458 -0.057,-0.705 0,-0.286 0.018,-0.549 0.057,-0.79 0.037,-0.239 0.104,-0.448 0.199,-0.625 0.094,-0.176 0.223,-0.313 0.387,-0.41 0.162,-0.097 0.373,-0.144 0.631,-0.144 0.251,0 0.457,0.046 0.621,0.139 0.163,0.094 0.292,0.226 0.387,0.396 0.096,0.17 0.164,0.375 0.205,0.615 0.041,0.239 0.062,0.503 0.062,0.79 0,0.246 -0.018,0.481 -0.056,0.704 -0.038,0.224 -0.107,0.421 -0.205,0.591 -0.099,0.17 -0.23,0.307 -0.393,0.409 -0.164,0.104 -0.37,0.155 -0.621,0.155 m -0.045,-4.439 c -0.394,0 -0.73,0.064 -1.008,0.194 -0.277,0.13 -0.502,0.309 -0.677,0.535 -0.174,0.227 -0.301,0.494 -0.381,0.8 -0.08,0.307 -0.119,0.637 -0.119,0.99 0,0.333 0.037,0.656 0.113,0.965 0.076,0.311 0.203,0.584 0.382,0.821 0.178,0.236 0.409,0.424 0.694,0.565 0.285,0.14 0.632,0.21 1.041,0.21 0.402,0 0.746,-0.065 1.031,-0.195 0.285,-0.13 0.516,-0.309 0.694,-0.535 0.178,-0.227 0.308,-0.494 0.387,-0.8 0.079,-0.307 0.121,-0.634 0.121,-0.981 0,-0.346 -0.042,-0.675 -0.121,-0.984 -0.079,-0.311 -0.21,-0.584 -0.392,-0.82 -0.183,-0.237 -0.417,-0.424 -0.706,-0.56 -0.289,-0.137 -0.641,-0.205 -1.059,-0.205"
         style="fill:#231f20;fill-opacity:1;fill-rule:nonzero;stroke:none"
         id="path9784"
         inkscape:connector-curvature="0" /><path
         d="m 1095.041,638.0566 4.018,8.26 0.808,0 -4.017,-8.26 -0.809,0 z"
         style="fill:#231f20;fill-opacity:1;fill-rule:nonzero;stroke:none"
         id="path9788"
         inkscape:connector-curvature="0" /><path
         d="m 1103.8965,643.9365 0,-3.082 c 0,-0.153 0.012,-0.298 0.034,-0.435 0.023,-0.135 0.069,-0.254 0.136,-0.353 0.068,-0.101 0.166,-0.179 0.295,-0.235 0.129,-0.057 0.299,-0.084 0.51,-0.084 0.15,0 0.293,0.017 0.424,0.054 0.132,0.036 0.255,0.083 0.369,0.14 0.113,0.057 0.214,0.114 0.305,0.175 0.091,0.059 0.171,0.116 0.239,0.169 l 0,3.651 0.887,0 0,-4.8 -0.672,0 -0.215,0.5 -0.544,-0.309 c -0.363,-0.207 -0.684,-0.311 -0.963,-0.311 -0.31,0 -0.582,0.047 -0.816,0.14 l 0,-2.02 -0.887,0 0,6.8 0.898,0 z"
         style="fill:#231f20;fill-opacity:1;fill-rule:nonzero;stroke:none"
         id="path9792"
         inkscape:connector-curvature="0" /><path
         d="m 1109.1104,640.4766 c 0,-0.253 0.081,-0.45 0.245,-0.59 0.162,-0.139 0.415,-0.21 0.757,-0.21 0.288,0 0.558,0.022 0.808,0.066 0.251,0.043 0.508,0.118 0.774,0.224 l 0.273,-0.58 c -0.288,-0.146 -0.577,-0.247 -0.865,-0.3 -0.288,-0.053 -0.614,-0.08 -0.979,-0.08 -0.235,0 -0.469,0.025 -0.7,0.075 -0.232,0.05 -0.441,0.131 -0.626,0.246 -0.186,0.113 -0.336,0.26 -0.45,0.444 -0.113,0.184 -0.171,0.405 -0.171,0.665 0,0.254 0.078,0.492 0.234,0.715 0.155,0.223 0.392,0.386 0.711,0.485 l 0,0.03 -0.592,0.27 c -0.091,0.04 -0.163,0.125 -0.216,0.255 -0.054,0.13 -0.079,0.262 -0.079,0.395 0,0.234 0.053,0.442 0.158,0.625 0.108,0.183 0.251,0.34 0.434,0.47 0.181,0.13 0.392,0.231 0.631,0.3 0.24,0.07 0.496,0.105 0.769,0.105 0.242,0 0.485,-0.021 0.729,-0.065 0.242,-0.043 0.546,-0.139 0.91,-0.285 l -0.285,-0.59 c -0.227,0.094 -0.442,0.155 -0.643,0.185 -0.201,0.03 -0.392,0.045 -0.574,0.045 -0.084,0 -0.19,-0.008 -0.319,-0.025 -0.13,-0.017 -0.259,-0.05 -0.388,-0.1 -0.129,-0.049 -0.238,-0.12 -0.33,-0.21 -0.091,-0.089 -0.137,-0.209 -0.137,-0.355 0,-0.16 0.044,-0.285 0.131,-0.375 0.088,-0.09 0.195,-0.155 0.325,-0.194 0.129,-0.04 0.271,-0.066 0.427,-0.076 0.155,-0.01 0.298,-0.015 0.427,-0.015 l 0.557,0 0,-0.64 -0.636,0 c -0.229,0 -0.426,-0.028 -0.592,-0.085 -0.168,-0.056 -0.305,-0.129 -0.41,-0.215 -0.107,-0.087 -0.185,-0.185 -0.235,-0.295 -0.049,-0.11 -0.073,-0.214 -0.073,-0.315"
         style="fill:#231f20;fill-opacity:1;fill-rule:nonzero;stroke:none"
         id="path9796"
         inkscape:connector-curvature="0" /><path
         d="m 1115.4629,637.1367 -0.887,0 0,2.23 -1.685,3.98 -0.387,0.09 0,0.5 1.081,0 1.161,-2.91 0.308,-0.89 0.022,0 0.25,0.88 1.06,2.92 0.932,0 -1.855,-4.68 0,-2.12 z"
         style="fill:#231f20;fill-opacity:1;fill-rule:nonzero;stroke:none"
         id="path9800"
         inkscape:connector-curvature="0" /><path
         d="m 1119.4922,644.7871 0.82,1.67 0.842,-0.32 -1.16,-1.55 -0.502,0.2 z m -0.819,-3.2 c 0,-0.613 0.085,-1.075 0.256,-1.385 0.17,-0.311 0.476,-0.466 0.917,-0.466 0.113,0 0.228,0.017 0.347,0.051 0.117,0.033 0.229,0.076 0.335,0.13 0.107,0.053 0.205,0.111 0.296,0.175 0.092,0.063 0.175,0.125 0.25,0.184 l 0,2.731 c -0.174,0.099 -0.385,0.198 -0.631,0.295 -0.247,0.096 -0.496,0.144 -0.746,0.144 -0.25,0 -0.445,-0.068 -0.586,-0.204 -0.14,-0.137 -0.243,-0.302 -0.307,-0.495 -0.065,-0.193 -0.103,-0.398 -0.115,-0.61 -0.01,-0.214 -0.016,-0.397 -0.016,-0.55 m -0.98,-0.101 c 0,0.301 0.026,0.606 0.074,0.915 0.049,0.311 0.147,0.589 0.291,0.835 0.144,0.247 0.343,0.448 0.598,0.606 0.254,0.156 0.586,0.235 0.996,0.235 0.197,0 0.422,-0.044 0.677,-0.131 0.255,-0.086 0.503,-0.21 0.745,-0.369 l 0.16,0.39 0.729,0 0,-4.83 -0.66,0 -0.217,0.5 -0.512,-0.31 c -0.197,-0.114 -0.361,-0.195 -0.49,-0.245 -0.129,-0.051 -0.258,-0.075 -0.387,-0.075 -0.371,0 -0.685,0.068 -0.939,0.205 -0.254,0.137 -0.461,0.319 -0.62,0.55 -0.16,0.23 -0.273,0.495 -0.341,0.795 -0.069,0.299 -0.104,0.61 -0.104,0.929"
         style="fill:#231f20;fill-opacity:1;fill-rule:nonzero;stroke:none"
         id="path9804"
         inkscape:connector-curvature="0" /><path
         d="m 1126.8477,639.0869 c -0.174,0 -0.313,0.019 -0.415,0.055 -0.103,0.037 -0.187,0.085 -0.25,0.145 -0.065,0.06 -0.114,0.13 -0.148,0.21 -0.035,0.08 -0.067,0.163 -0.097,0.25 l -0.672,2.08 -0.25,0.94 -0.034,0 -0.342,-0.93 -1.115,-2.7 -0.888,0 1.537,3.639 0.603,0.551 -0.535,1.75 c -0.046,0.154 -0.113,0.284 -0.2,0.395 -0.087,0.11 -0.245,0.165 -0.471,0.165 -0.092,0 -0.194,-0.01 -0.309,-0.03 l -0.147,0.54 c 0.114,0.04 0.227,0.072 0.341,0.095 0.115,0.023 0.251,0.034 0.41,0.034 0.212,0 0.387,-0.023 0.524,-0.069 0.136,-0.047 0.25,-0.113 0.341,-0.2 0.092,-0.087 0.168,-0.191 0.228,-0.316 0.061,-0.123 0.114,-0.261 0.16,-0.415 l 1.639,-5.269 c 0.037,-0.107 0.088,-0.2 0.153,-0.28 0.065,-0.08 0.173,-0.127 0.325,-0.14 l 0,-0.45 c -0.046,-0.014 -0.105,-0.026 -0.177,-0.035 -0.072,-0.01 -0.143,-0.015 -0.211,-0.015"
         style="fill:#231f20;fill-opacity:1;fill-rule:nonzero;stroke:none"
         id="path9808"
         inkscape:connector-curvature="0" /><path
         d="m 1129.8398,643.4365 c -0.258,0 -0.469,-0.048 -0.631,-0.145 -0.164,-0.096 -0.293,-0.228 -0.387,-0.395 -0.095,-0.166 -0.162,-0.361 -0.199,-0.585 -0.039,-0.224 -0.057,-0.458 -0.057,-0.705 0,-0.286 0.018,-0.55 0.057,-0.79 0.037,-0.239 0.104,-0.448 0.199,-0.625 0.094,-0.177 0.223,-0.314 0.387,-0.41 0.162,-0.097 0.373,-0.145 0.631,-0.145 0.251,0 0.457,0.047 0.621,0.14 0.163,0.094 0.292,0.225 0.387,0.395 0.096,0.17 0.164,0.375 0.205,0.616 0.041,0.239 0.062,0.503 0.062,0.79 0,0.246 -0.018,0.481 -0.056,0.704 -0.038,0.223 -0.107,0.421 -0.205,0.591 -0.099,0.169 -0.23,0.306 -0.393,0.409 -0.164,0.103 -0.37,0.155 -0.621,0.155 m -0.045,-4.439 c -0.394,0 -0.73,0.064 -1.008,0.194 -0.277,0.13 -0.502,0.308 -0.677,0.535 -0.174,0.227 -0.301,0.493 -0.381,0.8 -0.08,0.306 -0.119,0.637 -0.119,0.99 0,0.333 0.037,0.655 0.113,0.965 0.076,0.31 0.203,0.584 0.382,0.82 0.178,0.237 0.409,0.425 0.694,0.566 0.285,0.139 0.632,0.21 1.041,0.21 0.402,0 0.746,-0.066 1.031,-0.196 0.284,-0.13 0.516,-0.308 0.694,-0.535 0.178,-0.226 0.308,-0.493 0.387,-0.8 0.079,-0.306 0.12,-0.633 0.12,-0.98 0,-0.347 -0.041,-0.675 -0.12,-0.984 -0.079,-0.311 -0.21,-0.584 -0.392,-0.821 -0.183,-0.236 -0.417,-0.424 -0.706,-0.559 -0.289,-0.137 -0.641,-0.205 -1.059,-0.205"
         style="fill:#231f20;fill-opacity:1;fill-rule:nonzero;stroke:none"
         id="path9812"
         inkscape:connector-curvature="0" /><path
         d="m 1071.3164,633.0264 -0.205,-0.79 -0.684,-2.34 1.844,0 -0.705,2.34 -0.205,0.79 -0.045,0 z m 1.855,-5.89 -0.671,2.031 -2.3,0 -0.604,-2.031 -1.024,0 2.242,6.84 1.07,0 2.289,-6.84 -1.002,0 z"
         style="fill:#231f20;fill-opacity:1;fill-rule:nonzero;stroke:none"
         id="path9816"
         inkscape:connector-curvature="0" /><path
         d="m 1077.8174,631.9365 0.956,0 -1.935,-4.8 -0.751,0 -2.039,4.8 0.957,0 1.252,-3.16 0.217,-0.64 0.033,0 0.194,0.64 1.116,3.16 z"
         style="fill:#231f20;fill-opacity:1;fill-rule:nonzero;stroke:none"
         id="path9820"
         inkscape:connector-curvature="0" /><path
         d="m 1080.1035,629.5869 c 0,-0.613 0.085,-1.075 0.256,-1.385 0.171,-0.31 0.476,-0.466 0.916,-0.466 0.114,0 0.23,0.017 0.348,0.051 0.117,0.033 0.229,0.076 0.335,0.13 0.106,0.053 0.206,0.111 0.296,0.175 0.091,0.063 0.175,0.125 0.251,0.184 l 0,2.731 c -0.175,0.1 -0.385,0.198 -0.632,0.295 -0.247,0.097 -0.495,0.144 -0.746,0.144 -0.251,0 -0.446,-0.068 -0.586,-0.204 -0.141,-0.136 -0.243,-0.301 -0.307,-0.495 -0.065,-0.193 -0.103,-0.397 -0.114,-0.61 -0.011,-0.214 -0.017,-0.397 -0.017,-0.55 m -0.979,-0.101 c 0,0.301 0.024,0.606 0.074,0.915 0.05,0.311 0.145,0.589 0.29,0.835 0.144,0.247 0.344,0.449 0.597,0.606 0.254,0.156 0.586,0.235 0.997,0.235 0.197,0 0.423,-0.044 0.677,-0.131 0.254,-0.086 0.502,-0.21 0.746,-0.369 l 0.159,0.39 0.728,0 0,-4.83 -0.66,0 -0.216,0.5 -0.513,-0.31 c -0.197,-0.114 -0.359,-0.195 -0.489,-0.245 -0.129,-0.051 -0.258,-0.075 -0.387,-0.075 -0.372,0 -0.684,0.068 -0.939,0.205 -0.255,0.137 -0.461,0.319 -0.62,0.55 -0.16,0.23 -0.274,0.495 -0.342,0.795 -0.068,0.3 -0.102,0.61 -0.102,0.929"
         style="fill:#231f20;fill-opacity:1;fill-rule:nonzero;stroke:none"
         id="path9824"
         inkscape:connector-curvature="0" /><path
         d="m 1089.5605,627.917 c -0.166,-0.233 -0.365,-0.417 -0.596,-0.55 -0.229,-0.134 -0.47,-0.227 -0.724,-0.28 -0.252,-0.054 -0.466,-0.087 -0.639,-0.101 l 0,-1.849 -0.889,0 0,1.849 c -0.289,0.014 -0.559,0.063 -0.814,0.146 -0.254,0.083 -0.478,0.198 -0.671,0.345 -0.194,0.146 -0.347,0.32 -0.462,0.52 -0.113,0.199 -0.17,0.426 -0.17,0.68 l 0,3.26 0.888,0 0,-3.3 c 0,-0.107 0.032,-0.217 0.097,-0.33 0.064,-0.114 0.154,-0.217 0.267,-0.31 0.113,-0.094 0.245,-0.174 0.393,-0.24 0.148,-0.067 0.305,-0.107 0.472,-0.12 l 0,4.44 0.889,0 0,-4.44 c 0.105,0.007 0.232,0.03 0.383,0.07 0.15,0.04 0.295,0.102 0.434,0.185 0.14,0.083 0.258,0.193 0.357,0.33 0.097,0.136 0.146,0.311 0.146,0.525 l 0,3.19 0.888,0 0,-3.11 c 0,-0.374 -0.083,-0.677 -0.249,-0.91"
         style="fill:#231f20;fill-opacity:1;fill-rule:nonzero;stroke:none"
         id="path9828"
         inkscape:connector-curvature="0" /><path
         d="m 1093.0723,626.9971 c -0.387,0 -0.711,0.05 -0.973,0.149 -0.261,0.101 -0.472,0.229 -0.631,0.385 -0.16,0.157 -0.274,0.332 -0.342,0.526 -0.069,0.193 -0.103,0.379 -0.103,0.56 l 0,3.319 0.889,0 0,-3.33 c 0,-0.106 0.021,-0.216 0.068,-0.33 0.045,-0.113 0.117,-0.217 0.216,-0.314 0.099,-0.097 0.222,-0.177 0.37,-0.24 0.148,-0.064 0.32,-0.095 0.518,-0.095 0.113,0 0.24,0.016 0.381,0.05 0.14,0.033 0.273,0.09 0.398,0.17 0.126,0.08 0.23,0.19 0.313,0.33 0.084,0.139 0.126,0.32 0.126,0.54 l 0,3.219 0.887,0 0,-3.189 c 0,-0.4 -0.079,-0.717 -0.238,-0.95 -0.16,-0.234 -0.352,-0.408 -0.575,-0.526 -0.224,-0.116 -0.457,-0.191 -0.7,-0.224 -0.243,-0.033 -0.444,-0.05 -0.604,-0.05"
         style="fill:#231f20;fill-opacity:1;fill-rule:nonzero;stroke:none"
         id="path9832"
         inkscape:connector-curvature="0" /><path
         d="m 1100.582,631.9365 -2.333,-2.22 2.345,-2.58 -1.104,0 -2.152,2.45 0,-2.45 -0.888,0 0,4.8 0.888,0 0,-2.13 2.197,2.13 1.047,0 z"
         style="fill:#231f20;fill-opacity:1;fill-rule:nonzero;stroke:none"
         id="path9836"
         inkscape:connector-curvature="0" /><path
         d="m 1103.5078,626.9971 c -0.266,0 -0.482,0.028 -0.65,0.085 -0.17,0.057 -0.301,0.142 -0.395,0.255 -0.094,0.113 -0.156,0.251 -0.19,0.415 -0.035,0.163 -0.051,0.354 -0.051,0.575 l 0,2.98 -1.138,0 0,0.629 3.518,0 0,-0.629 -1.492,0 0,-2.829 c 0,-0.3 0.047,-0.51 0.142,-0.63 0.095,-0.122 0.252,-0.181 0.473,-0.181 0.137,0 0.294,0.008 0.472,0.024 0.178,0.017 0.336,0.042 0.473,0.076 l 0.125,-0.543 c -0.137,-0.06 -0.273,-0.104 -0.41,-0.134 -0.137,-0.03 -0.262,-0.051 -0.375,-0.064 -0.114,-0.013 -0.215,-0.021 -0.303,-0.024 -0.087,-0.004 -0.149,-0.005 -0.187,-0.005 l -0.012,0 z"
         style="fill:#231f20;fill-opacity:1;fill-rule:nonzero;stroke:none"
         id="path9840"
         inkscape:connector-curvature="0" /><path
         d="m 1105.9932,631.3164 -0.603,0.141 0,0.489 1.491,0 0,-4.81 -0.888,0 0,4.18 z"
         style="fill:#231f20;fill-opacity:1;fill-rule:nonzero;stroke:none"
         id="path9844"
         inkscape:connector-curvature="0" /><path
         d="m 1112.3848,631.9365 -2.333,-2.22 2.345,-2.58 -1.104,0 -2.152,2.45 0,-2.45 -0.888,0 0,4.8 0.888,0 0,-2.13 2.197,2.13 1.047,0 z"
         style="fill:#231f20;fill-opacity:1;fill-rule:nonzero;stroke:none"
         id="path9848"
         inkscape:connector-curvature="0" /><path
         d="m 1114.4648,632.7871 0.818,1.67 0.844,-0.32 -1.162,-1.55 -0.5,0.2 z m -0.82,-3.2 c 0,-0.613 0.086,-1.075 0.256,-1.385 0.17,-0.311 0.476,-0.466 0.916,-0.466 0.115,0 0.23,0.017 0.347,0.051 0.117,0.033 0.23,0.076 0.336,0.13 0.107,0.053 0.205,0.111 0.296,0.175 0.091,0.063 0.175,0.125 0.251,0.184 l 0,2.731 c -0.175,0.099 -0.386,0.198 -0.633,0.295 -0.246,0.096 -0.494,0.144 -0.745,0.144 -0.251,0 -0.446,-0.068 -0.586,-0.204 -0.14,-0.137 -0.243,-0.302 -0.307,-0.495 -0.065,-0.193 -0.103,-0.398 -0.114,-0.61 -0.011,-0.214 -0.017,-0.397 -0.017,-0.55 m -0.979,-0.101 c 0,0.301 0.024,0.606 0.074,0.915 0.049,0.311 0.146,0.589 0.289,0.835 0.145,0.247 0.344,0.448 0.598,0.606 0.255,0.156 0.587,0.235 0.996,0.235 0.197,0 0.424,-0.044 0.678,-0.131 0.254,-0.086 0.503,-0.21 0.746,-0.369 l 0.159,0.39 0.729,0 0,-4.83 -0.66,0 -0.216,0.5 -0.513,-0.31 c -0.198,-0.114 -0.36,-0.195 -0.489,-0.245 -0.129,-0.051 -0.259,-0.075 -0.388,-0.075 -0.372,0 -0.684,0.068 -0.938,0.205 -0.255,0.137 -0.461,0.319 -0.621,0.55 -0.16,0.23 -0.274,0.495 -0.342,0.795 -0.069,0.299 -0.102,0.61 -0.102,0.929"
         style="fill:#231f20;fill-opacity:1;fill-rule:nonzero;stroke:none"
         id="path9852"
         inkscape:connector-curvature="0" /><path
         d="m 1069.9951,620.7764 0,-5.64 -0.888,0 0,6.85 1.276,0 1.445,-3.42 0.262,-0.67 0.034,0 0.273,0.681 1.423,3.409 1.264,0 0,-6.85 -0.889,0 0,5.64 -0.033,0 -0.193,-0.529 -1.537,-3.481 -0.661,0 -1.548,3.481 -0.194,0.529 -0.034,0 z"
         style="fill:#231f20;fill-opacity:1;fill-rule:nonzero;stroke:none"
         id="path9856"
         inkscape:connector-curvature="0" /><path
         d="m 1079.6074,619.2871 -2.197,0 0,-4.15 -0.889,0 0,4.799 3.973,0 0,-4.799 -0.887,0 0,4.15 z"
         style="fill:#231f20;fill-opacity:1;fill-rule:nonzero;stroke:none"
         id="path9860"
         inkscape:connector-curvature="0" /><path
         d="m 1083.4824,620.7871 0.82,1.67 0.842,-0.32 -1.16,-1.55 -0.502,0.2 z m 0.479,-5.79 c -0.387,0 -0.711,0.05 -0.973,0.149 -0.263,0.101 -0.473,0.229 -0.633,0.385 -0.159,0.157 -0.273,0.332 -0.342,0.526 -0.068,0.193 -0.101,0.379 -0.101,0.56 l 0,3.319 0.887,0 0,-3.33 c 0,-0.106 0.023,-0.216 0.069,-0.33 0.046,-0.113 0.118,-0.218 0.216,-0.314 0.098,-0.097 0.222,-0.177 0.37,-0.24 0.147,-0.064 0.321,-0.095 0.518,-0.095 0.114,0 0.24,0.016 0.381,0.05 0.141,0.033 0.274,0.089 0.399,0.17 0.125,0.08 0.229,0.19 0.312,0.33 0.084,0.139 0.126,0.32 0.126,0.54 l 0,3.219 0.888,0 0,-3.189 c 0,-0.4 -0.08,-0.717 -0.239,-0.95 -0.16,-0.234 -0.351,-0.408 -0.576,-0.526 -0.222,-0.116 -0.457,-0.191 -0.699,-0.224 -0.243,-0.033 -0.444,-0.05 -0.603,-0.05"
         style="fill:#231f20;fill-opacity:1;fill-rule:nonzero;stroke:none"
         id="path9864"
         inkscape:connector-curvature="0" /><path
         d="m 1090.6641,617.4863 c 0,0.613 -0.098,1.091 -0.295,1.431 -0.197,0.34 -0.539,0.509 -1.025,0.509 -0.114,0 -0.243,-0.018 -0.387,-0.054 -0.145,-0.037 -0.277,-0.115 -0.398,-0.231 -0.122,-0.116 -0.224,-0.281 -0.307,-0.495 -0.084,-0.213 -0.126,-0.496 -0.126,-0.849 l 0,-1.731 c 0.175,-0.1 0.386,-0.198 0.632,-0.295 0.246,-0.097 0.495,-0.144 0.746,-0.144 0.25,0 0.453,0.068 0.609,0.205 0.155,0.136 0.273,0.3 0.352,0.495 0.08,0.192 0.133,0.396 0.16,0.609 0.026,0.214 0.039,0.397 0.039,0.55 m 0.957,0.051 c 0,-0.301 -0.038,-0.601 -0.114,-0.901 -0.076,-0.299 -0.2,-0.573 -0.371,-0.82 -0.171,-0.246 -0.397,-0.446 -0.675,-0.6 -0.277,-0.153 -0.621,-0.23 -1.033,-0.23 -0.175,0 -0.379,0.035 -0.612,0.105 -0.232,0.071 -0.462,0.192 -0.69,0.366 l 0,-2.321 -0.888,0 0,4.491 c 0,0.559 0.08,1.001 0.239,1.325 0.161,0.323 0.355,0.566 0.583,0.729 0.228,0.163 0.465,0.267 0.713,0.311 0.247,0.043 0.462,0.064 0.645,0.064 0.403,0 0.744,-0.064 1.021,-0.195 0.278,-0.13 0.504,-0.308 0.68,-0.534 0.175,-0.228 0.303,-0.494 0.382,-0.801 0.08,-0.307 0.12,-0.637 0.12,-0.989"
         style="fill:#231f20;fill-opacity:1;fill-rule:nonzero;stroke:none"
         id="path9868"
         inkscape:connector-curvature="0" /><path
         d="m 1093.459,616.4766 c 0,-0.253 0.081,-0.45 0.244,-0.59 0.163,-0.139 0.416,-0.21 0.758,-0.21 0.287,0 0.557,0.022 0.808,0.066 0.251,0.043 0.508,0.118 0.774,0.224 l 0.273,-0.58 c -0.289,-0.146 -0.578,-0.247 -0.865,-0.3 -0.289,-0.053 -0.615,-0.08 -0.979,-0.08 -0.236,0 -0.469,0.025 -0.7,0.075 -0.232,0.05 -0.441,0.131 -0.626,0.246 -0.187,0.113 -0.336,0.26 -0.451,0.444 -0.113,0.184 -0.17,0.405 -0.17,0.665 0,0.254 0.078,0.492 0.233,0.715 0.156,0.223 0.392,0.386 0.712,0.485 l 0,0.03 -0.592,0.27 c -0.091,0.04 -0.163,0.125 -0.216,0.255 -0.054,0.13 -0.08,0.262 -0.08,0.395 0,0.234 0.053,0.442 0.159,0.625 0.107,0.183 0.251,0.34 0.433,0.47 0.181,0.13 0.392,0.231 0.632,0.3 0.239,0.07 0.495,0.105 0.768,0.105 0.242,0 0.486,-0.021 0.729,-0.065 0.242,-0.043 0.547,-0.139 0.91,-0.285 l -0.284,-0.59 c -0.228,0.094 -0.443,0.155 -0.644,0.185 -0.201,0.03 -0.392,0.045 -0.574,0.045 -0.084,0 -0.189,-0.008 -0.318,-0.025 -0.13,-0.017 -0.259,-0.05 -0.388,-0.1 -0.129,-0.049 -0.239,-0.12 -0.33,-0.21 -0.091,-0.089 -0.137,-0.209 -0.137,-0.355 0,-0.16 0.044,-0.285 0.131,-0.375 0.087,-0.09 0.195,-0.155 0.325,-0.194 0.129,-0.04 0.271,-0.066 0.426,-0.076 0.156,-0.01 0.299,-0.015 0.428,-0.015 l 0.557,0 0,-0.64 -0.637,0 c -0.228,0 -0.426,-0.028 -0.592,-0.085 -0.167,-0.056 -0.304,-0.129 -0.41,-0.215 -0.106,-0.087 -0.184,-0.185 -0.234,-0.295 -0.05,-0.11 -0.073,-0.214 -0.073,-0.315"
         style="fill:#231f20;fill-opacity:1;fill-rule:nonzero;stroke:none"
         id="path9872"
         inkscape:connector-curvature="0" /><path
         d="m 1098.5488,614.9971 c -0.288,0 -0.574,0.024 -0.859,0.074 -0.286,0.051 -0.514,0.113 -0.689,0.186 l 0.228,0.59 c 0.205,-0.074 0.422,-0.13 0.648,-0.17 0.229,-0.04 0.448,-0.06 0.66,-0.06 0.366,0 0.654,0.058 0.866,0.175 0.212,0.116 0.319,0.328 0.319,0.635 0,0.286 -0.085,0.495 -0.257,0.625 -0.17,0.13 -0.437,0.241 -0.802,0.335 -0.205,0.053 -0.4,0.108 -0.587,0.165 -0.185,0.056 -0.348,0.133 -0.489,0.229 -0.14,0.097 -0.255,0.222 -0.341,0.375 -0.088,0.154 -0.131,0.354 -0.131,0.601 0,0.246 0.057,0.455 0.17,0.625 0.115,0.17 0.258,0.306 0.433,0.41 0.175,0.102 0.37,0.178 0.587,0.225 0.216,0.046 0.426,0.07 0.631,0.07 0.297,0 0.571,-0.026 0.826,-0.075 0.254,-0.05 0.441,-0.102 0.562,-0.156 l -0.204,-0.58 c -0.175,0.054 -0.364,0.094 -0.569,0.12 -0.205,0.027 -0.387,0.04 -0.547,0.04 -0.69,0 -1.035,-0.226 -1.035,-0.679 0,-0.127 0.026,-0.231 0.08,-0.311 0.053,-0.079 0.125,-0.144 0.216,-0.194 0.091,-0.05 0.197,-0.094 0.318,-0.13 0.122,-0.037 0.251,-0.072 0.388,-0.105 0.189,-0.054 0.381,-0.112 0.574,-0.175 0.193,-0.064 0.368,-0.154 0.524,-0.271 0.156,-0.116 0.281,-0.262 0.376,-0.439 0.094,-0.177 0.142,-0.406 0.142,-0.686 0,-0.26 -0.054,-0.481 -0.159,-0.665 -0.108,-0.182 -0.253,-0.333 -0.439,-0.449 -0.186,-0.117 -0.402,-0.202 -0.649,-0.255 -0.246,-0.054 -0.51,-0.08 -0.791,-0.08"
         style="fill:#231f20;fill-opacity:1;fill-rule:nonzero;stroke:none"
         id="path9876"
         inkscape:connector-curvature="0" /><path
         d="m 1073.9453,603.1367 -1.139,0 -2.685,3.32 -0.035,-0.01 0,-3.31 -0.955,0 0,6.84 0.955,0 0,-3.16 0.035,-0.01 2.822,3.17 1.025,0 -2.961,-3.32 2.938,-3.52 z"
         style="fill:#231f20;fill-opacity:1;fill-rule:nonzero;stroke:none"
         id="path9880"
         inkscape:connector-curvature="0" /><path
         d="m 1078.1025,605.4863 c 0,0.613 -0.099,1.091 -0.296,1.431 -0.197,0.34 -0.539,0.509 -1.024,0.509 -0.115,0 -0.243,-0.018 -0.388,-0.054 -0.144,-0.037 -0.276,-0.115 -0.398,-0.231 -0.122,-0.116 -0.223,-0.281 -0.307,-0.495 -0.084,-0.213 -0.125,-0.496 -0.125,-0.849 l 0,-1.731 c 0.174,-0.1 0.385,-0.198 0.631,-0.295 0.247,-0.097 0.496,-0.144 0.746,-0.144 0.25,0 0.453,0.068 0.609,0.205 0.156,0.136 0.274,0.3 0.353,0.495 0.08,0.192 0.133,0.396 0.159,0.609 0.027,0.214 0.04,0.397 0.04,0.55 m 0.956,0.051 c 0,-0.301 -0.037,-0.601 -0.113,-0.901 -0.076,-0.299 -0.2,-0.573 -0.371,-0.82 -0.172,-0.246 -0.397,-0.446 -0.675,-0.6 -0.278,-0.153 -0.622,-0.23 -1.033,-0.23 -0.175,0 -0.379,0.035 -0.612,0.105 -0.232,0.071 -0.462,0.192 -0.69,0.366 l 0,-2.321 -0.889,0 0,4.491 c 0,0.559 0.08,1.001 0.24,1.325 0.161,0.323 0.354,0.566 0.583,0.729 0.228,0.163 0.465,0.267 0.712,0.311 0.248,0.043 0.463,0.064 0.645,0.064 0.404,0 0.744,-0.064 1.022,-0.195 0.278,-0.13 0.504,-0.308 0.679,-0.534 0.176,-0.228 0.303,-0.494 0.383,-0.801 0.08,-0.307 0.119,-0.637 0.119,-0.989"
         style="fill:#231f20;fill-opacity:1;fill-rule:nonzero;stroke:none"
         id="path9884"
         inkscape:connector-curvature="0" /><path
         d="m 1080.8965,605.5869 c 0,-0.613 0.085,-1.075 0.256,-1.385 0.171,-0.31 0.476,-0.466 0.916,-0.466 0.114,0 0.23,0.017 0.348,0.051 0.117,0.033 0.229,0.076 0.335,0.13 0.106,0.053 0.206,0.111 0.296,0.175 0.091,0.063 0.175,0.125 0.251,0.184 l 0,2.731 c -0.175,0.1 -0.385,0.198 -0.632,0.295 -0.247,0.097 -0.495,0.144 -0.746,0.144 -0.251,0 -0.446,-0.068 -0.586,-0.204 -0.141,-0.136 -0.243,-0.301 -0.307,-0.495 -0.065,-0.193 -0.103,-0.397 -0.114,-0.61 -0.011,-0.214 -0.017,-0.397 -0.017,-0.55 m -0.979,-0.101 c 0,0.301 0.024,0.606 0.074,0.915 0.05,0.311 0.145,0.589 0.29,0.835 0.144,0.247 0.344,0.449 0.597,0.606 0.254,0.156 0.586,0.235 0.997,0.235 0.197,0 0.423,-0.044 0.677,-0.131 0.254,-0.086 0.502,-0.21 0.746,-0.369 l 0.159,0.39 0.728,0 0,-4.83 -0.66,0 -0.216,0.5 -0.513,-0.31 c -0.197,-0.114 -0.359,-0.195 -0.489,-0.245 -0.129,-0.051 -0.258,-0.075 -0.387,-0.075 -0.372,0 -0.684,0.068 -0.939,0.205 -0.255,0.137 -0.461,0.319 -0.62,0.55 -0.16,0.23 -0.274,0.495 -0.342,0.795 -0.068,0.3 -0.102,0.61 -0.102,0.929"
         style="fill:#231f20;fill-opacity:1;fill-rule:nonzero;stroke:none"
         id="path9888"
         inkscape:connector-curvature="0" /><path
         d="m 1087.4492,607.3066 c -0.251,0 -0.459,-0.049 -0.627,-0.145 -0.166,-0.096 -0.301,-0.225 -0.404,-0.385 -0.102,-0.159 -0.174,-0.347 -0.216,-0.56 -0.042,-0.214 -0.063,-0.44 -0.063,-0.68 0,-0.28 0.021,-0.535 0.063,-0.765 0.042,-0.23 0.114,-0.43 0.216,-0.6 0.103,-0.17 0.238,-0.302 0.404,-0.395 0.168,-0.093 0.38,-0.14 0.639,-0.14 0.25,0 0.457,0.045 0.619,0.135 0.164,0.09 0.297,0.219 0.398,0.385 0.104,0.167 0.176,0.363 0.217,0.59 0.041,0.227 0.063,0.48 0.063,0.76 0,0.213 -0.022,0.416 -0.063,0.611 -0.041,0.192 -0.113,0.369 -0.217,0.529 -0.101,0.16 -0.236,0.297 -0.404,0.41 -0.166,0.113 -0.375,0.196 -0.625,0.25 m 1.559,-0.02 c 0.258,-0.2 0.441,-0.459 0.546,-0.78 0.107,-0.32 0.161,-0.657 0.161,-1.01 0,-0.34 -0.045,-0.662 -0.131,-0.965 -0.088,-0.303 -0.227,-0.569 -0.416,-0.795 -0.19,-0.227 -0.432,-0.407 -0.723,-0.54 -0.293,-0.133 -0.647,-0.2 -1.064,-0.2 -0.387,0 -0.719,0.064 -0.996,0.19 -0.278,0.127 -0.506,0.3 -0.684,0.52 -0.178,0.22 -0.309,0.478 -0.393,0.775 -0.084,0.297 -0.125,0.618 -0.125,0.965 0,0.334 0.043,0.652 0.131,0.955 0.087,0.303 0.224,0.568 0.41,0.795 0.186,0.226 0.424,0.407 0.717,0.54 0.292,0.133 0.643,0.2 1.053,0.2 l 2.561,0 0,-0.63 -1.024,0 -0.023,-0.02 z"
         style="fill:#231f20;fill-opacity:1;fill-rule:nonzero;stroke:none"
         id="path9892"
         inkscape:connector-curvature="0" /><path
         d="m 1091.2705,608.7871 0.819,1.67 0.843,-0.32 -1.161,-1.55 -0.501,0.2 z m 0.114,-1.471 -0.603,0.141 0,0.489 1.491,0 0,-4.809 -0.888,0 0,4.179 z"
         style="fill:#231f20;fill-opacity:1;fill-rule:nonzero;stroke:none"
         id="path9896"
         inkscape:connector-curvature="0" /><path
         d="m 1154.1963,642.3564 c 0,0.394 -0.017,0.755 -0.052,1.085 -0.033,0.33 -0.101,0.615 -0.204,0.855 -0.102,0.241 -0.249,0.427 -0.438,0.56 -0.19,0.134 -0.437,0.2 -0.741,0.2 -0.302,0 -0.547,-0.07 -0.734,-0.21 -0.185,-0.139 -0.33,-0.332 -0.432,-0.575 -0.103,-0.243 -0.171,-0.528 -0.205,-0.854 -0.035,-0.328 -0.051,-0.681 -0.051,-1.061 0,-0.394 0.018,-0.755 0.057,-1.085 0.037,-0.33 0.11,-0.615 0.216,-0.854 0.106,-0.241 0.251,-0.427 0.433,-0.561 0.181,-0.133 0.422,-0.2 0.716,-0.2 0.297,0 0.538,0.065 0.723,0.195 0.187,0.13 0.332,0.314 0.44,0.55 0.105,0.237 0.177,0.52 0.215,0.851 0.038,0.33 0.057,0.698 0.057,1.104 m 0.991,0 c 0,-0.493 -0.041,-0.944 -0.12,-1.354 -0.079,-0.411 -0.212,-0.764 -0.398,-1.061 -0.187,-0.297 -0.435,-0.526 -0.745,-0.689 -0.313,-0.164 -0.7,-0.246 -1.163,-0.246 -0.455,0 -0.836,0.082 -1.143,0.246 -0.308,0.163 -0.556,0.391 -0.745,0.684 -0.191,0.294 -0.325,0.647 -0.405,1.061 -0.08,0.413 -0.12,0.866 -0.12,1.359 0,0.507 0.042,0.965 0.126,1.375 0.082,0.41 0.221,0.762 0.414,1.056 0.195,0.293 0.444,0.519 0.746,0.679 0.304,0.161 0.68,0.241 1.127,0.241 0.449,0 0.829,-0.08 1.139,-0.241 0.311,-0.16 0.562,-0.386 0.752,-0.679 0.19,-0.294 0.326,-0.646 0.409,-1.056 0.083,-0.41 0.126,-0.868 0.126,-1.375"
         style="fill:#7c8c36;fill-opacity:1;fill-rule:nonzero;stroke:none"
         id="path9900"
         inkscape:connector-curvature="0" /><path
         d="m 1156.0342,638.1172 0.308,2.01 1.32,0 -0.979,-2.191 -0.649,0.181 z"
         style="fill:#7c8c36;fill-opacity:1;fill-rule:nonzero;stroke:none"
         id="path9904"
         inkscape:connector-curvature="0" /><path
         d="m 1163.4277,641.207 c 0,-0.374 -0.064,-0.697 -0.193,-0.971 -0.129,-0.273 -0.304,-0.501 -0.524,-0.684 -0.221,-0.184 -0.484,-0.321 -0.791,-0.41 -0.308,-0.09 -0.637,-0.135 -0.985,-0.135 -0.486,0 -0.894,0.051 -1.224,0.152 -0.33,0.103 -0.617,0.239 -0.859,0.41 l 0.41,0.587 c 0.242,-0.133 0.492,-0.236 0.75,-0.309 0.259,-0.074 0.535,-0.111 0.832,-0.111 0.228,0 0.436,0.028 0.626,0.081 0.189,0.053 0.356,0.135 0.501,0.245 0.144,0.111 0.256,0.25 0.336,0.417 0.08,0.167 0.119,0.369 0.119,0.603 0,0.461 -0.125,0.811 -0.375,1.048 -0.251,0.238 -0.639,0.356 -1.162,0.356 -0.205,0 -0.397,-0.012 -0.574,-0.04 -0.179,-0.026 -0.356,-0.066 -0.53,-0.119 l -0.478,0.22 0.25,3.05 3.563,0 0,-0.73 -2.743,0 -0.148,-1.75 c 0.098,0.027 0.219,0.05 0.359,0.069 0.14,0.021 0.313,0.031 0.518,0.031 0.326,0 0.632,-0.042 0.916,-0.125 0.285,-0.084 0.531,-0.21 0.74,-0.38 0.209,-0.17 0.371,-0.38 0.489,-0.63 0.118,-0.25 0.177,-0.542 0.177,-0.875"
         style="fill:#7c8c36;fill-opacity:1;fill-rule:nonzero;stroke:none"
         id="path9908"
         inkscape:connector-curvature="0" /><path
         d="m 1168.1406,642.3564 c 0,0.394 -0.018,0.755 -0.051,1.085 -0.035,0.33 -0.102,0.615 -0.205,0.855 -0.102,0.241 -0.249,0.427 -0.438,0.56 -0.191,0.134 -0.437,0.2 -0.74,0.2 -0.304,0 -0.548,-0.07 -0.734,-0.21 -0.186,-0.139 -0.33,-0.332 -0.434,-0.575 -0.101,-0.243 -0.169,-0.528 -0.205,-0.854 -0.033,-0.328 -0.05,-0.681 -0.05,-1.061 0,-0.394 0.019,-0.755 0.056,-1.085 0.039,-0.33 0.111,-0.615 0.217,-0.854 0.105,-0.241 0.25,-0.427 0.433,-0.561 0.182,-0.133 0.421,-0.2 0.717,-0.2 0.295,0 0.537,0.065 0.723,0.195 0.186,0.13 0.332,0.314 0.438,0.55 0.106,0.237 0.178,0.52 0.216,0.851 0.037,0.33 0.057,0.698 0.057,1.104 m 0.99,0 c 0,-0.493 -0.039,-0.944 -0.119,-1.354 -0.08,-0.411 -0.213,-0.764 -0.398,-1.061 -0.186,-0.297 -0.435,-0.526 -0.746,-0.689 -0.311,-0.164 -0.698,-0.246 -1.161,-0.246 -0.456,0 -0.837,0.082 -1.144,0.246 -0.308,0.163 -0.557,0.391 -0.746,0.684 -0.19,0.294 -0.324,0.647 -0.405,1.061 -0.079,0.413 -0.119,0.866 -0.119,1.359 0,0.507 0.041,0.965 0.125,1.375 0.084,0.41 0.223,0.762 0.416,1.056 0.194,0.293 0.442,0.519 0.746,0.679 0.303,0.161 0.678,0.241 1.127,0.241 0.448,0 0.827,-0.08 1.138,-0.241 0.312,-0.16 0.562,-0.386 0.751,-0.679 0.19,-0.294 0.326,-0.646 0.41,-1.056 0.084,-0.41 0.125,-0.868 0.125,-1.375"
         style="fill:#7c8c36;fill-opacity:1;fill-rule:nonzero;stroke:none"
         id="path9912"
         inkscape:connector-curvature="0" /><path
         d="m 1174.1836,642.167 0,-0.54 -2.493,0 c 0.03,-0.667 0.177,-1.155 0.438,-1.465 0.262,-0.31 0.624,-0.466 1.087,-0.466 0.304,0 0.581,0.042 0.831,0.125 0.25,0.084 0.479,0.189 0.684,0.316 l 0.409,-0.54 c -0.227,-0.174 -0.493,-0.317 -0.797,-0.43 -0.304,-0.113 -0.686,-0.17 -1.149,-0.17 -0.821,0 -1.441,0.234 -1.862,0.705 -0.421,0.47 -0.647,1.111 -0.677,1.925 l -0.763,0 0,0.54 4.292,0 z m -4.292,0.39 0,0.54 0.751,0 c 0.046,0.36 0.126,0.698 0.24,1.014 0.113,0.318 0.273,0.596 0.478,0.835 0.205,0.241 0.461,0.429 0.768,0.566 0.307,0.136 0.674,0.205 1.098,0.205 0.434,0 0.788,-0.044 1.064,-0.13 0.278,-0.087 0.515,-0.177 0.713,-0.271 l -0.377,-0.569 c -0.173,0.086 -0.384,0.153 -0.631,0.199 -0.247,0.047 -0.496,0.071 -0.746,0.071 -0.257,0 -0.48,-0.045 -0.666,-0.135 -0.185,-0.09 -0.341,-0.219 -0.466,-0.385 -0.125,-0.167 -0.224,-0.369 -0.296,-0.605 -0.073,-0.237 -0.12,-0.502 -0.142,-0.795 l 2.504,0 0,-0.54 -4.292,0 z"
         style="fill:#7c8c36;fill-opacity:1;fill-rule:nonzero;stroke:none"
         id="path9916"
         inkscape:connector-curvature="0" /><path
         d="m 1178.4063,638.0566 4.02,8.26 0.808,0 -4.019,-8.26 -0.809,0 z"
         style="fill:#7c8c36;fill-opacity:1;fill-rule:nonzero;stroke:none"
         id="path9920"
         inkscape:connector-curvature="0" /><path
         d="m 1188.2656,639.8672 0,4.981 -1.344,0 0,0.509 2.266,0.409 0,-5.899 1.594,0 0,-0.73 -4.065,0 0,0.73 1.549,0 z"
         style="fill:#7c8c36;fill-opacity:1;fill-rule:nonzero;stroke:none"
         id="path9924"
         inkscape:connector-curvature="0" /><path
         d="m 1191.877,638.1172 0.307,2.01 1.32,0 -0.979,-2.191 -0.648,0.181 z"
         style="fill:#7c8c36;fill-opacity:1;fill-rule:nonzero;stroke:none"
         id="path9928"
         inkscape:connector-curvature="0" /><path
         d="m 1198.2656,642.3564 c 0,0.394 -0.017,0.755 -0.051,1.085 -0.034,0.33 -0.101,0.615 -0.205,0.855 -0.101,0.241 -0.248,0.427 -0.437,0.56 -0.191,0.134 -0.438,0.2 -0.741,0.2 -0.303,0 -0.548,-0.07 -0.734,-0.21 -0.186,-0.139 -0.33,-0.332 -0.433,-0.575 -0.102,-0.243 -0.17,-0.528 -0.205,-0.854 -0.034,-0.328 -0.051,-0.681 -0.051,-1.061 0,-0.394 0.019,-0.755 0.057,-1.085 0.038,-0.33 0.111,-0.615 0.216,-0.854 0.106,-0.241 0.251,-0.427 0.434,-0.561 0.181,-0.133 0.421,-0.2 0.716,-0.2 0.296,0 0.538,0.065 0.723,0.195 0.186,0.13 0.332,0.314 0.439,0.55 0.106,0.237 0.178,0.52 0.215,0.851 0.038,0.33 0.057,0.698 0.057,1.104 m 0.991,0 c 0,-0.493 -0.04,-0.944 -0.12,-1.354 -0.079,-0.411 -0.212,-0.764 -0.398,-1.061 -0.186,-0.297 -0.434,-0.526 -0.745,-0.689 -0.312,-0.164 -0.699,-0.246 -1.162,-0.246 -0.455,0 -0.837,0.082 -1.144,0.246 -0.307,0.163 -0.556,0.391 -0.745,0.684 -0.191,0.294 -0.325,0.647 -0.405,1.061 -0.079,0.413 -0.12,0.866 -0.12,1.359 0,0.507 0.042,0.965 0.126,1.375 0.083,0.41 0.222,0.762 0.415,1.056 0.194,0.293 0.443,0.519 0.746,0.679 0.303,0.161 0.679,0.241 1.127,0.241 0.448,0 0.828,-0.08 1.139,-0.241 0.311,-0.16 0.561,-0.386 0.751,-0.679 0.19,-0.294 0.326,-0.646 0.409,-1.056 0.084,-0.41 0.126,-0.868 0.126,-1.375"
         style="fill:#7c8c36;fill-opacity:1;fill-rule:nonzero;stroke:none"
         id="path9932"
         inkscape:connector-curvature="0" /><path
         d="m 1203.9502,642.3564 c 0,0.394 -0.017,0.755 -0.052,1.085 -0.033,0.33 -0.101,0.615 -0.204,0.855 -0.102,0.241 -0.249,0.427 -0.438,0.56 -0.19,0.134 -0.437,0.2 -0.741,0.2 -0.302,0 -0.547,-0.07 -0.734,-0.21 -0.185,-0.139 -0.33,-0.332 -0.432,-0.575 -0.103,-0.243 -0.171,-0.528 -0.205,-0.854 -0.035,-0.328 -0.051,-0.681 -0.051,-1.061 0,-0.394 0.018,-0.755 0.057,-1.085 0.037,-0.33 0.11,-0.615 0.216,-0.854 0.106,-0.241 0.251,-0.427 0.433,-0.561 0.181,-0.133 0.422,-0.2 0.716,-0.2 0.297,0 0.538,0.065 0.723,0.195 0.187,0.13 0.332,0.314 0.44,0.55 0.105,0.237 0.177,0.52 0.215,0.851 0.038,0.33 0.057,0.698 0.057,1.104 m 0.991,0 c 0,-0.493 -0.041,-0.944 -0.12,-1.354 -0.079,-0.411 -0.212,-0.764 -0.398,-1.061 -0.187,-0.297 -0.435,-0.526 -0.745,-0.689 -0.313,-0.164 -0.7,-0.246 -1.163,-0.246 -0.455,0 -0.836,0.082 -1.143,0.246 -0.308,0.163 -0.556,0.391 -0.745,0.684 -0.191,0.294 -0.325,0.647 -0.405,1.061 -0.08,0.413 -0.12,0.866 -0.12,1.359 0,0.507 0.042,0.965 0.126,1.375 0.082,0.41 0.221,0.762 0.414,1.056 0.195,0.293 0.444,0.519 0.746,0.679 0.304,0.161 0.68,0.241 1.127,0.241 0.449,0 0.829,-0.08 1.139,-0.241 0.311,-0.16 0.562,-0.386 0.752,-0.679 0.19,-0.294 0.326,-0.646 0.409,-1.056 0.083,-0.41 0.126,-0.868 0.126,-1.375"
         style="fill:#7c8c36;fill-opacity:1;fill-rule:nonzero;stroke:none"
         id="path9936"
         inkscape:connector-curvature="0" /><path
         d="m 1209.9932,642.167 0,-0.54 -2.493,0 c 0.03,-0.667 0.176,-1.155 0.438,-1.465 0.262,-0.31 0.624,-0.466 1.087,-0.466 0.304,0 0.58,0.042 0.831,0.125 0.251,0.084 0.478,0.189 0.683,0.316 l 0.41,-0.54 c -0.227,-0.174 -0.493,-0.317 -0.797,-0.43 -0.304,-0.113 -0.687,-0.17 -1.149,-0.17 -0.82,0 -1.441,0.234 -1.862,0.705 -0.42,0.47 -0.647,1.111 -0.677,1.925 l -0.763,0 0,0.54 4.292,0 z m -4.292,0.39 0,0.54 0.752,0 c 0.045,0.36 0.125,0.698 0.238,1.014 0.114,0.318 0.274,0.596 0.479,0.835 0.205,0.241 0.461,0.429 0.768,0.566 0.308,0.136 0.673,0.205 1.099,0.205 0.432,0 0.787,-0.044 1.064,-0.13 0.278,-0.087 0.514,-0.177 0.711,-0.271 l -0.375,-0.569 c -0.175,0.086 -0.385,0.153 -0.632,0.199 -0.247,0.047 -0.495,0.071 -0.746,0.071 -0.257,0 -0.479,-0.045 -0.666,-0.135 -0.186,-0.09 -0.34,-0.219 -0.466,-0.385 -0.125,-0.167 -0.224,-0.369 -0.296,-0.605 -0.073,-0.237 -0.119,-0.502 -0.143,-0.795 l 2.505,0 0,-0.54 -4.292,0 z"
         style="fill:#7c8c36;fill-opacity:1;fill-rule:nonzero;stroke:none"
         id="path9940"
         inkscape:connector-curvature="0" /><path
         d="m 1153.4707,627.8672 0,4.981 -1.344,0 0,0.509 2.266,0.409 0,-5.899 1.594,0 0,-0.73 -4.065,0 0,0.73 1.549,0 z"
         style="fill:#7c8c36;fill-opacity:1;fill-rule:nonzero;stroke:none"
         id="path9944"
         inkscape:connector-curvature="0" /><path
         d="m 1157.0811,626.1172 0.308,2.01 1.32,0 -0.979,-2.191 -0.649,0.181 z"
         style="fill:#7c8c36;fill-opacity:1;fill-rule:nonzero;stroke:none"
         id="path9948"
         inkscape:connector-curvature="0" /><path
         d="m 1163.4707,630.3564 c 0,0.394 -0.018,0.755 -0.051,1.085 -0.035,0.33 -0.102,0.615 -0.205,0.855 -0.102,0.241 -0.249,0.427 -0.438,0.56 -0.191,0.134 -0.437,0.2 -0.74,0.2 -0.304,0 -0.548,-0.07 -0.734,-0.21 -0.186,-0.139 -0.33,-0.332 -0.434,-0.575 -0.101,-0.243 -0.169,-0.528 -0.205,-0.854 -0.033,-0.328 -0.05,-0.681 -0.05,-1.061 0,-0.394 0.019,-0.755 0.056,-1.085 0.039,-0.33 0.111,-0.615 0.217,-0.854 0.105,-0.241 0.25,-0.427 0.433,-0.561 0.182,-0.133 0.421,-0.2 0.717,-0.2 0.295,0 0.537,0.065 0.723,0.195 0.186,0.13 0.332,0.314 0.438,0.55 0.106,0.237 0.178,0.52 0.216,0.851 0.037,0.33 0.057,0.698 0.057,1.104 m 0.99,0 c 0,-0.493 -0.039,-0.944 -0.119,-1.354 -0.08,-0.411 -0.213,-0.764 -0.398,-1.061 -0.186,-0.297 -0.435,-0.526 -0.746,-0.689 -0.311,-0.164 -0.698,-0.246 -1.161,-0.246 -0.456,0 -0.837,0.082 -1.144,0.246 -0.308,0.163 -0.557,0.391 -0.746,0.684 -0.19,0.294 -0.324,0.647 -0.405,1.061 -0.079,0.413 -0.119,0.866 -0.119,1.359 0,0.507 0.041,0.965 0.125,1.375 0.084,0.41 0.223,0.762 0.416,1.056 0.194,0.293 0.442,0.519 0.746,0.679 0.303,0.161 0.678,0.241 1.127,0.241 0.448,0 0.827,-0.08 1.138,-0.241 0.312,-0.16 0.562,-0.386 0.751,-0.679 0.19,-0.294 0.326,-0.646 0.41,-1.056 0.084,-0.41 0.125,-0.868 0.125,-1.375"
         style="fill:#7c8c36;fill-opacity:1;fill-rule:nonzero;stroke:none"
         id="path9952"
         inkscape:connector-curvature="0" /><path
         d="m 1169.1543,630.3564 c 0,0.394 -0.017,0.755 -0.051,1.085 -0.034,0.33 -0.101,0.615 -0.205,0.855 -0.101,0.241 -0.248,0.427 -0.437,0.56 -0.191,0.134 -0.438,0.2 -0.741,0.2 -0.303,0 -0.548,-0.07 -0.734,-0.21 -0.186,-0.139 -0.33,-0.332 -0.433,-0.575 -0.102,-0.243 -0.17,-0.528 -0.205,-0.854 -0.034,-0.328 -0.051,-0.681 -0.051,-1.061 0,-0.394 0.019,-0.755 0.057,-1.085 0.038,-0.33 0.111,-0.615 0.216,-0.854 0.106,-0.241 0.251,-0.427 0.434,-0.561 0.181,-0.133 0.421,-0.2 0.716,-0.2 0.296,0 0.538,0.065 0.723,0.195 0.186,0.13 0.332,0.314 0.439,0.55 0.106,0.237 0.178,0.52 0.215,0.851 0.038,0.33 0.057,0.698 0.057,1.104 m 0.991,0 c 0,-0.493 -0.04,-0.944 -0.12,-1.354 -0.079,-0.411 -0.212,-0.764 -0.398,-1.061 -0.186,-0.297 -0.434,-0.526 -0.745,-0.689 -0.312,-0.164 -0.699,-0.246 -1.162,-0.246 -0.455,0 -0.837,0.082 -1.144,0.246 -0.307,0.163 -0.556,0.391 -0.745,0.684 -0.191,0.294 -0.325,0.647 -0.405,1.061 -0.079,0.413 -0.12,0.866 -0.12,1.359 0,0.507 0.042,0.965 0.126,1.375 0.083,0.41 0.222,0.762 0.415,1.056 0.194,0.293 0.443,0.519 0.746,0.679 0.303,0.161 0.679,0.241 1.127,0.241 0.448,0 0.828,-0.08 1.139,-0.241 0.311,-0.16 0.561,-0.386 0.751,-0.679 0.19,-0.294 0.326,-0.646 0.409,-1.056 0.084,-0.41 0.126,-0.868 0.126,-1.375"
         style="fill:#7c8c36;fill-opacity:1;fill-rule:nonzero;stroke:none"
         id="path9956"
         inkscape:connector-curvature="0" /><path
         d="m 1175.1973,630.167 0,-0.54 -2.492,0 c 0.029,-0.667 0.176,-1.155 0.437,-1.465 0.262,-0.31 0.625,-0.466 1.088,-0.466 0.303,0 0.58,0.042 0.83,0.125 0.251,0.084 0.479,0.189 0.684,0.316 l 0.41,-0.54 c -0.228,-0.174 -0.494,-0.317 -0.797,-0.43 -0.305,-0.113 -0.687,-0.17 -1.15,-0.17 -0.82,0 -1.44,0.234 -1.862,0.705 -0.42,0.47 -0.646,1.111 -0.677,1.925 l -0.762,0 0,0.54 4.291,0 z m -4.291,0.39 0,0.54 0.751,0 c 0.046,0.36 0.126,0.698 0.239,1.014 0.113,0.318 0.274,0.596 0.479,0.835 0.205,0.241 0.461,0.429 0.767,0.566 0.308,0.136 0.674,0.205 1.099,0.205 0.433,0 0.788,-0.044 1.064,-0.13 0.278,-0.087 0.515,-0.177 0.712,-0.271 l -0.376,-0.569 c -0.174,0.086 -0.385,0.153 -0.632,0.199 -0.246,0.047 -0.495,0.071 -0.746,0.071 -0.257,0 -0.479,-0.045 -0.666,-0.135 -0.185,-0.09 -0.34,-0.219 -0.466,-0.385 -0.125,-0.167 -0.223,-0.369 -0.295,-0.605 -0.073,-0.237 -0.12,-0.502 -0.143,-0.795 l 2.504,0 0,-0.54 -4.291,0 z"
         style="fill:#7c8c36;fill-opacity:1;fill-rule:nonzero;stroke:none"
         id="path9960"
         inkscape:connector-curvature="0" /><path
         inkscape:connector-curvature="0"
         id="path9962"
         style="fill:#7c8c36;fill-opacity:1;fill-rule:nonzero;stroke:none"
         d="m 1179.637,630.047 2.836,0 0,-0.71 -2.836,0 0,0.71 z" /><path
         d="m 1188.2324,627.8672 0,4.981 -1.344,0 0,0.509 2.266,0.409 0,-5.899 1.594,0 0,-0.73 -4.065,0 0,0.73 1.549,0 z"
         style="fill:#7c8c36;fill-opacity:1;fill-rule:nonzero;stroke:none"
         id="path9966"
         inkscape:connector-curvature="0" /><path
         d="m 1191.8438,626.1172 0.307,2.01 1.321,0 -0.98,-2.191 -0.648,0.181 z"
         style="fill:#7c8c36;fill-opacity:1;fill-rule:nonzero;stroke:none"
         id="path9970"
         inkscape:connector-curvature="0" /><path
         d="m 1199.2373,629.207 c 0,-0.374 -0.064,-0.697 -0.194,-0.971 -0.129,-0.273 -0.303,-0.501 -0.524,-0.684 -0.22,-0.184 -0.483,-0.321 -0.791,-0.41 -0.306,-0.09 -0.635,-0.135 -0.984,-0.135 -0.486,0 -0.894,0.051 -1.224,0.152 -0.33,0.103 -0.616,0.239 -0.86,0.41 l 0.41,0.587 c 0.243,-0.133 0.494,-0.236 0.752,-0.309 0.258,-0.074 0.535,-0.111 0.83,-0.111 0.229,0 0.438,0.028 0.627,0.081 0.189,0.053 0.356,0.135 0.501,0.245 0.144,0.111 0.256,0.25 0.335,0.417 0.08,0.167 0.12,0.369 0.12,0.603 0,0.461 -0.125,0.811 -0.376,1.048 -0.25,0.238 -0.637,0.356 -1.16,0.356 -0.205,0 -0.398,-0.012 -0.576,-0.04 -0.178,-0.026 -0.354,-0.066 -0.53,-0.119 l -0.477,0.22 0.251,3.05 3.562,0 0,-0.73 -2.743,0 -0.148,-1.75 c 0.098,0.027 0.218,0.05 0.358,0.069 0.141,0.021 0.314,0.031 0.519,0.031 0.326,0 0.632,-0.042 0.916,-0.125 0.284,-0.084 0.531,-0.21 0.74,-0.38 0.208,-0.17 0.372,-0.38 0.489,-0.63 0.117,-0.25 0.177,-0.542 0.177,-0.875"
         style="fill:#7c8c36;fill-opacity:1;fill-rule:nonzero;stroke:none"
         id="path9974"
         inkscape:connector-curvature="0" /><path
         d="m 1203.9502,630.3564 c 0,0.394 -0.017,0.755 -0.052,1.085 -0.033,0.33 -0.101,0.615 -0.204,0.855 -0.102,0.241 -0.249,0.427 -0.438,0.56 -0.19,0.134 -0.437,0.2 -0.741,0.2 -0.302,0 -0.547,-0.07 -0.734,-0.21 -0.185,-0.139 -0.33,-0.332 -0.432,-0.575 -0.103,-0.243 -0.171,-0.528 -0.205,-0.854 -0.035,-0.328 -0.051,-0.681 -0.051,-1.061 0,-0.394 0.018,-0.755 0.057,-1.085 0.037,-0.33 0.11,-0.615 0.216,-0.854 0.106,-0.241 0.251,-0.427 0.433,-0.561 0.181,-0.133 0.422,-0.2 0.716,-0.2 0.297,0 0.538,0.065 0.723,0.195 0.187,0.13 0.332,0.314 0.44,0.55 0.105,0.237 0.177,0.52 0.215,0.851 0.038,0.33 0.057,0.698 0.057,1.104 m 0.991,0 c 0,-0.493 -0.041,-0.944 -0.12,-1.354 -0.079,-0.411 -0.212,-0.764 -0.398,-1.061 -0.187,-0.297 -0.435,-0.526 -0.745,-0.689 -0.313,-0.164 -0.7,-0.246 -1.163,-0.246 -0.455,0 -0.836,0.082 -1.143,0.246 -0.308,0.163 -0.556,0.391 -0.745,0.684 -0.191,0.294 -0.325,0.647 -0.405,1.061 -0.08,0.413 -0.12,0.866 -0.12,1.359 0,0.507 0.042,0.965 0.126,1.375 0.082,0.41 0.221,0.762 0.414,1.056 0.195,0.293 0.444,0.519 0.746,0.679 0.304,0.161 0.68,0.241 1.127,0.241 0.449,0 0.829,-0.08 1.139,-0.241 0.311,-0.16 0.562,-0.386 0.752,-0.679 0.19,-0.294 0.326,-0.646 0.409,-1.056 0.083,-0.41 0.126,-0.868 0.126,-1.375"
         style="fill:#7c8c36;fill-opacity:1;fill-rule:nonzero;stroke:none"
         id="path9978"
         inkscape:connector-curvature="0" /><path
         d="m 1209.9941,630.167 0,-0.54 -2.494,0 c 0.031,-0.667 0.177,-1.155 0.439,-1.465 0.262,-0.31 0.623,-0.466 1.086,-0.466 0.305,0 0.581,0.042 0.832,0.125 0.25,0.084 0.478,0.189 0.683,0.316 l 0.409,-0.54 c -0.226,-0.174 -0.492,-0.317 -0.797,-0.43 -0.303,-0.113 -0.686,-0.17 -1.148,-0.17 -0.821,0 -1.442,0.234 -1.862,0.705 -0.421,0.47 -0.648,1.111 -0.677,1.925 l -0.764,0 0,0.54 4.293,0 z m -4.293,0.39 0,0.54 0.752,0 c 0.045,0.36 0.125,0.698 0.239,1.014 0.114,0.318 0.273,0.596 0.478,0.835 0.205,0.241 0.461,0.429 0.769,0.566 0.307,0.136 0.673,0.205 1.098,0.205 0.433,0 0.787,-0.044 1.064,-0.13 0.278,-0.087 0.514,-0.177 0.712,-0.271 l -0.376,-0.569 c -0.174,0.086 -0.384,0.153 -0.631,0.199 -0.248,0.047 -0.496,0.071 -0.746,0.071 -0.257,0 -0.48,-0.045 -0.666,-0.135 -0.186,-0.09 -0.341,-0.219 -0.466,-0.385 -0.125,-0.167 -0.225,-0.369 -0.297,-0.605 -0.073,-0.237 -0.119,-0.502 -0.142,-0.795 l 2.505,0 0,-0.54 -4.293,0 z"
         style="fill:#7c8c36;fill-opacity:1;fill-rule:nonzero;stroke:none"
         id="path9982"
         inkscape:connector-curvature="0" /><path
         d="m 1153.5205,615.8672 0,4.981 -1.344,0 0,0.509 2.266,0.409 0,-5.899 1.594,0 0,-0.73 -4.064,0 0,0.73 1.548,0 z"
         style="fill:#7c8c36;fill-opacity:1;fill-rule:nonzero;stroke:none"
         id="path9986"
         inkscape:connector-curvature="0" /><path
         d="m 1157.1309,614.1172 0.309,2.01 1.32,0 -0.98,-2.191 -0.649,0.181 z"
         style="fill:#7c8c36;fill-opacity:1;fill-rule:nonzero;stroke:none"
         id="path9990"
         inkscape:connector-curvature="0" /><path
         d="m 1163.6406,617.127 c 0,0.153 -0.02,0.307 -0.057,0.46 -0.038,0.153 -0.108,0.29 -0.211,0.41 -0.101,0.12 -0.248,0.218 -0.437,0.295 -0.191,0.076 -0.434,0.114 -0.729,0.114 -0.236,0 -0.48,-0.054 -0.734,-0.164 -0.255,-0.11 -0.519,-0.252 -0.792,-0.426 l 0,-0.29 c 0,-0.239 0.028,-0.471 0.085,-0.694 0.058,-0.224 0.148,-0.42 0.273,-0.59 0.125,-0.171 0.288,-0.307 0.485,-0.41 0.197,-0.103 0.435,-0.155 0.717,-0.155 0.212,0 0.404,0.04 0.575,0.12 0.171,0.08 0.317,0.186 0.438,0.32 0.121,0.133 0.217,0.286 0.284,0.46 0.069,0.173 0.103,0.357 0.103,0.55 m -0.672,4.62 c 0.251,0 0.441,-0.009 0.569,-0.025 0.13,-0.017 0.248,-0.035 0.353,-0.055 l -0.113,-0.71 c -0.053,0.006 -0.147,0.015 -0.28,0.024 -0.132,0.011 -0.263,0.016 -0.392,0.016 -0.447,0 -0.819,-0.058 -1.115,-0.176 -0.297,-0.116 -0.536,-0.281 -0.717,-0.494 -0.183,-0.214 -0.321,-0.473 -0.416,-0.78 -0.096,-0.307 -0.158,-0.653 -0.188,-1.04 l 0.866,0.41 c 0.151,0.073 0.3,0.123 0.449,0.149 0.148,0.028 0.275,0.04 0.381,0.04 0.311,0 0.601,-0.041 0.871,-0.125 0.269,-0.083 0.501,-0.205 0.695,-0.364 0.193,-0.16 0.345,-0.36 0.455,-0.6 0.109,-0.241 0.164,-0.517 0.164,-0.83 0,-0.387 -0.06,-0.718 -0.181,-0.996 -0.122,-0.276 -0.291,-0.504 -0.506,-0.684 -0.217,-0.18 -0.471,-0.312 -0.764,-0.396 -0.292,-0.083 -0.613,-0.125 -0.961,-0.125 -0.441,0 -0.816,0.075 -1.127,0.221 -0.312,0.147 -0.566,0.353 -0.764,0.62 -0.197,0.267 -0.341,0.581 -0.431,0.945 -0.092,0.363 -0.137,0.765 -0.137,1.205 0,0.486 0.057,0.958 0.17,1.415 0.114,0.457 0.3,0.858 0.559,1.205 0.257,0.346 0.597,0.625 1.018,0.835 0.421,0.21 0.935,0.315 1.542,0.315"
         style="fill:#7c8c36;fill-opacity:1;fill-rule:nonzero;stroke:none"
         id="path9994"
         inkscape:connector-curvature="0" /><path
         d="m 1169.1709,618.3564 c 0,0.394 -0.017,0.755 -0.052,1.085 -0.033,0.33 -0.101,0.615 -0.204,0.855 -0.102,0.241 -0.249,0.427 -0.438,0.56 -0.19,0.134 -0.437,0.2 -0.741,0.2 -0.302,0 -0.547,-0.07 -0.734,-0.21 -0.185,-0.139 -0.33,-0.332 -0.432,-0.575 -0.103,-0.243 -0.171,-0.528 -0.205,-0.854 -0.035,-0.328 -0.051,-0.681 -0.051,-1.061 0,-0.394 0.018,-0.755 0.057,-1.085 0.037,-0.33 0.11,-0.615 0.216,-0.854 0.106,-0.241 0.251,-0.427 0.433,-0.561 0.181,-0.133 0.422,-0.2 0.716,-0.2 0.297,0 0.538,0.065 0.723,0.195 0.187,0.13 0.332,0.314 0.44,0.55 0.105,0.237 0.177,0.52 0.215,0.851 0.038,0.33 0.057,0.698 0.057,1.104 m 0.991,0 c 0,-0.493 -0.041,-0.944 -0.12,-1.354 -0.079,-0.411 -0.212,-0.764 -0.398,-1.061 -0.187,-0.297 -0.435,-0.526 -0.745,-0.689 -0.313,-0.164 -0.7,-0.246 -1.163,-0.246 -0.455,0 -0.836,0.082 -1.143,0.246 -0.308,0.163 -0.556,0.391 -0.745,0.684 -0.191,0.294 -0.325,0.647 -0.405,1.061 -0.08,0.413 -0.12,0.866 -0.12,1.359 0,0.507 0.042,0.965 0.126,1.375 0.082,0.41 0.221,0.762 0.414,1.056 0.195,0.293 0.444,0.519 0.746,0.679 0.304,0.161 0.68,0.241 1.127,0.241 0.449,0 0.829,-0.08 1.139,-0.241 0.311,-0.16 0.562,-0.386 0.752,-0.679 0.19,-0.294 0.326,-0.646 0.409,-1.056 0.083,-0.41 0.126,-0.868 0.126,-1.375"
         style="fill:#7c8c36;fill-opacity:1;fill-rule:nonzero;stroke:none"
         id="path9998"
         inkscape:connector-curvature="0" /><path
         d="m 1175.2139,618.167 0,-0.54 -2.493,0 c 0.03,-0.667 0.176,-1.155 0.438,-1.465 0.262,-0.31 0.624,-0.466 1.087,-0.466 0.304,0 0.58,0.042 0.831,0.125 0.251,0.084 0.478,0.189 0.683,0.316 l 0.41,-0.54 c -0.227,-0.174 -0.493,-0.317 -0.797,-0.43 -0.304,-0.113 -0.687,-0.17 -1.149,-0.17 -0.82,0 -1.441,0.234 -1.862,0.705 -0.42,0.47 -0.647,1.111 -0.677,1.925 l -0.763,0 0,0.54 4.292,0 z m -4.292,0.39 0,0.54 0.752,0 c 0.045,0.36 0.125,0.698 0.238,1.014 0.114,0.318 0.274,0.596 0.479,0.835 0.205,0.241 0.461,0.429 0.768,0.566 0.308,0.136 0.673,0.205 1.099,0.205 0.432,0 0.787,-0.044 1.064,-0.13 0.278,-0.087 0.514,-0.177 0.711,-0.271 l -0.375,-0.569 c -0.175,0.086 -0.385,0.153 -0.632,0.199 -0.247,0.047 -0.495,0.071 -0.746,0.071 -0.257,0 -0.479,-0.045 -0.666,-0.135 -0.186,-0.09 -0.34,-0.219 -0.466,-0.385 -0.125,-0.167 -0.224,-0.369 -0.296,-0.605 -0.073,-0.237 -0.119,-0.502 -0.143,-0.795 l 2.505,0 0,-0.54 -4.292,0 z"
         style="fill:#7c8c36;fill-opacity:1;fill-rule:nonzero;stroke:none"
         id="path10002"
         inkscape:connector-curvature="0" /><path
         inkscape:connector-curvature="0"
         id="path10004"
         style="fill:#7c8c36;fill-opacity:1;fill-rule:nonzero;stroke:none"
         d="m 1179.653,618.047 2.835,0 0,-0.71 -2.835,0 0,0.71 z" /><path
         d="m 1186.4609,615.1367 -0.125,0.58 1.787,1.7 c 0.221,0.206 0.425,0.42 0.615,0.64 0.19,0.22 0.356,0.438 0.5,0.655 0.145,0.217 0.256,0.43 0.336,0.64 0.08,0.21 0.119,0.405 0.119,0.585 0,0.313 -0.111,0.566 -0.335,0.76 -0.223,0.193 -0.499,0.29 -0.825,0.29 -0.152,0 -0.295,-0.008 -0.427,-0.025 -0.133,-0.016 -0.266,-0.045 -0.399,-0.085 -0.133,-0.04 -0.269,-0.089 -0.409,-0.145 -0.141,-0.057 -0.294,-0.125 -0.461,-0.205 l -0.342,0.663 c 0.304,0.135 0.607,0.257 0.911,0.365 0.303,0.108 0.668,0.162 1.092,0.162 0.297,0 0.575,-0.035 0.838,-0.105 0.262,-0.07 0.489,-0.175 0.685,-0.315 0.194,-0.14 0.348,-0.32 0.461,-0.54 0.112,-0.22 0.168,-0.48 0.168,-0.78 0,-0.246 -0.054,-0.5 -0.165,-0.76 -0.11,-0.26 -0.253,-0.52 -0.426,-0.78 -0.175,-0.26 -0.374,-0.515 -0.598,-0.765 -0.225,-0.25 -0.449,-0.485 -0.678,-0.705 l -1.093,-1.07 0.035,-0.03 2.994,0 0,-0.73 -4.258,0 z"
         style="fill:#7c8c36;fill-opacity:1;fill-rule:nonzero;stroke:none"
         id="path10008"
         inkscape:connector-curvature="0" /><path
         d="m 1191.8438,614.1172 0.307,2.01 1.32,0 -0.979,-2.191 -0.648,0.181 z"
         style="fill:#7c8c36;fill-opacity:1;fill-rule:nonzero;stroke:none"
         id="path10012"
         inkscape:connector-curvature="0" /><path
         d="m 1199.2373,617.207 c 0,-0.374 -0.064,-0.697 -0.194,-0.971 -0.129,-0.273 -0.303,-0.501 -0.524,-0.684 -0.22,-0.184 -0.483,-0.321 -0.791,-0.41 -0.306,-0.09 -0.635,-0.135 -0.984,-0.135 -0.486,0 -0.894,0.051 -1.224,0.152 -0.33,0.103 -0.616,0.239 -0.86,0.41 l 0.41,0.587 c 0.243,-0.133 0.494,-0.236 0.752,-0.309 0.258,-0.074 0.535,-0.111 0.83,-0.111 0.229,0 0.438,0.028 0.627,0.081 0.189,0.053 0.356,0.135 0.501,0.245 0.144,0.111 0.256,0.25 0.335,0.417 0.08,0.167 0.12,0.369 0.12,0.603 0,0.461 -0.125,0.811 -0.376,1.048 -0.25,0.238 -0.637,0.356 -1.16,0.356 -0.205,0 -0.398,-0.012 -0.576,-0.04 -0.178,-0.026 -0.354,-0.066 -0.53,-0.119 l -0.477,0.22 0.251,3.05 3.562,0 0,-0.73 -2.743,0 -0.148,-1.75 c 0.098,0.027 0.218,0.05 0.358,0.069 0.141,0.021 0.314,0.031 0.519,0.031 0.326,0 0.632,-0.042 0.916,-0.125 0.284,-0.084 0.531,-0.21 0.74,-0.38 0.208,-0.17 0.372,-0.38 0.489,-0.63 0.117,-0.25 0.177,-0.542 0.177,-0.875"
         style="fill:#7c8c36;fill-opacity:1;fill-rule:nonzero;stroke:none"
         id="path10016"
         inkscape:connector-curvature="0" /><path
         d="m 1203.9502,618.3564 c 0,0.394 -0.017,0.755 -0.052,1.085 -0.033,0.33 -0.101,0.615 -0.204,0.855 -0.102,0.241 -0.249,0.427 -0.438,0.56 -0.19,0.134 -0.437,0.2 -0.741,0.2 -0.302,0 -0.547,-0.07 -0.734,-0.21 -0.185,-0.139 -0.33,-0.332 -0.432,-0.575 -0.103,-0.243 -0.171,-0.528 -0.205,-0.854 -0.035,-0.328 -0.051,-0.681 -0.051,-1.061 0,-0.394 0.018,-0.755 0.057,-1.085 0.037,-0.33 0.11,-0.615 0.216,-0.854 0.106,-0.241 0.251,-0.427 0.433,-0.561 0.181,-0.133 0.422,-0.2 0.716,-0.2 0.297,0 0.538,0.065 0.723,0.195 0.187,0.13 0.332,0.314 0.44,0.55 0.105,0.237 0.177,0.52 0.215,0.851 0.038,0.33 0.057,0.698 0.057,1.104 m 0.991,0 c 0,-0.493 -0.041,-0.944 -0.12,-1.354 -0.079,-0.411 -0.212,-0.764 -0.398,-1.061 -0.187,-0.297 -0.435,-0.526 -0.745,-0.689 -0.313,-0.164 -0.7,-0.246 -1.163,-0.246 -0.455,0 -0.836,0.082 -1.143,0.246 -0.308,0.163 -0.556,0.391 -0.745,0.684 -0.191,0.294 -0.325,0.647 -0.405,1.061 -0.08,0.413 -0.12,0.866 -0.12,1.359 0,0.507 0.042,0.965 0.126,1.375 0.082,0.41 0.221,0.762 0.414,1.056 0.195,0.293 0.444,0.519 0.746,0.679 0.304,0.161 0.68,0.241 1.127,0.241 0.449,0 0.829,-0.08 1.139,-0.241 0.311,-0.16 0.562,-0.386 0.752,-0.679 0.19,-0.294 0.326,-0.646 0.409,-1.056 0.083,-0.41 0.126,-0.868 0.126,-1.375"
         style="fill:#7c8c36;fill-opacity:1;fill-rule:nonzero;stroke:none"
         id="path10020"
         inkscape:connector-curvature="0" /><path
         d="m 1209.9932,618.167 0,-0.54 -2.493,0 c 0.03,-0.667 0.176,-1.155 0.438,-1.465 0.262,-0.31 0.624,-0.466 1.087,-0.466 0.304,0 0.58,0.042 0.831,0.125 0.251,0.084 0.478,0.189 0.683,0.316 l 0.41,-0.54 c -0.227,-0.174 -0.493,-0.317 -0.797,-0.43 -0.304,-0.113 -0.687,-0.17 -1.149,-0.17 -0.82,0 -1.441,0.234 -1.862,0.705 -0.42,0.47 -0.647,1.111 -0.677,1.925 l -0.763,0 0,0.54 4.292,0 z m -4.292,0.39 0,0.54 0.752,0 c 0.045,0.36 0.125,0.698 0.238,1.014 0.114,0.318 0.274,0.596 0.479,0.835 0.205,0.241 0.461,0.429 0.768,0.566 0.308,0.136 0.673,0.205 1.099,0.205 0.432,0 0.787,-0.044 1.064,-0.13 0.278,-0.087 0.514,-0.177 0.711,-0.271 l -0.375,-0.569 c -0.175,0.086 -0.385,0.153 -0.632,0.199 -0.247,0.047 -0.495,0.071 -0.746,0.071 -0.257,0 -0.479,-0.045 -0.666,-0.135 -0.186,-0.09 -0.34,-0.219 -0.466,-0.385 -0.125,-0.167 -0.224,-0.369 -0.296,-0.605 -0.073,-0.237 -0.119,-0.502 -0.143,-0.795 l 2.505,0 0,-0.54 -4.292,0 z"
         style="fill:#7c8c36;fill-opacity:1;fill-rule:nonzero;stroke:none"
         id="path10024"
         inkscape:connector-curvature="0" /><path
         d="m 1151.6406,603.1367 -0.125,0.58 1.787,1.7 c 0.221,0.206 0.425,0.42 0.615,0.64 0.19,0.22 0.356,0.438 0.5,0.655 0.145,0.217 0.256,0.43 0.336,0.64 0.08,0.21 0.119,0.405 0.119,0.585 0,0.313 -0.111,0.566 -0.335,0.76 -0.223,0.193 -0.499,0.29 -0.825,0.29 -0.152,0 -0.295,-0.008 -0.427,-0.025 -0.133,-0.016 -0.266,-0.045 -0.399,-0.085 -0.133,-0.04 -0.269,-0.089 -0.409,-0.145 -0.141,-0.057 -0.294,-0.125 -0.461,-0.205 l -0.342,0.663 c 0.304,0.135 0.607,0.257 0.911,0.365 0.303,0.108 0.668,0.162 1.092,0.162 0.297,0 0.575,-0.035 0.838,-0.105 0.262,-0.07 0.489,-0.175 0.685,-0.315 0.194,-0.14 0.348,-0.32 0.461,-0.54 0.112,-0.22 0.168,-0.48 0.168,-0.78 0,-0.246 -0.054,-0.5 -0.165,-0.76 -0.11,-0.26 -0.253,-0.52 -0.426,-0.78 -0.175,-0.26 -0.374,-0.515 -0.598,-0.765 -0.225,-0.25 -0.449,-0.485 -0.678,-0.705 l -1.093,-1.07 0.035,-0.03 2.994,0 0,-0.73 -4.258,0 z"
         style="fill:#7c8c36;fill-opacity:1;fill-rule:nonzero;stroke:none"
         id="path10028"
         inkscape:connector-curvature="0" /><path
         d="m 1157.0234,602.1172 0.307,2.01 1.321,0 -0.98,-2.191 -0.648,0.181 z"
         style="fill:#7c8c36;fill-opacity:1;fill-rule:nonzero;stroke:none"
         id="path10032"
         inkscape:connector-curvature="0" /><path
         d="m 1163.4121,606.3564 c 0,0.394 -0.017,0.755 -0.051,1.085 -0.034,0.33 -0.101,0.615 -0.205,0.855 -0.101,0.241 -0.248,0.427 -0.437,0.56 -0.191,0.134 -0.438,0.2 -0.741,0.2 -0.303,0 -0.548,-0.07 -0.734,-0.21 -0.186,-0.139 -0.33,-0.332 -0.433,-0.575 -0.102,-0.243 -0.17,-0.528 -0.205,-0.854 -0.034,-0.328 -0.051,-0.681 -0.051,-1.061 0,-0.394 0.019,-0.755 0.057,-1.085 0.038,-0.33 0.111,-0.615 0.216,-0.854 0.106,-0.241 0.251,-0.427 0.434,-0.561 0.181,-0.133 0.421,-0.2 0.716,-0.2 0.296,0 0.538,0.065 0.723,0.195 0.186,0.13 0.332,0.314 0.439,0.55 0.106,0.237 0.178,0.52 0.215,0.851 0.038,0.33 0.057,0.698 0.057,1.104 m 0.991,0 c 0,-0.493 -0.04,-0.944 -0.12,-1.354 -0.079,-0.411 -0.212,-0.764 -0.398,-1.061 -0.186,-0.297 -0.434,-0.526 -0.745,-0.689 -0.312,-0.164 -0.699,-0.246 -1.162,-0.246 -0.455,0 -0.837,0.082 -1.144,0.246 -0.307,0.163 -0.556,0.391 -0.745,0.684 -0.191,0.294 -0.325,0.647 -0.405,1.061 -0.079,0.413 -0.12,0.866 -0.12,1.359 0,0.507 0.042,0.965 0.126,1.375 0.083,0.41 0.222,0.762 0.415,1.056 0.194,0.293 0.443,0.519 0.746,0.679 0.303,0.161 0.679,0.241 1.127,0.241 0.448,0 0.828,-0.08 1.139,-0.241 0.311,-0.16 0.561,-0.386 0.751,-0.679 0.19,-0.294 0.326,-0.646 0.409,-1.056 0.084,-0.41 0.126,-0.868 0.126,-1.375"
         style="fill:#7c8c36;fill-opacity:1;fill-rule:nonzero;stroke:none"
         id="path10036"
         inkscape:connector-curvature="0" /><path
         d="m 1169.0977,606.3564 c 0,0.394 -0.018,0.755 -0.052,1.085 -0.034,0.33 -0.102,0.615 -0.204,0.855 -0.103,0.241 -0.25,0.427 -0.439,0.56 -0.19,0.134 -0.436,0.2 -0.74,0.2 -0.303,0 -0.547,-0.07 -0.734,-0.21 -0.186,-0.139 -0.33,-0.332 -0.433,-0.575 -0.102,-0.243 -0.17,-0.528 -0.205,-0.854 -0.034,-0.328 -0.05,-0.681 -0.05,-1.061 0,-0.394 0.018,-0.755 0.056,-1.085 0.038,-0.33 0.11,-0.615 0.217,-0.854 0.105,-0.241 0.25,-0.427 0.432,-0.561 0.182,-0.133 0.422,-0.2 0.717,-0.2 0.296,0 0.537,0.065 0.723,0.195 0.187,0.13 0.332,0.314 0.439,0.55 0.105,0.237 0.177,0.52 0.216,0.851 0.037,0.33 0.057,0.698 0.057,1.104 m 0.99,0 c 0,-0.493 -0.04,-0.944 -0.119,-1.354 -0.08,-0.411 -0.213,-0.764 -0.398,-1.061 -0.187,-0.297 -0.436,-0.526 -0.746,-0.689 -0.312,-0.164 -0.699,-0.246 -1.162,-0.246 -0.456,0 -0.836,0.082 -1.143,0.246 -0.309,0.163 -0.557,0.391 -0.746,0.684 -0.19,0.294 -0.324,0.647 -0.405,1.061 -0.08,0.413 -0.119,0.866 -0.119,1.359 0,0.507 0.041,0.965 0.125,1.375 0.083,0.41 0.222,0.762 0.415,1.056 0.195,0.293 0.443,0.519 0.746,0.679 0.304,0.161 0.679,0.241 1.127,0.241 0.449,0 0.828,-0.08 1.138,-0.241 0.312,-0.16 0.563,-0.386 0.752,-0.679 0.19,-0.294 0.326,-0.646 0.41,-1.056 0.083,-0.41 0.125,-0.868 0.125,-1.375"
         style="fill:#7c8c36;fill-opacity:1;fill-rule:nonzero;stroke:none"
         id="path10040"
         inkscape:connector-curvature="0" /><path
         d="m 1175.1406,606.167 0,-0.54 -2.494,0 c 0.031,-0.667 0.177,-1.155 0.439,-1.465 0.262,-0.31 0.623,-0.466 1.086,-0.466 0.305,0 0.581,0.042 0.832,0.125 0.25,0.084 0.478,0.189 0.683,0.316 l 0.409,-0.54 c -0.226,-0.174 -0.492,-0.317 -0.797,-0.43 -0.303,-0.113 -0.686,-0.17 -1.148,-0.17 -0.821,0 -1.442,0.234 -1.862,0.705 -0.421,0.47 -0.648,1.111 -0.677,1.925 l -0.764,0 0,0.54 4.293,0 z m -4.293,0.39 0,0.54 0.752,0 c 0.045,0.36 0.125,0.698 0.239,1.014 0.114,0.318 0.273,0.596 0.478,0.835 0.205,0.241 0.461,0.429 0.769,0.566 0.307,0.136 0.673,0.205 1.098,0.205 0.433,0 0.787,-0.044 1.064,-0.13 0.278,-0.087 0.514,-0.177 0.712,-0.271 l -0.376,-0.569 c -0.174,0.086 -0.384,0.153 -0.631,0.199 -0.248,0.047 -0.496,0.071 -0.746,0.071 -0.257,0 -0.48,-0.045 -0.666,-0.135 -0.186,-0.09 -0.341,-0.219 -0.466,-0.385 -0.125,-0.167 -0.225,-0.369 -0.297,-0.605 -0.073,-0.237 -0.119,-0.502 -0.142,-0.795 l 2.505,0 0,-0.54 -4.293,0 z"
         style="fill:#7c8c36;fill-opacity:1;fill-rule:nonzero;stroke:none"
         id="path10044"
         inkscape:connector-curvature="0" /><path
         inkscape:connector-curvature="0"
         id="path10046"
         style="fill:#7c8c36;fill-opacity:1;fill-rule:nonzero;stroke:none"
         d="m 1179.58,606.047 2.834,0 0,-0.71 -2.834,0 0,0.71 z" /><path
         d="m 1189.1992,608.2568 -0.023,0.01 -0.478,-0.613 -1.833,-2.437 2.334,0 0,3.04 z m 0.934,-3.71 0,-1.41 -0.934,0 0,1.41 -3.324,0 0,0.72 3.336,4.38 0.922,0 0,-4.43 0.966,0 0,-0.67 -0.966,0 z"
         style="fill:#7c8c36;fill-opacity:1;fill-rule:nonzero;stroke:none"
         id="path10050"
         inkscape:connector-curvature="0" /><path
         d="m 1191.877,602.1172 0.307,2.01 1.321,0 -0.98,-2.191 -0.648,0.181 z"
         style="fill:#7c8c36;fill-opacity:1;fill-rule:nonzero;stroke:none"
         id="path10054"
         inkscape:connector-curvature="0" /><path
         d="m 1198.2656,606.3564 c 0,0.394 -0.017,0.755 -0.051,1.085 -0.034,0.33 -0.101,0.615 -0.205,0.855 -0.101,0.241 -0.248,0.427 -0.437,0.56 -0.191,0.134 -0.438,0.2 -0.741,0.2 -0.303,0 -0.548,-0.07 -0.734,-0.21 -0.186,-0.139 -0.33,-0.332 -0.433,-0.575 -0.102,-0.243 -0.17,-0.528 -0.205,-0.854 -0.034,-0.328 -0.051,-0.681 -0.051,-1.061 0,-0.394 0.019,-0.755 0.057,-1.085 0.038,-0.33 0.111,-0.615 0.216,-0.854 0.106,-0.241 0.251,-0.427 0.434,-0.561 0.181,-0.133 0.421,-0.2 0.716,-0.2 0.296,0 0.538,0.065 0.723,0.195 0.186,0.13 0.332,0.314 0.439,0.55 0.106,0.237 0.178,0.52 0.215,0.851 0.038,0.33 0.057,0.698 0.057,1.104 m 0.991,0 c 0,-0.493 -0.04,-0.944 -0.12,-1.354 -0.079,-0.411 -0.212,-0.764 -0.398,-1.061 -0.186,-0.297 -0.434,-0.526 -0.745,-0.689 -0.312,-0.164 -0.699,-0.246 -1.162,-0.246 -0.455,0 -0.837,0.082 -1.144,0.246 -0.307,0.163 -0.556,0.391 -0.745,0.684 -0.191,0.294 -0.325,0.647 -0.405,1.061 -0.079,0.413 -0.12,0.866 -0.12,1.359 0,0.507 0.042,0.965 0.126,1.375 0.083,0.41 0.222,0.762 0.415,1.056 0.194,0.293 0.443,0.519 0.746,0.679 0.303,0.161 0.679,0.241 1.127,0.241 0.448,0 0.828,-0.08 1.139,-0.241 0.311,-0.16 0.561,-0.386 0.751,-0.679 0.19,-0.294 0.326,-0.646 0.409,-1.056 0.084,-0.41 0.126,-0.868 0.126,-1.375"
         style="fill:#7c8c36;fill-opacity:1;fill-rule:nonzero;stroke:none"
         id="path10058"
         inkscape:connector-curvature="0" /><path
         d="m 1203.9512,606.3564 c 0,0.394 -0.018,0.755 -0.052,1.085 -0.034,0.33 -0.102,0.615 -0.204,0.855 -0.103,0.241 -0.25,0.427 -0.439,0.56 -0.19,0.134 -0.436,0.2 -0.74,0.2 -0.303,0 -0.547,-0.07 -0.734,-0.21 -0.186,-0.139 -0.33,-0.332 -0.433,-0.575 -0.102,-0.243 -0.17,-0.528 -0.205,-0.854 -0.034,-0.328 -0.05,-0.681 -0.05,-1.061 0,-0.394 0.018,-0.755 0.056,-1.085 0.038,-0.33 0.11,-0.615 0.217,-0.854 0.105,-0.241 0.25,-0.427 0.432,-0.561 0.182,-0.133 0.422,-0.2 0.717,-0.2 0.296,0 0.537,0.065 0.723,0.195 0.187,0.13 0.332,0.314 0.439,0.55 0.105,0.237 0.177,0.52 0.216,0.851 0.037,0.33 0.057,0.698 0.057,1.104 m 0.99,0 c 0,-0.493 -0.04,-0.944 -0.119,-1.354 -0.08,-0.411 -0.213,-0.764 -0.398,-1.061 -0.187,-0.297 -0.436,-0.526 -0.746,-0.689 -0.312,-0.164 -0.699,-0.246 -1.162,-0.246 -0.456,0 -0.836,0.082 -1.143,0.246 -0.309,0.163 -0.557,0.391 -0.746,0.684 -0.19,0.294 -0.324,0.647 -0.405,1.061 -0.08,0.413 -0.119,0.866 -0.119,1.359 0,0.507 0.041,0.965 0.125,1.375 0.083,0.41 0.222,0.762 0.415,1.056 0.195,0.293 0.443,0.519 0.746,0.679 0.304,0.161 0.679,0.241 1.127,0.241 0.449,0 0.828,-0.08 1.138,-0.241 0.312,-0.16 0.563,-0.386 0.752,-0.679 0.19,-0.294 0.326,-0.646 0.41,-1.056 0.083,-0.41 0.125,-0.868 0.125,-1.375"
         style="fill:#7c8c36;fill-opacity:1;fill-rule:nonzero;stroke:none"
         id="path10062"
         inkscape:connector-curvature="0" /><path
         d="m 1209.9941,606.167 0,-0.54 -2.494,0 c 0.031,-0.667 0.177,-1.155 0.439,-1.465 0.262,-0.31 0.623,-0.466 1.086,-0.466 0.305,0 0.581,0.042 0.832,0.125 0.25,0.084 0.478,0.189 0.683,0.316 l 0.409,-0.54 c -0.226,-0.174 -0.492,-0.317 -0.797,-0.43 -0.303,-0.113 -0.686,-0.17 -1.148,-0.17 -0.821,0 -1.442,0.234 -1.862,0.705 -0.421,0.47 -0.648,1.111 -0.677,1.925 l -0.764,0 0,0.54 4.293,0 z m -4.293,0.39 0,0.54 0.752,0 c 0.045,0.36 0.125,0.698 0.239,1.014 0.114,0.318 0.273,0.596 0.478,0.835 0.205,0.241 0.461,0.429 0.769,0.566 0.307,0.136 0.673,0.205 1.098,0.205 0.433,0 0.787,-0.044 1.064,-0.13 0.278,-0.087 0.514,-0.177 0.712,-0.271 l -0.376,-0.569 c -0.174,0.086 -0.384,0.153 -0.631,0.199 -0.248,0.047 -0.496,0.071 -0.746,0.071 -0.257,0 -0.48,-0.045 -0.666,-0.135 -0.186,-0.09 -0.341,-0.219 -0.466,-0.385 -0.125,-0.167 -0.225,-0.369 -0.297,-0.605 -0.073,-0.237 -0.119,-0.502 -0.142,-0.795 l 2.505,0 0,-0.54 -4.293,0 z"
         style="fill:#7c8c36;fill-opacity:1;fill-rule:nonzero;stroke:none"
         id="path10066"
         inkscape:connector-curvature="0" /><path
         d="m 1077.2402,705.4355 -3.241,0 1.474,4.105 1.767,-4.105 z m -8.268,-8.815 c 0.196,-0.071 0.396,-0.104 0.592,-0.104 0.718,0 1.391,0.444 1.647,1.158 l 1.531,4.261 6.005,0 1.876,-4.36 c 0.285,-0.663 0.93,-1.059 1.608,-1.059 0.231,0 0.465,0.046 0.691,0.143 0.887,0.381 1.297,1.411 0.916,2.298 l -6.518,15.146 c -0.035,0.081 -0.08,0.153 -0.126,0.227 l 0.534,1.485 c 0.327,0.909 -0.145,1.912 -1.054,2.238 -0.91,0.325 -1.913,-0.145 -2.239,-1.055 l -6.517,-18.14 c -0.327,-0.909 0.145,-1.912 1.054,-2.238"
         style="fill:#231f20;fill-opacity:1;fill-rule:nonzero;stroke:none"
         id="path10070"
         inkscape:connector-curvature="0" /><path
         d="m 1084.7842,706.1602 c 0.017,0.005 1.682,0.385 2.8,-0.525 0.982,-0.799 1.439,-2.509 1.32,-4.948 -0.158,-3.263 -0.205,-4.249 1.457,-4.451 0.098,-0.012 0.191,-0.017 0.279,-0.017 1.404,0 1.684,1.43 1.873,2.396 1.578,8.047 3.346,10.597 4.552,11.318 0.829,0.497 1.1,1.572 0.604,2.401 -0.497,0.83 -1.572,1.099 -2.401,0.603 -1.856,-1.11 -3.187,-3.377 -4.181,-6.039 -0.361,0.559 -0.792,1.043 -1.295,1.452 -2.517,2.045 -5.752,1.234 -5.889,1.197 -0.935,-0.243 -1.496,-1.199 -1.253,-2.134 0.243,-0.936 1.197,-1.499 2.134,-1.253"
         style="fill:#231f20;fill-opacity:1;fill-rule:nonzero;stroke:none"
         id="path10074"
         inkscape:connector-curvature="0" /><path
         d="m 1104.4238,707.6455 c 1.884,0 3.416,-1.743 3.416,-3.886 0,-2.141 -1.532,-3.885 -3.416,-3.885 -1.883,0 -3.414,1.744 -3.414,3.885 0,2.143 1.531,3.886 3.414,3.886 m 0,-11.271 c 1.721,0 3.293,0.679 4.504,1.793 0.642,-1.675 1.571,-1.682 2.081,-1.682 l 1.02,0 c 0.967,0 1.75,0.783 1.75,1.75 0,0.962 -0.777,1.743 -1.737,1.75 -0.147,0.711 -0.304,1.967 -0.304,3.7 l 0,5.45 c 0,0.967 -0.783,1.75 -1.75,1.75 -0.726,0 -1.348,-0.442 -1.613,-1.072 -1.121,0.837 -2.482,1.332 -3.951,1.332 -3.813,0 -6.914,-3.313 -6.914,-7.386 0,-4.072 3.101,-7.385 6.914,-7.385"
         style="fill:#231f20;fill-opacity:1;fill-rule:nonzero;stroke:none"
         id="path10078"
         inkscape:connector-curvature="0" /><path
         d="m 1199.3174,713.5479 c 0.23,-0.104 0.473,-0.151 0.71,-0.151 0.67,0 1.31,0.386 1.6,1.039 l 0.495,1.113 c 0.393,0.883 0,1.917 -0.888,2.31 -0.882,0.396 -1.917,-0.004 -2.31,-0.888 l -0.495,-1.113 c -0.393,-0.883 0.01,-1.917 0.888,-2.31"
         style="fill:#231f20;fill-opacity:1;fill-rule:nonzero;stroke:none"
         id="path10082"
         inkscape:connector-curvature="0" /><path
         d="m 1200.2764,699.875 c -1.883,0 -3.414,1.743 -3.414,3.885 0,2.142 1.531,3.886 3.414,3.886 1.884,0 3.416,-1.744 3.416,-3.886 0,-2.142 -1.532,-3.885 -3.416,-3.885 m 7.618,0.11 c -0.147,0.711 -0.304,1.967 -0.304,3.701 l 0,5.45 c 0,0.967 -0.783,1.75 -1.75,1.75 -0.726,0 -1.348,-0.443 -1.614,-1.073 -1.121,0.837 -2.481,1.333 -3.95,1.333 -3.813,0 -6.914,-3.314 -6.914,-7.386 0,-4.073 3.101,-7.385 6.914,-7.385 1.721,0 3.293,0.679 4.504,1.793 0.642,-1.676 1.571,-1.683 2.081,-1.683 l 1.02,0 c 0.967,0 1.75,0.784 1.75,1.75 0,0.962 -0.777,1.744 -1.737,1.75"
         style="fill:#231f20;fill-opacity:1;fill-rule:nonzero;stroke:none"
         id="path10086"
         inkscape:connector-curvature="0" /><path
         d="m 1127.499,711.2881 c -0.967,0 -1.75,-0.783 -1.75,-1.75 l 0,-5.636 c 0,-1.483 -0.817,-2.76 -2.001,-3.415 l 0,9.051 c 0,0.967 -0.783,1.75 -1.75,1.75 -0.967,0 -1.75,-0.783 -1.75,-1.75 l 0,-9.051 c -1.184,0.655 -2.001,1.932 -2.001,3.415 l 0,5.636 c 0,0.967 -0.783,1.75 -1.75,1.75 -0.967,0 -1.75,-0.783 -1.75,-1.75 l 0,-5.636 c 0,-3.457 2.347,-6.357 5.501,-7.158 l 0,-3.639 c 0,-0.966 0.783,-1.75 1.75,-1.75 0.967,0 1.75,0.784 1.75,1.75 l 0,3.639 c 3.154,0.801 5.501,3.701 5.501,7.158 l 0,5.636 c 0,0.967 -0.783,1.75 -1.75,1.75"
         style="fill:#231f20;fill-opacity:1;fill-rule:nonzero;stroke:none"
         id="path10090"
         inkscape:connector-curvature="0" /><path
         d="m 1141.0586,711.2949 c -0.967,0 -1.75,-0.783 -1.75,-1.75 l 0,-5.635 c 0,-2.29 -1.299,-3.886 -2.465,-3.886 -1.165,0 -2.464,1.596 -2.464,3.886 l 0,5.635 c 0,0.967 -0.783,1.75 -1.75,1.75 -0.967,0 -1.75,-0.783 -1.75,-1.75 l 0,-5.635 c 0,-4.072 2.676,-7.386 5.964,-7.386 3.289,0 5.965,3.314 5.965,7.386 l 0,5.635 c 0,0.967 -0.783,1.75 -1.75,1.75"
         style="fill:#231f20;fill-opacity:1;fill-rule:nonzero;stroke:none"
         id="path10094"
         inkscape:connector-curvature="0" /><path
         d="m 1151.0107,704.3506 c -0.964,-0.064 -1.316,-0.081 -1.519,0.227 l 4.281,3.492 c 0.749,0.611 0.86,1.714 0.25,2.463 -0.612,0.748 -1.712,0.86 -2.463,0.25 l -3.827,-3.122 0,1.669 c 0,0.967 -0.784,1.75 -1.75,1.75 -0.967,0 -1.75,-0.783 -1.75,-1.75 l 0,-11.202 c 0,-0.966 0.783,-1.75 1.75,-1.75 0.966,0 1.75,0.784 1.75,1.75 l 0,3.369 c 1.21,-0.784 2.64,-0.695 3.513,-0.638 0.366,0.025 1.122,0.075 1.236,-0.031 0.018,-0.018 0.449,-0.451 0.43,-2.685 -0.01,-0.967 0.769,-1.757 1.736,-1.765 l 0.014,0 c 0.96,0 1.743,0.774 1.75,1.736 0.022,2.585 -0.464,4.256 -1.53,5.26 -1.225,1.156 -2.753,1.054 -3.871,0.977"
         style="fill:#231f20;fill-opacity:1;fill-rule:nonzero;stroke:none"
         id="path10098"
         inkscape:connector-curvature="0" /><path
         d="m 1187.0771,704.3506 c -0.967,-0.064 -1.319,-0.081 -1.521,0.228 l 4.281,3.492 c 0.749,0.61 0.86,1.713 0.249,2.462 -0.611,0.748 -1.712,0.862 -2.462,0.249 l -3.827,-3.123 0,1.671 c 0,0.967 -0.783,1.75 -1.75,1.75 -0.967,0 -1.75,-0.783 -1.75,-1.75 l 0,-11.202 c 0,-0.966 0.783,-1.75 1.75,-1.75 0.967,0 1.75,0.784 1.75,1.75 l 0,3.37 c 1.211,-0.785 2.642,-0.696 3.515,-0.639 0.364,0.025 1.121,0.076 1.235,-0.031 0.017,-0.017 0.449,-0.45 0.429,-2.685 -0.01,-0.966 0.769,-1.756 1.736,-1.765 l 0.014,0 c 0.96,0 1.742,0.774 1.75,1.736 0.023,2.584 -0.463,4.256 -1.529,5.26 -1.224,1.156 -2.756,1.054 -3.87,0.977"
         style="fill:#231f20;fill-opacity:1;fill-rule:nonzero;stroke:none"
         id="path10102"
         inkscape:connector-curvature="0" /><path
         d="m 1167.7012,711.5459 -9.708,0 c -0.967,0 -1.75,-0.783 -1.75,-1.75 0,-0.967 0.783,-1.75 1.75,-1.75 l 2.851,0 -0.447,-3.725 c -0.345,-2.883 0.114,-5.355 1.228,-6.611 0.561,-0.633 1.302,-0.981 2.085,-0.981 l 2.25,0 c 0.967,0 1.75,0.783 1.75,1.75 0,0.966 -0.783,1.75 -1.75,1.75 l -1.826,0 c -0.212,0.49 -0.493,1.747 -0.262,3.676 l 0.496,4.141 3.333,0 c 0.967,0 1.75,0.783 1.75,1.75 0,0.967 -0.783,1.75 -1.75,1.75"
         style="fill:#231f20;fill-opacity:1;fill-rule:nonzero;stroke:none"
         id="path10106"
         inkscape:connector-curvature="0" /><path
         d="m 1177.1875,700.2334 -1.631,0 c -0.264,0.463 -0.697,1.715 -0.697,3.7 l 0,5.45 c 0,0.967 -0.783,1.75 -1.75,1.75 -0.967,0 -1.75,-0.783 -1.75,-1.75 l 0,-5.45 c 0,-3.584 1.172,-7.2 3.789,-7.2 l 2.039,0 c 0.967,0 1.75,0.783 1.75,1.75 0,0.967 -0.783,1.75 -1.75,1.75"
         style="fill:#231f20;fill-opacity:1;fill-rule:nonzero;stroke:none"
         id="path10110"
         inkscape:connector-curvature="0" /><path
         d="m 1218.3955,706.251 -4.6,0 c -0.966,0 -1.75,-0.783 -1.75,-1.75 0,-0.967 0.784,-1.75 1.75,-1.75 l 4.6,0 c 0.967,0 1.75,0.783 1.75,1.75 0,0.967 -0.783,1.75 -1.75,1.75"
         style="fill:#231f20;fill-opacity:1;fill-rule:nonzero;stroke:none"
         id="path10114"
         inkscape:connector-curvature="0" /><path
         d="m 1085.1152,687.6494 c -0.08,0.962 -0.917,1.671 -1.89,1.599 -6.858,-0.571 -10.656,-1.433 -12.574,-2.014 -0.241,-0.026 -0.466,-0.1 -0.667,-0.214 -0.579,-0.199 -0.885,-0.343 -0.975,-0.389 -0.863,-0.435 -1.208,-1.488 -0.772,-2.351 0.189,-0.374 0.5,-0.636 0.855,-0.794 l 0,-10.536 c 0,-0.967 0.783,-1.75 1.75,-1.75 0.966,0 1.75,0.783 1.75,1.75 l 0,11.194 c 1.405,0.36 3.657,0.817 7.029,1.222 l 0,-12.671 c 0,-0.967 0.783,-1.75 1.75,-1.75 0.967,0 1.75,0.783 1.75,1.75 l 0,13.028 c 0.135,0.012 0.258,0.025 0.395,0.036 0.963,0.08 1.679,0.926 1.599,1.89"
         style="fill:#231f20;fill-opacity:1;fill-rule:nonzero;stroke:none"
         id="path10118"
         inkscape:connector-curvature="0" /><path
         d="m 1091.0391,674.8799 c -1.883,0 -3.414,1.743 -3.414,3.885 0,2.142 1.531,3.886 3.414,3.886 1.884,0 3.416,-1.744 3.416,-3.886 0,-2.142 -1.532,-3.885 -3.416,-3.885 m 0,11.271 c -3.813,0 -6.914,-3.314 -6.914,-7.386 0,-4.073 3.101,-7.385 6.914,-7.385 3.813,0 6.916,3.312 6.916,7.385 0,4.072 -3.103,7.386 -6.916,7.386"
         style="fill:#231f20;fill-opacity:1;fill-rule:nonzero;stroke:none"
         id="path10122"
         inkscape:connector-curvature="0" /><path
         d="m 1107.1914,675.3086 -1.826,0 c -0.212,0.49 -0.492,1.747 -0.261,3.677 l 0.496,4.14 3.333,0 c 0.967,0 1.75,0.784 1.75,1.75 0,0.967 -0.783,1.75 -1.75,1.75 l -9.709,0 c -0.967,0 -1.75,-0.783 -1.75,-1.75 0,-0.966 0.783,-1.75 1.75,-1.75 l 2.852,0 -0.447,-3.723 c -0.346,-2.885 0.113,-5.357 1.227,-6.613 0.562,-0.632 1.302,-0.981 2.085,-0.981 l 2.25,0 c 0.967,0 1.75,0.783 1.75,1.75 0,0.967 -0.783,1.75 -1.75,1.75"
         style="fill:#231f20;fill-opacity:1;fill-rule:nonzero;stroke:none"
         id="path10126"
         inkscape:connector-curvature="0" /><path
         d="m 1115.5869,687.4932 c 0.231,-0.103 0.473,-0.151 0.711,-0.151 0.67,0 1.31,0.386 1.6,1.038 l 0.496,1.113 c 0.393,0.883 0,1.917 -0.887,2.311 -0.883,0.391 -1.917,-0.004 -2.311,-0.887 l -0.496,-1.113 c -0.393,-0.883 0,-1.917 0.887,-2.311"
         style="fill:#231f20;fill-opacity:1;fill-rule:nonzero;stroke:none"
         id="path10130"
         inkscape:connector-curvature="0" /><path
         d="m 1116.5469,674.9551 c -1.883,0 -3.414,1.743 -3.414,3.885 0,2.142 1.531,3.886 3.414,3.886 1.884,0 3.416,-1.744 3.416,-3.886 0,-2.142 -1.532,-3.885 -3.416,-3.885 m 7.618,0.11 c -0.147,0.711 -0.304,1.967 -0.304,3.701 l 0,5.45 c 0,0.967 -0.783,1.75 -1.75,1.75 -0.726,0 -1.348,-0.443 -1.613,-1.073 -1.121,0.837 -2.482,1.333 -3.951,1.333 -3.813,0 -6.914,-3.314 -6.914,-7.386 0,-4.073 3.101,-7.385 6.914,-7.385 1.721,0 3.293,0.679 4.504,1.793 0.642,-1.676 1.571,-1.683 2.081,-1.683 l 1.02,0 c 0.967,0 1.75,0.784 1.75,1.75 0,0.962 -0.777,1.744 -1.737,1.75"
         style="fill:#231f20;fill-opacity:1;fill-rule:nonzero;stroke:none"
         id="path10134"
         inkscape:connector-curvature="0" /></g></g></svg>