<?xml version="1.0" encoding="UTF-8" standalone="no"?>
<!-- Created with Inkscape (http://www.inkscape.org/) -->

<svg
   xmlns:dc="http://purl.org/dc/elements/1.1/"
   xmlns:cc="http://creativecommons.org/ns#"
   xmlns:rdf="http://www.w3.org/1999/02/22-rdf-syntax-ns#"
   xmlns:svg="http://www.w3.org/2000/svg"
   xmlns="http://www.w3.org/2000/svg"
   xmlns:sodipodi="http://sodipodi.sourceforge.net/DTD/sodipodi-0.dtd"
   xmlns:inkscape="http://www.inkscape.org/namespaces/inkscape"
   id="svg2"
   version="1.1"
   inkscape:version="0.91 r13725"
   width="300"
   height="300"
   viewBox="0 0 300 300"
   sodipodi:docname="favicon.svg">
  <metadata
     id="metadata8">
    <rdf:RDF>
      <cc:Work
         rdf:about="">
        <dc:format>image/svg+xml</dc:format>
        <dc:type
           rdf:resource="http://purl.org/dc/dcmitype/StillImage" />
        <dc:title></dc:title>
      </cc:Work>
    </rdf:RDF>
  </metadata>
  <defs
     id="defs6" />
  <sodipodi:namedview
     pagecolor="#ffffff"
     bordercolor="#666666"
     borderopacity="1"
     objecttolerance="10"
     gridtolerance="10"
     guidetolerance="10"
     inkscape:pageopacity="0"
     inkscape:pageshadow="2"
     inkscape:window-width="1351"
     inkscape:window-height="766"
     id="namedview4"
     showgrid="false"
     inkscape:zoom="1.0939728"
     inkscape:cx="98.87455"
     inkscape:cy="133.98938"
     inkscape:window-x="267"
     inkscape:window-y="207"
     inkscape:window-maximized="0"
     inkscape:current-layer="svg2" />
  <g
     id="g3431"
     transform="matrix(0.43188444,-0.3401815,0.3401815,0.43188444,42.585061,99.156056)">
    <path
       id="path3429"
       d="m 93.409417,512.29595 c -10.68172,-10.68172 -16.9319,-31.12499 -16.81925,-55.01291 0.0607,-12.86671 4.64805,-48.9146 7.84651,-61.65827 1.3694,-5.45613 0.13989,-7.2144 -6.14848,-8.79266 -6.94229,-1.7424 -7.86016,-3.52556 -7.86016,-15.26992 0,-8.09777 1.78938,-14.78218 4.57627,-17.09509 3.8728,-3.21413 4.51734,-16.0513 4.1929,-83.50914 -0.21084,-43.84116 -1.24052,-99.37397 -2.28814,-123.40624 l -1.90476,-43.69504 -16.33315,-5.519461 C 49.687929,95.301519 39.665979,90.145719 36.400149,86.879889 25.188272,75.668009 15.51278,17.425693 15.51278,-38.853127 c 0,-24.47614 0.739221,-28.14771 6.804923,-33.79878 12.647126,-11.78259 35.934536,-16.05955 79.809407,-14.657778 44.02309,1.406508 58.64376,6.063076 72.09869,22.962858 6.38831,8.02391 6.65663,10.50453 5.04155,46.61054 -1.8787,41.99943 -10.65516,83.991276 -20.42095,97.706056 -6.3534,8.92253 -33.7439,24.327841 -43.25467,24.327841 -5.20905,0 -5.50045,6.30829 -5.46102,118.22034 0.0229,65.02118 0.85758,121.26386 1.85483,124.9837 0.99724,3.71987 4.4107,7.58779 7.58546,8.59543 11.12026,3.52943 6.02006,28.28742 -6.70077,32.5277 -2.36214,0.7874 -1.37389,8.04549 3.17536,23.32099 14.97129,50.27079 19.19549,91.33721 10.65013,103.5374 -7.22491,10.31501 -21.11395,8.98511 -33.286303,-3.18722 z"
       style="fill-opacity:1"
       inkscape:connector-curvature="0" />
    <path
       id="path3427"
       d="m 114.66533,494.55186 c 0,-7.23164 -1.40141,-10.42374 -4.57628,-10.42374 -4.8845,0 -7.74386,11.1506 -4.81593,18.78065 3.09447,8.06406 9.39221,2.46051 9.39221,-8.35691 z"
       style="fill:#ffffff;fill-opacity:1"
       inkscape:connector-curvature="0" />
    <path
       id="path3425"
       d="m 102.29929,289.63659 c -1.19138,-32.30085 -1.1431,-87.35127 0.1073,-122.33428 l 2.27345,-63.60547 11.09434,-4.283521 c 20.31751,-7.84457 31.89783,-14.86736 37.85435,-22.95648 8.48184,-11.51856 13.86634,-37.672376 17.98707,-87.367586 l 3.60815,-43.51345 -8.80017,-9.18539 c -12.79031,-13.3502 -32.85275,-18.21834 -74.430833,-18.060586 -36.668058,0.139125 -53.351418,3.757306 -64.865093,14.067536 -5.972601,5.34833 -6.195109,7.83527 -4.461578,49.86635 2.028959,49.19399 8.330663,86.253686 16.540483,97.272896 3.00638,4.03516 13.5388,10.14691 23.658938,13.72881 l 18.2403,6.45592 1.88938,22.881351 c 1.03916,12.58475 2.06882,68.52966 2.28814,124.32204 l 0.39875,101.44068 9.39159,0 9.391593,0 -2.16616,-58.72882 z"
       style="fill:#ffffff;fill-opacity:1"
       inkscape:connector-curvature="0" />
    <path
       id="path3423"
       d="m 38.826889,25.738293 c -3.18465,-19.2671001 -2.31348,-86.76614 1.09267,-84.66102 1.72249,1.06456 3.06547,16.08697 3.08443,34.50208 0.0344,33.4431899 2.32041,55.49792 5.75239,55.49792 1.06521,0 0.99475,-11.32627 -0.15659,-25.1694901 -3.21113,-38.6092799 -2.95149,-68.8378899 0.5399,-62.8582599 1.61309,2.7627 3.84389,25.07202 4.95732,49.5762699 l 2.02443,44.5531801 -7.70176,0 c -6.52973,0 -7.98953,-1.74101 -9.59279,-11.44068 z"
       style="fill-opacity:1"
       inkscape:connector-curvature="0" />
    <path
       id="path3421"
       d="m 122.29244,11.707073 c 0,-34.80051 3.39061,-72.15522 6.54937,-72.15522 1.43175,0 2.69967,2.40254 2.81761,5.33898 0.18512,4.60948 0.60901,4.50526 3.10227,-0.76271 1.87942,-3.97099 2.30244,10.36987 1.2114,41.06794 -1.5991,44.99337 -3.08485,51.76657 -11.39251,51.93619 -1.25848,0.0257 -2.28814,-11.41564 -2.28814,-25.42518 z"
       style="fill-opacity:1"
       inkscape:connector-curvature="0" />
    <path
       id="path3419"
       d="m 130.63193,-24.520047 c -0.64448,-7.17571 -1.18085,-2.0637 -1.19193,11.36003 -0.011,13.42372991 0.51622,19.2947699 1.17178,13.04674991 0.65556,-6.24802001 0.66462,-17.23106991 0.0201,-24.40677991 z"
       style="fill-opacity:1"
       inkscape:connector-curvature="0" />
    <path
       id="path3417"
       d="m 69.252277,18.291643 c -3.82382,-37.31299 -5.1908,-81.79064 -2.51375,-81.79064 3.309,0 6.65058,28.4326 6.95478,59.1763399 0.11795,11.91912 1.31825,24.4168801 2.66735,27.7728101 1.34911,3.35593 1.94775,-15.1779701 1.33032,-41.18644 -0.70869,-29.85262 -0.13104,-44.30283 1.56667,-39.19148 1.4791,4.45317 3.1865,26.41927 3.79424,48.8135599 1.08158,39.8555101 0.96486,40.7368601 -5.51737,41.6600801 -5.91683,0.8427 -6.79917,-0.78238 -8.28224,-15.25423 z"
       style="fill-opacity:1"
       inkscape:connector-curvature="0" />
    <path
       id="path3415"
       d="m 100.02503,32.199693 c -1.176653,-1.17665 -2.139363,-23.4190301 -2.139363,-49.4275 0,-26.00848 1.02966,-46.26235 2.288133,-45.0086 1.25847,1.25375 3.06142,22.419 4.00654,47.0339 l 1.7184,44.75436 0.56973,-47.1356 c 0.39007,-32.27129 1.5585,-46.14683 3.70515,-44.00017 1.94578,1.94577 2.81394,20.3942 2.28814,48.62272 -0.71156,38.20066 -1.60419,45.63251 -5.57232,46.39378 -2.59878,0.49856 -5.68776,-0.0562 -6.86441,-1.23289 z"
       style="fill-opacity:1"
       inkscape:connector-curvature="0" />
  </g>
</svg>
