<?xml version="1.0" encoding="UTF-8" standalone="no"?>
<!-- Created with Inkscape (http://www.inkscape.org/) -->

<svg
   xmlns:dc="http://purl.org/dc/elements/1.1/"
   xmlns:cc="http://creativecommons.org/ns#"
   xmlns:rdf="http://www.w3.org/1999/02/22-rdf-syntax-ns#"
   xmlns:svg="http://www.w3.org/2000/svg"
   xmlns="http://www.w3.org/2000/svg"
   xmlns:sodipodi="http://sodipodi.sourceforge.net/DTD/sodipodi-0.dtd"
   xmlns:inkscape="http://www.inkscape.org/namespaces/inkscape"
   id="svg2"
   version="1.1"
   inkscape:version="0.91 r13725"
   xml:space="preserve"
   width="503.21979"
   height="420.85199"
   viewBox="0 0 503.21979 420.85198"
   sodipodi:docname="logo_original.svg"
   inkscape:export-filename="/home/vassilis/Source/kouzinaapospiti.gr/src/logo_original.png"
   inkscape:export-xdpi="300"
   inkscape:export-ydpi="300"><metadata
     id="metadata8"><rdf:RDF><cc:Work
         rdf:about=""><dc:format>image/svg+xml</dc:format><dc:type
           rdf:resource="http://purl.org/dc/dcmitype/StillImage" /><dc:title></dc:title></cc:Work></rdf:RDF></metadata><defs
     id="defs6"><clipPath
       clipPathUnits="userSpaceOnUse"
       id="clipPath24"><path
         d="m 0,841.89 595.28,0 L 595.28,0 0,0 0,841.89 Z"
         id="path26"
         inkscape:connector-curvature="0" /></clipPath></defs><sodipodi:namedview
     pagecolor="#ffffff"
     bordercolor="#666666"
     borderopacity="1"
     objecttolerance="10"
     gridtolerance="10"
     guidetolerance="10"
     inkscape:pageopacity="0"
     inkscape:pageshadow="2"
     inkscape:window-width="3791"
     inkscape:window-height="2136"
     id="namedview4"
     showgrid="false"
     fit-margin-top="0"
     fit-margin-left="0"
     fit-margin-right="0"
     fit-margin-bottom="0"
     inkscape:zoom="1.2685909"
     inkscape:cx="514.79946"
     inkscape:cy="186.01554"
     inkscape:window-x="49"
     inkscape:window-y="24"
     inkscape:window-maximized="1"
     inkscape:current-layer="g10" /><g
     id="g10"
     inkscape:groupmode="layer"
     inkscape:label="logo"
     transform="matrix(1.25,0,0,-1.25,-117.54394,898.7899)"><rect
       style="color:#000000;clip-rule:nonzero;display:inline;overflow:visible;visibility:visible;opacity:1;isolation:auto;mix-blend-mode:normal;color-interpolation:sRGB;color-interpolation-filters:linearRGB;solid-color:#000000;solid-opacity:1;fill:#ffffff;fill-opacity:1;fill-rule:nonzero;stroke:none;stroke-width:1;stroke-linecap:round;stroke-linejoin:miter;stroke-miterlimit:4;stroke-dasharray:none;stroke-dashoffset:0;stroke-opacity:1;color-rendering:auto;image-rendering:auto;shape-rendering:auto;text-rendering:auto;enable-background:accumulate"
       id="rect4301"
       width="402.57584"
       height="336.68158"
       x="94.035149"
       y="-719.03192"
       transform="scale(1,-1)" /><g
       id="g12"
       transform="translate(176.3105,599.0977)"><path
         d="M 0,0 7.031,2.766 6.558,-18.33 23.622,1.897 l 8.93,-1.264 -7.375,-12.303 7.036,-24.767 -9.006,-1.97 -3.94,10.695 -5.912,6.755 -7.667,-5.433 2.039,-11.173 -9.388,0.191 L 0,0 Z"
         style="fill:#ffffff;fill-opacity:1;fill-rule:nonzero;stroke:none"
         id="path14"
         inkscape:connector-curvature="0" /></g><g
       id="g16"
       transform="translate(289.5811,604.0332)"><path
         d="m 0,0 7.6,0.563 1.969,-2.251 -13.228,-25.049 1.408,-16.043 -13.228,-0.563 1.533,15.892 -18.702,21.26 10.694,2.533 L -7.6,-17.73 0,0 Z"
         style="fill:#ffffff;fill-opacity:1;fill-rule:nonzero;stroke:none"
         id="path18"
         inkscape:connector-curvature="0" /></g><g
       id="g20"><g
         id="g22"
         clip-path="url(#clipPath24)"><g
           id="g28"
           transform="translate(308.8262,600.4414)"><path
             d="m 0,0 c 0,0 25.064,-2.814 28.521,-1.582 3.457,1.234 -8.364,-13.965 -8.364,-13.965 l -13.916,-15.821 21.727,-0.078 0.351,-7.742 c 0,0 -30.8,-2.083 -32.427,2.054 -1.628,4.138 0.551,10.27 0.551,10.27 L 8.899,-16.391 15.326,-8.377 -0.67,-8.229 0,0 Z"
             style="fill:#ffffff;fill-opacity:1;fill-rule:nonzero;stroke:none"
             id="path30"
             inkscape:connector-curvature="0" /></g><g
           id="g32"
           transform="translate(348.335,600.7559)"><path
             d="m 0,0 20.896,0.182 2.251,-5.629 -9.477,-0.084 1.315,-24.12 6.585,-0.686 1.296,-7.476 c 0,0 -21.671,-2.815 -23.078,-0.845 -1.408,1.97 -0.182,5.477 -0.182,5.477 L 8.335,-31.903 7.796,-7.008 -1.34,-6.082 0,0 Z"
             style="fill:#ffffff;fill-opacity:1;fill-rule:nonzero;stroke:none"
             id="path34"
             inkscape:connector-curvature="0" /></g><g
           id="g36"
           transform="translate(409.1973,604.8779)"><path
             d="m 0,0 8.829,0.618 2.428,-42.835 -9.222,-0.46 -3.555,14.381 -20.465,17.935 1.422,-31.92 -8.454,-1.899 1.343,42.034 11.631,0.176 14.636,-18.013 0.282,19.894"
             style="fill:#ffffff;fill-opacity:1;fill-rule:nonzero;stroke:none"
             id="path38"
             inkscape:connector-curvature="0" /></g><g
           id="g40"
           transform="translate(213.8115,545.2827)"><path
             d="m 0,0 -1.661,-24.797 5.942,0.52 0.564,18.295 11.946,0.734 0.832,-19.756 5.233,0.164 L 23.758,1.559 0,0 Z"
             style="fill:#ffffff;fill-opacity:1;fill-rule:nonzero;stroke:none"
             id="path42"
             inkscape:connector-curvature="0" /></g><g
           id="g44"
           transform="translate(213.0264,508.3413)"><path
             d="m 0,0 -0.281,-9.006 -26.176,-0.844 15.102,-11.695 -9.472,-13.635 20.782,0.157 0.89,-12.823 -35.744,0 -2.243,7.662 10.496,14.295 -13.932,13.664 1.808,9.59 L 0,0 Z"
             style="fill:#ffffff;fill-opacity:1;fill-rule:nonzero;stroke:none"
             id="path46"
             inkscape:connector-curvature="0" /></g><g
           id="g48"
           transform="translate(456.7627,600.375)"><path
             d="m 0,0 12.102,-36.87 -8.956,-3.043 -4.819,9.718 -14.09,-2.735 -2.252,-8.161 -10.839,2.838 L -13.29,1.014 0,0 Z"
             style="fill:#ffffff;fill-opacity:1;fill-rule:nonzero;stroke:none"
             id="path50"
             inkscape:connector-curvature="0" /></g><g
           id="g52"
           transform="translate(259.5791,461.9155)"><path
             d="M 0,0 10.019,0.832 9.175,46.426 -31.3,41.801 l -2.868,-20.705 0.28,-19.42 13.509,0.845 -0.843,31.803 18.857,0.281 L 0,0 Z"
             style="fill:#ffffff;fill-opacity:1;fill-rule:nonzero;stroke:none"
             id="path54"
             inkscape:connector-curvature="0" /></g><g
           id="g56"
           transform="translate(282.2988,506.4312)"><path
             d="M 0,0 -2.709,-7.236 8.407,-7.939 9.533,-35.521 c 0,0 -8.291,-2.965 -9.351,-1.483 l 0.064,-7.523 24.767,-0.282 0.592,10.789 -7.91,0.186 -2.041,27.502 7.951,0.363 1.126,6.192 C 24.731,0.223 7.634,2.313 0,0"
             style="fill:#ffffff;fill-opacity:1;fill-rule:nonzero;stroke:none"
             id="path58"
             inkscape:connector-curvature="0" /></g><g
           id="g60"
           transform="translate(318.6738,502.1792)"><path
             d="m 0,0 29.771,1.719 10.655,-1.186 0.843,-9.568 -17.291,2.25 5.338,-33.297 -10.562,-4.135 -4.223,19.983 L 13.969,-9.316 -1.898,-7.42 0,0 Z"
             style="fill:#ffffff;fill-opacity:1;fill-rule:nonzero;stroke:none"
             id="path62"
             inkscape:connector-curvature="0" /></g><g
           id="g64"
           transform="translate(238.3574,566.0391)"><path
             d="m 0,0 c -2.252,-0.845 -9.852,-2.815 -11.259,0 -1.407,2.815 -5.346,8.725 -3.377,12.665 1.97,3.94 4.222,7.6 4.222,7.6 0,0 8.442,1.126 10.977,0 C 3.096,19.139 5.346,13.791 5.628,11.82 5.911,9.851 2.252,0.844 0,0 m 2.814,29.833 c 0,0 -3.94,2.532 -6.755,2.532 -2.815,0 -6.754,-1.969 -8.162,-2.252 -1.408,-0.28 -5.066,-5.347 -7.036,-6.472 -1.969,-1.125 -1.126,-10.977 -2.45,-12.31 -1.324,-1.334 2.168,-12.177 2.45,-13.584 0.282,-1.407 3.659,-5.348 6.716,-6.087 3.057,-0.739 7.919,-0.667 12.423,-0.386 4.503,0.282 9.006,4.785 10.412,7.036 1.407,2.252 3.097,7.318 3.66,14.354 0.564,7.037 -11.258,17.169 -11.258,17.169"
             style="fill:#ffffff;fill-opacity:1;fill-rule:nonzero;stroke:none"
             id="path66"
             inkscape:connector-curvature="0" /></g><g
           id="g68"
           transform="translate(260.6543,526.4116)"><path
             d="m 0,0 c -0.219,-0.789 -3.722,-4.842 -6.498,-4.471 -2.778,0.371 -3.697,0.756 -5.387,3.006 -1.687,2.252 1.972,10.133 1.972,10.133 0,0 4.503,3.379 6.755,2.252 C -0.906,9.793 0.5,7.824 0.781,5.572 1.063,3.32 0.218,0.787 0,0 m -0.626,16.266 c -4.504,3.939 -8.443,-0.28 -10.413,-0.561 -1.971,-0.283 -4.983,-5.076 -5.578,-6.863 -0.458,-1.377 -0.333,-9.461 0.346,-11.545 0.68,-2.084 4.386,-5.799 6.919,-5.799 2.536,0 7.601,0.283 9.852,1.127 2.252,0.844 1.97,2.814 4.785,9.287 2.815,6.475 -5.911,14.354 -5.911,14.354"
             style="fill:#ffffff;fill-opacity:1;fill-rule:nonzero;stroke:none"
             id="path70"
             inkscape:connector-curvature="0" /></g><g
           id="g72"
           transform="translate(191.0732,529.4507)"><path
             d="M 0,0 2.814,8.162 6.048,0.029 0,0 Z m 7.554,16.818 -8.317,0 -9.202,-25.576 5.461,-2.5 2.233,6.608 9.308,-0.416 3.658,-6.192 5.629,3.096 -8.77,24.98 z"
             style="fill:#ffffff;fill-opacity:1;fill-rule:nonzero;stroke:none"
             id="path74"
             inkscape:connector-curvature="0" /></g><g
           id="g76"
           transform="translate(369.9854,506.4312)"><path
             d="M 0,0 22.615,0.656 25.678,-5.969 15.65,-6.332 16.977,-34.678 24.7,-34.74 25.42,-42.84 0.09,-44.938 -0.458,-38 8.228,-37.082 9.354,-8.938 -2.009,-7.939 0,0 Z"
             style="fill:#ffffff;fill-opacity:1;fill-rule:nonzero;stroke:none"
             id="path78"
             inkscape:connector-curvature="0" /></g><g
           id="g80"
           transform="translate(206.4902,563.4658)"><path
             d="m 0,0 c -1.5,8.295 -5.688,15.722 -6.558,24.413 3.082,3.712 6.481,7.504 8.93,11.852 l -0.396,0.236 c -3.161,-0.397 -5.373,1.422 -8.534,1.028 -0.948,-0.239 -0.394,-1.425 -0.79,-2.055 -5.767,-5.924 -9.244,-13.668 -16.274,-18.172 -0.87,6.558 1.026,13.275 1.026,19.832 -2.528,-0.399 -5.451,-0.158 -7.584,-1.502 -0.552,-3.082 -0.87,-6.162 -0.87,-9.323 0,-9.246 1.265,-18.883 -0.791,-28.049 l 0.476,-0.789 c 2.527,-0.078 5.371,0 7.98,0.554 -0.396,3.712 0.079,7.742 -1.107,11.217 0,4.032 4.029,5.451 6.953,7.034 5.925,-4.663 7.111,-11.38 10.191,-17.62 C -5.057,-1.898 -2.212,-0.632 0,0 M 8.927,-5.533 C 6.006,-6.56 2.372,-5.848 -1.185,-5.848 c -2.371,2.131 -6.558,1.422 -7.427,5.216 -2.132,3.712 -2.132,7.978 -5.451,11.14 -1.739,0 -2.846,-2.608 -4.029,-4.029 l -0.632,-13.67 c -2.607,-1.264 -5.768,-0.87 -8.455,-1.661 -2.052,3.161 -7.664,5.769 -5.056,10.748 1.898,11.929 -0.791,23.544 0.87,35.633 2.684,0.157 5.53,0.868 8.217,0.868 0.948,0 1.896,-0.159 2.763,-0.474 l 4.031,-4.109 c -0.712,-2.763 -1.501,-7.034 -1.264,-9.954 l 0.791,0.869 8.689,11.931 c 0.316,0.394 0.159,1.105 0.159,1.501 4.345,1.264 8.217,-0.475 12.248,-1.107 C 4.82,34.922 6.4,33.419 7.426,31.602 5.688,27.572 1.502,24.177 -1.026,20.62 -0.159,14.222 3.398,8.928 5.058,2.764 6.558,0 8.533,-2.449 8.927,-5.533"
             style="fill:#231f20;fill-opacity:1;fill-rule:nonzero;stroke:none"
             id="path82"
             inkscape:connector-curvature="0" /></g><g
           id="g84"
           transform="translate(241.8154,582.4268)"><path
             d="m 0,0 c -1.502,2.527 -4.585,2.767 -7.034,3.003 -1.658,-1.186 -3.474,-1.977 -5.055,-3.24 -1.502,-1.817 -2.37,-4.187 -2.134,-6.478 -0.552,-4.189 1.341,-9.008 5.137,-11.301 4.423,-0.392 7.108,3.635 9.875,6.795 C 2.368,-7.663 1.817,-3.16 0,0 m 0.395,2.845 c 2.606,-5.454 3.317,-13.036 -1.186,-17.697 -2.291,-3.238 -5.216,-4.505 -8.928,-4.267 -4.504,-0.397 -8.218,2.846 -10.509,6.396 -0.394,3.717 -1.975,9.01 1.028,12.169 2.133,3.399 4.819,7.27 9.323,7.033 3.555,2.528 8.848,0.551 10.272,-3.634 m 5.53,-19.435 c 0.316,4.027 2.211,7.426 2.923,11.298 C 8.769,-0.631 7.425,3.554 4.817,7.271 l -8.454,8.058 c -1.893,0.632 -3.632,0.234 -5.607,0.156 -6.241,-1.974 -12.089,-6.006 -14.617,-12.482 -0.238,-6.321 -1.582,-12.247 -0.078,-18.329 1.501,-3.793 4.739,-7.112 8.926,-7.822 7.902,-1.264 15.881,0.787 20.938,6.558 m 2.923,-4.188 c -4.187,-5.06 -10.509,-7.11 -17.224,-5.611 l -7.505,1.661 c -6.243,2.923 -9.798,8.612 -10.036,15.166 0.553,1.344 0.87,2.847 0.87,4.505 0,4.742 -0.474,10.193 3.476,13.589 1.897,4.424 6.481,4.662 9.719,7.429 7.664,2.526 13.669,-2.845 20.067,-5.372 4.266,-3.637 4.899,-9.244 4.899,-14.617 0,-1.817 0.079,-3.635 0.158,-5.294 0.633,-4.585 -2.527,-7.823 -4.424,-11.456"
             style="fill:#231f20;fill-opacity:1;fill-rule:nonzero;stroke:none"
             id="path86"
             inkscape:connector-curvature="0" /></g><g
           id="g88"
           transform="translate(275.082,561.0938)"><path
             d="M 0,0 C 3.714,-0.552 7.742,-0.396 11.3,0.239 10.667,5.61 10.508,11.378 10.112,17.065 l 1.423,2.371 c 1.896,6.716 6.319,12.327 9.086,18.726 0.237,1.5 2.133,2.448 2.369,4.031 -0.314,0.869 -1.262,0.391 -1.896,0.473 -0.948,-0.316 -1.975,-0.316 -3.001,-0.316 -0.947,0 -1.976,0 -2.924,-0.553 -0.948,-3.16 -2.607,-6.006 -4.187,-8.848 -1.264,-3.4 -3.871,-4.742 -3.871,-9.957 -0.396,-2.369 -2.214,0.237 -3.24,1.027 -3.556,4.03 -6.794,7.19 -9.243,11.613 -0.869,6.086 -7.111,0.949 -10.746,1.973 -0.395,0.241 -0.869,-0.311 -0.79,-0.629 2.765,-1.816 4.504,-4.896 6.954,-7.189 C -7.269,24.81 -1.976,21.729 0.79,16.909 1.975,11.536 0.474,5.929 -0.474,0.632 L 0,0 Z M 28.206,38.637 C 25.125,34.764 23.386,30.34 21.253,25.994 20.306,22.125 19.278,18.33 17.617,14.618 17.539,8.535 17.539,2.609 18.093,-3.395 14.458,-4.896 10.508,-4.896 6.953,-6.319 5.689,-7.741 4.584,-5.53 3.318,-5.293 l -4.266,3.874 c -1.262,5.923 1.896,11.137 1.501,16.907 -5.925,6.637 -11.061,13.823 -17.935,19.59 -0.237,1.109 -1.738,1.584 -1.264,2.688 l 12.72,1.896 c 4.425,-4.106 9.086,-7.347 12.641,-12.008 2.846,4.346 4.82,9.164 7.348,13.668 -0.235,1.817 0.79,2.211 2.054,2.211 1.344,0 2.925,-0.236 3.873,0.319 3.476,0.392 6.398,-2.845 8.216,-5.215"
             style="fill:#231f20;fill-opacity:1;fill-rule:nonzero;stroke:none"
             id="path90"
             inkscape:connector-curvature="0" /></g><g
           id="g92"
           transform="translate(305.5879,564.0186)"><path
             d="M 0,0 0.395,-0.711 C 9.007,-4.27 20.462,-3.238 30.179,-2.37 31.84,-0.711 30.575,3.004 31.206,4.977 24.649,4.108 16.195,3.795 9.479,5.055 9.085,5.293 8.215,5.686 8.453,6.32 c 2.292,3.635 6.242,5.928 8.769,9.479 4.187,6.323 12.722,9.72 13.984,17.306 -0.393,0.867 0.949,1.185 0.554,1.736 L 24.018,34.209 C 16.67,33.577 10.505,37.767 3.396,35.237 2.764,33.42 2.369,30.813 3.554,29.155 l 15.01,-1.109 C 20.224,27.177 18.251,26.624 18.485,25.599 12.799,19.276 5.847,14.931 0.395,8.611 L 0,0 Z m 32.234,5.686 5.924,-4.581 c -0.553,-2.607 -1.42,-5.134 -1.5,-7.665 -1.264,-0.946 -2.685,-1.184 -4.186,-1.261 -4.189,0.315 -8.692,0.553 -13.117,0.553 -4.343,0 -8.61,-0.238 -12.403,-0.95 -3.16,1.818 -5.293,5.058 -7.822,7.507 -0.554,3.555 -0.396,7.031 0.552,10.27 1.819,2.607 4.821,5.055 7.426,6.952 3.32,1.029 4.9,4.82 7.587,6.875 -2.768,0.474 -5.452,0.238 -8.217,-0.634 -1.027,2.847 -4.819,3.557 -4.424,7.034 0,2.289 -0.475,5.372 1.184,6.637 9.638,1.896 19.121,-2.133 28.839,0.158 2.133,-2.133 4.661,-3.559 7.111,-5.375 0,-2.922 -1.583,-5.45 -2.134,-8.295 -5.689,-5.134 -11.772,-11.772 -18.49,-17.459 4.032,-0.87 9.957,0.633 13.67,0.234"
             style="fill:#231f20;fill-opacity:1;fill-rule:nonzero;stroke:none"
             id="path94"
             inkscape:connector-curvature="0" /></g><g
           id="g96"
           transform="translate(353.1582,561.9639)"><path
             d="m 0,0 c 5.293,0.237 10.742,0.87 15.799,1.42 2.45,1.424 0.712,4.662 0.948,7.035 -1.817,0.079 -3.793,-0.87 -5.925,-0.474 -2.687,-0.474 -1.184,3.08 -1.817,4.503 1.264,7.03 -1.657,14.064 -0.158,20.777 1.816,0.713 3.554,1.425 5.688,0.869 1.345,0 1.422,1.186 1.422,2.215 0,0.39 0,0.709 0.078,0.947 -0.633,3.477 -4.186,0.87 -6.556,2.133 -4.03,-0.869 -8.611,-0.475 -13.037,-0.869 -2.605,-0.238 -1.739,-3.87 -2.605,-5.846 1.974,-0.157 4.343,0.233 6.398,0.233 0.709,0 1.424,-0.075 2.132,-0.313 0.632,-0.158 0.949,-0.475 0.949,-1.027 0,-0.551 0.16,-1.026 0.474,-1.422 -0.078,-3.872 0,-7.743 0,-11.616 C 3.79,14.776 3.632,11.061 2.762,7.348 0.868,5.688 -1.66,5.137 -4.189,5.688 -4.898,4.818 -4.108,3.16 -4.349,1.896 -4.586,-1.184 -1.346,1.344 0,0 M 24.017,3.948 C 23.938,1.344 22.83,-0.947 23.225,-3.557 20.778,-4.818 18.09,-5.135 15.249,-5.135 c -2.766,0 -5.611,0.237 -8.457,0.237 C 4.658,-4.977 1.974,-4.663 0,-5.689 c -2.768,2.765 -7.113,6.242 -5.217,11.3 l 0.554,0.868 c 1.183,0.077 2.368,0.158 3.555,0.158 1.262,0 2.37,0.237 3.24,0.79 0.867,6.636 0.157,13.115 0.393,19.752 -1.893,1.66 -4.185,-0.237 -6.32,0.394 -1.422,1.422 -1.739,3.637 -3.398,4.899 0.634,2.132 0.398,4.82 2.37,6.32 6.243,1.502 13.115,1.423 19.753,1.423 0.95,-0.948 2.291,-0.633 3.478,-1.184 l 4.108,-2.372 c -0.316,-2.607 0.709,-4.974 0.314,-7.742 -2.289,-2.686 -7.347,0.314 -8.61,-3.238 0.234,-5.058 0.234,-10.116 0,-15.171 C 14.3,9.559 14.93,9.48 15.642,9.48 l 1.025,0 c 0.396,0 0.633,-0.157 0.874,-0.393 1.813,-2.45 5.842,-2.292 6.476,-5.139"
             style="fill:#231f20;fill-opacity:1;fill-rule:nonzero;stroke:none"
             id="path98"
             inkscape:connector-curvature="0" /></g><g
           id="g100"
           transform="translate(411.2324,562.2012)"><path
             d="M 0,0 C 1.817,0.948 3.871,0.237 5.766,0.868 7.11,1.265 8.531,2.054 8.295,3.87 6.951,16.592 6.637,28.917 6.083,41.795 c -2.607,0.631 -6.558,0.793 -9.009,-0.236 0.948,-3.793 0.632,-7.903 0.396,-11.616 -0.157,-2.527 0.472,-5.056 0.472,-7.423 0,-0.713 -0.155,-1.502 -0.472,-2.215 -1.344,-0.475 -1.976,1.027 -3.003,1.66 -5.056,6.319 -9.005,12.958 -14.062,19.277 l -3.554,-0.316 c -1.819,-0.869 -4.109,-0.473 -5.766,-1.658 0.392,-7.664 -2.137,-14.381 -1.9,-21.885 1.03,-5.689 1.423,-12.326 0.87,-18.017 2.448,0.238 4.897,0.397 7.347,1.03 0.238,0.237 0.394,0.552 0.394,0.869 0,0.945 -0.553,2.053 -0.553,3.002 -0.236,9.244 -1.024,18.881 -1.264,28.048 2.292,-1.186 4.426,-2.452 6.321,-4.427 3.397,-5.923 9.72,-8.453 14.145,-13.507 C -2.609,9.402 -1.501,4.741 0,0 M 15.879,-3.794 C 15.25,-6.004 13.746,-6.4 12.087,-6.4 l -2.528,0 c -0.868,0 -1.66,-0.238 -2.371,-0.79 l -1.737,0.316 -6.952,7.27 c -2.214,4.107 0,10.666 -4.742,13.351 -3.478,2.766 -7.744,4.819 -10.823,8.06 l -0.474,-0.713 c -0.713,-7.9 -1.504,-15.564 -0.632,-23.781 -2.529,-2.449 -5.928,-3.001 -9.006,-4.029 -1.109,1.974 -4.505,2.529 -3.874,5.213 0.237,4.188 -0.236,8.375 -0.156,12.879 -2.135,9.956 2.132,19.121 1.499,29.155 1.186,0.946 2.767,0.315 4.425,0.711 0.555,0.317 1.027,0.475 1.582,0.475 1.025,0 2.131,-0.158 3.159,-0.158 0.554,0 1.024,0.078 1.58,0.314 7.982,-1.5 9.481,-9.955 14.537,-15.01 0.319,-0.316 0.473,-0.711 1.029,-0.476 -0.238,5.295 0.471,10.826 0.237,16.201 1.5,0.63 3.16,0.707 4.977,0.707 1.817,0 3.477,-0.077 4.977,0 l 3.16,-4.897 C 10.821,37.132 12.877,36.58 11.612,34.84 11.06,27.021 12.087,19.595 14.853,12.481 14.616,6.872 16.51,1.737 15.879,-3.794"
             style="fill:#231f20;fill-opacity:1;fill-rule:nonzero;stroke:none"
             id="path102"
             inkscape:connector-curvature="0" /></g><g
           id="g104"
           transform="translate(450.5078,584.2441)"><path
             d="m 0,0 c -0.239,-2.527 -2.45,-6.4 -2.688,-8.374 l 4.897,0.787 C 1.658,-5.451 1.262,-3.634 0.552,-1.975 L 0,0 Z M -1.979,8.771 C 0,3.082 1.501,-2.686 3.316,-8.374 -0.478,-8.69 -3.161,-9.401 -7.188,-9.087 c 1.181,6.005 3.631,11.773 4.815,17.858 l 0.394,0 z M 9.4,-23.782 l 1.738,0 c 1.895,1.029 4.425,1.66 5.452,3.793 -1.501,3.715 -2.292,7.822 -4.583,11.377 -1.186,8.534 -3.318,16.751 -6.715,24.335 -3.634,1.737 -8.295,0.394 -11.931,0.394 -1.262,-1.502 -1.894,-3.476 -2.449,-5.454 -2.766,-10.979 -8.614,-21.33 -11.931,-32.391 3.082,-0.631 5.612,-1.5 8.536,-2.133 0.867,0.868 0.629,3.001 1.263,3.872 0.868,1.501 0.631,3.634 1.893,4.504 4.981,-0.87 9.406,-0.08 13.909,1.421 3.001,-2.529 2.922,-6.558 4.818,-9.718 m 14.144,-1.184 c 0.239,-2.291 -2.608,-1.74 -4.03,-2.372 -2.53,0.081 -4.582,-0.632 -6.716,-1.343 -2.765,2.452 -5.373,5.217 -5.767,9.089 -4.031,1.894 -8.455,-1.268 -12.723,-0.634 -2.209,-2.37 -2.289,-5.451 -4.184,-7.744 l -7.902,-0.473 c -0.868,2.606 -5.057,3.239 -4.821,6.321 3.554,5.924 4.424,13.035 7.98,18.96 2.212,6.955 4.108,13.908 7.584,20.307 3.556,0.238 7.191,1.501 10.828,0.474 l 1.816,-0.474 c 1.974,-3.162 4.818,-6.399 7.98,-8.848 1.895,-7.032 3.316,-14.382 7.266,-20.622 1.268,-3.949 1.189,-8.612 2.689,-12.641"
             style="fill:#231f20;fill-opacity:1;fill-rule:nonzero;stroke:none"
             id="path106"
             inkscape:connector-curvature="0" /></g><g
           id="g108"
           transform="translate(194.9375,534.9897)"><path
             d="m 0,0 c -0.156,-1.664 -1.612,-4.213 -1.767,-5.51 l 3.223,0.52 C 1.091,-3.588 0.831,-2.391 0.364,-1.299 L 0,0 Z M -1.3,5.771 C 0,2.025 0.987,-1.768 2.184,-5.51 c -2.496,-0.209 -4.263,-0.679 -6.915,-0.469 0.781,3.95 2.392,7.747 3.172,11.75 l 0.259,0 z m 7.487,-21.419 1.143,0 c 1.247,0.675 2.909,1.093 3.585,2.494 -0.985,2.445 -1.506,5.148 -3.014,7.488 -0.78,5.613 -2.182,11.021 -4.418,16.01 -2.392,1.144 -5.46,0.261 -7.851,0.261 C -5.2,9.617 -5.614,8.318 -5.979,7.016 c -1.819,-7.223 -5.667,-14.036 -7.85,-21.313 2.029,-0.414 3.692,-0.986 5.614,-1.402 0.572,0.568 0.417,1.976 0.833,2.545 0.572,0.988 0.416,2.392 1.247,2.965 3.277,-0.573 6.187,-0.051 9.149,0.935 1.977,-1.662 1.924,-4.314 3.173,-6.394 m 9.304,-0.78 c 0.156,-1.508 -1.716,-1.144 -2.651,-1.558 -1.664,0.05 -3.016,-0.418 -4.419,-0.883 -1.819,1.611 -3.534,3.428 -3.793,5.976 -2.653,1.248 -5.565,-0.83 -8.372,-0.416 -1.456,-1.56 -1.506,-3.586 -2.755,-5.095 l -5.197,-0.311 c -0.573,1.715 -3.328,2.133 -3.172,4.16 2.339,3.897 2.911,8.576 5.251,12.477 1.455,4.574 2.703,9.146 4.99,13.357 2.34,0.159 4.731,0.989 7.122,0.313 L 3.689,11.279 C 4.991,9.201 6.862,7.068 8.94,5.459 c 1.249,-4.629 2.183,-9.463 4.784,-13.568 0.833,-2.6 0.78,-5.666 1.767,-8.319"
             style="fill:#231f20;fill-opacity:1;fill-rule:nonzero;stroke:none"
             id="path110"
             inkscape:connector-curvature="0" /></g><g
           id="g112"
           transform="translate(232.0068,520.2788)"><path
             d="m 0,0 c 1.611,0.207 3.172,0.363 4.574,1.246 0.157,8.369 0.157,16.582 0.314,24.85 l -1.664,0.312 -15.181,-1.822 c -2.235,-0.828 -4.782,0.418 -6.602,-0.572 -0.572,-7.535 -2.182,-15.385 -0.779,-22.871 1.092,1.402 3.119,0.834 4.628,1.248 l 0,5.923 c 0,3.747 -0.054,7.489 0.362,11.02 3.172,1.252 7.173,0.783 10.76,1.197 0.779,-0.154 1.613,-0.154 2.184,-0.775 -0.157,-1.719 0,-3.695 0.26,-5.408 C -0.364,9.721 -0.207,4.832 0,0 M 8.89,22.352 C 8.838,21.572 8.785,20.793 8.785,19.961 8.785,17.57 8.838,14.969 7.901,12.889 7.745,10.24 7.643,7.691 7.643,5.197 7.643,2.703 7.745,0.207 7.901,-2.34 6.394,-3.537 4.315,-3.641 2.443,-4.004 0.78,-3.172 0.832,-1.25 -0.572,0 c -0.364,4.521 -0.26,9.045 -1.35,13.203 -0.157,0.154 -0.364,0.209 -0.573,0.209 -0.467,0 -1.247,-0.209 -1.716,0.049 -1.663,0 -3.326,1.404 -4.99,0.572 l -0.364,-1.144 c -0.158,-5.094 0.364,-10.758 -1.298,-15.334 -1.406,-0.83 -3.069,-1.352 -4.992,-1.141 -1.664,0.984 -2.6,2.598 -4.001,3.793 -1.406,7.07 0.31,14.658 0.155,21.572 0.259,1.25 -0.053,2.807 1.506,3.225 6.81,0.363 13.881,1.246 20.949,1.662 0.887,0.417 1.926,0.055 2.809,-0.103 1.403,-1.196 2.08,-2.805 3.327,-4.211"
             style="fill:#231f20;fill-opacity:1;fill-rule:nonzero;stroke:none"
             id="path114"
             inkscape:connector-curvature="0" /></g><g
           id="g116"
           transform="translate(260.1367,533.7925)"><path
             d="M 0,0 C -0.99,1.664 -3.017,1.822 -4.628,1.979 -5.72,1.197 -6.916,0.678 -7.955,-0.156 -8.943,-1.35 -9.516,-2.91 -9.359,-4.418 c -0.365,-2.754 0.884,-5.924 3.379,-7.434 2.911,-0.259 4.679,2.391 6.498,4.471 C 1.557,-5.041 1.193,-2.078 0,0 m 0.259,1.873 c 1.715,-3.588 2.182,-8.578 -0.782,-11.644 -1.506,-2.131 -3.428,-2.961 -5.873,-2.807 -2.963,-0.262 -5.407,1.869 -6.915,4.209 -0.258,2.443 -1.298,5.928 0.676,8.006 1.404,2.236 3.17,4.783 6.135,4.629 2.339,1.662 5.822,0.361 6.759,-2.393 M 3.898,-10.916 C 4.104,-8.264 5.354,-6.029 5.82,-3.482 5.769,-0.414 4.885,2.34 3.169,4.783 l -5.563,5.303 c -1.247,0.414 -2.391,0.158 -3.692,0.103 -4.104,-1.3 -7.953,-3.947 -9.615,-8.21 -0.155,-4.161 -1.04,-8.059 -0.052,-12.063 0.987,-2.494 3.118,-4.68 5.874,-5.146 5.198,-0.831 10.447,0.521 13.777,4.314 m 1.922,-2.756 c -2.755,-3.326 -6.914,-4.676 -11.333,-3.689 l -4.938,1.091 c -4.108,1.922 -6.445,5.666 -6.603,9.981 0.366,0.885 0.573,1.871 0.573,2.963 0,3.119 -0.313,6.707 2.287,8.941 1.247,2.912 4.263,3.067 6.395,4.885 5.04,1.664 8.992,-1.869 13.204,-3.531 2.807,-2.393 3.223,-6.082 3.223,-9.619 0,-1.196 0.052,-2.391 0.103,-3.483 0.416,-3.013 -1.664,-5.146 -2.911,-7.539"
             style="fill:#231f20;fill-opacity:1;fill-rule:nonzero;stroke:none"
             id="path118"
             inkscape:connector-curvature="0" /></g><g
           id="g120"
           transform="translate(179.1436,461.9155)"><path
             d="m 0,0 c 10.947,0.363 23.07,1.084 33.927,0.094 0.092,3.258 -0.995,6.691 -0.541,9.861 -7.24,-0.271 -14.569,0.361 -21.444,0.992 1.448,6.067 9.411,8.055 10.585,13.934 -1.174,2.623 -4.431,3.803 -6.515,5.613 -1.718,1.172 -3.436,2.168 -5.337,2.985 -1.81,0.814 -3.439,2.078 -4.795,3.8 0.724,0.36 1.177,0.996 2.171,0.723 8.231,-1.447 16.014,1.992 24.34,0.273 l 0.995,0.903 -0.454,6.603 C 20.627,46.236 8.141,44.244 -4.887,43.791 -6.334,40.898 -4.342,37.729 -5.247,34.563 -0.906,29.68 4.342,25.967 8.231,21.084 6.06,15.201 0.271,11.221 -3.259,6.242 -2.806,4.072 -2.174,0.723 0,0 m 43.242,-4.795 c -1.353,-0.633 -2.982,-0.994 -4.882,-0.994 -1.807,0 -3.529,-0.09 -5.156,-0.178 C 24.519,-6.695 15.562,-7.418 6.876,-6.695 L 5.518,-7.236 C 1.354,-3.256 -4.524,0 -4.072,6.516 -0.543,10.947 4.07,15.383 7.236,20.537 6.06,22.982 2.532,24.881 0.452,27.418 l -7.147,6.783 c 1.628,3.528 -1.811,8.143 1.177,10.584 13.298,0.996 26.958,3.076 40.442,1.901 2.169,-2.17 4.795,-3.166 6.423,-5.969 l -2.623,-8.055 c -1.087,-0.455 -2.987,-0.637 -4.886,-0.637 -1.9,0 -3.982,0.182 -5.521,-0.086 -1.54,-0.273 -3.619,0.268 -5.066,-0.902 1.447,-3.441 9.228,-3.978 6.062,-8.779 -2.262,-3.256 -4.886,-6.24 -6.966,-9.59 0,-0.543 0.269,-0.814 0.723,-0.814 0.451,0 0.905,-0.088 1.178,-0.272 l 9.59,-0.18 c 2.08,-2.623 4.702,-3.709 7.509,-5.064 1.716,-3.262 1.266,-7.516 1.895,-11.133"
             style="fill:#231f20;fill-opacity:1;fill-rule:nonzero;stroke:none"
             id="path122"
             inkscape:connector-curvature="0" /></g><g
           id="g124"
           transform="translate(260.5771,461.9155)"><path
             d="M 0,0 C 2.807,0.363 5.52,0.635 7.959,2.174 8.232,16.74 8.232,31.037 8.505,45.42 L 5.609,45.963 -20.81,42.795 c -3.888,-1.447 -8.324,0.725 -11.488,-0.994 -0.999,-13.117 -3.802,-26.78 -1.361,-39.807 1.901,2.442 5.43,1.445 8.056,2.166 l 0,10.319 c 0,6.515 -0.09,13.025 0.633,19.179 5.517,2.17 12.485,1.358 18.729,2.08 1.356,-0.273 2.803,-0.273 3.799,-1.355 -0.273,-2.985 0,-6.424 0.451,-9.408 C -0.632,16.922 -0.363,8.416 0,0 m 15.471,38.904 c -0.088,-1.357 -0.182,-2.711 -0.182,-4.162 0,-4.16 0.094,-8.681 -1.538,-12.301 -0.271,-4.617 -0.45,-9.048 -0.45,-13.394 0,-4.342 0.179,-8.684 0.45,-13.115 C 11.129,-6.148 7.509,-6.33 4.253,-6.965 1.358,-5.518 1.447,-2.168 -0.998,0 c -0.628,7.873 -0.449,15.744 -2.349,22.982 -0.271,0.274 -0.634,0.362 -0.997,0.362 -0.81,0 -2.169,-0.362 -2.984,0.094 -2.896,0 -5.787,2.441 -8.686,0.988 l -0.635,-1.985 c -0.271,-8.867 0.635,-18.728 -2.261,-26.689 -2.444,-1.451 -5.338,-2.356 -8.684,-1.992 -2.895,1.719 -4.522,4.521 -6.967,6.603 -2.442,12.305 0.544,25.516 0.27,37.545 0.452,2.172 -0.09,4.887 2.624,5.612 11.854,0.634 24.157,2.168 36.462,2.896 1.536,0.723 3.348,0.09 4.886,-0.18 2.442,-2.082 3.62,-4.888 5.79,-7.332"
             style="fill:#231f20;fill-opacity:1;fill-rule:nonzero;stroke:none"
             id="path126"
             inkscape:connector-curvature="0" /></g><g
           id="g128"
           transform="translate(287.8203,462.0093)"><path
             d="m 0,0 c 6.06,0.27 12.304,0.99 18.092,1.625 2.804,1.633 0.815,5.34 1.088,8.057 C 17.098,9.77 14.835,8.686 12.396,9.137 9.317,8.59 11.035,12.666 10.313,14.293 11.765,22.348 8.412,30.4 10.133,38.09 c 2.079,0.814 4.073,1.625 6.513,0.994 1.54,0 1.629,1.359 1.629,2.533 0,0.451 0,0.813 0.088,1.084 -0.72,3.983 -4.794,0.996 -7.509,2.445 -4.613,-0.996 -9.86,-0.542 -14.928,-0.996 -2.985,-0.269 -1.989,-4.435 -2.985,-6.697 2.26,-0.18 4.978,0.274 7.33,0.274 0.817,0 1.625,-0.092 2.443,-0.362 0.719,-0.179 1.083,-0.543 1.083,-1.176 0,-0.634 0.184,-1.179 0.542,-1.626 -0.086,-4.438 0,-8.872 0,-13.299 C 4.339,16.92 4.161,12.666 3.164,8.41 0.994,6.512 -1.899,5.881 -4.799,6.512 -5.608,5.52 -4.707,3.619 -4.976,2.168 -5.247,-1.355 -1.54,1.537 0,0 m 27.504,4.521 c -0.093,-2.984 -1.358,-5.611 -0.906,-8.595 -2.806,-1.447 -5.879,-1.809 -9.137,-1.809 -3.165,0 -6.426,0.272 -9.686,0.272 C 5.334,-5.699 2.262,-5.34 0,-6.518 -3.171,-3.35 -8.142,0.629 -5.973,6.422 l 0.633,0.996 c 1.36,0.088 2.715,0.182 4.075,0.182 1.445,0 2.711,0.269 3.705,0.904 0.993,7.6 0.182,15.017 0.453,22.621 -2.169,1.898 -4.792,-0.277 -7.236,0.447 -1.63,1.631 -1.992,4.162 -3.887,5.614 0.719,2.441 0.448,5.515 2.709,7.236 7.149,1.721 15.017,1.629 22.619,1.629 1.088,-1.086 2.626,-0.725 3.979,-1.36 l 4.704,-2.711 c -0.36,-2.99 0.817,-5.701 0.365,-8.871 -2.625,-3.076 -8.415,0.362 -9.862,-3.707 0.274,-5.791 0.274,-11.58 0,-17.371 0.09,-1.086 0.814,-1.177 1.626,-1.177 l 1.177,0 c 0.456,0 0.726,-0.182 0.997,-0.452 2.083,-2.802 6.692,-2.623 7.42,-5.881"
             style="fill:#231f20;fill-opacity:1;fill-rule:nonzero;stroke:none"
             id="path130"
             inkscape:connector-curvature="0" /></g><g
           id="g132"
           transform="translate(337.1318,459.2007)"><path
             d="M 0,0 C 4.072,0.094 7.689,1.088 10.858,2.896 8.956,12.307 8.506,22.258 6.787,31.668 L 5.52,36.193 6.242,36.916 20.177,35.74 c 2.622,1.899 0.633,5.25 0.36,7.781 -3.255,0.092 -5.88,1.448 -9.224,1.176 -9.682,-0.996 -19.542,-2.174 -29.771,-1.718 -1.354,-1.899 -0.719,-4.344 -0.63,-6.786 5.067,-0.275 10.491,0.631 15.47,0.18 C -3.984,23.977 -2.896,11.494 0,0 m 21.265,44.877 c 2.803,-0.723 4.973,-3.078 7.416,-4.523 0,-3.53 0.092,-7.959 -1.627,-11.127 -2.081,0.089 -4.255,0.181 -6.517,0.181 -2.263,0 -4.433,-0.181 -6.514,-0.633 -1.175,-2.984 -0.451,-6.517 0,-9.681 0.998,-7.149 1.539,-14.481 3.259,-21.262 -4.072,-2.174 -9.86,-0.363 -13.75,-2.984 -6.608,3.435 -5.07,10.402 -6.969,16.009 -1.087,5.795 -1.898,12.305 -1.448,18.098 l -0.902,0.818 c -3.168,0.36 -5.88,0.084 -9.23,-0.185 l -5.339,5.971 0.09,7.597 0.813,0.725 c 13.302,-0.992 26.51,3.439 39.81,0.816 l 0.908,0.18 z"
             style="fill:#231f20;fill-opacity:1;fill-rule:nonzero;stroke:none"
             id="path134"
             inkscape:connector-curvature="0" /></g><g
           id="g136"
           transform="translate(375.5039,462.0093)"><path
             d="m 0,0 c 6.063,0.27 12.305,0.99 18.093,1.625 2.803,1.633 0.814,5.34 1.089,8.057 C 17.097,9.77 14.834,8.686 12.394,9.137 9.317,8.59 11.035,12.666 10.313,14.293 11.759,22.348 8.411,30.4 10.132,38.09 c 2.079,0.814 4.072,1.625 6.514,0.994 1.539,0 1.626,1.359 1.626,2.533 0,0.451 0,0.813 0.091,1.084 -0.722,3.983 -4.794,0.996 -7.51,2.445 C 6.242,44.15 0.992,44.604 -4.074,44.15 c -2.983,-0.269 -1.989,-4.435 -2.983,-6.697 2.261,-0.18 4.974,0.274 7.327,0.274 0.814,0 1.627,-0.092 2.443,-0.362 0.722,-0.179 1.084,-0.543 1.084,-1.176 0,-0.634 0.182,-1.179 0.547,-1.626 -0.095,-4.438 0,-8.872 0,-13.299 C 4.344,16.92 4.161,12.666 3.164,8.41 0.992,6.512 -1.901,5.881 -4.796,6.512 -5.611,5.52 -4.706,3.619 -4.978,2.168 -5.251,-1.355 -1.541,1.537 0,0 M 27.503,4.521 C 27.412,1.537 26.146,-1.09 26.599,-4.074 23.79,-5.521 20.714,-5.883 17.46,-5.883 c -3.167,0 -6.425,0.272 -9.68,0.272 C 5.336,-5.699 2.261,-5.34 0,-6.518 -3.168,-3.35 -8.145,0.629 -5.977,6.422 l 0.635,0.996 c 1.361,0.088 2.716,0.182 4.071,0.182 1.45,0 2.714,0.269 3.712,0.904 0.994,7.6 0.18,15.017 0.451,22.621 -2.174,1.898 -4.793,-0.277 -7.237,0.447 -1.632,1.631 -1.988,4.162 -3.892,5.614 0.726,2.441 0.458,5.515 2.718,7.236 7.146,1.721 15.018,1.629 22.616,1.629 1.088,-1.086 2.626,-0.725 3.981,-1.36 l 4.704,-2.711 c -0.361,-2.99 0.817,-5.701 0.364,-8.871 -2.623,-3.076 -8.415,0.362 -9.86,-3.707 0.269,-5.791 0.269,-11.58 0,-17.371 0.084,-1.086 0.811,-1.177 1.626,-1.177 l 1.176,0 c 0.453,0 0.725,-0.182 0.996,-0.452 2.081,-2.802 6.691,-2.623 7.419,-5.881"
             style="fill:#231f20;fill-opacity:1;fill-rule:nonzero;stroke:none"
             id="path138"
             inkscape:connector-curvature="0" /></g><g
           id="g140"
           transform="translate(171.1279,640.2813)"><path
             d="M 0,0 -1.312,0.491 1.147,43.764 2.295,43.928 0,0 Z m -12.294,1.638 -0.328,43.11 1.803,0 0.493,-43.11 -1.968,0 z m -13.605,-0.819 -2.294,43.765 1.966,0 2.295,-43.438 -1.967,-0.327 z m -14.588,-1.311 -1.64,43.437 1.804,0.164 2.95,-43.273 -3.114,-0.328 z m 24.564,55.47 c 0,0 -25.757,2.557 -38.001,-9.096 l 5.262,-66.209 c 0,0 9.367,-14.249 18.321,-13.025 8.957,1.219 7.662,-2.065 7.662,-2.065 l 1.594,-120.173 8.263,0 0.394,120.201 c 0,0 17.1,2.442 23.207,12.215 6.108,9.769 9.365,63.916 9.365,63.916 0,0 -2.51,13.813 -36.067,14.236"
             style="fill:#ffffff;fill-opacity:1;fill-rule:nonzero;stroke:none"
             id="path142"
             inkscape:connector-curvature="0" /></g><g
           id="g144"
           transform="translate(165.7051,482.8765)"><path
             d="m 0,0 c 0,0.742 -1.229,0.965 -1.341,0.184 m -3.844,122.44 C -7.899,82.8 -7.825,42.246 -5.314,2.41 c 0.071,-1.148 1.848,-1.168 1.8,0 -1.558,40.166 -1.519,80.047 -0.25,120.214 0.031,0.921 -1.359,0.9 -1.421,0 m 1.598,-0.531 c 6.753,0.949 13.645,3.337 18.985,7.69 6.29,5.128 8.183,12.21 9.831,19.85 3.389,15.734 5.56,32.828 4.323,48.922 -0.08,1.022 -1.506,1.022 -1.589,0 -1.198,-14.84 -0.881,-29.381 -3.671,-44.112 -1.421,-7.501 -2.457,-15.898 -7.962,-21.614 -5.37,-5.579 -12.906,-7.919 -20.255,-9.508 -0.821,-0.176 -0.452,-1.343 0.338,-1.228 M 8.241,200.6 C 7.128,185.894 6.663,171.137 5.879,156.409 c -0.05,-1.005 1.515,-1.003 1.565,0 0.752,14.72 1.61,29.453 1.983,44.191 0.016,0.766 -1.127,0.749 -1.186,0 M 2.829,155.549 c 0.578,0.046 1.162,0.055 1.736,0.024 0.577,-0.026 1.144,-0.182 1.714,-0.18 0.643,0.011 0.836,0.844 0.32,1.178 -1.063,0.679 -2.773,0.471 -3.929,0.168 -0.647,-0.168 -0.533,-1.248 0.159,-1.19 m 1.688,45.179 C 3.31,186.081 2.791,171.342 2.101,156.667 c -0.052,-1.073 1.611,-1.068 1.669,0 0.819,14.662 1.67,29.378 1.972,44.061 0.018,0.797 -1.163,0.776 -1.225,0 m -9.345,1.275 c 0.564,-14.92 0.976,-29.735 0.155,-44.656 -0.055,-1.067 1.607,-1.067 1.662,0 0.783,14.853 0.762,29.833 -0.548,44.656 -0.07,0.802 -1.298,0.827 -1.269,0 m -3.286,-45.178 c 0.706,0.227 1.543,0.127 2.266,0.068 0.678,-0.059 1.507,-0.307 2.173,-0.139 0.546,0.139 0.557,0.835 0.145,1.124 -0.61,0.43 -1.723,0.363 -2.432,0.383 -0.805,0.027 -1.718,0.059 -2.483,-0.226 -0.745,-0.277 -0.447,-1.458 0.331,-1.21 m -1.141,45.295 c -0.663,-14.768 0.321,-29.648 0.224,-44.433 -0.009,-1.144 1.779,-1.147 1.779,0 -0.033,14.785 -0.109,29.661 -0.702,44.433 -0.035,0.836 -1.263,0.836 -1.301,0 m -10.752,-0.175 c 0.109,-8.008 1.042,-16.056 1.449,-24.056 0.345,-6.752 -0.476,-14.465 0.835,-21.088 0.148,-0.724 1.222,-0.657 1.403,0 0.701,2.517 0.174,5.625 0.079,8.199 -0.166,4.51 -0.418,9.017 -0.688,13.522 -0.466,7.797 -0.518,15.878 -1.779,23.598 -0.122,0.748 -1.313,0.555 -1.299,-0.175 m -1.4,-46.019 c 1.498,0.655 3.049,0.121 4.56,0.44 0.688,0.144 0.554,1.05 0,1.26 -0.802,0.302 -1.882,0.159 -2.717,0.052 -0.843,-0.11 -1.666,-0.367 -2.408,-0.787 -0.641,-0.365 -0.081,-1.244 0.565,-0.965 m -3.291,46.028 c 0.132,-14.964 1.429,-30.008 2.221,-44.952 0.065,-1.125 1.82,-1.13 1.758,0 -0.826,14.952 -1.172,30.051 -2.654,44.952 -0.082,0.83 -1.334,0.868 -1.325,0 m -9.557,-2.045 c 0.364,-14.621 1.763,-29.323 2.853,-43.909 0.089,-1.169 1.918,-1.183 1.838,0 -0.975,14.603 -1.664,29.37 -3.358,43.909 -0.095,0.828 -1.355,0.876 -1.333,0 m -3.94,-0.588 c -0.392,-14.656 0.077,-29.42 1.164,-44.043 0.09,-1.171 1.923,-1.18 1.838,0 -1.061,14.682 -1.233,29.341 -1.693,44.043 -0.029,0.841 -1.286,0.844 -1.309,0 m 2.378,-44.947 c 0.965,0.217 1.942,0.4 2.935,0.464 0.85,0.059 1.725,-0.031 2.55,0.184 0.627,0.166 0.598,1.061 0,1.241 -1.727,0.513 -4.187,-0.013 -5.837,-0.628 -0.779,-0.29 -0.483,-1.452 0.352,-1.261 m 17.094,-31.416 c 0.058,-40.183 1.133,-80.378 1.242,-120.569 0.004,-1.168 1.811,-1.17 1.81,0 -0.075,40.15 0.055,80.446 -1.599,120.569 -0.037,0.931 -1.453,0.942 -1.453,0 m 0.728,1.111 c 0.8,-0.277 0.478,-1.5 -0.35,-1.275 -6.447,1.748 -16.625,2.871 -21.016,8.572 -4.466,5.793 -5.324,15.953 -6.451,22.945 -1.421,8.786 -2.15,17.671 -2.594,26.554 -0.219,4.414 -0.37,8.833 -0.506,13.247 -0.096,2.986 -0.699,6.597 0.685,9.404 2.494,5.065 10.243,7.569 15.331,8.874 7.537,1.935 15.419,1.954 23.148,1.849 14.091,-0.19 30.777,-0.877 38.744,-14.514 0.593,-1.016 -0.982,-1.93 -1.571,-0.918 -7.739,13.254 -24.411,13.509 -37.994,13.72 -6.508,0.102 -13.102,0.04 -19.504,-1.252 -6.733,-1.358 -17.07,-4.54 -17.225,-12.701 -0.275,-14.46 0.886,-29.533 3.156,-43.804 1.06,-6.653 1.954,-15.027 5.273,-20.982 3.508,-6.292 14.522,-7.506 20.874,-9.719 m -0.3,-124.424 c 0.068,0.804 -1.227,0.97 -1.402,0.189"
             style="fill:#231f20;fill-opacity:1;fill-rule:nonzero;stroke:none"
             id="path146"
             inkscape:connector-curvature="0" /></g><g
           id="g148"
           transform="translate(162.9561,412.4932)"><path
             d="m 0,0 c -0.636,-0.637 -1.65,0.254 -3.049,1.65 -1.396,1.397 1.017,8.261 1.017,8.261 0,0 1.144,0.254 2.032,-0.508 C 0.89,8.639 1.145,5.971 1.145,3.939 1.145,1.906 0.636,0.635 0,0 m -2.213,56.481 7.261,1.611 0.808,12.508 -4.358,0.402 -3.055,3.659 -11.255,0 -2.024,-1.623 -4.318,-2.036 -0.404,-13.312 8.067,-0.807 c 0,0 -15.989,-59.705 10.893,-64.947 22.24,-4.338 -1.615,64.545 -1.615,64.545"
             style="fill:#231f20;fill-opacity:1;fill-rule:nonzero;stroke:none"
             id="path150"
             inkscape:connector-curvature="0" /></g><g
           id="g152"
           transform="translate(163.4238,415.9502)"><path
             d="m 0,0 c -0.068,-0.467 -0.135,-0.938 -0.203,-1.406 0.004,-0.821 -0.475,-0.996 -1.438,-0.522 -1.659,0.082 -1.492,0.266 -1.623,1.922 -0.048,0.645 -0.042,1.293 0.008,1.932 0.112,1.476 0.522,2.83 1.01,4.199 C -1.325,5.022 -0.043,3.555 0.029,2.506 0.086,1.674 0.077,0.828 0,0 M -3.099,7.643 C -3.186,7.596 -3.188,7.499 -3.137,7.364 -3.233,7.309 -3.322,7.237 -3.385,7.12 -4.896,4.338 -5.788,0.068 -4.375,-2.945 c 0.819,-1.754 3.035,-2.903 4.715,-1.463 2.961,2.537 2.026,15 -3.439,12.051"
             style="fill:#ffffff;fill-opacity:1;fill-rule:nonzero;stroke:none"
             id="path154"
             inkscape:connector-curvature="0" /></g></g></g></g></svg>