<?xml version="1.0" encoding="UTF-8" standalone="no"?>
<!-- Created with Inkscape (http://www.inkscape.org/) -->

<svg
   xmlns:dc="http://purl.org/dc/elements/1.1/"
   xmlns:cc="http://creativecommons.org/ns#"
   xmlns:rdf="http://www.w3.org/1999/02/22-rdf-syntax-ns#"
   xmlns:svg="http://www.w3.org/2000/svg"
   xmlns="http://www.w3.org/2000/svg"
   xmlns:sodipodi="http://sodipodi.sourceforge.net/DTD/sodipodi-0.dtd"
   xmlns:inkscape="http://www.inkscape.org/namespaces/inkscape"
   id="svg2"
   version="1.1"
   inkscape:version="0.91 r13725"
   width="374.94159"
   height="190.69434"
   viewBox="0 0 374.94159 190.69434"
   sodipodi:docname="logo2.svg"
   inkscape:export-filename="/home/vassilis/Source/kouzinaapospiti.gr/src/logo.png"
   inkscape:export-xdpi="90"
   inkscape:export-ydpi="90">
  <metadata
     id="metadata8">
    <rdf:RDF>
      <cc:Work
         rdf:about="">
        <dc:format>image/svg+xml</dc:format>
        <dc:type
           rdf:resource="http://purl.org/dc/dcmitype/StillImage" />
        <dc:title></dc:title>
      </cc:Work>
    </rdf:RDF>
  </metadata>
  <defs
     id="defs6" />
  <sodipodi:namedview
     pagecolor="#ffffff"
     bordercolor="#666666"
     borderopacity="1"
     objecttolerance="10"
     gridtolerance="10"
     guidetolerance="10"
     inkscape:pageopacity="0"
     inkscape:pageshadow="2"
     inkscape:window-width="1875"
     inkscape:window-height="1176"
     id="namedview4"
     showgrid="false"
     fit-margin-top="0"
     fit-margin-left="0"
     fit-margin-right="0"
     fit-margin-bottom="0"
     inkscape:zoom="2.5750222"
     inkscape:cx="94.671376"
     inkscape:cy="76.288575"
     inkscape:window-x="45"
     inkscape:window-y="24"
     inkscape:window-maximized="1"
     inkscape:current-layer="svg2" />
  <g
     id="g4285"
     transform="translate(42.985563,0)"
     inkscape:export-filename="/home/vassilis/Source/kouzinaapospiti.gr/logo.png"
     inkscape:export-xdpi="120.02"
     inkscape:export-ydpi="120.02">
    <path
       style="fill-opacity:1"
       d="M 87.214844 120.86719 C 84.190269 120.89547 80.090675 121.13832 74.240234 121.50781 C 43.356264 123.45834 42.986328 123.57996 42.986328 131.70703 C 42.986328 137.52994 44.267975 139.78366 51.234375 146.20508 C 55.771035 150.38682 59.482422 154.32358 59.482422 154.95508 C 59.482422 155.5866 56.594916 159.62752 53.066406 163.93359 C 49.537886 168.23968 46.652344 173.23458 46.652344 175.0332 C 46.652344 176.83183 49.332895 181.0905 52.609375 184.49805 L 58.566406 190.69336 L 80.5625 189.41992 C 92.66026 188.71894 103.17553 187.7779 103.93164 187.32812 C 104.68775 186.87837 105.30664 183.7285 105.30664 180.32812 C 105.30664 173.02952 99.058576 167.61961 88.291016 165.59961 C 80.470206 164.13241 80.274461 163.62447 85.144531 157.39844 C 89.849401 151.38362 89.723987 147.88857 84.685547 144.55078 C 80.728317 141.92925 80.965283 141.77977 90.501953 140.90039 C 99.526923 140.06819 100.60337 139.49175 102.21875 134.61719 C 103.78742 129.8836 103.38225 128.71847 98.789062 124.76758 C 95.322399 121.78568 93.868909 120.80498 87.214844 120.86719 z M 79.914062 124.4043 C 91.254143 124.4043 92.476562 124.76093 92.476562 128.07031 C 92.476562 131.30622 91.131771 131.77855 81.019531 132.10156 C 74.718621 132.30233 67.295838 132.38892 64.523438 132.29102 C 56.999218 132.02538 58.357213 134.56909 69.564453 141.73828 C 75.109263 145.28525 79.644531 148.60739 79.644531 149.12109 C 79.644531 149.63478 76.689625 153.32672 73.078125 157.32422 C 69.466635 161.3217 67.04095 165.44799 67.6875 166.49414 C 68.33405 167.54028 74.083861 168.39648 80.462891 168.39648 C 91.948471 168.39648 92.067948 168.44896 92.867188 173.89453 L 93.673828 179.39453 L 72.300781 179.39453 C 45.048351 179.39453 43.640771 178.20736 54.900391 164.73047 C 58.428901 160.50712 61.316406 156.06436 61.316406 154.85742 C 61.316406 153.65051 57.779211 149.19111 53.457031 144.94922 C 48.326691 139.91417 45.459779 135.41958 45.199219 132 C 44.808729 126.87532 45.044112 126.73511 56.076172 125.58203 C 62.277972 124.93381 73.004923 124.4043 79.914062 124.4043 z "
       transform="translate(-42.985563,0)"
       id="path4232" />
    <path
       style="fill-opacity:1"
       d="M 161.39258 121.56055 C 160.44968 121.52394 159.40054 121.60474 158.17578 121.77734 C 154.80639 122.2522 143.16787 123.32719 132.3125 124.16602 C 121.45713 125.00483 112.10166 126.16397 111.52344 126.74219 C 110.94523 127.32041 110.01482 139.32179 109.45703 153.41211 L 108.44336 179.03125 L 113.20703 183.79492 C 115.82722 186.41512 119.86553 188.54595 122.17969 188.53125 C 130.52671 188.47556 131.66167 186.1551 132.47852 167.47852 L 133.25 149.82031 L 140.81641 151.06836 C 144.97781 151.7554 148.69601 152.60608 149.08008 152.95898 C 149.46415 153.31189 150.19467 159.61197 150.70312 166.95703 C 151.3195 175.86113 152.77667 181.94463 155.07422 185.21484 C 158.11597 189.54428 159.19121 189.92852 164.24023 188.48047 C 167.3862 187.57821 170.14673 186.60736 170.375 186.32422 C 170.60328 186.04105 171.32943 173.36612 171.98828 158.15625 C 173.17919 130.66339 173.16065 130.47254 168.74414 125.70703 C 166.07968 122.83204 164.22128 121.67037 161.39258 121.56055 z M 155.88672 124.49023 C 165.58701 124.31564 163.94223 128.29514 163.85742 144.10938 C 163.79932 154.94695 163.16842 167.10523 162.45508 171.12695 C 161.59991 175.94822 160.07292 178.64631 157.97266 179.05078 C 153.86663 179.84153 153.48448 178.3914 152.05078 156.53906 C 151.3914 146.48869 150.45333 137.6212 149.9668 136.83398 C 148.90993 135.12393 135.54418 134.9451 127.59375 136.53516 L 121.92773 137.66797 L 121.4082 156.24023 L 120.88867 174.8125 L 115.84766 175.39258 C 110.89783 175.96213 110.80664 175.79261 110.80664 166.04492 C 110.80664 160.58525 111.32591 149.97134 111.96094 142.45898 L 113.11523 128.80078 L 134.41602 126.58203 C 144.72526 125.50799 151.47749 124.56959 155.88672 124.49023 z "
       transform="translate(-42.985563,0)"
       id="path4228" />
    <path
       style="fill-opacity:1"
       d="M 262.2168 126.7832 C 258.09935 126.81481 252.99445 127.0527 246.44727 127.48242 C 224.42513 128.92782 223.51188 129.15094 222.93555 133.2168 C 221.9387 140.24948 227.13886 146.09954 234.96094 146.74609 C 241.41759 147.27979 241.8945 147.73369 242.32617 153.73242 C 243.19792 165.84669 246.73771 182.14734 249.39258 186.28125 C 251.6841 189.84939 253.11527 190.26969 259.78906 189.33594 C 272.02906 187.62339 271.93436 187.70745 270.25391 179.97461 C 269.41781 176.12707 268.16574 167.46006 267.4707 160.71484 L 266.20703 148.45117 L 275.11523 147.88281 L 284.02344 147.31641 L 284.02344 139.07617 C 284.02344 131.08899 283.798 130.7619 276.69141 128.4082 C 273.19957 127.25172 269.07921 126.73053 262.2168 126.7832 z M 257.90625 129.19727 C 271.71697 129.15566 276.22761 130.82067 275.40625 134.94922 C 274.8745 137.622 273.13999 138.04451 264.92578 137.50195 C 255.35868 136.87004 255.11722 136.97236 256.26172 141.16797 C 256.90926 143.54179 258.40585 153.18423 259.58789 162.5957 C 261.40444 177.05916 261.33407 179.96223 259.13281 181.35547 C 255.6879 183.53586 250.60275 183.50119 249.23438 181.28711 C 248.63144 180.31152 247.20017 169.94737 246.05469 158.25586 L 243.97266 136.99805 L 235.58594 137.51953 C 228.27781 137.97484 227.12962 137.55112 226.64648 134.21289 C 226.11847 130.56454 227.07757 130.34004 246.81055 129.49023 C 251.03701 129.30822 254.71916 129.20687 257.90625 129.19727 z "
       transform="translate(-42.985563,0)"
       id="path4224" />
    <path
       style="fill-opacity:1"
       d="M 197.08008 122.61523 C 192.53953 122.64121 188.01385 122.98551 184.50391 123.6875 C 174.34757 125.71877 175.47672 140.06123 185.88867 141.27539 C 189.99207 141.75389 190.60991 142.78675 191.125 150.02539 C 192.12266 164.04548 190.23813 169.91342 184.52344 170.57227 C 178.08576 171.31447 177.13494 177.00305 182.34375 183.625 C 185.91685 188.16745 187.26703 188.55826 199.38086 188.53516 C 217.45255 188.50077 220.16431 187.53207 221.56836 180.60742 C 222.55752 175.72909 221.93615 174.16154 217.64062 170.69727 C 214.8342 168.43394 211.46835 166.57727 210.16211 166.57227 C 208.39931 166.56551 207.9278 163.37767 208.33008 154.20312 C 208.86279 142.05433 208.96644 141.82468 214.37109 140.89453 C 219.23941 140.05666 219.86914 139.22133 219.86914 133.60547 C 219.86914 128.67947 218.8457 126.74373 215.28711 124.94336 C 212.25815 123.41097 204.64766 122.57194 197.08008 122.61523 z M 203.62891 124.4043 C 211.46171 124.4043 211.75852 128.35578 204.14258 131.23047 L 198.49805 133.36133 L 199.79297 150.41992 C 200.50442 159.8026 201.48386 168.16611 201.9707 169.00391 C 202.45752 169.8417 204.82791 170.03075 207.23828 169.42578 C 210.94554 168.4953 211.62109 169.0027 211.62109 172.71484 C 211.62109 176.16333 210.39395 177.34778 205.89258 178.24805 C 202.74212 178.87814 196.14324 179.39453 191.22852 179.39453 C 183.4293 179.39453 182.29297 178.91325 182.29297 175.61914 C 182.29297 173.54335 182.98426 172.2734 183.82812 172.79492 C 184.67198 173.31645 187.14559 172.49219 189.32617 170.96484 C 192.91451 168.45148 193.29102 166.54521 193.29102 150.87891 L 193.29102 133.57031 L 186.13086 133.57031 C 180.03121 133.57031 179.10328 133.05953 179.86914 130.13086 C 180.78967 126.61078 189.94607 124.4043 203.62891 124.4043 z "
       transform="translate(-42.985563,0)"
       id="path4220" />
    <path
       style="fill-opacity:1"
       d="M 305.16797 122.55469 C 300.33237 122.54772 295.74993 122.9181 292.71094 123.73242 C 284.10186 126.0393 286.15765 140.90039 295.08594 140.90039 C 299.50824 140.90039 299.60547 141.20903 299.60547 155.44336 C 299.60547 169.94497 299.59112 169.98803 294.56445 170.56641 C 288.06425 171.31435 287.09282 176.97435 292.32422 183.625 C 295.89731 188.16745 297.24749 188.55826 309.36133 188.53516 C 327.43302 188.50077 330.14281 187.53207 331.54688 180.60742 C 332.53602 175.72909 331.91467 174.16154 327.61914 170.69727 C 324.81272 168.43394 321.44883 166.57727 320.14258 166.57227 C 318.37979 166.56551 317.9063 163.37767 318.30859 154.20312 C 318.8414 142.05175 318.9438 141.82484 324.34961 140.9043 C 328.95088 140.12077 329.94184 139.01475 330.41602 134.12305 C 330.89252 129.20739 330.10527 127.82249 325.4668 125.42383 C 321.98884 123.62531 313.2273 122.5663 305.16797 122.55469 z M 313.60742 124.4043 C 321.49453 124.4043 321.71966 128.36275 313.99805 131.27734 L 308.22852 133.45508 L 309.40234 145.88477 C 310.04798 152.7212 310.58284 161.09945 310.58984 164.50195 C 310.60225 170.39618 310.86224 170.63576 316.10156 169.58789 C 320.96354 168.61549 321.60156 168.98637 321.60156 172.79492 C 321.60156 176.15297 320.33854 177.35496 315.87305 178.24805 C 312.72259 178.87814 306.1237 179.39453 301.20898 179.39453 C 294.42353 179.39453 292.27344 178.72189 292.27344 176.59961 C 292.27344 175.06245 294.31248 173.02956 296.80469 172.08203 C 302.468 169.92885 303.59279 165.52494 302.90234 148.21094 L 302.35352 134.48633 L 295.67773 133.92969 C 290.24985 133.47674 289.16508 132.74792 289.875 130.0332 C 290.76759 126.61991 300.1065 124.4043 313.60742 124.4043 z "
       transform="translate(-42.985563,0)"
       id="path4216" />
  </g>
  <path
     style="fill-opacity:1"
     d="M 149.54883 73.1875 C 145.16689 73.251551 141.42159 79.437822 136.48828 93.080078 C 132.28962 104.69074 131.41513 109.10269 132.94922 110.95117 C 135.94456 114.56032 141.45542 113.9401 143.70312 109.74023 C 146.25449 104.97288 154.10846 104.9692 158.07227 109.73242 C 161.5897 113.95923 169.36523 112.95986 169.36523 108.28125 C 169.36523 102.19465 161.50591 82.556947 157.2207 77.935547 C 154.31395 74.800746 151.84413 73.15395 149.54883 73.1875 z M 149.58594 76.765625 C 153.88085 76.748445 154.84128 77.801189 156.67383 84.537109 C 157.83949 88.821729 159.91365 95.384194 161.2832 99.121094 C 164.25087 107.21859 161.39914 110.64973 156.74023 104.58789 C 152.90779 99.601337 142.44044 99.556477 140.86523 104.51953 C 139.69845 108.19573 134.53906 109.23903 134.53906 105.79883 C 134.53906 104.63928 136.80572 97.637051 139.57812 90.238281 C 144.13135 78.086961 145.09918 76.783925 149.58594 76.765625 z "
     id="path4212" />
  <path
     style="fill-opacity:1"
     d="m 144.3506,93.701756 c 3.44093,-12.33835 3.36708,-12.21054 5.18152,-8.9683 0.94956,1.69678 1.20973,4.92432 0.57813,7.1723 -0.90125,3.20776 -0.73413,3.49561 0.77665,1.33776 1.65941,-2.37016 1.92887,-2.30692 1.95307,0.45824 0.0195,2.22935 -1.40733,3.20774 -4.67794,3.20774 -3.6007,0 -4.4959,-0.75339 -3.81143,-3.20774 z"
     id="path4208"
     inkscape:connector-curvature="0" />
  <path
     style="fill-opacity:1"
     d="m 197.47387,111.11521 c -0.78946,-1.26019 -1.8692,-5.91177 -2.39942,-10.33686 -0.73449,-6.129794 -1.92684,-8.400084 -5.00734,-9.534214 -3.81046,-1.40286 -4.11435,-0.86042 -5.27749,9.420364 -1.1,9.72273 -1.68235,10.90896 -5.35549,10.90896 -6.92147,0 -8.43252,-3.93273 -7.85491,-20.443534 l 0.53525,-15.29986 10.99797,-0.212 10.55173,-1.173098 -9.63524,2.089598 -10.08146,1.1285 -0.53856,13.2892 c -0.63319,15.624724 2.29646,17.927424 3.83558,3.01477 0.58323,-5.65094 1.31726,-10.52317 1.63119,-10.82715 0.31392,-0.30398 3.87016,-0.83577 7.90274,-1.18177 l 7.33198,-0.62906 1.66374,12.3727 c 1.1166,8.303824 2.4729,12.372714 4.12424,12.372714 1.86409,0 2.46049,-3.74565 2.46049,-15.452964 0,-14.56792 -0.2362,-15.49846 -4.12423,-16.24733 -3.58117,-0.68975 -3.46898,-0.82723 0.852,-1.04398 7.41914,-0.37215 9.07303,4.43566 7.62635,22.16964 -1.11144,13.624504 -2.63529,17.792074 -6.53718,17.878554 -0.69661,0.0147 -1.91249,-1.003 -2.70194,-2.26318 z"
     id="path4206"
     inkscape:connector-curvature="0"
     sodipodi:nodetypes="sssssscccccsscscsssssscs" />
  <path
     style="fill-opacity:1"
     d="M 225.46484 76.746094 C 208.99088 76.746094 204.07504 105.13282 219.42188 111.64062 C 225.66189 114.2867 235.7832 112.18784 239.39258 107.49805 C 242.59185 103.34115 243.78613 90.913555 241.54688 85.078125 C 240.08542 81.269605 231.35542 76.746094 225.46484 76.746094 z M 225.41016 78.621094 C 229.34407 78.578934 235.82747 84.518726 237.71875 89.898438 C 239.63229 95.341457 235.65572 105.34712 230.67773 107.61523 C 218.83615 113.01063 210.55173 106.79961 212.03516 93.638672 C 213.04838 84.649432 218.35098 78.696794 225.41016 78.621094 z M 226.28125 84.150391 C 223.1342 84.053891 219.66504 85.718793 217.15625 88.908203 C 212.60599 94.692913 212.46476 96.651596 216.21094 102 C 219.87371 107.22935 228.94081 107.54112 231.62305 102.5293 C 234.18527 97.74175 234.02174 88.978774 231.32031 86.277344 C 229.94209 84.899124 228.16948 84.208311 226.28125 84.150391 z M 229.31641 89.773438 C 231.36151 89.925907 231.6875 91.100101 231.6875 94.587891 C 231.6875 97.477661 230.69611 100.83124 229.48633 102.04102 C 224.40726 107.1201 219.80926 103.17018 221.00195 94.751953 C 221.44025 91.658293 222.98373 90.335502 226.64648 89.914062 C 227.76185 89.785723 228.6347 89.722608 229.31641 89.773438 z "
     id="path4204" />
  <path
     style="fill-opacity:1"
     d="M 150.32227 1.59375 C 145.76391 1.59375 144.07692 2.6072025 142.72461 6.1640625 C 141.76872 8.6782025 139.64094 12.793301 137.99414 15.306641 L 135 19.875 L 127.5332 13.484375 C 120.18856 7.1976449 115.14143 5.9370775 106.54102 8.2421875 C 102.71907 9.2665675 103.26413 10.266335 114.51562 22.837891 L 126.59375 36.332031 L 125.3418 47.123047 C 124.1621 57.287427 124.36759 58.132469 128.89453 61.693359 C 133.24919 65.118739 134.42479 65.259142 141.41797 63.195312 L 149.13672 60.917969 L 148.68945 50.960938 C 148.20616 40.182878 151.69563 27.15054 158.31836 14.994141 C 162.26538 7.7491805 162.32403 7.1539581 159.3418 4.4550781 C 157.6033 2.8817481 153.5443 1.59375 150.32227 1.59375 z M 150.08594 3.4277344 C 152.08435 3.4277344 153.71875 3.8128963 153.71875 4.2851562 C 153.71875 4.7574162 150.35838 11.72112 146.25 19.759766 C 139.67665 32.621479 138.84062 35.653264 139.2832 45.021484 L 139.78516 55.667969 L 133.33984 56.216797 L 126.89453 56.765625 L 127.66992 46.029297 L 128.44727 35.291016 L 118.33008 23.507812 C 112.76624 17.026466 108.60465 11.093479 109.08008 10.324219 C 110.77206 7.5865286 118.64568 8.9289524 119.6875 12.132812 C 120.26119 13.897073 123.73515 18.504904 127.40625 22.371094 L 134.08008 29.400391 L 140.26562 16.414062 C 144.85991 6.7684924 147.38726 3.4277344 150.08594 3.4277344 z "
     id="path4196" />
  <path
     style="fill-opacity:1"
     d="M 8.8125 5.2597656 C 3.75774 5.2597656 1.5556 6.1451569 0.84375 8.4667969 C 0.3028 10.231047 -0.07128125 21.986058 0.01171875 34.587891 C 0.13130875 52.741041 0.76546937 58.184965 3.0683594 60.796875 C 4.9489194 62.929775 7.9499996 63.900895 11.568359 63.546875 C 16.520579 63.062345 17.21811 62.264814 17.65625 56.583984 C 18.96096 39.667544 23.065254 37.0848 28.021484 50.0625 C 30.499744 56.55174 32.405867 58.625761 37.404297 60.275391 C 44.394647 62.582411 52.201811 62.039433 51.587891 59.289062 C 51.368201 58.304853 48.584351 51.122172 45.400391 43.326172 C 39.077341 27.844062 38.834251 30.045753 48.306641 17.058594 C 50.811351 13.624514 50.720238 12.906488 47.330078 9.2675781 C 44.936078 6.6979181 41.409603 5.2597656 37.501953 5.2597656 C 32.412683 5.2597656 30.534467 6.523678 26.117188 12.923828 L 20.826172 20.589844 L 20.207031 15.214844 C 19.317551 7.5113437 16.74 5.2597656 8.8125 5.2597656 z M 10.076172 7.1210938 C 11.518122 7.1016338 11.856148 10.822694 11.179688 19.25 C 9.9732477 34.279653 11.702438 34.229387 24.085938 18.871094 C 32.877398 7.9677376 37.134284 5.2534244 40.371094 8.4902344 C 41.471164 9.5903044 40.387534 12.283261 37.427734 15.800781 C 31.814074 22.472237 31.71307 24.699041 36.34375 39.927734 C 40.16633 52.498874 39.918964 54.75 34.714844 54.75 C 32.495714 54.75 30.397017 52.108072 28.341797 46.726562 C 24.202237 35.887272 19.604533 31.808479 14.564453 34.505859 C 10.513883 36.673649 10.429433 36.934957 10.064453 48.335938 C 9.8764633 54.208237 9.0889312 55.773009 6.1132812 56.199219 C 2.5228112 56.713489 2.4179931 55.946169 2.9707031 33.355469 C 3.5318931 10.41805 4.4037821 7.1976938 10.076172 7.1210938 z "
     id="path4192" />
  <path
     style="fill-opacity:1"
     d="M 75.138672 9.1113281 C 71.939242 9.1282281 68.92519 10.024754 65.5625 11.763672 C 56.98496 16.199282 52.918156 24.520948 52.910156 37.654297 C 52.904156 47.152647 53.664542 49.874666 57.638672 54.597656 C 60.242632 57.692286 64.984844 60.979907 68.177734 61.904297 C 92.274734 68.880737 107.74358 51.173113 100.46094 24.949219 C 98.890935 19.295869 96.932616 17.242721 89.535156 13.494141 C 83.673246 10.523691 79.252232 9.0895971 75.138672 9.1113281 z M 75.642578 11.007812 C 78.914034 11.104024 81.880484 13.063051 86.28125 17.234375 C 97.99409 28.336533 97.516754 47.407301 85.339844 54.832031 C 76.819944 60.026941 64.928868 59.610509 59.236328 53.917969 C 55.395208 50.076849 54.736328 47.699909 54.736328 37.667969 C 54.736328 24.640192 58.047332 18.432522 67.638672 13.472656 C 70.560882 11.961522 72.857832 11.110032 74.982422 11.013672 C 75.203733 11.003635 75.424481 11.001398 75.642578 11.007812 z "
     id="path4188" />
  <path
     style="fill-opacity:1"
     d="m 77.723097,20.072209 c -5.64733,0.229145 -13.41536,4.170287 -16.14258,8.787107 -5.68897,9.63066 -3.69384,18.9807 5.07226,23.77539 5.71036,3.12332 9.33744,2.50561 15.43946,-2.6289 4.49736,-3.78428 5.63867,-6.17308 5.63867,-11.79492 0,-8.82892 -2.72542,-16.207831 -6.52539,-17.666021 -0.98934,-0.379646 -2.1792,-0.525536 -3.48242,-0.472656 z m 0.3789,7.144527 c 2.01429,-0.0471 3.99371,0.63434 5.59766,2.23829 3.71414,3.71414 2.60696,13.27615 -2.04297,17.64453 -7.71574,7.24856 -14.08789,3.4302 -14.08789,-8.44141 0,-6.43761 5.38557,-11.32095 10.5332,-11.44141 z"
     id="path4184"
     inkscape:connector-curvature="0" />
  <path
     style="fill-opacity:1"
     d="M 232.01562 5.2597656 C 219.07196 5.2597656 217.42892 5.6499412 216.57227 8.9257812 C 215.44085 13.252311 214.40652 13.426995 209.57422 10.109375 C 205.09152 7.0317849 174.11984 4.8714681 169.72656 7.3300781 C 162.64152 11.295058 168.41435 23.580363 177.37305 23.601562 C 181.82593 23.612102 181.51648 24.178896 172.50781 32.480469 C 161.12551 42.969359 159.68908 50.299284 167.43359 58.382812 C 171.8591 63.002053 172.49757 63.110109 190.80469 62.386719 C 209.85816 61.633849 212.29376 60.691679 212.34766 54.037109 C 212.38971 48.847479 206.93695 45.709831 197.76367 45.644531 L 189.56836 45.585938 L 200.78125 34.128906 C 206.94834 27.827986 212.57084 20.746575 213.27539 18.390625 L 214.55664 14.105469 L 217.23633 17.931641 C 218.70997 20.035557 221.51744 21.755859 223.47656 21.755859 C 226.63864 21.755859 227.03906 23.095292 227.03906 33.671875 C 227.03906 42.267255 226.37143 45.585938 224.64062 45.585938 C 223.32108 45.585938 220.74913 46.676506 218.92578 48.009766 C 215.80749 50.289916 215.79003 50.779333 218.62305 56.257812 C 221.59492 62.004782 221.81322 62.082031 235.18359 62.082031 C 252.58201 62.082031 254.5332 61.264843 254.5332 53.970703 C 254.5332 49.174853 253.47001 47.579211 248.79102 45.363281 C 243.39426 42.807421 243.04688 42.043786 243.04688 32.691406 C 243.04688 23.712333 243.4749 22.638007 247.41602 21.716797 C 250.57167 20.979187 251.95578 19.213851 252.40039 15.359375 C 253.31526 7.4278149 248.939 5.2597656 232.01562 5.2597656 z M 233.51367 7.0507812 C 238.85283 6.9865124 243.53516 7.8114844 243.53516 9.7578125 C 243.53516 11.568383 241.85812 12.591797 238.88867 12.591797 L 234.24219 12.591797 L 234.76562 28.630859 C 235.28641 44.618129 235.30355 44.67186 240.32812 45.25 C 248.3624 46.17444 247.04308 52.161169 238.49414 53.574219 C 227.28517 55.426949 219.70703 54.967397 219.70703 52.435547 C 219.70703 51.162387 221.5637 49.30767 223.83203 48.3125 C 227.59137 46.66319 228.0016 45.082571 228.48438 30.462891 L 229.01367 14.423828 L 223.31055 14.423828 C 218.86645 14.423828 217.74037 13.715677 218.2168 11.216797 C 218.69922 8.6865817 226.64904 7.1334127 233.51367 7.0507812 z M 172.79102 9.0507812 C 181.78074 8.9597133 203.20898 11.406819 203.20898 12.996094 C 203.20898 14.012984 197.02399 21.202903 189.46289 28.972656 C 181.90179 36.742406 175.71484 44.071966 175.71484 45.259766 C 175.71484 46.725306 180.13373 47.417969 189.46289 47.417969 C 201.68285 47.417969 203.20898 47.800479 203.20898 50.855469 C 203.20898 53.238359 201.45392 54.6432 197.48242 55.4375 C 190.56467 56.82105 178.63334 56.593534 171.13281 54.933594 C 166.2257 53.847604 165.66762 53.032308 165.95312 47.361328 C 166.21867 42.087258 168.17415 39.291738 177.45117 30.923828 C 183.59925 25.378245 188.61099 19.809018 188.58789 18.548828 C 188.55991 17.025012 185.45778 16.257812 179.32422 16.257812 C 172.7028 16.257813 169.79488 15.460477 169.01562 13.429688 C 168.41859 11.873987 168.3986 10.132637 168.9707 9.5605469 C 169.30401 9.2272431 170.71646 9.0717969 172.79102 9.0507812 z "
     id="path4180" />
  <path
     style="fill-opacity:1"
     d="M 300.56055 0 C 300.15284 -0.0045718091 299.73878 0.01656375 299.31836 0.064453125 C 294.84399 0.57412313 293.85983 1.5981512 293.44141 6.1757812 C 293.16498 9.2002213 292.51041 13.60777 291.98828 15.96875 C 291.08632 20.047256 290.77242 19.891155 285.67578 12.855469 C 278.92606 3.5377384 274.1355 0.94708 266.35742 2.40625 C 260.73593 3.46085 260.11865 4.2579651 258.76953 12.197266 C 256.67455 24.525842 257.69809 58.354766 260.25977 61.441406 C 262.41629 64.039856 268.02282 63.304355 272.33398 59.859375 C 273.64971 58.808005 274.77001 52.080744 275.08398 43.339844 L 275.61328 28.591797 L 283.84375 34.876953 C 290.2323 39.755453 292.32327 42.691204 293.18555 47.996094 C 294.70983 57.373674 301.20278 63.916016 308.98633 63.916016 C 313.52436 63.916016 315.50669 62.924741 316.53516 60.144531 L 317.92969 56.373047 L 321.34375 60.144531 C 326.40043 65.732081 332.69998 64.993956 336.10156 58.416016 C 337.66556 55.391576 340.3671 52.906378 342.10547 52.892578 C 343.84385 52.878808 347.00306 52.401651 349.125 51.832031 C 352.13582 51.023821 353.82939 52.230432 356.83594 57.326172 C 360.3281 63.244932 361.25276 63.749883 366.72461 62.726562 C 370.0448 62.105633 373.46538 60.96344 374.32422 60.1875 C 377.75449 57.08836 366.14628 22.248139 358.27148 12.007812 C 353.32652 5.5774329 352.35175 5.1210163 344.65039 5.6289062 C 335.331 6.2435063 337.51229 2.7238894 323.91406 39.105469 C 318.88537 52.559569 317.67746 54.550413 317.25 50.101562 C 316.96288 47.113253 315.5201 39.144548 314.04297 32.392578 C 312.56583 25.640615 311.33881 17.392 311.31641 14.0625 C 311.2616 5.9225812 306.67609 0.068577137 300.56055 0 z M 299.16797 3.4277344 C 303.28947 3.4277344 303.5266 4.152872 304.66602 20.205078 C 306.30362 43.275681 306.15848 52.917969 304.17383 52.917969 C 303.24813 52.917969 301.29671 53.37695 299.83594 53.9375 C 297.89645 54.68175 296.58268 52.579484 294.96484 46.146484 C 293.18139 39.054894 290.42608 35.103119 280.83789 25.880859 C 269.31178 14.79463 264.07021 11.636994 266.13867 17.027344 C 266.68817 18.45929 267.31175 27.326792 267.52344 36.732422 C 267.88183 52.657202 267.65124 53.872005 264.18945 54.390625 C 260.83282 54.893485 260.38732 53.737262 259.60352 42.476562 C 258.93064 32.809613 260.93235 7.6989775 262.52148 5.8671875 C 262.66904 5.6970975 264.85349 5.0396 267.37695 4.40625 C 271.44449 3.38536 273.0043 4.7177805 281.12109 16.150391 C 286.15665 23.243067 291.30818 29.056659 292.56836 29.068359 C 294.18518 29.083349 294.85938 25.311909 294.85938 16.257812 C 294.85937 4.0114524 295.05623 3.4277344 299.16797 3.4277344 z M 340.58008 7.2792969 C 341.65276 7.2443767 343.0154 7.3199862 344.77539 7.4492188 L 352.41211 8.0097656 L 355.92188 19.923828 C 357.85268 26.476781 360.95372 36.331469 362.8125 41.824219 C 365.27553 49.102489 365.65402 52.458466 364.21094 54.197266 C 360.94009 58.138406 357.65654 56.914878 355.58984 50.986328 C 353.69456 45.549508 353.36151 45.412385 343.95312 46.140625 C 335.67284 46.781545 333.92147 47.592328 331.87695 51.736328 C 330.56176 54.402068 328.91204 56.488034 328.21094 56.371094 C 324.48785 55.750064 320.52148 54.390718 320.52148 53.736328 C 320.52148 53.326438 323.70501 44.931721 327.5957 35.082031 C 331.4864 25.232338 335.22498 14.85999 335.9043 12.03125 C 336.75836 8.4748699 337.36204 7.3840573 340.58008 7.2792969 z M 343.51367 16.257812 C 342.60555 16.257813 337.01758 35.223441 337.01758 38.306641 C 337.01758 39.843721 338.84257 40.180709 342.8418 39.380859 C 346.04477 38.740269 349.00891 37.871935 349.42773 37.453125 C 350.30068 36.580175 344.6302 16.257812 343.51367 16.257812 z "
     id="path4174" />
</svg>
