<?xml version="1.0" encoding="UTF-8" standalone="no"?>
<!-- Created with Inkscape (http://www.inkscape.org/) -->

<svg
   xmlns:dc="http://purl.org/dc/elements/1.1/"
   xmlns:cc="http://creativecommons.org/ns#"
   xmlns:rdf="http://www.w3.org/1999/02/22-rdf-syntax-ns#"
   xmlns:svg="http://www.w3.org/2000/svg"
   xmlns="http://www.w3.org/2000/svg"
   xmlns:sodipodi="http://sodipodi.sourceforge.net/DTD/sodipodi-0.dtd"
   xmlns:inkscape="http://www.inkscape.org/namespaces/inkscape"
   id="svg2"
   version="1.1"
   inkscape:version="0.91 r13725"
   width="374.94159"
   height="190.69434"
   viewBox="0 0 374.94159 190.69434"
   sodipodi:docname="logo.svg"
   inkscape:export-filename="/home/vassilis/Source/kouzinaapospiti.gr/logo.png"
   inkscape:export-xdpi="90"
   inkscape:export-ydpi="90">
  <metadata
     id="metadata8">
    <rdf:RDF>
      <cc:Work
         rdf:about="">
        <dc:format>image/svg+xml</dc:format>
        <dc:type
           rdf:resource="http://purl.org/dc/dcmitype/StillImage" />
        <dc:title></dc:title>
      </cc:Work>
    </rdf:RDF>
  </metadata>
  <defs
     id="defs6" />
  <sodipodi:namedview
     pagecolor="#ffffff"
     bordercolor="#666666"
     borderopacity="1"
     objecttolerance="10"
     gridtolerance="10"
     guidetolerance="10"
     inkscape:pageopacity="0"
     inkscape:pageshadow="2"
     inkscape:window-width="1436"
     inkscape:window-height="1311"
     id="namedview4"
     showgrid="false"
     fit-margin-top="0"
     fit-margin-left="0"
     fit-margin-right="0"
     fit-margin-bottom="0"
     inkscape:zoom="2.5750222"
     inkscape:cx="137.7778"
     inkscape:cy="9.1046879"
     inkscape:window-x="1178"
     inkscape:window-y="553"
     inkscape:window-maximized="0"
     inkscape:current-layer="svg2" />
  <g
     id="g4285"
     transform="translate(42.985563,0)"
     inkscape:export-filename="/home/vassilis/Source/kouzinaapospiti.gr/logo.png"
     inkscape:export-xdpi="120.02"
     inkscape:export-ydpi="120.02">
    <path
       inkscape:connector-curvature="0"
       id="path4232"
       d="m 9.62322,184.49877 c -3.27648,-3.40755 -5.95723,-7.66717 -5.95723,-9.4658 0,-1.79862 2.88696,-6.7934 6.41548,-11.09949 3.52851,-4.30607 6.41548,-8.34594 6.41548,-8.97746 0,-0.6315 -3.71182,-4.56963 -8.24848,-8.75137 C 1.28207,139.78323 0,137.52984 0,131.70693 c 0,-8.12707 0.37054,-8.24797 31.25451,-10.1985 18.72141,-1.18237 19.50669,-1.07811 24.54911,3.25919 4.59319,3.95089 4.99872,5.11534 3.43005,9.84893 -1.61538,4.87456 -2.69318,5.45261 -11.71815,6.28481 -9.53667,0.87938 -9.77214,1.02714 -5.81491,3.64867 5.03844,3.33779 5.16312,6.83345 0.45825,12.84827 -4.87007,6.22603 -4.67496,6.7347 3.14585,8.2019 10.76756,2.02 17.01708,7.42856 17.01708,14.72717 0,3.40037 -0.61863,6.55046 -1.37474,7.00022 -0.75611,0.44977 -11.27291,1.39128 -23.37067,2.09226 l -21.99593,1.27448 -5.95723,-6.19556 z"
       style="fill-opacity:1" />
    <path
       inkscape:connector-curvature="0"
       id="path4230"
       d="m 49.88183,173.89525 c -0.79924,-5.44557 -0.91974,-5.49898 -12.40532,-5.49898 -6.37903,0 -12.12724,-0.85594 -12.77379,-1.90208 -0.64655,-1.04615 1.77931,-5.17277 5.3908,-9.17025 3.6115,-3.9975 6.56636,-7.68846 6.56636,-8.20215 0,-0.5137 -4.53666,-3.83606 -10.08147,-7.38303 -11.20724,-7.16919 -12.56495,-9.7141 -5.04073,-9.44846 2.7724,0.0979 10.19603,0.0128 16.49694,-0.18797 10.11224,-0.32301 11.45622,-0.79602 11.45622,-4.03193 0,-3.30938 -1.222,-3.66599 -12.56208,-3.66599 -6.90914,0 -17.63627,0.53036 -23.83807,1.17858 -11.03206,1.15308 -11.26736,1.29188 -10.87687,6.41656 0.26056,3.41958 3.12728,7.91548 8.25762,12.95053 4.32218,4.24189 7.8585,8.70003 7.8585,9.90694 0,1.20694 -2.88697,5.64991 -6.41548,9.87326 -11.25962,13.47689 -9.85095,14.66395 17.40148,14.66395 l 21.37297,0 -0.80708,-5.49898 z"
       style="fill:#ffffff;fill-opacity:1" />
    <path
       inkscape:connector-curvature="0"
       id="path4228"
       d="m 112.08865,185.21549 c -2.29755,-3.27021 -3.75403,-9.35531 -4.37041,-18.25941 -0.50846,-7.34506 -1.23871,-13.64339 -1.62278,-13.9963 -0.38407,-0.3529 -4.1031,-1.20378 -8.2645,-1.89082 l -7.5662,-1.24917 -0.77235,17.65925 c -0.81685,18.67658 -1.95172,20.99641 -10.29874,21.0521 -2.31416,0.0147 -6.35135,-2.11573 -8.97154,-4.73593 l -4.76399,-4.76398 1.01417,-25.61877 c 0.55779,-14.09032 1.48726,-26.09184 2.06547,-26.67006 0.57822,-0.57822 9.93296,-1.73763 20.78833,-2.57644 10.85537,-0.83883 22.4938,-1.91366 25.86319,-2.38852 4.89904,-0.69042 7.01598,0.0968 10.5686,3.93012 4.41651,4.76551 4.43544,4.95497 3.24453,32.44783 -0.65885,15.20987 -1.38466,27.88597 -1.61294,28.16914 -0.22827,0.28314 -2.98899,1.25299 -6.13496,2.15525 -5.04902,1.44805 -6.12413,1.06515 -9.16588,-3.26429 z"
       style="fill-opacity:1" />
    <path
       inkscape:connector-curvature="0"
       id="path4226"
       d="m 119.46934,171.12602 c 0.71334,-4.02172 1.34452,-16.17934 1.40262,-27.01692 0.12336,-23.00252 3.54716,-20.96428 -29.44242,-17.52735 l -21.29958,2.21904 -1.15459,13.65882 c -0.63503,7.51236 -1.15459,18.12581 -1.15459,23.58548 0,9.74769 0.0909,9.9162 5.04073,9.34665 l 5.04073,-0.57999 0.51998,-18.57142 0.51998,-18.5714 5.66637,-1.13329 c 7.95043,-1.59006 21.31644,-1.41202 22.37331,0.29803 0.48653,0.78722 1.4241,9.65432 2.08348,19.70469 1.4337,21.85234 1.81555,23.30411 5.92158,22.51336 2.10026,-0.40447 3.62723,-3.10443 4.4824,-7.9257 z"
       style="fill:#ffffff;fill-opacity:1" />
    <path
       inkscape:connector-curvature="0"
       id="path4224"
       d="m 206.40619,186.28145 c -2.65487,-4.13391 -6.19294,-20.43486 -7.06469,-32.54913 -0.43167,-5.99873 -0.91021,-6.45256 -7.36686,-6.98626 -7.82208,-0.64655 -13.02122,-6.49626 -12.02437,-13.52894 0.57633,-4.06586 1.48992,-4.28866 23.51206,-5.73406 17.45917,-1.14592 24.65747,-0.92589 30.2444,0.92448 7.10659,2.3537 7.33197,2.68164 7.33197,10.66882 l 0,8.24048 -8.90862,0.56692 -8.90863,0.56693 1.26372,12.26403 c 0.69504,6.74522 1.9478,15.41202 2.7839,19.25956 1.68045,7.73284 1.77357,7.64954 -10.46643,9.36209 -6.67379,0.93375 -8.10493,0.51322 -10.39645,-3.05492 z"
       style="fill-opacity:1" />
    <path
       inkscape:connector-curvature="0"
       id="path4222"
       d="m 216.14811,181.35574 c 2.20126,-1.39324 2.2717,-4.29667 0.45515,-18.76013 -1.18204,-9.41147 -2.67896,-19.05399 -3.3265,-21.42781 -1.1445,-4.19561 -0.90277,-4.29789 8.66433,-3.66598 8.21421,0.54256 9.94703,0.12042 10.47878,-2.55236 1.0109,-5.08129 -6.05427,-6.43018 -28.59542,-5.45944 -19.73298,0.84981 -20.69094,1.07417 -20.16293,4.72252 0.48314,3.33823 1.63169,3.76321 8.93982,3.3079 l 8.38545,-0.52244 2.08267,21.25732 c 1.14548,11.69151 2.576,22.05552 3.17894,23.03111 1.36837,2.21408 6.4548,2.24969 9.89971,0.0693 z"
       style="fill:#ffffff;fill-opacity:1" />
    <path
       inkscape:connector-curvature="0"
       id="path4220"
       d="m 139.35906,183.6259 c -5.20881,-6.62195 -4.25929,-12.31202 2.17839,-13.05422 5.71469,-0.65885 7.60023,-6.52652 6.60257,-20.54661 -0.51509,-7.23864 -1.13306,-8.27124 -5.23646,-8.74974 -10.41195,-1.21416 -11.54157,-15.55675 -1.38523,-17.58802 9.35984,-1.87196 25.93677,-1.19533 30.7831,1.2565 3.55859,1.80037 4.58248,3.7357 4.58248,8.6617 0,5.61586 -0.63066,6.45188 -5.49898,7.28975 -5.40465,0.93015 -5.50827,1.15841 -6.04098,13.3072 -0.40228,9.17454 0.0702,12.36316 1.833,12.36992 1.30624,0.005 4.67114,1.86091 7.47757,4.12424 4.29553,3.46427 4.91673,5.03166 3.92757,9.90999 -1.40405,6.92465 -4.11463,7.89318 -22.18632,7.92757 -12.11383,0.0231 -13.46361,-0.36583 -17.03671,-4.90828 z"
       style="fill-opacity:1" />
    <path
       inkscape:connector-curvature="0"
       id="path4218"
       d="m 162.90734,178.24861 c 4.50137,-0.90027 5.7281,-2.08541 5.7281,-5.5339 0,-3.71214 -0.67526,-4.21882 -4.38252,-3.28834 -2.41037,0.60497 -4.78084,0.41446 -5.26766,-0.42333 -0.48684,-0.8378 -1.46728,-9.19999 -2.17873,-18.58267 l -1.29357,-17.0594 5.64475,-2.13065 c 7.61594,-2.87469 7.31789,-6.82591 -0.51491,-6.82591 -13.68284,0 -22.83846,2.20693 -23.75899,5.72701 -0.76586,2.92867 0.16167,3.43796 6.26132,3.43796 l 7.16037,0 0,17.30952 c 0,15.6663 -0.37637,17.57311 -3.96471,20.08647 -2.18058,1.52735 -4.65513,2.35029 -5.49898,1.82876 -0.84386,-0.52152 -1.53427,0.75014 -1.53427,2.82593 0,3.29411 1.13662,3.77417 8.93584,3.77417 4.91472,0 11.5135,-0.51553 14.66396,-1.14562 z"
       style="fill:#ffffff;fill-opacity:1" />
    <path
       inkscape:connector-curvature="0"
       id="path4216"
       d="m 249.3387,183.6259 c -5.2314,-6.65065 -4.26048,-12.3122 2.23972,-13.06014 5.02667,-0.57838 5.04073,-0.62059 5.04073,-15.1222 0,-14.23433 -0.0957,-14.5422 -4.518,-14.5422 -8.92829,0 -10.98486,-14.8625 -2.37578,-17.16938 8.10398,-2.17153 27.19043,-1.18556 32.75516,1.69207 4.63847,2.39866 5.42621,3.78305 4.94971,8.69871 -0.47418,4.8917 -1.4644,5.99894 -6.06567,6.78247 -5.40581,0.92054 -5.50817,1.14586 -6.04098,13.29723 -0.40229,9.17454 0.0702,12.36316 1.83299,12.36992 1.30625,0.005 4.67115,1.86091 7.47757,4.12424 4.29553,3.46427 4.91673,5.03166 3.92758,9.90999 -1.40406,6.92465 -4.11463,7.89318 -22.18632,7.92757 -12.11384,0.0231 -13.46362,-0.36583 -17.03671,-4.90828 z"
       style="fill-opacity:1" />
    <path
       inkscape:connector-curvature="0"
       id="path4214"
       d="m 272.88697,178.24861 c 4.46549,-0.89309 5.72811,-2.09511 5.72811,-5.45316 0,-3.80855 -0.637,-4.18014 -5.49898,-3.20774 -5.23932,1.04787 -5.49961,0.80768 -5.51202,-5.08655 -0.007,-3.4025 -0.54126,-11.77979 -1.1869,-18.61622 l -1.17385,-12.42988 5.76937,-2.17769 c 7.72161,-2.91459 7.49685,-6.87296 -0.39026,-6.87296 -13.50092,0 -22.84054,2.21483 -23.73313,5.62812 -0.70992,2.71472 0.37519,3.44328 5.80307,3.89623 l 6.67626,0.55712 0.54737,13.72586 c 0.69045,17.314 -0.43424,21.7168 -6.09755,23.86998 -2.49221,0.94753 -4.53129,2.98049 -4.53129,4.51765 0,2.12228 2.1504,2.79486 8.93585,2.79486 4.91472,0 11.51349,-0.51553 14.66395,-1.14562 z"
       style="fill:#ffffff;fill-opacity:1" />
  </g>
  <g
     id="g4297"
     transform="translate(121.70714,0)"
     inkscape:export-filename="/home/vassilis/Source/kouzinaapospiti.gr/logo.png"
     inkscape:export-xdpi="120.02"
     inkscape:export-ydpi="120.02">
    <path
       sodipodi:nodetypes="ccccccccccccc"
       inkscape:connector-curvature="0"
       id="path4266"
       d="m 51.63735,77.396393 -1.144646,22.529811 3.052389,9.322686 4.578583,-0.19422 4.006259,-21.752928 8.203295,0.388444 2.480065,6.797788 4.197035,16.120476 3.624712,-1.16534 2.098513,-20.781812 -1.144637,-12.624462 -6.710725,-2.045201 z"
       style="fill:#ffffff;fill-rule:evenodd;stroke:#000000;stroke-width:0.99133551px;stroke-linecap:butt;stroke-linejoin:miter;stroke-opacity:1" />
    <path
       inkscape:connector-curvature="0"
       id="path4212"
       d="m 11.24278,110.95196 c -1.53409,-1.84848 -0.66053,-6.26103 3.53813,-17.871694 7.51743,-20.7882 12.2767,-24.2649 20.7327,-15.14548 4.28521,4.6214 12.14423,24.259754 12.14423,30.346354 0,4.67861 -7.77435,5.67721 -11.29178,1.4504 -3.96381,-4.76322 -11.81877,-4.75835 -14.37013,0.009 -2.2477,4.19987 -7.75781,4.82065 -10.75315,1.2115 z"
       style="fill-opacity:1" />
    <path
       inkscape:connector-curvature="0"
       id="path4210"
       d="m 19.15822,104.51942 c 1.57521,-4.963054 12.04296,-4.917654 15.8754,0.0689 4.65891,6.06184 7.50963,2.63058 4.54196,-5.466914 -1.36955,-3.7369 -3.44381,-10.29996 -4.60947,-14.58458 -1.83255,-6.73592 -2.79162,-7.78753 -7.08653,-7.77035 -4.48676,0.0183 -5.45466,1.32087 -10.00789,13.47219 -2.7724,7.39877 -5.04073,14.401034 -5.04073,15.560584 0,3.4402 5.16048,2.3964 6.32726,-1.2798 z"
       style="fill:#ffffff;fill-opacity:1" />
    <path
       inkscape:connector-curvature="0"
       id="path4208"
       d="m 22.64346,93.701756 c 3.44093,-12.33835 3.36708,-12.21054 5.18152,-8.9683 0.94956,1.69678 1.20973,4.92432 0.57813,7.1723 -0.90125,3.20776 -0.73413,3.49561 0.77665,1.33776 1.65941,-2.37016 1.92887,-2.30692 1.95307,0.45824 0.0195,2.22935 -1.40733,3.20774 -4.67794,3.20774 -3.6007,0 -4.4959,-0.75339 -3.81143,-3.20774 z"
       style="fill-opacity:1" />
    <path
       sodipodi:nodetypes="sssssscccccsscscsssssscs"
       inkscape:connector-curvature="0"
       id="path4206"
       d="m 75.76673,111.11521 c -0.78946,-1.26019 -1.8692,-5.91177 -2.39942,-10.33686 -0.73449,-6.129794 -1.92684,-8.400084 -5.00734,-9.534214 -3.81046,-1.40286 -4.11435,-0.86042 -5.27749,9.420364 -1.1,9.72273 -1.68235,10.90896 -5.35549,10.90896 -6.92147,0 -8.43252,-3.93273 -7.85491,-20.443534 l 0.53525,-15.29986 10.99797,-0.212 10.551731,-1.173098 -9.635241,2.089598 -10.08146,1.1285 -0.53856,13.2892 c -0.63319,15.624724 2.29646,17.927424 3.83558,3.01477 0.58323,-5.65094 1.31726,-10.52317 1.63119,-10.82715 0.31392,-0.30398 3.87016,-0.83577 7.90274,-1.18177 l 7.33198,-0.62906 1.66374,12.3727 c 1.1166,8.303824 2.4729,12.372714 4.12424,12.372714 1.86409,0 2.46049,-3.74565 2.46049,-15.452964 0,-14.56792 -0.2362,-15.49846 -4.12423,-16.24733 -3.58117,-0.68975 -3.46898,-0.82723 0.852,-1.04398 7.41914,-0.37215 9.07303,4.43566 7.62635,22.16964 -1.11144,13.624504 -2.63529,17.792074 -6.53718,17.878554 -0.69661,0.0147 -1.91249,-1.003 -2.70194,-2.26318 z"
       style="fill-opacity:1" />
    <path
       inkscape:connector-curvature="0"
       id="path4204"
       d="m 103.75769,76.746036 c -16.47396,0 -21.38979,28.386724 -6.04296,34.894534 6.24001,2.64608 16.36132,0.54721 19.9707,-4.14258 3.19927,-4.1569 4.39356,-16.584494 2.1543,-22.419924 -1.46146,-3.80852 -10.19146,-8.33203 -16.08204,-8.33203 z m 3.85157,13.02735 c 2.0451,0.15247 2.37109,1.32666 2.37109,4.81445 0,2.88977 -0.99139,6.243344 -2.20117,7.453124 -5.07907,5.07908 -9.67707,1.12916 -8.48438,-7.289064 0.4383,-3.09366 1.98179,-4.41645 5.64454,-4.83789 1.11537,-0.12834 1.98821,-0.19145 2.66992,-0.14062 z"
       style="fill-opacity:1" />
    <path
       inkscape:connector-curvature="0"
       id="path4202"
       d="m 103.70301,78.621036 c -7.05918,0.0757 -12.36178,6.02834 -13.375,15.01758 -1.48343,13.160934 6.80099,19.371964 18.64257,13.976564 4.97799,-2.26811 8.95456,-12.273774 7.04102,-17.716794 -1.89128,-5.37971 -8.37468,-11.31951 -12.30859,-11.27735 z m 3.90625,11.15235 c 2.0451,0.15247 2.37109,1.32666 2.37109,4.81445 0,2.88977 -0.99139,6.243344 -2.20117,7.453124 -5.07907,5.07908 -9.67707,1.12916 -8.48438,-7.289064 0.4383,-3.09366 1.98179,-4.41645 5.64454,-4.83789 1.11537,-0.12834 1.98821,-0.19145 2.66992,-0.14062 z"
       style="fill:#ffffff;fill-opacity:1" />
    <path
       inkscape:connector-curvature="0"
       id="path4200"
       d="m 104.5741,84.150336 c -3.14705,-0.0965 -6.61621,1.5684 -9.125,4.75781 -4.55026,5.78471 -4.69149,7.7434 -0.94531,13.091804 3.66277,5.22935 12.72987,5.54111 15.41211,0.52929 2.56222,-4.787544 2.39869,-13.550524 -0.30274,-16.251954 -1.37822,-1.37822 -3.15083,-2.06903 -5.03906,-2.12695 z m 3.03516,5.62305 c 2.0451,0.15247 2.37109,1.32666 2.37109,4.81445 0,2.88977 -0.99139,6.243344 -2.20117,7.453124 -5.07907,5.07908 -9.67707,1.12916 -8.48438,-7.289064 0.4383,-3.09366 1.98179,-4.41645 5.64454,-4.83789 1.11537,-0.12834 1.98821,-0.19145 2.66992,-0.14062 z"
       style="fill-opacity:1" />
  </g>
  <g
     id="g4268"
     transform="translate(-2.0853828,0)"
     inkscape:export-filename="/home/vassilis/Source/kouzinaapospiti.gr/logo.png"
     inkscape:export-xdpi="120.02"
     inkscape:export-ydpi="120.02">
    <path
       inkscape:connector-curvature="0"
       id="path4196"
       d="m 130.98085,61.693646 c -4.52694,-3.56089 -4.73314,-4.4064 -3.55344,-14.57078 l 1.25237,-10.79053 -12.07803,-13.495103 C 105.35025,10.265677 104.80446,9.2668969 108.62641,8.2425169 c 8.60041,-2.30511 13.64657,-1.04503 20.99121,5.2417001 l 7.46688,6.391376 2.99418,-4.569696 c 1.6468,-2.51334 3.77626,-6.6267301 4.73215,-9.1408701 1.35231,-3.55686 3.03786,-4.57117 7.59622,-4.57117 3.22203,0 7.28069,1.28727 9.01919,2.8606 2.98223,2.69888 2.92441,3.29476 -1.02261,10.5397201 -6.62273,12.156399 -10.11142,25.188689 -9.62813,35.966749 l 0.4465,9.95769 -7.71768,2.27764 c -6.99318,2.06383 -8.16881,1.92277 -12.52347,-1.50261 z"
       style="fill-opacity:1" />
    <path
       inkscape:connector-curvature="0"
       id="path4194"
       d="m 141.36786,45.021386 c -0.44258,-9.36822 0.39349,-12.3998 6.96684,-25.261513 4.10838,-8.038646 7.46978,-15.0021061 7.46978,-15.4743661 0,-0.47226 -1.63506,-0.85866 -3.63347,-0.85866 -2.69868,0 -5.22485,3.34109 -9.81913,12.9866601 l -6.18567,12.986649 -6.67476,-7.029423 c -3.6711,-3.86619 -7.14413,-8.472906 -7.71782,-10.237166 -1.04182,-3.2038601 -8.91708,-4.5467701 -10.60906,-1.80908 -0.47543,0.76926 3.6878,6.70158 9.25164,13.182926 l 10.11605,11.784293 -0.77662,10.73668 -0.77662,10.73667 6.44589,-0.54894 6.44589,-0.54894 -0.50294,-10.64579 z"
       style="fill:#ffffff;fill-opacity:1" />
    <path
       inkscape:connector-curvature="0"
       id="path4192"
       d="M 5.15449,60.796816 C 2.8516,58.184906 2.21649,52.740856 2.0969,34.587706 2.0139,21.985873 2.38854,10.231797 2.92949,8.4675469 c 0.71185,-2.32164 2.91279,-3.20774 7.96755,-3.20774 7.9275,0 10.50546,2.25239 11.39494,9.9558901 l 0.62044,5.373416 5.29003,-7.664656 c 4.41728,-6.4001501 6.29553,-7.6646501 11.3848,-7.6646501 3.90765,0 7.43473,1.43825 9.82873,4.00791 3.39016,3.6389101 3.47995,4.3561401 0.97524,7.7902201 -9.47239,12.987159 -9.22884,10.785539 -2.90579,26.267649 3.18396,7.796 5.96876,14.97981 6.18845,15.96402 0.61392,2.75037 -7.19462,3.29329 -14.18497,0.98627 -4.99843,-1.64963 -6.90393,-3.72389 -9.38219,-10.21313 -4.95623,-12.9777 -9.06077,-10.39555 -10.36548,6.52089 -0.43814,5.68083 -1.13523,6.47814 -6.08745,6.96267 -3.61836,0.35402 -6.61874,-0.61659 -8.4993,-2.74949 z"
       style="fill-opacity:1" />
    <path
       inkscape:connector-curvature="0"
       id="path4190"
       d="m 12.14918,48.335156 c 0.36498,-11.40098 0.44968,-11.66126 4.50025,-13.82905 5.04008,-2.69738 9.63856,1.38125 13.77812,12.22054 2.05522,5.38151 4.15405,8.02399 6.37318,8.02399 5.20412,0 5.45151,-2.25109 1.62893,-14.82223 -4.63068,-15.228693 -4.5307,-17.456173 1.08296,-24.127629 2.9598,-3.51752 4.04426,-6.2101601 2.94419,-7.3102301 -3.23681,-3.23681 -7.49428,-0.5232 -16.28574,10.3801561 -12.3835,15.358293 -14.11158,15.409103 -12.90514,0.37945 0.67646,-8.427306 0.33765,-12.1487461 -1.1043,-12.1292861 -5.67239,0.0766 -6.54468,3.2969801 -7.10587,26.2343991 -0.55271,22.5907 -0.44708,23.35829 3.14339,22.84402 2.97565,-0.42621 3.76204,-1.99183 3.95003,-7.86413 z"
       style="fill:#ffffff;fill-opacity:1" />
    <path
       inkscape:connector-curvature="0"
       id="path4188"
       d="m 77.22449,9.1112719 c -3.19943,0.0169 -6.21348,0.9134251 -9.57617,2.6523431 -8.57754,4.43561 -12.64434,12.757272 -12.65234,25.890621 -0.006,9.49835 0.75438,12.22037 4.72851,16.94336 2.60396,3.09463 7.34617,6.38225 10.53906,7.30664 24.097,6.97644 39.56585,-10.73118 32.28321,-36.955074 -1.57,-5.65335 -3.52832,-7.706498 -10.92578,-11.455078 C 85.75907,10.523634 81.33805,9.0895409 77.22449,9.1112719 Z m 2.96289,18.1054641 c 2.01429,-0.0471 3.99371,0.63434 5.59766,2.23829 3.71414,3.71414 2.60696,13.27615 -2.04297,17.64453 -7.71574,7.24856 -14.08789,3.4302 -14.08789,-8.44141 0,-6.43761 5.38557,-11.32095 10.5332,-11.44141 z"
       style="fill-opacity:1" />
    <path
       inkscape:connector-curvature="0"
       id="path4186"
       d="m 77.06824,11.013615 c -2.12459,0.09636 -4.42154,0.947851 -7.34375,2.458985 -9.59134,4.959866 -12.90234,11.167539 -12.90234,24.195316 0,10.03194 0.65888,12.40888 4.5,16.25 5.69254,5.69254 17.58361,6.10897 26.10351,0.91406 12.17691,-7.42473 12.65425,-26.4955 0.94141,-37.597658 -4.69415,-4.449412 -7.75785,-6.381298 -11.29883,-6.220703 z m 3.11914,16.203121 c 2.01429,-0.0471 3.99371,0.63434 5.59766,2.23829 3.71414,3.71414 2.60696,13.27615 -2.04297,17.64453 -7.71574,7.24856 -14.08789,3.4302 -14.08789,-8.44141 0,-6.43761 5.38557,-11.32095 10.5332,-11.44141 z"
       style="fill:#ffffff;fill-opacity:1" />
    <path
       inkscape:connector-curvature="0"
       id="path4184"
       d="m 79.80848,20.072209 c -5.64733,0.229145 -13.41536,4.170287 -16.14258,8.787107 -5.68897,9.63066 -3.69384,18.9807 5.07226,23.77539 5.71036,3.12332 9.33744,2.50561 15.43946,-2.6289 4.49736,-3.78428 5.63867,-6.17308 5.63867,-11.79492 0,-8.82892 -2.72542,-16.207831 -6.52539,-17.666021 -0.98934,-0.379646 -2.1792,-0.525536 -3.48242,-0.472656 z m 0.3789,7.144527 c 2.01429,-0.0471 3.99371,0.63434 5.59766,2.23829 3.71414,3.71414 2.60696,13.27615 -2.04297,17.64453 -7.71574,7.24856 -14.08789,3.4302 -14.08789,-8.44141 0,-6.43761 5.38557,-11.32095 10.5332,-11.44141 z"
       style="fill-opacity:1" />
    <path
       inkscape:connector-curvature="0"
       id="path4180"
       d="m 169.51918,58.382436 c -7.74451,-8.08353 -6.30881,-15.41339 5.07349,-25.90228 9.00867,-8.301573 9.31946,-8.868603 4.86658,-8.879143 -8.9587,-0.0212 -14.73278,-12.305486 -7.64774,-16.2704661 4.39328,-2.45861 35.3662,-0.29864 39.8489,2.7789501 4.8323,3.31762 5.86556,3.14282 6.99698,-1.1837101 0.85665,-3.27584 2.50022,-3.66598 15.44389,-3.66598 16.92337,0 21.29875,2.16781 20.38388,10.0993701 -0.44461,3.854476 -1.82848,5.619626 -4.98413,6.357236 -3.94112,0.92121 -4.36865,1.99516 -4.36865,10.974233 0,9.35238 0.34664,10.11725 5.7434,12.67311 4.67899,2.21593 5.74337,3.81098 5.74337,8.60683 0,7.29414 -1.95087,8.11203 -19.34929,8.11203 -13.37037,0 -13.59049,-0.0774 -16.56236,-5.82437 -2.83302,-5.47848 -2.81502,-5.96832 0.30327,-8.24847 1.82335,-1.33326 4.39478,-2.42411 5.71432,-2.42411 1.73081,0 2.39915,-3.31908 2.39915,-11.91446 0,-10.576583 -0.39998,-11.914463 -3.56206,-11.914463 -1.95912,0 -4.76774,-1.72138 -6.24138,-3.825296 l -2.67934,-3.8253 -1.28097,4.283546 c -0.70455,2.35595 -6.32676,9.438843 -12.49385,15.739763 l -11.21286,11.45621 8.19551,0.0583 c 9.17328,0.0653 14.62499,3.20263 14.58294,8.39226 -0.0539,6.65457 -2.4889,7.59854 -21.54237,8.35141 -18.30712,0.72339 -18.94517,0.61404 -23.37068,-4.0052 z"
       style="fill-opacity:1" />
    <path
       inkscape:connector-curvature="0"
       id="path4178"
       d="m 199.56721,55.438016 c 3.9715,-0.7943 5.72811,-2.1996 5.72811,-4.58249 0,-3.05499 -1.52749,-3.43686 -13.74745,-3.43686 -9.32916,0 -13.74746,-0.69409 -13.74746,-2.15963 0,-1.1878 6.18636,-8.5167 13.74746,-16.28645 7.5611,-7.769753 13.74745,-14.958829 13.74745,-15.975719 0,-1.95603 -32.46197,-5.2139801 -34.23961,-3.4363601 -0.5721,0.5720901 -0.55173,2.3130201 0.0453,3.8687201 0.77926,2.03079 3.68648,2.82854 10.3079,2.82854 6.13356,0 9.23658,0.76742 9.26456,2.291236 0.0231,1.26019 -4.98819,6.82854 -11.13627,12.374123 -9.27702,8.36791 -11.23273,11.16377 -11.49828,16.43784 -0.2855,5.67098 0.27193,6.48596 5.17904,7.57195 7.50053,1.65994 19.43153,1.88865 26.34928,0.5051 z"
       style="fill:#ffffff;fill-opacity:1" />
    <path
       inkscape:connector-curvature="0"
       id="path4176"
       d="m 240.58045,53.574136 c 8.54894,-1.41305 9.86727,-7.40052 1.833,-8.32496 -5.02457,-0.57814 -5.0424,-0.63143 -5.56319,-16.6187 l -0.52246,-16.038699 4.64669,0 c 2.96945,0 4.6467,-1.02267 4.6467,-2.8332401 0,-4.44875 -24.46149,-3.03966 -25.31913,1.4585001 -0.47643,2.49888 0.64906,3.20774 5.09316,3.20774 l 5.70475,0 -0.52962,16.038689 c -0.48276,14.61968 -0.89451,16.19879 -4.65385,17.8481 -2.26833,0.99517 -4.12423,2.85108 -4.12423,4.12424 0,2.53185 7.57921,2.99106 18.78818,1.13833 z"
       style="fill:#ffffff;fill-opacity:1" />
    <path
       inkscape:connector-curvature="0"
       id="path4174"
       d="m 262.34579,61.440436 c -2.56168,-3.08664 -3.58583,-36.914543 -1.49085,-49.243119 1.34912,-7.9393001 1.96692,-8.7364101 7.58841,-9.7910101 7.77808,-1.45917 12.56729,1.13147 19.31701,10.4492001 5.09664,7.035686 5.41164,7.190966 6.3136,3.11246 0.52213,-2.36098 1.1755,-6.7672301 1.45193,-9.7916701 0.41842,-4.57763 1.4032,-5.60156 5.87757,-6.11123 6.72674,-0.76623 11.93928,5.31528 11.99774,13.9978601 0.0224,3.3295 1.24933,11.577976 2.72647,18.329939 1.47713,6.75197 2.92061,14.7213 3.20773,17.70961 0.42746,4.44885 1.63482,2.45614 6.66351,-10.99796 13.59823,-36.3815791 11.41716,-32.8606491 20.73655,-33.4752491 7.70136,-0.50789 8.67587,-0.0515 13.62083,6.3788801 7.8748,10.240326 19.48278,45.079749 16.05251,48.178889 -0.85884,0.77594 -4.27806,1.91883 -7.59825,2.53976 -5.47185,1.02332 -6.39719,0.51797 -9.88935,-5.40079 -3.00655,-5.09574 -4.69993,-6.30229 -7.71075,-5.49408 -2.12194,0.56962 -5.28039,1.04692 -7.01877,1.06069 -1.73837,0.0138 -4.4403,2.49957 -6.0043,5.52401 -3.40158,6.57794 -9.70218,7.31568 -14.75886,1.72813 l -3.41258,-3.77086 -1.39493,3.77086 c -1.02847,2.78021 -3.01192,3.77085 -7.54995,3.77085 -7.78355,0 -14.27677,-6.54187 -15.80105,-15.91945 -0.86228,-5.30489 -2.95259,-8.2406 -9.34114,-13.1191 l -8.23029,-6.28489 -0.52972,14.7471 c -0.31397,8.7409 -1.43376,15.46952 -2.74949,16.52089 -4.31116,3.44498 -9.91706,4.17873 -12.07358,1.58028 z"
       style="fill-opacity:1" />
    <path
       inkscape:connector-curvature="0"
       id="path4172"
       d="m 333.96312,51.736826 c 2.04452,-4.144 3.79558,-4.95551 12.07587,-5.59643 9.40839,-0.72824 9.74024,-0.59001 11.63552,4.84681 2.0667,5.92855 5.35166,7.15168 8.62251,3.21054 1.44308,-1.7388 1.06352,-5.09444 -1.39951,-12.37271 -1.85878,-5.49275 -4.95938,-15.34833 -6.8902,-21.901283 l -3.51059,-11.9144561 -7.6358,-0.56068 c -7.03996,-0.51693 -7.73215,-0.15936 -8.8709,4.5824801 -0.67932,2.82874 -4.41841,13.202006 -8.30911,23.051699 -3.89069,9.84969 -7.07398,18.24389 -7.07398,18.65378 0,0.65439 3.96711,2.0134 7.6902,2.63443 0.7011,0.11694 2.3508,-1.96844 3.66599,-4.63418 z"
       style="fill:#ffffff;fill-opacity:1" />
    <path
       inkscape:connector-curvature="0"
       id="path4170"
       d="m 339.10388,38.306676 c 0,-3.0832 5.58621,-22.048909 6.49433,-22.048909 1.11653,0 6.78725,20.323309 5.9143,21.196259 -0.41882,0.41881 -3.38209,1.2856 -6.58506,1.92619 -3.99923,0.79985 -5.82357,0.46354 -5.82357,-1.07354 z"
       style="fill-opacity:1" />
    <path
       inkscape:connector-curvature="0"
       id="path4168"
       d="m 350.10184,34.587706 c 0,-1.00815 -0.82485,-1.83299 -1.83299,-1.83299 -1.00815,0 -1.833,0.82484 -1.833,1.83299 0,1.00815 0.82485,1.83299 1.833,1.83299 1.00814,0 1.83299,-0.82484 1.83299,-1.83299 z"
       style="fill-opacity:1" />
    <path
       inkscape:connector-curvature="0"
       id="path4156"
       d="m 269.60793,36.733006 c -0.21169,-9.40563 -0.83447,-18.272743 -1.38397,-19.704689 -2.06846,-5.39035 3.17317,-2.23356 14.69928,8.852669 9.58819,9.22226 12.34277,13.17403 14.12622,20.26562 1.61784,6.433 2.93193,8.53447 4.87142,7.79022 1.46077,-0.56055 3.41333,-1.01918 4.33903,-1.01918 1.98465,0 2.1297,-9.6417 0.4921,-32.712303 -1.13942,-16.0522061 -1.37748,-16.7785361 -5.49898,-16.7785361 -4.11174,0 -4.30801,0.5846 -4.30801,12.8309601 0,9.054096 -0.67443,12.824709 -2.29125,12.809719 -1.26018,-0.0117 -6.41126,-5.824343 -11.44682,-12.917019 -8.11679,-11.4326101 -9.67616,-12.7651101 -13.7437,-11.7442201 -2.52346,0.63335 -4.70885,1.29071 -4.85641,1.4608 -1.58913,1.83179 -3.59003,26.9426191 -2.91715,36.6095691 0.7838,11.2607 1.22897,12.41732 4.5856,11.91446 3.46179,-0.51862 3.69103,-1.73329 3.33264,-17.65807 z"
       style="fill:#ffffff;fill-opacity:1" />
  </g>
</svg>
