<?xml version="1.0" encoding="UTF-8" standalone="no"?>
<!-- Created with Inkscape (http://www.inkscape.org/) -->

<svg
   xmlns:dc="http://purl.org/dc/elements/1.1/"
   xmlns:cc="http://creativecommons.org/ns#"
   xmlns:rdf="http://www.w3.org/1999/02/22-rdf-syntax-ns#"
   xmlns:svg="http://www.w3.org/2000/svg"
   xmlns="http://www.w3.org/2000/svg"
   xmlns:sodipodi="http://sodipodi.sourceforge.net/DTD/sodipodi-0.dtd"
   xmlns:inkscape="http://www.inkscape.org/namespaces/inkscape"
   id="svg2"
   version="1.1"
   inkscape:version="0.91 r13725"
   xml:space="preserve"
   width="289.51605"
   height="200"
   viewBox="0 0 289.51605 200"
   sodipodi:docname="logo.svg"
   inkscape:export-filename="/home/vassilis/Source/kouzinaapospiti.gr/img/logo.png"
   inkscape:export-xdpi="42.770382"
   inkscape:export-ydpi="42.770382"><metadata
     id="metadata8"><rdf:RDF><cc:Work
         rdf:about=""><dc:format>image/svg+xml</dc:format><dc:type
           rdf:resource="http://purl.org/dc/dcmitype/StillImage" /><dc:title></dc:title></cc:Work></rdf:RDF></metadata><defs
     id="defs6"><clipPath
       clipPathUnits="userSpaceOnUse"
       id="clipPath24"><path
         d="m 0,841.89 595.28,0 L 595.28,0 0,0 0,841.89 Z"
         id="path26"
         inkscape:connector-curvature="0" /></clipPath></defs><sodipodi:namedview
     pagecolor="#434343"
     bordercolor="#666666"
     borderopacity="1"
     objecttolerance="10"
     gridtolerance="10"
     guidetolerance="10"
     inkscape:pageopacity="0"
     inkscape:pageshadow="2"
     inkscape:window-width="1881"
     inkscape:window-height="1176"
     id="namedview4"
     showgrid="false"
     fit-margin-top="0"
     fit-margin-left="0"
     fit-margin-right="0"
     fit-margin-bottom="0"
     inkscape:zoom="0.89702923"
     inkscape:cx="86.766725"
     inkscape:cy="130.78503"
     inkscape:window-x="39"
     inkscape:window-y="24"
     inkscape:window-maximized="1"
     inkscape:current-layer="g10"
     showborder="false" /><g
     id="g10"
     inkscape:groupmode="layer"
     inkscape:label="logo"
     transform="matrix(1.25,0,0,-1.25,-129.03644,697.30786)"><g
       id="g4718"
       transform="matrix(0.55686009,0,0,0.561193,165.92846,72.97822)"
       style="opacity:0.3"
       inkscape:export-filename="/home/vassilis/Source/kouzinaapospiti.gr/img/logo.png"
       inkscape:export-xdpi="49"
       inkscape:export-ydpi="49"><path
         inkscape:connector-curvature="0"
         id="path4646"
         style="fill:#ffffe0;fill-opacity:1;fill-rule:nonzero;stroke:none"
         d="m -67.454933,586.92869 c -0.619033,-0.62002 -1.605999,0.24722 -2.967698,1.606 -1.358785,1.35975 0.98988,8.04074 0.98988,8.04074 0,0 1.113504,0.24723 1.977818,-0.49446 0.866279,-0.74363 1.114475,-3.34049 1.114475,-5.31831 0,-1.9788 -0.495432,-3.21591 -1.114475,-3.83397 m -2.153989,54.97505 7.067395,1.56803 0.786458,12.17451 -4.241803,0.39127 -2.973539,3.56145 -10.954913,0 -1.970033,-1.57973 -4.202871,-1.98172 -0.393229,-12.95705 7.85191,-0.78549 c 0,0 -15.562684,-58.11309 10.60256,-63.21532 21.647021,-4.22233 -1.571935,62.82405 -1.571935,62.82405"
         inkscape:export-filename="/home/vassilis/Source/kouzinaapospiti.gr/img/logo.png"
         inkscape:export-xdpi="49"
         inkscape:export-ydpi="49" /><g
         style="fill:#ffffff"
         id="g4648"
         transform="matrix(1.1041734,0,0,1.1041734,-25.441567,786.98649)"
         inkscape:export-filename="/home/vassilis/Source/kouzinaapospiti.gr/img/logo.png"
         inkscape:export-xdpi="49.160664"
         inkscape:export-ydpi="49.160664"><path
           d="M 0,0 7.031,2.766 6.558,-18.33 23.622,1.897 l 8.93,-1.264 -7.375,-12.303 7.036,-24.767 -9.006,-1.97 -3.94,10.695 -5.912,6.755 -7.667,-5.433 2.039,-11.173 -9.388,0.191 L 0,0 Z"
           style="fill:#ffffe0;fill-opacity:1;fill-rule:nonzero;stroke:none"
           id="path4650"
           inkscape:connector-curvature="0" /></g><g
         style="fill:#ffffff"
         id="g4652"
         transform="matrix(1.1041734,0,0,1.1041734,99.628816,792.43614)"
         inkscape:export-filename="/home/vassilis/Source/kouzinaapospiti.gr/img/logo.png"
         inkscape:export-xdpi="49.160664"
         inkscape:export-ydpi="49.160664"><path
           d="m 0,0 7.6,0.563 1.969,-2.251 -13.228,-25.049 1.408,-16.043 -13.228,-0.563 1.533,15.892 -18.702,21.26 10.694,2.533 L -7.6,-17.73 0,0 Z"
           style="fill:#ffffe0;fill-opacity:1;fill-rule:nonzero;stroke:none"
           id="path4654"
           inkscape:connector-curvature="0" /></g><path
         inkscape:connector-curvature="0"
         id="path4656"
         style="fill:#ffffe0;fill-opacity:1;fill-rule:nonzero;stroke:none"
         d="m 120.87874,788.47017 c 0,0 27.67501,-3.10715 31.49213,-1.74681 3.81713,1.36255 -9.2353,-15.41978 -9.2353,-15.41978 l -15.36568,-17.46912 23.99037,-0.0861 0.38757,-8.54851 c 0,0 -34.00854,-2.29999 -35.80503,2.26797 -1.79759,4.56907 0.6084,11.33986 0.6084,11.33986 l 13.75358,11.56401 7.09652,8.84885 -17.66235,0.16341 0.73979,9.08625 z"
         inkscape:export-filename="/home/vassilis/Source/kouzinaapospiti.gr/img/logo.png"
         inkscape:export-xdpi="49"
         inkscape:export-ydpi="49" /><path
         inkscape:connector-curvature="0"
         id="path4658"
         style="fill:#ffffe0;fill-opacity:1;fill-rule:nonzero;stroke:none"
         d="m 164.50331,788.81743 23.07281,0.20096 2.48549,-6.21539 -10.46425,-0.0928 1.45199,-26.63267 7.27098,-0.75746 1.43101,-8.2548 c 0,0 -23.92854,-3.10825 -25.48212,-0.93303 -1.55467,2.17523 -0.20096,6.04756 -0.20096,6.04756 l 9.63833,1.41114 -0.59515,27.48839 -10.08772,1.02247 1.47959,6.71558 z"
         inkscape:export-filename="/home/vassilis/Source/kouzinaapospiti.gr/img/logo.png"
         inkscape:export-xdpi="49"
         inkscape:export-ydpi="49" /><path
         inkscape:connector-curvature="0"
         id="path4660"
         style="fill:#ffffe0;fill-opacity:1;fill-rule:nonzero;stroke:none"
         d="m 231.70584,793.36883 9.74875,0.68238 2.68093,-47.29727 -10.18269,-0.50792 -3.92533,15.87912 -22.59691,19.80335 1.57013,-35.24521 -9.33468,-2.09683 1.48291,46.41283 12.84264,0.19433 16.16068,-19.88948 0.31138,21.96643"
         inkscape:export-filename="/home/vassilis/Source/kouzinaapospiti.gr/img/logo.png"
         inkscape:export-xdpi="49"
         inkscape:export-ydpi="49" /><path
         inkscape:connector-curvature="0"
         id="path4662"
         style="fill:#ffffe0;fill-opacity:1;fill-rule:nonzero;stroke:none"
         d="m 15.96604,727.5654 -1.834032,-27.38019 6.560998,0.57417 0.622754,20.20085 13.190455,0.81047 0.918672,-21.81405 5.77814,0.18108 0.995964,29.14907 -26.232951,-1.7214 z"
         inkscape:export-filename="/home/vassilis/Source/kouzinaapospiti.gr/img/logo.png"
         inkscape:export-xdpi="49"
         inkscape:export-ydpi="49" /><path
         inkscape:connector-curvature="0"
         id="path4664"
         style="fill:#ffffe0;fill-opacity:1;fill-rule:nonzero;stroke:none"
         d="m 15.099153,686.77569 -0.310272,-9.94419 -28.902843,-0.93192 16.6752263,-12.91331 -10.4587304,-15.0554 22.9469321,0.17335 0.982714,-14.15881 -39.467574,0 -2.476661,8.46017 11.589404,15.78416 -15.383344,15.08743 1.996346,10.58902 42.808802,2.9095 z"
         inkscape:export-filename="/home/vassilis/Source/kouzinaapospiti.gr/img/logo.png"
         inkscape:export-xdpi="49"
         inkscape:export-ydpi="49" /><path
         style="fill:#ffffe0;fill-opacity:1;fill-rule:nonzero;stroke:none"
         d="m 269.97999,789.60434 -16.6562,-43.76365 11.59963,-3.16416 2.40956,9.09545 15.07937,3.04922 5.15689,-10.83163 9.58471,3.39227 -12.95073,41.09231 -14.22323,1.13019 z m 5.15185,-9.99054 3.37439,-10.54256 2.19385,-7.64309 -10.6298,-0.87769 5.06156,19.06334 z"
         id="path4666"
         inkscape:connector-curvature="0"
         inkscape:export-filename="/home/vassilis/Source/kouzinaapospiti.gr/img/logo.png"
         inkscape:export-xdpi="49"
         inkscape:export-ydpi="49" /><path
         inkscape:connector-curvature="0"
         id="path4668"
         style="fill:#ffffe0;fill-opacity:1;fill-rule:nonzero;stroke:none"
         d="m 66.501406,635.51355 11.062713,0.91868 -0.931922,50.34368 -44.691418,-5.1068 -3.166769,-22.86191 0.309168,-21.44305 14.916278,0.93302 -0.930818,35.11603 20.821398,0.31027 2.61137,-38.20992 z"
         inkscape:export-filename="/home/vassilis/Source/kouzinaapospiti.gr/img/logo.png"
         inkscape:export-xdpi="49"
         inkscape:export-ydpi="49" /><path
         inkscape:connector-curvature="0"
         id="path4670"
         style="fill:#ffffe0;fill-opacity:1;fill-rule:nonzero;stroke:none"
         d="m 91.587894,684.6666 -2.991206,-7.98979 12.273992,-0.77624 1.2433,-30.45531 c 0,0 -9.154703,-3.27387 -10.325126,-1.63749 l 0.07067,-8.30669 27.347056,-0.31138 0.65367,11.91293 -8.73401,0.20537 -2.25361,30.36698 8.77928,0.40081 1.2433,6.83705 c 0,0 -18.87805,2.30772 -27.307313,-0.24624"
         inkscape:export-filename="/home/vassilis/Source/kouzinaapospiti.gr/img/logo.png"
         inkscape:export-xdpi="49"
         inkscape:export-ydpi="49" /><path
         inkscape:connector-curvature="0"
         id="path4672"
         style="fill:#ffffe0;fill-opacity:1;fill-rule:nonzero;stroke:none"
         d="m 131.7522,679.97166 32.87235,1.89807 11.76496,-1.30955 0.93082,-10.56473 -19.09226,2.48439 5.89408,-36.76566 -11.66228,-4.56576 -4.66293,22.0647 -0.62054,16.47206 -17.51992,2.09351 2.09572,8.19297 z"
         inkscape:export-filename="/home/vassilis/Source/kouzinaapospiti.gr/img/logo.png"
         inkscape:export-xdpi="49"
         inkscape:export-ydpi="49" /><path
         inkscape:connector-curvature="0"
         id="path4674"
         style="fill:#ffffe0;fill-opacity:1;fill-rule:nonzero;stroke:none"
         d="m 43.068969,750.48406 c -2.486598,-0.93302 -10.878316,-3.10825 -12.431888,0 -1.553572,3.10825 -5.902911,9.63391 -3.728793,13.98436 2.175221,4.35044 4.66182,8.39172 4.66182,8.39172 0,0 9.321432,1.24329 12.120511,0 2.796871,-1.2433 5.281261,-7.14842 5.592638,-9.32475 0.312481,-2.17412 -3.727689,-12.11941 -6.214288,-13.05133 m 3.107144,32.94081 c 0,0 -4.350443,2.79576 -7.458691,2.79576 -3.108248,0 -7.457587,-2.17411 -9.012263,-2.48659 -1.554676,-0.30917 -5.593742,-5.90402 -7.768964,-7.14621 -2.174117,-1.2422 -1.243299,-12.12052 -2.705225,-13.59238 -1.461925,-1.47297 2.393848,-13.44552 2.705225,-14.99909 0.311377,-1.55357 4.04017,-5.90512 7.415629,-6.7211 3.375457,-0.81599 8.743948,-0.73649 13.717145,-0.42622 4.972093,0.31138 9.944186,5.28347 11.496654,7.76897 1.553572,2.4866 3.419625,8.08034 4.041274,15.8493 0.622754,7.77007 -12.430784,18.95756 -12.430784,18.95756"
         inkscape:export-filename="/home/vassilis/Source/kouzinaapospiti.gr/img/logo.png"
         inkscape:export-xdpi="49"
         inkscape:export-ydpi="49" /><path
         inkscape:connector-curvature="0"
         id="path4676"
         style="fill:#ffffe0;fill-opacity:1;fill-rule:nonzero;stroke:none"
         d="m 67.688613,706.72843 c -0.241814,-0.87119 -4.109733,-5.34641 -7.174919,-4.93676 -3.067393,0.40965 -4.082129,0.83476 -5.948182,3.31915 -1.86274,2.4866 2.17743,11.18859 2.17743,11.18859 0,0 4.972093,3.731 7.458692,2.48659 2.486598,-1.2444 4.039066,-3.41852 4.349339,-5.90511 0.311376,-2.4866 -0.62165,-5.28347 -0.86236,-6.15246 m -0.691212,17.96049 c -4.973197,4.34933 -9.322536,-0.30917 -11.497758,-0.61945 -2.176326,-0.31248 -5.502096,-5.60478 -6.159079,-7.57794 -0.505712,-1.52044 -0.36769,-10.44658 0.382044,-12.74768 0.750838,-2.3011 4.842904,-6.4031 7.639776,-6.4031 2.800183,0 8.392822,0.31248 10.878316,1.2444 2.486598,0.93192 2.175221,3.10715 5.283469,10.25446 3.108249,7.14952 -6.526768,15.84931 -6.526768,15.84931"
         inkscape:export-filename="/home/vassilis/Source/kouzinaapospiti.gr/img/logo.png"
         inkscape:export-xdpi="49"
         inkscape:export-ydpi="49" /><path
         inkscape:connector-curvature="0"
         id="path4678"
         style="fill:#ffffe0;fill-opacity:1;fill-rule:nonzero;stroke:none"
         d="m -9.1409861,710.08412 3.107144,9.01227 3.5708967,-8.98024 -6.6780407,-0.032 z m 8.34092581,18.56999 -9.18340981,0 -10.1606039,-28.24034 6.029891,-2.76043 2.465619,7.29638 10.277646,-0.45934 4.0390663,-6.83704 6.2153921,3.41852 -9.68360069,27.58225 z"
         inkscape:export-filename="/home/vassilis/Source/kouzinaapospiti.gr/img/logo.png"
         inkscape:export-xdpi="49"
         inkscape:export-ydpi="49" /><path
         inkscape:connector-curvature="0"
         id="path4680"
         style="fill:#ffffe0;fill-opacity:1;fill-rule:nonzero;stroke:none"
         d="m 188.4091,684.6666 24.97089,0.72434 3.38208,-7.31515 -11.07265,-0.40081 1.46524,-31.2989 8.52753,-0.0685 0.795,-8.9438 -27.96871,-2.31656 -0.60509,7.66076 9.59085,1.01363 1.2433,31.07585 -12.54672,1.10307 2.21828,8.76603 z"
         inkscape:export-filename="/home/vassilis/Source/kouzinaapospiti.gr/img/logo.png"
         inkscape:export-xdpi="49"
         inkscape:export-ydpi="49" /><path
         inkscape:connector-curvature="0"
         id="path4682"
         style="fill:#ffffe0;fill-opacity:1;fill-rule:nonzero;stroke:none"
         d="m 7.8820552,747.64269 c -1.6562602,9.15912 -6.2805384,17.35982 -7.24116919,26.95619 3.40306239,4.09869 7.15614779,8.28571 9.86026899,13.08666 l -0.437253,0.26059 c -3.4902924,-0.43836 -5.9327239,1.57013 -9.42301599,1.13509 -1.0467564,-0.2639 -0.4350444,-1.57345 -0.872297,-2.26908 C -6.5991791,780.27102 -10.43839,771.7203 -18.200729,766.7471 c -0.960631,7.24117 1.132882,14.6579 1.132882,21.89797 -2.79135,-0.44057 -6.018849,-0.17446 -8.374051,-1.65847 -0.609503,-3.40306 -0.960631,-6.80392 -0.960631,-10.29421 0,-10.20919 1.39678,-20.85011 -0.873401,-30.97096 l 0.525587,-0.87119 c 2.790246,-0.0861 5.930515,0 8.811303,0.61171 -0.437252,4.09869 0.08723,8.54851 -1.22232,12.38551 0,4.45203 4.448715,6.01885 7.677318,7.76676 6.5422269,-5.14876 7.8517769,-12.56549 11.25263101,-19.45554 2.52966119,-0.61171 5.67103449,0.78618 8.11346619,1.48401 m 9.8569558,-6.10939 c -3.22529,-1.13398 -7.237856,-0.34781 -11.1654014,-0.34781 -2.6179951,2.35299 -7.24116909,1.57013 -8.2006958,5.75937 -2.3540979,4.09869 -2.3540979,8.80909 -6.0188489,12.30049 -1.920158,0 -3.1424779,-2.87969 -4.4487149,-4.44872 l -0.697837,-15.09405 c -2.87858,-1.39567 -6.368873,-0.96063 -9.335786,-1.83403 -2.265764,3.49029 -8.462385,6.36998 -5.582701,11.86766 2.095721,13.17168 -0.873401,25.99665 0.960631,39.34501 2.963601,0.17335 6.106079,0.95842 9.072993,0.95842 1.046756,0 2.093512,-0.17557 3.050831,-0.52338 l 4.450923,-4.53705 c -0.786172,-3.05083 -1.657365,-7.76675 -1.395676,-10.99094 l 0.873402,0.95953 9.594162,13.17389 c 0.34891881,0.43504 0.17556361,1.22011 0.17556361,1.65736 4.79763339,1.39568 9.07299279,-0.52448 13.52391539,-1.22232 0.6084,-2.35409 2.352994,-4.01367 3.485876,-6.01995 -1.919054,-4.44982 -6.5411234,-8.19849 -9.3324738,-12.12603 0.9573184,-7.0645 4.8848628,-12.91 6.7177908,-19.71612 1.65626,-3.05194 3.837003,-5.75606 4.272047,-9.16133"
         inkscape:export-filename="/home/vassilis/Source/kouzinaapospiti.gr/img/logo.png"
         inkscape:export-xdpi="49"
         inkscape:export-ydpi="49" /><path
         inkscape:connector-curvature="0"
         id="path4684"
         style="fill:#ffffe0;fill-opacity:1;fill-rule:nonzero;stroke:none"
         d="m 46.887201,768.57892 c -1.658468,2.79025 -5.062635,3.05525 -7.766756,3.31584 -1.830719,-1.30955 -3.835898,-2.18295 -5.581596,-3.57752 -1.658469,-2.00629 -2.616891,-4.62318 -2.356306,-7.15284 -0.609504,-4.62538 1.480696,-9.94639 5.672139,-12.47826 4.883759,-0.43284 7.848464,4.01367 10.903712,7.50285 1.74349,3.92865 1.13509,8.90075 -0.871193,12.38993 m 0.436149,3.14138 c 2.877475,-6.02216 3.662543,-14.39401 -1.30955,-19.54056 -2.529661,-3.57531 -5.759369,-4.9743 -9.85806,-4.71151 -4.973197,-0.43835 -9.074097,3.14248 -11.603758,7.0623 -0.435045,4.10421 -2.180743,9.9486 1.13509,13.43668 2.355202,3.75309 5.321011,8.02734 10.294208,7.76565 3.925337,2.79135 9.769727,0.6084 11.34207,-4.01256 m 6.106078,-21.45961 c 0.348919,4.4465 2.441328,8.19959 3.227499,12.47495 -0.08723,5.14655 -1.571239,9.76752 -4.450923,13.87173 l -9.334682,8.89743 c -2.0902,0.69784 -4.010357,0.25837 -6.1911,0.17225 -6.891146,-2.17964 -13.348352,-6.63167 -16.139702,-13.78229 -0.262793,-6.97948 -1.746802,-13.52281 -0.08613,-20.2384 1.657365,-4.18813 5.232678,-7.85288 9.855852,-8.63684 8.725178,-1.39568 17.535378,0.86898 23.119182,7.24117 m 3.227499,-4.62428 c -4.623174,-5.58712 -11.603758,-7.85067 -19.018282,-6.19552 l -8.286821,1.83403 c -6.893355,3.2275 -10.818691,9.50915 -11.081485,16.7459 0.610608,1.48401 0.960631,3.14358 0.960631,4.9743 0,5.23599 -0.523378,11.25484 3.838107,15.00461 2.094617,4.88486 7.156148,5.14766 10.731461,8.20291 8.462385,2.78914 15.092946,-3.14138 22.157447,-5.93162 4.710404,-4.01588 5.409346,-10.20698 5.409346,-16.13971 0,-2.00628 0.08723,-4.01367 0.174459,-5.84549 0.698942,-5.06264 -2.790246,-8.63795 -4.884863,-12.64941"
         inkscape:export-filename="/home/vassilis/Source/kouzinaapospiti.gr/img/logo.png"
         inkscape:export-xdpi="49"
         inkscape:export-ydpi="49" /><path
         inkscape:connector-curvature="0"
         id="path4686"
         style="fill:#ffffe0;fill-opacity:1;fill-rule:nonzero;stroke:none"
         d="m 83.619296,745.02359 c 4.1009,-0.6095 8.54851,-0.43725 12.477159,0.2639 -0.698942,5.93052 -0.874505,12.29939 -1.311758,18.57882 l 1.571239,2.618 c 2.093512,7.41563 6.977274,13.61114 10.032524,20.67675 0.26169,1.65626 2.3552,2.70301 2.61578,4.45092 -0.34671,0.95953 -1.39346,0.43173 -2.09351,0.52228 -1.04676,-0.34892 -2.18074,-0.34892 -3.31363,-0.34892 -1.04565,0 -2.18184,0 -3.2286,-0.61061 -1.046755,-3.48919 -2.878578,-6.63167 -4.623172,-9.76973 -1.395675,-3.75419 -4.274255,-5.23599 -4.274255,-10.99425 -0.437253,-2.61579 -2.44464,0.26169 -3.577522,1.13398 -3.926441,4.44982 -7.501754,7.93901 -10.205875,12.82277 -0.959527,6.72 -7.851777,1.04786 -11.865447,2.17853 -0.436149,0.26611 -0.959527,-0.34339 -0.872297,-0.69452 3.053039,-2.00518 4.973197,-5.40603 7.678422,-7.9379 2.964705,-5.49547 8.809095,-8.89743 11.863239,-14.21955 1.308445,-5.93272 -0.348919,-12.12382 -1.395676,-17.97263 l 0.523379,-0.69784 z m 31.144314,42.66195 c -3.40196,-4.27646 -5.32211,-9.16133 -7.67732,-13.96006 -1.04565,-4.27205 -2.18074,-8.46239 -4.01477,-12.56108 -0.0861,-6.71669 -0.0861,-13.26002 0.52558,-19.88948 -4.013666,-1.65736 -8.37515,-1.65736 -12.300487,-3.2286 -1.395675,-1.57013 -2.615787,0.87119 -4.01367,1.13288 l -4.710404,4.27757 c -1.393467,6.54002 2.093513,12.29718 1.657364,18.66826 -6.542227,7.3284 -12.213261,15.26299 -19.803349,21.63076 -0.261689,1.22453 -1.919054,1.74901 -1.395675,2.96802 l 14.045085,2.09351 c 4.885967,-4.53374 10.032519,-8.11236 13.957856,-13.25892 3.142477,4.79874 5.322116,10.11865 8.113466,15.09185 -0.259481,2.00628 0.872294,2.44132 2.267974,2.44132 1.48401,0 3.2297,-0.26058 4.27646,0.35223 3.83811,0.43284 7.0645,-3.14137 9.07189,-5.75826"
         inkscape:export-filename="/home/vassilis/Source/kouzinaapospiti.gr/img/logo.png"
         inkscape:export-xdpi="49"
         inkscape:export-ydpi="49" /><path
         inkscape:connector-curvature="0"
         id="path4688"
         style="fill:#ffffe0;fill-opacity:1;fill-rule:nonzero;stroke:none"
         d="m 117.3031,748.25308 0.43615,-0.78507 c 9.50914,-3.92975 22.15744,-2.79024 32.8867,-1.83182 1.83403,1.83182 0.43725,5.93383 1.13398,8.11236 -7.24006,-0.95953 -16.57474,-1.30513 -23.99037,0.0861 -0.43505,0.26279 -1.39568,0.69673 -1.13288,1.39678 2.53076,4.01367 6.89225,6.54554 9.68249,10.46646 4.62318,6.98168 14.0473,10.73256 15.44076,19.10882 -0.43394,0.95732 1.04786,1.30845 0.61172,1.91684 l -8.54852,-0.69783 c -8.11346,-0.69784 -14.92069,3.92865 -22.77026,1.13509 -0.69784,-2.00629 -1.13398,-4.88487 0.17446,-6.71559 l 16.57364,-1.22452 c 1.83293,-0.95953 -0.3456,-1.57014 -0.0872,-2.70192 -6.27833,-6.98168 -13.95454,-11.77932 -19.97449,-18.75769 l -0.43615,-9.50804 z m 35.59192,6.27833 6.54113,-5.05822 c -0.61061,-2.87858 -1.56793,-5.66882 -1.65626,-8.46349 -1.39568,-1.04455 -2.96471,-1.30734 -4.62207,-1.39236 -4.62539,0.34781 -9.59748,0.61061 -14.48345,0.61061 -4.79542,0 -9.50693,-0.2628 -13.69506,-1.04897 -3.48918,2.00739 -5.84439,5.58491 -8.63684,8.28903 -0.61171,3.92534 -0.43725,7.76345 0.6095,11.33986 2.00849,2.87858 5.32322,5.5816 8.19959,7.67622 3.66586,1.13619 5.41045,5.32211 8.37737,7.59119 -3.05636,0.52338 -6.01996,0.26279 -9.073,-0.70005 -1.13398,3.14358 -5.32101,3.92755 -4.88486,7.76676 0,2.52745 -0.52448,5.93162 1.30734,7.3284 10.64203,2.09351 21.1129,-2.3552 31.84326,0.17446 2.3552,-2.35521 5.14655,-3.92976 7.85178,-5.93494 0,-3.22639 -1.74791,-6.01774 -2.35631,-9.15911 -6.28164,-5.66883 -12.99833,-12.99833 -20.41617,-19.27777 4.45203,-0.96063 10.99426,0.69894 15.09405,0.25838"
         inkscape:export-filename="/home/vassilis/Source/kouzinaapospiti.gr/img/logo.png"
         inkscape:export-xdpi="49"
         inkscape:export-ydpi="49" /><path
         inkscape:connector-curvature="0"
         id="path4690"
         style="fill:#ffffe0;fill-opacity:1;fill-rule:nonzero;stroke:none"
         d="m 169.82896,745.98433 c 5.84439,0.26169 11.86103,0.96064 17.44483,1.56793 2.70523,1.57234 0.78617,5.14766 1.04676,7.76786 -2.00628,0.0872 -4.18813,-0.96063 -6.54223,-0.52338 -2.96691,-0.52338 -1.30734,3.40086 -2.00628,4.9721 1.39567,7.76233 -1.82962,15.52909 -0.17446,22.94141 2.00518,0.78727 3.92423,1.57344 6.28054,0.95952 1.48511,0 1.57013,1.30955 1.57013,2.44575 0,0.43062 0,0.78286 0.0861,1.04565 -0.69894,3.83921 -4.62207,0.96063 -7.23896,2.3552 -4.44982,-0.95953 -9.50804,-0.52448 -14.39511,-0.95953 -2.87637,-0.26279 -1.92016,-4.27315 -2.87637,-6.45499 2.17964,-0.17336 4.79542,0.25727 7.0645,0.25727 0.78286,0 1.57234,-0.0828 2.3541,-0.34561 0.69783,-0.17446 1.04786,-0.52448 1.04786,-1.13398 0,-0.6084 0.17666,-1.13289 0.52338,-1.57014 -0.0861,-4.27536 0,-8.54961 0,-12.82608 0,-4.18371 -0.17446,-8.28571 -1.1351,-12.38551 -2.0913,-1.83293 -4.88265,-2.44133 -7.6751,-1.83293 -0.78286,-0.96063 0.0894,-2.79135 -0.17667,-4.18702 -0.26169,-3.40086 3.31583,-0.60951 4.80205,-2.09352 m 26.51893,4.35928 c -0.0872,-2.87527 -1.31065,-5.40493 -0.87451,-8.28682 -2.70191,-1.39236 -5.66993,-1.74239 -8.80688,-1.74239 -3.05415,0 -6.19552,0.26169 -9.338,0.26169 -2.3563,-0.0872 -5.3199,0.25948 -7.49954,-0.8734 -3.05635,3.05304 -7.85399,6.89225 -5.76047,12.47716 l 0.61171,0.95842 c 1.30623,0.085 2.61468,0.17446 3.92533,0.17446 1.39347,0 2.61689,0.26169 3.57753,0.8723 0.95731,7.32729 0.17335,14.48123 0.43394,21.80963 -2.0902,1.83293 -4.62097,-0.26169 -6.97838,0.43505 -1.57013,1.57013 -1.92016,4.01588 -3.75198,5.40934 0.70004,2.3541 0.43946,5.32212 2.61689,6.97838 6.89335,1.65847 14.48123,1.57124 21.81074,1.57124 1.04896,-1.04676 2.52966,-0.69894 3.84031,-1.30734 l 4.53595,-2.6191 c -0.34892,-2.87858 0.78285,-5.49216 0.34671,-8.54851 -2.52746,-2.96581 -8.11237,0.34671 -9.50694,-3.57532 0.25838,-5.58491 0.25838,-11.16981 0,-16.75141 0.0883,-1.04786 0.78397,-1.13509 1.57014,-1.13509 l 1.13178,0 c 0.43725,0 0.69894,-0.17336 0.96504,-0.43394 2.00187,-2.70523 6.45058,-2.53077 7.15063,-5.67435"
         inkscape:export-filename="/home/vassilis/Source/kouzinaapospiti.gr/img/logo.png"
         inkscape:export-xdpi="49"
         inkscape:export-ydpi="49" /><path
         inkscape:connector-curvature="0"
         id="path4692"
         style="fill:#ffffe0;fill-opacity:1;fill-rule:nonzero;stroke:none"
         d="m 233.95294,746.24635 c 2.00629,1.04676 4.27426,0.26169 6.36667,0.95843 1.48401,0.43835 3.05304,1.30955 2.79245,3.31473 -1.48401,14.04729 -1.83072,27.65623 -2.44243,41.87577 -2.87858,0.69674 -7.24117,0.87561 -9.9475,-0.26058 1.04676,-4.18813 0.69784,-8.72629 0.43726,-12.82608 -0.17336,-2.79025 0.52117,-5.5827 0.52117,-8.19628 0,-0.78728 -0.17115,-1.65847 -0.52117,-2.44574 -1.48401,-0.52449 -2.18185,1.13398 -3.31584,1.83292 -5.5827,6.97728 -9.94308,14.30788 -15.52688,21.28515 l -3.92424,-0.34891 c -2.00849,-0.95953 -4.53704,-0.52228 -6.36666,-1.83072 0.43284,-8.46239 -2.35962,-15.87912 -2.09793,-24.16484 1.1373,-6.28164 1.57124,-13.61004 0.96063,-19.89389 2.70302,0.26279 5.40714,0.43836 8.11236,1.1373 0.2628,0.26169 0.43505,0.6095 0.43505,0.95952 0,1.04345 -0.61061,2.26687 -0.61061,3.31473 -0.26058,10.20698 -1.13067,20.8479 -1.39567,30.96986 2.53076,-1.30955 4.88707,-2.70744 6.97948,-4.88818 3.75087,-6.54002 10.73256,-9.33358 15.61853,-14.91407 1.04455,-5.49768 2.26797,-10.64423 3.92533,-15.87912 m 17.53317,-4.18923 c -0.69452,-2.44022 -2.3552,-2.87747 -4.18702,-2.87747 l -2.79135,0 c -0.95842,0 -1.83293,-0.2628 -2.618,-0.8723 l -1.91795,0.34892 -7.67621,8.02734 c -2.44464,4.53484 0,11.77711 -5.23599,14.74182 -3.84032,3.05414 -8.55072,5.32101 -11.95047,8.89963 l -0.52338,-0.78727 c -0.78727,-8.72297 -1.66067,-17.18536 -0.69783,-26.25835 -2.79246,-2.70412 -6.54554,-3.31362 -9.94419,-4.44871 -1.22453,2.17963 -4.9743,2.79245 -4.27757,5.75605 0.26169,4.62428 -0.26058,9.24745 -0.17225,14.22065 -2.35741,10.99315 2.3541,21.1129 1.65516,32.19218 1.30955,1.04454 3.05524,0.34781 4.88596,0.78506 0.61282,0.35003 1.13399,0.52449 1.74681,0.52449 1.13177,0 2.35299,-0.17446 3.48808,-0.17446 0.61171,0 1.13067,0.0861 1.74459,0.34671 8.81352,-1.65626 10.46867,-10.99205 16.05137,-16.57365 0.35223,-0.34891 0.52228,-0.78506 1.1362,-0.52558 -0.2628,5.8466 0.52006,11.95378 0.26169,17.88871 1.65626,0.69563 3.48918,0.78065 5.49547,0.78065 2.00628,0 3.83921,-0.085 5.49547,0 l 3.48919,-5.40714 c 0.95731,-1.39788 3.2275,-2.00738 1.83072,-3.92864 -0.60951,-8.63354 0.52448,-16.83313 3.57862,-24.68822 -0.26169,-6.19331 1.82962,-11.86324 1.13288,-17.97042"
         inkscape:export-filename="/home/vassilis/Source/kouzinaapospiti.gr/img/logo.png"
         inkscape:export-xdpi="49"
         inkscape:export-ydpi="49" /><path
         inkscape:connector-curvature="0"
         id="path4694"
         style="fill:#ffffe0;fill-opacity:1;fill-rule:nonzero;stroke:none"
         d="m 277.3198,770.58554 c -0.2639,-2.79025 -2.70523,-7.06671 -2.96802,-9.24635 l 5.40713,0.86899 c -0.60839,2.35851 -1.04565,4.36479 -1.82961,6.19662 l -0.6095,2.18074 z m -2.18516,9.6847 c 2.18516,-6.28164 3.84252,-12.65051 5.84659,-18.93105 -4.18923,-0.34892 -7.15173,-1.13399 -11.59823,-0.78728 1.30403,6.63057 4.00925,12.99944 5.31659,19.71833 l 0.43505,0 z m 12.56439,-35.94415 1.91905,0 c 2.09241,1.13619 4.88597,1.83292 6.01995,4.18813 -1.65736,4.102 -2.53076,8.63684 -5.06042,12.56218 -1.30955,9.42301 -3.66365,18.49601 -7.41453,26.87006 -4.01256,1.91795 -9.15912,0.43504 -13.17389,0.43504 -1.39347,-1.65847 -2.09131,-3.83811 -2.70412,-6.02216 -3.05415,-12.12272 -9.51135,-23.55202 -13.17389,-35.76528 3.40306,-0.69673 6.19662,-1.65626 9.42522,-2.3552 0.95732,0.95842 0.69452,3.31362 1.39457,4.27536 0.95842,1.65736 0.69673,4.01256 2.0902,4.97319 5.49989,-0.96063 10.38586,-0.0883 15.35795,1.56903 3.31362,-2.79245 3.22639,-7.24117 5.31991,-10.73035 m 15.61742,-1.30734 c 0.2639,-2.52967 -2.87968,-1.92127 -4.44981,-2.6191 -2.79356,0.0894 -5.05933,-0.69784 -7.41563,-1.48291 -3.05304,2.70743 -5.93273,5.76047 -6.36777,10.03583 -4.45092,2.09131 -9.33579,-1.40009 -14.0484,-0.70004 -2.43912,-2.61689 -2.52745,-6.01885 -4.61986,-8.55072 l -8.72518,-0.52228 c -0.95842,2.87748 -5.5838,3.57642 -5.32322,6.97948 3.92423,6.54113 4.88486,14.3929 8.81131,20.93513 2.44243,7.67953 4.53594,15.35685 8.37405,22.42245 3.92644,0.26279 7.94011,1.65737 11.95599,0.52338 l 2.00517,-0.52338 c 2.17964,-3.49139 5.31991,-7.0656 8.81131,-9.76972 2.09241,-7.76455 3.66144,-15.88023 8.02292,-22.77027 1.40009,-4.36038 1.31286,-9.50914 2.96912,-13.95785"
         inkscape:export-filename="/home/vassilis/Source/kouzinaapospiti.gr/img/logo.png"
         inkscape:export-xdpi="49"
         inkscape:export-ydpi="49" /><path
         inkscape:connector-curvature="0"
         id="path4696"
         style="fill:#ffffe0;fill-opacity:1;fill-rule:nonzero;stroke:none"
         d="m -4.8741291,716.20014 c -0.172251,-1.83734 -1.779927,-4.65188 -1.951074,-6.08399 l 3.5587507,0.57417 c -0.4030233,1.54805 -0.6901087,2.86974 -1.2057577,4.0755 l -0.401919,1.43432 z m -1.435425,6.37219 c 1.435425,-4.13624 2.525244,-8.32437 3.8469399,-12.45618 -2.7560169,-0.23078 -4.7070909,-0.74974 -7.6353588,-0.51786 0.8623589,4.36148 2.6411829,8.55403 3.5024379,12.97404 l 0.285981,0 z m 8.266946,-23.65029 1.2620702,0 c 1.3769042,0.74531 3.2120404,1.20686 3.9584616,2.7538 -1.0876108,2.69971 -1.6628851,5.68429 -3.3279786,8.26805 -0.8612553,6.19773 -2.4093063,12.1691 -4.878238,17.67782 -2.6411828,1.26317 -6.0287872,0.28819 -8.6688652,0.28819 -0.9186719,-1.09092 -1.3757999,-2.52525 -1.7788229,-3.96288 -2.008492,-7.97544 -6.257351,-15.49818 -8.667762,-23.53325 2.240368,-0.45712 4.076609,-1.08871 6.19883,-1.54805 0.631587,0.62717 0.46044,2.18185 0.919776,2.81012 0.631587,1.09093 0.459336,2.64119 1.376904,3.27388 3.6183769,-0.63269 6.8315209,-0.0563 10.1020827,1.0324 2.18295081,-1.83514 2.12442961,-4.7634 3.5035422,-7.06008 m 10.2732291,-0.86126 c 0.172251,-1.66509 -1.894761,-1.26317 -2.9271634,-1.7203 -1.8373447,0.0552 -3.3301871,-0.46155 -4.8793423,-0.97499 -2.0084914,1.77883 -3.90214879,3.78511 -4.18812969,6.59854 -2.92937201,1.37801 -6.14472471,-0.91646 -9.24413971,-0.45933 -1.6076759,-1.72251 -1.6628849,-3.95957 -3.0419979,-5.62577 l -5.738389,-0.34339 c -0.632691,1.89365 -3.674689,2.3552 -3.502438,4.59336 2.582662,4.30296 3.214249,9.46939 5.798015,13.77677 1.606572,5.05049 2.98458,10.09877 5.5098249,14.74844 2.583766,0.17557 5.223844,1.09203 7.8639228,0.34561 l 1.31838311,-0.34561 c 1.4376337,-2.29447 3.50354209,-4.64967 5.79801439,-6.42629 1.3791126,-5.11122 2.4104106,-10.44879 5.2823658,-14.98142 0.919776,-2.87085 0.861255,-6.25625 1.951074,-9.18562"
         inkscape:export-filename="/home/vassilis/Source/kouzinaapospiti.gr/img/logo.png"
         inkscape:export-xdpi="49"
         inkscape:export-ydpi="49" /><path
         inkscape:connector-curvature="0"
         id="path4698"
         style="fill:#ffffe0;fill-opacity:1;fill-rule:nonzero;stroke:none"
         d="m 36.056806,699.95676 c 1.778823,0.22856 3.502438,0.40081 5.050489,1.3758 0.173355,9.24082 0.173355,18.3094 0.34671,27.43871 l -1.837344,0.3445 -16.762456,-2.01181 c -2.467828,-0.91425 -5.280157,0.46155 -7.289753,-0.63158 -0.631587,-8.31995 -2.409306,-16.98771 -0.860151,-25.25355 1.205757,1.54805 3.443917,0.92088 5.110114,1.378 l 0,6.54002 c 0,4.13734 -0.05963,8.26916 0.399711,12.16799 3.502438,1.38243 7.920236,0.86457 11.880906,1.3217 0.860151,-0.17004 1.781031,-0.17004 2.411514,-0.85573 -0.173355,-1.89808 0,-4.07992 0.287086,-5.97137 0.861255,-5.10901 1.03461,-10.50732 1.263174,-15.84268 m 9.816101,24.68048 c -0.05742,-0.86126 -0.115938,-1.72141 -0.115938,-2.64008 0,-2.64008 0.05852,-5.51203 -0.976089,-7.80871 -0.172251,-2.92496 -0.284877,-5.7395 -0.284877,-8.4933 0,-2.75381 0.112626,-5.50983 0.284877,-8.32216 -1.663989,-1.32169 -3.959566,-1.43653 -6.026578,-1.83734 -1.836241,0.91867 -1.778824,3.04089 -3.329083,4.42111 -0.401919,4.99196 -0.287085,9.98724 -1.490634,14.5784 -0.173356,0.17004 -0.401919,0.23077 -0.632692,0.23077 -0.515649,0 -1.376904,-0.23077 -1.894761,0.0541 -1.83624,0 -3.672481,1.55026 -5.509825,0.63159 l -0.401919,-1.26317 c -0.17446,-5.62466 0.401919,-11.8787 -1.433218,-16.9314 -1.552467,-0.91646 -3.388708,-1.49284 -5.512033,-1.25986 -1.837345,1.08651 -2.870851,2.86864 -4.417798,4.18813 -1.552468,7.80651 0.342294,16.18497 0.171147,23.81923 0.285981,1.38022 -0.05852,3.09941 1.662885,3.56096 7.519421,0.40081 15.327031,1.3758 23.131328,1.83513 0.979402,0.46044 2.126638,0.0607 3.101623,-0.11373 1.549156,-1.32059 2.296681,-3.0972 3.673585,-4.64967"
         inkscape:export-filename="/home/vassilis/Source/kouzinaapospiti.gr/img/logo.png"
         inkscape:export-xdpi="49"
         inkscape:export-ydpi="49" /><path
         inkscape:connector-curvature="0"
         id="path4700"
         style="fill:#ffffe0;fill-opacity:1;fill-rule:nonzero;stroke:none"
         d="m 67.117093,714.87822 c -1.093132,1.83735 -3.331291,2.01181 -5.110114,2.18516 -1.205758,-0.86346 -2.526349,-1.43653 -3.673585,-2.35741 -1.090924,-1.31838 -1.723615,-3.04089 -1.55026,-4.70598 -0.403023,-3.0409 0.976089,-6.54113 3.731002,-8.20843 3.214249,-0.28598 5.166427,2.64008 7.174919,4.93676 1.147236,2.58377 0.745317,5.85543 -0.571962,8.1499 m 0.285981,2.06812 c 1.893657,-3.96177 2.409306,-9.4716 -0.863464,-12.85699 -1.662885,-2.353 -3.785106,-3.26946 -6.48481,-3.09942 -3.271666,-0.28929 -5.970266,2.0637 -7.635359,4.64747 -0.284877,2.69749 -1.433217,6.54554 0.746421,8.84001 1.55026,2.46893 3.50023,5.28126 6.774104,5.11122 2.582661,1.83513 6.428497,0.3986 7.463108,-2.64229 m 4.018087,-14.12127 c 0.22746,2.92827 1.607676,5.39609 2.122221,8.20842 -0.05631,3.38761 -1.032402,6.4285 -2.927164,9.126 l -6.142516,5.85543 c -1.376904,0.45712 -2.640079,0.17446 -4.076608,0.11373 -4.531528,-1.43543 -8.781491,-4.35818 -10.616627,-9.06527 -0.171147,-4.59446 -1.148341,-8.89853 -0.05742,-13.31964 1.089819,-2.75381 3.442812,-5.16753 6.485914,-5.68208 5.739493,-0.91756 11.535299,0.57528 15.212197,4.76341 m 2.122221,-3.0431 c -3.041998,-3.67248 -7.634255,-5.16312 -12.513597,-4.0733 l -5.452408,1.20465 c -4.535944,2.12222 -7.116398,6.25625 -7.290857,11.02076 0.404127,0.97719 0.632691,2.06591 0.632691,3.27166 0,3.44392 -0.345606,7.40569 2.525245,9.87242 1.376904,3.21535 4.707091,3.3865 7.061189,5.39388 5.565034,1.83735 9.928727,-2.0637 14.579505,-3.89883 3.099415,-2.64229 3.558751,-6.71558 3.558751,-10.62105 0,-1.32059 0.05742,-2.64007 0.11373,-3.84583 0.459336,-3.32688 -1.837345,-5.68208 -3.214249,-8.32436"
         inkscape:export-filename="/home/vassilis/Source/kouzinaapospiti.gr/img/logo.png"
         inkscape:export-xdpi="49"
         inkscape:export-ydpi="49" /><path
         inkscape:connector-curvature="0"
         id="path4702"
         style="fill:#ffffe0;fill-opacity:1;fill-rule:nonzero;stroke:none"
         d="m -22.313333,635.51355 c 12.087386,0.40082 25.4732801,1.19693 37.461291,0.1038 0.101584,3.59739 -1.098653,7.38802 -0.597358,10.88825 -7.9942155,-0.29923 -16.0867023,0.39861 -23.6778941,1.09534 1.598843,6.69902 10.3913755,8.89412 11.6876751,15.38555 -1.2962996,2.89625 -4.8925923,4.19917 -7.1936901,6.19773 -1.896969,1.29409 -3.793939,2.39384 -5.8929729,3.29595 -1.998554,0.8988 -3.797252,2.29448 -5.294511,4.19586 0.799421,0.39751 1.299612,1.09976 2.39716,0.79832 9.0884509,-1.59774 17.6822327,2.19951 26.87558,0.30144 l 1.098653,0.99707 -0.501295,7.29086 c -13.58685349,0.50239 -27.373562,-1.69712 -41.758733,-2.19731 -1.597739,-3.19437 0.601774,-6.6935 -0.397503,-10.18931 4.793217,-5.39168 10.587919,-9.49148 14.882049,-14.88315 -2.39716,-6.49586 -8.78922,-10.89047 -12.686952,-16.38815 0.500191,-2.39605 1.198028,-6.09393 3.598501,-6.89225 m 47.746666,-5.29451 c -1.493947,-0.69894 -3.292645,-1.09755 -5.390575,-1.09755 -1.995241,0 -3.896627,-0.0994 -5.693118,-0.19654 -9.5897456,-0.80384 -19.4798271,-1.60215 -29.070677,-0.80384 l -1.499467,-0.59736 c -4.597778,4.39461 -11.088109,7.9898 -10.589023,15.1846 3.896628,4.89259 8.99018,9.7907 12.485993,15.48161 -1.298508,2.69971 -5.194032,4.79653 -7.490713,7.59782 l -7.891527,7.48961 c 1.797595,3.89552 -1.999658,8.99128 1.299612,11.68657 14.683298,1.09976 29.7663065,3.39644 44.654981,2.09903 2.394952,-2.39605 5.294511,-3.49581 7.092105,-6.59081 l -2.896246,-8.89412 c -1.200237,-0.50239 -3.298166,-0.70335 -5.394992,-0.70335 -2.097929,0 -4.396818,0.20096 -6.096141,-0.095 -1.7004271,-0.30144 -3.9960036,0.29592 -5.5937425,-0.99597 1.5977389,-3.79946 10.1893125,-4.3924 6.6934995,-9.69354 -2.4976406,-3.59518 -5.3949916,-6.89004 -7.6916722,-10.58902 0,-0.59956 0.2970226,-0.8988 0.7983173,-0.8988 0.4979822,0 0.999277,-0.0972 1.3007163,-0.30033 L 15.049686,648.1033 c 2.296681,-2.89625 5.191824,-4.09538 8.291238,-5.59154 1.894762,-3.60181 1.397884,-8.29896 2.092409,-12.29276"
         inkscape:export-filename="/home/vassilis/Source/kouzinaapospiti.gr/img/logo.png"
         inkscape:export-xdpi="49"
         inkscape:export-ydpi="49" /><path
         inkscape:connector-curvature="0"
         id="path4704"
         style="fill:#ffffe0;fill-opacity:1;fill-rule:nonzero;stroke:none"
         d="m 67.603371,635.51355 c 3.099415,0.40082 6.095037,0.70115 8.788116,2.40048 0.301439,16.08339 0.301439,31.86975 0.602879,47.75108 l -3.197687,0.59957 -29.171156,-3.49803 c -4.293026,-1.59774 -9.19114,0.80053 -12.684744,-1.09754 -1.103069,-14.48345 -4.198067,-29.56977 -1.50278,-43.95383 2.099033,2.69639 5.995661,1.59553 8.895221,2.39163 l 0,11.39397 c 0,7.19369 -0.09938,14.38186 0.698941,21.17694 6.091725,2.39606 13.785605,1.49947 20.680064,2.29668 1.497259,-0.30144 3.094998,-0.30144 4.194755,-1.49615 -0.30144,-3.29596 0,-7.09321 0.497982,-10.38807 1.500571,-8.8919 1.797594,-18.284 2.198409,-27.57673 m 17.082666,42.95677 c -0.09717,-1.49837 -0.200959,-2.99342 -0.200959,-4.59557 0,-4.59337 0.103792,-9.58533 -1.698219,-13.58244 -0.299231,-5.09797 -0.496878,-9.99056 -0.496878,-14.7893 0,-4.79432 0.197647,-9.58864 0.496878,-14.48123 -2.895142,-2.29668 -6.89225,-2.49764 -10.487439,-3.19879 -3.196582,1.59773 -3.09831,5.29672 -5.798014,7.69056 -0.693421,8.69316 -0.495774,17.38411 -2.593703,25.37612 -0.299231,0.30254 -0.700046,0.39971 -1.100861,0.39971 -0.894381,0 -2.394952,-0.39971 -3.294854,0.10379 -3.197686,0 -6.389851,2.69529 -9.59085,1.09092 l -0.70115,-2.19178 c -0.299231,-9.79071 0.70115,-20.67896 -2.496536,-29.46929 -2.6986,-1.60215 -5.894077,-2.60143 -9.588642,-2.19951 -3.196582,1.89808 -4.993072,4.99197 -7.692776,7.29086 -2.696391,13.58685 0.600671,28.17409 0.298127,41.45619 0.499087,2.39826 -0.09937,5.39609 2.897351,6.19662 13.088872,0.70005 26.673517,2.39385 40.26037,3.19769 1.696011,0.79831 3.696773,0.0994 5.394992,-0.19876 2.696391,-2.29888 3.997107,-5.3972 6.393163,-8.09579"
         inkscape:export-filename="/home/vassilis/Source/kouzinaapospiti.gr/img/logo.png"
         inkscape:export-xdpi="49"
         inkscape:export-ydpi="49" /><path
         inkscape:connector-curvature="0"
         id="path4706"
         style="fill:#ffffe0;fill-opacity:1;fill-rule:nonzero;stroke:none"
         d="m 97.684587,635.61712 c 6.691293,0.29813 13.585753,1.09314 19.976703,1.79429 3.09611,1.80311 0.8999,5.89628 1.20134,8.89632 -2.29888,0.0972 -4.79763,-1.09975 -7.49071,-0.60177 -3.39975,-0.60399 -1.50278,3.89663 -2.29999,5.69312 1.60326,8.89411 -2.09903,17.78492 -0.19875,26.27601 2.29557,0.8988 4.4973,1.79428 7.19148,1.09755 1.70043,0 1.7987,1.50057 1.7987,2.79687 0,0.49798 0,0.89769 0.0972,1.19692 -0.795,4.39793 -5.2934,1.09976 -8.29123,2.69971 -5.09356,-1.09976 -10.887154,-0.59847 -16.483105,-1.09976 -3.295958,-0.29702 -2.196201,-4.89701 -3.295958,-7.39465 2.495432,-0.19875 5.496576,0.30254 8.093591,0.30254 0.90211,0 1.794282,-0.10158 2.697492,-0.39971 0.7939,-0.19764 1.19582,-0.59956 1.19582,-1.2985 0,-0.70005 0.20317,-1.30182 0.59847,-1.79539 -0.095,-4.90032 0,-9.79623 0,-14.6844 0,-4.79653 -0.19655,-9.49368 -1.29741,-14.19305 -2.396054,-2.09572 -5.590428,-2.79245 -8.792531,-2.09572 -0.893276,-1.09534 0.101584,-3.19437 -0.195438,-4.79653 -0.299231,-3.89 3.793939,-0.69673 5.494366,-2.39385 m 30.369183,4.99197 c -0.10268,-3.29485 -1.49946,-6.19551 -1.00038,-9.49037 -3.09831,-1.59774 -6.49143,-1.99745 -10.08883,-1.99745 -3.49471,0 -7.09542,0.30034 -10.69502,0.30034 -2.69529,-0.0972 -6.08731,0.29923 -8.584953,-1.00149 -3.501333,3.49802 -8.990179,7.89153 -6.595227,14.28801 l 0.698942,1.09975 c 1.501675,0.0972 2.99783,0.20096 4.499506,0.20096 1.595531,0 2.993414,0.29703 4.090962,0.99818 1.09644,8.39171 0.20096,16.58137 0.50019,24.9775 -2.394951,2.09572 -5.291198,-0.30585 -7.989798,0.49357 -1.799802,1.8009 -2.199513,4.59557 -4.291922,6.19883 0.793901,2.69528 0.49467,6.08951 2.991206,7.9898 7.893736,1.90028 16.581374,1.79869 24.975304,1.79869 1.20134,-1.19913 2.89955,-0.80052 4.3935,-1.50167 l 5.19403,-2.99342 c -0.3975,-3.30147 0.90211,-6.29489 0.40303,-9.79512 -2.89846,-3.39644 -9.29162,0.39971 -10.88936,-4.09317 0.30254,-6.39427 0.30254,-12.78633 0,-19.18059 0.0994,-1.19914 0.8988,-1.29962 1.79538,-1.29962 l 1.29962,0 c 0.5035,0 0.80163,-0.20096 1.10086,-0.49908 2.29999,-3.0939 7.38913,-2.89625 8.19296,-6.49365"
         inkscape:export-filename="/home/vassilis/Source/kouzinaapospiti.gr/img/logo.png"
         inkscape:export-xdpi="49"
         inkscape:export-ydpi="49" /><path
         inkscape:connector-curvature="0"
         id="path4708"
         style="fill:#ffffe0;fill-opacity:1;fill-rule:nonzero;stroke:none"
         d="m 152.13303,632.51594 c 4.4962,0.1038 8.48999,1.20134 11.98912,3.19769 -2.10014,10.39138 -2.59702,21.379 -4.49509,31.76928 l -1.39899,4.99638 0.79721,0.79832 15.38666,-1.29851 c 2.89514,2.09683 0.69894,5.79691 0.3975,8.59157 -3.59408,0.10159 -6.49254,1.59885 -10.18489,1.29851 -10.69061,-1.09976 -21.57776,-2.40047 -32.87235,-1.89697 -1.49505,-2.09682 -0.7939,-4.79653 -0.69563,-7.49292 5.59485,-0.30365 11.58388,0.69673 17.08156,0.19875 -0.40412,-13.68733 0.79722,-27.47073 3.9949,-40.1621 m 23.48025,49.55199 c 3.095,-0.79831 5.49105,-3.39864 8.18855,-4.99417 0,-3.89774 0.10158,-8.78812 -1.79649,-12.28614 -2.29778,0.0983 -4.69826,0.19985 -7.1959,0.19985 -2.49874,0 -4.8948,-0.19985 -7.19258,-0.69894 -1.29741,-3.29485 -0.49799,-7.1959 0,-10.6895 1.10196,-7.89374 1.69932,-15.98953 3.5985,-23.47693 -4.4962,-2.40048 -10.88715,-0.40082 -15.18239,-3.29486 -7.29637,3.79284 -5.59816,11.48561 -7.69498,17.67671 -1.20024,6.39869 -2.09572,13.58686 -1.59884,19.98333 l -0.99597,0.90322 c -3.49802,0.3975 -6.49254,0.0928 -10.19152,-0.20427 l -5.89518,6.59302 0.0994,8.3884 0.89769,0.80053 c 14.68771,-1.09534 29.27164,3.79725 43.95714,0.901 l 1.00259,0.19875 z"
         inkscape:export-filename="/home/vassilis/Source/kouzinaapospiti.gr/img/logo.png"
         inkscape:export-xdpi="49"
         inkscape:export-ydpi="49" /><path
         inkscape:connector-curvature="0"
         id="path4710"
         style="fill:#ffffe0;fill-opacity:1;fill-rule:nonzero;stroke:none"
         d="m 194.50249,635.61712 c 6.6946,0.29813 13.58685,1.09314 19.9778,1.79429 3.095,1.80311 0.8988,5.89628 1.20245,8.89632 -2.3022,0.0972 -4.80095,-1.09975 -7.49513,-0.60177 -3.39754,-0.60399 -1.50057,3.89663 -2.29778,5.69312 1.59663,8.89411 -2.10014,17.78492 -0.19986,26.27601 2.29558,0.8988 4.49619,1.79428 7.19259,1.09755 1.69932,0 1.79538,1.50057 1.79538,2.79687 0,0.49798 0,0.89769 0.10048,1.19692 -0.79721,4.39793 -5.29341,1.09976 -8.29234,2.69971 -5.09134,-1.09976 -10.88825,-0.59847 -16.482,-1.09976 -3.29375,-0.29702 -2.1962,-4.89701 -3.29375,-7.39465 2.49654,-0.19875 5.49216,0.30254 8.09028,0.30254 0.8988,0 1.79649,-0.10158 2.6975,-0.39971 0.79721,-0.19764 1.19692,-0.59956 1.19692,-1.2985 0,-0.70005 0.20096,-1.30182 0.60398,-1.79539 -0.10489,-4.90032 0,-9.79623 0,-14.6844 0,-4.79653 -0.20206,-9.49368 -1.30292,-14.19305 -2.39826,-2.09572 -5.59264,-2.79245 -8.78922,-2.09572 -0.8999,-1.09534 0.0994,-3.19437 -0.20096,-4.79653 -0.30144,-3.89 3.79504,-0.69673 5.49658,-2.39385 m 30.36808,4.99197 c -0.10048,-3.29485 -1.49837,-6.19551 -0.99818,-9.49037 -3.10162,-1.59774 -6.49806,-1.99745 -10.09104,-1.99745 -3.49691,0 -7.09431,0.30034 -10.6884,0.30034 -2.6986,-0.0972 -6.09393,0.29923 -8.59046,-1.00149 -3.49803,3.49802 -8.9935,7.89153 -6.59965,14.28801 l 0.70115,1.09975 c 1.50278,0.0972 2.99894,0.20096 4.49509,0.20096 1.60105,0 2.99673,0.29703 4.09869,0.99818 1.09755,8.39171 0.19875,16.58137 0.49798,24.9775 -2.40047,2.09572 -5.2923,-0.30585 -7.9909,0.49357 -1.80201,1.8009 -2.19509,4.59557 -4.29744,6.19883 0.80163,2.69528 0.50571,6.08951 3.00114,7.9898 7.89043,1.90028 16.58248,1.79869 24.97199,1.79869 1.20134,-1.19913 2.89956,-0.80052 4.39571,-1.50167 l 5.19403,-2.99342 c -0.3986,-3.30147 0.90211,-6.29489 0.40192,-9.79512 -2.89624,-3.39644 -9.29162,0.39971 -10.88715,-4.09317 0.29703,-6.39427 0.29703,-12.78633 0,-19.18059 0.0927,-1.19914 0.89549,-1.29962 1.79539,-1.29962 l 1.29851,0 c 0.50019,0 0.80052,-0.20096 1.09975,-0.49908 2.29779,-3.0939 7.38803,-2.89625 8.19187,-6.49365"
         inkscape:export-filename="/home/vassilis/Source/kouzinaapospiti.gr/img/logo.png"
         inkscape:export-xdpi="49"
         inkscape:export-ydpi="49" /><path
         inkscape:connector-curvature="0"
         id="path4712"
         style="fill:#ffffe0;fill-opacity:1;fill-rule:nonzero;stroke:none"
         d="m -58.613894,807.88372 -3.214757,0.26089 1.930581,42.77025 3.599583,-0.16588 z m -13.883744,1.48582 -0.64094,42.7201 4.229459,0.21702 0.148556,-43.37115 z m -12.974302,-1.01417 -2.422965,43.68315 4.169182,0 1.881401,-43.36487 z m -14.028071,-1.05904 -1.794069,42.17034 3.579369,0.59365 2.83678,-42.66175 z m 24.923248,54.85906 c 0,0 -24.768378,2.48882 -36.542417,-8.85347 -0.57692,-21.48123 1.55515,-42.96245 5.06003,-64.44367 0,0 10.541979,-12.79492 19.152303,-11.60355 4.776919,-0.65493 4.912688,-3.23757 4.912688,-3.23757 l 2.453529,-116.81536 7.945841,0 1.913389,117.45643 c 0,0 13.834973,2.53034 20.935194,10.04788 11.244372,2.91012 11.767673,63.74634 11.767673,63.74634 0,0 -5.022344,14.21196 -37.291336,14.62367"
         sodipodi:nodetypes="ccccccccccccccccccccccccccccccc"
         inkscape:export-filename="/home/vassilis/Source/kouzinaapospiti.gr/img/logo.png"
         inkscape:export-xdpi="49"
         inkscape:export-ydpi="49" /><path
         inkscape:connector-curvature="0"
         id="path4714"
         style="fill:#ffffe0;fill-opacity:1;fill-rule:nonzero;stroke:none"
         d="m -64.779223,655.43536 c 0,0.72221 -1.196228,0.93926 -1.305244,0.17908 m -3.741513,119.17539 c -2.641636,-38.76217 -2.56961,-78.23488 -0.125556,-117.00873 0.06912,-1.11739 1.798721,-1.13686 1.752003,0 -1.51646,39.09505 -1.478499,77.9127 -0.243337,117.00873 0.03014,0.89644 -1.322756,0.876 -1.38311,0 m 1.555394,-0.51684 c 6.572945,0.9237 13.281185,3.24803 18.478805,7.48496 6.122288,4.99127 7.964811,11.88444 9.568877,19.32074 3.298641,15.31449 5.411753,31.9527 4.207729,47.61759 -0.07784,0.99475 -1.465845,0.99475 -1.546627,0 -1.166062,-14.44432 -0.857512,-28.59762 -3.573127,-42.93584 -1.38311,-7.301 -2.391485,-15.47412 -7.749707,-21.03771 -5.226815,-5.43024 -12.561883,-7.70785 -19.714939,-9.25448 -0.799112,-0.17131 -0.439947,-1.3072 0.328989,-1.19526 m 11.51263,76.41376 c -1.083326,-14.31389 -1.535927,-28.67743 -2.299021,-43.01273 -0.04869,-0.9782 1.474601,-0.97626 1.523273,0 0.731946,14.32752 1.567076,28.66769 1.930129,43.01273 0.01557,0.74558 -1.096953,0.72903 -1.154381,0 m -5.267702,-43.8498 c 0.562588,0.0447 1.131016,0.0536 1.689717,0.0233 0.561616,-0.0253 1.113493,-0.17714 1.668295,-0.1752 0.625857,0.011 0.81371,0.8215 0.311466,1.1466 -1.034655,0.66089 -2.699064,0.45844 -3.824239,0.16351 -0.629743,-0.16351 -0.518784,-1.21472 0.154761,-1.15826 m 1.642999,43.97439 c -1.174818,-14.25647 -1.679988,-28.60249 -2.351591,-42.88621 -0.05057,-1.04439 1.568048,-1.03952 1.624504,0 0.797169,14.27107 1.625476,28.5947 1.919418,42.88621 0.01756,0.77575 -1.131988,0.75531 -1.192331,0 m -9.095838,1.241 c 0.548962,-14.52219 0.949976,-28.94217 0.150863,-43.46533 -0.05355,-1.03855 1.564161,-1.03855 1.617692,0 0.762122,14.45697 0.741684,29.03756 -0.533393,43.46533 -0.06813,0.78062 -1.263384,0.80495 -1.235162,0 m -3.198382,-43.97342 c 0.687172,0.22095 1.501853,0.12361 2.205576,0.0661 0.65992,-0.0574 1.466817,-0.29881 2.115066,-0.13529 0.531439,0.13529 0.542149,0.81274 0.141135,1.09404 -0.593736,0.41853 -1.677062,0.35331 -2.36716,0.37277 -0.783532,0.0263 -1.672193,0.0574 -2.416792,-0.21997 -0.725144,-0.2696 -0.435089,-1.41912 0.322175,-1.17773 m -1.110577,44.0873 c -0.645323,-14.37424 0.312437,-28.85749 0.218019,-43.24828 -0.0088,-1.11351 1.731576,-1.11642 1.731576,0 -0.03213,14.39079 -0.106111,28.87014 -0.683285,43.24828 -0.03401,0.81371 -1.229331,0.81371 -1.26631,0 m -10.465322,-0.17034 c 0.106111,-7.79448 1.014216,-15.6279 1.41036,-23.41459 0.335801,-6.57198 -0.4633,-14.07932 0.812738,-20.52574 0.144062,-0.70469 1.189416,-0.63948 1.365598,0 0.682301,2.4499 0.169358,5.47503 0.07685,7.98039 -0.161574,4.38976 -0.406855,8.77658 -0.669659,13.16148 -0.453572,7.5891 -0.504188,15.45464 -1.731565,22.9688 -0.118754,0.72805 -1.277992,0.5402 -1.264367,-0.17034 m -1.362671,-44.792 c 1.458061,0.63754 2.967709,0.11778 4.438413,0.42828 0.669659,0.14015 0.539234,1.022 0,1.2264 -0.780618,0.29395 -1.831813,0.15476 -2.644551,0.0506 -0.820522,-0.10711 -1.621578,-0.35723 -2.343796,-0.76603 -0.623913,-0.35526 -0.07884,-1.21083 0.549934,-0.93927 m -3.203251,44.80076 c 0.128481,-14.56502 1.390894,-29.2079 2.161784,-43.75344 0.06327,-1.09501 1.771469,-1.09988 1.711126,0 -0.803982,14.55332 -1.140755,29.24974 -2.583236,43.75344 -0.07983,0.80787 -1.29843,0.84485 -1.289674,0 m -9.302186,-1.99048 c 0.35429,-14.23116 1.71599,-28.54116 2.77693,-42.73825 0.0867,-1.13783 1.866858,-1.15146 1.788991,0 -0.949001,14.21364 -1.619621,28.58691 -3.268461,42.73825 -0.0924,0.80593 -1.31887,0.85264 -1.29746,0 m -3.834949,-0.57231 c -0.38155,-14.26524 0.075,-28.63558 1.13297,-42.86869 0.0876,-1.13978 1.871729,-1.14854 1.788989,0 -1.032709,14.29054 -1.200119,28.55869 -1.647849,42.86869 -0.0283,0.81856 -1.25172,0.82149 -1.27411,0 m 2.314599,-43.74858 c 0.93927,0.21121 1.89022,0.38933 2.85674,0.45162 0.82734,0.0574 1.67901,-0.0302 2.48202,0.17909 0.610274,0.16158 0.582051,1.03272 0,1.20792 -1.68096,0.49932 -4.07537,-0.0127 -5.68137,-0.61125 -0.758239,-0.28227 -0.470129,-1.41329 0.34261,-1.22738 m 16.638228,-30.57836 c 0.05642,-39.1116 1.102782,-78.23488 1.208882,-117.35426 0.0044,-1.13686 1.762714,-1.13882 1.761742,0 -0.07299,39.07948 0.05355,78.30106 -1.556365,117.35426 -0.036,0.90617 -1.414259,0.91688 -1.414259,0 m 0.708581,1.08137 c 0.778674,-0.2696 0.465255,-1.46 -0.34067,-1.241 -6.275095,1.7014 -16.181729,2.79445 -20.455638,8.34344 -4.34693,5.63855 -5.18205,15.52765 -6.27901,22.33322 -1.38311,8.55174 -2.09267,17.19985 -2.52483,25.846 -0.21316,4.2963 -0.36014,8.59748 -0.49251,12.8938 -0.0934,2.90638 -0.68036,6.42109 0.66674,9.15325 2.4275,4.92996 9.96989,7.36719 14.922229,8.6374 7.336036,1.8834 15.007877,1.90189 22.530798,1.79969 13.715291,-0.18493 29.956401,-0.85362 37.710977,-14.12701 0.577185,-0.98892 -0.955816,-1.87854 -1.529114,-0.89353 -7.53266,12.90061 -23.760133,13.14882 -36.980964,13.35419 -6.334477,0.0993 -12.752662,0.039 -18.983967,-1.21861 -6.553479,-1.3218 -16.614859,-4.41896 -16.765729,-12.36236 -0.26767,-14.07446 0.86238,-28.74557 3.07185,-42.63606 1.03174,-6.47561 1.90189,-14.62633 5.13241,-20.42256 3.414469,-6.12423 14.134797,-7.30586 20.317428,-9.45986 M -82.58647,655.08966 c 0.06614,0.78256 -1.194285,0.94413 -1.364615,0.18396"
         inkscape:export-filename="/home/vassilis/Source/kouzinaapospiti.gr/img/logo.png"
         inkscape:export-xdpi="49"
         inkscape:export-ydpi="49" /><path
         inkscape:connector-curvature="0"
         id="path4716"
         style="fill:#ffffe0;fill-opacity:1;fill-rule:nonzero;stroke:none"
         d="m -66.999705,590.29351 c -0.06614,-0.45455 -0.131396,-0.91299 -0.197581,-1.36851 0.0044,-0.79911 -0.462339,-0.96944 -1.399661,-0.50809 -1.614765,0.0798 -1.45222,0.25891 -1.57973,1.87076 -0.04671,0.6278 -0.04085,1.25853 0.0077,1.88049 0.108981,1.43665 0.508074,2.75454 0.983067,4.08704 0.896445,-1.07359 2.144261,-2.50147 2.214343,-3.5225 0.05543,-0.80983 0.04671,-1.63326 -0.02827,-2.43919 m -3.01637,7.43922 c -0.08469,-0.0457 -0.08668,-0.14017 -0.03699,-0.27156 -0.09341,-0.0536 -0.180068,-0.12362 -0.241394,-0.2375 -1.470715,-2.70782 -2.338927,-6.86397 -0.963601,-9.79664 0.797158,-1.70722 2.954083,-2.8256 4.589287,-1.42399 2.882047,2.46936 1.971976,14.60005 -3.347313,11.72969"
         inkscape:export-filename="/home/vassilis/Source/kouzinaapospiti.gr/img/logo.png"
         inkscape:export-xdpi="49"
         inkscape:export-ydpi="49" /></g><path
       inkscape:connector-curvature="0"
       id="path150"
       style="fill:#000000;fill-opacity:1;fill-rule:nonzero;stroke:none"
       d="m 130.99821,406.05602 c -0.33674,-0.33728 -0.87363,0.13448 -1.61437,0.87363 -0.73916,0.73968 0.53847,4.37401 0.53847,4.37401 0,0 0.60573,0.13449 1.0759,-0.26898 0.47124,-0.40451 0.60625,-1.81716 0.60625,-2.89305 0,-1.07643 -0.2695,-1.7494 -0.60625,-2.08561 m -1.17173,29.90537 3.84453,0.85299 0.42782,6.6227 -2.30746,0.21284 -1.61755,1.93736 -5.95927,0 -1.07166,-0.85934 -2.28628,-1.07802 -0.21391,-7.04839 4.27129,-0.42729 c 0,0 -8.4658,-31.61241 5.76759,-34.38793 11.77557,-2.29687 -0.8551,34.17508 -0.8551,34.17508"
       inkscape:export-filename="/home/vassilis/Source/kouzinaapospiti.gr/img/logo.png"
       inkscape:export-xdpi="49"
       inkscape:export-ydpi="49" /><g
       id="g12"
       transform="matrix(0.60064926,0,0,0.60064926,153.85268,514.88364)"
       inkscape:export-filename="/home/vassilis/Source/kouzinaapospiti.gr/img/logo.png"
       inkscape:export-xdpi="49.160664"
       inkscape:export-ydpi="49.160664"><path
         d="M 0,0 7.031,2.766 6.558,-18.33 23.622,1.897 l 8.93,-1.264 -7.375,-12.303 7.036,-24.767 -9.006,-1.97 -3.94,10.695 -5.912,6.755 -7.667,-5.433 2.039,-11.173 -9.388,0.191 L 0,0 Z"
         style="fill:#ffffe0;fill-opacity:1;fill-rule:nonzero;stroke:none"
         id="path14"
         inkscape:connector-curvature="0" /></g><g
       id="g16"
       transform="matrix(0.60064926,0,0,0.60064926,221.88858,517.84815)"
       inkscape:export-filename="/home/vassilis/Source/kouzinaapospiti.gr/img/logo.png"
       inkscape:export-xdpi="49.160664"
       inkscape:export-ydpi="49.160664"><path
         d="m 0,0 7.6,0.563 1.969,-2.251 -13.228,-25.049 1.408,-16.043 -13.228,-0.563 1.533,15.892 -18.702,21.26 10.694,2.533 L -7.6,-17.73 0,0 Z"
         style="fill:#ffffe0;fill-opacity:1;fill-rule:nonzero;stroke:none"
         id="path18"
         inkscape:connector-curvature="0" /></g><path
       inkscape:connector-curvature="0"
       id="path30"
       style="fill:#ffffe0;fill-opacity:1;fill-rule:nonzero;stroke:none"
       d="m 233.44814,515.69074 c 0,0 15.05467,-1.69023 17.13111,-0.95023 2.07645,0.7412 -5.02383,-8.38807 -5.02383,-8.38807 l -8.35863,-9.50287 13.0503,-0.0469 0.21083,-4.65023 c 0,0 -18.5,-1.25115 -19.47725,1.23374 -0.97786,2.48548 0.33096,6.16866 0.33096,6.16866 l 7.48168,6.2906 3.86038,4.81361 -9.60799,0.0889 0.40244,4.94275 z"
       inkscape:export-filename="/home/vassilis/Source/kouzinaapospiti.gr/img/logo.png"
       inkscape:export-xdpi="49"
       inkscape:export-ydpi="49" /><path
       inkscape:connector-curvature="0"
       id="path34"
       style="fill:#ffffe0;fill-opacity:1;fill-rule:nonzero;stroke:none"
       d="m 257.17907,515.87964 12.55116,0.10932 1.35206,-3.38106 -5.69235,-0.0504 0.78986,-14.48766 3.95527,-0.41205 0.77844,-4.49045 c 0,0 -13.01667,-1.69083 -13.86178,-0.50755 -0.84572,1.18328 -0.10932,3.28976 -0.10932,3.28976 l 5.24307,0.76763 -0.32375,14.95316 -5.48753,0.5562 0.80487,3.65315 z"
       inkscape:export-filename="/home/vassilis/Source/kouzinaapospiti.gr/img/logo.png"
       inkscape:export-xdpi="49"
       inkscape:export-ydpi="49" /><path
       inkscape:connector-curvature="0"
       id="path38"
       style="fill:#ffffe0;fill-opacity:1;fill-rule:nonzero;stroke:none"
       d="m 293.73596,518.35552 5.30313,0.3712 1.45838,-25.72881 -5.53919,-0.2763 -2.13531,8.63794 -12.29228,10.77264 0.85412,-19.17272 -5.07789,-1.14064 0.80667,25.24769 6.98616,0.10572 8.7911,-10.8195 0.16938,11.94932"
       inkscape:export-filename="/home/vassilis/Source/kouzinaapospiti.gr/img/logo.png"
       inkscape:export-xdpi="49"
       inkscape:export-ydpi="49" /><path
       inkscape:connector-curvature="0"
       id="path42"
       style="fill:#ffffe0;fill-opacity:1;fill-rule:nonzero;stroke:none"
       d="m 176.37763,482.5597 -0.99768,-14.8943 3.56906,0.31234 0.33876,10.98888 7.17536,0.44088 0.49974,-11.86643 3.1432,0.0985 0.54178,15.85654 -14.27022,-0.93642 z"
       inkscape:export-filename="/home/vassilis/Source/kouzinaapospiti.gr/img/logo.png"
       inkscape:export-xdpi="49"
       inkscape:export-ydpi="49" /><path
       inkscape:connector-curvature="0"
       id="path46"
       style="fill:#ffffe0;fill-opacity:1;fill-rule:nonzero;stroke:none"
       d="m 175.90606,460.37088 -0.16879,-5.40945 -15.72259,-0.50695 9.071,-7.02459 -5.68935,-8.18985 12.4827,0.0943 0.53458,-7.70212 -21.46961,0 -1.34726,4.60217 6.30442,8.58628 -8.36825,8.20727 1.08597,5.76023 23.28718,1.58271 z"
       inkscape:export-filename="/home/vassilis/Source/kouzinaapospiti.gr/img/logo.png"
       inkscape:export-xdpi="49"
       inkscape:export-ydpi="49" /><path
       style="fill:#ffffe0;fill-opacity:1;fill-rule:nonzero;stroke:none"
       d="m 314.55637,516.30771 -9.06066,-23.80659 6.30998,-1.72125 1.31075,4.94775 8.2029,1.65872 2.80525,-5.8922 5.2139,1.84533 -7.04495,22.35343 -7.73717,0.61481 z m 2.80251,-5.43467 1.8356,-5.73495 1.19341,-4.15769 -5.78241,-0.47745 2.7534,10.37009 z"
       id="path50"
       inkscape:connector-curvature="0"
       inkscape:export-filename="/home/vassilis/Source/kouzinaapospiti.gr/img/logo.png"
       inkscape:export-xdpi="49"
       inkscape:export-ydpi="49" /><path
       inkscape:connector-curvature="0"
       id="path54"
       style="fill:#ffffe0;fill-opacity:1;fill-rule:nonzero;stroke:none"
       d="m 203.8679,432.48526 6.01791,0.49974 -0.50695,27.386 -24.31128,-2.778 -1.72266,-12.43645 0.16818,-11.6646 8.11417,0.50754 -0.50635,19.10245 11.32645,0.16878 1.42053,-20.78546 z"
       inkscape:export-filename="/home/vassilis/Source/kouzinaapospiti.gr/img/logo.png"
       inkscape:export-xdpi="49"
       inkscape:export-ydpi="49" /><path
       inkscape:connector-curvature="0"
       id="path58"
       style="fill:#ffffe0;fill-opacity:1;fill-rule:nonzero;stroke:none"
       d="m 217.51447,459.22358 -1.62716,-4.3463 6.67682,-0.42225 0.67633,-16.56711 c 0,0 -4.97998,-1.78093 -5.61667,-0.89077 l 0.0384,-4.51868 14.87628,-0.16938 0.35559,6.4804 -4.75114,0.11172 -1.22592,16.51906 4.77576,0.21803 0.67633,3.71922 c 0,0 -10.2693,1.25536 -14.85466,-0.13394"
       inkscape:export-filename="/home/vassilis/Source/kouzinaapospiti.gr/img/logo.png"
       inkscape:export-xdpi="49"
       inkscape:export-ydpi="49" /><path
       inkscape:connector-curvature="0"
       id="path62"
       style="fill:#ffffe0;fill-opacity:1;fill-rule:nonzero;stroke:none"
       d="m 239.36309,456.66962 17.88193,1.03251 6.39992,-0.71237 0.50634,-5.74701 -10.38582,1.35146 3.20626,-19.99981 -6.34406,-2.48369 -2.53654,12.00277 -0.33756,8.96049 -9.5305,1.13883 1.14003,4.45682 z"
       inkscape:export-filename="/home/vassilis/Source/kouzinaapospiti.gr/img/logo.png"
       inkscape:export-xdpi="49"
       inkscape:export-ydpi="49" /><path
       inkscape:connector-curvature="0"
       id="path66"
       style="fill:#ffffe0;fill-opacity:1;fill-rule:nonzero;stroke:none"
       d="m 191.1211,495.02702 c -1.35266,-0.50755 -5.91759,-1.69083 -6.76271,0 -0.84511,1.69083 -3.21107,5.24067 -2.02839,7.60722 1.18328,2.36656 2.53594,4.56494 2.53594,4.56494 0,0 5.07068,0.67633 6.59333,0 1.52144,-0.67633 2.8729,-3.88861 3.04229,-5.07249 0.16998,-1.18267 -2.0278,-6.59272 -3.38046,-7.09967 m 1.69023,17.91917 c 0,0 -2.36656,1.52084 -4.05739,1.52084 -1.69082,0 -4.05678,-1.18267 -4.9025,-1.35266 -0.84571,-0.16818 -3.04288,-3.21167 -4.22616,-3.8874 -1.18268,-0.67573 -0.67633,-6.59333 -1.47159,-7.39399 -0.79526,-0.80127 1.3022,-7.31411 1.47159,-8.15922 0.16938,-0.84512 2.19777,-3.21227 4.03396,-3.65615 1.83618,-0.44388 4.75654,-0.40064 7.46186,-0.23186 2.70473,0.16939 5.40945,2.87411 6.25396,4.22617 0.84512,1.35267 1.86021,4.39555 2.19838,8.62172 0.33877,4.22677 -6.76211,10.31255 -6.76211,10.31255"
       inkscape:export-filename="/home/vassilis/Source/kouzinaapospiti.gr/img/logo.png"
       inkscape:export-xdpi="49"
       inkscape:export-ydpi="49" /><path
       inkscape:connector-curvature="0"
       id="path70"
       style="fill:#ffffe0;fill-opacity:1;fill-rule:nonzero;stroke:none"
       d="m 204.51372,471.22479 c -0.13154,-0.47391 -2.23562,-2.90834 -3.90302,-2.6855 -1.6686,0.22284 -2.2206,0.45409 -3.2357,1.80555 -1.01329,1.35266 1.18448,6.08638 1.18448,6.08638 0,0 2.70473,2.02959 4.05739,1.35266 1.35266,-0.67693 2.19717,-1.85961 2.36596,-3.21227 0.16938,-1.35266 -0.33817,-2.87411 -0.46911,-3.34682 m -0.37601,9.77016 c -2.70532,2.36596 -5.07128,-0.16818 -6.25456,-0.33696 -1.18388,-0.16999 -2.99303,-3.0489 -3.35042,-4.12226 -0.2751,-0.82709 -0.20002,-5.68274 0.20783,-6.93449 0.40844,-1.25176 2.63444,-3.48317 4.15589,-3.48317 1.52324,0 4.56553,0.16999 5.91759,0.67693 1.35267,0.50695 1.18328,1.69023 2.87411,5.57823 1.69083,3.88921 -3.55044,8.62172 -3.55044,8.62172"
       inkscape:export-filename="/home/vassilis/Source/kouzinaapospiti.gr/img/logo.png"
       inkscape:export-xdpi="49"
       inkscape:export-ydpi="49" /><path
       inkscape:connector-curvature="0"
       id="path74"
       style="fill:#ffffe0;fill-opacity:1;fill-rule:nonzero;stroke:none"
       d="m 162.71988,473.05023 1.69023,4.90249 1.9425,-4.88508 -3.63273,-0.0174 z m 4.53731,10.10171 -4.9956,0 -5.52718,-15.3622 3.28015,-1.50162 1.34125,3.96909 5.59084,-0.24987 2.19718,-3.71922 3.38105,1.85961 -5.26769,15.00421 z"
       inkscape:export-filename="/home/vassilis/Source/kouzinaapospiti.gr/img/logo.png"
       inkscape:export-xdpi="49"
       inkscape:export-ydpi="49" /><path
       inkscape:connector-curvature="0"
       id="path78"
       style="fill:#ffffe0;fill-opacity:1;fill-rule:nonzero;stroke:none"
       d="m 270.18336,459.22358 13.58369,0.39403 1.83978,-3.97931 -6.02331,-0.21803 0.79707,-17.02601 4.63881,-0.0372 0.43247,-4.86525 -15.21445,-1.26017 -0.32915,4.16731 5.21724,0.55139 0.67633,16.90468 -6.82518,0.60005 1.2067,4.76855 z"
       inkscape:export-filename="/home/vassilis/Source/kouzinaapospiti.gr/img/logo.png"
       inkscape:export-xdpi="49"
       inkscape:export-ydpi="49" /><path
       inkscape:connector-curvature="0"
       id="path82"
       style="fill:#231f20;fill-opacity:1;fill-rule:nonzero;stroke:none"
       d="m 171.98009,493.48137 c -0.90097,4.98239 -3.41649,9.44341 -3.93906,14.66365 1.85121,2.22961 3.89281,4.50727 5.3638,7.11889 l -0.23785,0.14176 c -1.89866,-0.23846 -3.22729,0.85412 -5.12595,0.61747 -0.56941,-0.14356 -0.23665,-0.85593 -0.47451,-1.23434 -3.46394,-3.55824 -5.5524,-8.20967 -9.77496,-10.915 -0.52257,3.93906 0.61626,7.97362 0.61626,11.91208 -1.51844,-0.23966 -3.27414,-0.0949 -4.55532,-0.90218 -0.33156,-1.8512 -0.52257,-3.7012 -0.52257,-5.59985 0,-5.5536 0.75982,-11.34206 -0.47511,-16.84761 l 0.28591,-0.47391 c 1.51784,-0.0469 3.22609,0 4.79318,0.33276 -0.23786,2.22961 0.0474,4.65022 -0.66492,6.73748 0,2.42182 2.42002,3.27414 4.17632,4.22497 3.55884,-2.80083 4.27121,-6.83539 6.12121,-10.58344 1.37609,-0.33276 3.08494,0.42766 4.41357,0.80727 m 5.362,-3.32339 c -1.7545,-0.61687 -3.93726,-0.18921 -6.07377,-0.18921 -1.42414,1.27999 -3.93905,0.85413 -4.46102,3.13299 -1.28058,2.22961 -1.28058,4.79198 -3.27414,6.69123 -1.04453,0 -1.70945,-1.56649 -2.42001,-2.42001 l -0.37961,-8.21088 c -1.5659,-0.75922 -3.46455,-0.52256 -5.07849,-0.99768 -1.23254,1.89865 -4.60338,3.46515 -3.03689,6.45578 1.14004,7.16515 -0.47511,14.14169 0.52257,21.40294 1.61214,0.0943 3.32159,0.52136 4.93553,0.52136 0.56942,0 1.13883,-0.0955 1.6596,-0.28471 l 2.42121,-2.46807 c -0.42766,-1.65959 -0.90157,-4.22496 -0.75922,-5.97886 l 0.47512,0.52196 5.21904,7.16635 c 0.1898,0.23666 0.0955,0.66372 0.0955,0.90158 2.60982,0.75922 4.93554,-0.28531 7.35675,-0.66492 0.33096,-1.28059 1.27999,-2.18336 1.89625,-3.27474 -1.04392,-2.42062 -3.55824,-4.45982 -5.07668,-6.59633 0.52076,-3.84296 2.65727,-7.02279 3.65435,-10.7252 0.90097,-1.66019 2.08725,-3.13118 2.32391,-4.98358"
       inkscape:export-filename="/home/vassilis/Source/kouzinaapospiti.gr/img/logo.png"
       inkscape:export-xdpi="49"
       inkscape:export-ydpi="49" /><path
       inkscape:connector-curvature="0"
       id="path86"
       style="fill:#231f20;fill-opacity:1;fill-rule:nonzero;stroke:none"
       d="m 193.19815,504.87028 c -0.90218,1.51784 -2.75398,1.662 -4.22497,1.80375 -0.99588,-0.71237 -2.08665,-1.18748 -3.03628,-1.9461 -0.90218,-1.09138 -1.42354,-2.51492 -1.28179,-3.89101 -0.33155,-2.51612 0.80547,-5.41065 3.08554,-6.78794 2.65667,-0.23545 4.26941,2.18336 5.93141,4.08141 0.94843,2.13711 0.61747,4.84184 -0.47391,6.73989 m 0.23725,1.70885 c 1.5653,-3.27594 1.99236,-7.83007 -0.71237,-10.62969 -1.37608,-1.9449 -3.13298,-2.70593 -5.36259,-2.56297 -2.70533,-0.23846 -4.93614,1.70944 -6.31223,3.84175 -0.23665,2.23261 -1.18628,5.41185 0.61747,7.3093 1.28119,2.04161 2.89453,4.36672 5.59986,4.22437 2.1353,1.51844 5.31454,0.33095 6.16986,-2.18276 m 3.32159,-11.67362 c 0.18981,2.41881 1.32804,4.46042 1.7557,6.78613 -0.0474,2.79963 -0.85472,5.31335 -2.42121,7.54596 l -5.07789,4.84003 c -1.13703,0.37961 -2.18156,0.14055 -3.36784,0.0937 -3.74866,-1.18568 -7.26125,-3.6075 -8.77969,-7.4973 -0.14296,-3.7967 -0.95023,-7.35615 -0.0469,-11.0093 0.90157,-2.27826 2.84647,-4.27182 5.36139,-4.69828 4.74633,-0.75922 9.53891,0.47271 12.57639,3.93906 m 1.7557,-2.51552 c -2.51492,-3.03929 -6.31222,-4.27062 -10.34558,-3.37024 l -4.50787,0.99768 c -3.74986,1.75569 -5.88516,5.17279 -6.02812,9.10944 0.33216,0.80727 0.52257,1.71005 0.52257,2.70593 0,2.84828 -0.28471,6.12241 2.08785,8.16222 1.13943,2.65727 3.89281,2.80023 5.83771,4.46222 4.60338,1.51724 8.21028,-1.70884 12.05323,-3.22668 2.56237,-2.18457 2.94258,-5.55241 2.94258,-8.7797 0,-1.09137 0.0474,-2.18336 0.0949,-3.17983 0.38022,-2.75398 -1.51784,-4.69888 -2.65727,-6.88104"
       inkscape:export-filename="/home/vassilis/Source/kouzinaapospiti.gr/img/logo.png"
       inkscape:export-xdpi="49"
       inkscape:export-ydpi="49" /><path
       inkscape:connector-curvature="0"
       id="path90"
       style="fill:#231f20;fill-opacity:1;fill-rule:nonzero;stroke:none"
       d="m 213.17971,492.05663 c 2.23081,-0.33156 4.65022,-0.23786 6.78733,0.14355 -0.38021,3.22609 -0.47571,6.69064 -0.71357,10.10653 l 0.85473,1.42414 c 1.13883,4.03396 3.7955,7.4042 5.45749,11.24776 0.14236,0.90097 1.28119,1.47039 1.42294,2.42121 -0.1886,0.52197 -0.75802,0.23486 -1.13883,0.28411 -0.56941,-0.1898 -1.18628,-0.1898 -1.80255,-0.1898 -0.56881,0 -1.18688,0 -1.7563,-0.33216 -0.56941,-1.89806 -1.56589,-3.6075 -2.51491,-5.31455 -0.75922,-2.04221 -2.32512,-2.84828 -2.32512,-5.98066 -0.23785,-1.42294 -1.32983,0.14235 -1.9461,0.61686 -2.13591,2.42062 -4.08081,4.31867 -5.5518,6.97534 -0.52197,3.65556 -4.27122,0.57002 -6.45458,1.18508 -0.23725,0.14476 -0.52196,-0.1868 -0.47451,-0.3778 1.66079,-1.09078 2.70532,-2.94078 4.17691,-4.31807 1.61275,-2.98943 4.79198,-4.84003 6.45338,-7.73516 0.71177,-3.22729 -0.18981,-6.59513 -0.75922,-9.77677 l 0.28471,-0.37961 z m 16.94191,23.20728 c -1.8506,-2.32631 -2.89513,-4.98358 -4.17631,-7.594 -0.56882,-2.32392 -1.18629,-4.60338 -2.18397,-6.83299 -0.0468,-3.65375 -0.0468,-7.2132 0.28591,-10.81949 -2.18336,-0.90158 -4.55592,-0.90158 -6.69123,-1.7563 -0.75922,-0.85413 -1.42294,0.47391 -2.18336,0.61626 l -2.56237,2.32692 c -0.75802,3.55764 1.13883,6.68943 0.90158,10.15518 -3.55885,3.9865 -6.64379,8.30277 -10.77265,11.76671 -0.14235,0.66612 -1.04393,0.95143 -0.75922,1.61455 l 7.64026,1.13883 c 2.65787,-2.46627 5.4575,-4.41297 7.59281,-7.2126 1.70944,2.61043 2.89513,5.50435 4.41357,8.20968 -0.14116,1.09138 0.47451,1.32803 1.23373,1.32803 0.80727,0 1.7569,-0.14175 2.32632,0.19161 2.08785,0.23546 3.84295,-1.70885 4.93493,-3.13239"
       inkscape:export-filename="/home/vassilis/Source/kouzinaapospiti.gr/img/logo.png"
       inkscape:export-xdpi="49"
       inkscape:export-ydpi="49" /><path
       inkscape:connector-curvature="0"
       id="path94"
       style="fill:#231f20;fill-opacity:1;fill-rule:nonzero;stroke:none"
       d="m 231.50305,493.81341 0.23726,-0.42706 c 5.17279,-2.13771 12.05323,-1.51784 17.88974,-0.99648 0.99767,0.99648 0.23785,3.22789 0.61686,4.41297 -3.93845,-0.52196 -9.01634,-0.70997 -13.0503,0.0469 -0.23666,0.14295 -0.75922,0.37901 -0.61627,0.75982 1.37669,2.18336 3.74925,3.56065 5.26709,5.69356 2.51492,3.7979 7.64146,5.83831 8.39948,10.39483 -0.23605,0.52076 0.57002,0.71177 0.33276,1.04273 l -4.65022,-0.37961 c -4.41357,-0.37961 -8.11658,2.13711 -12.38659,0.61747 -0.37961,-1.09138 -0.61687,-2.65728 0.0949,-3.65315 l 9.01575,-0.66612 c 0.99707,-0.52197 -0.18801,-0.85413 -0.0475,-1.46979 -3.41529,-3.79791 -7.591,-6.40773 -10.86574,-10.20383 l -0.23726,-5.17219 z m 19.36133,3.41529 3.55825,-2.75157 c -0.33216,-1.5659 -0.85293,-3.08374 -0.90098,-4.60398 -0.75922,-0.56821 -1.61274,-0.71117 -2.51431,-0.75742 -2.51612,0.18921 -5.22085,0.33216 -7.87872,0.33216 -2.60862,0 -5.17159,-0.14295 -7.44985,-0.57062 -1.89806,1.09198 -3.17924,3.03809 -4.69828,4.50908 -0.33276,2.1353 -0.23786,4.22316 0.33156,6.16866 1.09258,1.5659 2.89573,3.03629 4.46042,4.17572 1.99415,0.61807 2.94318,2.89513 4.55712,4.12946 -1.66259,0.28471 -3.27474,0.14296 -4.93553,-0.38081 -0.61687,1.71005 -2.89453,2.13651 -2.65727,4.22497 0,1.37488 -0.28531,3.22668 0.71116,3.98651 5.78906,1.13883 11.48502,-1.28119 17.32213,0.0949 1.28118,-1.28119 2.79962,-2.13771 4.27122,-3.22849 0,-1.7551 -0.95083,-3.27354 -1.28179,-4.98239 -3.41709,-3.08373 -7.07084,-7.07084 -11.106,-10.48673 2.42181,-0.52257 5.98066,0.38021 8.21087,0.14055"
       inkscape:export-filename="/home/vassilis/Source/kouzinaapospiti.gr/img/logo.png"
       inkscape:export-xdpi="49"
       inkscape:export-ydpi="49" /><path
       inkscape:connector-curvature="0"
       id="path98"
       style="fill:#231f20;fill-opacity:1;fill-rule:nonzero;stroke:none"
       d="m 260.07612,492.57925 c 3.17923,0.14236 6.45217,0.52257 9.48966,0.85293 1.47159,0.85532 0.42766,2.80022 0.56941,4.22556 -1.09138,0.0475 -2.27826,-0.52256 -3.55885,-0.2847 -1.61394,-0.28471 -0.71116,1.85 -1.09138,2.70472 0.75923,4.22256 -0.99527,8.44753 -0.0949,12.47969 1.09078,0.42826 2.13471,0.85592 3.41649,0.52196 0.80788,0 0.85413,0.71237 0.85413,1.33044 0,0.23425 0,0.42586 0.0469,0.56882 -0.38021,2.08845 -2.51432,0.52256 -3.93786,1.28118 -2.42061,-0.52196 -5.17219,-0.28531 -7.83066,-0.52196 -1.56469,-0.14296 -1.04453,-2.32452 -1.56469,-3.5114 1.18568,-0.0943 2.60862,0.13995 3.84295,0.13995 0.42586,0 0.85532,-0.0451 1.28058,-0.188 0.37961,-0.0949 0.57002,-0.28531 0.57002,-0.61687 0,-0.33095 0.0961,-0.61626 0.28471,-0.85412 -0.0469,-2.32571 0,-4.65083 0,-6.97714 0,-2.27586 -0.0949,-4.50727 -0.61747,-6.73748 -1.13763,-0.99708 -2.65607,-1.32804 -4.17511,-0.99708 -0.42586,-0.52257 0.0487,-1.51844 -0.0961,-2.27766 -0.14235,-1.85 1.80375,-0.33156 2.61223,-1.13884 m 14.42579,2.37137 c -0.0475,-1.56409 -0.71297,-2.94018 -0.47571,-4.50787 -1.46979,-0.75742 -3.08434,-0.94783 -4.79078,-0.94783 -1.6614,0 -3.37024,0.14235 -5.07969,0.14235 -1.28179,-0.0475 -2.89393,0.14116 -4.07961,-0.47511 -1.6626,1.6608 -4.27242,3.74925 -3.13359,6.78734 l 0.33276,0.52136 c 0.71057,0.0462 1.42234,0.0949 2.13531,0.0949 0.75802,0 1.42354,0.14236 1.9461,0.47452 0.52076,3.9859 0.0943,7.87751 0.23606,11.86402 -1.13703,0.99708 -2.51372,-0.14235 -3.79611,0.23666 -0.85412,0.85412 -1.04453,2.18456 -2.041,2.94258 0.38081,1.28058 0.23906,2.89513 1.42354,3.7961 3.74985,0.90218 7.87751,0.85472 11.86462,0.85472 0.57062,-0.56941 1.37609,-0.38021 2.08906,-0.71116 l 2.46747,-1.42474 c -0.18981,-1.5659 0.42586,-2.98763 0.1886,-4.65023 -1.37489,-1.61334 -4.41297,0.1886 -5.17159,-1.9449 0.14055,-3.03809 0.14055,-6.07617 0,-9.11245 0.048,-0.57002 0.42646,-0.61747 0.85412,-0.61747 l 0.61567,0 c 0.23786,0 0.38021,-0.0943 0.52497,-0.23606 1.08897,-1.47159 3.50899,-1.37668 3.8898,-3.08673"
       inkscape:export-filename="/home/vassilis/Source/kouzinaapospiti.gr/img/logo.png"
       inkscape:export-xdpi="49"
       inkscape:export-ydpi="49" /><path
       inkscape:connector-curvature="0"
       id="path102"
       style="fill:#231f20;fill-opacity:1;fill-rule:nonzero;stroke:none"
       d="m 294.95834,492.72179 c 1.09138,0.56941 2.32512,0.14235 3.46335,0.52136 0.80727,0.23846 1.66079,0.71237 1.51904,1.80315 -0.80727,7.64146 -0.99588,15.04446 -1.32864,22.77962 -1.56589,0.37901 -3.93906,0.47632 -5.41125,-0.14175 0.56942,-2.27826 0.37961,-4.74693 0.23786,-6.97714 -0.0943,-1.51784 0.28351,-3.03688 0.28351,-4.45862 0,-0.42826 -0.0931,-0.90218 -0.28351,-1.33044 -0.80727,-0.28531 -1.18688,0.61687 -1.80375,0.99708 -3.03688,3.7955 -5.40885,7.78321 -8.44633,11.57872 l -2.13471,-0.18981 c -1.09258,-0.52196 -2.46806,-0.28411 -3.46334,-0.99588 0.23545,-4.60337 -1.28359,-8.63793 -1.14123,-13.14521 0.61866,-3.41709 0.85472,-7.4036 0.52256,-10.82189 1.47039,0.14295 2.94138,0.23845 4.41297,0.61867 0.14296,0.14235 0.23666,0.33155 0.23666,0.52196 0,0.56761 -0.33216,1.23313 -0.33216,1.80315 -0.14176,5.5524 -0.61507,11.34086 -0.75922,16.84701 1.37669,-0.71237 2.65847,-1.47279 3.7967,-2.65908 2.04041,-3.55764 5.83831,-5.07728 8.49618,-8.11296 0.56822,-2.99064 1.23374,-5.79026 2.13531,-8.63794 m 9.53771,-2.27886 c -0.37781,-1.32744 -1.28118,-1.5653 -2.27766,-1.5653 l -1.51844,0 c -0.52136,0 -0.99708,-0.14295 -1.42414,-0.47451 l -1.04333,0.18981 -4.17571,4.36672 c -1.32984,2.46686 0,6.40652 -2.84828,8.01926 -2.08906,1.6614 -4.65143,2.89453 -6.50083,4.84124 l -0.28471,-0.42827 c -0.42826,-4.74513 -0.90337,-9.3485 -0.37961,-14.28404 -1.51904,-1.47099 -3.56064,-1.80254 -5.40944,-2.42001 -0.66612,1.18568 -2.70593,1.51904 -2.32692,3.13118 0.14236,2.51552 -0.14175,5.03044 -0.0937,7.73576 -1.28239,5.98007 1.28059,11.48502 0.90037,17.51193 0.71237,0.56822 1.662,0.18921 2.65788,0.42707 0.33336,0.1904 0.61686,0.2853 0.95022,0.2853 0.61567,0 1.27999,-0.0949 1.89746,-0.0949 0.33275,0 0.61506,0.0468 0.94902,0.1886 4.79438,-0.90097 5.69476,-5.97946 8.73164,-9.01574 0.19161,-0.18981 0.28411,-0.42706 0.61807,-0.28591 -0.14296,3.18044 0.2829,6.50263 0.14235,9.73112 0.90098,0.37841 1.89805,0.42466 2.98943,0.42466 1.09138,0 2.08846,-0.0462 2.98943,0 l 1.89806,-2.94138 c 0.52076,-0.76042 1.75569,-1.09198 0.99587,-2.13711 -0.33156,-4.69648 0.28531,-9.1569 1.94671,-13.42992 -0.14236,-3.36904 0.99527,-6.45337 0.61626,-9.77556"
       inkscape:export-filename="/home/vassilis/Source/kouzinaapospiti.gr/img/logo.png"
       inkscape:export-xdpi="49"
       inkscape:export-ydpi="49" /><path
       inkscape:connector-curvature="0"
       id="path106"
       style="fill:#231f20;fill-opacity:1;fill-rule:nonzero;stroke:none"
       d="m 318.54908,505.96184 c -0.14355,-1.51784 -1.47159,-3.84416 -1.61454,-5.02984 l 2.94138,0.47271 c -0.33096,1.28299 -0.56882,2.37437 -0.99528,3.37085 l -0.33156,1.18628 z m -1.18868,5.26829 c 1.18868,-3.41709 2.09026,-6.88163 3.18044,-10.29813 -2.27887,-0.1898 -3.89041,-0.61686 -6.30922,-0.42826 0.70936,3.6069 2.18095,7.07144 2.89212,10.72639 l 0.23666,0 z m 6.83479,-19.55293 1.04392,0 c 1.13823,0.61807 2.65788,0.99708 3.27474,2.27826 -0.90157,2.23141 -1.37668,4.69828 -2.75277,6.83359 -0.71237,5.12594 -1.99296,10.06147 -4.03336,14.6168 -2.18276,1.04333 -4.98239,0.23665 -7.16635,0.23665 -0.75802,-0.90217 -1.13763,-2.08785 -1.47099,-3.27594 -1.66139,-6.59453 -5.17399,-12.81185 -7.16634,-19.45563 1.8512,-0.37901 3.37084,-0.90097 5.12714,-1.28118 0.52076,0.52136 0.37781,1.80255 0.75862,2.32571 0.52136,0.90158 0.37901,2.18276 1.13703,2.70533 2.99183,-0.52257 5.6497,-0.0481 8.35443,0.85352 1.80255,-1.51904 1.75509,-3.93906 2.89393,-5.83711 m 8.49558,-0.71117 c 0.14355,-1.37609 -1.56649,-1.04513 -2.42062,-1.42474 -1.51964,0.0487 -2.75217,-0.37961 -4.03396,-0.80667 -1.66079,1.47279 -3.22729,3.13359 -3.46394,5.4593 -2.42122,1.13763 -5.07849,-0.76162 -7.64206,-0.38081 -1.32684,-1.42354 -1.37489,-3.27414 -2.51312,-4.65143 l -4.74633,-0.28411 c -0.52136,1.5653 -3.03748,1.94551 -2.89573,3.79671 2.13471,3.55824 2.65727,7.82946 4.79318,11.38831 1.32864,4.17751 2.46747,8.35383 4.55533,12.19738 2.1359,0.14296 4.31926,0.90158 6.50383,0.28471 l 1.09077,-0.28471 c 1.18569,-1.89925 2.89393,-3.84355 4.79319,-5.31454 1.13823,-4.22377 1.99175,-8.63854 4.36431,-12.38659 0.76163,-2.37197 0.71417,-5.17279 1.61515,-7.59281"
       inkscape:export-filename="/home/vassilis/Source/kouzinaapospiti.gr/img/logo.png"
       inkscape:export-xdpi="49"
       inkscape:export-ydpi="49" /><path
       inkscape:connector-curvature="0"
       id="path110"
       style="fill:#231f20;fill-opacity:1;fill-rule:nonzero;stroke:none"
       d="m 165.04097,476.37722 c -0.0937,-0.99948 -0.96824,-2.53053 -1.06135,-3.30958 l 1.9359,0.31234 c -0.21924,0.84211 -0.37541,1.56109 -0.65591,2.217 l -0.21864,0.78024 z m -0.78084,3.46635 c 0.78084,-2.25003 1.37368,-4.5283 2.09266,-6.77593 -1.49922,-0.12553 -2.56057,-0.40784 -4.15349,-0.2817 0.46911,2.37256 1.43675,4.65323 1.90526,7.05763 l 0.15557,0 z m 4.49706,-12.86531 0.68654,0 c 0.74901,0.40544 1.74729,0.65651 2.15333,1.49802 -0.59164,1.46859 -0.90458,3.09214 -1.81036,4.49766 -0.4685,3.37145 -1.31061,6.61976 -2.65367,9.6164 -1.43675,0.68714 -3.27954,0.15677 -4.71569,0.15677 -0.49974,-0.59344 -0.74841,-1.37369 -0.96765,-2.15573 -1.09258,-4.33849 -3.40388,-8.43072 -4.7151,-12.80164 1.21872,-0.24867 2.2176,-0.59224 3.37205,-0.84211 0.34357,0.34117 0.25047,1.18688 0.50034,1.52865 0.34357,0.59344 0.24987,1.43675 0.74901,1.78093 1.96833,-0.34418 3.71622,-0.0306 5.49534,0.5616 1.18748,-0.99828 1.15565,-2.5912 1.90586,-3.84055 m 5.58844,-0.4685 c 0.0937,-0.90578 -1.03071,-0.68715 -1.59232,-0.93582 -0.99948,0.03 -1.81156,-0.25107 -2.65427,-0.53037 -1.09258,0.96765 -2.12269,2.05903 -2.27826,3.58948 -1.59353,0.74961 -3.34262,-0.49854 -5.02864,-0.24987 -0.87454,-0.93701 -0.90458,-2.15393 -1.65479,-3.06031 l -3.12157,-0.1868 c -0.34417,1.03011 -1.99896,1.28119 -1.90526,2.4987 1.40492,2.34073 1.74849,5.15117 3.15401,7.4943 0.87394,2.74737 1.62355,5.49354 2.99724,8.02287 1.40552,0.0955 2.84167,0.59405 4.27782,0.18801 l 0.71718,-0.18801 c 0.78204,-1.24814 1.90586,-2.52933 3.15401,-3.49577 0.75021,-2.78041 1.31121,-5.68395 2.8735,-8.14961 0.50034,-1.56169 0.46851,-3.40328 1.06135,-4.9968"
       inkscape:export-filename="/home/vassilis/Source/kouzinaapospiti.gr/img/logo.png"
       inkscape:export-xdpi="49"
       inkscape:export-ydpi="49" /><path
       inkscape:connector-curvature="0"
       id="path114"
       style="fill:#231f20;fill-opacity:1;fill-rule:nonzero;stroke:none"
       d="m 187.30662,467.54113 c 0.96765,0.12433 1.90526,0.21804 2.74737,0.74841 0.0943,5.02683 0.0943,9.95997 0.1886,14.92613 l -0.99948,0.18741 -9.11845,-1.09439 c -1.34245,-0.49733 -2.87231,0.25107 -3.96549,-0.34357 -0.34357,-4.52589 -1.31062,-9.24099 -0.46791,-13.73745 0.65591,0.84211 1.87343,0.50094 2.77981,0.74961 l 0,3.55765 c 0,2.25063 -0.0324,4.49826 0.21743,6.61915 1.90526,0.75202 4.30846,0.47031 6.46299,0.71898 0.46791,-0.0925 0.96885,-0.0925 1.31182,-0.4655 -0.0943,-1.03252 0,-2.2194 0.15617,-3.24831 0.4685,-2.77921 0.56281,-5.71578 0.68714,-8.61812 m 5.33977,13.42571 c -0.0312,-0.4685 -0.0631,-0.93641 -0.0631,-1.43615 0,-1.43615 0.0318,-2.99844 -0.53097,-4.24779 -0.0937,-1.59112 -0.15497,-3.12218 -0.15497,-4.6202 0,-1.49801 0.0613,-2.99724 0.15497,-4.52709 -0.90518,-0.71898 -2.15393,-0.78144 -3.27834,-0.99948 -0.99888,0.49974 -0.96765,1.65419 -1.81096,2.405 -0.21864,2.71554 -0.15617,5.43287 -0.81088,7.93037 -0.0943,0.0925 -0.21863,0.12554 -0.34417,0.12554 -0.2805,0 -0.74901,-0.12554 -1.03071,0.0294 -0.99888,0 -1.99776,0.84331 -2.99724,0.34357 l -0.21864,-0.68714 c -0.0949,-3.05971 0.21864,-6.46179 -0.77964,-9.21036 -0.84452,-0.49854 -1.8434,-0.81208 -2.99844,-0.68534 -0.99948,0.59104 -1.56169,1.56049 -2.4032,2.27826 -0.84451,4.24659 0.1862,8.80432 0.0931,12.95721 0.15557,0.75081 -0.0318,1.68602 0.90458,1.93709 4.09042,0.21804 8.33761,0.74841 12.583,0.99828 0.53277,0.25047 1.15685,0.033 1.68722,-0.0619 0.84271,-0.71838 1.24935,-1.68482 1.99836,-2.52934"
       inkscape:export-filename="/home/vassilis/Source/kouzinaapospiti.gr/img/logo.png"
       inkscape:export-xdpi="49"
       inkscape:export-ydpi="49" /><path
       inkscape:connector-curvature="0"
       id="path118"
       style="fill:#231f20;fill-opacity:1;fill-rule:nonzero;stroke:none"
       d="m 204.20282,475.65812 c -0.59464,0.99948 -1.81216,1.09439 -2.7798,1.18869 -0.65591,-0.46971 -1.37429,-0.78145 -1.99836,-1.28239 -0.59344,-0.71717 -0.93762,-1.65419 -0.84331,-2.55996 -0.21924,-1.65419 0.53097,-3.55825 2.02959,-4.46523 1.74849,-0.15557 2.81044,1.43615 3.90302,2.6855 0.62407,1.40552 0.40544,3.18524 -0.31114,4.43339 m 0.15557,1.12502 c 1.03011,-2.15513 1.31062,-5.15237 -0.46971,-6.99396 -0.90457,-1.27998 -2.05902,-1.77852 -3.52761,-1.68602 -1.77972,-0.15737 -3.24771,1.12261 -4.15349,2.52813 -0.15497,1.46739 -0.77964,3.56065 0.40604,4.8088 0.84331,1.34305 1.90406,2.8729 3.68498,2.7804 1.40492,0.99828 3.49698,0.21684 4.05979,-1.43735 m 2.18576,-7.6817 c 0.12374,1.59292 0.87455,2.93537 1.15445,4.46522 -0.0306,1.8428 -0.56161,3.49698 -1.59232,4.96437 l -3.34141,3.18524 c -0.74901,0.24867 -1.43615,0.0949 -2.2176,0.0619 -2.46506,-0.78084 -4.77696,-2.37076 -5.77524,-4.93133 -0.0931,-2.4993 -0.62468,-4.84063 -0.0312,-7.24563 0.59284,-1.49802 1.87282,-2.81104 3.52821,-3.09094 3.12217,-0.49914 6.27498,0.31293 8.27514,2.5912 m 1.15445,-1.65539 c -1.65479,-1.99776 -4.15289,-2.80864 -6.80716,-2.2158 l -2.966,0.65531 c -2.46747,1.15445 -3.87119,3.40328 -3.96609,5.99508 0.21984,0.53158 0.34417,1.12382 0.34417,1.77972 0,1.87343 -0.188,4.02856 1.37369,5.37041 0.74901,1.74909 2.56057,1.84219 3.84115,2.93417 3.02727,0.99948 5.40104,-1.12261 7.93097,-2.12089 1.68602,-1.43736 1.93589,-3.65315 1.93589,-5.77765 0,-0.71837 0.0312,-1.43615 0.0619,-2.09206 0.24987,-1.80975 -0.99948,-3.09094 -1.74849,-4.52829"
       inkscape:export-filename="/home/vassilis/Source/kouzinaapospiti.gr/img/logo.png"
       inkscape:export-xdpi="49"
       inkscape:export-ydpi="49" /><path
       inkscape:connector-curvature="0"
       id="path122"
       style="fill:#231f20;fill-opacity:1;fill-rule:nonzero;stroke:none"
       d="m 155.55438,432.48526 c 6.57531,0.21803 13.85698,0.6511 20.37823,0.0565 0.0553,1.95691 -0.59765,4.01894 -0.32496,5.923 -4.3487,-0.16278 -8.75086,0.21684 -12.88032,0.59584 0.86974,3.64414 5.65271,4.83823 6.35787,8.36945 -0.70516,1.5755 -2.66147,2.28427 -3.91323,3.37145 -1.03191,0.70396 -2.06383,1.3022 -3.20566,1.79293 -1.08718,0.48893 -2.06563,1.24815 -2.88011,2.28247 0.43487,0.21623 0.70696,0.59825 1.304,0.43427 4.94395,-0.86914 9.6188,1.19649 14.61981,0.16398 l 0.59764,0.54238 -0.27269,3.96609 c -7.39099,0.2733 -14.8907,-0.9232 -22.71596,-1.19529 -0.86913,-1.73768 0.32736,-3.64114 -0.21623,-5.54279 2.60742,-2.93297 5.75963,-5.16318 8.09555,-8.09615 -1.30401,-3.53362 -4.78117,-5.92421 -6.90146,-8.91484 0.2721,-1.30341 0.65171,-3.31498 1.95752,-3.74925 m 25.97327,-2.88012 c -0.81268,-0.38021 -1.79113,-0.59704 -2.93237,-0.59704 -1.08537,0 -2.11969,-0.0541 -3.09694,-0.10692 -5.21664,-0.43727 -10.59666,-0.87154 -15.8139,-0.43727 l -0.81568,-0.32495 c -2.5011,2.39058 -6.03172,4.3463 -5.76023,8.26013 2.1197,2.66147 4.89049,5.32595 6.79215,8.4217 -0.70637,1.46859 -2.82546,2.60922 -4.07481,4.13307 l -4.29284,4.0742 c 0.97786,2.11909 -1.08777,4.89109 0.70697,6.35727 7.98743,0.59825 16.1923,1.8476 24.29145,1.14184 1.30281,-1.30341 2.88012,-1.90166 3.85797,-3.58528 l -1.5755,-4.83823 c -0.65291,-0.27329 -1.79414,-0.38261 -2.93477,-0.38261 -1.14124,0 -2.39179,0.10932 -3.31619,-0.0517 -0.925,-0.16397 -2.17375,0.16098 -3.04289,-0.54178 0.86914,-2.06684 5.54279,-2.38938 3.64114,-5.2731 -1.35867,-1.95572 -2.93477,-3.74805 -4.18412,-5.76023 0,-0.32615 0.16157,-0.48893 0.43427,-0.48893 0.27089,0 0.54358,-0.0528 0.70756,-0.16337 l 5.76023,-0.10812 c 1.24935,-1.5755 2.82425,-2.22781 4.51027,-3.04169 1.03072,-1.95932 0.76042,-4.51448 1.13823,-6.68703"
       inkscape:export-filename="/home/vassilis/Source/kouzinaapospiti.gr/img/logo.png"
       inkscape:export-xdpi="49"
       inkscape:export-ydpi="49" /><path
       inkscape:connector-curvature="0"
       id="path126"
       style="fill:#231f20;fill-opacity:1;fill-rule:nonzero;stroke:none"
       d="m 204.46735,432.48526 c 1.68602,0.21803 3.31558,0.38141 4.78057,1.30581 0.16397,8.74906 0.16397,17.33654 0.32795,25.97568 l -1.73948,0.32615 -15.86855,-1.90286 c -2.33533,-0.86914 -4.99981,0.43547 -6.90026,-0.59704 -0.60005,-7.87872 -2.28367,-16.08539 -0.81748,-23.91005 1.14183,1.46679 3.26152,0.86794 4.83883,1.30101 l 0,6.1981 c 0,3.91323 -0.0541,7.82345 0.38021,11.51985 3.31378,1.30341 7.4991,0.81568 11.24956,1.24935 0.81448,-0.16398 1.68362,-0.16398 2.28186,-0.81388 -0.16397,-1.79294 0,-3.85857 0.2709,-5.65091 0.81628,-4.83703 0.97785,-9.94615 1.19589,-15.00121 m 9.29264,23.36766 c -0.0528,-0.81508 -0.10931,-1.62836 -0.10931,-2.49991 0,-2.4987 0.0565,-5.21423 -0.9238,-7.38858 -0.16278,-2.7732 -0.2703,-5.43468 -0.2703,-8.0451 0,-2.60802 0.10752,-5.21604 0.2703,-7.87751 -1.57491,-1.24935 -3.74926,-1.35867 -5.70497,-1.74008 -1.73888,0.86913 -1.68542,2.88131 -3.15401,4.18352 -0.37721,4.72891 -0.26969,9.45662 -1.41092,13.80412 -0.16278,0.16458 -0.38082,0.21743 -0.59885,0.21743 -0.48653,0 -1.30281,-0.21743 -1.79234,0.0565 -1.73948,0 -3.47596,1.46619 -5.21724,0.59345 l -0.38141,-1.19229 c -0.16278,-5.32596 0.38141,-11.24896 -1.35807,-16.03073 -1.46799,-0.87154 -3.20626,-1.41513 -5.21604,-1.19649 -1.73888,1.03251 -2.71613,2.71553 -4.18472,3.96608 -1.46679,7.39099 0.32675,15.32617 0.16218,22.55138 0.27149,1.30461 -0.0541,2.93537 1.5761,3.37084 7.1201,0.38081 14.50988,1.30221 21.90087,1.73948 0.9226,0.43427 2.01098,0.0541 2.93477,-0.10811 1.46679,-1.25056 2.17435,-2.93598 3.47776,-4.40396"
       inkscape:export-filename="/home/vassilis/Source/kouzinaapospiti.gr/img/logo.png"
       inkscape:export-xdpi="49"
       inkscape:export-ydpi="49" /><path
       inkscape:connector-curvature="0"
       id="path130"
       style="fill:#231f20;fill-opacity:1;fill-rule:nonzero;stroke:none"
       d="m 220.83096,432.5416 c 3.63993,0.16217 7.39039,0.59464 10.86694,0.97605 1.68422,0.98086 0.48953,3.20747 0.65351,4.83943 -1.25055,0.0529 -2.60982,-0.59824 -4.07481,-0.32735 -1.84939,-0.32855 -0.81748,2.11969 -1.25115,3.09695 0.87215,4.83823 -1.14183,9.67466 -0.10811,14.29365 1.24875,0.48893 2.44644,0.97605 3.91202,0.59704 0.925,0 0.97846,0.81629 0.97846,1.52145 0,0.27089 0,0.48833 0.0529,0.6511 -0.43247,2.39239 -2.87951,0.59825 -4.51028,1.46859 -2.77079,-0.59825 -5.9224,-0.32555 -8.96649,-0.59825 -1.79294,-0.16157 -1.19469,-2.66388 -1.79294,-4.02255 1.35747,-0.10811 2.99004,0.16458 4.40276,0.16458 0.49073,0 0.97606,-0.0553 1.46739,-0.21743 0.43187,-0.10752 0.6505,-0.32615 0.6505,-0.70637 0,-0.38081 0.11052,-0.70816 0.32555,-0.97665 -0.0516,-2.66568 0,-5.32896 0,-7.98804 0,-2.60922 -0.10691,-5.16438 -0.70576,-7.72074 -1.30341,-1.14003 -3.04109,-1.51904 -4.78297,-1.14003 -0.48592,-0.59585 0.0553,-1.73768 -0.10631,-2.60922 -0.16278,-2.11609 2.06383,-0.37901 2.98883,-1.30221 m 16.52025,2.71553 c -0.0559,-1.79233 -0.81568,-3.37024 -0.54418,-5.16258 -1.68543,-0.86914 -3.53122,-1.08657 -5.48814,-1.08657 -1.90105,0 -3.85977,0.16338 -5.81789,0.16338 -1.46618,-0.0529 -3.31137,0.16277 -4.67004,-0.54479 -1.90466,1.90285 -4.89049,4.29284 -3.58768,7.7724 l 0.38021,0.59824 c 0.81688,0.0529 1.63076,0.10932 2.44765,0.10932 0.86793,0 1.62836,0.16158 2.2254,0.54299 0.59645,4.56493 0.10932,9.01995 0.2721,13.58729 -1.30281,1.14003 -2.87832,-0.16638 -4.3463,0.26849 -0.97906,0.97966 -1.1965,2.4999 -2.33473,3.37204 0.43187,1.46619 0.26909,3.31258 1.62716,4.3463 4.29404,1.03372 9.01995,0.97846 13.58609,0.97846 0.6535,-0.65231 1.5773,-0.43547 2.38998,-0.81689 l 2.82546,-1.62836 c -0.21624,-1.79594 0.49073,-3.4243 0.21923,-5.32836 -1.5767,-1.84759 -5.05446,0.21744 -5.9236,-2.2266 0.16458,-3.47836 0.16458,-6.95552 0,-10.43388 0.0541,-0.65231 0.48893,-0.70696 0.97665,-0.70696 l 0.70697,0 c 0.2739,0 0.43607,-0.10932 0.59885,-0.2715 1.25115,-1.68302 4.01954,-1.5755 4.45681,-3.53242"
       inkscape:export-filename="/home/vassilis/Source/kouzinaapospiti.gr/img/logo.png"
       inkscape:export-xdpi="49"
       inkscape:export-ydpi="49" /><path
       inkscape:connector-curvature="0"
       id="path134"
       style="fill:#231f20;fill-opacity:1;fill-rule:nonzero;stroke:none"
       d="m 250.44987,430.85461 c 2.44585,0.0565 4.61839,0.65351 6.52185,1.73949 -1.14243,5.65271 -1.41272,11.62977 -2.44524,17.28188 l -0.76102,2.71793 0.43367,0.43427 8.37004,-0.70636 c 1.5749,1.14063 0.38021,3.15341 0.21624,4.67365 -1.95512,0.0553 -3.53182,0.86974 -5.54039,0.70636 -5.81549,-0.59824 -11.73789,-1.30581 -17.88193,-1.03191 -0.81328,-1.14063 -0.43187,-2.60922 -0.37841,-4.07601 3.04349,-0.16518 6.30141,0.37901 9.29204,0.10812 -0.21983,-7.44565 0.43367,-14.94355 2.17315,-21.84742 m 12.77281,26.95534 c 1.68362,-0.43427 2.98703,-1.8488 4.45441,-2.71674 0,-2.12029 0.0553,-4.78056 -0.97725,-6.68342 -1.24995,0.0535 -2.55577,0.10872 -3.91443,0.10872 -1.35927,0 -2.66268,-0.10872 -3.91263,-0.38021 -0.70577,-1.79234 -0.2709,-3.91443 0,-5.81489 0.59945,-4.29404 0.9244,-8.698 1.95751,-12.771 -2.44584,-1.30581 -5.9224,-0.21804 -8.25892,-1.79234 -3.96909,2.06323 -3.0453,6.24795 -4.18593,9.61579 -0.6529,3.48077 -1.14003,7.39099 -0.86974,10.87055 l -0.54178,0.49134 c -1.90286,0.21623 -3.53182,0.0505 -5.544,-0.11113 l -3.20686,3.58648 0.054,4.56313 0.48833,0.43547 c 7.98984,-0.59584 15.92321,2.06564 23.91185,0.49013 l 0.54539,0.10812 z"
       inkscape:export-filename="/home/vassilis/Source/kouzinaapospiti.gr/img/logo.png"
       inkscape:export-xdpi="49"
       inkscape:export-ydpi="49" /><path
       inkscape:connector-curvature="0"
       id="path138"
       style="fill:#231f20;fill-opacity:1;fill-rule:nonzero;stroke:none"
       d="m 273.49805,432.5416 c 3.64173,0.16217 7.39099,0.59464 10.86754,0.97605 1.68362,0.98086 0.48893,3.20747 0.65411,4.83943 -1.25235,0.0529 -2.61162,-0.59824 -4.07721,-0.32735 -1.84819,-0.32855 -0.81628,2.11969 -1.24995,3.09695 0.86854,4.83823 -1.14243,9.67466 -0.10872,14.29365 1.24875,0.48893 2.44585,0.97605 3.91263,0.59704 0.9244,0 0.97666,0.81629 0.97666,1.52145 0,0.27089 0,0.48833 0.0547,0.6511 -0.43367,2.39239 -2.87951,0.59825 -4.51088,1.46859 -2.76959,-0.59825 -5.923,-0.32555 -8.96589,-0.59825 -1.79174,-0.16157 -1.19469,-2.66388 -1.79174,-4.02255 1.35807,-0.10811 2.98763,0.16458 4.40096,0.16458 0.48893,0 0.97726,-0.0553 1.46739,-0.21743 0.43367,-0.10752 0.6511,-0.32615 0.6511,-0.70637 0,-0.38081 0.10932,-0.70816 0.32856,-0.97665 -0.0571,-2.66568 0,-5.32896 0,-7.98804 0,-2.60922 -0.10992,-5.16438 -0.70877,-7.72074 -1.30461,-1.14003 -3.04229,-1.51904 -4.78117,-1.14003 -0.48953,-0.59585 0.0541,-1.73768 -0.10932,-2.60922 -0.16397,-2.11609 2.06444,-0.37901 2.99004,-1.30221 m 16.51965,2.71553 c -0.0547,-1.79233 -0.81508,-3.37024 -0.54298,-5.16258 -1.68723,-0.86914 -3.53483,-1.08657 -5.48934,-1.08657 -1.90225,0 -3.85917,0.16338 -5.81428,0.16338 -1.46799,-0.0529 -3.31499,0.16277 -4.67305,-0.54479 -1.90286,1.90285 -4.89229,4.29284 -3.59008,7.7724 l 0.38141,0.59824 c 0.81748,0.0529 1.63136,0.10932 2.44524,0.10932 0.87094,0 1.63016,0.16158 2.22961,0.54299 0.59705,4.56493 0.10812,9.01995 0.27089,13.58729 -1.30581,1.14003 -2.87891,-0.16638 -4.3469,0.26849 -0.98025,0.97966 -1.19409,2.4999 -2.33772,3.37204 0.43607,1.46619 0.2751,3.31258 1.63256,4.3463 4.29224,1.03372 9.02055,0.97846 13.58429,0.97846 0.6535,-0.65231 1.5773,-0.43547 2.39118,-0.81689 l 2.82546,-1.62836 c -0.21684,-1.79594 0.49073,-3.4243 0.21863,-5.32836 -1.5755,-1.84759 -5.05446,0.21744 -5.9224,-2.2266 0.16157,-3.47836 0.16157,-6.95552 0,-10.43388 0.0505,-0.65231 0.48713,-0.70696 0.97666,-0.70696 l 0.70636,0 c 0.27209,0 0.43547,-0.10932 0.59825,-0.2715 1.24995,-1.68302 4.01894,-1.5755 4.45621,-3.53242"
       inkscape:export-filename="/home/vassilis/Source/kouzinaapospiti.gr/img/logo.png"
       inkscape:export-xdpi="49"
       inkscape:export-ydpi="49" /><path
       inkscape:connector-curvature="0"
       id="path142"
       style="fill:#ffffe0;fill-opacity:1;fill-rule:nonzero;stroke:none"
       d="m 135.80757,526.25134 -1.74877,0.14192 1.0502,23.2662 1.9581,-0.0902 z m -7.5525,0.80826 -0.34866,23.23892 2.30075,0.11805 0.0808,-23.59308 z m -7.05777,-0.55169 -1.31805,23.7628 2.26796,0 1.02345,-23.58967 z m -7.631,-0.5761 -0.97594,22.93986 1.94711,0.32293 1.54315,-23.20717 z m 13.55777,29.84228 c 0,0 -13.47353,1.35387 -19.87838,-4.81612 -0.31383,-11.68538 0.84597,-23.37075 2.75256,-35.05612 0,0 5.73464,-6.9602 10.41849,-6.31211 2.59855,-0.35627 2.67241,-1.76118 2.67241,-1.76118 l 1.33467,-63.54533 4.32239,0 1.04084,63.89406 c 0,0 7.52596,1.37646 11.38835,5.46586 6.11672,1.58304 6.40139,34.67679 6.40139,34.67679 0,0 -2.73206,7.73103 -20.28578,7.955"
       sodipodi:nodetypes="ccccccccccccccccccccccccccccccc"
       inkscape:export-filename="/home/vassilis/Source/kouzinaapospiti.gr/img/logo.png"
       inkscape:export-xdpi="49"
       inkscape:export-ydpi="49" /><path
       inkscape:connector-curvature="0"
       id="path146"
       style="fill:#231f20;fill-opacity:1;fill-rule:nonzero;stroke:none"
       d="m 132.45374,443.32234 c 0,0.39287 -0.65072,0.51094 -0.71002,0.0974 m -2.03532,64.82914 c -1.43699,-21.08589 -1.39781,-42.55829 -0.0683,-63.65052 0.0376,-0.60784 0.97847,-0.61843 0.95306,0 -0.82493,21.26696 -0.80427,42.38302 -0.13237,63.65052 0.0164,0.48764 -0.71955,0.47652 -0.75239,0 m 0.84611,-0.28116 c 3.57556,0.50248 7.22471,1.76687 10.05212,4.07168 3.3304,2.71516 4.3327,6.46491 5.20528,10.51011 1.7944,8.33079 2.94389,17.38166 2.28893,25.90306 -0.0423,0.54113 -0.79739,0.54113 -0.84134,0 -0.63431,-7.85743 -0.46647,-15.55656 -1.94371,-23.35628 -0.75239,-3.9716 -1.30092,-8.41762 -4.21569,-11.44411 -2.84329,-2.95395 -6.83343,-4.19292 -10.72455,-5.03426 -0.43471,-0.0932 -0.23933,-0.71109 0.17896,-0.6502 m 6.26265,41.56763 c -0.58931,-7.78648 -0.83551,-15.59997 -1.25062,-23.39811 -0.0265,-0.53212 0.80215,-0.53106 0.82863,0 0.39816,7.7939 0.85246,15.59468 1.04995,23.39811 0.008,0.40558 -0.59672,0.39658 -0.62796,0 m -2.86553,-23.85345 c 0.30604,0.0243 0.61525,0.0291 0.91917,0.0127 0.30551,-0.0137 0.60572,-0.0964 0.90753,-0.0953 0.34045,0.006 0.44264,0.44687 0.16943,0.62372 -0.56284,0.35952 -1.46824,0.24939 -2.08032,0.0889 -0.34256,-0.0889 -0.28221,-0.66078 0.0842,-0.63007 m 0.89376,23.92123 c -0.63908,-7.75525 -0.91388,-15.55921 -1.27922,-23.32928 -0.0275,-0.56813 0.85299,-0.56548 0.8837,0 0.43364,7.76319 0.88423,15.55497 1.04413,23.32928 0.01,0.42199 -0.61578,0.41087 -0.64861,0 m -4.94796,0.67508 c 0.29862,-7.89979 0.51677,-15.74399 0.0821,-23.64431 -0.0291,-0.56496 0.85087,-0.56496 0.87999,0 0.41458,7.86432 0.40346,15.79588 -0.29016,23.64431 -0.0371,0.42464 -0.68725,0.43788 -0.6719,0 m -1.73986,-23.9207 c 0.37381,0.12019 0.81698,0.0672 1.19979,0.036 0.35898,-0.0312 0.79792,-0.16255 1.15056,-0.0736 0.28909,0.0736 0.29492,0.44211 0.0768,0.59513 -0.32298,0.22768 -0.91229,0.1922 -1.28769,0.20279 -0.42623,0.0143 -0.90964,0.0312 -1.31469,-0.11966 -0.39446,-0.14666 -0.23668,-0.77197 0.17526,-0.64067 m -0.60413,23.98266 c -0.35105,-7.81932 0.16996,-15.69793 0.1186,-23.52625 -0.005,-0.60572 0.94194,-0.60731 0.94194,0 -0.0175,7.82832 -0.0577,15.70481 -0.37169,23.52625 -0.0185,0.44264 -0.66874,0.44264 -0.68885,0 m -5.69294,-0.0927 c 0.0577,-4.24005 0.55172,-8.50127 0.76721,-12.73709 0.18267,-3.57503 -0.25203,-7.65888 0.44211,-11.16561 0.0784,-0.38334 0.64702,-0.34786 0.74286,0 0.37116,1.3327 0.0921,2.97831 0.0418,4.34118 -0.0879,2.38795 -0.22132,4.7743 -0.36428,7.15959 -0.24674,4.12833 -0.27427,8.40703 -0.94194,12.4946 -0.0646,0.39604 -0.6952,0.29385 -0.68779,-0.0927 m -0.74127,-24.36599 c 0.79316,0.34681 1.61438,0.0641 2.41441,0.23298 0.36428,0.0762 0.29333,0.55594 0,0.66714 -0.42464,0.1599 -0.99647,0.0842 -1.43858,0.0275 -0.44635,-0.0583 -0.88211,-0.19433 -1.27498,-0.4167 -0.3394,-0.19326 -0.0429,-0.65868 0.29915,-0.51095 m -1.74251,24.37076 c 0.0699,-7.92309 0.75662,-15.88854 1.17597,-23.80104 0.0344,-0.59566 0.96365,-0.59831 0.93082,0 -0.43735,7.91673 -0.62055,15.9113 -1.40523,23.80104 -0.0434,0.43946 -0.70632,0.45958 -0.70156,0 m -5.06021,-1.08279 c 0.19273,-7.74148 0.93347,-15.52584 1.5106,-23.24879 0.0472,-0.61896 1.01553,-0.62637 0.97318,0 -0.51624,7.73195 -0.88105,15.55074 -1.77799,23.24879 -0.0503,0.43841 -0.71744,0.46383 -0.70579,0 m -2.08614,-0.31132 c -0.20755,-7.76002 0.0408,-15.57721 0.61632,-23.31975 0.0476,-0.62002 1.01818,-0.62478 0.97317,0 -0.56177,7.77378 -0.65284,15.53538 -0.8964,23.31975 -0.0154,0.44528 -0.68091,0.44687 -0.69309,0 m 1.2591,-23.79839 c 0.51094,0.11489 1.02825,0.21178 1.55401,0.24567 0.45006,0.0312 0.91335,-0.0164 1.35017,0.0974 0.33198,0.0879 0.31663,0.56178 0,0.65708 -0.91441,0.27163 -2.21692,-0.007 -3.09055,-0.3325 -0.41247,-0.15355 -0.25574,-0.76881 0.18637,-0.66767 m 9.05088,-16.63405 c 0.0307,-21.27596 0.59989,-42.55828 0.65761,-63.83848 0.002,-0.61843 0.95888,-0.61949 0.95835,0 -0.0397,21.25849 0.0291,42.59429 -0.84663,63.83848 -0.0196,0.49294 -0.76933,0.49877 -0.76933,0 m 0.38545,0.58825 c 0.42359,-0.14666 0.25309,-0.79422 -0.18532,-0.67508 -3.41353,0.92552 -8.80255,1.52012 -11.12747,4.53867 -2.36465,3.06726 -2.81894,8.44674 -3.41566,12.14885 -0.75239,4.65198 -1.13838,9.35638 -1.37346,14.05972 -0.11596,2.33711 -0.19591,4.67687 -0.26792,7.01398 -0.0508,1.58102 -0.3701,3.49296 0.36269,4.9792 1.32052,2.6818 5.42343,4.00761 8.11741,4.69858 3.99067,1.02453 8.164,1.03459 12.25633,0.979 7.46085,-0.1006 16.29571,-0.46435 20.51405,-7.68483 0.31398,-0.53795 -0.51995,-1.02189 -0.83181,-0.48606 -4.09762,7.01769 -12.92506,7.15271 -20.11694,7.26442 -3.44583,0.054 -6.9372,0.0212 -10.32691,-0.6629 -3.56497,-0.71903 -9.03817,-2.40383 -9.12024,-6.72489 -0.14561,-7.65623 0.46912,-15.63703 1.67103,-23.1932 0.56124,-3.52261 1.03459,-7.95644 2.79193,-11.10948 1.8574,-3.33146 7.68906,-3.97425 11.05229,-5.14598 M 122.767,443.13418 c 0.036,0.4257 -0.64967,0.5136 -0.74232,0.10008"
       inkscape:export-filename="/home/vassilis/Source/kouzinaapospiti.gr/img/logo.png"
       inkscape:export-xdpi="49"
       inkscape:export-ydpi="49" /><path
       inkscape:connector-curvature="0"
       id="path154"
       style="fill:#ffffe0;fill-opacity:1;fill-rule:nonzero;stroke:none"
       d="m 131.24584,407.88642 c -0.036,-0.24727 -0.0715,-0.49665 -0.10748,-0.74445 0.002,-0.4347 -0.2515,-0.52735 -0.76139,-0.27639 -0.8784,0.0434 -0.78997,0.14084 -0.85934,1.01766 -0.0254,0.34151 -0.0222,0.68461 0.004,1.02295 0.0593,0.78151 0.27638,1.49842 0.53477,2.22327 0.48765,-0.58401 1.16643,-1.36075 1.20456,-1.91617 0.0302,-0.44053 0.0254,-0.88846 -0.0154,-1.32687 m -1.64085,4.04679 c -0.0461,-0.0249 -0.0471,-0.0762 -0.0201,-0.14773 -0.0508,-0.0291 -0.0979,-0.0672 -0.13131,-0.12919 -0.80004,-1.473 -1.27233,-3.73387 -0.52418,-5.32918 0.43363,-0.9287 1.60696,-1.53708 2.49648,-0.77463 1.56778,1.34329 1.07272,7.94215 -1.82087,6.38073"
       inkscape:export-filename="/home/vassilis/Source/kouzinaapospiti.gr/img/logo.png"
       inkscape:export-xdpi="49"
       inkscape:export-ydpi="49" /></g></svg>